ISO-10303-21;
HEADER;

/* File generated by HOOPS Exchange Version 25.8.0 */

FILE_DESCRIPTION(('HOOPS Exchange Step'),'2;1');

FILE_NAME('/home/user/Development/ES8389-Hat/brackets/hat-trik-amp-faceplate.stp',
'2026-07-26T16:48:02-07:00',
('user'),
('Unknown organisation'),
'HOOPS Exchange 2025.8',
'HOOPS Exchange',
'Unknown authorisation');

FILE_SCHEMA( ('AP203_CONFIGURATION_CONTROLLED_3D_DESIGN_OF_MECHANICAL_PARTS_AND_ASSEMBLIES_MIM_LF') );

ENDSEC;

DATA;
#3=(NAMED_UNIT(*)PLANE_ANGLE_UNIT()SI_UNIT($,.RADIAN.));
#4=PLANE_ANGLE_MEASURE_WITH_UNIT(PLANE_ANGLE_MEASURE(0.0174532925),#3);
#5=(CONVERSION_BASED_UNIT('DEGREE',#4)NAMED_UNIT(#6)PLANE_ANGLE_UNIT());
#6=DIMENSIONAL_EXPONENTS(0.,0.,0.,0.,0.,0.,0.);
#7=(NAMED_UNIT(*)SI_UNIT($,.STERADIAN.)SOLID_ANGLE_UNIT());
#8=(LENGTH_UNIT()NAMED_UNIT(*)SI_UNIT(.MILLI.,.METRE.));
#9=UNCERTAINTY_MEASURE_WITH_UNIT(LENGTH_MEASURE(1.000000E-03),#8,'DISTANCE_ACCURACY_VALUE','Maximum Tolerance applied to model');
#10=(GEOMETRIC_REPRESENTATION_CONTEXT(3)GLOBAL_UNCERTAINTY_ASSIGNED_CONTEXT((#9))GLOBAL_UNIT_ASSIGNED_CONTEXT((#8,#5,#7))REPRESENTATION_CONTEXT('','root'));
#12=CARTESIAN_POINT('',(0.,0.,0.));
#13=DIRECTION('',(0.,0.,1.));
#14=DIRECTION('',(1.,0.,0.));
#15=AXIS2_PLACEMENT_3D('TS3D_PRODUCT_CSYS',#12,#13,#14);
#27=CARTESIAN_POINT('',(41.263751572,-36.352733237,4.02975936));
#28=DIRECTION('',(0.,0.,1.));
#29=DIRECTION('',(1.,0.,0.));
#30=AXIS2_PLACEMENT_3D('',#27,#28,#29);
#31=PLANE('',#30);
#32=CARTESIAN_POINT('',(41.263751572,-35.79318437,4.02975936));
#33=VERTEX_POINT('',#32);
#34=CARTESIAN_POINT('',(41.263751572,-9.649308501,4.02975936));
#35=VERTEX_POINT('',#34);
#36=CARTESIAN_POINT('',(41.263751572,-35.79318437,4.02975936));
#37=DIRECTION('',(0.,1.,0.));
#38=VECTOR('',#37,26.143875868);
#39=LINE('',#36,#38);
#40=EDGE_CURVE('',#33,#35,#39,.T.);
#41=ORIENTED_EDGE('',*,*,#40,.T.);
#42=CARTESIAN_POINT('',(39.248434487,-9.649308501,4.02975936));
#43=VERTEX_POINT('',#42);
#44=CARTESIAN_POINT('',(41.263751572,-9.649308501,4.02975936));
#45=DIRECTION('',(-1.,0.,0.));
#46=VECTOR('',#45,2.015317085);
#47=LINE('',#44,#46);
#48=EDGE_CURVE('',#35,#43,#47,.T.);
#49=ORIENTED_EDGE('',*,*,#48,.T.);
#50=CARTESIAN_POINT('',(39.248434487,-35.79318437,4.02975936));
#51=VERTEX_POINT('',#50);
#52=CARTESIAN_POINT('',(39.248434487,-35.79318437,4.02975936));
#53=DIRECTION('',(0.,1.,0.));
#54=VECTOR('',#53,26.143875868);
#55=LINE('',#52,#54);
#56=EDGE_CURVE('',#51,#43,#55,.T.);
#57=ORIENTED_EDGE('',*,*,#56,.F.);
#58=CARTESIAN_POINT('',(39.248434487,-35.79318437,4.02975936));
#59=DIRECTION('',(1.,-0.,-0.));
#60=VECTOR('',#59,2.015317085);
#61=LINE('',#58,#60);
#62=EDGE_CURVE('',#51,#33,#61,.T.);
#63=ORIENTED_EDGE('',*,*,#62,.T.);
#64=EDGE_LOOP('',(#41,#49,#57,#63));
#65=FACE_BOUND('',#64,.T.);
#66=ADVANCED_FACE('',(#65),#31,.T.);
#67=CARTESIAN_POINT('',(41.263751572,-9.153678669,4.02975936));
#68=DIRECTION('',(0.,1.,0.));
#69=DIRECTION('',(0.,0.,1.));
#70=AXIS2_PLACEMENT_3D('',#67,#68,#69);
#71=PLANE('',#70);
#72=CARTESIAN_POINT('',(39.248434487,-9.153678669,3.534129528));
#73=VERTEX_POINT('',#72);
#74=CARTESIAN_POINT('',(39.248434487,-9.153678669,-19.686303844));
#75=VERTEX_POINT('',#74);
#76=CARTESIAN_POINT('',(39.248434487,-9.153678669,3.534129528));
#77=DIRECTION('',(-0.,0.,-1.));
#78=VECTOR('',#77,23.220433372);
#79=LINE('',#76,#78);
#80=EDGE_CURVE('',#73,#75,#79,.T.);
#81=ORIENTED_EDGE('',*,*,#80,.F.);
#82=CARTESIAN_POINT('',(41.263751572,-9.153678669,3.534129528));
#83=VERTEX_POINT('',#82);
#84=CARTESIAN_POINT('',(39.248434487,-9.153678669,3.534129528));
#85=DIRECTION('',(1.,-0.,-0.));
#86=VECTOR('',#85,2.015317085);
#87=LINE('',#84,#86);
#88=EDGE_CURVE('',#73,#83,#87,.T.);
#89=ORIENTED_EDGE('',*,*,#88,.T.);
#90=CARTESIAN_POINT('',(41.263751572,-9.153678669,-19.686303844));
#91=VERTEX_POINT('',#90);
#92=CARTESIAN_POINT('',(41.263751572,-9.153678669,3.534129528));
#93=DIRECTION('',(-0.,0.,-1.));
#94=VECTOR('',#93,23.220433372);
#95=LINE('',#92,#94);
#96=EDGE_CURVE('',#83,#91,#95,.T.);
#97=ORIENTED_EDGE('',*,*,#96,.T.);
#98=CARTESIAN_POINT('',(41.263751572,-9.153678669,-19.686303844));
#99=DIRECTION('',(-1.,0.,0.));
#100=VECTOR('',#99,2.015317085);
#101=LINE('',#98,#100);
#102=EDGE_CURVE('',#91,#75,#101,.T.);
#103=ORIENTED_EDGE('',*,*,#102,.T.);
#104=EDGE_LOOP('',(#81,#89,#97,#103));
#105=FACE_BOUND('',#104,.T.);
#106=ADVANCED_FACE('',(#105),#71,.T.);
#107=CARTESIAN_POINT('',(41.263751572,-9.153678669,-20.210332029));
#108=DIRECTION('',(0.,0.,-1.));
#109=DIRECTION('',(-1.,0.,0.));
#110=AXIS2_PLACEMENT_3D('',#107,#108,#109);
#111=PLANE('',#110);
#112=CARTESIAN_POINT('',(39.248434487,-9.677706854,-20.210332029));
#113=VERTEX_POINT('',#112);
#114=CARTESIAN_POINT('',(39.248434487,-35.846826083,-20.210332029));
#115=VERTEX_POINT('',#114);
#116=CARTESIAN_POINT('',(39.248434487,-9.677706854,-20.210332029));
#117=DIRECTION('',(0.,-1.,0.));
#118=VECTOR('',#117,26.169119229);
#119=LINE('',#116,#118);
#120=EDGE_CURVE('',#113,#115,#119,.T.);
#121=ORIENTED_EDGE('',*,*,#120,.F.);
#122=CARTESIAN_POINT('',(41.263751572,-9.677706854,-20.210332029));
#123=VERTEX_POINT('',#122);
#124=CARTESIAN_POINT('',(39.248434487,-9.677706854,-20.210332029));
#125=DIRECTION('',(1.,-0.,-0.));
#126=VECTOR('',#125,2.015317085);
#127=LINE('',#124,#126);
#128=EDGE_CURVE('',#113,#123,#127,.T.);
#129=ORIENTED_EDGE('',*,*,#128,.T.);
#130=CARTESIAN_POINT('',(41.263751572,-35.846826083,-20.210332029));
#131=VERTEX_POINT('',#130);
#132=CARTESIAN_POINT('',(41.263751572,-9.677706854,-20.210332029));
#133=DIRECTION('',(0.,-1.,0.));
#134=VECTOR('',#133,26.169119229);
#135=LINE('',#132,#134);
#136=EDGE_CURVE('',#123,#131,#135,.T.);
#137=ORIENTED_EDGE('',*,*,#136,.T.);
#138=CARTESIAN_POINT('',(41.263751572,-35.846826083,-20.210332029));
#139=DIRECTION('',(-1.,0.,0.));
#140=VECTOR('',#139,2.015317085);
#141=LINE('',#138,#140);
#142=EDGE_CURVE('',#131,#115,#141,.T.);
#143=ORIENTED_EDGE('',*,*,#142,.T.);
#144=EDGE_LOOP('',(#121,#129,#137,#143));
#145=FACE_BOUND('',#144,.T.);
#146=ADVANCED_FACE('',(#145),#111,.T.);
#147=CARTESIAN_POINT('',(41.263751572,-14.479132255,-14.228340674));
#148=DIRECTION('',(0.,0.,-1.));
#149=DIRECTION('',(-1.,0.,0.));
#150=AXIS2_PLACEMENT_3D('',#147,#148,#149);
#151=PLANE('',#150);
#152=CARTESIAN_POINT('',(41.263751572,-15.478924997,-14.228340674));
#153=VERTEX_POINT('',#152);
#154=CARTESIAN_POINT('',(41.263751572,-30.028977355,-14.228340674));
#155=VERTEX_POINT('',#154);
#156=CARTESIAN_POINT('',(41.263751572,-15.478924997,-14.228340674));
#157=DIRECTION('',(0.,-1.,0.));
#158=VECTOR('',#157,14.550052358);
#159=LINE('',#156,#158);
#160=EDGE_CURVE('',#153,#155,#159,.T.);
#161=ORIENTED_EDGE('',*,*,#160,.F.);
#162=CARTESIAN_POINT('',(39.248434487,-15.478924997,-14.228340674));
#163=VERTEX_POINT('',#162);
#164=CARTESIAN_POINT('',(41.263751572,-15.478924997,-14.228340674));
#165=DIRECTION('',(-1.,0.,0.));
#166=VECTOR('',#165,2.015317085);
#167=LINE('',#164,#166);
#168=EDGE_CURVE('',#153,#163,#167,.T.);
#169=ORIENTED_EDGE('',*,*,#168,.T.);
#170=CARTESIAN_POINT('',(39.248434487,-30.028977355,-14.228340674));
#171=VERTEX_POINT('',#170);
#172=CARTESIAN_POINT('',(39.248434487,-15.478924997,-14.228340674));
#173=DIRECTION('',(0.,-1.,0.));
#174=VECTOR('',#173,14.550052358);
#175=LINE('',#172,#174);
#176=EDGE_CURVE('',#163,#171,#175,.T.);
#177=ORIENTED_EDGE('',*,*,#176,.T.);
#178=CARTESIAN_POINT('',(39.248434487,-30.028977355,-14.228340674));
#179=DIRECTION('',(1.,-0.,-0.));
#180=VECTOR('',#179,2.015317085);
#181=LINE('',#178,#180);
#182=EDGE_CURVE('',#171,#155,#181,.T.);
#183=ORIENTED_EDGE('',*,*,#182,.T.);
#184=EDGE_LOOP('',(#161,#169,#177,#183));
#185=FACE_BOUND('',#184,.T.);
#186=ADVANCED_FACE('',(#185),#151,.F.);
#187=CARTESIAN_POINT('',(41.263751572,-14.479132255,-1.952231994));
#188=DIRECTION('',(0.,1.,0.));
#189=DIRECTION('',(0.,0.,1.));
#190=AXIS2_PLACEMENT_3D('',#187,#188,#189);
#191=PLANE('',#190);
#192=CARTESIAN_POINT('',(41.263751572,-14.479132255,-2.469112813));
#193=VERTEX_POINT('',#192);
#194=CARTESIAN_POINT('',(41.263751572,-14.479132255,-13.228547932));
#195=VERTEX_POINT('',#194);
#196=CARTESIAN_POINT('',(41.263751572,-14.479132255,-2.469112813));
#197=DIRECTION('',(-0.,0.,-1.));
#198=VECTOR('',#197,10.759435119);
#199=LINE('',#196,#198);
#200=EDGE_CURVE('',#193,#195,#199,.T.);
#201=ORIENTED_EDGE('',*,*,#200,.F.);
#202=CARTESIAN_POINT('',(39.248434487,-14.479132255,-2.469112813));
#203=VERTEX_POINT('',#202);
#204=CARTESIAN_POINT('',(41.263751572,-14.479132255,-2.469112813));
#205=DIRECTION('',(-1.,0.,0.));
#206=VECTOR('',#205,2.015317085);
#207=LINE('',#204,#206);
#208=EDGE_CURVE('',#193,#203,#207,.T.);
#209=ORIENTED_EDGE('',*,*,#208,.T.);
#210=CARTESIAN_POINT('',(39.248434487,-14.479132255,-13.228547932));
#211=VERTEX_POINT('',#210);
#212=CARTESIAN_POINT('',(39.248434487,-14.479132255,-2.469112813));
#213=DIRECTION('',(-0.,0.,-1.));
#214=VECTOR('',#213,10.759435119);
#215=LINE('',#212,#214);
#216=EDGE_CURVE('',#203,#211,#215,.T.);
#217=ORIENTED_EDGE('',*,*,#216,.T.);
#218=CARTESIAN_POINT('',(39.248434487,-14.479132255,-13.228547932));
#219=DIRECTION('',(1.,-0.,-0.));
#220=VECTOR('',#219,2.015317085);
#221=LINE('',#218,#220);
#222=EDGE_CURVE('',#211,#195,#221,.T.);
#223=ORIENTED_EDGE('',*,*,#222,.T.);
#224=EDGE_LOOP('',(#201,#209,#217,#223));
#225=FACE_BOUND('',#224,.T.);
#226=ADVANCED_FACE('',(#225),#191,.F.);
#227=CARTESIAN_POINT('',(41.263751572,-31.027279651,-1.47702483));
#228=DIRECTION('',(0.,0.,1.));
#229=DIRECTION('',(1.,0.,0.));
#230=AXIS2_PLACEMENT_3D('',#227,#228,#229);
#231=PLANE('',#230);
#232=CARTESIAN_POINT('',(39.248434487,-30.0409771,-1.47702483));
#233=VERTEX_POINT('',#232);
#234=CARTESIAN_POINT('',(39.248434487,-15.471220238,-1.47702483));
#235=VERTEX_POINT('',#234);
#236=CARTESIAN_POINT('',(39.248434487,-30.0409771,-1.47702483));
#237=DIRECTION('',(-0.,1.,0.));
#238=VECTOR('',#237,14.569756863);
#239=LINE('',#236,#238);
#240=EDGE_CURVE('',#233,#235,#239,.T.);
#241=ORIENTED_EDGE('',*,*,#240,.T.);
#242=CARTESIAN_POINT('',(41.263751572,-15.471220238,-1.47702483));
#243=VERTEX_POINT('',#242);
#244=CARTESIAN_POINT('',(39.248434487,-15.471220238,-1.47702483));
#245=DIRECTION('',(1.,-0.,-0.));
#246=VECTOR('',#245,2.015317085);
#247=LINE('',#244,#246);
#248=EDGE_CURVE('',#235,#243,#247,.T.);
#249=ORIENTED_EDGE('',*,*,#248,.T.);
#250=CARTESIAN_POINT('',(41.263751572,-30.0409771,-1.47702483));
#251=VERTEX_POINT('',#250);
#252=CARTESIAN_POINT('',(41.263751572,-30.0409771,-1.47702483));
#253=DIRECTION('',(-0.,1.,0.));
#254=VECTOR('',#253,14.569756863);
#255=LINE('',#252,#254);
#256=EDGE_CURVE('',#251,#243,#255,.T.);
#257=ORIENTED_EDGE('',*,*,#256,.F.);
#258=CARTESIAN_POINT('',(41.263751572,-30.0409771,-1.47702483));
#259=DIRECTION('',(-1.,0.,0.));
#260=VECTOR('',#259,2.015317085);
#261=LINE('',#258,#260);
#262=EDGE_CURVE('',#251,#233,#261,.T.);
#263=ORIENTED_EDGE('',*,*,#262,.T.);
#264=EDGE_LOOP('',(#241,#249,#257,#263));
#265=FACE_BOUND('',#264,.T.);
#266=ADVANCED_FACE('',(#265),#231,.F.);
#267=CARTESIAN_POINT('',(41.263751572,-31.027279651,-14.228340674));
#268=DIRECTION('',(0.,-1.,0.));
#269=DIRECTION('',(0.,0.,-1.));
#270=AXIS2_PLACEMENT_3D('',#267,#268,#269);
#271=PLANE('',#270);
#272=CARTESIAN_POINT('',(39.248434487,-31.027279651,-13.230038378));
#273=VERTEX_POINT('',#272);
#274=CARTESIAN_POINT('',(39.248434487,-31.027279651,-2.46332738));
#275=VERTEX_POINT('',#274);
#276=CARTESIAN_POINT('',(39.248434487,-31.027279651,-13.230038378));
#277=DIRECTION('',(0.,0.,1.));
#278=VECTOR('',#277,10.766710997);
#279=LINE('',#276,#278);
#280=EDGE_CURVE('',#273,#275,#279,.T.);
#281=ORIENTED_EDGE('',*,*,#280,.T.);
#282=CARTESIAN_POINT('',(41.263751572,-31.027279651,-2.46332738));
#283=VERTEX_POINT('',#282);
#284=CARTESIAN_POINT('',(39.248434487,-31.027279651,-2.46332738));
#285=DIRECTION('',(1.,-0.,-0.));
#286=VECTOR('',#285,2.015317085);
#287=LINE('',#284,#286);
#288=EDGE_CURVE('',#275,#283,#287,.T.);
#289=ORIENTED_EDGE('',*,*,#288,.T.);
#290=CARTESIAN_POINT('',(41.263751572,-31.027279651,-13.230038378));
#291=VERTEX_POINT('',#290);
#292=CARTESIAN_POINT('',(41.263751572,-31.027279651,-13.230038378));
#293=DIRECTION('',(0.,0.,1.));
#294=VECTOR('',#293,10.766710997);
#295=LINE('',#292,#294);
#296=EDGE_CURVE('',#291,#283,#295,.T.);
#297=ORIENTED_EDGE('',*,*,#296,.F.);
#298=CARTESIAN_POINT('',(41.263751572,-31.027279651,-13.230038378));
#299=DIRECTION('',(-1.,0.,0.));
#300=VECTOR('',#299,2.015317085);
#301=LINE('',#298,#300);
#302=EDGE_CURVE('',#291,#273,#301,.T.);
#303=ORIENTED_EDGE('',*,*,#302,.T.);
#304=EDGE_LOOP('',(#281,#289,#297,#303));
#305=FACE_BOUND('',#304,.T.);
#306=ADVANCED_FACE('',(#305),#271,.F.);
#307=CARTESIAN_POINT('',(41.263751572,-36.352733237,-20.210332029));
#308=DIRECTION('',(0.,-1.,0.));
#309=DIRECTION('',(0.,0.,-1.));
#310=AXIS2_PLACEMENT_3D('',#307,#308,#309);
#311=PLANE('',#310);
#312=CARTESIAN_POINT('',(41.263751572,-36.352733237,-19.704424875));
#313=VERTEX_POINT('',#312);
#314=CARTESIAN_POINT('',(41.263751572,-36.352733237,3.470210493));
#315=VERTEX_POINT('',#314);
#316=CARTESIAN_POINT('',(41.263751572,-36.352733237,-19.704424875));
#317=DIRECTION('',(0.,0.,1.));
#318=VECTOR('',#317,23.174635369);
#319=LINE('',#316,#318);
#320=EDGE_CURVE('',#313,#315,#319,.T.);
#321=ORIENTED_EDGE('',*,*,#320,.T.);
#322=CARTESIAN_POINT('',(39.248434487,-36.352733237,3.470210493));
#323=VERTEX_POINT('',#322);
#324=CARTESIAN_POINT('',(41.263751572,-36.352733237,3.470210493));
#325=DIRECTION('',(-1.,0.,0.));
#326=VECTOR('',#325,2.015317085);
#327=LINE('',#324,#326);
#328=EDGE_CURVE('',#315,#323,#327,.T.);
#329=ORIENTED_EDGE('',*,*,#328,.T.);
#330=CARTESIAN_POINT('',(39.248434487,-36.352733237,-19.704424875));
#331=VERTEX_POINT('',#330);
#332=CARTESIAN_POINT('',(39.248434487,-36.352733237,-19.704424875));
#333=DIRECTION('',(0.,0.,1.));
#334=VECTOR('',#333,23.174635369);
#335=LINE('',#332,#334);
#336=EDGE_CURVE('',#331,#323,#335,.T.);
#337=ORIENTED_EDGE('',*,*,#336,.F.);
#338=CARTESIAN_POINT('',(39.248434487,-36.352733237,-19.704424875));
#339=DIRECTION('',(1.,-0.,-0.));
#340=VECTOR('',#339,2.015317085);
#341=LINE('',#338,#340);
#342=EDGE_CURVE('',#331,#313,#341,.T.);
#343=ORIENTED_EDGE('',*,*,#342,.T.);
#344=EDGE_LOOP('',(#321,#329,#337,#343));
#345=FACE_BOUND('',#344,.T.);
#346=ADVANCED_FACE('',(#345),#311,.T.);
#347=CARTESIAN_POINT('',(41.263751572,-22.753205953,-9.160433212));
#348=DIRECTION('',(-1.,-0.,0.));
#349=DIRECTION('',(0.,0.,1.));
#350=AXIS2_PLACEMENT_3D('',#347,#348,#349);
#351=PLANE('',#350);
#352=ORIENTED_EDGE('',*,*,#296,.T.);
#353=CARTESIAN_POINT('',(41.263751572,-30.0409771,-2.46332738));
#354=DIRECTION('',(-1.,-0.,0.));
#355=DIRECTION('',(0.,0.,1.));
#356=AXIS2_PLACEMENT_3D('',#353,#354,#355);
#357=CIRCLE('',#356,0.986302551);
#358=EDGE_CURVE('',#283,#251,#357,.T.);
#359=ORIENTED_EDGE('',*,*,#358,.T.);
#360=ORIENTED_EDGE('',*,*,#256,.T.);
#361=CARTESIAN_POINT('',(41.263751572,-15.471220238,-2.469112813));
#362=DIRECTION('',(-1.,-0.,0.));
#363=DIRECTION('',(0.,0.,1.));
#364=AXIS2_PLACEMENT_3D('',#361,#362,#363);
#365=CIRCLE('',#364,0.992087983);
#366=EDGE_CURVE('',#243,#193,#365,.T.);
#367=ORIENTED_EDGE('',*,*,#366,.T.);
#368=ORIENTED_EDGE('',*,*,#200,.T.);
#369=CARTESIAN_POINT('',(41.263751572,-15.478924997,-13.228547932));
#370=DIRECTION('',(-1.,-0.,0.));
#371=DIRECTION('',(0.,0.,1.));
#372=AXIS2_PLACEMENT_3D('',#369,#370,#371);
#373=CIRCLE('',#372,0.999792742);
#374=EDGE_CURVE('',#195,#153,#373,.T.);
#375=ORIENTED_EDGE('',*,*,#374,.T.);
#376=ORIENTED_EDGE('',*,*,#160,.T.);
#377=CARTESIAN_POINT('',(41.263751572,-30.028977355,-13.230038378));
#378=DIRECTION('',(-1.,-0.,0.));
#379=DIRECTION('',(0.,0.,1.));
#380=AXIS2_PLACEMENT_3D('',#377,#378,#379);
#381=CIRCLE('',#380,0.998302297);
#382=EDGE_CURVE('',#155,#291,#381,.T.);
#383=ORIENTED_EDGE('',*,*,#382,.T.);
#384=EDGE_LOOP('',(#352,#359,#360,#367,#368,#375,#376,#383));
#385=FACE_BOUND('',#384,.T.);
#386=ORIENTED_EDGE('',*,*,#96,.F.);
#387=CARTESIAN_POINT('',(41.263751572,-9.649308501,3.534129528));
#388=DIRECTION('',(1.,0.,-0.));
#389=DIRECTION('',(0.,0.,1.));
#390=AXIS2_PLACEMENT_3D('',#387,#388,#389);
#391=CIRCLE('',#390,0.495629832);
#392=EDGE_CURVE('',#83,#35,#391,.T.);
#393=ORIENTED_EDGE('',*,*,#392,.T.);
#394=ORIENTED_EDGE('',*,*,#40,.F.);
#395=CARTESIAN_POINT('',(41.263751572,-35.79318437,3.470210493));
#396=DIRECTION('',(1.,0.,-0.));
#397=DIRECTION('',(0.,0.,1.));
#398=AXIS2_PLACEMENT_3D('',#395,#396,#397);
#399=CIRCLE('',#398,0.559548867);
#400=EDGE_CURVE('',#33,#315,#399,.T.);
#401=ORIENTED_EDGE('',*,*,#400,.T.);
#402=ORIENTED_EDGE('',*,*,#320,.F.);
#403=CARTESIAN_POINT('',(41.263751572,-35.846826083,-19.704424875));
#404=DIRECTION('',(1.,0.,-0.));
#405=DIRECTION('',(0.,0.,1.));
#406=AXIS2_PLACEMENT_3D('',#403,#404,#405);
#407=CIRCLE('',#406,0.505907154);
#408=EDGE_CURVE('',#313,#131,#407,.T.);
#409=ORIENTED_EDGE('',*,*,#408,.T.);
#410=ORIENTED_EDGE('',*,*,#136,.F.);
#411=CARTESIAN_POINT('',(41.263751572,-9.677706854,-19.686303844));
#412=DIRECTION('',(1.,0.,-0.));
#413=DIRECTION('',(0.,0.,1.));
#414=AXIS2_PLACEMENT_3D('',#411,#412,#413);
#415=CIRCLE('',#414,0.524028185);
#416=EDGE_CURVE('',#123,#91,#415,.T.);
#417=ORIENTED_EDGE('',*,*,#416,.T.);
#418=EDGE_LOOP('',(#386,#393,#394,#401,#402,#409,#410,#417));
#419=FACE_BOUND('',#418,.T.);
#420=ADVANCED_FACE('',(#385,#419),#351,.F.);
#421=CARTESIAN_POINT('',(39.248434487,-22.753205953,-9.160433212));
#422=DIRECTION('',(-1.,-0.,0.));
#423=DIRECTION('',(0.,0.,1.));
#424=AXIS2_PLACEMENT_3D('',#421,#422,#423);
#425=PLANE('',#424);
#426=ORIENTED_EDGE('',*,*,#176,.F.);
#427=CARTESIAN_POINT('',(39.248434487,-15.478924997,-13.228547932));
#428=DIRECTION('',(1.,0.,-0.));
#429=DIRECTION('',(0.,0.,1.));
#430=AXIS2_PLACEMENT_3D('',#427,#428,#429);
#431=CIRCLE('',#430,0.999792742);
#432=EDGE_CURVE('',#163,#211,#431,.T.);
#433=ORIENTED_EDGE('',*,*,#432,.T.);
#434=ORIENTED_EDGE('',*,*,#216,.F.);
#435=CARTESIAN_POINT('',(39.248434487,-15.471220238,-2.469112813));
#436=DIRECTION('',(1.,0.,-0.));
#437=DIRECTION('',(0.,0.,1.));
#438=AXIS2_PLACEMENT_3D('',#435,#436,#437);
#439=CIRCLE('',#438,0.992087983);
#440=EDGE_CURVE('',#203,#235,#439,.T.);
#441=ORIENTED_EDGE('',*,*,#440,.T.);
#442=ORIENTED_EDGE('',*,*,#240,.F.);
#443=CARTESIAN_POINT('',(39.248434487,-30.0409771,-2.46332738));
#444=DIRECTION('',(1.,0.,-0.));
#445=DIRECTION('',(0.,0.,1.));
#446=AXIS2_PLACEMENT_3D('',#443,#444,#445);
#447=CIRCLE('',#446,0.986302551);
#448=EDGE_CURVE('',#233,#275,#447,.T.);
#449=ORIENTED_EDGE('',*,*,#448,.T.);
#450=ORIENTED_EDGE('',*,*,#280,.F.);
#451=CARTESIAN_POINT('',(39.248434487,-30.028977355,-13.230038378));
#452=DIRECTION('',(1.,0.,-0.));
#453=DIRECTION('',(0.,0.,1.));
#454=AXIS2_PLACEMENT_3D('',#451,#452,#453);
#455=CIRCLE('',#454,0.998302297);
#456=EDGE_CURVE('',#273,#171,#455,.T.);
#457=ORIENTED_EDGE('',*,*,#456,.T.);
#458=EDGE_LOOP('',(#426,#433,#434,#441,#442,#449,#450,#457));
#459=FACE_BOUND('',#458,.T.);
#460=ORIENTED_EDGE('',*,*,#56,.T.);
#461=CARTESIAN_POINT('',(39.248434487,-9.649308501,3.534129528));
#462=DIRECTION('',(-1.,-0.,0.));
#463=DIRECTION('',(0.,0.,1.));
#464=AXIS2_PLACEMENT_3D('',#461,#462,#463);
#465=CIRCLE('',#464,0.495629832);
#466=EDGE_CURVE('',#43,#73,#465,.T.);
#467=ORIENTED_EDGE('',*,*,#466,.T.);
#468=ORIENTED_EDGE('',*,*,#80,.T.);
#469=CARTESIAN_POINT('',(39.248434487,-9.677706854,-19.686303844));
#470=DIRECTION('',(-1.,-0.,0.));
#471=DIRECTION('',(0.,0.,1.));
#472=AXIS2_PLACEMENT_3D('',#469,#470,#471);
#473=CIRCLE('',#472,0.524028185);
#474=EDGE_CURVE('',#75,#113,#473,.T.);
#475=ORIENTED_EDGE('',*,*,#474,.T.);
#476=ORIENTED_EDGE('',*,*,#120,.T.);
#477=CARTESIAN_POINT('',(39.248434487,-35.846826083,-19.704424875));
#478=DIRECTION('',(-1.,-0.,0.));
#479=DIRECTION('',(0.,0.,1.));
#480=AXIS2_PLACEMENT_3D('',#477,#478,#479);
#481=CIRCLE('',#480,0.505907154);
#482=EDGE_CURVE('',#115,#331,#481,.T.);
#483=ORIENTED_EDGE('',*,*,#482,.T.);
#484=ORIENTED_EDGE('',*,*,#336,.T.);
#485=CARTESIAN_POINT('',(39.248434487,-35.79318437,3.470210493));
#486=DIRECTION('',(-1.,-0.,0.));
#487=DIRECTION('',(0.,0.,1.));
#488=AXIS2_PLACEMENT_3D('',#485,#486,#487);
#489=CIRCLE('',#488,0.559548867);
#490=EDGE_CURVE('',#323,#51,#489,.T.);
#491=ORIENTED_EDGE('',*,*,#490,.T.);
#492=EDGE_LOOP('',(#460,#467,#468,#475,#476,#483,#484,#491));
#493=FACE_BOUND('',#492,.T.);
#494=ADVANCED_FACE('',(#459,#493),#425,.T.);
#495=CARTESIAN_POINT('',(41.263751572,-30.028977355,-13.230038378));
#496=DIRECTION('',(1.,0.,0.));
#497=DIRECTION('',(0.,0.,-1.));
#498=AXIS2_PLACEMENT_3D('',#495,#496,#497);
#499=CYLINDRICAL_SURFACE('',#498,0.998302297);
#500=ORIENTED_EDGE('',*,*,#382,.F.);
#501=ORIENTED_EDGE('',*,*,#182,.F.);
#502=ORIENTED_EDGE('',*,*,#456,.F.);
#503=ORIENTED_EDGE('',*,*,#302,.F.);
#504=EDGE_LOOP('',(#500,#501,#502,#503));
#505=FACE_BOUND('',#504,.T.);
#506=ADVANCED_FACE('',(#505),#499,.F.);
#507=CARTESIAN_POINT('',(41.263751572,-15.478924997,-13.228547932));
#508=DIRECTION('',(1.,0.,0.));
#509=DIRECTION('',(0.,0.,-1.));
#510=AXIS2_PLACEMENT_3D('',#507,#508,#509);
#511=CYLINDRICAL_SURFACE('',#510,0.999792742);
#512=ORIENTED_EDGE('',*,*,#374,.F.);
#513=ORIENTED_EDGE('',*,*,#222,.F.);
#514=ORIENTED_EDGE('',*,*,#432,.F.);
#515=ORIENTED_EDGE('',*,*,#168,.F.);
#516=EDGE_LOOP('',(#512,#513,#514,#515));
#517=FACE_BOUND('',#516,.T.);
#518=ADVANCED_FACE('',(#517),#511,.F.);
#519=CARTESIAN_POINT('',(41.263751572,-35.846826083,-19.704424875));
#520=DIRECTION('',(-1.,0.,0.));
#521=DIRECTION('',(0.,0.,1.));
#522=AXIS2_PLACEMENT_3D('',#519,#520,#521);
#523=CYLINDRICAL_SURFACE('',#522,0.505907154);
#524=ORIENTED_EDGE('',*,*,#408,.F.);
#525=ORIENTED_EDGE('',*,*,#342,.F.);
#526=ORIENTED_EDGE('',*,*,#482,.F.);
#527=ORIENTED_EDGE('',*,*,#142,.F.);
#528=EDGE_LOOP('',(#524,#525,#526,#527));
#529=FACE_BOUND('',#528,.T.);
#530=ADVANCED_FACE('',(#529),#523,.T.);
#531=CARTESIAN_POINT('',(41.263751572,-35.79318437,3.470210493));
#532=DIRECTION('',(-1.,0.,0.));
#533=DIRECTION('',(0.,0.,1.));
#534=AXIS2_PLACEMENT_3D('',#531,#532,#533);
#535=CYLINDRICAL_SURFACE('',#534,0.559548867);
#536=ORIENTED_EDGE('',*,*,#400,.F.);
#537=ORIENTED_EDGE('',*,*,#62,.F.);
#538=ORIENTED_EDGE('',*,*,#490,.F.);
#539=ORIENTED_EDGE('',*,*,#328,.F.);
#540=EDGE_LOOP('',(#536,#537,#538,#539));
#541=FACE_BOUND('',#540,.T.);
#542=ADVANCED_FACE('',(#541),#535,.T.);
#543=CARTESIAN_POINT('',(41.263751572,-9.677706854,-19.686303844));
#544=DIRECTION('',(-1.,0.,0.));
#545=DIRECTION('',(0.,0.,1.));
#546=AXIS2_PLACEMENT_3D('',#543,#544,#545);
#547=CYLINDRICAL_SURFACE('',#546,0.524028185);
#548=ORIENTED_EDGE('',*,*,#416,.F.);
#549=ORIENTED_EDGE('',*,*,#128,.F.);
#550=ORIENTED_EDGE('',*,*,#474,.F.);
#551=ORIENTED_EDGE('',*,*,#102,.F.);
#552=EDGE_LOOP('',(#548,#549,#550,#551));
#553=FACE_BOUND('',#552,.T.);
#554=ADVANCED_FACE('',(#553),#547,.T.);
#555=CARTESIAN_POINT('',(41.263751572,-9.649308501,3.534129528));
#556=DIRECTION('',(-1.,0.,0.));
#557=DIRECTION('',(0.,0.,1.));
#558=AXIS2_PLACEMENT_3D('',#555,#556,#557);
#559=CYLINDRICAL_SURFACE('',#558,0.495629832);
#560=ORIENTED_EDGE('',*,*,#392,.F.);
#561=ORIENTED_EDGE('',*,*,#88,.F.);
#562=ORIENTED_EDGE('',*,*,#466,.F.);
#563=ORIENTED_EDGE('',*,*,#48,.F.);
#564=EDGE_LOOP('',(#560,#561,#562,#563));
#565=FACE_BOUND('',#564,.T.);
#566=ADVANCED_FACE('',(#565),#559,.T.);
#567=CARTESIAN_POINT('',(41.263751572,-30.0409771,-2.46332738));
#568=DIRECTION('',(1.,0.,0.));
#569=DIRECTION('',(0.,0.,-1.));
#570=AXIS2_PLACEMENT_3D('',#567,#568,#569);
#571=CYLINDRICAL_SURFACE('',#570,0.986302551);
#572=ORIENTED_EDGE('',*,*,#358,.F.);
#573=ORIENTED_EDGE('',*,*,#288,.F.);
#574=ORIENTED_EDGE('',*,*,#448,.F.);
#575=ORIENTED_EDGE('',*,*,#262,.F.);
#576=EDGE_LOOP('',(#572,#573,#574,#575));
#577=FACE_BOUND('',#576,.T.);
#578=ADVANCED_FACE('',(#577),#571,.F.);
#579=CARTESIAN_POINT('',(41.263751572,-15.471220238,-2.469112813));
#580=DIRECTION('',(1.,0.,0.));
#581=DIRECTION('',(0.,0.,-1.));
#582=AXIS2_PLACEMENT_3D('',#579,#580,#581);
#583=CYLINDRICAL_SURFACE('',#582,0.992087983);
#584=ORIENTED_EDGE('',*,*,#366,.F.);
#585=ORIENTED_EDGE('',*,*,#248,.F.);
#586=ORIENTED_EDGE('',*,*,#440,.F.);
#587=ORIENTED_EDGE('',*,*,#208,.F.);
#588=EDGE_LOOP('',(#584,#585,#586,#587));
#589=FACE_BOUND('',#588,.T.);
#590=ADVANCED_FACE('',(#589),#583,.F.);
#591=CLOSED_SHELL('',(#66,#106,#146,#186,#226,#266,#306,#346,#420,#494,#506,#518,#530,#542,#554,#566,#578,#590));
#592=MANIFOLD_SOLID_BREP('Ethernet Plate',#591);
#26=STYLED_ITEM('',(),#592);
#593=CARTESIAN_POINT('',(39.248434487,-9.153678669,-20.210332029));
#594=DIRECTION('',(0.,-1.,0.));
#595=VECTOR('',#594,27.199054568);
#596=LINE('',#593,#595);
#597=TRIMMED_CURVE('Rectangle.015',#596,(PARAMETER_VALUE(0.)),(PARAMETER_VALUE(1.)),.T.,.PARAMETER.);
#598=CARTESIAN_POINT('',(39.248434487,-9.153678669,4.02975936));
#599=DIRECTION('',(-0.,0.,-1.));
#600=VECTOR('',#599,24.24009139);
#601=LINE('',#598,#600);
#602=TRIMMED_CURVE('Rectangle.015',#601,(PARAMETER_VALUE(0.)),(PARAMETER_VALUE(1.)),.T.,.PARAMETER.);
#603=CARTESIAN_POINT('',(39.248434487,-36.352733237,4.02975936));
#604=DIRECTION('',(0.,1.,0.));
#605=VECTOR('',#604,27.199054568);
#606=LINE('',#603,#605);
#607=TRIMMED_CURVE('Rectangle.015',#606,(PARAMETER_VALUE(0.)),(PARAMETER_VALUE(1.)),.T.,.PARAMETER.);
#608=CARTESIAN_POINT('',(39.248434487,-36.352733237,-20.210332029));
#609=DIRECTION('',(0.,0.,1.));
#610=VECTOR('',#609,24.24009139);
#611=LINE('',#608,#610);
#612=TRIMMED_CURVE('Rectangle.015',#611,(PARAMETER_VALUE(0.)),(PARAMETER_VALUE(1.)),.T.,.PARAMETER.);
#613=GEOMETRIC_CURVE_SET('',(#597,#602,#607,#612));
#614=CARTESIAN_POINT('',(39.248434487,-14.479132255,-14.228340674));
#615=DIRECTION('',(0.,-1.,0.));
#616=VECTOR('',#615,16.548147397);
#617=LINE('',#614,#616);
#618=TRIMMED_CURVE('Rectangle.014',#617,(PARAMETER_VALUE(0.)),(PARAMETER_VALUE(1.)),.T.,.PARAMETER.);
#619=CARTESIAN_POINT('',(39.248434487,-14.479132255,-1.952231994));
#620=DIRECTION('',(-0.,0.,-1.));
#621=VECTOR('',#620,12.27610868);
#622=LINE('',#619,#621);
#623=TRIMMED_CURVE('Rectangle.014',#622,(PARAMETER_VALUE(0.)),(PARAMETER_VALUE(1.)),.T.,.PARAMETER.);
#624=CARTESIAN_POINT('',(39.248434487,-31.027279651,-1.952231994));
#625=DIRECTION('',(0.,1.,0.));
#626=VECTOR('',#625,16.548147397);
#627=LINE('',#624,#626);
#628=TRIMMED_CURVE('Rectangle.014',#627,(PARAMETER_VALUE(0.)),(PARAMETER_VALUE(1.)),.T.,.PARAMETER.);
#629=CARTESIAN_POINT('',(39.248434487,-31.027279651,-14.228340674));
#630=DIRECTION('',(0.,0.,1.));
#631=VECTOR('',#630,12.27610868);
#632=LINE('',#629,#631);
#633=TRIMMED_CURVE('Rectangle.014',#632,(PARAMETER_VALUE(0.)),(PARAMETER_VALUE(1.)),.T.,.PARAMETER.);
#634=GEOMETRIC_CURVE_SET('',(#618,#623,#628,#633));
#635=CARTESIAN_POINT('',(13.579834724,-8.88682456,-0.268151167));
#636=DIRECTION('',(0.,-1.,0.));
#637=VECTOR('',#636,1.497686827);
#638=LINE('',#635,#637);
#639=TRIMMED_CURVE('Rectangle.013',#638,(PARAMETER_VALUE(0.)),(PARAMETER_VALUE(1.)),.T.,.PARAMETER.);
#640=CARTESIAN_POINT('',(18.874005254,-8.88682456,-0.268151167));
#641=DIRECTION('',(-1.,0.,0.));
#642=VECTOR('',#641,5.294170529);
#643=LINE('',#640,#642);
#644=TRIMMED_CURVE('Rectangle.013',#643,(PARAMETER_VALUE(0.)),(PARAMETER_VALUE(1.)),.T.,.PARAMETER.);
#645=CARTESIAN_POINT('',(18.874005254,-10.384511387,-0.268151167));
#646=DIRECTION('',(0.,1.,0.));
#647=VECTOR('',#646,1.497686827);
#648=LINE('',#645,#647);
#649=TRIMMED_CURVE('Rectangle.013',#648,(PARAMETER_VALUE(0.)),(PARAMETER_VALUE(1.)),.T.,.PARAMETER.);
#650=CARTESIAN_POINT('',(13.579834724,-10.384511387,-0.268151167));
#651=DIRECTION('',(1.,0.,-0.));
#652=VECTOR('',#651,5.294170529);
#653=LINE('',#650,#652);
#654=TRIMMED_CURVE('Rectangle.013',#653,(PARAMETER_VALUE(0.)),(PARAMETER_VALUE(1.)),.T.,.PARAMETER.);
#655=GEOMETRIC_CURVE_SET('',(#639,#644,#649,#654));
#16=SHAPE_REPRESENTATION('root',(#15),#10);
#17=ADVANCED_BREP_SHAPE_REPRESENTATION('root',(#592),#10);
#663=SHAPE_REPRESENTATION_RELATIONSHIP('','',#16,#17);
#18=GEOMETRICALLY_BOUNDED_WIREFRAME_SHAPE_REPRESENTATION('root',(#613,#634,#655),#10);
#671=SHAPE_REPRESENTATION_RELATIONSHIP('','',#16,#18);
#672=APPLICATION_CONTEXT('configuration controlled 3D design of mechanical parts and assemblies');
#673=APPLICATION_PROTOCOL_DEFINITION('international standard','configuration_control_3d_design_ed2_mim',2004,#672);
#674=PRODUCT_CONTEXT('',#672,'mechanical');
#675=PRODUCT_DEFINITION_CONTEXT('part definition',#672,'design');
#24=PRODUCT('root','root','',(#674));
#676=PRODUCT_RELATED_PRODUCT_CATEGORY('part','',(#24));
#677=PRODUCT_DEFINITION_FORMATION_WITH_SPECIFIED_SOURCE('','',#24,.NOT_KNOWN.);
#25=PRODUCT_DEFINITION('design','',#677,#675);
#23=PRODUCT_DEFINITION_SHAPE('','',#25);
#678=SHAPE_DEFINITION_REPRESENTATION(#23,#16);
#11=DRAUGHTING_MODEL('',(),#10);
#1=MECHANICAL_DESIGN_GEOMETRIC_PRESENTATION_REPRESENTATION('',(#26),#10);
ENDSEC;
END-ISO-10303-21;
