G04 #@! TF.GenerationSoftware,KiCad,Pcbnew,10.0.3*
G04 #@! TF.CreationDate,2026-07-08T22:23:12-07:00*
G04 #@! TF.ProjectId,scramble_hat,73637261-6d62-46c6-955f-6861742e6b69,rev?*
G04 #@! TF.SameCoordinates,Original*
G04 #@! TF.FileFunction,Soldermask,Bot*
G04 #@! TF.FilePolarity,Negative*
%FSLAX46Y46*%
G04 Gerber Fmt 4.6, Leading zero omitted, Abs format (unit mm)*
G04 Created by KiCad (PCBNEW 10.0.3) date 2026-07-08 22:23:12*
%MOMM*%
%LPD*%
G01*
G04 APERTURE LIST*
G04 Aperture macros list*
%AMRoundRect*
0 Rectangle with rounded corners*
0 $1 Rounding radius*
0 $2 $3 $4 $5 $6 $7 $8 $9 X,Y pos of 4 corners*
0 Add a 4 corners polygon primitive as box body*
4,1,4,$2,$3,$4,$5,$6,$7,$8,$9,$2,$3,0*
0 Add four circle primitives for the rounded corners*
1,1,$1+$1,$2,$3*
1,1,$1+$1,$4,$5*
1,1,$1+$1,$6,$7*
1,1,$1+$1,$8,$9*
0 Add four rect primitives between the rounded corners*
20,1,$1+$1,$2,$3,$4,$5,0*
20,1,$1+$1,$4,$5,$6,$7,0*
20,1,$1+$1,$6,$7,$8,$9,0*
20,1,$1+$1,$8,$9,$2,$3,0*%
%AMFreePoly0*
4,1,14,0.363284,0.088284,0.375000,0.060000,0.375000,-0.060000,0.363284,-0.088284,0.335000,-0.100000,-0.335000,-0.100000,-0.363284,-0.088284,-0.375000,-0.060000,-0.375000,-0.036569,-0.363284,-0.008285,-0.266715,0.088284,-0.238431,0.100000,0.335000,0.100000,0.363284,0.088284,0.363284,0.088284,$1*%
%AMFreePoly1*
4,1,14,0.363284,0.088284,0.375000,0.060000,0.375000,-0.060000,0.363284,-0.088284,0.335000,-0.100000,-0.238431,-0.100000,-0.266715,-0.088284,-0.363284,0.008285,-0.375000,0.036569,-0.375000,0.060000,-0.363284,0.088284,-0.335000,0.100000,0.335000,0.100000,0.363284,0.088284,0.363284,0.088284,$1*%
%AMFreePoly2*
4,1,14,-0.008285,0.363284,0.088284,0.266715,0.100000,0.238431,0.100000,-0.335000,0.088284,-0.363284,0.060000,-0.375000,-0.060000,-0.375000,-0.088284,-0.363284,-0.100000,-0.335000,-0.100000,0.335000,-0.088284,0.363284,-0.060000,0.375000,-0.036569,0.375000,-0.008285,0.363284,-0.008285,0.363284,$1*%
%AMFreePoly3*
4,1,14,0.088284,0.363284,0.100000,0.335000,0.100000,-0.335000,0.088284,-0.363284,0.060000,-0.375000,-0.060000,-0.375000,-0.088284,-0.363284,-0.100000,-0.335000,-0.100000,0.238431,-0.088284,0.266715,0.008285,0.363284,0.036569,0.375000,0.060000,0.375000,0.088284,0.363284,0.088284,0.363284,$1*%
%AMFreePoly4*
4,1,14,0.363284,0.088284,0.375000,0.060000,0.375000,0.036569,0.363284,0.008285,0.266715,-0.088284,0.238431,-0.100000,-0.335000,-0.100000,-0.363284,-0.088284,-0.375000,-0.060000,-0.375000,0.060000,-0.363284,0.088284,-0.335000,0.100000,0.335000,0.100000,0.363284,0.088284,0.363284,0.088284,$1*%
%AMFreePoly5*
4,1,14,0.266715,0.088284,0.363284,-0.008285,0.375000,-0.036569,0.375000,-0.060000,0.363284,-0.088284,0.335000,-0.100000,-0.335000,-0.100000,-0.363284,-0.088284,-0.375000,-0.060000,-0.375000,0.060000,-0.363284,0.088284,-0.335000,0.100000,0.238431,0.100000,0.266715,0.088284,0.266715,0.088284,$1*%
%AMFreePoly6*
4,1,14,0.088284,0.363284,0.100000,0.335000,0.100000,-0.335000,0.088284,-0.363284,0.060000,-0.375000,0.036569,-0.375000,0.008285,-0.363284,-0.088284,-0.266715,-0.100000,-0.238431,-0.100000,0.335000,-0.088284,0.363284,-0.060000,0.375000,0.060000,0.375000,0.088284,0.363284,0.088284,0.363284,$1*%
%AMFreePoly7*
4,1,14,0.088284,0.363284,0.100000,0.335000,0.100000,-0.238431,0.088284,-0.266715,-0.008285,-0.363284,-0.036569,-0.375000,-0.060000,-0.375000,-0.088284,-0.363284,-0.100000,-0.335000,-0.100000,0.335000,-0.088284,0.363284,-0.060000,0.375000,0.060000,0.375000,0.088284,0.363284,0.088284,0.363284,$1*%
G04 Aperture macros list end*
%ADD10C,1.700000*%
%ADD11R,1.700000X1.700000*%
%ADD12C,1.600000*%
%ADD13C,2.900000*%
%ADD14C,2.700000*%
%ADD15C,3.200000*%
%ADD16C,3.400000*%
%ADD17RoundRect,0.150000X-0.662500X-0.150000X0.662500X-0.150000X0.662500X0.150000X-0.662500X0.150000X0*%
%ADD18RoundRect,0.140000X0.140000X0.170000X-0.140000X0.170000X-0.140000X-0.170000X0.140000X-0.170000X0*%
%ADD19RoundRect,0.087500X-0.425000X-0.087500X0.425000X-0.087500X0.425000X0.087500X-0.425000X0.087500X0*%
%ADD20RoundRect,0.135000X0.135000X0.185000X-0.135000X0.185000X-0.135000X-0.185000X0.135000X-0.185000X0*%
%ADD21RoundRect,0.135000X-0.135000X-0.185000X0.135000X-0.185000X0.135000X0.185000X-0.135000X0.185000X0*%
%ADD22RoundRect,0.140000X-0.140000X-0.170000X0.140000X-0.170000X0.140000X0.170000X-0.140000X0.170000X0*%
%ADD23RoundRect,0.250000X-0.450000X0.262500X-0.450000X-0.262500X0.450000X-0.262500X0.450000X0.262500X0*%
%ADD24RoundRect,0.225000X-0.375000X0.225000X-0.375000X-0.225000X0.375000X-0.225000X0.375000X0.225000X0*%
%ADD25RoundRect,0.250000X0.475000X-0.250000X0.475000X0.250000X-0.475000X0.250000X-0.475000X-0.250000X0*%
%ADD26RoundRect,0.250000X-0.650000X0.325000X-0.650000X-0.325000X0.650000X-0.325000X0.650000X0.325000X0*%
%ADD27RoundRect,0.218750X0.218750X0.256250X-0.218750X0.256250X-0.218750X-0.256250X0.218750X-0.256250X0*%
%ADD28O,1.600000X1.600000*%
%ADD29RoundRect,0.140000X0.170000X-0.140000X0.170000X0.140000X-0.170000X0.140000X-0.170000X-0.140000X0*%
%ADD30RoundRect,0.250000X-0.250000X-0.475000X0.250000X-0.475000X0.250000X0.475000X-0.250000X0.475000X0*%
%ADD31RoundRect,0.150000X-0.587500X-0.150000X0.587500X-0.150000X0.587500X0.150000X-0.587500X0.150000X0*%
%ADD32RoundRect,0.250000X-0.475000X0.250000X-0.475000X-0.250000X0.475000X-0.250000X0.475000X0.250000X0*%
%ADD33RoundRect,0.243750X0.243750X0.456250X-0.243750X0.456250X-0.243750X-0.456250X0.243750X-0.456250X0*%
%ADD34FreePoly0,0.000000*%
%ADD35RoundRect,0.050000X-0.325000X-0.050000X0.325000X-0.050000X0.325000X0.050000X-0.325000X0.050000X0*%
%ADD36FreePoly1,0.000000*%
%ADD37FreePoly2,0.000000*%
%ADD38RoundRect,0.050000X-0.050000X-0.325000X0.050000X-0.325000X0.050000X0.325000X-0.050000X0.325000X0*%
%ADD39FreePoly3,0.000000*%
%ADD40FreePoly4,0.000000*%
%ADD41FreePoly5,0.000000*%
%ADD42FreePoly6,0.000000*%
%ADD43FreePoly7,0.000000*%
%ADD44RoundRect,0.250000X1.000000X0.650000X-1.000000X0.650000X-1.000000X-0.650000X1.000000X-0.650000X0*%
G04 APERTURE END LIST*
D10*
G04 #@! TO.C,J2*
X105503200Y-98258200D03*
X105503200Y-91258200D03*
G04 #@! TD*
D11*
G04 #@! TO.C,J3*
X115570000Y-81915000D03*
D10*
X118110000Y-81915000D03*
X120650000Y-81915000D03*
X123190000Y-81915000D03*
X125730000Y-81915000D03*
X128270000Y-81915000D03*
X130810000Y-81915000D03*
G04 #@! TD*
D11*
G04 #@! TO.C,J4*
X115570000Y-99491800D03*
D10*
X118110000Y-99491800D03*
X120650000Y-99491800D03*
X123190000Y-99491800D03*
X125730000Y-99491800D03*
X128270000Y-99491800D03*
X130810000Y-99491800D03*
G04 #@! TD*
D11*
G04 #@! TO.C,J5*
X127553800Y-93192600D03*
D10*
X130093800Y-93192600D03*
G04 #@! TD*
D12*
G04 #@! TO.C,C19*
X110794800Y-86207600D03*
X118294800Y-86207600D03*
G04 #@! TD*
G04 #@! TO.C,J1*
X86106000Y-90779600D03*
X82931000Y-96494600D03*
X82931000Y-85064600D03*
D13*
X94996000Y-97764600D03*
X95631000Y-83794600D03*
D14*
X100076000Y-90779600D03*
D15*
X83566000Y-99034600D03*
D14*
X99441000Y-87922100D03*
X99441000Y-93637100D03*
D16*
X92456000Y-95224600D03*
X92456000Y-86334600D03*
G04 #@! TD*
D17*
G04 #@! TO.C,OK1*
X107416600Y-82778600D03*
X107416600Y-84048600D03*
X101041600Y-84048600D03*
X101041600Y-82778600D03*
G04 #@! TD*
D18*
G04 #@! TO.C,C9*
X123980000Y-86000000D03*
X123020000Y-86000000D03*
G04 #@! TD*
D19*
G04 #@! TO.C,D2*
X110837500Y-93350000D03*
X110837500Y-94000000D03*
X110837500Y-94650000D03*
X109162500Y-94650000D03*
X109162500Y-93350000D03*
G04 #@! TD*
D18*
G04 #@! TO.C,C8*
X121480000Y-96500000D03*
X120520000Y-96500000D03*
G04 #@! TD*
D20*
G04 #@! TO.C,R12*
X106072400Y-87985600D03*
X105052400Y-87985600D03*
G04 #@! TD*
G04 #@! TO.C,R3*
X124010000Y-95000000D03*
X122990000Y-95000000D03*
G04 #@! TD*
D21*
G04 #@! TO.C,R4*
X122990000Y-96500000D03*
X124010000Y-96500000D03*
G04 #@! TD*
D22*
G04 #@! TO.C,C7*
X120520000Y-95000000D03*
X121480000Y-95000000D03*
G04 #@! TD*
G04 #@! TO.C,C5*
X118020000Y-96500000D03*
X118980000Y-96500000D03*
G04 #@! TD*
D23*
G04 #@! TO.C,R6*
X90398600Y-82092800D03*
X90398600Y-83917800D03*
G04 #@! TD*
D24*
G04 #@! TO.C,D7*
X114000000Y-89650000D03*
X114000000Y-86350000D03*
G04 #@! TD*
D22*
G04 #@! TO.C,C1*
X118020000Y-84500000D03*
X118980000Y-84500000D03*
G04 #@! TD*
D21*
G04 #@! TO.C,R7*
X115990000Y-96000000D03*
X117010000Y-96000000D03*
G04 #@! TD*
D20*
G04 #@! TO.C,R1*
X131165600Y-97561400D03*
X130145600Y-97561400D03*
G04 #@! TD*
G04 #@! TO.C,R2*
X126494000Y-97536000D03*
X125474000Y-97536000D03*
G04 #@! TD*
D22*
G04 #@! TO.C,C13*
X110520000Y-96000000D03*
X111480000Y-96000000D03*
G04 #@! TD*
D25*
G04 #@! TO.C,C17*
X85979000Y-83967400D03*
X85979000Y-82067400D03*
G04 #@! TD*
D26*
G04 #@! TO.C,C18*
X109931200Y-81508600D03*
X109931200Y-84458600D03*
G04 #@! TD*
D27*
G04 #@! TO.C,FB1*
X121787500Y-86000000D03*
X120212500Y-86000000D03*
G04 #@! TD*
D25*
G04 #@! TO.C,C11*
X92659200Y-83307000D03*
X92659200Y-81407000D03*
G04 #@! TD*
D28*
G04 #@! TO.C,SW1*
X125399800Y-89966800D03*
D12*
X127939800Y-89966800D03*
D28*
X130479800Y-89966800D03*
G04 #@! TD*
D29*
G04 #@! TO.C,C12*
X107000000Y-96480000D03*
X107000000Y-95520000D03*
G04 #@! TD*
D30*
G04 #@! TO.C,C6*
X120050000Y-88000000D03*
X121950000Y-88000000D03*
G04 #@! TD*
D22*
G04 #@! TO.C,C4*
X118020000Y-95000000D03*
X118980000Y-95000000D03*
G04 #@! TD*
D31*
G04 #@! TO.C,Q1*
X96771700Y-89753400D03*
X96771700Y-91653400D03*
X94896700Y-90703400D03*
G04 #@! TD*
D32*
G04 #@! TO.C,C10*
X95834200Y-93192600D03*
X95834200Y-95092600D03*
G04 #@! TD*
D33*
G04 #@! TO.C,D8*
X128193800Y-86893400D03*
X130068800Y-86893400D03*
G04 #@! TD*
D34*
G04 #@! TO.C,U1*
X117773000Y-91473000D03*
D35*
X117773000Y-91823000D03*
X117773000Y-92173000D03*
X117773000Y-92523000D03*
X117773000Y-92873000D03*
D36*
X117773000Y-93223000D03*
D37*
X117148000Y-93848000D03*
D38*
X116798000Y-93848000D03*
X116448000Y-93848000D03*
X116098000Y-93848000D03*
X115748000Y-93848000D03*
D39*
X115398000Y-93848000D03*
D40*
X114773000Y-93223000D03*
D35*
X114773000Y-92873000D03*
X114773000Y-92523000D03*
X114773000Y-92173000D03*
X114773000Y-91823000D03*
D41*
X114773000Y-91473000D03*
D42*
X115398000Y-90848000D03*
D38*
X115748000Y-90848000D03*
X116098000Y-90848000D03*
X116448000Y-90848000D03*
X116798000Y-90848000D03*
D43*
X117148000Y-90848000D03*
D11*
X116273000Y-92348000D03*
G04 #@! TD*
D22*
G04 #@! TO.C,C2*
X117861200Y-87706200D03*
X118821200Y-87706200D03*
G04 #@! TD*
G04 #@! TO.C,C3*
X117858600Y-88696800D03*
X118818600Y-88696800D03*
G04 #@! TD*
D23*
G04 #@! TO.C,R5*
X95834200Y-86385400D03*
X95834200Y-88210400D03*
G04 #@! TD*
D44*
G04 #@! TO.C,D6*
X89027000Y-92703400D03*
X89027000Y-88703400D03*
G04 #@! TD*
D22*
G04 #@! TO.C,C20*
X112520000Y-96000000D03*
X113480000Y-96000000D03*
G04 #@! TD*
M02*
