G04 #@! TF.GenerationSoftware,KiCad,Pcbnew,10.0.3*
G04 #@! TF.CreationDate,2026-07-08T22:23:12-07:00*
G04 #@! TF.ProjectId,scramble_hat,73637261-6d62-46c6-955f-6861742e6b69,rev?*
G04 #@! TF.SameCoordinates,Original*
G04 #@! TF.FileFunction,Copper,L2,Inr*
G04 #@! TF.FilePolarity,Positive*
%FSLAX46Y46*%
G04 Gerber Fmt 4.6, Leading zero omitted, Abs format (unit mm)*
G04 Created by KiCad (PCBNEW 10.0.3) date 2026-07-08 22:23:12*
%MOMM*%
%LPD*%
G01*
G04 APERTURE LIST*
G04 #@! TA.AperFunction,ComponentPad*
%ADD10R,1.700000X1.700000*%
G04 #@! TD*
G04 #@! TA.AperFunction,ComponentPad*
%ADD11C,1.700000*%
G04 #@! TD*
G04 #@! TA.AperFunction,ComponentPad*
%ADD12C,1.600000*%
G04 #@! TD*
G04 #@! TA.AperFunction,ComponentPad*
%ADD13C,2.900000*%
G04 #@! TD*
G04 #@! TA.AperFunction,ComponentPad*
%ADD14C,2.700000*%
G04 #@! TD*
G04 #@! TA.AperFunction,ComponentPad*
%ADD15C,3.200000*%
G04 #@! TD*
G04 #@! TA.AperFunction,ComponentPad*
%ADD16C,3.400000*%
G04 #@! TD*
G04 #@! TA.AperFunction,ComponentPad*
%ADD17O,1.600000X1.600000*%
G04 #@! TD*
G04 #@! TA.AperFunction,ViaPad*
%ADD18C,0.600000*%
G04 #@! TD*
G04 APERTURE END LIST*
D10*
G04 #@! TO.N,ASDOUT*
G04 #@! TO.C,J3*
X115570000Y-81915000D03*
D11*
G04 #@! TO.N,LRCK*
X118110000Y-81915000D03*
G04 #@! TO.N,AGND*
X120650000Y-81915000D03*
G04 #@! TO.N,DSDIN*
X123190000Y-81915000D03*
G04 #@! TO.N,BCLK*
X125730000Y-81915000D03*
G04 #@! TO.N,MCLK*
X128270000Y-81915000D03*
G04 #@! TO.N,PHANTOM_EN*
X130810000Y-81915000D03*
G04 #@! TD*
D10*
G04 #@! TO.N,+5V*
G04 #@! TO.C,J4*
X115570000Y-99491800D03*
D11*
G04 #@! TO.N,unconnected-(J4-Pin_2-Pad2)*
X118110000Y-99491800D03*
G04 #@! TO.N,AGND*
X120650000Y-99491800D03*
G04 #@! TO.N,unconnected-(J4-Pin_4-Pad4)*
X123190000Y-99491800D03*
G04 #@! TO.N,+3V3*
X125730000Y-99491800D03*
G04 #@! TO.N,SCL*
X128270000Y-99491800D03*
G04 #@! TO.N,SDA*
X130810000Y-99491800D03*
G04 #@! TD*
D10*
G04 #@! TO.N,V_PoE*
G04 #@! TO.C,J5*
X127553800Y-93192600D03*
D11*
G04 #@! TO.N,PGND*
X130093800Y-93192600D03*
G04 #@! TD*
D12*
G04 #@! TO.N,PGND*
G04 #@! TO.C,C19*
X110794800Y-86207600D03*
G04 #@! TO.N,AGND*
X118294800Y-86207600D03*
G04 #@! TD*
D13*
G04 #@! TO.N,PGND*
G04 #@! TO.C,J1*
X94996000Y-97764600D03*
G04 #@! TO.N,XLR2_HOT*
X95631000Y-83794600D03*
D14*
G04 #@! TO.N,XLR3_COLD*
X100076000Y-90779600D03*
D15*
G04 #@! TO.N,PGND*
X83566000Y-99034600D03*
D14*
G04 #@! TO.N,unconnected-(J1-JACK_R-PadR)*
X99441000Y-87922100D03*
G04 #@! TO.N,PGND*
X99441000Y-93637100D03*
D16*
G04 #@! TO.N,unconnected-(J1-JACK_T-PadT)*
X92456000Y-95224600D03*
X92456000Y-86334600D03*
G04 #@! TD*
D17*
G04 #@! TO.N,+3V3*
G04 #@! TO.C,SW1*
X125399800Y-89966800D03*
D12*
G04 #@! TO.N,PHANTOM_SW*
X127939800Y-89966800D03*
D17*
G04 #@! TO.N,AGND*
X130479800Y-89966800D03*
G04 #@! TD*
D18*
G04 #@! TO.N,V_PoE*
X127343919Y-91168998D03*
G04 #@! TO.N,V_FILT*
X98221800Y-83743800D03*
X103532400Y-81864200D03*
X97002600Y-86258400D03*
X113691365Y-89120761D03*
X106451400Y-81915000D03*
X97078800Y-91668600D03*
X110159800Y-84433200D03*
G04 #@! TO.N,MIC1N*
X112081400Y-89516617D03*
X106899814Y-85157414D03*
X117317727Y-89806278D03*
G04 #@! TO.N,AGND*
X122041000Y-88321800D03*
X117729000Y-93827600D03*
X113614200Y-91617800D03*
X122928284Y-86037902D03*
X123596400Y-88620600D03*
X119109986Y-88594149D03*
X127000000Y-83210400D03*
X116273000Y-92287000D03*
X123757600Y-87511800D03*
X113715800Y-85217000D03*
X118980000Y-84500000D03*
X113800800Y-96672400D03*
X107721400Y-85826600D03*
X121005600Y-95834200D03*
X123351201Y-95772636D03*
G04 #@! TO.N,ROUTP*
X114372087Y-94072800D03*
G04 #@! TO.N,V_PHANTOM*
X110312200Y-83261200D03*
X97028000Y-81957000D03*
X100406200Y-81940400D03*
G04 #@! TO.N,PHANTOM_LED*
X130073400Y-87198200D03*
G04 #@! TO.N,MIC2_RAW*
X109203200Y-99358200D03*
X117271800Y-96545400D03*
G04 #@! TO.N,ASDOUT*
X114866961Y-94732113D03*
X127508000Y-95148400D03*
X114302909Y-97443200D03*
G04 #@! TO.N,LRCK*
X114805437Y-95538530D03*
X121919220Y-93760201D03*
G04 #@! TO.N,DSDIN*
X114992064Y-96576720D03*
X124798000Y-94310200D03*
G04 #@! TO.N,BCLK*
X125171200Y-93091000D03*
X117119400Y-94673000D03*
G04 #@! TO.N,MCLK*
X119354600Y-98171000D03*
X119735600Y-95885000D03*
X123723400Y-97917000D03*
G04 #@! TO.N,+5V*
X123607791Y-93670774D03*
X120680029Y-86881584D03*
X124386400Y-84861400D03*
X121405092Y-84612181D03*
G04 #@! TO.N,+3V3_A*
X122936000Y-85050000D03*
G04 #@! TO.N,OK1_COLLECTOR*
X101701600Y-84988400D03*
G04 #@! TO.N,Q1_GATE*
X96799400Y-89789000D03*
X102430079Y-81908023D03*
X114486600Y-86360000D03*
X115747800Y-85344000D03*
G04 #@! TO.N,+3V3*
X123020000Y-91694000D03*
X126466600Y-98831400D03*
X118541800Y-93811000D03*
X130145600Y-97561400D03*
G04 #@! TO.N,SCL*
X125137000Y-96647000D03*
X119181543Y-92322732D03*
G04 #@! TO.N,SDA*
X118650750Y-91575000D03*
X125374722Y-95882923D03*
G04 #@! TO.N,PGND*
X88976200Y-88646000D03*
X85979000Y-82067400D03*
X112014000Y-84988400D03*
X100542000Y-84056509D03*
X126974600Y-86893400D03*
G04 #@! TO.N,XLR2_HOT*
X95834200Y-88108800D03*
G04 #@! TO.N,XLR3_COLD*
X92659200Y-83307000D03*
G04 #@! TO.N,LOUTP*
X113080800Y-94513400D03*
G04 #@! TO.N,OK1_LED_A*
X105029000Y-87960200D03*
X107340400Y-88341200D03*
G04 #@! TO.N,DACVREF*
X123596400Y-92506800D03*
X113841755Y-93445555D03*
G04 #@! TO.N,MIC1P*
X117703600Y-90449400D03*
X112416502Y-90596703D03*
X95834200Y-95194200D03*
X108051600Y-93980000D03*
G04 #@! TO.N,ADCVREF*
X115548000Y-89594600D03*
X119659400Y-89805600D03*
G04 #@! TO.N,PHANTOM_SW*
X112081400Y-91389200D03*
G04 #@! TO.N,AD0*
X119640810Y-90848990D03*
X124028200Y-89966800D03*
G04 #@! TO.N,VMID*
X112943450Y-92293250D03*
X119710200Y-92972800D03*
G04 #@! TO.N,MIC2P*
X108051600Y-95529400D03*
X111264092Y-88643489D03*
G04 #@! TO.N,MIC2N*
X111962600Y-92760200D03*
X112003227Y-88770701D03*
G04 #@! TD*
G04 #@! TA.AperFunction,Conductor*
G04 #@! TO.N,PGND*
G36*
X111213996Y-80748872D02*
G01*
X111259789Y-80801643D01*
X111269784Y-80870794D01*
X111257518Y-80909531D01*
X111165761Y-81089613D01*
X111087910Y-81329214D01*
X111054540Y-81539902D01*
X111048500Y-81578038D01*
X111048500Y-81625750D01*
X111048500Y-81829962D01*
X111055556Y-81874510D01*
X111087910Y-82078785D01*
X111165760Y-82318383D01*
X111235373Y-82455004D01*
X111276472Y-82535666D01*
X111280132Y-82542848D01*
X111428201Y-82746649D01*
X111428205Y-82746654D01*
X111606345Y-82924794D01*
X111606350Y-82924798D01*
X111784117Y-83053952D01*
X111810155Y-83072870D01*
X111953184Y-83145747D01*
X112034616Y-83187239D01*
X112034618Y-83187239D01*
X112034621Y-83187241D01*
X112274215Y-83265090D01*
X112523038Y-83304500D01*
X112523039Y-83304500D01*
X112774961Y-83304500D01*
X112774962Y-83304500D01*
X112856603Y-83291569D01*
X112925895Y-83300523D01*
X112979347Y-83345519D01*
X112999987Y-83412271D01*
X113000000Y-83414042D01*
X113000000Y-90173025D01*
X112980315Y-90240064D01*
X112927511Y-90285819D01*
X112858353Y-90295763D01*
X112794797Y-90266738D01*
X112788319Y-90260706D01*
X112723818Y-90196205D01*
X112723816Y-90196203D01*
X112609688Y-90130311D01*
X112482816Y-90096316D01*
X112474725Y-90094148D01*
X112415065Y-90057783D01*
X112384536Y-89994936D01*
X112392831Y-89925560D01*
X112419133Y-89886697D01*
X112481900Y-89823931D01*
X112547792Y-89709803D01*
X112581900Y-89582509D01*
X112581900Y-89450725D01*
X112547792Y-89323431D01*
X112481900Y-89209303D01*
X112451565Y-89178968D01*
X112418080Y-89117645D01*
X112423064Y-89047953D01*
X112431854Y-89029297D01*
X112469619Y-88963887D01*
X112503727Y-88836593D01*
X112503727Y-88704809D01*
X112469619Y-88577515D01*
X112403727Y-88463387D01*
X112310541Y-88370201D01*
X112215374Y-88315256D01*
X112196414Y-88304309D01*
X112088186Y-88275310D01*
X112069119Y-88270201D01*
X111937335Y-88270201D01*
X111810039Y-88304309D01*
X111780027Y-88321637D01*
X111712127Y-88338109D01*
X111646100Y-88315256D01*
X111630347Y-88301930D01*
X111571408Y-88242991D01*
X111571406Y-88242989D01*
X111501419Y-88202582D01*
X111457279Y-88177097D01*
X111368790Y-88153387D01*
X111329984Y-88142989D01*
X111198200Y-88142989D01*
X111070904Y-88177097D01*
X110956778Y-88242989D01*
X110956775Y-88242991D01*
X110863594Y-88336172D01*
X110863592Y-88336175D01*
X110797700Y-88450301D01*
X110781892Y-88509299D01*
X110763592Y-88577597D01*
X110763592Y-88709381D01*
X110772252Y-88741700D01*
X110797700Y-88836676D01*
X110800601Y-88841700D01*
X110863592Y-88950803D01*
X110956778Y-89043989D01*
X111050149Y-89097897D01*
X111062027Y-89104755D01*
X111070906Y-89109881D01*
X111198200Y-89143989D01*
X111198202Y-89143989D01*
X111329982Y-89143989D01*
X111329984Y-89143989D01*
X111457278Y-89109881D01*
X111478036Y-89097896D01*
X111545932Y-89081422D01*
X111611960Y-89104272D01*
X111655153Y-89159192D01*
X111661797Y-89228745D01*
X111647425Y-89267281D01*
X111615008Y-89323428D01*
X111581565Y-89448242D01*
X111580900Y-89450725D01*
X111580900Y-89582509D01*
X111597954Y-89646156D01*
X111615008Y-89709804D01*
X111626149Y-89729100D01*
X111680900Y-89823931D01*
X111774086Y-89917117D01*
X111860411Y-89966957D01*
X111886788Y-89982186D01*
X111888214Y-89983009D01*
X112015508Y-90017117D01*
X112015509Y-90017117D01*
X112023175Y-90019171D01*
X112082836Y-90055536D01*
X112113365Y-90118383D01*
X112105070Y-90187758D01*
X112078764Y-90226627D01*
X112016002Y-90289389D01*
X111950110Y-90403515D01*
X111916002Y-90530811D01*
X111916002Y-90662594D01*
X111948035Y-90782145D01*
X111946372Y-90851995D01*
X111907209Y-90909857D01*
X111890261Y-90921624D01*
X111774092Y-90988695D01*
X111774083Y-90988702D01*
X111680902Y-91081883D01*
X111680900Y-91081886D01*
X111615008Y-91196012D01*
X111593255Y-91277198D01*
X111580900Y-91323308D01*
X111580900Y-91455092D01*
X111597194Y-91515901D01*
X111615008Y-91582387D01*
X111626741Y-91602708D01*
X111680900Y-91696514D01*
X111774086Y-91789700D01*
X111888214Y-91855592D01*
X112015508Y-91889700D01*
X112015510Y-91889700D01*
X112147290Y-91889700D01*
X112147292Y-91889700D01*
X112274586Y-91855592D01*
X112388714Y-91789700D01*
X112481900Y-91696514D01*
X112547792Y-91582386D01*
X112581900Y-91455092D01*
X112581900Y-91323308D01*
X112549866Y-91203754D01*
X112551529Y-91133906D01*
X112590692Y-91076044D01*
X112607641Y-91064276D01*
X112609685Y-91063095D01*
X112609688Y-91063095D01*
X112723816Y-90997203D01*
X112788319Y-90932700D01*
X112849642Y-90899215D01*
X112919334Y-90904199D01*
X112975267Y-90946071D01*
X112999684Y-91011535D01*
X113000000Y-91020381D01*
X113000000Y-91668750D01*
X112980315Y-91735789D01*
X112927511Y-91781544D01*
X112885485Y-91790686D01*
X112885618Y-91791689D01*
X112877558Y-91792750D01*
X112750262Y-91826858D01*
X112641420Y-91889699D01*
X112636136Y-91892750D01*
X112557457Y-91971428D01*
X112557116Y-91971769D01*
X112542953Y-91985931D01*
X112542950Y-91985936D01*
X112477058Y-92100062D01*
X112442950Y-92227358D01*
X112442950Y-92244828D01*
X112423265Y-92311867D01*
X112370461Y-92357622D01*
X112301303Y-92367566D01*
X112256950Y-92352215D01*
X112155788Y-92293809D01*
X112155787Y-92293808D01*
X112155786Y-92293808D01*
X112028492Y-92259700D01*
X111896708Y-92259700D01*
X111769412Y-92293808D01*
X111655286Y-92359700D01*
X111655283Y-92359702D01*
X111562102Y-92452883D01*
X111562100Y-92452886D01*
X111496208Y-92567012D01*
X111462100Y-92694308D01*
X111462100Y-92826091D01*
X111496208Y-92953387D01*
X111511090Y-92979163D01*
X111562100Y-93067514D01*
X111655286Y-93160700D01*
X111769414Y-93226592D01*
X111896708Y-93260700D01*
X111896710Y-93260700D01*
X112028490Y-93260700D01*
X112028492Y-93260700D01*
X112155786Y-93226592D01*
X112269914Y-93160700D01*
X112363100Y-93067514D01*
X112428992Y-92953386D01*
X112463100Y-92826092D01*
X112463100Y-92808621D01*
X112482785Y-92741582D01*
X112535589Y-92695827D01*
X112604747Y-92685883D01*
X112649099Y-92701234D01*
X112693659Y-92726961D01*
X112750258Y-92759639D01*
X112750259Y-92759639D01*
X112750264Y-92759642D01*
X112877558Y-92793750D01*
X112877566Y-92793750D01*
X112885618Y-92794811D01*
X112885394Y-92796508D01*
X112943039Y-92813435D01*
X112988794Y-92866239D01*
X113000000Y-92917750D01*
X113000000Y-93921745D01*
X112980315Y-93988784D01*
X112927511Y-94034539D01*
X112908098Y-94041519D01*
X112887612Y-94047008D01*
X112773486Y-94112900D01*
X112773483Y-94112902D01*
X112680302Y-94206083D01*
X112680300Y-94206086D01*
X112614408Y-94320212D01*
X112580300Y-94447508D01*
X112580300Y-94579291D01*
X112614408Y-94706587D01*
X112643217Y-94756484D01*
X112680300Y-94820714D01*
X112773486Y-94913900D01*
X112887614Y-94979792D01*
X112908094Y-94985279D01*
X112967751Y-95021640D01*
X112998282Y-95084486D01*
X113000000Y-95105053D01*
X113000000Y-98039956D01*
X112980315Y-98106995D01*
X112927511Y-98152750D01*
X112858353Y-98162694D01*
X112856603Y-98162429D01*
X112774969Y-98149500D01*
X112774962Y-98149500D01*
X112523038Y-98149500D01*
X112441408Y-98162429D01*
X112274214Y-98188910D01*
X112034616Y-98266760D01*
X111810151Y-98381132D01*
X111606350Y-98529201D01*
X111606345Y-98529205D01*
X111428205Y-98707345D01*
X111428201Y-98707350D01*
X111280132Y-98911151D01*
X111165760Y-99135616D01*
X111087910Y-99375214D01*
X111076831Y-99445165D01*
X111048500Y-99624038D01*
X111048500Y-99671750D01*
X111048500Y-99875962D01*
X111087910Y-100124785D01*
X111165759Y-100364379D01*
X111165760Y-100364382D01*
X111165761Y-100364383D01*
X111277617Y-100583914D01*
X111290513Y-100652584D01*
X111264236Y-100717324D01*
X111207130Y-100757581D01*
X111167102Y-100764209D01*
X84987074Y-100757896D01*
X84920039Y-100738195D01*
X84899423Y-100721577D01*
X83928293Y-99750447D01*
X83944942Y-99743551D01*
X84075970Y-99656001D01*
X84187401Y-99544570D01*
X84274951Y-99413542D01*
X84281847Y-99396893D01*
X85217239Y-100332286D01*
X85217241Y-100332286D01*
X85315825Y-100203811D01*
X85315836Y-100203794D01*
X85453472Y-99965402D01*
X85453479Y-99965387D01*
X85558819Y-99711071D01*
X85630069Y-99445165D01*
X85656458Y-99244722D01*
X85666000Y-99172241D01*
X85666000Y-98896958D01*
X85630069Y-98624034D01*
X85558819Y-98358128D01*
X85453479Y-98103812D01*
X85453472Y-98103797D01*
X85315836Y-97865404D01*
X85217240Y-97736912D01*
X84281846Y-98672305D01*
X84274951Y-98655658D01*
X84187401Y-98524630D01*
X84075970Y-98413199D01*
X83944942Y-98325649D01*
X83928293Y-98318752D01*
X84863686Y-97383358D01*
X84735196Y-97284763D01*
X84496802Y-97147127D01*
X84496787Y-97147120D01*
X84242471Y-97041780D01*
X84018047Y-96981645D01*
X83958387Y-96945279D01*
X83927858Y-96882432D01*
X83935580Y-96814417D01*
X83941130Y-96801020D01*
X83981500Y-96598065D01*
X83981500Y-96391135D01*
X83941130Y-96188180D01*
X83861941Y-95997002D01*
X83746977Y-95824945D01*
X83746975Y-95824942D01*
X83600657Y-95678624D01*
X83475050Y-95594697D01*
X83428598Y-95563659D01*
X83278572Y-95501516D01*
X83237420Y-95484470D01*
X83237412Y-95484468D01*
X83034469Y-95444100D01*
X83034465Y-95444100D01*
X82827535Y-95444100D01*
X82827530Y-95444100D01*
X82624587Y-95484468D01*
X82624579Y-95484470D01*
X82433403Y-95563658D01*
X82261342Y-95678624D01*
X82115024Y-95824942D01*
X82000058Y-95997003D01*
X81920870Y-96188179D01*
X81920868Y-96188187D01*
X81880500Y-96391130D01*
X81880500Y-96598069D01*
X81920868Y-96801012D01*
X81920870Y-96801020D01*
X81975442Y-96932769D01*
X82000059Y-96992198D01*
X82040678Y-97052989D01*
X82115024Y-97164257D01*
X82232632Y-97281865D01*
X82266117Y-97343188D01*
X82268686Y-97377655D01*
X82268312Y-97383358D01*
X83203706Y-98318752D01*
X83187058Y-98325649D01*
X83056030Y-98413199D01*
X82944599Y-98524630D01*
X82857049Y-98655658D01*
X82850153Y-98672306D01*
X81914758Y-97736912D01*
X81914757Y-97736912D01*
X81816166Y-97865399D01*
X81678527Y-98103797D01*
X81678520Y-98103812D01*
X81612661Y-98262813D01*
X81568820Y-98317217D01*
X81502526Y-98339282D01*
X81434827Y-98322003D01*
X81387216Y-98270866D01*
X81374100Y-98215361D01*
X81374100Y-95100041D01*
X90555500Y-95100041D01*
X90555500Y-95349158D01*
X90555501Y-95349175D01*
X90587902Y-95595291D01*
X90588018Y-95596165D01*
X90621893Y-95722587D01*
X90652498Y-95836807D01*
X90747830Y-96066961D01*
X90747837Y-96066976D01*
X90872400Y-96282726D01*
X91024060Y-96480374D01*
X91024066Y-96480381D01*
X91200218Y-96656533D01*
X91200225Y-96656539D01*
X91397873Y-96808199D01*
X91613623Y-96932762D01*
X91613638Y-96932769D01*
X91712825Y-96973853D01*
X91843793Y-97028102D01*
X92084435Y-97092582D01*
X92331435Y-97125100D01*
X92331442Y-97125100D01*
X92580558Y-97125100D01*
X92580565Y-97125100D01*
X92827565Y-97092582D01*
X92975327Y-97052989D01*
X93045175Y-97054652D01*
X93103038Y-97093814D01*
X93130542Y-97158043D01*
X93127194Y-97204857D01*
X93079366Y-97383355D01*
X93079363Y-97383368D01*
X93046001Y-97636780D01*
X93046000Y-97636796D01*
X93046000Y-97892403D01*
X93046001Y-97892419D01*
X93079363Y-98145831D01*
X93079366Y-98145844D01*
X93145523Y-98392750D01*
X93243342Y-98628906D01*
X93243347Y-98628916D01*
X93371154Y-98850285D01*
X93451738Y-98955305D01*
X93451739Y-98955305D01*
X94431387Y-97975658D01*
X94436889Y-97996191D01*
X94515881Y-98133008D01*
X94627592Y-98244719D01*
X94764409Y-98323711D01*
X94784941Y-98329212D01*
X93805293Y-99308859D01*
X93805293Y-99308860D01*
X93910314Y-99389445D01*
X94131683Y-99517252D01*
X94131693Y-99517257D01*
X94367849Y-99615076D01*
X94614755Y-99681233D01*
X94614768Y-99681236D01*
X94868180Y-99714598D01*
X94868197Y-99714600D01*
X95123803Y-99714600D01*
X95123819Y-99714598D01*
X95377231Y-99681236D01*
X95377244Y-99681233D01*
X95624150Y-99615076D01*
X95860306Y-99517257D01*
X95860316Y-99517252D01*
X96081681Y-99389448D01*
X96186705Y-99308859D01*
X95207058Y-98329212D01*
X95227591Y-98323711D01*
X95364408Y-98244719D01*
X95476119Y-98133008D01*
X95555111Y-97996191D01*
X95560612Y-97975658D01*
X96540259Y-98955305D01*
X96620848Y-98850281D01*
X96748652Y-98628916D01*
X96748657Y-98628906D01*
X96846476Y-98392750D01*
X96905735Y-98171589D01*
X104402700Y-98171589D01*
X104402700Y-98344811D01*
X104429798Y-98515901D01*
X104483327Y-98680645D01*
X104561968Y-98834988D01*
X104663786Y-98975128D01*
X104786272Y-99097614D01*
X104926412Y-99199432D01*
X105080755Y-99278073D01*
X105245499Y-99331602D01*
X105416589Y-99358700D01*
X105416590Y-99358700D01*
X105589810Y-99358700D01*
X105589811Y-99358700D01*
X105760901Y-99331602D01*
X105881835Y-99292308D01*
X108702700Y-99292308D01*
X108702700Y-99424092D01*
X108719754Y-99487739D01*
X108736808Y-99551387D01*
X108769754Y-99608450D01*
X108802700Y-99665514D01*
X108895886Y-99758700D01*
X109010014Y-99824592D01*
X109137308Y-99858700D01*
X109137310Y-99858700D01*
X109269090Y-99858700D01*
X109269092Y-99858700D01*
X109396386Y-99824592D01*
X109510514Y-99758700D01*
X109603700Y-99665514D01*
X109669592Y-99551386D01*
X109703700Y-99424092D01*
X109703700Y-99292308D01*
X109669592Y-99165014D01*
X109603700Y-99050886D01*
X109510514Y-98957700D01*
X109429889Y-98911151D01*
X109396387Y-98891808D01*
X109332739Y-98874754D01*
X109269092Y-98857700D01*
X109137308Y-98857700D01*
X109010012Y-98891808D01*
X108895886Y-98957700D01*
X108895883Y-98957702D01*
X108802702Y-99050883D01*
X108802700Y-99050886D01*
X108736808Y-99165012D01*
X108709226Y-99267951D01*
X108702700Y-99292308D01*
X105881835Y-99292308D01*
X105925645Y-99278073D01*
X106079988Y-99199432D01*
X106220128Y-99097614D01*
X106342614Y-98975128D01*
X106444432Y-98834988D01*
X106523073Y-98680645D01*
X106576602Y-98515901D01*
X106603700Y-98344811D01*
X106603700Y-98171589D01*
X106576602Y-98000499D01*
X106523073Y-97835755D01*
X106444432Y-97681412D01*
X106342614Y-97541272D01*
X106220128Y-97418786D01*
X106079988Y-97316968D01*
X105925645Y-97238327D01*
X105760901Y-97184798D01*
X105760899Y-97184797D01*
X105760898Y-97184797D01*
X105629471Y-97163981D01*
X105589811Y-97157700D01*
X105416589Y-97157700D01*
X105376928Y-97163981D01*
X105245502Y-97184797D01*
X105080752Y-97238328D01*
X104926411Y-97316968D01*
X104890323Y-97343188D01*
X104786272Y-97418786D01*
X104786270Y-97418788D01*
X104786269Y-97418788D01*
X104663788Y-97541269D01*
X104663788Y-97541270D01*
X104663786Y-97541272D01*
X104661005Y-97545100D01*
X104561968Y-97681411D01*
X104483328Y-97835752D01*
X104429797Y-98000502D01*
X104405684Y-98152750D01*
X104402700Y-98171589D01*
X96905735Y-98171589D01*
X96912634Y-98145842D01*
X96912635Y-98145834D01*
X96945998Y-97892419D01*
X96946000Y-97892403D01*
X96946000Y-97636796D01*
X96945998Y-97636780D01*
X96912636Y-97383368D01*
X96912633Y-97383355D01*
X96846476Y-97136449D01*
X96748657Y-96900293D01*
X96748652Y-96900283D01*
X96620845Y-96678914D01*
X96540260Y-96573893D01*
X96540259Y-96573893D01*
X95560612Y-97553540D01*
X95555111Y-97533009D01*
X95476119Y-97396192D01*
X95364408Y-97284481D01*
X95227591Y-97205489D01*
X95207058Y-97199987D01*
X96186705Y-96220339D01*
X96186705Y-96220338D01*
X96081685Y-96139754D01*
X95860316Y-96011947D01*
X95860306Y-96011942D01*
X95624150Y-95914123D01*
X95377244Y-95847966D01*
X95377231Y-95847963D01*
X95123819Y-95814601D01*
X95123803Y-95814600D01*
X94868197Y-95814600D01*
X94868180Y-95814601D01*
X94614768Y-95847963D01*
X94614755Y-95847966D01*
X94436257Y-95895794D01*
X94366407Y-95894131D01*
X94308545Y-95854968D01*
X94281041Y-95790740D01*
X94284388Y-95743928D01*
X94323982Y-95596165D01*
X94356500Y-95349165D01*
X94356500Y-95128308D01*
X95333700Y-95128308D01*
X95333700Y-95260091D01*
X95367808Y-95387387D01*
X95370863Y-95392678D01*
X95433700Y-95501514D01*
X95526886Y-95594700D01*
X95641014Y-95660592D01*
X95768308Y-95694700D01*
X95768310Y-95694700D01*
X95900090Y-95694700D01*
X95900092Y-95694700D01*
X96027386Y-95660592D01*
X96141514Y-95594700D01*
X96234700Y-95501514D01*
X96300592Y-95387386D01*
X96334700Y-95260092D01*
X96334700Y-95128308D01*
X96300592Y-95001014D01*
X96234700Y-94886886D01*
X96141514Y-94793700D01*
X96077054Y-94756484D01*
X96027387Y-94727808D01*
X95948187Y-94706587D01*
X95900092Y-94693700D01*
X95768308Y-94693700D01*
X95641012Y-94727808D01*
X95526886Y-94793700D01*
X95526883Y-94793702D01*
X95433702Y-94886883D01*
X95433700Y-94886886D01*
X95367808Y-95001012D01*
X95333700Y-95128308D01*
X94356500Y-95128308D01*
X94356500Y-95100035D01*
X94323982Y-94853035D01*
X94259502Y-94612393D01*
X94164164Y-94382227D01*
X94163166Y-94380499D01*
X94039599Y-94166473D01*
X93887939Y-93968825D01*
X93887933Y-93968818D01*
X93711781Y-93792666D01*
X93711774Y-93792660D01*
X93514124Y-93640998D01*
X93514122Y-93640997D01*
X93476321Y-93619173D01*
X93476320Y-93619173D01*
X93298376Y-93516437D01*
X93298361Y-93516430D01*
X93296963Y-93515851D01*
X97591000Y-93515851D01*
X97591000Y-93758348D01*
X97591001Y-93758364D01*
X97622653Y-93998787D01*
X97685421Y-94233039D01*
X97778220Y-94457078D01*
X97778227Y-94457092D01*
X97899481Y-94667110D01*
X97968061Y-94756484D01*
X98876387Y-93848158D01*
X98881889Y-93868691D01*
X98960881Y-94005508D01*
X99072592Y-94117219D01*
X99209409Y-94196211D01*
X99229940Y-94201712D01*
X98321614Y-95110036D01*
X98321614Y-95110037D01*
X98410989Y-95178617D01*
X98410996Y-95178622D01*
X98621007Y-95299872D01*
X98621021Y-95299879D01*
X98845060Y-95392678D01*
X99079312Y-95455446D01*
X99319735Y-95487098D01*
X99319752Y-95487100D01*
X99562248Y-95487100D01*
X99562264Y-95487098D01*
X99741449Y-95463508D01*
X107551100Y-95463508D01*
X107551100Y-95595291D01*
X107585208Y-95722587D01*
X107597528Y-95743925D01*
X107651100Y-95836714D01*
X107744286Y-95929900D01*
X107858414Y-95995792D01*
X107985708Y-96029900D01*
X107985710Y-96029900D01*
X108117490Y-96029900D01*
X108117492Y-96029900D01*
X108244786Y-95995792D01*
X108358914Y-95929900D01*
X108452100Y-95836714D01*
X108517992Y-95722586D01*
X108552100Y-95595292D01*
X108552100Y-95463508D01*
X108517992Y-95336214D01*
X108452100Y-95222086D01*
X108358914Y-95128900D01*
X108281987Y-95084486D01*
X108244787Y-95063008D01*
X108181139Y-95045954D01*
X108117492Y-95028900D01*
X107985708Y-95028900D01*
X107858412Y-95063008D01*
X107744286Y-95128900D01*
X107744283Y-95128902D01*
X107651102Y-95222083D01*
X107651100Y-95222086D01*
X107585208Y-95336212D01*
X107551100Y-95463508D01*
X99741449Y-95463508D01*
X99802687Y-95455446D01*
X100036939Y-95392678D01*
X100162138Y-95340820D01*
X100260978Y-95299879D01*
X100260992Y-95299872D01*
X100471016Y-95178615D01*
X100560384Y-95110039D01*
X100560384Y-95110036D01*
X99652059Y-94201712D01*
X99672591Y-94196211D01*
X99809408Y-94117219D01*
X99921119Y-94005508D01*
X100000111Y-93868691D01*
X100005612Y-93848159D01*
X100913936Y-94756484D01*
X100913939Y-94756484D01*
X100982515Y-94667116D01*
X101103772Y-94457092D01*
X101103779Y-94457078D01*
X101196578Y-94233039D01*
X101259346Y-93998787D01*
X101270495Y-93914108D01*
X107551100Y-93914108D01*
X107551100Y-94045891D01*
X107585208Y-94173187D01*
X107604201Y-94206083D01*
X107651100Y-94287314D01*
X107744286Y-94380500D01*
X107858414Y-94446392D01*
X107985708Y-94480500D01*
X107985710Y-94480500D01*
X108117490Y-94480500D01*
X108117492Y-94480500D01*
X108244786Y-94446392D01*
X108358914Y-94380500D01*
X108452100Y-94287314D01*
X108517992Y-94173186D01*
X108552100Y-94045892D01*
X108552100Y-93914108D01*
X108517992Y-93786814D01*
X108452100Y-93672686D01*
X108358914Y-93579500D01*
X108301850Y-93546554D01*
X108244787Y-93513608D01*
X108181139Y-93496554D01*
X108117492Y-93479500D01*
X107985708Y-93479500D01*
X107858412Y-93513608D01*
X107744286Y-93579500D01*
X107744283Y-93579502D01*
X107651102Y-93672683D01*
X107651100Y-93672686D01*
X107585208Y-93786812D01*
X107551100Y-93914108D01*
X101270495Y-93914108D01*
X101273696Y-93889795D01*
X101273696Y-93889794D01*
X101290998Y-93758365D01*
X101291000Y-93758348D01*
X101291000Y-93515851D01*
X101290998Y-93515835D01*
X101259346Y-93275412D01*
X101196578Y-93041160D01*
X101103779Y-92817121D01*
X101103772Y-92817107D01*
X100982522Y-92607096D01*
X100982517Y-92607089D01*
X100913937Y-92517714D01*
X100913936Y-92517714D01*
X100005612Y-93426039D01*
X100000111Y-93405509D01*
X99921119Y-93268692D01*
X99809408Y-93156981D01*
X99672591Y-93077989D01*
X99652058Y-93072487D01*
X100408467Y-92316077D01*
X100457828Y-92285827D01*
X100671185Y-92216504D01*
X100888639Y-92105706D01*
X101086083Y-91962255D01*
X101258655Y-91789683D01*
X101402106Y-91592239D01*
X101512904Y-91374785D01*
X101578927Y-91171589D01*
X104402700Y-91171589D01*
X104402700Y-91344810D01*
X104420166Y-91455091D01*
X104429798Y-91515901D01*
X104458004Y-91602710D01*
X104483328Y-91680647D01*
X104491412Y-91696513D01*
X104561968Y-91834988D01*
X104663786Y-91975128D01*
X104786272Y-92097614D01*
X104926412Y-92199432D01*
X105080755Y-92278073D01*
X105245499Y-92331602D01*
X105416589Y-92358700D01*
X105416590Y-92358700D01*
X105589810Y-92358700D01*
X105589811Y-92358700D01*
X105760901Y-92331602D01*
X105925645Y-92278073D01*
X106079988Y-92199432D01*
X106220128Y-92097614D01*
X106342614Y-91975128D01*
X106444432Y-91834988D01*
X106523073Y-91680645D01*
X106576602Y-91515901D01*
X106603700Y-91344811D01*
X106603700Y-91171589D01*
X106576602Y-91000499D01*
X106523073Y-90835755D01*
X106444432Y-90681412D01*
X106342614Y-90541272D01*
X106220128Y-90418786D01*
X106079988Y-90316968D01*
X105925645Y-90238327D01*
X105760901Y-90184798D01*
X105760899Y-90184797D01*
X105760898Y-90184797D01*
X105629471Y-90163981D01*
X105589811Y-90157700D01*
X105416589Y-90157700D01*
X105376928Y-90163981D01*
X105245502Y-90184797D01*
X105080752Y-90238328D01*
X104926411Y-90316968D01*
X104846456Y-90375059D01*
X104786272Y-90418786D01*
X104786270Y-90418788D01*
X104786269Y-90418788D01*
X104663788Y-90541269D01*
X104663788Y-90541270D01*
X104663786Y-90541272D01*
X104620059Y-90601456D01*
X104561968Y-90681411D01*
X104483328Y-90835752D01*
X104429797Y-91000502D01*
X104402700Y-91171589D01*
X101578927Y-91171589D01*
X101588321Y-91142676D01*
X101626500Y-90901627D01*
X101626500Y-90657573D01*
X101588321Y-90416524D01*
X101512904Y-90184415D01*
X101402106Y-89966961D01*
X101343787Y-89886691D01*
X101258660Y-89769523D01*
X101258656Y-89769518D01*
X101086081Y-89596943D01*
X101086076Y-89596939D01*
X100888642Y-89453496D01*
X100888641Y-89453495D01*
X100888639Y-89453494D01*
X100671185Y-89342696D01*
X100517915Y-89292895D01*
X100460240Y-89253458D01*
X100433042Y-89189100D01*
X100444957Y-89120253D01*
X100468547Y-89087290D01*
X100623655Y-88932183D01*
X100767106Y-88734739D01*
X100877904Y-88517285D01*
X100953321Y-88285176D01*
X100991500Y-88044127D01*
X100991500Y-87894308D01*
X104528500Y-87894308D01*
X104528500Y-88026092D01*
X104545554Y-88089739D01*
X104562608Y-88153387D01*
X104591011Y-88202582D01*
X104628500Y-88267514D01*
X104721686Y-88360700D01*
X104835814Y-88426592D01*
X104963108Y-88460700D01*
X104963110Y-88460700D01*
X105094890Y-88460700D01*
X105094892Y-88460700D01*
X105222186Y-88426592D01*
X105336314Y-88360700D01*
X105421706Y-88275308D01*
X106839900Y-88275308D01*
X106839900Y-88407092D01*
X106842318Y-88416116D01*
X106874008Y-88534387D01*
X106898956Y-88577597D01*
X106939900Y-88648514D01*
X107033086Y-88741700D01*
X107147214Y-88807592D01*
X107274508Y-88841700D01*
X107274510Y-88841700D01*
X107406290Y-88841700D01*
X107406292Y-88841700D01*
X107533586Y-88807592D01*
X107647714Y-88741700D01*
X107740900Y-88648514D01*
X107806792Y-88534386D01*
X107840900Y-88407092D01*
X107840900Y-88275308D01*
X107806792Y-88148014D01*
X107740900Y-88033886D01*
X107647714Y-87940700D01*
X107590650Y-87907754D01*
X107533587Y-87874808D01*
X107467871Y-87857200D01*
X107406292Y-87840700D01*
X107274508Y-87840700D01*
X107147212Y-87874808D01*
X107033086Y-87940700D01*
X107033083Y-87940702D01*
X106939902Y-88033883D01*
X106939900Y-88033886D01*
X106874008Y-88148012D01*
X106848560Y-88242989D01*
X106839900Y-88275308D01*
X105421706Y-88275308D01*
X105429500Y-88267514D01*
X105495392Y-88153386D01*
X105529500Y-88026092D01*
X105529500Y-87894308D01*
X105495392Y-87767014D01*
X105429500Y-87652886D01*
X105336314Y-87559700D01*
X105279250Y-87526754D01*
X105222187Y-87493808D01*
X105154195Y-87475590D01*
X105094892Y-87459700D01*
X104963108Y-87459700D01*
X104835812Y-87493808D01*
X104721686Y-87559700D01*
X104721683Y-87559702D01*
X104628502Y-87652883D01*
X104628500Y-87652886D01*
X104562608Y-87767012D01*
X104542864Y-87840700D01*
X104528500Y-87894308D01*
X100991500Y-87894308D01*
X100991500Y-87800073D01*
X100953321Y-87559024D01*
X100877904Y-87326915D01*
X100767106Y-87109461D01*
X100748779Y-87084236D01*
X100623660Y-86912023D01*
X100623656Y-86912018D01*
X100451081Y-86739443D01*
X100451076Y-86739439D01*
X100253642Y-86595996D01*
X100253641Y-86595995D01*
X100253639Y-86595994D01*
X100036185Y-86485196D01*
X99804076Y-86409779D01*
X99804074Y-86409778D01*
X99804072Y-86409778D01*
X99635769Y-86383121D01*
X99563027Y-86371600D01*
X99318973Y-86371600D01*
X99263093Y-86380450D01*
X99077927Y-86409778D01*
X99077924Y-86409779D01*
X98925952Y-86459158D01*
X98845812Y-86485197D01*
X98628357Y-86595996D01*
X98430923Y-86739439D01*
X98430918Y-86739443D01*
X98258343Y-86912018D01*
X98258339Y-86912023D01*
X98114896Y-87109457D01*
X98004097Y-87326912D01*
X97928678Y-87559027D01*
X97890500Y-87800073D01*
X97890500Y-88044126D01*
X97925881Y-88267514D01*
X97928679Y-88285176D01*
X98004096Y-88517285D01*
X98107517Y-88720261D01*
X98114896Y-88734742D01*
X98258339Y-88932176D01*
X98258343Y-88932181D01*
X98430918Y-89104756D01*
X98430923Y-89104760D01*
X98534004Y-89179652D01*
X98628361Y-89248206D01*
X98766923Y-89318806D01*
X98845810Y-89359002D01*
X98845812Y-89359002D01*
X98845815Y-89359004D01*
X98976006Y-89401305D01*
X98999083Y-89408804D01*
X99056758Y-89448242D01*
X99083956Y-89512601D01*
X99072041Y-89581447D01*
X99048446Y-89614416D01*
X98893338Y-89769524D01*
X98749896Y-89966957D01*
X98639097Y-90184412D01*
X98639096Y-90184414D01*
X98639096Y-90184415D01*
X98616034Y-90255391D01*
X98563678Y-90416527D01*
X98525500Y-90657573D01*
X98525500Y-90901627D01*
X98526804Y-90909857D01*
X98559659Y-91117300D01*
X98563679Y-91142676D01*
X98607387Y-91277196D01*
X98639097Y-91374787D01*
X98749896Y-91592243D01*
X98841009Y-91717650D01*
X98864489Y-91783456D01*
X98848663Y-91851510D01*
X98798557Y-91900205D01*
X98788144Y-91905096D01*
X98621016Y-91974322D01*
X98621006Y-91974327D01*
X98410990Y-92095580D01*
X98321614Y-92164160D01*
X98321614Y-92164161D01*
X99229941Y-93072487D01*
X99209409Y-93077989D01*
X99072592Y-93156981D01*
X98960881Y-93268692D01*
X98881889Y-93405509D01*
X98876387Y-93426040D01*
X97968061Y-92517714D01*
X97968060Y-92517714D01*
X97899480Y-92607090D01*
X97778227Y-92817106D01*
X97778220Y-92817121D01*
X97685421Y-93041160D01*
X97622653Y-93275412D01*
X97591001Y-93515835D01*
X97591000Y-93515851D01*
X93296963Y-93515851D01*
X93068207Y-93421098D01*
X92827561Y-93356617D01*
X92580575Y-93324101D01*
X92580570Y-93324100D01*
X92580565Y-93324100D01*
X92331435Y-93324100D01*
X92331429Y-93324100D01*
X92331424Y-93324101D01*
X92084438Y-93356617D01*
X91843792Y-93421098D01*
X91613638Y-93516430D01*
X91613623Y-93516437D01*
X91397873Y-93641000D01*
X91200225Y-93792660D01*
X91200218Y-93792666D01*
X91024066Y-93968818D01*
X91024060Y-93968825D01*
X90872400Y-94166473D01*
X90747837Y-94382223D01*
X90747830Y-94382238D01*
X90652498Y-94612392D01*
X90588017Y-94853038D01*
X90555501Y-95100024D01*
X90555500Y-95100041D01*
X81374100Y-95100041D01*
X81374100Y-90676130D01*
X85055500Y-90676130D01*
X85055500Y-90883069D01*
X85095868Y-91086012D01*
X85095870Y-91086020D01*
X85175059Y-91277198D01*
X85205870Y-91323310D01*
X85290024Y-91449257D01*
X85436342Y-91595575D01*
X85436345Y-91595577D01*
X85608402Y-91710541D01*
X85799580Y-91789730D01*
X85986236Y-91826858D01*
X86002530Y-91830099D01*
X86002534Y-91830100D01*
X86002535Y-91830100D01*
X86209466Y-91830100D01*
X86209467Y-91830099D01*
X86412420Y-91789730D01*
X86603598Y-91710541D01*
X86764983Y-91602708D01*
X96578300Y-91602708D01*
X96578300Y-91734491D01*
X96612408Y-91861787D01*
X96628524Y-91889700D01*
X96678300Y-91975914D01*
X96771486Y-92069100D01*
X96885614Y-92134992D01*
X97012908Y-92169100D01*
X97012910Y-92169100D01*
X97144690Y-92169100D01*
X97144692Y-92169100D01*
X97271986Y-92134992D01*
X97386114Y-92069100D01*
X97479300Y-91975914D01*
X97545192Y-91861786D01*
X97579300Y-91734492D01*
X97579300Y-91602708D01*
X97545192Y-91475414D01*
X97479300Y-91361286D01*
X97386114Y-91268100D01*
X97329050Y-91235154D01*
X97271987Y-91202208D01*
X97208339Y-91185154D01*
X97144692Y-91168100D01*
X97012908Y-91168100D01*
X96885612Y-91202208D01*
X96771486Y-91268100D01*
X96771483Y-91268102D01*
X96678302Y-91361283D01*
X96678300Y-91361286D01*
X96612408Y-91475412D01*
X96578300Y-91602708D01*
X86764983Y-91602708D01*
X86775655Y-91595577D01*
X86819324Y-91551908D01*
X86864333Y-91506900D01*
X86921974Y-91449258D01*
X86921975Y-91449257D01*
X86921977Y-91449255D01*
X87036941Y-91277198D01*
X87116130Y-91086020D01*
X87156500Y-90883065D01*
X87156500Y-90676135D01*
X87116130Y-90473180D01*
X87036941Y-90282002D01*
X86921977Y-90109945D01*
X86921975Y-90109942D01*
X86775657Y-89963624D01*
X86612926Y-89854892D01*
X86603598Y-89848659D01*
X86412420Y-89769470D01*
X86412412Y-89769468D01*
X86209469Y-89729100D01*
X86209465Y-89729100D01*
X86002535Y-89729100D01*
X86002530Y-89729100D01*
X85799587Y-89769468D01*
X85799579Y-89769470D01*
X85608403Y-89848658D01*
X85436342Y-89963624D01*
X85290024Y-90109942D01*
X85175058Y-90282003D01*
X85095870Y-90473179D01*
X85095868Y-90473187D01*
X85055500Y-90676130D01*
X81374100Y-90676130D01*
X81374100Y-89723108D01*
X96298900Y-89723108D01*
X96298900Y-89854892D01*
X96315572Y-89917114D01*
X96333008Y-89982187D01*
X96333483Y-89983009D01*
X96398900Y-90096314D01*
X96492086Y-90189500D01*
X96606214Y-90255392D01*
X96733508Y-90289500D01*
X96733510Y-90289500D01*
X96865290Y-90289500D01*
X96865292Y-90289500D01*
X96992586Y-90255392D01*
X97106714Y-90189500D01*
X97199900Y-90096314D01*
X97265792Y-89982186D01*
X97299900Y-89854892D01*
X97299900Y-89723108D01*
X97265792Y-89595814D01*
X97199900Y-89481686D01*
X97106714Y-89388500D01*
X97027381Y-89342697D01*
X96992587Y-89322608D01*
X96881698Y-89292896D01*
X96865292Y-89288500D01*
X96733508Y-89288500D01*
X96606212Y-89322608D01*
X96492086Y-89388500D01*
X96492083Y-89388502D01*
X96398902Y-89481683D01*
X96398900Y-89481686D01*
X96333008Y-89595812D01*
X96302465Y-89709803D01*
X96298900Y-89723108D01*
X81374100Y-89723108D01*
X81374100Y-86210041D01*
X90555500Y-86210041D01*
X90555500Y-86459158D01*
X90555501Y-86459175D01*
X90588017Y-86706161D01*
X90652498Y-86946807D01*
X90747830Y-87176961D01*
X90747837Y-87176976D01*
X90872400Y-87392726D01*
X91024060Y-87590374D01*
X91024066Y-87590381D01*
X91200218Y-87766533D01*
X91200225Y-87766539D01*
X91397873Y-87918199D01*
X91613623Y-88042762D01*
X91613638Y-88042769D01*
X91712825Y-88083853D01*
X91843793Y-88138102D01*
X92084435Y-88202582D01*
X92331435Y-88235100D01*
X92331442Y-88235100D01*
X92580558Y-88235100D01*
X92580565Y-88235100D01*
X92827565Y-88202582D01*
X93068207Y-88138102D01*
X93298025Y-88042908D01*
X95333700Y-88042908D01*
X95333700Y-88174692D01*
X95349886Y-88235098D01*
X95367808Y-88301987D01*
X95400754Y-88359050D01*
X95433700Y-88416114D01*
X95526886Y-88509300D01*
X95641014Y-88575192D01*
X95768308Y-88609300D01*
X95768310Y-88609300D01*
X95900090Y-88609300D01*
X95900092Y-88609300D01*
X96027386Y-88575192D01*
X96141514Y-88509300D01*
X96234700Y-88416114D01*
X96300592Y-88301986D01*
X96334700Y-88174692D01*
X96334700Y-88042908D01*
X96300592Y-87915614D01*
X96234700Y-87801486D01*
X96141514Y-87708300D01*
X96084450Y-87675354D01*
X96027387Y-87642408D01*
X95963739Y-87625354D01*
X95900092Y-87608300D01*
X95768308Y-87608300D01*
X95641012Y-87642408D01*
X95526886Y-87708300D01*
X95526883Y-87708302D01*
X95433702Y-87801483D01*
X95433700Y-87801486D01*
X95367808Y-87915612D01*
X95338206Y-88026090D01*
X95333700Y-88042908D01*
X93298025Y-88042908D01*
X93298373Y-88042764D01*
X93421730Y-87971544D01*
X93498201Y-87927394D01*
X93498202Y-87927393D01*
X93514127Y-87918199D01*
X93711776Y-87766538D01*
X93887938Y-87590376D01*
X94039599Y-87392727D01*
X94164164Y-87176973D01*
X94259502Y-86946807D01*
X94323982Y-86706165D01*
X94356500Y-86459165D01*
X94356500Y-86210035D01*
X94354192Y-86192508D01*
X96502100Y-86192508D01*
X96502100Y-86324292D01*
X96512202Y-86361994D01*
X96536208Y-86451587D01*
X96555613Y-86485196D01*
X96602100Y-86565714D01*
X96695286Y-86658900D01*
X96809414Y-86724792D01*
X96936708Y-86758900D01*
X96936710Y-86758900D01*
X97068490Y-86758900D01*
X97068492Y-86758900D01*
X97195786Y-86724792D01*
X97309914Y-86658900D01*
X97403100Y-86565714D01*
X97468992Y-86451586D01*
X97503100Y-86324292D01*
X97503100Y-86192508D01*
X97468992Y-86065214D01*
X97403100Y-85951086D01*
X97309914Y-85857900D01*
X97252850Y-85824954D01*
X97195787Y-85792008D01*
X97132139Y-85774954D01*
X97068492Y-85757900D01*
X96936708Y-85757900D01*
X96809412Y-85792008D01*
X96695286Y-85857900D01*
X96695283Y-85857902D01*
X96602102Y-85951083D01*
X96602100Y-85951086D01*
X96536208Y-86065212D01*
X96512166Y-86154939D01*
X96502100Y-86192508D01*
X94354192Y-86192508D01*
X94346478Y-86133913D01*
X94333906Y-86038414D01*
X94323982Y-85963035D01*
X94259502Y-85722393D01*
X94193146Y-85562196D01*
X94164169Y-85492238D01*
X94164162Y-85492223D01*
X94039599Y-85276473D01*
X93887939Y-85078825D01*
X93887933Y-85078818D01*
X93711781Y-84902666D01*
X93711774Y-84902660D01*
X93514126Y-84751000D01*
X93298376Y-84626437D01*
X93298361Y-84626430D01*
X93068207Y-84531098D01*
X92948759Y-84499092D01*
X92827565Y-84466618D01*
X92827564Y-84466617D01*
X92827561Y-84466617D01*
X92580575Y-84434101D01*
X92580570Y-84434100D01*
X92580565Y-84434100D01*
X92331435Y-84434100D01*
X92331429Y-84434100D01*
X92331424Y-84434101D01*
X92084438Y-84466617D01*
X91843792Y-84531098D01*
X91613638Y-84626430D01*
X91613623Y-84626437D01*
X91397873Y-84751000D01*
X91200225Y-84902660D01*
X91200218Y-84902666D01*
X91024066Y-85078818D01*
X91024060Y-85078825D01*
X90872400Y-85276473D01*
X90747837Y-85492223D01*
X90747830Y-85492238D01*
X90652498Y-85722392D01*
X90588017Y-85963038D01*
X90555820Y-86207601D01*
X90555501Y-86210032D01*
X90555500Y-86210041D01*
X81374100Y-86210041D01*
X81374100Y-84961130D01*
X81880500Y-84961130D01*
X81880500Y-85168069D01*
X81920868Y-85371012D01*
X81920870Y-85371020D01*
X82000058Y-85562196D01*
X82115024Y-85734257D01*
X82261342Y-85880575D01*
X82261345Y-85880577D01*
X82433402Y-85995541D01*
X82624580Y-86074730D01*
X82827530Y-86115099D01*
X82827534Y-86115100D01*
X82827535Y-86115100D01*
X83034466Y-86115100D01*
X83034467Y-86115099D01*
X83083824Y-86105282D01*
X83189014Y-86084359D01*
X83211423Y-86079901D01*
X83237420Y-86074730D01*
X83428598Y-85995541D01*
X83600655Y-85880577D01*
X83746977Y-85734255D01*
X83861941Y-85562198D01*
X83941130Y-85371020D01*
X83981500Y-85168065D01*
X83981500Y-84961135D01*
X83941130Y-84758180D01*
X83861941Y-84567002D01*
X83746977Y-84394945D01*
X83746975Y-84394942D01*
X83600657Y-84248624D01*
X83444519Y-84144297D01*
X83428598Y-84133659D01*
X83409832Y-84125886D01*
X83237420Y-84054470D01*
X83237412Y-84054468D01*
X83034469Y-84014100D01*
X83034465Y-84014100D01*
X82827535Y-84014100D01*
X82827530Y-84014100D01*
X82624587Y-84054468D01*
X82624579Y-84054470D01*
X82433403Y-84133658D01*
X82261342Y-84248624D01*
X82115024Y-84394942D01*
X82000058Y-84567003D01*
X81920870Y-84758179D01*
X81920868Y-84758187D01*
X81880500Y-84961130D01*
X81374100Y-84961130D01*
X81374100Y-83241108D01*
X92158700Y-83241108D01*
X92158700Y-83372892D01*
X92169726Y-83414042D01*
X92192808Y-83500187D01*
X92221923Y-83550614D01*
X92258700Y-83614314D01*
X92351886Y-83707500D01*
X92466014Y-83773392D01*
X92593308Y-83807500D01*
X92593310Y-83807500D01*
X92725090Y-83807500D01*
X92725092Y-83807500D01*
X92852386Y-83773392D01*
X92966514Y-83707500D01*
X93009317Y-83664697D01*
X93980500Y-83664697D01*
X93980500Y-83924502D01*
X94021140Y-84181093D01*
X94101422Y-84428176D01*
X94172159Y-84567002D01*
X94217971Y-84656914D01*
X94219368Y-84659654D01*
X94290033Y-84756916D01*
X94372069Y-84869829D01*
X94555771Y-85053531D01*
X94765949Y-85206234D01*
X94903800Y-85276473D01*
X94997423Y-85324177D01*
X94997425Y-85324177D01*
X94997428Y-85324179D01*
X95244507Y-85404460D01*
X95376706Y-85425397D01*
X95501098Y-85445100D01*
X95501103Y-85445100D01*
X95760902Y-85445100D01*
X95880848Y-85426102D01*
X96017493Y-85404460D01*
X96264572Y-85324179D01*
X96496051Y-85206234D01*
X96706229Y-85053531D01*
X96837252Y-84922508D01*
X101201100Y-84922508D01*
X101201100Y-85054291D01*
X101235208Y-85181587D01*
X101259295Y-85223306D01*
X101301100Y-85295714D01*
X101394286Y-85388900D01*
X101508414Y-85454792D01*
X101635708Y-85488900D01*
X101635710Y-85488900D01*
X101767490Y-85488900D01*
X101767492Y-85488900D01*
X101894786Y-85454792D01*
X102008914Y-85388900D01*
X102102100Y-85295714D01*
X102167992Y-85181586D01*
X102192124Y-85091522D01*
X106399314Y-85091522D01*
X106399314Y-85223305D01*
X106433422Y-85350601D01*
X106464518Y-85404459D01*
X106499314Y-85464728D01*
X106592500Y-85557914D01*
X106706628Y-85623806D01*
X106833922Y-85657914D01*
X106833924Y-85657914D01*
X106965703Y-85657914D01*
X106965706Y-85657914D01*
X107065008Y-85631306D01*
X107134853Y-85632969D01*
X107192715Y-85672131D01*
X107220220Y-85736359D01*
X107220126Y-85752581D01*
X107220900Y-85752581D01*
X107220900Y-85760708D01*
X107220900Y-85892492D01*
X107236599Y-85951083D01*
X107255008Y-86019787D01*
X107255009Y-86019788D01*
X107320900Y-86133914D01*
X107414086Y-86227100D01*
X107528214Y-86292992D01*
X107655508Y-86327100D01*
X107655510Y-86327100D01*
X107787290Y-86327100D01*
X107787292Y-86327100D01*
X107914586Y-86292992D01*
X108028714Y-86227100D01*
X108121900Y-86133914D01*
X108138431Y-86105282D01*
X109494800Y-86105282D01*
X109494800Y-86309917D01*
X109526809Y-86512017D01*
X109590044Y-86706631D01*
X109682941Y-86888950D01*
X109682947Y-86888959D01*
X109715323Y-86933521D01*
X109715324Y-86933522D01*
X110394800Y-86254046D01*
X110394800Y-86260261D01*
X110422059Y-86361994D01*
X110474720Y-86453206D01*
X110549194Y-86527680D01*
X110640406Y-86580341D01*
X110742139Y-86607600D01*
X110748353Y-86607600D01*
X110068876Y-87287074D01*
X110113450Y-87319459D01*
X110295768Y-87412355D01*
X110490382Y-87475590D01*
X110692483Y-87507600D01*
X110897117Y-87507600D01*
X111099217Y-87475590D01*
X111293831Y-87412355D01*
X111476149Y-87319459D01*
X111520721Y-87287074D01*
X110841247Y-86607600D01*
X110847461Y-86607600D01*
X110949194Y-86580341D01*
X111040406Y-86527680D01*
X111114880Y-86453206D01*
X111167541Y-86361994D01*
X111194800Y-86260261D01*
X111194800Y-86254047D01*
X111874274Y-86933521D01*
X111906659Y-86888949D01*
X111999555Y-86706631D01*
X112062790Y-86512017D01*
X112094800Y-86309917D01*
X112094800Y-86105282D01*
X112062790Y-85903182D01*
X111999555Y-85708568D01*
X111906659Y-85526250D01*
X111874274Y-85481677D01*
X111874274Y-85481676D01*
X111194800Y-86161151D01*
X111194800Y-86154939D01*
X111167541Y-86053206D01*
X111114880Y-85961994D01*
X111040406Y-85887520D01*
X110949194Y-85834859D01*
X110847461Y-85807600D01*
X110841246Y-85807600D01*
X111520722Y-85128124D01*
X111520721Y-85128123D01*
X111476159Y-85095747D01*
X111476150Y-85095741D01*
X111293831Y-85002844D01*
X111099217Y-84939609D01*
X110897117Y-84907600D01*
X110692489Y-84907600D01*
X110687897Y-84907961D01*
X110619521Y-84893591D01*
X110569768Y-84844535D01*
X110554435Y-84776369D01*
X110570789Y-84722345D01*
X110626192Y-84626386D01*
X110660300Y-84499092D01*
X110660300Y-84367308D01*
X110626192Y-84240014D01*
X110625840Y-84239405D01*
X110608974Y-84210192D01*
X110560300Y-84125886D01*
X110467114Y-84032700D01*
X110467112Y-84032699D01*
X110467110Y-84032697D01*
X110377554Y-83980992D01*
X110329338Y-83930425D01*
X110316116Y-83861818D01*
X110342084Y-83796953D01*
X110398998Y-83756425D01*
X110407443Y-83753835D01*
X110505386Y-83727592D01*
X110619514Y-83661700D01*
X110712700Y-83568514D01*
X110778592Y-83454386D01*
X110812700Y-83327092D01*
X110812700Y-83195308D01*
X110778592Y-83068014D01*
X110712700Y-82953886D01*
X110619514Y-82860700D01*
X110562450Y-82827754D01*
X110505387Y-82794808D01*
X110441739Y-82777754D01*
X110378092Y-82760700D01*
X110246308Y-82760700D01*
X110119012Y-82794808D01*
X110004886Y-82860700D01*
X110004883Y-82860702D01*
X109911702Y-82953883D01*
X109911700Y-82953886D01*
X109845808Y-83068012D01*
X109811700Y-83195308D01*
X109811700Y-83327092D01*
X109823971Y-83372890D01*
X109845808Y-83454387D01*
X109872251Y-83500186D01*
X109911700Y-83568514D01*
X110004886Y-83661700D01*
X110084209Y-83707497D01*
X110094445Y-83713407D01*
X110142661Y-83763974D01*
X110155884Y-83832581D01*
X110129916Y-83897446D01*
X110073001Y-83937974D01*
X110064539Y-83940569D01*
X110024209Y-83951375D01*
X109966614Y-83966808D01*
X109966612Y-83966808D01*
X109966612Y-83966809D01*
X109852486Y-84032700D01*
X109852483Y-84032702D01*
X109759302Y-84125883D01*
X109759300Y-84125886D01*
X109693408Y-84240012D01*
X109659300Y-84367308D01*
X109659300Y-84499091D01*
X109693408Y-84626387D01*
X109712615Y-84659654D01*
X109759300Y-84740514D01*
X109852486Y-84833700D01*
X109966614Y-84899592D01*
X110020010Y-84913899D01*
X110079668Y-84950262D01*
X110110198Y-85013109D01*
X110101904Y-85082485D01*
X110069249Y-85123403D01*
X110068877Y-85128124D01*
X110748354Y-85807600D01*
X110742139Y-85807600D01*
X110640406Y-85834859D01*
X110549194Y-85887520D01*
X110474720Y-85961994D01*
X110422059Y-86053206D01*
X110394800Y-86154939D01*
X110394800Y-86161153D01*
X109715324Y-85481677D01*
X109715323Y-85481677D01*
X109682943Y-85526244D01*
X109590044Y-85708568D01*
X109526809Y-85903182D01*
X109494800Y-86105282D01*
X108138431Y-86105282D01*
X108187792Y-86019786D01*
X108221900Y-85892492D01*
X108221900Y-85760708D01*
X108187792Y-85633414D01*
X108121900Y-85519286D01*
X108028714Y-85426100D01*
X107964277Y-85388897D01*
X107914587Y-85360208D01*
X107850939Y-85343154D01*
X107787292Y-85326100D01*
X107655508Y-85326100D01*
X107556208Y-85352706D01*
X107486359Y-85351044D01*
X107428497Y-85311881D01*
X107400993Y-85247653D01*
X107401093Y-85231433D01*
X107400314Y-85231433D01*
X107400314Y-85091524D01*
X107400314Y-85091522D01*
X107366206Y-84964228D01*
X107300314Y-84850100D01*
X107207128Y-84756914D01*
X107137129Y-84716500D01*
X107093001Y-84691022D01*
X107029353Y-84673968D01*
X106965706Y-84656914D01*
X106833922Y-84656914D01*
X106706626Y-84691022D01*
X106592500Y-84756914D01*
X106592497Y-84756916D01*
X106499316Y-84850097D01*
X106499314Y-84850100D01*
X106433422Y-84964226D01*
X106399314Y-85091522D01*
X102192124Y-85091522D01*
X102202100Y-85054292D01*
X102202100Y-84922508D01*
X102167992Y-84795214D01*
X102102100Y-84681086D01*
X102008914Y-84587900D01*
X101951850Y-84554954D01*
X101894787Y-84522008D01*
X101831139Y-84504954D01*
X101767492Y-84487900D01*
X101635708Y-84487900D01*
X101508412Y-84522008D01*
X101394286Y-84587900D01*
X101394283Y-84587902D01*
X101301102Y-84681083D01*
X101301100Y-84681086D01*
X101235208Y-84795212D01*
X101201100Y-84922508D01*
X96837252Y-84922508D01*
X96889931Y-84869829D01*
X97042634Y-84659651D01*
X97160579Y-84428172D01*
X97240860Y-84181093D01*
X97267309Y-84014100D01*
X97281500Y-83924502D01*
X97281500Y-83677908D01*
X97721300Y-83677908D01*
X97721300Y-83809691D01*
X97755408Y-83936987D01*
X97772626Y-83966808D01*
X97821300Y-84051114D01*
X97914486Y-84144300D01*
X98028614Y-84210192D01*
X98155908Y-84244300D01*
X98155910Y-84244300D01*
X98287689Y-84244300D01*
X98287692Y-84244300D01*
X98414986Y-84210192D01*
X98529114Y-84144300D01*
X98622300Y-84051114D01*
X98688192Y-83936986D01*
X98722300Y-83809692D01*
X98722300Y-83677908D01*
X98688192Y-83550614D01*
X98622300Y-83436486D01*
X98529114Y-83343300D01*
X98461911Y-83304500D01*
X98414987Y-83277408D01*
X98351339Y-83260354D01*
X98287692Y-83243300D01*
X98155908Y-83243300D01*
X98028612Y-83277408D01*
X97914486Y-83343300D01*
X97914483Y-83343302D01*
X97821302Y-83436483D01*
X97821300Y-83436486D01*
X97755408Y-83550612D01*
X97721300Y-83677908D01*
X97281500Y-83677908D01*
X97281500Y-83664697D01*
X97255444Y-83500187D01*
X97240860Y-83408107D01*
X97160579Y-83161028D01*
X97160577Y-83161025D01*
X97160577Y-83161023D01*
X97115660Y-83072870D01*
X97042634Y-82929549D01*
X96889931Y-82719371D01*
X96833019Y-82662459D01*
X96799534Y-82601136D01*
X96804518Y-82531444D01*
X96846390Y-82475511D01*
X96911854Y-82451094D01*
X96952789Y-82455003D01*
X96962108Y-82457500D01*
X96962112Y-82457500D01*
X97093890Y-82457500D01*
X97093892Y-82457500D01*
X97221186Y-82423392D01*
X97335314Y-82357500D01*
X97428500Y-82264314D01*
X97494392Y-82150186D01*
X97528500Y-82022892D01*
X97528500Y-81891108D01*
X97524052Y-81874508D01*
X99905700Y-81874508D01*
X99905700Y-82006292D01*
X99919391Y-82057387D01*
X99939808Y-82133587D01*
X99961705Y-82171513D01*
X100005700Y-82247714D01*
X100098886Y-82340900D01*
X100213014Y-82406792D01*
X100340308Y-82440900D01*
X100340310Y-82440900D01*
X100472090Y-82440900D01*
X100472092Y-82440900D01*
X100599386Y-82406792D01*
X100713514Y-82340900D01*
X100806700Y-82247714D01*
X100872592Y-82133586D01*
X100906700Y-82006292D01*
X100906700Y-81874508D01*
X100898025Y-81842131D01*
X101929579Y-81842131D01*
X101929579Y-81973915D01*
X101938254Y-82006290D01*
X101963687Y-82101210D01*
X101991965Y-82150188D01*
X102029579Y-82215337D01*
X102122765Y-82308523D01*
X102236893Y-82374415D01*
X102364187Y-82408523D01*
X102364189Y-82408523D01*
X102495969Y-82408523D01*
X102495971Y-82408523D01*
X102623265Y-82374415D01*
X102737393Y-82308523D01*
X102830579Y-82215337D01*
X102886503Y-82118473D01*
X102937070Y-82070258D01*
X103005677Y-82057035D01*
X103070542Y-82083004D01*
X103101276Y-82118471D01*
X103131900Y-82171514D01*
X103225086Y-82264700D01*
X103339214Y-82330592D01*
X103466508Y-82364700D01*
X103466510Y-82364700D01*
X103598290Y-82364700D01*
X103598292Y-82364700D01*
X103725586Y-82330592D01*
X103839714Y-82264700D01*
X103932900Y-82171514D01*
X103998792Y-82057386D01*
X104032900Y-81930092D01*
X104032900Y-81849108D01*
X105950900Y-81849108D01*
X105950900Y-81980892D01*
X105962154Y-82022892D01*
X105985008Y-82108187D01*
X105999673Y-82133587D01*
X106050900Y-82222314D01*
X106144086Y-82315500D01*
X106216832Y-82357500D01*
X106246129Y-82374415D01*
X106258214Y-82381392D01*
X106385508Y-82415500D01*
X106385510Y-82415500D01*
X106517290Y-82415500D01*
X106517292Y-82415500D01*
X106644586Y-82381392D01*
X106758714Y-82315500D01*
X106851900Y-82222314D01*
X106917792Y-82108186D01*
X106951900Y-81980892D01*
X106951900Y-81849108D01*
X106917792Y-81721814D01*
X106851900Y-81607686D01*
X106758714Y-81514500D01*
X106701650Y-81481554D01*
X106644587Y-81448608D01*
X106580939Y-81431554D01*
X106517292Y-81414500D01*
X106385508Y-81414500D01*
X106258212Y-81448608D01*
X106144086Y-81514500D01*
X106144083Y-81514502D01*
X106050902Y-81607683D01*
X106050900Y-81607686D01*
X105985008Y-81721812D01*
X105964511Y-81798310D01*
X105950900Y-81849108D01*
X104032900Y-81849108D01*
X104032900Y-81798308D01*
X103998792Y-81671014D01*
X103932900Y-81556886D01*
X103839714Y-81463700D01*
X103782650Y-81430754D01*
X103725587Y-81397808D01*
X103661939Y-81380754D01*
X103598292Y-81363700D01*
X103466508Y-81363700D01*
X103339212Y-81397808D01*
X103225086Y-81463700D01*
X103225083Y-81463702D01*
X103131902Y-81556883D01*
X103131895Y-81556892D01*
X103075974Y-81653749D01*
X103025407Y-81701964D01*
X102956800Y-81715186D01*
X102891935Y-81689218D01*
X102861201Y-81653748D01*
X102834605Y-81607683D01*
X102830579Y-81600709D01*
X102737393Y-81507523D01*
X102649019Y-81456500D01*
X102623266Y-81441631D01*
X102559618Y-81424577D01*
X102495971Y-81407523D01*
X102364187Y-81407523D01*
X102236891Y-81441631D01*
X102122765Y-81507523D01*
X102122762Y-81507525D01*
X102029581Y-81600706D01*
X102029579Y-81600709D01*
X101963687Y-81714835D01*
X101945624Y-81782250D01*
X101929579Y-81842131D01*
X100898025Y-81842131D01*
X100872592Y-81747214D01*
X100806700Y-81633086D01*
X100713514Y-81539900D01*
X100628138Y-81490608D01*
X100599387Y-81474008D01*
X100504591Y-81448608D01*
X100472092Y-81439900D01*
X100340308Y-81439900D01*
X100213012Y-81474008D01*
X100098886Y-81539900D01*
X100098883Y-81539902D01*
X100005702Y-81633083D01*
X100005700Y-81633086D01*
X99939808Y-81747212D01*
X99926117Y-81798310D01*
X99905700Y-81874508D01*
X97524052Y-81874508D01*
X97494392Y-81763814D01*
X97428500Y-81649686D01*
X97335314Y-81556500D01*
X97262568Y-81514500D01*
X97221187Y-81490608D01*
X97120770Y-81463702D01*
X97093892Y-81456500D01*
X96962108Y-81456500D01*
X96834812Y-81490608D01*
X96720686Y-81556500D01*
X96720683Y-81556502D01*
X96627502Y-81649683D01*
X96627500Y-81649686D01*
X96561608Y-81763812D01*
X96527500Y-81891108D01*
X96527500Y-82022891D01*
X96561608Y-82150188D01*
X96570031Y-82164776D01*
X96586502Y-82232677D01*
X96563650Y-82298703D01*
X96508728Y-82341893D01*
X96439174Y-82348534D01*
X96406348Y-82337260D01*
X96264576Y-82265022D01*
X96017493Y-82184740D01*
X95760902Y-82144100D01*
X95760897Y-82144100D01*
X95501103Y-82144100D01*
X95501098Y-82144100D01*
X95244506Y-82184740D01*
X94997423Y-82265022D01*
X94765945Y-82382968D01*
X94555774Y-82535666D01*
X94555768Y-82535671D01*
X94372071Y-82719368D01*
X94372066Y-82719374D01*
X94219368Y-82929545D01*
X94101422Y-83161023D01*
X94021140Y-83408106D01*
X93980500Y-83664697D01*
X93009317Y-83664697D01*
X93059700Y-83614314D01*
X93125592Y-83500186D01*
X93159700Y-83372892D01*
X93159700Y-83241108D01*
X93125592Y-83113814D01*
X93059700Y-82999686D01*
X92966514Y-82906500D01*
X92887190Y-82860702D01*
X92852387Y-82840608D01*
X92788739Y-82823554D01*
X92725092Y-82806500D01*
X92593308Y-82806500D01*
X92466012Y-82840608D01*
X92351886Y-82906500D01*
X92351883Y-82906502D01*
X92258702Y-82999683D01*
X92258700Y-82999686D01*
X92192808Y-83113812D01*
X92180157Y-83161028D01*
X92158700Y-83241108D01*
X81374100Y-83241108D01*
X81374100Y-80875033D01*
X81393785Y-80807994D01*
X81446589Y-80762239D01*
X81498004Y-80751033D01*
X111146944Y-80729237D01*
X111213996Y-80748872D01*
G37*
G04 #@! TD.AperFunction*
G04 #@! TA.AperFunction,Conductor*
G36*
X82857049Y-99413542D02*
G01*
X82944599Y-99544570D01*
X83056030Y-99656001D01*
X83187058Y-99743551D01*
X83203706Y-99750446D01*
X82233259Y-100720892D01*
X82171936Y-100754377D01*
X82145548Y-100757211D01*
X81498070Y-100757055D01*
X81431035Y-100737354D01*
X81385293Y-100684539D01*
X81374100Y-100633055D01*
X81374100Y-99853838D01*
X81393785Y-99786799D01*
X81446589Y-99741044D01*
X81515747Y-99731100D01*
X81579303Y-99760125D01*
X81612661Y-99806386D01*
X81678520Y-99965387D01*
X81678527Y-99965402D01*
X81816163Y-100203796D01*
X81914758Y-100332286D01*
X82850152Y-99396892D01*
X82857049Y-99413542D01*
G37*
G04 #@! TD.AperFunction*
G04 #@! TD*
G04 #@! TA.AperFunction,Conductor*
G04 #@! TO.N,AGND*
G36*
X130355271Y-80720133D02*
G01*
X130363891Y-80722658D01*
X130422697Y-80760381D01*
X130451776Y-80823913D01*
X130441891Y-80893079D01*
X130401619Y-80942212D01*
X130397458Y-80945215D01*
X130372347Y-80959226D01*
X130312409Y-80984054D01*
X130140337Y-81099027D01*
X129994027Y-81245337D01*
X129879057Y-81417404D01*
X129799870Y-81608579D01*
X129799864Y-81608604D01*
X129759500Y-81811527D01*
X129759500Y-81811530D01*
X129759500Y-82018469D01*
X129759500Y-82018471D01*
X129759499Y-82018471D01*
X129799864Y-82221394D01*
X129799870Y-82221421D01*
X129865937Y-82380923D01*
X129865938Y-82380923D01*
X129879059Y-82412599D01*
X129879062Y-82412604D01*
X129892835Y-82433216D01*
X129994025Y-82584659D01*
X130140336Y-82730970D01*
X130140340Y-82730973D01*
X130140342Y-82730975D01*
X130140345Y-82730977D01*
X130140349Y-82730980D01*
X130140348Y-82730980D01*
X130140411Y-82731032D01*
X130140448Y-82731046D01*
X130312402Y-82845941D01*
X130503580Y-82925130D01*
X130648052Y-82953867D01*
X130691714Y-82962552D01*
X130703559Y-82964908D01*
X130705794Y-82965409D01*
X130706532Y-82965500D01*
X130913466Y-82965500D01*
X130917586Y-82965500D01*
X130925435Y-82963118D01*
X131116420Y-82925130D01*
X131307598Y-82845941D01*
X131479655Y-82730977D01*
X131492183Y-82718449D01*
X131558416Y-82652216D01*
X131558420Y-82652214D01*
X131586659Y-82631073D01*
X131596591Y-82625650D01*
X131614013Y-82621859D01*
X131619738Y-82618734D01*
X131626241Y-82619199D01*
X131664860Y-82610797D01*
X131730325Y-82635211D01*
X131772199Y-82691143D01*
X131772201Y-82691147D01*
X131774882Y-82698335D01*
X131782700Y-82741669D01*
X131782700Y-83670500D01*
X131763015Y-83737539D01*
X131710211Y-83783294D01*
X131658700Y-83794500D01*
X126123992Y-83794500D01*
X126080313Y-83799197D01*
X126028825Y-83810397D01*
X126018627Y-83812890D01*
X126018624Y-83812891D01*
X125937916Y-83855899D01*
X125937913Y-83855901D01*
X125885104Y-83901660D01*
X125867160Y-83919242D01*
X125867154Y-83919249D01*
X125822511Y-83999059D01*
X125822509Y-83999064D01*
X125802826Y-84066096D01*
X125802825Y-84066101D01*
X125802825Y-84066102D01*
X125796272Y-84111681D01*
X125794500Y-84124003D01*
X125794500Y-88874114D01*
X125774815Y-88941153D01*
X125722011Y-88986908D01*
X125652853Y-88996852D01*
X125646309Y-88995731D01*
X125498347Y-88966300D01*
X125498343Y-88966300D01*
X125498341Y-88966300D01*
X125301259Y-88966300D01*
X125301257Y-88966300D01*
X125301253Y-88966300D01*
X125107976Y-89004745D01*
X125107970Y-89004747D01*
X125107960Y-89004750D01*
X125107955Y-89004751D01*
X125107937Y-89004758D01*
X124925898Y-89080160D01*
X124925889Y-89080165D01*
X124925872Y-89080175D01*
X124762015Y-89189661D01*
X124762014Y-89189662D01*
X124762008Y-89189667D01*
X124622667Y-89329008D01*
X124622662Y-89329014D01*
X124622661Y-89329015D01*
X124513171Y-89492877D01*
X124511798Y-89495473D01*
X124511664Y-89495402D01*
X124511547Y-89495600D01*
X124511476Y-89495557D01*
X124497581Y-89517761D01*
X124488395Y-89529159D01*
X124431000Y-89569004D01*
X124361894Y-89571676D01*
X124348822Y-89568422D01*
X124316775Y-89555481D01*
X124235525Y-89508571D01*
X124228993Y-89503558D01*
X124213780Y-89497257D01*
X124205618Y-89496183D01*
X124193280Y-89492877D01*
X124094092Y-89466300D01*
X124094091Y-89466300D01*
X123962308Y-89466300D01*
X123835008Y-89500409D01*
X123835006Y-89500410D01*
X123720896Y-89566293D01*
X123720882Y-89566302D01*
X123720877Y-89566306D01*
X123627706Y-89659477D01*
X123627702Y-89659482D01*
X123627693Y-89659496D01*
X123561810Y-89773606D01*
X123561809Y-89773609D01*
X123535400Y-89872167D01*
X123535400Y-89872170D01*
X123527700Y-89900908D01*
X123527700Y-89900911D01*
X123527700Y-90032692D01*
X123533903Y-90055845D01*
X123533905Y-90055850D01*
X123535283Y-90060991D01*
X123561808Y-90159987D01*
X123582718Y-90196203D01*
X123627700Y-90274114D01*
X123720886Y-90367300D01*
X123720887Y-90367301D01*
X123720889Y-90367302D01*
X123769494Y-90395364D01*
X123819721Y-90424363D01*
X123835010Y-90433190D01*
X123835014Y-90433192D01*
X123962308Y-90467300D01*
X123962310Y-90467300D01*
X124094090Y-90467300D01*
X124094092Y-90467300D01*
X124221386Y-90433192D01*
X124316454Y-90378303D01*
X124349214Y-90365188D01*
X124362942Y-90361858D01*
X124432733Y-90365182D01*
X124489186Y-90405127D01*
X124497797Y-90415944D01*
X124512116Y-90438573D01*
X124513159Y-90440701D01*
X124513167Y-90440713D01*
X124513171Y-90440720D01*
X124562998Y-90515291D01*
X124622661Y-90604583D01*
X124622662Y-90604584D01*
X124622667Y-90604590D01*
X124762008Y-90743931D01*
X124762014Y-90743936D01*
X124762018Y-90743939D01*
X124925879Y-90853428D01*
X124925892Y-90853435D01*
X125093376Y-90922808D01*
X125101115Y-90926013D01*
X125102366Y-90926532D01*
X125102369Y-90926534D01*
X125106761Y-90928612D01*
X125301253Y-90967300D01*
X125498343Y-90967300D01*
X125498344Y-90967300D01*
X125520437Y-90962905D01*
X125628382Y-90941432D01*
X125646314Y-90937865D01*
X125683441Y-90941188D01*
X125715895Y-90944091D01*
X125715898Y-90944093D01*
X125715902Y-90944094D01*
X125740117Y-90962905D01*
X125771074Y-90986951D01*
X125771075Y-90986955D01*
X125771079Y-90986958D01*
X125780670Y-91014148D01*
X125794322Y-91052840D01*
X125794500Y-91059483D01*
X125794500Y-92708752D01*
X125774815Y-92775791D01*
X125722011Y-92821546D01*
X125652853Y-92831490D01*
X125589297Y-92802465D01*
X125572129Y-92784245D01*
X125571700Y-92783686D01*
X125478516Y-92690502D01*
X125478514Y-92690500D01*
X125421450Y-92657554D01*
X125364387Y-92624608D01*
X125274659Y-92600566D01*
X125274659Y-92600565D01*
X125237093Y-92590500D01*
X125237092Y-92590500D01*
X125105308Y-92590500D01*
X124978008Y-92624609D01*
X124978006Y-92624610D01*
X124863896Y-92690493D01*
X124863882Y-92690502D01*
X124863877Y-92690506D01*
X124770706Y-92783677D01*
X124770702Y-92783682D01*
X124770693Y-92783696D01*
X124704807Y-92897810D01*
X124704807Y-92897811D01*
X124681782Y-92983748D01*
X124670700Y-93025106D01*
X124670700Y-93025108D01*
X124670700Y-93156892D01*
X124673137Y-93165987D01*
X124674285Y-93170269D01*
X124674286Y-93170274D01*
X124704808Y-93284188D01*
X124710363Y-93293809D01*
X124720000Y-93310500D01*
X124770700Y-93398314D01*
X124863886Y-93491500D01*
X124978014Y-93557392D01*
X125105308Y-93591500D01*
X125105310Y-93591500D01*
X125237090Y-93591500D01*
X125237092Y-93591500D01*
X125364386Y-93557392D01*
X125478514Y-93491500D01*
X125571700Y-93398314D01*
X125571703Y-93398307D01*
X125572124Y-93397761D01*
X125572602Y-93397411D01*
X125577447Y-93392567D01*
X125578202Y-93393322D01*
X125628551Y-93356558D01*
X125698297Y-93352403D01*
X125759218Y-93386615D01*
X125791971Y-93448332D01*
X125794500Y-93473247D01*
X125794500Y-95332579D01*
X125774815Y-95399618D01*
X125722011Y-95445373D01*
X125652853Y-95455317D01*
X125608499Y-95439966D01*
X125567910Y-95416531D01*
X125504261Y-95399477D01*
X125440614Y-95382423D01*
X125440613Y-95382423D01*
X125308830Y-95382423D01*
X125181530Y-95416532D01*
X125181528Y-95416533D01*
X125067418Y-95482416D01*
X125067404Y-95482425D01*
X125067399Y-95482429D01*
X124974228Y-95575600D01*
X124974224Y-95575605D01*
X124974215Y-95575619D01*
X124908332Y-95689729D01*
X124908331Y-95689730D01*
X124907773Y-95691812D01*
X124897081Y-95731718D01*
X124897081Y-95731719D01*
X124897080Y-95731718D01*
X124874222Y-95817029D01*
X124874222Y-95948816D01*
X124905649Y-96066107D01*
X124905656Y-96066133D01*
X124906053Y-96067616D01*
X124909561Y-96086427D01*
X124911693Y-96106264D01*
X124912071Y-96109774D01*
X124899665Y-96178534D01*
X124899661Y-96178540D01*
X124896931Y-96183993D01*
X124863313Y-96225470D01*
X124863195Y-96225564D01*
X124847935Y-96235962D01*
X124829691Y-96246495D01*
X124829687Y-96246498D01*
X124736502Y-96339682D01*
X124736501Y-96339684D01*
X124670610Y-96453806D01*
X124670609Y-96453808D01*
X124670608Y-96453812D01*
X124636500Y-96581108D01*
X124636500Y-96712891D01*
X124651777Y-96769906D01*
X124670608Y-96840188D01*
X124673486Y-96845172D01*
X124677840Y-96852713D01*
X124736500Y-96954314D01*
X124829686Y-97047500D01*
X124943814Y-97113392D01*
X125071108Y-97147500D01*
X125071110Y-97147500D01*
X125202890Y-97147500D01*
X125202892Y-97147500D01*
X125330186Y-97113392D01*
X125444314Y-97047500D01*
X125537500Y-96954314D01*
X125572676Y-96893386D01*
X125623243Y-96845172D01*
X125691850Y-96831948D01*
X125756715Y-96857916D01*
X125797243Y-96914830D01*
X125801229Y-96929027D01*
X125810401Y-96971189D01*
X125812890Y-96981372D01*
X125812891Y-96981375D01*
X125855899Y-97062083D01*
X125855901Y-97062086D01*
X125901660Y-97114895D01*
X125907853Y-97121215D01*
X125919246Y-97132843D01*
X125919247Y-97132844D01*
X125919249Y-97132845D01*
X125962498Y-97157037D01*
X125999063Y-97177490D01*
X126066102Y-97197175D01*
X126124000Y-97205500D01*
X129561206Y-97205500D01*
X129585192Y-97212543D01*
X129610016Y-97215511D01*
X129618138Y-97222217D01*
X129628245Y-97225185D01*
X129644614Y-97244076D01*
X129663895Y-97259995D01*
X129667102Y-97270029D01*
X129674000Y-97277989D01*
X129677557Y-97302731D01*
X129685171Y-97326546D01*
X129683269Y-97342455D01*
X129683944Y-97347147D01*
X129680982Y-97361591D01*
X129679208Y-97368211D01*
X129679208Y-97368212D01*
X129666270Y-97416500D01*
X129645100Y-97495508D01*
X129645100Y-97627292D01*
X129656678Y-97670502D01*
X129662154Y-97690939D01*
X129679208Y-97754588D01*
X129683639Y-97762262D01*
X129688392Y-97770493D01*
X129688394Y-97770500D01*
X129688396Y-97770500D01*
X129745100Y-97868714D01*
X129838286Y-97961900D01*
X129952414Y-98027792D01*
X130079708Y-98061900D01*
X130079710Y-98061900D01*
X130211490Y-98061900D01*
X130211492Y-98061900D01*
X130338786Y-98027792D01*
X130452914Y-97961900D01*
X130546100Y-97868714D01*
X130611992Y-97754586D01*
X130646100Y-97627292D01*
X130646100Y-97495508D01*
X130611992Y-97368214D01*
X130610218Y-97361593D01*
X130611881Y-97291743D01*
X130651044Y-97233881D01*
X130715272Y-97206377D01*
X130729993Y-97205500D01*
X131658700Y-97205500D01*
X131725739Y-97225185D01*
X131771494Y-97277989D01*
X131782700Y-97329500D01*
X131782700Y-98661675D01*
X131782699Y-98661677D01*
X131782700Y-98661678D01*
X131778456Y-98691186D01*
X131777676Y-98696613D01*
X131774489Y-98707466D01*
X131736714Y-98766243D01*
X131673157Y-98795266D01*
X131604007Y-98785325D01*
X131597029Y-98782138D01*
X131560859Y-98757026D01*
X131479657Y-98675824D01*
X131479656Y-98675823D01*
X131479655Y-98675822D01*
X131311655Y-98563569D01*
X131311655Y-98563570D01*
X131307598Y-98560859D01*
X131307597Y-98560858D01*
X131231169Y-98529201D01*
X131218820Y-98524086D01*
X131116420Y-98481670D01*
X131116412Y-98481668D01*
X131116404Y-98481666D01*
X131116394Y-98481664D01*
X130913471Y-98441300D01*
X130913469Y-98441300D01*
X130913465Y-98441300D01*
X130706535Y-98441300D01*
X130706530Y-98441300D01*
X130706528Y-98441300D01*
X130503604Y-98481664D01*
X130503579Y-98481670D01*
X130312404Y-98560857D01*
X130140337Y-98675827D01*
X129994027Y-98822137D01*
X129879057Y-98994204D01*
X129799870Y-99185379D01*
X129799864Y-99185404D01*
X129759500Y-99388327D01*
X129759500Y-99388330D01*
X129759500Y-99595269D01*
X129759500Y-99595271D01*
X129759499Y-99595271D01*
X129799290Y-99795308D01*
X129799868Y-99798212D01*
X129799870Y-99798220D01*
X129871226Y-99970487D01*
X129874925Y-99979418D01*
X129879058Y-99989396D01*
X129879060Y-99989399D01*
X129892835Y-100010016D01*
X129994025Y-100161459D01*
X130140336Y-100307770D01*
X130140340Y-100307773D01*
X130140342Y-100307775D01*
X130140345Y-100307777D01*
X130140349Y-100307780D01*
X130140348Y-100307780D01*
X130140411Y-100307832D01*
X130140448Y-100307846D01*
X130312402Y-100422741D01*
X130503580Y-100501930D01*
X130592841Y-100519685D01*
X130593396Y-100519795D01*
X130626668Y-100531532D01*
X130632083Y-100534364D01*
X130644916Y-100546745D01*
X130655305Y-100552180D01*
X130661103Y-100562363D01*
X130682364Y-100582875D01*
X130689162Y-100611636D01*
X130689880Y-100612896D01*
X130689802Y-100614342D01*
X130698437Y-100650871D01*
X130675196Y-100716762D01*
X130620022Y-100759629D01*
X130620009Y-100759634D01*
X130618372Y-100760278D01*
X130572947Y-100768886D01*
X128513645Y-100768390D01*
X128497163Y-100763731D01*
X128481191Y-100764060D01*
X128478707Y-100763357D01*
X128472845Y-100761634D01*
X128459594Y-100753113D01*
X128448792Y-100750060D01*
X128444424Y-100747378D01*
X128435764Y-100737789D01*
X128414078Y-100723844D01*
X128404791Y-100703494D01*
X128397594Y-100695525D01*
X128395581Y-100683313D01*
X128385070Y-100660280D01*
X128388202Y-100638536D01*
X128386233Y-100626586D01*
X128391770Y-100613770D01*
X128395033Y-100591124D01*
X128408035Y-100576126D01*
X128413946Y-100562447D01*
X128428202Y-100552865D01*
X128440798Y-100538336D01*
X128442324Y-100537356D01*
X128464732Y-100528315D01*
X128471936Y-100523474D01*
X128476987Y-100523370D01*
X128485115Y-100520090D01*
X128576420Y-100501930D01*
X128767598Y-100422741D01*
X128939655Y-100307777D01*
X129085977Y-100161455D01*
X129200941Y-99989398D01*
X129280130Y-99798220D01*
X129320500Y-99595265D01*
X129320500Y-99388335D01*
X129280130Y-99185380D01*
X129200941Y-98994202D01*
X129086046Y-98822249D01*
X129086036Y-98822217D01*
X129085980Y-98822148D01*
X129085980Y-98822149D01*
X129085977Y-98822145D01*
X129085975Y-98822142D01*
X129085972Y-98822139D01*
X129085970Y-98822136D01*
X128939662Y-98675828D01*
X128939655Y-98675822D01*
X128771655Y-98563569D01*
X128771655Y-98563570D01*
X128767598Y-98560859D01*
X128767597Y-98560858D01*
X128691169Y-98529201D01*
X128678820Y-98524086D01*
X128576420Y-98481670D01*
X128576412Y-98481668D01*
X128576404Y-98481666D01*
X128576394Y-98481664D01*
X128373471Y-98441300D01*
X128373469Y-98441300D01*
X128373465Y-98441300D01*
X128166535Y-98441300D01*
X128166530Y-98441300D01*
X128166528Y-98441300D01*
X127963604Y-98481664D01*
X127963579Y-98481670D01*
X127772404Y-98560857D01*
X127600337Y-98675827D01*
X127454027Y-98822137D01*
X127339057Y-98994204D01*
X127259870Y-99185379D01*
X127259864Y-99185404D01*
X127219500Y-99388327D01*
X127219500Y-99388330D01*
X127219500Y-99595269D01*
X127219500Y-99595271D01*
X127219499Y-99595271D01*
X127259290Y-99795308D01*
X127259868Y-99798212D01*
X127259870Y-99798220D01*
X127331226Y-99970487D01*
X127334925Y-99979418D01*
X127339058Y-99989396D01*
X127339060Y-99989399D01*
X127352835Y-100010016D01*
X127454025Y-100161459D01*
X127600336Y-100307770D01*
X127600340Y-100307773D01*
X127600342Y-100307775D01*
X127600345Y-100307777D01*
X127600349Y-100307780D01*
X127600348Y-100307780D01*
X127600411Y-100307832D01*
X127600448Y-100307846D01*
X127772402Y-100422741D01*
X127963580Y-100501930D01*
X128024221Y-100513992D01*
X128050314Y-100519182D01*
X128050316Y-100519183D01*
X128050318Y-100519184D01*
X128083585Y-100530919D01*
X128089000Y-100533751D01*
X128101834Y-100546134D01*
X128112226Y-100551570D01*
X128118024Y-100561753D01*
X128139281Y-100582262D01*
X128146080Y-100611028D01*
X128146798Y-100612288D01*
X128146720Y-100613734D01*
X128155354Y-100650258D01*
X128132113Y-100716149D01*
X128076939Y-100759016D01*
X128076926Y-100759021D01*
X128075289Y-100759665D01*
X128029864Y-100768273D01*
X125976721Y-100767778D01*
X125960242Y-100763121D01*
X125944279Y-100763451D01*
X125941783Y-100762745D01*
X125935921Y-100761022D01*
X125922679Y-100752506D01*
X125911879Y-100749455D01*
X125907510Y-100746773D01*
X125898844Y-100737180D01*
X125877154Y-100723232D01*
X125867871Y-100702891D01*
X125860675Y-100694925D01*
X125858660Y-100682707D01*
X125848146Y-100659668D01*
X125851276Y-100637936D01*
X125849306Y-100625986D01*
X125854846Y-100613160D01*
X125858109Y-100590512D01*
X125871105Y-100575521D01*
X125877013Y-100561845D01*
X125891272Y-100552259D01*
X125903871Y-100537726D01*
X125905372Y-100536762D01*
X125927780Y-100527717D01*
X125934999Y-100522865D01*
X125940060Y-100522760D01*
X125948187Y-100519479D01*
X126036420Y-100501930D01*
X126227598Y-100422741D01*
X126399655Y-100307777D01*
X126545977Y-100161455D01*
X126660941Y-99989398D01*
X126740130Y-99798220D01*
X126780500Y-99595265D01*
X126780500Y-99388335D01*
X126769860Y-99334847D01*
X126767971Y-99299615D01*
X126769842Y-99278707D01*
X126789633Y-99221798D01*
X126793316Y-99216177D01*
X126809342Y-99196471D01*
X126867100Y-99138714D01*
X126932992Y-99024586D01*
X126967100Y-98897292D01*
X126967100Y-98765508D01*
X126932992Y-98638214D01*
X126932517Y-98637392D01*
X126920364Y-98616342D01*
X126897312Y-98576414D01*
X126897311Y-98576414D01*
X126867100Y-98524086D01*
X126773914Y-98430900D01*
X126691628Y-98383392D01*
X126691628Y-98383391D01*
X126691626Y-98383391D01*
X126659787Y-98365008D01*
X126596139Y-98347954D01*
X126532492Y-98330900D01*
X126532491Y-98330900D01*
X126400708Y-98330900D01*
X126289178Y-98360784D01*
X126289173Y-98360785D01*
X126275209Y-98364526D01*
X126273499Y-98364956D01*
X126159282Y-98430900D01*
X126159278Y-98430903D01*
X126156023Y-98434159D01*
X126156021Y-98434162D01*
X126127766Y-98455312D01*
X126109354Y-98465365D01*
X126051037Y-98480526D01*
X126044319Y-98480586D01*
X126019021Y-98478208D01*
X125833473Y-98441300D01*
X125833469Y-98441300D01*
X125833465Y-98441300D01*
X125626535Y-98441300D01*
X125626530Y-98441300D01*
X125626528Y-98441300D01*
X125423604Y-98481664D01*
X125423579Y-98481670D01*
X125232404Y-98560857D01*
X125060337Y-98675827D01*
X124914027Y-98822137D01*
X124799057Y-98994204D01*
X124719870Y-99185379D01*
X124719864Y-99185404D01*
X124679500Y-99388327D01*
X124679500Y-99388330D01*
X124679500Y-99595269D01*
X124679500Y-99595271D01*
X124679499Y-99595271D01*
X124719290Y-99795308D01*
X124719868Y-99798212D01*
X124719870Y-99798220D01*
X124791226Y-99970487D01*
X124794925Y-99979418D01*
X124799058Y-99989396D01*
X124799060Y-99989399D01*
X124812835Y-100010016D01*
X124914025Y-100161459D01*
X125060336Y-100307770D01*
X125060340Y-100307773D01*
X125060342Y-100307775D01*
X125060345Y-100307777D01*
X125060349Y-100307780D01*
X125060348Y-100307780D01*
X125060411Y-100307832D01*
X125060448Y-100307846D01*
X125232402Y-100422741D01*
X125423580Y-100501930D01*
X125478825Y-100512918D01*
X125478827Y-100512918D01*
X125478829Y-100512919D01*
X125507231Y-100518569D01*
X125540503Y-100530306D01*
X125545918Y-100533138D01*
X125558751Y-100545519D01*
X125569142Y-100550955D01*
X125574941Y-100561139D01*
X125596199Y-100581649D01*
X125602998Y-100610411D01*
X125603715Y-100611671D01*
X125603637Y-100613117D01*
X125612272Y-100649645D01*
X125589031Y-100715536D01*
X125533857Y-100758403D01*
X125533844Y-100758408D01*
X125532207Y-100759052D01*
X125486782Y-100767660D01*
X123439796Y-100767167D01*
X123423314Y-100762508D01*
X123407342Y-100762837D01*
X123404858Y-100762134D01*
X123398996Y-100760411D01*
X123385745Y-100751890D01*
X123374943Y-100748837D01*
X123370575Y-100746155D01*
X123361915Y-100736566D01*
X123340229Y-100722621D01*
X123330942Y-100702271D01*
X123323745Y-100694302D01*
X123321732Y-100682090D01*
X123311221Y-100659057D01*
X123314353Y-100637313D01*
X123312384Y-100625363D01*
X123317921Y-100612547D01*
X123321184Y-100589901D01*
X123334186Y-100574903D01*
X123340097Y-100561224D01*
X123354353Y-100551642D01*
X123366949Y-100537113D01*
X123368475Y-100536133D01*
X123390885Y-100527090D01*
X123398087Y-100522251D01*
X123403136Y-100522147D01*
X123411259Y-100518869D01*
X123436567Y-100513835D01*
X123496420Y-100501930D01*
X123687598Y-100422741D01*
X123859655Y-100307777D01*
X124005977Y-100161455D01*
X124120941Y-99989398D01*
X124200130Y-99798220D01*
X124240500Y-99595265D01*
X124240500Y-99388335D01*
X124200130Y-99185380D01*
X124120941Y-98994202D01*
X124006046Y-98822249D01*
X124006036Y-98822217D01*
X124005980Y-98822148D01*
X124005980Y-98822149D01*
X124005977Y-98822145D01*
X124005975Y-98822142D01*
X124005972Y-98822139D01*
X124005970Y-98822136D01*
X123859663Y-98675829D01*
X123859660Y-98675827D01*
X123859658Y-98675825D01*
X123859654Y-98675822D01*
X123805938Y-98639930D01*
X123805936Y-98639928D01*
X123805935Y-98639928D01*
X123779683Y-98616345D01*
X123772427Y-98607663D01*
X123744545Y-98543601D01*
X123755724Y-98474631D01*
X123802405Y-98422661D01*
X123807071Y-98419778D01*
X123811714Y-98416909D01*
X123844788Y-98402629D01*
X123916586Y-98383392D01*
X124030714Y-98317500D01*
X124123900Y-98224314D01*
X124189792Y-98110186D01*
X124223900Y-97982892D01*
X124223900Y-97851108D01*
X124189792Y-97723814D01*
X124189787Y-97723806D01*
X124180963Y-97708521D01*
X124123900Y-97609686D01*
X124030714Y-97516500D01*
X123973650Y-97483554D01*
X123916587Y-97450608D01*
X123852939Y-97433554D01*
X123789292Y-97416500D01*
X123789291Y-97416500D01*
X123657508Y-97416500D01*
X123530208Y-97450609D01*
X123530206Y-97450610D01*
X123416096Y-97516493D01*
X123416082Y-97516502D01*
X123416077Y-97516506D01*
X123322906Y-97609677D01*
X123322902Y-97609682D01*
X123322893Y-97609696D01*
X123257010Y-97723806D01*
X123257009Y-97723808D01*
X123257008Y-97723812D01*
X123222900Y-97851108D01*
X123222900Y-97982891D01*
X123234931Y-98027791D01*
X123257008Y-98110188D01*
X123275260Y-98141800D01*
X123322899Y-98224313D01*
X123322902Y-98224317D01*
X123325399Y-98227571D01*
X123335855Y-98243630D01*
X123342168Y-98255191D01*
X123357021Y-98323463D01*
X123332605Y-98388928D01*
X123276672Y-98430800D01*
X123276671Y-98430801D01*
X123269483Y-98433482D01*
X123226149Y-98441300D01*
X123086528Y-98441300D01*
X122883604Y-98481664D01*
X122883579Y-98481670D01*
X122692404Y-98560857D01*
X122520337Y-98675827D01*
X122374026Y-98822138D01*
X122374021Y-98822145D01*
X122259063Y-98994192D01*
X122259055Y-98994206D01*
X122197657Y-99142437D01*
X122187404Y-99159717D01*
X122179649Y-99172788D01*
X122172553Y-99181594D01*
X122115162Y-99221444D01*
X122045337Y-99223939D01*
X121985248Y-99188288D01*
X121983579Y-99186496D01*
X121981831Y-99184618D01*
X121954664Y-99138451D01*
X121901095Y-98973582D01*
X121804624Y-98784249D01*
X121765270Y-98730082D01*
X121765269Y-98730082D01*
X121765268Y-98730082D01*
X121259702Y-99235649D01*
X121198379Y-99269134D01*
X121128687Y-99264150D01*
X121072754Y-99222278D01*
X121064634Y-99209969D01*
X121062053Y-99205498D01*
X121050099Y-99184793D01*
X120957007Y-99091701D01*
X120957004Y-99091699D01*
X120957000Y-99091696D01*
X120931828Y-99077163D01*
X120883613Y-99026596D01*
X120870391Y-98957989D01*
X120896359Y-98893124D01*
X120906141Y-98882103D01*
X121411716Y-98376528D01*
X121395196Y-98364526D01*
X121357550Y-98337175D01*
X121357548Y-98337174D01*
X121168214Y-98240702D01*
X120966130Y-98175042D01*
X120756251Y-98141800D01*
X120756246Y-98141800D01*
X120543754Y-98141800D01*
X120543749Y-98141800D01*
X120343513Y-98173515D01*
X120343505Y-98173515D01*
X120343506Y-98173516D01*
X120333865Y-98175042D01*
X120131773Y-98240707D01*
X120051278Y-98281721D01*
X120017875Y-98293105D01*
X120004235Y-98295667D01*
X119934714Y-98288696D01*
X119879999Y-98245248D01*
X119878054Y-98242488D01*
X119857087Y-98191323D01*
X119856765Y-98189378D01*
X119855100Y-98169125D01*
X119855100Y-98105110D01*
X119855100Y-98105108D01*
X119820992Y-97977814D01*
X119755100Y-97863686D01*
X119661914Y-97770500D01*
X119581052Y-97723814D01*
X119547787Y-97704608D01*
X119484139Y-97687554D01*
X119420492Y-97670500D01*
X119420491Y-97670500D01*
X119288708Y-97670500D01*
X119161408Y-97704609D01*
X119161406Y-97704610D01*
X119047299Y-97770492D01*
X119047282Y-97770502D01*
X119047277Y-97770506D01*
X118954106Y-97863677D01*
X118954102Y-97863682D01*
X118954093Y-97863696D01*
X118888207Y-97977810D01*
X118888207Y-97977811D01*
X118865678Y-98061897D01*
X118854100Y-98105106D01*
X118854100Y-98236893D01*
X118868280Y-98289816D01*
X118868281Y-98289816D01*
X118887296Y-98360785D01*
X118888209Y-98364189D01*
X118899296Y-98383392D01*
X118913013Y-98407150D01*
X118954100Y-98478314D01*
X119047286Y-98571500D01*
X119161414Y-98637392D01*
X119288708Y-98671500D01*
X119288710Y-98671500D01*
X119332644Y-98671500D01*
X119367576Y-98676521D01*
X119380895Y-98680432D01*
X119439673Y-98718206D01*
X119468699Y-98781761D01*
X119468699Y-98781765D01*
X119469174Y-98785069D01*
X119464637Y-98840189D01*
X119464040Y-98842072D01*
X119456324Y-98860889D01*
X119398905Y-98973581D01*
X119392203Y-98994208D01*
X119347165Y-99132817D01*
X119333939Y-99159717D01*
X119331595Y-99164485D01*
X119325211Y-99173822D01*
X119271123Y-99218053D01*
X119201710Y-99226020D01*
X119139009Y-99195195D01*
X119135317Y-99191806D01*
X119104609Y-99147910D01*
X119096714Y-99128850D01*
X119081327Y-99091701D01*
X119040943Y-98994205D01*
X118925975Y-98822142D01*
X118925973Y-98822139D01*
X118779662Y-98675828D01*
X118779655Y-98675822D01*
X118611655Y-98563569D01*
X118611655Y-98563570D01*
X118607598Y-98560859D01*
X118607597Y-98560858D01*
X118531169Y-98529201D01*
X118518820Y-98524086D01*
X118416420Y-98481670D01*
X118416412Y-98481668D01*
X118416404Y-98481666D01*
X118416394Y-98481664D01*
X118213471Y-98441300D01*
X118213469Y-98441300D01*
X118213465Y-98441300D01*
X118006535Y-98441300D01*
X118006530Y-98441300D01*
X118006528Y-98441300D01*
X117803604Y-98481664D01*
X117803579Y-98481670D01*
X117612404Y-98560857D01*
X117440337Y-98675827D01*
X117294027Y-98822137D01*
X117179057Y-98994204D01*
X117099870Y-99185379D01*
X117099864Y-99185404D01*
X117059500Y-99388327D01*
X117059500Y-99388330D01*
X117059500Y-99595269D01*
X117059500Y-99595271D01*
X117059499Y-99595271D01*
X117099290Y-99795308D01*
X117099868Y-99798212D01*
X117099870Y-99798220D01*
X117171226Y-99970487D01*
X117174925Y-99979418D01*
X117179058Y-99989396D01*
X117179060Y-99989399D01*
X117192835Y-100010016D01*
X117294025Y-100161459D01*
X117440336Y-100307770D01*
X117440340Y-100307773D01*
X117440342Y-100307775D01*
X117440345Y-100307777D01*
X117440349Y-100307780D01*
X117440348Y-100307780D01*
X117440411Y-100307832D01*
X117440448Y-100307846D01*
X117612402Y-100422741D01*
X117803580Y-100501930D01*
X117877982Y-100516729D01*
X117893154Y-100524438D01*
X117908651Y-100527142D01*
X117911264Y-100528470D01*
X117916676Y-100531301D01*
X117927817Y-100542052D01*
X117937758Y-100547103D01*
X117941534Y-100550578D01*
X117948276Y-100561793D01*
X117966955Y-100579817D01*
X117972034Y-100601310D01*
X117977534Y-100610459D01*
X117977158Y-100622997D01*
X117983023Y-100647814D01*
X117975803Y-100668277D01*
X117975444Y-100680298D01*
X117967450Y-100691953D01*
X117959778Y-100713703D01*
X117944277Y-100725746D01*
X117935929Y-100737920D01*
X117919950Y-100744647D01*
X117904620Y-100756558D01*
X117902984Y-100757202D01*
X117879594Y-100761637D01*
X117871533Y-100765031D01*
X117866409Y-100764137D01*
X117857535Y-100765820D01*
X116572466Y-100765511D01*
X116537538Y-100760481D01*
X116528904Y-100757944D01*
X116470133Y-100720158D01*
X116441121Y-100656597D01*
X116451078Y-100587441D01*
X116491356Y-100538382D01*
X116527286Y-100512483D01*
X116533995Y-100506769D01*
X116564552Y-100486352D01*
X116607056Y-100422741D01*
X116608867Y-100420031D01*
X116608867Y-100420029D01*
X116608868Y-100420029D01*
X116611030Y-100409156D01*
X116611166Y-100408891D01*
X116611249Y-100408056D01*
X116619937Y-100364379D01*
X116620072Y-100363696D01*
X116620500Y-100361731D01*
X116620500Y-98624095D01*
X116620500Y-98622049D01*
X116620499Y-98622047D01*
X116608868Y-98563570D01*
X116608867Y-98563569D01*
X116564552Y-98497247D01*
X116528146Y-98472921D01*
X116508385Y-98459717D01*
X116503641Y-98455824D01*
X116498230Y-98452932D01*
X116498229Y-98452931D01*
X116439752Y-98441300D01*
X116439750Y-98441300D01*
X114700249Y-98441300D01*
X114700247Y-98441300D01*
X114641770Y-98452931D01*
X114641769Y-98452931D01*
X114641768Y-98452932D01*
X114641765Y-98452933D01*
X114641759Y-98452938D01*
X114575447Y-98497247D01*
X114531138Y-98563559D01*
X114531133Y-98563565D01*
X114531132Y-98563568D01*
X114531132Y-98563569D01*
X114531131Y-98563570D01*
X114519500Y-98622047D01*
X114519500Y-100361552D01*
X114531131Y-100420029D01*
X114531132Y-100420030D01*
X114531786Y-100421254D01*
X114532365Y-100421876D01*
X114575447Y-100486352D01*
X114620356Y-100516359D01*
X114624159Y-100520443D01*
X114649592Y-100540938D01*
X114649592Y-100540939D01*
X114652520Y-100543299D01*
X114692368Y-100600690D01*
X114694862Y-100670515D01*
X114659210Y-100730604D01*
X114603215Y-100760530D01*
X114598227Y-100761708D01*
X114569696Y-100765028D01*
X114148303Y-100764926D01*
X114113370Y-100759895D01*
X114100052Y-100755981D01*
X114041283Y-100718192D01*
X114012274Y-100654631D01*
X114011797Y-100651308D01*
X114016336Y-100596232D01*
X114016930Y-100594361D01*
X114024639Y-100575558D01*
X114132241Y-100364379D01*
X114210090Y-100124785D01*
X114249500Y-99875962D01*
X114249500Y-99624038D01*
X114210090Y-99375215D01*
X114210089Y-99375211D01*
X114210089Y-99375210D01*
X114134853Y-99143659D01*
X114134851Y-99143654D01*
X114132241Y-99135621D01*
X114132239Y-99135618D01*
X114132239Y-99135616D01*
X114129999Y-99131220D01*
X114129689Y-99130425D01*
X114128956Y-99129173D01*
X114109379Y-99090752D01*
X114090747Y-99054183D01*
X114090747Y-99054184D01*
X114017870Y-98911155D01*
X113953201Y-98822145D01*
X113869798Y-98707350D01*
X113869794Y-98707345D01*
X113869791Y-98707342D01*
X113869788Y-98707338D01*
X113691660Y-98529210D01*
X113691655Y-98529206D01*
X113691654Y-98529205D01*
X113691649Y-98529201D01*
X113596012Y-98459717D01*
X113498445Y-98388831D01*
X113498443Y-98388830D01*
X113487848Y-98381132D01*
X113487847Y-98381131D01*
X113487845Y-98381130D01*
X113417747Y-98345413D01*
X113263383Y-98266760D01*
X113263379Y-98266759D01*
X113263376Y-98266757D01*
X113263042Y-98266619D01*
X113262934Y-98266532D01*
X113259042Y-98264549D01*
X113259458Y-98263731D01*
X113208638Y-98222779D01*
X113186573Y-98156485D01*
X113191518Y-98117120D01*
X113195045Y-98105108D01*
X113197175Y-98097854D01*
X113205500Y-98039956D01*
X113205500Y-95105053D01*
X113205179Y-95097362D01*
X113205138Y-95096358D01*
X113222013Y-95028557D01*
X113267031Y-94983807D01*
X113273984Y-94979792D01*
X113273986Y-94979792D01*
X113388114Y-94913900D01*
X113481300Y-94820714D01*
X113547192Y-94706586D01*
X113581300Y-94579292D01*
X113581300Y-94447508D01*
X113547192Y-94320214D01*
X113481300Y-94206086D01*
X113388114Y-94112900D01*
X113309505Y-94067515D01*
X113273987Y-94047008D01*
X113273920Y-94046990D01*
X113266843Y-94042908D01*
X113248082Y-94023248D01*
X113226926Y-94006192D01*
X113224316Y-93998344D01*
X113218606Y-93992361D01*
X113213452Y-93965679D01*
X113204876Y-93939893D01*
X113205613Y-93926191D01*
X113205184Y-93926161D01*
X113205355Y-93923762D01*
X113205355Y-93923757D01*
X113205500Y-93921743D01*
X113205500Y-93807303D01*
X113225185Y-93740264D01*
X113277989Y-93694509D01*
X113347147Y-93684565D01*
X113410703Y-93713590D01*
X113436887Y-93745304D01*
X113441255Y-93752869D01*
X113534441Y-93846055D01*
X113592562Y-93879611D01*
X113644680Y-93909702D01*
X113644683Y-93909704D01*
X113648565Y-93911945D01*
X113648567Y-93911945D01*
X113648569Y-93911947D01*
X113648570Y-93911947D01*
X113648572Y-93911948D01*
X113673194Y-93918545D01*
X113762463Y-93942464D01*
X113762464Y-93942465D01*
X113762465Y-93942465D01*
X113762470Y-93942466D01*
X113794907Y-93956358D01*
X113805900Y-93963058D01*
X113808256Y-93964495D01*
X113855244Y-94016181D01*
X113859118Y-94024154D01*
X113871587Y-94078346D01*
X113871587Y-94138692D01*
X113877484Y-94160700D01*
X113904278Y-94260700D01*
X113905696Y-94265989D01*
X113905696Y-94265990D01*
X113937001Y-94320212D01*
X113971582Y-94380107D01*
X113971585Y-94380111D01*
X113971587Y-94380114D01*
X114064773Y-94473300D01*
X114064774Y-94473301D01*
X114064776Y-94473302D01*
X114163606Y-94530362D01*
X114163608Y-94530363D01*
X114178438Y-94538925D01*
X114178901Y-94539192D01*
X114257334Y-94560207D01*
X114257337Y-94560209D01*
X114257340Y-94560209D01*
X114257343Y-94560210D01*
X114289782Y-94574102D01*
X114296401Y-94578137D01*
X114303130Y-94582239D01*
X114350118Y-94633925D01*
X114353992Y-94641898D01*
X114366461Y-94696090D01*
X114366461Y-94798006D01*
X114384729Y-94866186D01*
X114397514Y-94913899D01*
X114400570Y-94925301D01*
X114400570Y-94925302D01*
X114458549Y-95025725D01*
X114459397Y-95027296D01*
X114459954Y-95029921D01*
X114470769Y-95056934D01*
X114474454Y-95072122D01*
X114473438Y-95093454D01*
X114473903Y-95095644D01*
X114473252Y-95097362D01*
X114471131Y-95141912D01*
X114471127Y-95141924D01*
X114468226Y-95150304D01*
X114438731Y-95197419D01*
X114404947Y-95231203D01*
X114404937Y-95231215D01*
X114339045Y-95345340D01*
X114319414Y-95418608D01*
X114304937Y-95472636D01*
X114304937Y-95472638D01*
X114304937Y-95604422D01*
X114316855Y-95648900D01*
X114339045Y-95731717D01*
X114371991Y-95788780D01*
X114404937Y-95845844D01*
X114498123Y-95939030D01*
X114605531Y-96001042D01*
X114621314Y-96011861D01*
X114637870Y-96025200D01*
X114677722Y-96082589D01*
X114680221Y-96152409D01*
X114678926Y-96157485D01*
X114646456Y-96214513D01*
X114591564Y-96269404D01*
X114525674Y-96383526D01*
X114525673Y-96383527D01*
X114493533Y-96503478D01*
X114491564Y-96510827D01*
X114491564Y-96642611D01*
X114515022Y-96730160D01*
X114517219Y-96742119D01*
X114529590Y-96793110D01*
X114526265Y-96862901D01*
X114485737Y-96919815D01*
X114466558Y-96927493D01*
X114464143Y-96930059D01*
X114453547Y-96932701D01*
X114420873Y-96945783D01*
X114413239Y-96946512D01*
X114401957Y-96945570D01*
X114396350Y-96946969D01*
X114389041Y-96944492D01*
X114376896Y-96943478D01*
X114376859Y-96943761D01*
X114370926Y-96942979D01*
X114369359Y-96942849D01*
X114368804Y-96942700D01*
X114368802Y-96942700D01*
X114368801Y-96942700D01*
X114237017Y-96942700D01*
X114109717Y-96976809D01*
X114109715Y-96976810D01*
X113995605Y-97042693D01*
X113995591Y-97042702D01*
X113995586Y-97042706D01*
X113902415Y-97135877D01*
X113902411Y-97135882D01*
X113902402Y-97135896D01*
X113836519Y-97250006D01*
X113836518Y-97250009D01*
X113836517Y-97250011D01*
X113836517Y-97250012D01*
X113804846Y-97368212D01*
X113802409Y-97377308D01*
X113802409Y-97509092D01*
X113804396Y-97516506D01*
X113836517Y-97636387D01*
X113856213Y-97670500D01*
X113856214Y-97670502D01*
X113902406Y-97750510D01*
X113902408Y-97750513D01*
X113902409Y-97750514D01*
X113995595Y-97843700D01*
X114109723Y-97909592D01*
X114237017Y-97943700D01*
X114237019Y-97943700D01*
X114368799Y-97943700D01*
X114368801Y-97943700D01*
X114496095Y-97909592D01*
X114610223Y-97843700D01*
X114703409Y-97750514D01*
X114769301Y-97636386D01*
X114803409Y-97509092D01*
X114803409Y-97377308D01*
X114779944Y-97289737D01*
X114777712Y-97277590D01*
X114765388Y-97226828D01*
X114768700Y-97157037D01*
X114809218Y-97100116D01*
X114828395Y-97092434D01*
X114830815Y-97089863D01*
X114841419Y-97087216D01*
X114874072Y-97074137D01*
X114881703Y-97073407D01*
X114892990Y-97074349D01*
X114898606Y-97072948D01*
X114905927Y-97075428D01*
X114918073Y-97076442D01*
X114918111Y-97076159D01*
X114924056Y-97076941D01*
X114925619Y-97077071D01*
X114926172Y-97077220D01*
X114926174Y-97077220D01*
X115057954Y-97077220D01*
X115057956Y-97077220D01*
X115185250Y-97043112D01*
X115299378Y-96977220D01*
X115392564Y-96884034D01*
X115458456Y-96769906D01*
X115492564Y-96642612D01*
X115492564Y-96510828D01*
X115484172Y-96479508D01*
X116771300Y-96479508D01*
X116771300Y-96611291D01*
X116779692Y-96642610D01*
X116805408Y-96738588D01*
X116807447Y-96742119D01*
X116823491Y-96769907D01*
X116871300Y-96852714D01*
X116964486Y-96945900D01*
X117078614Y-97011792D01*
X117205908Y-97045900D01*
X117205910Y-97045900D01*
X117337690Y-97045900D01*
X117337692Y-97045900D01*
X117464986Y-97011792D01*
X117579114Y-96945900D01*
X117672300Y-96852714D01*
X117738192Y-96738586D01*
X117772300Y-96611292D01*
X117772300Y-96479508D01*
X117738192Y-96352214D01*
X117737717Y-96351392D01*
X117720439Y-96321465D01*
X117672300Y-96238086D01*
X117579114Y-96144900D01*
X117510726Y-96105416D01*
X117464987Y-96079008D01*
X117401339Y-96061954D01*
X117337692Y-96044900D01*
X117337691Y-96044900D01*
X117205908Y-96044900D01*
X117078608Y-96079009D01*
X117078606Y-96079010D01*
X116964496Y-96144893D01*
X116964482Y-96144902D01*
X116964477Y-96144906D01*
X116871306Y-96238077D01*
X116871302Y-96238082D01*
X116871293Y-96238096D01*
X116805410Y-96352206D01*
X116805409Y-96352208D01*
X116771300Y-96479508D01*
X115484172Y-96479508D01*
X115458456Y-96383534D01*
X115458451Y-96383526D01*
X115439898Y-96351391D01*
X115392564Y-96269406D01*
X115299378Y-96176220D01*
X115191969Y-96114207D01*
X115176169Y-96103376D01*
X115159627Y-96090047D01*
X115119776Y-96032656D01*
X115117278Y-95962835D01*
X115118574Y-95957757D01*
X115151040Y-95900739D01*
X115205937Y-95845844D01*
X115221373Y-95819108D01*
X119235100Y-95819108D01*
X119235100Y-95950891D01*
X119236941Y-95957761D01*
X119269208Y-96078188D01*
X119283751Y-96103376D01*
X119287541Y-96109940D01*
X119335100Y-96192314D01*
X119428286Y-96285500D01*
X119522134Y-96339683D01*
X119522136Y-96339684D01*
X119522138Y-96339686D01*
X119538809Y-96349311D01*
X119538816Y-96349315D01*
X119542414Y-96351392D01*
X119669708Y-96385500D01*
X119669710Y-96385500D01*
X119801490Y-96385500D01*
X119801492Y-96385500D01*
X119928786Y-96351392D01*
X120042914Y-96285500D01*
X120136100Y-96192314D01*
X120201992Y-96078186D01*
X120236100Y-95950892D01*
X120236100Y-95819108D01*
X120201992Y-95691814D01*
X120201987Y-95691806D01*
X120177216Y-95648901D01*
X120136100Y-95577686D01*
X120042914Y-95484500D01*
X119985850Y-95451554D01*
X119928787Y-95418608D01*
X119865139Y-95401554D01*
X119801492Y-95384500D01*
X119801491Y-95384500D01*
X119669708Y-95384500D01*
X119542408Y-95418609D01*
X119542406Y-95418610D01*
X119428296Y-95484493D01*
X119428282Y-95484502D01*
X119428277Y-95484506D01*
X119335106Y-95577677D01*
X119335102Y-95577682D01*
X119335093Y-95577696D01*
X119269210Y-95691806D01*
X119269209Y-95691808D01*
X119253890Y-95748980D01*
X119235100Y-95819108D01*
X115221373Y-95819108D01*
X115271829Y-95731716D01*
X115305937Y-95604422D01*
X115305937Y-95472638D01*
X115271829Y-95345344D01*
X115214740Y-95246463D01*
X115201626Y-95213705D01*
X115197940Y-95198511D01*
X115198973Y-95176823D01*
X115201263Y-95128730D01*
X115204164Y-95120347D01*
X115233663Y-95073224D01*
X115267461Y-95039427D01*
X115333353Y-94925299D01*
X115367461Y-94798005D01*
X115367461Y-94666221D01*
X115351622Y-94607108D01*
X116618900Y-94607108D01*
X116618900Y-94738891D01*
X116629002Y-94776592D01*
X116653008Y-94866188D01*
X116679050Y-94911292D01*
X116680554Y-94913897D01*
X116718900Y-94980314D01*
X116812086Y-95073500D01*
X116926214Y-95139392D01*
X117053508Y-95173500D01*
X117053510Y-95173500D01*
X117185290Y-95173500D01*
X117185292Y-95173500D01*
X117312586Y-95139392D01*
X117426714Y-95073500D01*
X117519900Y-94980314D01*
X117585792Y-94866186D01*
X117619900Y-94738892D01*
X117619900Y-94607108D01*
X117585792Y-94479814D01*
X117585787Y-94479806D01*
X117554027Y-94424796D01*
X117519900Y-94365686D01*
X117426714Y-94272500D01*
X117347201Y-94226593D01*
X117347201Y-94226592D01*
X117347199Y-94226592D01*
X117312587Y-94206608D01*
X117248939Y-94189554D01*
X117185292Y-94172500D01*
X117185291Y-94172500D01*
X117053508Y-94172500D01*
X116926208Y-94206609D01*
X116926206Y-94206610D01*
X116812096Y-94272493D01*
X116812082Y-94272502D01*
X116812077Y-94272506D01*
X116718906Y-94365677D01*
X116718902Y-94365682D01*
X116718893Y-94365696D01*
X116653010Y-94479806D01*
X116653009Y-94479808D01*
X116639463Y-94530363D01*
X116618900Y-94607108D01*
X115351622Y-94607108D01*
X115333353Y-94538927D01*
X115267461Y-94424799D01*
X115174275Y-94331613D01*
X115071885Y-94272498D01*
X115060149Y-94265722D01*
X115060148Y-94265721D01*
X115060147Y-94265721D01*
X114981707Y-94244702D01*
X114949266Y-94230809D01*
X114935921Y-94222675D01*
X114888923Y-94170974D01*
X114888922Y-94170970D01*
X114885048Y-94162994D01*
X114872587Y-94108819D01*
X114872587Y-94006910D01*
X114872587Y-94006908D01*
X114838479Y-93879614D01*
X114838477Y-93879610D01*
X114836907Y-93876891D01*
X114791927Y-93798983D01*
X114791925Y-93798979D01*
X114778862Y-93776354D01*
X114777685Y-93773737D01*
X114773577Y-93767090D01*
X114772665Y-93765564D01*
X114752209Y-93745108D01*
X118041300Y-93745108D01*
X118041300Y-93876892D01*
X118044518Y-93888900D01*
X118075408Y-94004187D01*
X118077943Y-94008577D01*
X118084993Y-94020789D01*
X118084994Y-94020790D01*
X118100131Y-94047008D01*
X118141300Y-94118314D01*
X118234486Y-94211500D01*
X118348614Y-94277392D01*
X118475908Y-94311500D01*
X118475910Y-94311500D01*
X118607690Y-94311500D01*
X118607692Y-94311500D01*
X118734986Y-94277392D01*
X118849114Y-94211500D01*
X118942300Y-94118314D01*
X119008192Y-94004186D01*
X119042300Y-93876892D01*
X119042300Y-93745108D01*
X119028688Y-93694307D01*
X121418720Y-93694307D01*
X121418720Y-93694309D01*
X121418720Y-93826093D01*
X121428410Y-93862257D01*
X121452828Y-93953388D01*
X121467089Y-93978088D01*
X121518720Y-94067515D01*
X121611906Y-94160701D01*
X121726034Y-94226593D01*
X121853328Y-94260701D01*
X121853330Y-94260701D01*
X121985110Y-94260701D01*
X121985112Y-94260701D01*
X122046292Y-94244308D01*
X124297500Y-94244308D01*
X124297500Y-94376092D01*
X124298578Y-94380114D01*
X124302313Y-94394056D01*
X124302314Y-94394060D01*
X124323546Y-94473300D01*
X124331608Y-94503387D01*
X124364554Y-94560450D01*
X124397500Y-94617514D01*
X124490686Y-94710700D01*
X124604814Y-94776592D01*
X124732108Y-94810700D01*
X124732110Y-94810700D01*
X124863890Y-94810700D01*
X124863892Y-94810700D01*
X124991186Y-94776592D01*
X125105314Y-94710700D01*
X125198500Y-94617514D01*
X125264392Y-94503386D01*
X125298500Y-94376092D01*
X125298500Y-94244308D01*
X125264392Y-94117014D01*
X125264387Y-94117006D01*
X125242067Y-94078346D01*
X125198500Y-94002886D01*
X125105314Y-93909700D01*
X125026092Y-93863961D01*
X125026092Y-93863960D01*
X125026090Y-93863960D01*
X124991187Y-93843808D01*
X124925065Y-93826091D01*
X124925064Y-93826090D01*
X124863893Y-93809700D01*
X124863892Y-93809700D01*
X124732108Y-93809700D01*
X124604808Y-93843809D01*
X124604806Y-93843810D01*
X124490696Y-93909693D01*
X124490682Y-93909702D01*
X124490677Y-93909706D01*
X124397506Y-94002877D01*
X124397502Y-94002882D01*
X124397493Y-94002896D01*
X124331610Y-94117006D01*
X124331609Y-94117009D01*
X124331608Y-94117011D01*
X124331608Y-94117012D01*
X124313313Y-94185291D01*
X124306291Y-94211499D01*
X124297770Y-94243296D01*
X124297770Y-94243299D01*
X124297500Y-94244308D01*
X122046292Y-94244308D01*
X122112406Y-94226593D01*
X122226534Y-94160701D01*
X122319720Y-94067515D01*
X122385612Y-93953387D01*
X122419720Y-93826093D01*
X122419720Y-93694309D01*
X122385612Y-93567015D01*
X122385607Y-93567007D01*
X122370660Y-93541118D01*
X122319720Y-93452887D01*
X122226534Y-93359701D01*
X122141316Y-93310500D01*
X122112407Y-93293809D01*
X122048759Y-93276755D01*
X121985112Y-93259701D01*
X121985111Y-93259701D01*
X121853328Y-93259701D01*
X121726028Y-93293810D01*
X121726026Y-93293811D01*
X121611916Y-93359694D01*
X121611902Y-93359703D01*
X121611897Y-93359707D01*
X121518726Y-93452878D01*
X121518722Y-93452883D01*
X121518713Y-93452897D01*
X121452830Y-93567007D01*
X121452829Y-93567010D01*
X121452828Y-93567012D01*
X121452828Y-93567013D01*
X121450738Y-93574812D01*
X121433609Y-93638741D01*
X121418720Y-93694307D01*
X119028688Y-93694307D01*
X119008192Y-93617814D01*
X118942300Y-93503686D01*
X118849114Y-93410500D01*
X118767639Y-93363460D01*
X118734987Y-93344608D01*
X118671339Y-93327554D01*
X118607692Y-93310500D01*
X118607691Y-93310500D01*
X118475908Y-93310500D01*
X118348608Y-93344609D01*
X118348606Y-93344610D01*
X118234496Y-93410493D01*
X118234482Y-93410502D01*
X118234477Y-93410506D01*
X118141306Y-93503677D01*
X118141302Y-93503682D01*
X118141293Y-93503696D01*
X118075407Y-93617810D01*
X118060808Y-93672301D01*
X118060808Y-93672302D01*
X118041300Y-93745108D01*
X114752209Y-93745108D01*
X114679403Y-93672302D01*
X114679401Y-93672300D01*
X114565273Y-93606408D01*
X114451378Y-93575890D01*
X114448171Y-93574517D01*
X114418931Y-93561994D01*
X114405586Y-93553859D01*
X114358590Y-93502157D01*
X114358590Y-93502156D01*
X114354716Y-93494180D01*
X114342255Y-93440005D01*
X114342255Y-93379665D01*
X114342255Y-93379663D01*
X114308147Y-93252369D01*
X114242255Y-93138241D01*
X114149069Y-93045055D01*
X114071924Y-93000515D01*
X114034942Y-92979163D01*
X113971294Y-92962109D01*
X113907647Y-92945055D01*
X113907646Y-92945055D01*
X113775863Y-92945055D01*
X113648563Y-92979164D01*
X113648561Y-92979165D01*
X113534451Y-93045048D01*
X113534437Y-93045057D01*
X113534432Y-93045061D01*
X113441261Y-93138232D01*
X113441259Y-93138235D01*
X113441257Y-93138237D01*
X113441257Y-93138238D01*
X113441255Y-93138241D01*
X113436883Y-93145812D01*
X113386315Y-93194024D01*
X113317708Y-93207244D01*
X113252844Y-93181273D01*
X113212318Y-93124357D01*
X113205500Y-93083806D01*
X113205500Y-92917758D01*
X113205499Y-92917742D01*
X113205318Y-92916063D01*
X113200803Y-92874066D01*
X113190775Y-92827970D01*
X113195759Y-92758280D01*
X113237629Y-92702346D01*
X113249947Y-92694222D01*
X113250353Y-92693987D01*
X113250764Y-92693750D01*
X113343950Y-92600564D01*
X113409842Y-92486436D01*
X113443950Y-92359142D01*
X113443950Y-92227358D01*
X113409842Y-92100064D01*
X113403094Y-92088377D01*
X113379840Y-92048100D01*
X113343950Y-91985936D01*
X113250764Y-91892750D01*
X113247688Y-91890974D01*
X113245614Y-91888798D01*
X113244315Y-91887802D01*
X113244470Y-91887599D01*
X113199473Y-91840406D01*
X113186252Y-91771799D01*
X113190715Y-91748647D01*
X113197172Y-91726657D01*
X113197175Y-91726648D01*
X113205500Y-91668750D01*
X113205500Y-91509108D01*
X118150250Y-91509108D01*
X118150250Y-91640891D01*
X118184358Y-91768187D01*
X118211312Y-91814872D01*
X118211313Y-91814874D01*
X118250245Y-91882307D01*
X118250250Y-91882314D01*
X118343436Y-91975500D01*
X118343438Y-91975501D01*
X118343442Y-91975504D01*
X118403127Y-92009963D01*
X118403129Y-92009963D01*
X118412571Y-92015415D01*
X118455859Y-92040408D01*
X118457564Y-92041392D01*
X118580130Y-92074233D01*
X118585178Y-92076066D01*
X118586189Y-92076809D01*
X118593011Y-92079216D01*
X118613725Y-92088377D01*
X118667075Y-92133495D01*
X118687551Y-92199563D01*
X118687792Y-92213033D01*
X118683588Y-92247339D01*
X118681043Y-92256835D01*
X118681043Y-92256840D01*
X118681043Y-92256842D01*
X118681043Y-92388623D01*
X118715151Y-92515919D01*
X118719201Y-92522933D01*
X118719203Y-92522943D01*
X118719206Y-92522942D01*
X118781043Y-92630046D01*
X118874229Y-92723232D01*
X118934934Y-92758280D01*
X118978922Y-92783677D01*
X118988357Y-92789124D01*
X119100578Y-92819193D01*
X119133013Y-92833082D01*
X119146363Y-92841219D01*
X119193359Y-92892913D01*
X119197234Y-92900889D01*
X119209700Y-92955076D01*
X119209700Y-93038693D01*
X119212310Y-93048434D01*
X119216072Y-93062473D01*
X119242796Y-93162211D01*
X119243809Y-93165989D01*
X119243809Y-93165990D01*
X119265974Y-93204381D01*
X119265975Y-93204381D01*
X119309700Y-93280114D01*
X119402886Y-93373300D01*
X119517014Y-93439192D01*
X119644308Y-93473300D01*
X119644310Y-93473300D01*
X119776090Y-93473300D01*
X119776092Y-93473300D01*
X119903386Y-93439192D01*
X120017514Y-93373300D01*
X120110700Y-93280114D01*
X120176592Y-93165986D01*
X120210700Y-93038692D01*
X120210700Y-92906908D01*
X120176592Y-92779614D01*
X120110700Y-92665486D01*
X120017514Y-92572300D01*
X119903386Y-92506408D01*
X119791167Y-92476339D01*
X119758724Y-92462446D01*
X119745378Y-92454311D01*
X119698380Y-92402610D01*
X119698378Y-92402605D01*
X119694504Y-92394629D01*
X119682043Y-92340454D01*
X119682043Y-92256842D01*
X119682043Y-92256840D01*
X119647935Y-92129546D01*
X119582043Y-92015418D01*
X119488857Y-91922232D01*
X119443488Y-91896038D01*
X119429156Y-91887763D01*
X119429153Y-91887761D01*
X119419717Y-91882314D01*
X119374730Y-91856340D01*
X119318942Y-91841392D01*
X119252139Y-91823492D01*
X119247095Y-91821661D01*
X119246086Y-91820919D01*
X119239287Y-91818522D01*
X119227017Y-91813099D01*
X119227448Y-91812122D01*
X119212130Y-91805852D01*
X119211673Y-91806703D01*
X119208695Y-91805103D01*
X119207556Y-91803980D01*
X119205316Y-91803063D01*
X119203489Y-91801893D01*
X119204244Y-91800712D01*
X119195992Y-91792571D01*
X119180277Y-91784123D01*
X119158975Y-91756052D01*
X119158956Y-91756033D01*
X119158942Y-91756008D01*
X119157946Y-91754212D01*
X119144058Y-91701564D01*
X119142747Y-91701667D01*
X119142650Y-91700431D01*
X119142936Y-91697312D01*
X119142393Y-91695250D01*
X119142373Y-91693141D01*
X119143321Y-91693132D01*
X119143588Y-91690228D01*
X119142648Y-91686037D01*
X119144420Y-91681189D01*
X119146494Y-91658639D01*
X119151250Y-91640892D01*
X119151250Y-91628108D01*
X122519500Y-91628108D01*
X122519500Y-91759892D01*
X122521723Y-91768187D01*
X122553608Y-91887187D01*
X122573842Y-91922232D01*
X122619500Y-92001314D01*
X122712686Y-92094500D01*
X122826814Y-92160392D01*
X122954108Y-92194500D01*
X122954110Y-92194500D01*
X122982495Y-92194500D01*
X123017427Y-92199521D01*
X123030746Y-92203432D01*
X123089524Y-92241206D01*
X123118549Y-92304757D01*
X123119759Y-92313170D01*
X123116797Y-92362916D01*
X123097387Y-92435353D01*
X123097386Y-92435361D01*
X123095900Y-92440908D01*
X123095900Y-92572691D01*
X123128463Y-92694222D01*
X123130009Y-92699989D01*
X123143429Y-92723233D01*
X123143430Y-92723234D01*
X123195900Y-92814114D01*
X123289086Y-92907300D01*
X123355181Y-92945460D01*
X123367248Y-92952427D01*
X123367655Y-92952854D01*
X123368228Y-92952999D01*
X123371014Y-92955975D01*
X123421056Y-92986467D01*
X123468062Y-93038160D01*
X123479659Y-93107060D01*
X123452165Y-93171293D01*
X123452163Y-93171295D01*
X123449075Y-93175036D01*
X123412234Y-93205277D01*
X123388247Y-93218192D01*
X123386941Y-93219823D01*
X123384989Y-93220478D01*
X123377942Y-93225549D01*
X123300473Y-93270276D01*
X123300468Y-93270280D01*
X123207297Y-93363451D01*
X123207293Y-93363456D01*
X123207291Y-93363460D01*
X123141401Y-93477580D01*
X123141400Y-93477583D01*
X123141399Y-93477585D01*
X123141399Y-93477586D01*
X123134408Y-93503677D01*
X123126039Y-93534912D01*
X123107291Y-93604880D01*
X123107291Y-93604882D01*
X123107291Y-93736666D01*
X123115013Y-93765486D01*
X123140942Y-93862257D01*
X123141400Y-93863963D01*
X123155796Y-93888896D01*
X123155797Y-93888900D01*
X123155798Y-93888900D01*
X123207291Y-93978088D01*
X123300477Y-94071274D01*
X123386312Y-94120831D01*
X123386314Y-94120833D01*
X123414586Y-94137156D01*
X123414594Y-94137160D01*
X123414601Y-94137164D01*
X123414605Y-94137166D01*
X123541899Y-94171274D01*
X123541901Y-94171274D01*
X123673681Y-94171274D01*
X123673683Y-94171274D01*
X123800977Y-94137166D01*
X123915105Y-94071274D01*
X124008291Y-93978088D01*
X124074183Y-93863960D01*
X124108291Y-93736666D01*
X124108291Y-93604882D01*
X124074183Y-93477588D01*
X124074178Y-93477580D01*
X124064380Y-93460609D01*
X124008291Y-93363460D01*
X123915105Y-93270274D01*
X123839446Y-93226592D01*
X123837989Y-93225751D01*
X123836923Y-93225135D01*
X123833894Y-93221957D01*
X123833828Y-93222066D01*
X123783245Y-93191178D01*
X123784612Y-93188937D01*
X123780195Y-93184994D01*
X123764257Y-93177498D01*
X123754673Y-93162211D01*
X123741213Y-93150195D01*
X123736500Y-93133222D01*
X123727145Y-93118299D01*
X123727347Y-93100256D01*
X123722521Y-93082872D01*
X123727733Y-93065937D01*
X123727930Y-93048434D01*
X123737366Y-93028477D01*
X123736424Y-93028006D01*
X123736447Y-93027960D01*
X123739551Y-93023856D01*
X123742802Y-93016981D01*
X123742951Y-93016496D01*
X123743800Y-93015207D01*
X123743816Y-93015193D01*
X123744057Y-93014831D01*
X123744161Y-93014900D01*
X123750185Y-93009798D01*
X123763817Y-92991778D01*
X123764634Y-92991032D01*
X123764637Y-92991031D01*
X123764638Y-92991028D01*
X123764994Y-92990705D01*
X123786533Y-92974954D01*
X123789583Y-92973192D01*
X123789586Y-92973192D01*
X123903714Y-92907300D01*
X123996900Y-92814114D01*
X124062792Y-92699986D01*
X124096900Y-92572692D01*
X124096900Y-92440908D01*
X124062792Y-92313614D01*
X123996900Y-92199486D01*
X123903714Y-92106300D01*
X123834053Y-92066081D01*
X123789587Y-92040408D01*
X123696310Y-92015415D01*
X123696310Y-92015414D01*
X123662293Y-92006300D01*
X123662292Y-92006300D01*
X123633905Y-92006300D01*
X123633902Y-92006299D01*
X123633901Y-92006300D01*
X123598966Y-92001276D01*
X123585648Y-91997365D01*
X123526871Y-91959589D01*
X123497850Y-91896040D01*
X123496639Y-91887619D01*
X123499601Y-91837884D01*
X123520500Y-91759892D01*
X123520500Y-91628108D01*
X123486392Y-91500814D01*
X123486387Y-91500806D01*
X123477563Y-91485521D01*
X123420500Y-91386686D01*
X123327314Y-91293500D01*
X123293761Y-91274128D01*
X123260927Y-91255171D01*
X123260925Y-91255170D01*
X123251085Y-91249489D01*
X123213187Y-91227608D01*
X123095274Y-91196014D01*
X123090548Y-91194747D01*
X123090538Y-91194744D01*
X123085894Y-91193500D01*
X123085892Y-91193500D01*
X122954108Y-91193500D01*
X122826808Y-91227609D01*
X122826806Y-91227610D01*
X122712696Y-91293493D01*
X122712682Y-91293502D01*
X122712677Y-91293506D01*
X122619506Y-91386677D01*
X122619502Y-91386682D01*
X122619493Y-91386696D01*
X122553610Y-91500806D01*
X122553609Y-91500807D01*
X122543319Y-91539209D01*
X122535204Y-91569498D01*
X122535204Y-91569499D01*
X122535203Y-91569498D01*
X122519826Y-91626890D01*
X122519500Y-91628108D01*
X119151250Y-91628108D01*
X119151250Y-91509108D01*
X119117142Y-91381814D01*
X119117139Y-91381808D01*
X119115390Y-91378779D01*
X119115388Y-91378777D01*
X119051250Y-91267686D01*
X118958064Y-91174500D01*
X118901000Y-91141554D01*
X118843937Y-91108608D01*
X118744207Y-91081886D01*
X118744207Y-91081885D01*
X118716643Y-91074500D01*
X118716642Y-91074500D01*
X118584858Y-91074500D01*
X118457558Y-91108609D01*
X118457556Y-91108610D01*
X118343446Y-91174493D01*
X118343432Y-91174502D01*
X118343427Y-91174506D01*
X118250256Y-91267677D01*
X118250252Y-91267682D01*
X118250243Y-91267696D01*
X118184360Y-91381806D01*
X118184359Y-91381808D01*
X118184358Y-91381812D01*
X118150250Y-91509108D01*
X113205500Y-91509108D01*
X113205500Y-91020381D01*
X113205369Y-91013045D01*
X113205053Y-91004199D01*
X113192227Y-90939720D01*
X113167810Y-90874256D01*
X113158558Y-90853435D01*
X113157604Y-90851288D01*
X113157602Y-90851285D01*
X113099727Y-90783100D01*
X113098421Y-90781561D01*
X113098416Y-90781557D01*
X113049687Y-90745077D01*
X113046951Y-90741422D01*
X113042797Y-90739525D01*
X113026204Y-90713705D01*
X113007817Y-90689142D01*
X113006801Y-90683514D01*
X113005023Y-90680747D01*
X113000000Y-90645812D01*
X113000000Y-90548638D01*
X113019685Y-90481599D01*
X113057503Y-90446748D01*
X113056347Y-90445065D01*
X113062076Y-90441129D01*
X113062085Y-90441125D01*
X113114889Y-90395370D01*
X113132843Y-90377779D01*
X113177490Y-90297962D01*
X113197175Y-90230923D01*
X113205500Y-90173025D01*
X113205500Y-89632948D01*
X113225185Y-89565909D01*
X113277989Y-89520154D01*
X113347147Y-89510210D01*
X113391495Y-89525559D01*
X113498179Y-89587153D01*
X113625473Y-89621261D01*
X113625475Y-89621261D01*
X113757255Y-89621261D01*
X113757257Y-89621261D01*
X113884551Y-89587153D01*
X113985786Y-89528705D01*
X115047500Y-89528705D01*
X115047500Y-89660494D01*
X115051380Y-89674973D01*
X115081608Y-89787788D01*
X115102476Y-89823931D01*
X115147500Y-89901914D01*
X115240686Y-89995100D01*
X115354814Y-90060992D01*
X115482108Y-90095100D01*
X115482110Y-90095100D01*
X115613890Y-90095100D01*
X115613892Y-90095100D01*
X115741186Y-90060992D01*
X115855314Y-89995100D01*
X115948500Y-89901914D01*
X116014392Y-89787786D01*
X116027093Y-89740386D01*
X116817227Y-89740386D01*
X116817227Y-89872169D01*
X116825696Y-89903777D01*
X116851335Y-89999466D01*
X116864436Y-90022157D01*
X116870519Y-90032692D01*
X116917227Y-90113592D01*
X117010413Y-90206778D01*
X117100232Y-90258635D01*
X117119663Y-90269854D01*
X117135454Y-90280678D01*
X117139439Y-90283889D01*
X117152603Y-90294496D01*
X117192452Y-90351882D01*
X117196751Y-90364795D01*
X117203100Y-90403964D01*
X117203100Y-90515291D01*
X117227025Y-90604584D01*
X117237209Y-90642589D01*
X117244838Y-90655803D01*
X117244839Y-90655804D01*
X117303097Y-90756710D01*
X117303099Y-90756713D01*
X117303100Y-90756714D01*
X117396286Y-90849900D01*
X117510414Y-90915792D01*
X117637708Y-90949900D01*
X117637710Y-90949900D01*
X117769490Y-90949900D01*
X117769492Y-90949900D01*
X117896786Y-90915792D01*
X118010914Y-90849900D01*
X118077718Y-90783096D01*
X119140310Y-90783096D01*
X119140310Y-90914881D01*
X119144053Y-90928852D01*
X119147424Y-90941431D01*
X119174418Y-91042178D01*
X119176168Y-91045209D01*
X119176172Y-91045215D01*
X119240310Y-91156304D01*
X119333496Y-91249490D01*
X119447624Y-91315382D01*
X119574918Y-91349490D01*
X119574920Y-91349490D01*
X119706700Y-91349490D01*
X119706702Y-91349490D01*
X119833996Y-91315382D01*
X119948124Y-91249490D01*
X120041310Y-91156304D01*
X120107202Y-91042176D01*
X120141310Y-90914882D01*
X120141310Y-90783098D01*
X120107202Y-90655804D01*
X120107197Y-90655796D01*
X120098373Y-90640511D01*
X120041310Y-90541676D01*
X119948124Y-90448490D01*
X119948122Y-90448488D01*
X119943041Y-90444826D01*
X119943036Y-90444823D01*
X119940009Y-90442641D01*
X119940650Y-90441750D01*
X119939907Y-90440794D01*
X119920632Y-90426550D01*
X119911621Y-90417099D01*
X119903442Y-90401234D01*
X119891127Y-90388309D01*
X119887764Y-90370825D01*
X119879606Y-90355001D01*
X119881302Y-90337228D01*
X119877931Y-90319697D01*
X119886242Y-90285493D01*
X119886246Y-90285448D01*
X119886871Y-90283887D01*
X119920760Y-90236315D01*
X119924544Y-90233035D01*
X119929890Y-90229228D01*
X119930083Y-90228984D01*
X119930375Y-90228882D01*
X119943749Y-90219358D01*
X119966714Y-90206100D01*
X120059900Y-90112914D01*
X120125792Y-89998786D01*
X120159900Y-89871492D01*
X120159900Y-89739708D01*
X120125792Y-89612414D01*
X120125787Y-89612406D01*
X120116963Y-89597121D01*
X120059900Y-89498286D01*
X119966714Y-89405100D01*
X119909650Y-89372154D01*
X119852587Y-89339208D01*
X119758313Y-89313948D01*
X119751744Y-89312188D01*
X119751737Y-89312185D01*
X119725293Y-89305100D01*
X119725292Y-89305100D01*
X119593508Y-89305100D01*
X119466208Y-89339209D01*
X119466206Y-89339210D01*
X119352096Y-89405093D01*
X119352082Y-89405102D01*
X119352077Y-89405106D01*
X119258906Y-89498277D01*
X119258902Y-89498282D01*
X119258893Y-89498296D01*
X119193010Y-89612406D01*
X119193009Y-89612407D01*
X119183637Y-89647383D01*
X119176246Y-89674970D01*
X119176246Y-89674971D01*
X119176245Y-89674970D01*
X119158900Y-89739706D01*
X119158900Y-89871493D01*
X119164088Y-89890854D01*
X119167052Y-89901916D01*
X119193008Y-89998787D01*
X119225954Y-90055850D01*
X119258900Y-90112914D01*
X119305973Y-90159987D01*
X119352089Y-90206103D01*
X119358532Y-90211047D01*
X119358391Y-90211229D01*
X119379005Y-90227440D01*
X119388587Y-90237489D01*
X119420602Y-90299590D01*
X119413964Y-90369135D01*
X119413862Y-90369392D01*
X119413360Y-90370645D01*
X119379439Y-90418281D01*
X119375650Y-90421564D01*
X119356450Y-90435236D01*
X119333503Y-90448484D01*
X119333495Y-90448489D01*
X119333479Y-90448504D01*
X119240316Y-90541667D01*
X119240312Y-90541672D01*
X119240303Y-90541686D01*
X119174420Y-90655796D01*
X119174419Y-90655799D01*
X119174418Y-90655801D01*
X119174418Y-90655802D01*
X119150498Y-90745077D01*
X119147379Y-90756716D01*
X119140310Y-90783096D01*
X118077718Y-90783096D01*
X118104100Y-90756714D01*
X118169992Y-90642586D01*
X118204100Y-90515292D01*
X118204100Y-90383508D01*
X118169992Y-90256214D01*
X118169872Y-90256007D01*
X118141448Y-90206775D01*
X118104100Y-90142086D01*
X118010914Y-90048900D01*
X118010911Y-90048898D01*
X118010907Y-90048895D01*
X117964596Y-90022157D01*
X117901655Y-89985817D01*
X117885851Y-89974984D01*
X117868720Y-89961178D01*
X117828873Y-89903789D01*
X117828869Y-89903777D01*
X117827915Y-89900911D01*
X117824569Y-89890854D01*
X117818227Y-89851705D01*
X117818227Y-89740388D01*
X117818227Y-89740386D01*
X117784119Y-89613092D01*
X117784118Y-89613090D01*
X117784118Y-89613089D01*
X117783721Y-89612402D01*
X117783700Y-89612365D01*
X117765442Y-89580742D01*
X117765441Y-89580741D01*
X117735660Y-89529159D01*
X117718227Y-89498964D01*
X117625041Y-89405778D01*
X117567977Y-89372832D01*
X117510914Y-89339886D01*
X117414106Y-89313947D01*
X117407628Y-89312211D01*
X117407620Y-89312208D01*
X117383620Y-89305778D01*
X117383619Y-89305778D01*
X117251835Y-89305778D01*
X117124535Y-89339887D01*
X117124533Y-89339888D01*
X117010423Y-89405771D01*
X117010409Y-89405780D01*
X117010404Y-89405784D01*
X116917233Y-89498955D01*
X116917229Y-89498960D01*
X116917228Y-89498962D01*
X116851337Y-89613084D01*
X116851336Y-89613086D01*
X116838901Y-89659496D01*
X116817227Y-89740386D01*
X116027093Y-89740386D01*
X116048500Y-89660492D01*
X116048500Y-89528708D01*
X116014392Y-89401414D01*
X115948500Y-89287286D01*
X115855314Y-89194100D01*
X115798250Y-89161154D01*
X115741187Y-89128208D01*
X115664518Y-89107665D01*
X115664518Y-89107664D01*
X115613893Y-89094100D01*
X115613892Y-89094100D01*
X115482108Y-89094100D01*
X115354808Y-89128209D01*
X115354806Y-89128210D01*
X115240696Y-89194093D01*
X115240682Y-89194102D01*
X115240677Y-89194106D01*
X115147506Y-89287277D01*
X115147502Y-89287282D01*
X115147493Y-89287296D01*
X115081607Y-89401410D01*
X115081607Y-89401411D01*
X115055470Y-89498962D01*
X115047500Y-89528705D01*
X113985786Y-89528705D01*
X113998679Y-89521261D01*
X114091865Y-89428075D01*
X114157757Y-89313947D01*
X114191865Y-89186653D01*
X114191865Y-89054869D01*
X114157757Y-88927575D01*
X114091865Y-88813447D01*
X113998679Y-88720261D01*
X113941615Y-88687315D01*
X113884552Y-88654369D01*
X113820904Y-88637315D01*
X113757257Y-88620261D01*
X113757256Y-88620261D01*
X113625473Y-88620261D01*
X113498173Y-88654370D01*
X113498171Y-88654371D01*
X113391501Y-88715959D01*
X113323601Y-88732433D01*
X113257574Y-88709581D01*
X113214383Y-88654660D01*
X113205500Y-88608573D01*
X113205500Y-86294108D01*
X113986100Y-86294108D01*
X113986100Y-86425891D01*
X114019094Y-86549030D01*
X114020209Y-86553189D01*
X114032379Y-86574268D01*
X114032380Y-86574269D01*
X114035886Y-86580341D01*
X114086100Y-86667314D01*
X114179286Y-86760500D01*
X114293414Y-86826392D01*
X114420708Y-86860500D01*
X114420710Y-86860500D01*
X114552490Y-86860500D01*
X114552492Y-86860500D01*
X114679786Y-86826392D01*
X114793914Y-86760500D01*
X114887100Y-86667314D01*
X114952992Y-86553186D01*
X114987100Y-86425892D01*
X114987100Y-86294108D01*
X114952992Y-86166814D01*
X114952296Y-86165608D01*
X114949342Y-86160115D01*
X114947321Y-86156991D01*
X114917467Y-86105282D01*
X114917464Y-86105279D01*
X114917462Y-86105276D01*
X116994800Y-86105276D01*
X116994800Y-86309922D01*
X117021909Y-86481082D01*
X117026809Y-86512017D01*
X117090044Y-86706631D01*
X117117492Y-86760500D01*
X117182944Y-86888957D01*
X117182947Y-86888960D01*
X117215317Y-86933514D01*
X117215321Y-86933519D01*
X117215323Y-86933521D01*
X117215324Y-86933522D01*
X117758303Y-86390542D01*
X117819624Y-86357059D01*
X117889315Y-86362043D01*
X117945249Y-86403914D01*
X117953367Y-86416222D01*
X117974720Y-86453206D01*
X118049194Y-86527680D01*
X118049195Y-86527681D01*
X118049197Y-86527682D01*
X118086173Y-86549030D01*
X118134388Y-86599596D01*
X118147612Y-86668203D01*
X118121644Y-86733068D01*
X118111854Y-86744098D01*
X117568875Y-87287073D01*
X117568876Y-87287073D01*
X117568876Y-87287074D01*
X117613450Y-87319459D01*
X117669416Y-87347975D01*
X117795763Y-87412353D01*
X117795765Y-87412353D01*
X117795768Y-87412355D01*
X117990382Y-87475590D01*
X118192483Y-87507600D01*
X118397116Y-87507600D01*
X118397117Y-87507600D01*
X118599217Y-87475590D01*
X118793831Y-87412355D01*
X118976149Y-87319459D01*
X119020721Y-87287074D01*
X118477745Y-86744098D01*
X118444260Y-86682775D01*
X118449244Y-86613083D01*
X118491116Y-86557150D01*
X118503418Y-86549034D01*
X118540406Y-86527680D01*
X118614880Y-86453206D01*
X118636229Y-86416227D01*
X118686794Y-86368013D01*
X118755400Y-86354788D01*
X118820266Y-86380755D01*
X118831297Y-86390546D01*
X119374273Y-86933522D01*
X119374273Y-86933521D01*
X119374274Y-86933522D01*
X119374274Y-86933521D01*
X119385555Y-86928848D01*
X119388960Y-86915278D01*
X119392969Y-86907789D01*
X119406659Y-86888949D01*
X119443986Y-86815692D01*
X120179529Y-86815692D01*
X120179529Y-86947475D01*
X120196583Y-87011123D01*
X120213637Y-87074772D01*
X120246583Y-87131834D01*
X120279529Y-87188898D01*
X120372715Y-87282084D01*
X120486843Y-87347976D01*
X120614137Y-87382084D01*
X120614139Y-87382084D01*
X120745919Y-87382084D01*
X120745921Y-87382084D01*
X120873215Y-87347976D01*
X120987343Y-87282084D01*
X121080529Y-87188898D01*
X121146421Y-87074770D01*
X121180529Y-86947476D01*
X121180529Y-86815692D01*
X121146421Y-86688398D01*
X121146416Y-86688390D01*
X121134246Y-86667310D01*
X121080529Y-86574270D01*
X120987343Y-86481084D01*
X120939059Y-86453207D01*
X120938098Y-86452652D01*
X120938096Y-86452651D01*
X120930279Y-86448138D01*
X120873216Y-86415192D01*
X120790019Y-86392900D01*
X120783040Y-86391030D01*
X120783030Y-86391026D01*
X120745922Y-86381084D01*
X120745921Y-86381084D01*
X120614137Y-86381084D01*
X120486837Y-86415193D01*
X120486835Y-86415194D01*
X120372725Y-86481077D01*
X120372711Y-86481086D01*
X120372706Y-86481090D01*
X120279535Y-86574261D01*
X120279531Y-86574266D01*
X120279522Y-86574280D01*
X120213639Y-86688390D01*
X120213638Y-86688392D01*
X120213637Y-86688396D01*
X120179529Y-86815692D01*
X119443986Y-86815692D01*
X119476811Y-86751270D01*
X119476812Y-86751268D01*
X119499554Y-86706634D01*
X119562790Y-86512017D01*
X119594800Y-86309917D01*
X119594800Y-86105282D01*
X119586469Y-86052686D01*
X119583580Y-86034443D01*
X119562790Y-85903182D01*
X119499555Y-85708568D01*
X119499553Y-85708565D01*
X119499553Y-85708563D01*
X119406659Y-85526250D01*
X119406652Y-85526240D01*
X119397955Y-85514271D01*
X119388415Y-85487533D01*
X119374273Y-85481675D01*
X118831297Y-86024653D01*
X118769974Y-86058138D01*
X118700283Y-86053154D01*
X118644349Y-86011283D01*
X118636230Y-85998974D01*
X118614880Y-85961994D01*
X118540406Y-85887520D01*
X118503425Y-85866169D01*
X118455210Y-85815603D01*
X118441986Y-85746996D01*
X118467954Y-85682131D01*
X118477736Y-85671109D01*
X119020722Y-85128124D01*
X119020721Y-85128123D01*
X119020720Y-85128122D01*
X119020719Y-85128121D01*
X119020714Y-85128117D01*
X118976160Y-85095747D01*
X118976157Y-85095744D01*
X118895379Y-85054586D01*
X118793831Y-85002844D01*
X118599217Y-84939609D01*
X118599211Y-84939608D01*
X118397122Y-84907600D01*
X118397117Y-84907600D01*
X118192483Y-84907600D01*
X118192478Y-84907600D01*
X117990387Y-84939608D01*
X117990385Y-84939608D01*
X117990382Y-84939609D01*
X117893075Y-84971226D01*
X117795763Y-85002845D01*
X117613440Y-85095745D01*
X117568877Y-85128122D01*
X117568877Y-85128123D01*
X117568877Y-85128124D01*
X117891253Y-85450500D01*
X118111855Y-85671101D01*
X118145340Y-85732424D01*
X118140356Y-85802115D01*
X118098485Y-85858049D01*
X118086174Y-85866169D01*
X118049197Y-85887517D01*
X118049192Y-85887521D01*
X117974721Y-85961992D01*
X117974715Y-85962000D01*
X117953368Y-85998974D01*
X117902801Y-86047189D01*
X117834193Y-86060411D01*
X117769329Y-86034443D01*
X117758301Y-86024654D01*
X117215324Y-85481677D01*
X117215323Y-85481677D01*
X117215322Y-85481677D01*
X117182945Y-85526240D01*
X117090045Y-85708563D01*
X117059648Y-85802115D01*
X117026809Y-85903182D01*
X117026808Y-85903185D01*
X117026808Y-85903187D01*
X116994800Y-86105276D01*
X114917462Y-86105276D01*
X114887100Y-86052686D01*
X114793914Y-85959500D01*
X114696369Y-85903182D01*
X114679787Y-85893608D01*
X114616139Y-85876554D01*
X114552492Y-85859500D01*
X114552491Y-85859500D01*
X114420708Y-85859500D01*
X114293408Y-85893609D01*
X114293406Y-85893610D01*
X114179296Y-85959493D01*
X114179282Y-85959502D01*
X114179277Y-85959506D01*
X114086106Y-86052677D01*
X114086102Y-86052682D01*
X114086093Y-86052696D01*
X114020210Y-86166806D01*
X114020209Y-86166808D01*
X114020208Y-86166812D01*
X113986100Y-86294108D01*
X113205500Y-86294108D01*
X113205500Y-85278108D01*
X115247300Y-85278108D01*
X115247300Y-85409891D01*
X115258180Y-85450497D01*
X115281408Y-85537188D01*
X115289094Y-85550500D01*
X115314354Y-85594250D01*
X115347300Y-85651314D01*
X115440486Y-85744500D01*
X115554614Y-85810392D01*
X115681908Y-85844500D01*
X115681910Y-85844500D01*
X115813690Y-85844500D01*
X115813692Y-85844500D01*
X115940986Y-85810392D01*
X116055114Y-85744500D01*
X116148300Y-85651314D01*
X116214192Y-85537186D01*
X116248300Y-85409892D01*
X116248300Y-85278108D01*
X116214192Y-85150814D01*
X116214187Y-85150806D01*
X116194029Y-85115891D01*
X116148300Y-85036686D01*
X116055114Y-84943500D01*
X116055112Y-84943499D01*
X116055110Y-84943497D01*
X115992934Y-84907600D01*
X115940988Y-84877608D01*
X115863377Y-84856813D01*
X115835558Y-84849359D01*
X115813692Y-84843500D01*
X115813691Y-84843500D01*
X115681908Y-84843500D01*
X115554608Y-84877609D01*
X115554606Y-84877610D01*
X115440496Y-84943493D01*
X115440482Y-84943502D01*
X115440477Y-84943506D01*
X115347306Y-85036677D01*
X115347302Y-85036682D01*
X115347293Y-85036696D01*
X115281410Y-85150806D01*
X115281409Y-85150808D01*
X115281408Y-85150812D01*
X115247300Y-85278108D01*
X113205500Y-85278108D01*
X113205500Y-84546289D01*
X120904592Y-84546289D01*
X120904592Y-84678073D01*
X120921646Y-84741720D01*
X120938700Y-84805368D01*
X120960716Y-84843500D01*
X121004592Y-84919495D01*
X121097778Y-85012681D01*
X121211906Y-85078573D01*
X121339200Y-85112681D01*
X121339202Y-85112681D01*
X121470982Y-85112681D01*
X121470984Y-85112681D01*
X121598278Y-85078573D01*
X121712406Y-85012681D01*
X121740983Y-84984104D01*
X122435500Y-84984104D01*
X122435500Y-84984108D01*
X122435500Y-85115892D01*
X122449654Y-85168716D01*
X122469608Y-85243187D01*
X122489770Y-85278108D01*
X122535500Y-85357314D01*
X122628686Y-85450500D01*
X122742814Y-85516392D01*
X122870108Y-85550500D01*
X122870110Y-85550500D01*
X123001890Y-85550500D01*
X123001892Y-85550500D01*
X123129186Y-85516392D01*
X123243314Y-85450500D01*
X123336500Y-85357314D01*
X123402392Y-85243186D01*
X123436500Y-85115892D01*
X123436500Y-84984108D01*
X123402392Y-84856814D01*
X123366997Y-84795508D01*
X123885900Y-84795508D01*
X123885900Y-84798301D01*
X123885900Y-84927291D01*
X123899738Y-84978939D01*
X123899741Y-84978949D01*
X123901124Y-84984108D01*
X123920008Y-85054587D01*
X123933856Y-85078572D01*
X123939312Y-85088023D01*
X123939313Y-85088024D01*
X123985897Y-85168710D01*
X123985899Y-85168712D01*
X123985900Y-85168714D01*
X124079086Y-85261900D01*
X124193214Y-85327792D01*
X124320508Y-85361900D01*
X124320510Y-85361900D01*
X124452290Y-85361900D01*
X124452292Y-85361900D01*
X124579586Y-85327792D01*
X124693714Y-85261900D01*
X124786900Y-85168714D01*
X124852792Y-85054586D01*
X124886900Y-84927292D01*
X124886900Y-84795508D01*
X124852792Y-84668214D01*
X124852787Y-84668206D01*
X124841983Y-84649493D01*
X124786900Y-84554086D01*
X124693714Y-84460900D01*
X124621129Y-84418993D01*
X124621129Y-84418992D01*
X124621127Y-84418992D01*
X124621125Y-84418991D01*
X124579587Y-84395008D01*
X124515939Y-84377954D01*
X124452292Y-84360900D01*
X124452291Y-84360900D01*
X124320508Y-84360900D01*
X124193208Y-84395009D01*
X124193206Y-84395010D01*
X124079096Y-84460893D01*
X124079082Y-84460902D01*
X124079077Y-84460906D01*
X123985906Y-84554077D01*
X123985902Y-84554082D01*
X123985893Y-84554096D01*
X123920010Y-84668206D01*
X123920009Y-84668208D01*
X123887377Y-84789994D01*
X123887375Y-84790001D01*
X123885979Y-84795214D01*
X123885900Y-84795508D01*
X123366997Y-84795508D01*
X123336500Y-84742686D01*
X123243314Y-84649500D01*
X123225146Y-84639010D01*
X123194899Y-84621547D01*
X123194896Y-84621546D01*
X123186250Y-84616554D01*
X123129187Y-84583608D01*
X123019007Y-84554086D01*
X123012953Y-84552463D01*
X123012951Y-84552463D01*
X123010077Y-84551693D01*
X123001892Y-84549500D01*
X123001889Y-84549500D01*
X122870108Y-84549500D01*
X122742808Y-84583609D01*
X122742806Y-84583610D01*
X122628696Y-84649493D01*
X122628682Y-84649502D01*
X122628677Y-84649506D01*
X122535506Y-84742677D01*
X122535502Y-84742682D01*
X122535493Y-84742696D01*
X122469610Y-84856806D01*
X122469609Y-84856809D01*
X122469608Y-84856811D01*
X122469608Y-84856812D01*
X122447423Y-84939609D01*
X122447422Y-84939608D01*
X122435500Y-84984104D01*
X121740983Y-84984104D01*
X121805592Y-84919495D01*
X121805762Y-84919199D01*
X121805763Y-84919198D01*
X121805785Y-84919210D01*
X121805918Y-84918928D01*
X121808778Y-84913978D01*
X121869504Y-84808795D01*
X121871081Y-84806256D01*
X121871483Y-84805368D01*
X121871484Y-84805367D01*
X121905592Y-84678073D01*
X121905592Y-84546289D01*
X121871484Y-84418995D01*
X121805592Y-84304867D01*
X121712406Y-84211681D01*
X121655342Y-84178735D01*
X121598279Y-84145789D01*
X121534631Y-84128735D01*
X121470984Y-84111681D01*
X121470983Y-84111681D01*
X121339200Y-84111681D01*
X121211900Y-84145790D01*
X121211898Y-84145791D01*
X121097788Y-84211674D01*
X121097774Y-84211683D01*
X121097769Y-84211687D01*
X121004598Y-84304858D01*
X121004594Y-84304863D01*
X121004585Y-84304877D01*
X120938699Y-84418991D01*
X120927775Y-84459763D01*
X120927760Y-84459821D01*
X120927471Y-84460902D01*
X120904592Y-84546289D01*
X113205500Y-84546289D01*
X113205500Y-83414054D01*
X113205495Y-83412746D01*
X113205494Y-83412702D01*
X113205494Y-83412534D01*
X113205481Y-83410763D01*
X113196316Y-83351565D01*
X113192267Y-83338473D01*
X113191268Y-83268613D01*
X113228198Y-83209300D01*
X113259229Y-83189829D01*
X113259038Y-83189453D01*
X113263248Y-83187307D01*
X113263310Y-83187269D01*
X113263368Y-83187244D01*
X113263379Y-83187241D01*
X113487845Y-83072870D01*
X113691656Y-82924793D01*
X113869793Y-82746656D01*
X114017870Y-82542845D01*
X114132241Y-82318379D01*
X114210090Y-82078785D01*
X114249500Y-81829962D01*
X114249500Y-81578038D01*
X114210090Y-81329215D01*
X114210089Y-81329211D01*
X114210089Y-81329210D01*
X114134851Y-81097652D01*
X114134847Y-81097643D01*
X114132241Y-81089621D01*
X114132239Y-81089618D01*
X114132239Y-81089616D01*
X114130002Y-81085225D01*
X114129688Y-81084421D01*
X114128955Y-81083169D01*
X114079835Y-80986769D01*
X114079834Y-80986767D01*
X114047449Y-80923207D01*
X114036064Y-80889797D01*
X114033503Y-80876158D01*
X114035282Y-80858421D01*
X114034553Y-80854538D01*
X114036039Y-80850876D01*
X114040477Y-80806637D01*
X114083912Y-80751936D01*
X114086668Y-80749994D01*
X114137812Y-80729012D01*
X114139729Y-80728693D01*
X114159920Y-80727022D01*
X114454937Y-80726805D01*
X114483837Y-80730938D01*
X114489872Y-80731801D01*
X114497188Y-80733943D01*
X114502929Y-80735624D01*
X114561736Y-80773353D01*
X114590809Y-80836887D01*
X114583892Y-80898953D01*
X114580933Y-80906684D01*
X114568228Y-80931250D01*
X114537917Y-80976613D01*
X114534024Y-80981356D01*
X114531132Y-80986768D01*
X114531132Y-80986769D01*
X114531131Y-80986770D01*
X114519500Y-81045247D01*
X114519500Y-82784752D01*
X114531131Y-82843229D01*
X114531132Y-82843230D01*
X114531132Y-82843231D01*
X114531134Y-82843233D01*
X114575447Y-82909552D01*
X114641765Y-82953864D01*
X114641767Y-82953866D01*
X114641770Y-82953868D01*
X114692612Y-82963981D01*
X114695337Y-82964703D01*
X114700249Y-82965500D01*
X116439750Y-82965500D01*
X116443873Y-82965500D01*
X116451732Y-82963116D01*
X116476595Y-82958171D01*
X116486258Y-82956249D01*
X116492354Y-82955648D01*
X116492386Y-82955639D01*
X116503311Y-82952902D01*
X116513515Y-82943654D01*
X116564552Y-82909552D01*
X116608867Y-82843231D01*
X116608867Y-82843229D01*
X116608868Y-82843229D01*
X116611030Y-82832355D01*
X116611166Y-82832090D01*
X116611249Y-82831256D01*
X116620068Y-82786917D01*
X116620500Y-82784931D01*
X116620500Y-81047295D01*
X116620500Y-81045249D01*
X116620499Y-81045247D01*
X116608868Y-80986770D01*
X116608867Y-80986769D01*
X116572867Y-80932891D01*
X116557637Y-80901060D01*
X116553561Y-80888044D01*
X116552317Y-80818187D01*
X116589038Y-80758745D01*
X116644401Y-80730083D01*
X116652443Y-80728255D01*
X116679833Y-80725169D01*
X117597766Y-80724495D01*
X117599975Y-80725142D01*
X117602208Y-80724571D01*
X117632700Y-80729490D01*
X117641319Y-80732014D01*
X117656326Y-80741642D01*
X117664820Y-80744130D01*
X117676414Y-80754530D01*
X117700125Y-80769743D01*
X117729198Y-80833277D01*
X117719308Y-80902443D01*
X117679020Y-80951582D01*
X117674860Y-80954583D01*
X117667397Y-80958745D01*
X117665652Y-80960623D01*
X117662658Y-80961388D01*
X117649769Y-80968579D01*
X117612410Y-80984054D01*
X117612393Y-80984063D01*
X117440343Y-81099022D01*
X117440336Y-81099028D01*
X117294027Y-81245337D01*
X117179057Y-81417404D01*
X117099870Y-81608579D01*
X117099864Y-81608604D01*
X117059500Y-81811527D01*
X117059500Y-81811530D01*
X117059500Y-82018469D01*
X117059500Y-82018471D01*
X117059499Y-82018471D01*
X117099864Y-82221394D01*
X117099870Y-82221421D01*
X117165937Y-82380923D01*
X117165938Y-82380923D01*
X117179059Y-82412599D01*
X117179062Y-82412604D01*
X117192835Y-82433216D01*
X117294025Y-82584659D01*
X117440336Y-82730970D01*
X117440340Y-82730973D01*
X117440342Y-82730975D01*
X117440345Y-82730977D01*
X117440349Y-82730980D01*
X117440348Y-82730980D01*
X117440411Y-82731032D01*
X117440448Y-82731046D01*
X117612402Y-82845941D01*
X117803580Y-82925130D01*
X117948052Y-82953867D01*
X117991714Y-82962552D01*
X118003559Y-82964908D01*
X118005794Y-82965409D01*
X118006532Y-82965500D01*
X118213466Y-82965500D01*
X118217586Y-82965500D01*
X118225435Y-82963118D01*
X118416420Y-82925130D01*
X118607598Y-82845941D01*
X118779655Y-82730977D01*
X118925977Y-82584655D01*
X119040941Y-82412598D01*
X119102343Y-82264357D01*
X119120349Y-82234010D01*
X119122525Y-82231310D01*
X119127446Y-82225202D01*
X119184836Y-82185354D01*
X119254661Y-82182859D01*
X119314748Y-82218507D01*
X119318008Y-82222009D01*
X119318155Y-82222166D01*
X119345334Y-82268347D01*
X119392204Y-82412596D01*
X119398904Y-82433216D01*
X119495374Y-82622548D01*
X119495375Y-82622550D01*
X119530674Y-82671137D01*
X119534728Y-82676716D01*
X120040297Y-82171147D01*
X120101619Y-82137663D01*
X120171311Y-82142647D01*
X120227244Y-82184519D01*
X120235363Y-82196828D01*
X120249896Y-82222000D01*
X120249899Y-82222004D01*
X120249901Y-82222007D01*
X120342993Y-82315099D01*
X120368169Y-82329634D01*
X120416384Y-82380202D01*
X120429606Y-82448809D01*
X120403638Y-82513673D01*
X120393849Y-82524702D01*
X119888282Y-83030268D01*
X119888282Y-83030269D01*
X119888282Y-83030270D01*
X119942449Y-83069624D01*
X120131782Y-83166095D01*
X120131784Y-83166096D01*
X120333866Y-83231756D01*
X120333867Y-83231756D01*
X120333870Y-83231757D01*
X120543754Y-83265000D01*
X120756245Y-83265000D01*
X120756246Y-83265000D01*
X120869050Y-83247132D01*
X120956487Y-83233284D01*
X120956493Y-83233283D01*
X120966127Y-83231757D01*
X120966130Y-83231757D01*
X121168217Y-83166095D01*
X121357554Y-83069622D01*
X121359976Y-83067862D01*
X121379121Y-83053953D01*
X121405858Y-83044412D01*
X121411717Y-83030269D01*
X120906149Y-82524702D01*
X120872664Y-82463379D01*
X120877648Y-82393688D01*
X120919519Y-82337754D01*
X120931822Y-82329639D01*
X120957007Y-82315099D01*
X121050099Y-82222007D01*
X121064634Y-82196830D01*
X121115199Y-82148616D01*
X121183805Y-82135391D01*
X121248671Y-82161358D01*
X121259702Y-82171149D01*
X121765269Y-82676717D01*
X121765269Y-82676716D01*
X121765270Y-82676717D01*
X121765270Y-82676716D01*
X121778738Y-82671137D01*
X121784955Y-82649967D01*
X121788954Y-82644118D01*
X121792227Y-82639614D01*
X121804622Y-82622554D01*
X121901095Y-82433217D01*
X121952833Y-82273981D01*
X121968405Y-82242311D01*
X121974790Y-82232973D01*
X122028878Y-82188744D01*
X122098292Y-82180779D01*
X122160989Y-82211603D01*
X122163735Y-82214123D01*
X122164695Y-82215005D01*
X122195390Y-82258890D01*
X122245937Y-82380923D01*
X122245938Y-82380923D01*
X122259059Y-82412599D01*
X122259062Y-82412604D01*
X122272835Y-82433216D01*
X122374025Y-82584659D01*
X122520336Y-82730970D01*
X122520340Y-82730973D01*
X122520342Y-82730975D01*
X122520345Y-82730977D01*
X122520349Y-82730980D01*
X122520348Y-82730980D01*
X122520411Y-82731032D01*
X122520448Y-82731046D01*
X122692402Y-82845941D01*
X122883580Y-82925130D01*
X123028052Y-82953867D01*
X123071714Y-82962552D01*
X123083559Y-82964908D01*
X123085794Y-82965409D01*
X123086532Y-82965500D01*
X123293466Y-82965500D01*
X123297586Y-82965500D01*
X123305435Y-82963118D01*
X123496420Y-82925130D01*
X123687598Y-82845941D01*
X123859655Y-82730977D01*
X124005977Y-82584655D01*
X124120941Y-82412598D01*
X124200130Y-82221420D01*
X124240500Y-82018465D01*
X124240500Y-81811535D01*
X124200130Y-81608580D01*
X124120941Y-81417402D01*
X124006046Y-81245449D01*
X124006036Y-81245417D01*
X124005980Y-81245348D01*
X124005980Y-81245349D01*
X124005977Y-81245345D01*
X124005975Y-81245342D01*
X124005972Y-81245339D01*
X124005970Y-81245336D01*
X123859659Y-81099025D01*
X123687600Y-80984060D01*
X123687599Y-80984059D01*
X123687597Y-80984058D01*
X123687595Y-80984057D01*
X123687593Y-80984056D01*
X123654099Y-80970182D01*
X123642580Y-80965411D01*
X123641071Y-80964195D01*
X123639151Y-80963930D01*
X123612228Y-80947403D01*
X123605207Y-80941744D01*
X123595039Y-80927100D01*
X123588178Y-80921571D01*
X123581323Y-80907345D01*
X123565360Y-80884354D01*
X123562866Y-80814529D01*
X123598518Y-80754440D01*
X123654445Y-80724530D01*
X123659430Y-80723350D01*
X123667421Y-80722414D01*
X123669657Y-80721379D01*
X123672689Y-80721797D01*
X123687891Y-80720017D01*
X125231314Y-80718883D01*
X125266248Y-80723878D01*
X125274867Y-80726402D01*
X125333673Y-80764131D01*
X125362746Y-80827665D01*
X125352856Y-80896831D01*
X125312588Y-80945955D01*
X125308427Y-80948958D01*
X125283313Y-80962970D01*
X125232411Y-80984053D01*
X125232393Y-80984063D01*
X125060343Y-81099022D01*
X125060336Y-81099028D01*
X124914027Y-81245337D01*
X124799057Y-81417404D01*
X124719870Y-81608579D01*
X124719864Y-81608604D01*
X124679500Y-81811527D01*
X124679500Y-81811530D01*
X124679500Y-82018469D01*
X124679500Y-82018471D01*
X124679499Y-82018471D01*
X124719864Y-82221394D01*
X124719870Y-82221421D01*
X124785937Y-82380923D01*
X124785938Y-82380923D01*
X124799059Y-82412599D01*
X124799062Y-82412604D01*
X124812835Y-82433216D01*
X124914025Y-82584659D01*
X125060336Y-82730970D01*
X125060340Y-82730973D01*
X125060342Y-82730975D01*
X125060345Y-82730977D01*
X125060349Y-82730980D01*
X125060348Y-82730980D01*
X125060411Y-82731032D01*
X125060448Y-82731046D01*
X125232402Y-82845941D01*
X125423580Y-82925130D01*
X125568052Y-82953867D01*
X125611714Y-82962552D01*
X125623559Y-82964908D01*
X125625794Y-82965409D01*
X125626532Y-82965500D01*
X125833466Y-82965500D01*
X125837586Y-82965500D01*
X125845435Y-82963118D01*
X126036420Y-82925130D01*
X126227598Y-82845941D01*
X126399655Y-82730977D01*
X126545977Y-82584655D01*
X126660941Y-82412598D01*
X126740130Y-82221420D01*
X126780500Y-82018465D01*
X126780500Y-81811535D01*
X126740130Y-81608580D01*
X126660941Y-81417402D01*
X126546046Y-81245449D01*
X126546036Y-81245417D01*
X126545980Y-81245348D01*
X126545980Y-81245349D01*
X126545977Y-81245345D01*
X126545975Y-81245342D01*
X126545972Y-81245339D01*
X126545970Y-81245336D01*
X126399659Y-81099025D01*
X126227595Y-80984056D01*
X126178080Y-80963547D01*
X126176531Y-80962299D01*
X126174563Y-80962026D01*
X126147731Y-80945541D01*
X126143600Y-80942212D01*
X126140712Y-80939884D01*
X126130541Y-80925238D01*
X126123677Y-80919706D01*
X126116843Y-80905510D01*
X126100862Y-80882495D01*
X126098366Y-80812670D01*
X126134016Y-80752579D01*
X126189948Y-80722666D01*
X126194927Y-80721487D01*
X126203004Y-80720541D01*
X126205255Y-80719501D01*
X126208290Y-80719922D01*
X126223396Y-80718153D01*
X127775830Y-80717012D01*
X127810768Y-80722009D01*
X127819384Y-80724532D01*
X127878190Y-80762263D01*
X127907262Y-80825798D01*
X127897369Y-80894963D01*
X127857108Y-80944081D01*
X127852946Y-80947085D01*
X127827828Y-80961100D01*
X127772405Y-80984056D01*
X127772398Y-80984060D01*
X127600339Y-81099025D01*
X127454027Y-81245337D01*
X127339057Y-81417404D01*
X127259870Y-81608579D01*
X127259864Y-81608604D01*
X127219500Y-81811527D01*
X127219500Y-81811530D01*
X127219500Y-82018469D01*
X127219500Y-82018471D01*
X127219499Y-82018471D01*
X127259864Y-82221394D01*
X127259870Y-82221421D01*
X127325937Y-82380923D01*
X127325938Y-82380923D01*
X127339059Y-82412599D01*
X127339062Y-82412604D01*
X127352835Y-82433216D01*
X127454025Y-82584659D01*
X127600336Y-82730970D01*
X127600340Y-82730973D01*
X127600342Y-82730975D01*
X127600345Y-82730977D01*
X127600349Y-82730980D01*
X127600348Y-82730980D01*
X127600411Y-82731032D01*
X127600448Y-82731046D01*
X127772402Y-82845941D01*
X127963580Y-82925130D01*
X128108052Y-82953867D01*
X128151714Y-82962552D01*
X128163559Y-82964908D01*
X128165794Y-82965409D01*
X128166532Y-82965500D01*
X128373466Y-82965500D01*
X128377586Y-82965500D01*
X128385435Y-82963118D01*
X128576420Y-82925130D01*
X128767598Y-82845941D01*
X128939655Y-82730977D01*
X129085977Y-82584655D01*
X129200941Y-82412598D01*
X129280130Y-82221420D01*
X129320500Y-82018465D01*
X129320500Y-81811535D01*
X129280130Y-81608580D01*
X129200941Y-81417402D01*
X129086046Y-81245449D01*
X129086036Y-81245417D01*
X129085980Y-81245348D01*
X129085980Y-81245349D01*
X129085977Y-81245345D01*
X129085975Y-81245342D01*
X129085972Y-81245339D01*
X129085970Y-81245336D01*
X128939662Y-81099028D01*
X128939655Y-81099022D01*
X128767605Y-80984063D01*
X128767596Y-80984058D01*
X128767595Y-80984057D01*
X128721198Y-80964839D01*
X128713579Y-80961683D01*
X128712030Y-80960435D01*
X128710062Y-80960162D01*
X128683232Y-80943678D01*
X128676210Y-80938019D01*
X128666040Y-80923374D01*
X128659176Y-80917842D01*
X128652342Y-80903646D01*
X128636361Y-80880631D01*
X128633865Y-80810806D01*
X128669515Y-80750715D01*
X128725447Y-80720802D01*
X128730426Y-80719623D01*
X128738503Y-80718677D01*
X128740754Y-80717637D01*
X128743789Y-80718058D01*
X128758895Y-80716289D01*
X130320346Y-80715141D01*
X130355271Y-80720133D01*
G37*
G04 #@! TD.AperFunction*
G04 #@! TA.AperFunction,Conductor*
G36*
X121248671Y-99738158D02*
G01*
X121259702Y-99747949D01*
X121765269Y-100253517D01*
X121765269Y-100253516D01*
X121765270Y-100253517D01*
X121765270Y-100253516D01*
X121778738Y-100247937D01*
X121784955Y-100226767D01*
X121788954Y-100220918D01*
X121792227Y-100216414D01*
X121804622Y-100199354D01*
X121901095Y-100010017D01*
X121952833Y-99850781D01*
X121968405Y-99819111D01*
X121974790Y-99809773D01*
X122028878Y-99765544D01*
X122098292Y-99757579D01*
X122160989Y-99788403D01*
X122163735Y-99790923D01*
X122164695Y-99791805D01*
X122195390Y-99835689D01*
X122212072Y-99875962D01*
X122251225Y-99970487D01*
X122254925Y-99979418D01*
X122259058Y-99989396D01*
X122259060Y-99989399D01*
X122272835Y-100010016D01*
X122374025Y-100161459D01*
X122520336Y-100307770D01*
X122520340Y-100307773D01*
X122520342Y-100307775D01*
X122520345Y-100307777D01*
X122520349Y-100307780D01*
X122520348Y-100307780D01*
X122520411Y-100307832D01*
X122520448Y-100307846D01*
X122692402Y-100422741D01*
X122883580Y-100501930D01*
X122905773Y-100506344D01*
X122923568Y-100509884D01*
X122923577Y-100509885D01*
X122923609Y-100509892D01*
X122964146Y-100517955D01*
X122997417Y-100529691D01*
X123002832Y-100532524D01*
X123015667Y-100544907D01*
X123026055Y-100550341D01*
X123031852Y-100560522D01*
X123053114Y-100581035D01*
X123059914Y-100609803D01*
X123060628Y-100611057D01*
X123060550Y-100612496D01*
X123069187Y-100649031D01*
X123045947Y-100714923D01*
X122990783Y-100757785D01*
X122989147Y-100758429D01*
X122943698Y-100767047D01*
X121551096Y-100766711D01*
X121516163Y-100761680D01*
X121501596Y-100757399D01*
X121442827Y-100719611D01*
X121414449Y-100659992D01*
X121412422Y-100648520D01*
X121410916Y-100617234D01*
X121411032Y-100615760D01*
X121411716Y-100607070D01*
X120906148Y-100101502D01*
X120872663Y-100040179D01*
X120877647Y-99970487D01*
X120919519Y-99914554D01*
X120931818Y-99906441D01*
X120957007Y-99891899D01*
X121050099Y-99798807D01*
X121064634Y-99773630D01*
X121115199Y-99725416D01*
X121183805Y-99712191D01*
X121248671Y-99738158D01*
G37*
G04 #@! TD.AperFunction*
G04 #@! TA.AperFunction,Conductor*
G36*
X120171311Y-99719447D02*
G01*
X120227244Y-99761319D01*
X120235363Y-99773628D01*
X120249896Y-99798800D01*
X120249899Y-99798804D01*
X120249901Y-99798807D01*
X120342993Y-99891899D01*
X120368169Y-99906434D01*
X120416384Y-99957002D01*
X120429606Y-100025609D01*
X120403638Y-100090473D01*
X120393849Y-100101502D01*
X119888282Y-100607068D01*
X119888282Y-100607069D01*
X119888773Y-100613307D01*
X119888889Y-100614779D01*
X119888888Y-100614786D01*
X119888889Y-100614788D01*
X119886621Y-100650006D01*
X119885652Y-100654621D01*
X119883502Y-100664853D01*
X119850452Y-100726411D01*
X119793238Y-100759393D01*
X119781947Y-100762317D01*
X119750831Y-100766277D01*
X118365946Y-100765943D01*
X118331008Y-100760910D01*
X118325146Y-100759187D01*
X118310137Y-100749535D01*
X118293018Y-100744499D01*
X118281360Y-100731030D01*
X118266379Y-100721397D01*
X118258970Y-100705163D01*
X118247292Y-100691671D01*
X118244766Y-100674038D01*
X118237371Y-100657833D01*
X118239915Y-100640169D01*
X118237386Y-100622507D01*
X118244793Y-100606309D01*
X118247334Y-100588677D01*
X118259024Y-100575193D01*
X118266445Y-100558967D01*
X118293077Y-100535914D01*
X118293099Y-100535890D01*
X118294625Y-100534909D01*
X118337414Y-100517644D01*
X118416420Y-100501930D01*
X118607598Y-100422741D01*
X118779655Y-100307777D01*
X118925977Y-100161455D01*
X119040941Y-99989398D01*
X119102343Y-99841157D01*
X119120349Y-99810810D01*
X119122525Y-99808110D01*
X119127446Y-99802002D01*
X119184836Y-99762154D01*
X119254661Y-99759659D01*
X119314748Y-99795307D01*
X119318008Y-99798809D01*
X119318155Y-99798966D01*
X119345334Y-99845147D01*
X119392204Y-99989396D01*
X119398904Y-100010016D01*
X119495374Y-100199348D01*
X119495375Y-100199350D01*
X119530674Y-100247937D01*
X119534728Y-100253516D01*
X120040297Y-99747947D01*
X120101619Y-99714463D01*
X120171311Y-99719447D01*
G37*
G04 #@! TD.AperFunction*
G04 #@! TA.AperFunction,Conductor*
G36*
X119777199Y-80727914D02*
G01*
X119792200Y-80732306D01*
X119851008Y-80770034D01*
X119851012Y-80770039D01*
X119859756Y-80780116D01*
X119868923Y-80783164D01*
X119885914Y-80797360D01*
X120393850Y-81305296D01*
X120427335Y-81366619D01*
X120422351Y-81436311D01*
X120380479Y-81492244D01*
X120368173Y-81500362D01*
X120342996Y-81514898D01*
X120342990Y-81514903D01*
X120249903Y-81607990D01*
X120249898Y-81607996D01*
X120235362Y-81633173D01*
X120184793Y-81681387D01*
X120116185Y-81694607D01*
X120051322Y-81668637D01*
X120040296Y-81658850D01*
X119534728Y-81153282D01*
X119534727Y-81153282D01*
X119495380Y-81207438D01*
X119398906Y-81396777D01*
X119347165Y-81556017D01*
X119331595Y-81587685D01*
X119325211Y-81597022D01*
X119271123Y-81641253D01*
X119201710Y-81649220D01*
X119139010Y-81618396D01*
X119139008Y-81618394D01*
X119135327Y-81615015D01*
X119104609Y-81571110D01*
X119047004Y-81432037D01*
X119040946Y-81417411D01*
X119040943Y-81417406D01*
X119040943Y-81417405D01*
X118925975Y-81245342D01*
X118925973Y-81245339D01*
X118779659Y-81099025D01*
X118607600Y-80984060D01*
X118607599Y-80984059D01*
X118607597Y-80984058D01*
X118607595Y-80984057D01*
X118607593Y-80984056D01*
X118571581Y-80969140D01*
X118570071Y-80967923D01*
X118568151Y-80967658D01*
X118541228Y-80951131D01*
X118540841Y-80950819D01*
X118534207Y-80945472D01*
X118524039Y-80930828D01*
X118517178Y-80925299D01*
X118510323Y-80911073D01*
X118494360Y-80888082D01*
X118491866Y-80818257D01*
X118527518Y-80758168D01*
X118583445Y-80728258D01*
X118588430Y-80727078D01*
X118596421Y-80726142D01*
X118598657Y-80725107D01*
X118601689Y-80725525D01*
X118616891Y-80723745D01*
X119742266Y-80722918D01*
X119777199Y-80727914D01*
G37*
G04 #@! TD.AperFunction*
G04 #@! TA.AperFunction,Conductor*
G36*
X122721723Y-80725745D02*
G01*
X122730343Y-80728270D01*
X122789149Y-80765993D01*
X122818228Y-80829525D01*
X122808343Y-80898691D01*
X122768083Y-80947816D01*
X122763923Y-80950819D01*
X122738799Y-80964839D01*
X122692406Y-80984055D01*
X122520337Y-81099027D01*
X122374026Y-81245338D01*
X122374020Y-81245346D01*
X122259063Y-81417392D01*
X122259055Y-81417406D01*
X122197657Y-81565637D01*
X122187444Y-81582850D01*
X122179649Y-81595988D01*
X122172553Y-81604794D01*
X122115162Y-81644644D01*
X122045337Y-81647139D01*
X121985248Y-81611488D01*
X121983579Y-81609696D01*
X121981831Y-81607818D01*
X121954664Y-81561651D01*
X121901095Y-81396782D01*
X121804624Y-81207449D01*
X121765270Y-81153282D01*
X121765269Y-81153282D01*
X121765268Y-81153282D01*
X121259702Y-81658849D01*
X121198379Y-81692334D01*
X121128687Y-81687350D01*
X121072754Y-81645478D01*
X121064634Y-81633169D01*
X121063179Y-81630649D01*
X121050099Y-81607993D01*
X120957007Y-81514901D01*
X120957004Y-81514899D01*
X120957000Y-81514896D01*
X120931828Y-81500363D01*
X120883613Y-81449796D01*
X120870391Y-81381189D01*
X120896359Y-81316324D01*
X120906133Y-81305312D01*
X121413203Y-80798241D01*
X121419503Y-80792366D01*
X121454642Y-80761809D01*
X121454943Y-80762110D01*
X121458797Y-80758196D01*
X121462407Y-80755058D01*
X121483765Y-80745258D01*
X121512605Y-80728611D01*
X121524345Y-80725562D01*
X121555402Y-80721585D01*
X122686798Y-80720753D01*
X122721723Y-80725745D01*
G37*
G04 #@! TD.AperFunction*
G04 #@! TD*
G04 #@! TA.AperFunction,Conductor*
G04 #@! TO.N,PGND*
G36*
X131725739Y-84019685D02*
G01*
X131771494Y-84072489D01*
X131782700Y-84124000D01*
X131782700Y-96876000D01*
X131763015Y-96943039D01*
X131710211Y-96988794D01*
X131658700Y-97000000D01*
X126124000Y-97000000D01*
X126056961Y-96980315D01*
X126011206Y-96927511D01*
X126000000Y-96876000D01*
X126000000Y-95082508D01*
X127007500Y-95082508D01*
X127007500Y-95214291D01*
X127041608Y-95341587D01*
X127065185Y-95382423D01*
X127107500Y-95455714D01*
X127200686Y-95548900D01*
X127314814Y-95614792D01*
X127442108Y-95648900D01*
X127442110Y-95648900D01*
X127573890Y-95648900D01*
X127573892Y-95648900D01*
X127701186Y-95614792D01*
X127815314Y-95548900D01*
X127908500Y-95455714D01*
X127974392Y-95341586D01*
X128008500Y-95214292D01*
X128008500Y-95082508D01*
X127974392Y-94955214D01*
X127908500Y-94841086D01*
X127815314Y-94747900D01*
X127750882Y-94710700D01*
X127701187Y-94682008D01*
X127637539Y-94664954D01*
X127573892Y-94647900D01*
X127442108Y-94647900D01*
X127314812Y-94682008D01*
X127200686Y-94747900D01*
X127200683Y-94747902D01*
X127107502Y-94841083D01*
X127107500Y-94841086D01*
X127041608Y-94955212D01*
X127007500Y-95082508D01*
X126000000Y-95082508D01*
X126000000Y-92322847D01*
X126503300Y-92322847D01*
X126503300Y-94062352D01*
X126514931Y-94120829D01*
X126514932Y-94120830D01*
X126559247Y-94187152D01*
X126625569Y-94231467D01*
X126625570Y-94231468D01*
X126684047Y-94243099D01*
X126684050Y-94243100D01*
X126684052Y-94243100D01*
X128423550Y-94243100D01*
X128423551Y-94243099D01*
X128438368Y-94240152D01*
X128482029Y-94231468D01*
X128482029Y-94231467D01*
X128482031Y-94231467D01*
X128548352Y-94187152D01*
X128592667Y-94120831D01*
X128592667Y-94120829D01*
X128592668Y-94120829D01*
X128604299Y-94062352D01*
X128604300Y-94062350D01*
X128604300Y-93758648D01*
X128623985Y-93691609D01*
X128676789Y-93645854D01*
X128745947Y-93635910D01*
X128809503Y-93664935D01*
X128839738Y-93706864D01*
X128840494Y-93706479D01*
X128939175Y-93900150D01*
X128978528Y-93954316D01*
X129610837Y-93322008D01*
X129627875Y-93385593D01*
X129693701Y-93499607D01*
X129786793Y-93592699D01*
X129900807Y-93658525D01*
X129964390Y-93675562D01*
X129332082Y-94307869D01*
X129332082Y-94307870D01*
X129386249Y-94347224D01*
X129575582Y-94443695D01*
X129777670Y-94509357D01*
X129987554Y-94542600D01*
X130200046Y-94542600D01*
X130409927Y-94509357D01*
X130409930Y-94509357D01*
X130612017Y-94443695D01*
X130801354Y-94347222D01*
X130855516Y-94307870D01*
X130855517Y-94307870D01*
X130223208Y-93675562D01*
X130286793Y-93658525D01*
X130400807Y-93592699D01*
X130493899Y-93499607D01*
X130559725Y-93385593D01*
X130576762Y-93322008D01*
X131209070Y-93954317D01*
X131209070Y-93954316D01*
X131248422Y-93900154D01*
X131344895Y-93710817D01*
X131410557Y-93508730D01*
X131410557Y-93508727D01*
X131443800Y-93298846D01*
X131443800Y-93086353D01*
X131410557Y-92876472D01*
X131410557Y-92876469D01*
X131344895Y-92674382D01*
X131248424Y-92485049D01*
X131209070Y-92430882D01*
X131209069Y-92430882D01*
X130576762Y-93063190D01*
X130559725Y-92999607D01*
X130493899Y-92885593D01*
X130400807Y-92792501D01*
X130286793Y-92726675D01*
X130223209Y-92709637D01*
X130855516Y-92077328D01*
X130801350Y-92037975D01*
X130612017Y-91941504D01*
X130409929Y-91875842D01*
X130200046Y-91842600D01*
X129987554Y-91842600D01*
X129777672Y-91875842D01*
X129777669Y-91875842D01*
X129575582Y-91941504D01*
X129386239Y-92037980D01*
X129332082Y-92077327D01*
X129332082Y-92077328D01*
X129964391Y-92709637D01*
X129900807Y-92726675D01*
X129786793Y-92792501D01*
X129693701Y-92885593D01*
X129627875Y-92999607D01*
X129610837Y-93063191D01*
X128978528Y-92430882D01*
X128978527Y-92430882D01*
X128939180Y-92485039D01*
X128840494Y-92678721D01*
X128839478Y-92678203D01*
X128799012Y-92728413D01*
X128732716Y-92750472D01*
X128665018Y-92733188D01*
X128617412Y-92682047D01*
X128604300Y-92626551D01*
X128604300Y-92322849D01*
X128604299Y-92322847D01*
X128592668Y-92264370D01*
X128592667Y-92264369D01*
X128548352Y-92198047D01*
X128482030Y-92153732D01*
X128482029Y-92153731D01*
X128423552Y-92142100D01*
X128423548Y-92142100D01*
X126684052Y-92142100D01*
X126684047Y-92142100D01*
X126625570Y-92153731D01*
X126625569Y-92153732D01*
X126559247Y-92198047D01*
X126514932Y-92264369D01*
X126514931Y-92264370D01*
X126503300Y-92322847D01*
X126000000Y-92322847D01*
X126000000Y-91103106D01*
X126843419Y-91103106D01*
X126843419Y-91234889D01*
X126877527Y-91362185D01*
X126910473Y-91419248D01*
X126943419Y-91476312D01*
X127036605Y-91569498D01*
X127150733Y-91635390D01*
X127278027Y-91669498D01*
X127278029Y-91669498D01*
X127409809Y-91669498D01*
X127409811Y-91669498D01*
X127537105Y-91635390D01*
X127651233Y-91569498D01*
X127744419Y-91476312D01*
X127810311Y-91362184D01*
X127844419Y-91234890D01*
X127844419Y-91103106D01*
X127844419Y-91094979D01*
X127846944Y-91094979D01*
X127855767Y-91038439D01*
X127902151Y-90986188D01*
X127967935Y-90967300D01*
X128038343Y-90967300D01*
X128168382Y-90941432D01*
X128231635Y-90928851D01*
X128413714Y-90853432D01*
X128577582Y-90743939D01*
X128716939Y-90604582D01*
X128826432Y-90440714D01*
X128901851Y-90258635D01*
X128940300Y-90065343D01*
X129479299Y-90065343D01*
X129517747Y-90258629D01*
X129517750Y-90258639D01*
X129593164Y-90440707D01*
X129593171Y-90440720D01*
X129702660Y-90604581D01*
X129702663Y-90604585D01*
X129842014Y-90743936D01*
X129842018Y-90743939D01*
X130005879Y-90853428D01*
X130005892Y-90853435D01*
X130187960Y-90928849D01*
X130187965Y-90928851D01*
X130187969Y-90928851D01*
X130187970Y-90928852D01*
X130381256Y-90967300D01*
X130381259Y-90967300D01*
X130578343Y-90967300D01*
X130708382Y-90941432D01*
X130771635Y-90928851D01*
X130953714Y-90853432D01*
X131117582Y-90743939D01*
X131256939Y-90604582D01*
X131366432Y-90440714D01*
X131441851Y-90258635D01*
X131480300Y-90065341D01*
X131480300Y-89868259D01*
X131480300Y-89868256D01*
X131441852Y-89674970D01*
X131441851Y-89674969D01*
X131441851Y-89674965D01*
X131441849Y-89674960D01*
X131366435Y-89492892D01*
X131366428Y-89492879D01*
X131256939Y-89329018D01*
X131256936Y-89329014D01*
X131117585Y-89189663D01*
X131117581Y-89189660D01*
X130953720Y-89080171D01*
X130953707Y-89080164D01*
X130771639Y-89004750D01*
X130771629Y-89004747D01*
X130578343Y-88966300D01*
X130578341Y-88966300D01*
X130381259Y-88966300D01*
X130381257Y-88966300D01*
X130187970Y-89004747D01*
X130187960Y-89004750D01*
X130005892Y-89080164D01*
X130005879Y-89080171D01*
X129842018Y-89189660D01*
X129842014Y-89189663D01*
X129702663Y-89329014D01*
X129702660Y-89329018D01*
X129593171Y-89492879D01*
X129593164Y-89492892D01*
X129517750Y-89674960D01*
X129517747Y-89674970D01*
X129479300Y-89868256D01*
X129479300Y-89868259D01*
X129479300Y-90065341D01*
X129479300Y-90065343D01*
X129479299Y-90065343D01*
X128940300Y-90065343D01*
X128940300Y-90065341D01*
X128940300Y-89868259D01*
X128940300Y-89868256D01*
X128901852Y-89674970D01*
X128901851Y-89674969D01*
X128901851Y-89674965D01*
X128901849Y-89674960D01*
X128826435Y-89492892D01*
X128826428Y-89492879D01*
X128716939Y-89329018D01*
X128716936Y-89329014D01*
X128577585Y-89189663D01*
X128577581Y-89189660D01*
X128413720Y-89080171D01*
X128413707Y-89080164D01*
X128231639Y-89004750D01*
X128231629Y-89004747D01*
X128038343Y-88966300D01*
X128038341Y-88966300D01*
X127841259Y-88966300D01*
X127841257Y-88966300D01*
X127647970Y-89004747D01*
X127647960Y-89004750D01*
X127465892Y-89080164D01*
X127465879Y-89080171D01*
X127302018Y-89189660D01*
X127302014Y-89189663D01*
X127162663Y-89329014D01*
X127162660Y-89329018D01*
X127053171Y-89492879D01*
X127053164Y-89492892D01*
X126977750Y-89674960D01*
X126977747Y-89674970D01*
X126939300Y-89868256D01*
X126939300Y-89868259D01*
X126939300Y-90065341D01*
X126939300Y-90065343D01*
X126939299Y-90065343D01*
X126977747Y-90258629D01*
X126977750Y-90258639D01*
X127053164Y-90440707D01*
X127053171Y-90440720D01*
X127133050Y-90560267D01*
X127153928Y-90626945D01*
X127135443Y-90694325D01*
X127091949Y-90736545D01*
X127036605Y-90768498D01*
X127036602Y-90768500D01*
X126943421Y-90861681D01*
X126943419Y-90861684D01*
X126877527Y-90975810D01*
X126843419Y-91103106D01*
X126000000Y-91103106D01*
X126000000Y-90832884D01*
X126019685Y-90765845D01*
X126036319Y-90745203D01*
X126176936Y-90604585D01*
X126176939Y-90604582D01*
X126286432Y-90440714D01*
X126361851Y-90258635D01*
X126400300Y-90065341D01*
X126400300Y-89868259D01*
X126400300Y-89868256D01*
X126361852Y-89674970D01*
X126361851Y-89674969D01*
X126361851Y-89674965D01*
X126361849Y-89674960D01*
X126286435Y-89492892D01*
X126286428Y-89492879D01*
X126176939Y-89329018D01*
X126176936Y-89329014D01*
X126036319Y-89188397D01*
X126002834Y-89127074D01*
X126000000Y-89100716D01*
X126000000Y-87132308D01*
X129572900Y-87132308D01*
X129572900Y-87264091D01*
X129607008Y-87391387D01*
X129639954Y-87448450D01*
X129672900Y-87505514D01*
X129766086Y-87598700D01*
X129880214Y-87664592D01*
X130007508Y-87698700D01*
X130007510Y-87698700D01*
X130139290Y-87698700D01*
X130139292Y-87698700D01*
X130266586Y-87664592D01*
X130380714Y-87598700D01*
X130473900Y-87505514D01*
X130539792Y-87391386D01*
X130573900Y-87264092D01*
X130573900Y-87132308D01*
X130539792Y-87005014D01*
X130473900Y-86890886D01*
X130380714Y-86797700D01*
X130323650Y-86764754D01*
X130266587Y-86731808D01*
X130202939Y-86714754D01*
X130139292Y-86697700D01*
X130007508Y-86697700D01*
X129880212Y-86731808D01*
X129766086Y-86797700D01*
X129766083Y-86797702D01*
X129672902Y-86890883D01*
X129672900Y-86890886D01*
X129607008Y-87005012D01*
X129572900Y-87132308D01*
X126000000Y-87132308D01*
X126000000Y-84124000D01*
X126019685Y-84056961D01*
X126072489Y-84011206D01*
X126124000Y-84000000D01*
X131658700Y-84000000D01*
X131725739Y-84019685D01*
G37*
G04 #@! TD.AperFunction*
G04 #@! TD*
M02*
