G04 #@! TF.GenerationSoftware,KiCad,Pcbnew,10.0.3*
G04 #@! TF.CreationDate,2026-07-09T21:53:46-07:00*
G04 #@! TF.ProjectId,scramble_hat,73637261-6d62-46c6-955f-6861742e6b69,rev?*
G04 #@! TF.SameCoordinates,Original*
G04 #@! TF.FileFunction,Copper,L4,Bot*
G04 #@! TF.FilePolarity,Positive*
%FSLAX46Y46*%
G04 Gerber Fmt 4.6, Leading zero omitted, Abs format (unit mm)*
G04 Created by KiCad (PCBNEW 10.0.3) date 2026-07-09 21:53:46*
%MOMM*%
%LPD*%
G01*
G04 APERTURE LIST*
G04 Aperture macros list*
%AMRoundRect*
0 Rectangle with rounded corners*
0 $1 Rounding radius*
0 $2 $3 $4 $5 $6 $7 $8 $9 X,Y pos of 4 corners*
0 Add a 4 corners polygon primitive as box body*
4,1,4,$2,$3,$4,$5,$6,$7,$8,$9,$2,$3,0*
0 Add four circle primitives for the rounded corners*
1,1,$1+$1,$2,$3*
1,1,$1+$1,$4,$5*
1,1,$1+$1,$6,$7*
1,1,$1+$1,$8,$9*
0 Add four rect primitives between the rounded corners*
20,1,$1+$1,$2,$3,$4,$5,0*
20,1,$1+$1,$4,$5,$6,$7,0*
20,1,$1+$1,$6,$7,$8,$9,0*
20,1,$1+$1,$8,$9,$2,$3,0*%
%AMFreePoly0*
4,1,14,0.363284,0.088284,0.375000,0.060000,0.375000,-0.060000,0.363284,-0.088284,0.335000,-0.100000,-0.335000,-0.100000,-0.363284,-0.088284,-0.375000,-0.060000,-0.375000,-0.036569,-0.363284,-0.008285,-0.266715,0.088284,-0.238431,0.100000,0.335000,0.100000,0.363284,0.088284,0.363284,0.088284,$1*%
%AMFreePoly1*
4,1,14,0.363284,0.088284,0.375000,0.060000,0.375000,-0.060000,0.363284,-0.088284,0.335000,-0.100000,-0.238431,-0.100000,-0.266715,-0.088284,-0.363284,0.008285,-0.375000,0.036569,-0.375000,0.060000,-0.363284,0.088284,-0.335000,0.100000,0.335000,0.100000,0.363284,0.088284,0.363284,0.088284,$1*%
%AMFreePoly2*
4,1,14,-0.008285,0.363284,0.088284,0.266715,0.100000,0.238431,0.100000,-0.335000,0.088284,-0.363284,0.060000,-0.375000,-0.060000,-0.375000,-0.088284,-0.363284,-0.100000,-0.335000,-0.100000,0.335000,-0.088284,0.363284,-0.060000,0.375000,-0.036569,0.375000,-0.008285,0.363284,-0.008285,0.363284,$1*%
%AMFreePoly3*
4,1,14,0.088284,0.363284,0.100000,0.335000,0.100000,-0.335000,0.088284,-0.363284,0.060000,-0.375000,-0.060000,-0.375000,-0.088284,-0.363284,-0.100000,-0.335000,-0.100000,0.238431,-0.088284,0.266715,0.008285,0.363284,0.036569,0.375000,0.060000,0.375000,0.088284,0.363284,0.088284,0.363284,$1*%
%AMFreePoly4*
4,1,14,0.363284,0.088284,0.375000,0.060000,0.375000,0.036569,0.363284,0.008285,0.266715,-0.088284,0.238431,-0.100000,-0.335000,-0.100000,-0.363284,-0.088284,-0.375000,-0.060000,-0.375000,0.060000,-0.363284,0.088284,-0.335000,0.100000,0.335000,0.100000,0.363284,0.088284,0.363284,0.088284,$1*%
%AMFreePoly5*
4,1,14,0.266715,0.088284,0.363284,-0.008285,0.375000,-0.036569,0.375000,-0.060000,0.363284,-0.088284,0.335000,-0.100000,-0.335000,-0.100000,-0.363284,-0.088284,-0.375000,-0.060000,-0.375000,0.060000,-0.363284,0.088284,-0.335000,0.100000,0.238431,0.100000,0.266715,0.088284,0.266715,0.088284,$1*%
%AMFreePoly6*
4,1,14,0.088284,0.363284,0.100000,0.335000,0.100000,-0.335000,0.088284,-0.363284,0.060000,-0.375000,0.036569,-0.375000,0.008285,-0.363284,-0.088284,-0.266715,-0.100000,-0.238431,-0.100000,0.335000,-0.088284,0.363284,-0.060000,0.375000,0.060000,0.375000,0.088284,0.363284,0.088284,0.363284,$1*%
%AMFreePoly7*
4,1,14,0.088284,0.363284,0.100000,0.335000,0.100000,-0.238431,0.088284,-0.266715,-0.008285,-0.363284,-0.036569,-0.375000,-0.060000,-0.375000,-0.088284,-0.363284,-0.100000,-0.335000,-0.100000,0.335000,-0.088284,0.363284,-0.060000,0.375000,0.060000,0.375000,0.088284,0.363284,0.088284,0.363284,$1*%
G04 Aperture macros list end*
G04 #@! TA.AperFunction,ComponentPad*
%ADD10R,1.700000X1.700000*%
G04 #@! TD*
G04 #@! TA.AperFunction,ComponentPad*
%ADD11C,1.700000*%
G04 #@! TD*
G04 #@! TA.AperFunction,ComponentPad*
%ADD12C,1.600000*%
G04 #@! TD*
G04 #@! TA.AperFunction,ComponentPad*
%ADD13C,2.900000*%
G04 #@! TD*
G04 #@! TA.AperFunction,ComponentPad*
%ADD14C,2.700000*%
G04 #@! TD*
G04 #@! TA.AperFunction,ComponentPad*
%ADD15C,3.200000*%
G04 #@! TD*
G04 #@! TA.AperFunction,ComponentPad*
%ADD16C,3.400000*%
G04 #@! TD*
G04 #@! TA.AperFunction,SMDPad,CuDef*
%ADD17RoundRect,0.250000X0.312500X1.450000X-0.312500X1.450000X-0.312500X-1.450000X0.312500X-1.450000X0*%
G04 #@! TD*
G04 #@! TA.AperFunction,SMDPad,CuDef*
%ADD18RoundRect,0.150000X-0.662500X-0.150000X0.662500X-0.150000X0.662500X0.150000X-0.662500X0.150000X0*%
G04 #@! TD*
G04 #@! TA.AperFunction,SMDPad,CuDef*
%ADD19RoundRect,0.140000X0.140000X0.170000X-0.140000X0.170000X-0.140000X-0.170000X0.140000X-0.170000X0*%
G04 #@! TD*
G04 #@! TA.AperFunction,SMDPad,CuDef*
%ADD20RoundRect,0.087500X-0.425000X-0.087500X0.425000X-0.087500X0.425000X0.087500X-0.425000X0.087500X0*%
G04 #@! TD*
G04 #@! TA.AperFunction,SMDPad,CuDef*
%ADD21RoundRect,0.135000X0.135000X0.185000X-0.135000X0.185000X-0.135000X-0.185000X0.135000X-0.185000X0*%
G04 #@! TD*
G04 #@! TA.AperFunction,SMDPad,CuDef*
%ADD22RoundRect,0.135000X-0.135000X-0.185000X0.135000X-0.185000X0.135000X0.185000X-0.135000X0.185000X0*%
G04 #@! TD*
G04 #@! TA.AperFunction,SMDPad,CuDef*
%ADD23RoundRect,0.140000X-0.140000X-0.170000X0.140000X-0.170000X0.140000X0.170000X-0.140000X0.170000X0*%
G04 #@! TD*
G04 #@! TA.AperFunction,SMDPad,CuDef*
%ADD24RoundRect,0.250000X-0.450000X0.262500X-0.450000X-0.262500X0.450000X-0.262500X0.450000X0.262500X0*%
G04 #@! TD*
G04 #@! TA.AperFunction,SMDPad,CuDef*
%ADD25RoundRect,0.225000X-0.375000X0.225000X-0.375000X-0.225000X0.375000X-0.225000X0.375000X0.225000X0*%
G04 #@! TD*
G04 #@! TA.AperFunction,SMDPad,CuDef*
%ADD26RoundRect,0.250000X0.475000X-0.250000X0.475000X0.250000X-0.475000X0.250000X-0.475000X-0.250000X0*%
G04 #@! TD*
G04 #@! TA.AperFunction,SMDPad,CuDef*
%ADD27RoundRect,0.250000X0.325000X0.650000X-0.325000X0.650000X-0.325000X-0.650000X0.325000X-0.650000X0*%
G04 #@! TD*
G04 #@! TA.AperFunction,SMDPad,CuDef*
%ADD28RoundRect,0.218750X0.218750X0.256250X-0.218750X0.256250X-0.218750X-0.256250X0.218750X-0.256250X0*%
G04 #@! TD*
G04 #@! TA.AperFunction,ComponentPad*
%ADD29O,1.600000X1.600000*%
G04 #@! TD*
G04 #@! TA.AperFunction,SMDPad,CuDef*
%ADD30RoundRect,0.140000X0.170000X-0.140000X0.170000X0.140000X-0.170000X0.140000X-0.170000X-0.140000X0*%
G04 #@! TD*
G04 #@! TA.AperFunction,SMDPad,CuDef*
%ADD31RoundRect,0.250000X-0.250000X-0.475000X0.250000X-0.475000X0.250000X0.475000X-0.250000X0.475000X0*%
G04 #@! TD*
G04 #@! TA.AperFunction,SMDPad,CuDef*
%ADD32RoundRect,0.150000X-0.587500X-0.150000X0.587500X-0.150000X0.587500X0.150000X-0.587500X0.150000X0*%
G04 #@! TD*
G04 #@! TA.AperFunction,SMDPad,CuDef*
%ADD33RoundRect,0.250000X-0.475000X0.250000X-0.475000X-0.250000X0.475000X-0.250000X0.475000X0.250000X0*%
G04 #@! TD*
G04 #@! TA.AperFunction,SMDPad,CuDef*
%ADD34RoundRect,0.243750X0.243750X0.456250X-0.243750X0.456250X-0.243750X-0.456250X0.243750X-0.456250X0*%
G04 #@! TD*
G04 #@! TA.AperFunction,SMDPad,CuDef*
%ADD35FreePoly0,0.000000*%
G04 #@! TD*
G04 #@! TA.AperFunction,SMDPad,CuDef*
%ADD36RoundRect,0.050000X-0.325000X-0.050000X0.325000X-0.050000X0.325000X0.050000X-0.325000X0.050000X0*%
G04 #@! TD*
G04 #@! TA.AperFunction,SMDPad,CuDef*
%ADD37FreePoly1,0.000000*%
G04 #@! TD*
G04 #@! TA.AperFunction,SMDPad,CuDef*
%ADD38FreePoly2,0.000000*%
G04 #@! TD*
G04 #@! TA.AperFunction,SMDPad,CuDef*
%ADD39RoundRect,0.050000X-0.050000X-0.325000X0.050000X-0.325000X0.050000X0.325000X-0.050000X0.325000X0*%
G04 #@! TD*
G04 #@! TA.AperFunction,SMDPad,CuDef*
%ADD40FreePoly3,0.000000*%
G04 #@! TD*
G04 #@! TA.AperFunction,SMDPad,CuDef*
%ADD41FreePoly4,0.000000*%
G04 #@! TD*
G04 #@! TA.AperFunction,SMDPad,CuDef*
%ADD42FreePoly5,0.000000*%
G04 #@! TD*
G04 #@! TA.AperFunction,SMDPad,CuDef*
%ADD43FreePoly6,0.000000*%
G04 #@! TD*
G04 #@! TA.AperFunction,SMDPad,CuDef*
%ADD44FreePoly7,0.000000*%
G04 #@! TD*
G04 #@! TA.AperFunction,HeatsinkPad*
%ADD45R,1.700000X1.700000*%
G04 #@! TD*
G04 #@! TA.AperFunction,SMDPad,CuDef*
%ADD46RoundRect,0.250000X1.000000X0.650000X-1.000000X0.650000X-1.000000X-0.650000X1.000000X-0.650000X0*%
G04 #@! TD*
G04 #@! TA.AperFunction,ViaPad*
%ADD47C,0.600000*%
G04 #@! TD*
G04 #@! TA.AperFunction,ViaPad*
%ADD48C,0.300000*%
G04 #@! TD*
G04 #@! TA.AperFunction,Conductor*
%ADD49C,0.200000*%
G04 #@! TD*
G04 APERTURE END LIST*
D10*
G04 #@! TO.P,J3,1,Pin_1_1*
G04 #@! TO.N,ASDOUT*
X115570000Y-81915000D03*
D11*
G04 #@! TO.P,J3,2,Pin_2_2*
G04 #@! TO.N,LRCK*
X118110000Y-81915000D03*
G04 #@! TO.P,J3,3,Pin_3_3*
G04 #@! TO.N,AGND*
X120650000Y-81915000D03*
G04 #@! TO.P,J3,4,Pin_4_4*
G04 #@! TO.N,DSDIN*
X123190000Y-81915000D03*
G04 #@! TO.P,J3,5,Pin_5_5*
G04 #@! TO.N,BCLK*
X125730000Y-81915000D03*
G04 #@! TO.P,J3,6,Pin_6_6*
G04 #@! TO.N,MCLK*
X128270000Y-81915000D03*
G04 #@! TO.P,J3,7,Pin_7_7*
G04 #@! TO.N,PHANTOM_EN*
X130810000Y-81915000D03*
G04 #@! TD*
D10*
G04 #@! TO.P,J6,1,Pin_1_1*
G04 #@! TO.N,AGND*
X101500153Y-81924935D03*
D11*
G04 #@! TO.P,J6,2,Pin_2_2*
G04 #@! TO.N,+3V3*
X104040153Y-81924935D03*
G04 #@! TO.P,J6,3,Pin_3_3*
G04 #@! TO.N,SCL*
X106580153Y-81924935D03*
G04 #@! TO.P,J6,4,Pin_4_4*
G04 #@! TO.N,SDA*
X109120153Y-81924935D03*
G04 #@! TD*
D10*
G04 #@! TO.P,J4,1,Pin_1_1*
G04 #@! TO.N,+5V*
X115570000Y-99491800D03*
D11*
G04 #@! TO.P,J4,2,Pin_2_2*
G04 #@! TO.N,unconnected-(J4-Pin_2-Pad2)*
X118110000Y-99491800D03*
G04 #@! TO.P,J4,3,Pin_3_3*
G04 #@! TO.N,AGND*
X120650000Y-99491800D03*
G04 #@! TO.P,J4,4,Pin_4_4*
G04 #@! TO.N,unconnected-(J4-Pin_4-Pad4)*
X123190000Y-99491800D03*
G04 #@! TO.P,J4,5,Pin_5_5*
G04 #@! TO.N,+3V3*
X125730000Y-99491800D03*
G04 #@! TO.P,J4,6,Pin_6_6*
G04 #@! TO.N,SCL*
X128270000Y-99491800D03*
G04 #@! TO.P,J4,7,Pin_7_7*
G04 #@! TO.N,SDA*
X130810000Y-99491800D03*
G04 #@! TD*
D10*
G04 #@! TO.P,J5,1,Pin_1_1*
G04 #@! TO.N,V_PoE*
X127655400Y-85217000D03*
D11*
G04 #@! TO.P,J5,2,Pin_2_2*
G04 #@! TO.N,PGND*
X130195400Y-85217000D03*
G04 #@! TD*
D12*
G04 #@! TO.P,C19,1*
G04 #@! TO.N,PGND*
X110805869Y-86581258D03*
G04 #@! TO.P,C19,2*
G04 #@! TO.N,AGND*
X118305869Y-86581258D03*
G04 #@! TD*
D13*
G04 #@! TO.P,J1,1,XLR_1_1*
G04 #@! TO.N,PGND*
X94996000Y-97764600D03*
G04 #@! TO.P,J1,2,XLR_2_2*
G04 #@! TO.N,XLR2_HOT*
X95631000Y-83794600D03*
D14*
G04 #@! TO.P,J1,3,XLR_3_3*
G04 #@! TO.N,XLR3_COLD*
X100076000Y-90779600D03*
D15*
G04 #@! TO.P,J1,G,JACK_G_G*
G04 #@! TO.N,PGND*
X83566000Y-99034600D03*
D14*
G04 #@! TO.P,J1,R,JACK_R_R*
G04 #@! TO.N,unconnected-(J1-JACK_R-PadR)*
X99441000Y-87922100D03*
G04 #@! TO.P,J1,S,JACK_S_S*
G04 #@! TO.N,PGND*
X99441000Y-93637100D03*
D16*
G04 #@! TO.P,J1,T,JACK_T_T*
G04 #@! TO.N,unconnected-(J1-JACK_T-PadT)*
X92456000Y-95224600D03*
X92456000Y-86334600D03*
G04 #@! TD*
D17*
G04 #@! TO.P,F1,1*
G04 #@! TO.N,V_PoE*
X102819200Y-98018600D03*
G04 #@! TO.P,F1,2*
G04 #@! TO.N,V_FILT*
X98544200Y-98018600D03*
G04 #@! TD*
D18*
G04 #@! TO.P,OK1,1,A_1*
G04 #@! TO.N,OK1_LED_A*
X107518882Y-84138698D03*
G04 #@! TO.P,OK1,2,K_2*
G04 #@! TO.N,AGND*
X107518882Y-85408698D03*
G04 #@! TO.P,OK1,3,E_3*
G04 #@! TO.N,PGND*
X101143882Y-85408698D03*
G04 #@! TO.P,OK1,4,C_4*
G04 #@! TO.N,OK1_COLLECTOR*
X101143882Y-84138698D03*
G04 #@! TD*
D19*
G04 #@! TO.P,C9,1*
G04 #@! TO.N,DACVREF*
X123980000Y-86000000D03*
G04 #@! TO.P,C9,2*
G04 #@! TO.N,AGND*
X123020000Y-86000000D03*
G04 #@! TD*
D20*
G04 #@! TO.P,D2,1,K_1*
G04 #@! TO.N,MIC1P*
X110837500Y-93350000D03*
G04 #@! TO.P,D2,2,A_2*
G04 #@! TO.N,AGND*
X110837500Y-94000000D03*
G04 #@! TO.P,D2,3*
G04 #@! TO.N,N/C*
X110837500Y-94650000D03*
G04 #@! TO.P,D2,4*
X109162500Y-94650000D03*
G04 #@! TO.P,D2,5*
X109162500Y-93350000D03*
G04 #@! TD*
D19*
G04 #@! TO.P,C8,1*
G04 #@! TO.N,ADCVREF*
X121480000Y-96500000D03*
G04 #@! TO.P,C8,2*
G04 #@! TO.N,AGND*
X120520000Y-96500000D03*
G04 #@! TD*
D21*
G04 #@! TO.P,R12,1*
G04 #@! TO.N,PHANTOM_SW*
X109621011Y-91389200D03*
G04 #@! TO.P,R12,2*
G04 #@! TO.N,OK1_LED_A*
X108601011Y-91389200D03*
G04 #@! TD*
G04 #@! TO.P,R3,1*
G04 #@! TO.N,AD0*
X124010000Y-95000000D03*
G04 #@! TO.P,R3,2*
G04 #@! TO.N,AGND*
X122990000Y-95000000D03*
G04 #@! TD*
D22*
G04 #@! TO.P,R4,1*
G04 #@! TO.N,ASDOUT*
X122990000Y-96500000D03*
G04 #@! TO.P,R4,2*
G04 #@! TO.N,AGND*
X124010000Y-96500000D03*
G04 #@! TD*
D23*
G04 #@! TO.P,C7,1*
G04 #@! TO.N,VMID*
X120520000Y-95000000D03*
G04 #@! TO.P,C7,2*
G04 #@! TO.N,AGND*
X121480000Y-95000000D03*
G04 #@! TD*
G04 #@! TO.P,C5,1*
G04 #@! TO.N,+3V3*
X118020000Y-96500000D03*
G04 #@! TO.P,C5,2*
G04 #@! TO.N,AGND*
X118980000Y-96500000D03*
G04 #@! TD*
D24*
G04 #@! TO.P,R6,1*
G04 #@! TO.N,V_PHANTOM*
X90398600Y-82092800D03*
G04 #@! TO.P,R6,2*
G04 #@! TO.N,XLR3_COLD*
X90398600Y-83917800D03*
G04 #@! TD*
D25*
G04 #@! TO.P,D7,1,K_1*
G04 #@! TO.N,V_FILT*
X114068413Y-90244476D03*
G04 #@! TO.P,D7,2,A_2*
G04 #@! TO.N,Q1_GATE*
X114068413Y-86944476D03*
G04 #@! TD*
D23*
G04 #@! TO.P,C1,1*
G04 #@! TO.N,+3V3*
X119270000Y-84750000D03*
G04 #@! TO.P,C1,2*
G04 #@! TO.N,AGND*
X120230000Y-84750000D03*
G04 #@! TD*
D22*
G04 #@! TO.P,R7,1*
G04 #@! TO.N,AVDD*
X115990000Y-96000000D03*
G04 #@! TO.P,R7,2*
G04 #@! TO.N,MIC2_RAW*
X117010000Y-96000000D03*
G04 #@! TD*
D21*
G04 #@! TO.P,R1,1*
G04 #@! TO.N,SDA*
X131010000Y-97561400D03*
G04 #@! TO.P,R1,2*
G04 #@! TO.N,+3V3*
X129990000Y-97561400D03*
G04 #@! TD*
D22*
G04 #@! TO.P,R2,1*
G04 #@! TO.N,SCL*
X129990000Y-96500000D03*
G04 #@! TO.P,R2,2*
G04 #@! TO.N,+3V3*
X131010000Y-96500000D03*
G04 #@! TD*
D23*
G04 #@! TO.P,C13,1*
G04 #@! TO.N,MIC2_RAW*
X110520000Y-96000000D03*
G04 #@! TO.P,C13,2*
G04 #@! TO.N,AGND*
X111480000Y-96000000D03*
G04 #@! TD*
D26*
G04 #@! TO.P,C17,1*
G04 #@! TO.N,V_FILT*
X88000000Y-83950000D03*
G04 #@! TO.P,C17,2*
G04 #@! TO.N,PGND*
X88000000Y-82050000D03*
G04 #@! TD*
D27*
G04 #@! TO.P,C18,1*
G04 #@! TO.N,Q1_GATE*
X115543413Y-85194476D03*
G04 #@! TO.P,C18,2*
G04 #@! TO.N,V_FILT*
X112593413Y-85194476D03*
G04 #@! TD*
D28*
G04 #@! TO.P,FB1,1*
G04 #@! TO.N,+3V3_A*
X121787500Y-86000000D03*
G04 #@! TO.P,FB1,2*
G04 #@! TO.N,AVDD*
X120212500Y-86000000D03*
G04 #@! TD*
D26*
G04 #@! TO.P,C11,1*
G04 #@! TO.N,XLR3_COLD*
X92659200Y-83307000D03*
G04 #@! TO.P,C11,2*
G04 #@! TO.N,MIC1N*
X92659200Y-81407000D03*
G04 #@! TD*
D29*
G04 #@! TO.P,SW1,1,A_1*
G04 #@! TO.N,+3V3*
X125349000Y-90779600D03*
D12*
G04 #@! TO.P,SW1,2,B_2*
G04 #@! TO.N,PHANTOM_SW*
X127889000Y-90779600D03*
D29*
G04 #@! TO.P,SW1,3,C_3*
G04 #@! TO.N,AGND*
X130429000Y-90779600D03*
G04 #@! TD*
D30*
G04 #@! TO.P,C12,1*
G04 #@! TO.N,MIC2_RAW*
X107000000Y-96480000D03*
G04 #@! TO.P,C12,2*
G04 #@! TO.N,MIC2P*
X107000000Y-95520000D03*
G04 #@! TD*
D31*
G04 #@! TO.P,C6,1*
G04 #@! TO.N,AVDD*
X120050000Y-88000000D03*
G04 #@! TO.P,C6,2*
G04 #@! TO.N,AGND*
X121950000Y-88000000D03*
G04 #@! TD*
D23*
G04 #@! TO.P,C4,1*
G04 #@! TO.N,+3V3*
X118020000Y-95000000D03*
G04 #@! TO.P,C4,2*
G04 #@! TO.N,AGND*
X118980000Y-95000000D03*
G04 #@! TD*
D32*
G04 #@! TO.P,Q1,1,G_1*
G04 #@! TO.N,Q1_GATE*
X96771700Y-89753400D03*
G04 #@! TO.P,Q1,2,S_2*
G04 #@! TO.N,V_FILT*
X96771700Y-91653400D03*
G04 #@! TO.P,Q1,3,D_3*
G04 #@! TO.N,V_PHANTOM*
X94896700Y-90703400D03*
G04 #@! TD*
D33*
G04 #@! TO.P,C10,1*
G04 #@! TO.N,XLR2_HOT*
X95834200Y-93192600D03*
G04 #@! TO.P,C10,2*
G04 #@! TO.N,MIC1P*
X95834200Y-95092600D03*
G04 #@! TD*
D34*
G04 #@! TO.P,D8,1,K_1*
G04 #@! TO.N,PGND*
X126899251Y-95707310D03*
G04 #@! TO.P,D8,2,A_2*
G04 #@! TO.N,PHANTOM_LED*
X128774251Y-95707310D03*
G04 #@! TD*
D35*
G04 #@! TO.P,U1,1,AD0_1*
G04 #@! TO.N,AD0*
X117773000Y-91473000D03*
D36*
G04 #@! TO.P,U1,2,CDATA_2*
G04 #@! TO.N,SDA*
X117773000Y-91823000D03*
G04 #@! TO.P,U1,3,CCLK_3*
G04 #@! TO.N,SCL*
X117773000Y-92173000D03*
G04 #@! TO.P,U1,4,MCLK/TDMIN_4*
G04 #@! TO.N,MCLK*
X117773000Y-92523000D03*
G04 #@! TO.P,U1,5,DVDD_5*
G04 #@! TO.N,+3V3*
X117773000Y-92873000D03*
D37*
G04 #@! TO.P,U1,6,PVDD_6*
X117773000Y-93223000D03*
D38*
G04 #@! TO.P,U1,7,DGND_7*
G04 #@! TO.N,AGND*
X117148000Y-93848000D03*
D39*
G04 #@! TO.P,U1,8,SCLK_8*
G04 #@! TO.N,BCLK*
X116798000Y-93848000D03*
G04 #@! TO.P,U1,9,DSDIN_9*
G04 #@! TO.N,DSDIN*
X116448000Y-93848000D03*
G04 #@! TO.P,U1,10,LRCK_10*
G04 #@! TO.N,LRCK*
X116098000Y-93848000D03*
G04 #@! TO.P,U1,11,ASDOUT/AD1_11*
G04 #@! TO.N,ASDOUT*
X115748000Y-93848000D03*
D40*
G04 #@! TO.P,U1,12,ROUTP_12*
G04 #@! TO.N,ROUTP*
X115398000Y-93848000D03*
D41*
G04 #@! TO.P,U1,13,ROUTN_13*
G04 #@! TO.N,ROUTN*
X114773000Y-93223000D03*
D36*
G04 #@! TO.P,U1,14,DACVREF_14*
G04 #@! TO.N,DACVREF*
X114773000Y-92873000D03*
G04 #@! TO.P,U1,15,LOUTN_15*
G04 #@! TO.N,LOUTN*
X114773000Y-92523000D03*
G04 #@! TO.P,U1,16,LOUTP_16*
G04 #@! TO.N,LOUTP*
X114773000Y-92173000D03*
G04 #@! TO.P,U1,17,AVDD_17*
G04 #@! TO.N,AVDD*
X114773000Y-91823000D03*
D42*
G04 #@! TO.P,U1,18,AGND_18*
G04 #@! TO.N,AGND*
X114773000Y-91473000D03*
D43*
G04 #@! TO.P,U1,19,VMID_19*
G04 #@! TO.N,VMID*
X115398000Y-90848000D03*
D39*
G04 #@! TO.P,U1,20,ADCVREF_20*
G04 #@! TO.N,ADCVREF*
X115748000Y-90848000D03*
G04 #@! TO.P,U1,21,MIC2N_21*
G04 #@! TO.N,MIC2N*
X116098000Y-90848000D03*
G04 #@! TO.P,U1,22,MIC2P_22*
G04 #@! TO.N,MIC2P*
X116448000Y-90848000D03*
G04 #@! TO.P,U1,23,MIC1N_23*
G04 #@! TO.N,MIC1N*
X116798000Y-90848000D03*
D44*
G04 #@! TO.P,U1,24,MIC1P_24*
G04 #@! TO.N,MIC1P*
X117148000Y-90848000D03*
D45*
G04 #@! TO.P,U1,25,PGND_25*
G04 #@! TO.N,AGND*
X116273000Y-92348000D03*
G04 #@! TD*
D23*
G04 #@! TO.P,C2,1*
G04 #@! TO.N,+3V3*
X117772600Y-88009400D03*
G04 #@! TO.P,C2,2*
G04 #@! TO.N,AGND*
X118732600Y-88009400D03*
G04 #@! TD*
G04 #@! TO.P,C3,1*
G04 #@! TO.N,+3V3*
X117770000Y-89000000D03*
G04 #@! TO.P,C3,2*
G04 #@! TO.N,AGND*
X118730000Y-89000000D03*
G04 #@! TD*
D24*
G04 #@! TO.P,R5,1*
G04 #@! TO.N,V_PHANTOM*
X95834200Y-86385400D03*
G04 #@! TO.P,R5,2*
G04 #@! TO.N,XLR2_HOT*
X95834200Y-88210400D03*
G04 #@! TD*
D46*
G04 #@! TO.P,D6,1,K_1*
G04 #@! TO.N,V_FILT*
X89027000Y-92703400D03*
G04 #@! TO.P,D6,2,A_2*
G04 #@! TO.N,PGND*
X89027000Y-88703400D03*
G04 #@! TD*
D23*
G04 #@! TO.P,C20,1*
G04 #@! TO.N,MIC2N*
X112520000Y-96000000D03*
G04 #@! TO.P,C20,2*
G04 #@! TO.N,AGND*
X113480000Y-96000000D03*
G04 #@! TD*
D47*
G04 #@! TO.N,MIC1N*
X112850000Y-89950000D03*
X106136078Y-84208198D03*
X116998000Y-89899400D03*
G04 #@! TO.N,AGND*
X121927231Y-88750000D03*
X117729000Y-93827600D03*
X113614200Y-91617800D03*
X122845330Y-85966459D03*
X118730000Y-89000000D03*
X124750000Y-85815867D03*
X127000000Y-83210400D03*
X116273000Y-92287000D03*
X116137600Y-86959522D03*
X113800800Y-96672400D03*
X107288128Y-85442625D03*
X121005600Y-95834200D03*
X123351201Y-95772636D03*
G04 #@! TO.N,ROUTP*
X114372087Y-94072800D03*
G04 #@! TO.N,V_PHANTOM*
X103400000Y-90600000D03*
D48*
X127867007Y-92687570D03*
D47*
X112765200Y-87964039D03*
D48*
X128208286Y-89274782D03*
D47*
X116100000Y-87869909D03*
D48*
G04 #@! TO.N,PHANTOM_LED*
X128238125Y-93547417D03*
D47*
G04 #@! TO.N,MIC2_RAW*
X109203200Y-99358200D03*
X117271800Y-96545400D03*
G04 #@! TO.N,ASDOUT*
X114866961Y-94732113D03*
X123500000Y-97500000D03*
X114302909Y-97443200D03*
G04 #@! TO.N,LRCK*
X114805437Y-95538530D03*
X121919220Y-93760201D03*
G04 #@! TO.N,DSDIN*
X114992064Y-96576720D03*
X124798000Y-94310200D03*
G04 #@! TO.N,BCLK*
X125171200Y-93091000D03*
X117119400Y-94673000D03*
G04 #@! TO.N,MCLK*
X119354600Y-98171000D03*
X119735600Y-95885000D03*
X124815600Y-98171000D03*
G04 #@! TO.N,+5V*
X123607791Y-93670774D03*
X120680029Y-86881584D03*
X124386400Y-84861400D03*
X120960000Y-84901019D03*
G04 #@! TO.N,+3V3_A*
X122936000Y-85050000D03*
G04 #@! TO.N,+3V3*
X126466600Y-98831400D03*
X118541800Y-93811000D03*
X119270000Y-84750000D03*
X114200000Y-83100000D03*
X130145600Y-97561400D03*
G04 #@! TO.N,SCL*
X124730000Y-96310865D03*
X129200000Y-99000000D03*
X122057397Y-91847767D03*
X122942602Y-87620889D03*
X116800000Y-84225155D03*
X124530000Y-87583885D03*
X117900000Y-84400000D03*
X119181543Y-92322732D03*
X129200000Y-97750000D03*
G04 #@! TO.N,SDA*
X125362869Y-87999189D03*
X118650750Y-91575000D03*
X125374722Y-95882923D03*
X123271024Y-88295161D03*
X122200000Y-91100000D03*
X117900000Y-83600000D03*
X116327509Y-83450001D03*
G04 #@! TO.N,OK1_COLLECTOR*
X102903198Y-85426598D03*
G04 #@! TO.N,Q1_GATE*
X96799400Y-89789000D03*
X102446094Y-86690869D03*
G04 #@! TO.N,V_PoE*
X124510800Y-100330000D03*
X127450000Y-96950000D03*
G04 #@! TO.N,PGND*
X127100000Y-89008248D03*
X88976200Y-88646000D03*
X88000000Y-82000000D03*
X100000000Y-85000000D03*
G04 #@! TO.N,V_FILT*
X103350000Y-83400000D03*
X98221800Y-83743800D03*
X97002600Y-86258400D03*
X97078800Y-91668600D03*
X109195010Y-87200138D03*
X99945457Y-83713910D03*
X110159800Y-84433200D03*
G04 #@! TO.N,XLR2_HOT*
X95834200Y-88108800D03*
G04 #@! TO.N,XLR3_COLD*
X92659200Y-83307000D03*
G04 #@! TO.N,LOUTP*
X113080800Y-94513400D03*
G04 #@! TO.N,OK1_LED_A*
X106132152Y-88920340D03*
X107340400Y-88341200D03*
G04 #@! TO.N,DACVREF*
X123596400Y-92506800D03*
X113841755Y-93445555D03*
G04 #@! TO.N,MIC1P*
X117703600Y-90449400D03*
X112416502Y-90596703D03*
X95834200Y-95194200D03*
X108051600Y-93980000D03*
G04 #@! TO.N,ADCVREF*
X115548000Y-89594600D03*
X118527642Y-90239407D03*
G04 #@! TO.N,PHANTOM_SW*
X112081400Y-91389200D03*
G04 #@! TO.N,AD0*
X119640810Y-90848990D03*
X124178989Y-89122699D03*
G04 #@! TO.N,VMID*
X112943450Y-92293250D03*
X119710200Y-92972800D03*
G04 #@! TO.N,MIC2P*
X108051600Y-95529400D03*
X111264092Y-88643489D03*
G04 #@! TO.N,MIC2N*
X111962600Y-92760200D03*
X112003227Y-88770701D03*
G04 #@! TD*
G04 #@! TO.N,MIC1N*
D49*
X106041802Y-84208198D02*
X105593296Y-84656704D01*
X105600460Y-87407914D02*
X105600460Y-84663868D01*
X106136078Y-84208198D02*
X106041802Y-84208198D01*
X99390228Y-85170638D02*
X100243426Y-86023836D01*
X102950000Y-87300000D02*
X105586132Y-84663868D01*
X97255818Y-81407000D02*
X99390228Y-83541410D01*
X116998000Y-90126005D02*
X116798000Y-90326005D01*
X112850000Y-89950000D02*
X112726458Y-89826458D01*
X101767401Y-87300000D02*
X102950000Y-87300000D01*
X100491237Y-86023836D02*
X101767401Y-87300000D01*
X112726458Y-89826458D02*
X107682658Y-89826458D01*
X106730800Y-88874600D02*
X106730800Y-88538254D01*
X116998000Y-89899400D02*
X116998000Y-90126005D01*
X106730800Y-88538254D02*
X105600460Y-87407914D01*
X99390228Y-83541410D02*
X99390228Y-85170638D01*
X116798000Y-90326005D02*
X116798000Y-90848000D01*
X100243426Y-86023836D02*
X100491237Y-86023836D01*
X105593296Y-84656704D02*
X105600460Y-84663868D01*
X92659200Y-81407000D02*
X97255818Y-81407000D01*
X105586132Y-84663868D02*
X105600460Y-84663868D01*
X107682658Y-89826458D02*
X106730800Y-88874600D01*
G04 #@! TO.N,AGND*
X120137127Y-84750000D02*
X118305869Y-86581258D01*
X109744800Y-87139863D02*
X110404937Y-87800000D01*
X122932645Y-85966459D02*
X122966186Y-86000000D01*
X122966186Y-86000000D02*
X123020000Y-86000000D01*
X112858400Y-96621600D02*
X112101600Y-96621600D01*
X110837500Y-94000000D02*
X110353600Y-94000000D01*
X118730000Y-87742000D02*
X118305869Y-87317869D01*
X117708600Y-93848000D02*
X117729000Y-93827600D01*
X110000000Y-94963200D02*
X110000000Y-94353600D01*
X123351201Y-95772636D02*
X123351200Y-95772637D01*
X110286800Y-95250000D02*
X110000000Y-94963200D01*
X123351200Y-95772637D02*
X123351200Y-95817600D01*
X112101600Y-96621600D02*
X111480000Y-96000000D01*
X112993018Y-87414039D02*
X113278979Y-87700000D01*
X118980000Y-96500000D02*
X118980000Y-95000000D01*
X128761157Y-84971557D02*
X128761157Y-88556655D01*
X127000000Y-83210400D02*
X127906600Y-84117000D01*
X118305869Y-86218669D02*
X118294800Y-86207600D01*
X118305869Y-87317869D02*
X118305869Y-86218669D01*
X113563400Y-96083400D02*
X113480000Y-96000000D01*
X121005600Y-95834200D02*
X121005600Y-95657894D01*
X121802923Y-88625692D02*
X121802923Y-88288905D01*
X123351201Y-95772636D02*
X123037600Y-95459035D01*
X113985372Y-91473000D02*
X114773000Y-91473000D01*
X121802923Y-88288905D02*
X121950000Y-88141828D01*
X107288128Y-85442625D02*
X107322055Y-85408698D01*
X121005600Y-95834200D02*
X120928206Y-95911594D01*
X113614200Y-91617800D02*
X113840572Y-91617800D01*
X120928206Y-95911594D02*
X120891594Y-95911594D01*
X113800800Y-96579600D02*
X113563400Y-96342200D01*
X117148000Y-93848000D02*
X117708600Y-93848000D01*
X128761157Y-88556655D02*
X130171302Y-89966800D01*
X121480000Y-95183494D02*
X121480000Y-95000000D01*
X111615686Y-87414039D02*
X112993018Y-87414039D01*
X107288128Y-85442625D02*
X108342625Y-85442625D01*
X123037600Y-95047600D02*
X122990000Y-95000000D01*
X110353600Y-94000000D02*
X110000000Y-94353600D01*
X128755400Y-84965800D02*
X128761157Y-84971557D01*
X113800800Y-96672400D02*
X113800800Y-96579600D01*
X128755400Y-84117000D02*
X128755400Y-84965800D01*
X120520000Y-96500000D02*
X118980000Y-96500000D01*
X121005600Y-95834200D02*
X120829294Y-95834200D01*
X130171302Y-89966800D02*
X130479800Y-89966800D01*
X118730000Y-89000000D02*
X118730000Y-87742000D01*
X113563400Y-96342200D02*
X113563400Y-96083400D01*
X113278979Y-87700000D02*
X115308400Y-87700000D01*
X120230000Y-84750000D02*
X120137127Y-84750000D01*
X123351201Y-95841201D02*
X124010000Y-96500000D01*
X116048878Y-86959522D02*
X116137600Y-86959522D01*
X113480000Y-96000000D02*
X112858400Y-96621600D01*
X121927231Y-88750000D02*
X121802923Y-88625692D01*
X113840572Y-91617800D02*
X113985372Y-91473000D01*
X111229725Y-87800000D02*
X111615686Y-87414039D01*
X120230000Y-84750000D02*
X120230000Y-84700000D01*
X120829294Y-95834200D02*
X120520000Y-96143494D01*
X110404937Y-87800000D02*
X111229725Y-87800000D01*
X108342625Y-85442625D02*
X109744800Y-86844800D01*
X123063000Y-86043000D02*
X123020000Y-86000000D01*
X123351201Y-95772636D02*
X123351201Y-95841201D01*
X115308400Y-87700000D02*
X116048878Y-86959522D01*
X120520000Y-96143494D02*
X120520000Y-96500000D01*
X111480000Y-96000000D02*
X110730000Y-95250000D01*
X107322055Y-85408698D02*
X107518882Y-85408698D01*
X122845330Y-85966459D02*
X122932645Y-85966459D01*
X123037600Y-95459035D02*
X123037600Y-95047600D01*
X110730000Y-95250000D02*
X110286800Y-95250000D01*
X121950000Y-88141828D02*
X121950000Y-88000000D01*
X127906600Y-84117000D02*
X128755400Y-84117000D01*
X109744800Y-86844800D02*
X109744800Y-87139863D01*
X121005600Y-95657894D02*
X121480000Y-95183494D01*
G04 #@! TO.N,ROUTP*
X115016200Y-93848000D02*
X115398000Y-93848000D01*
X114791400Y-94072800D02*
X115016200Y-93848000D01*
X114372087Y-94072800D02*
X114791400Y-94072800D01*
G04 #@! TO.N,V_PHANTOM*
X99040228Y-83784410D02*
X97105818Y-81850000D01*
X86910806Y-83385442D02*
X86910806Y-84555627D01*
X103400000Y-90600000D02*
X101787977Y-88987977D01*
X90398600Y-82092800D02*
X89535519Y-82955881D01*
X93650000Y-82350000D02*
X90655800Y-82350000D01*
X129171890Y-91405005D02*
X128961318Y-91615577D01*
X87340367Y-82955881D02*
X86910806Y-83385442D01*
X88385966Y-85725000D02*
X88747600Y-85725000D01*
X88080989Y-85725810D02*
X88385156Y-85725810D01*
X101787977Y-87815550D02*
X100346263Y-86373836D01*
X97105818Y-81850000D02*
X94150000Y-81850000D01*
X100346263Y-86373836D02*
X100098451Y-86373836D01*
X128961318Y-91615577D02*
X128939000Y-91615577D01*
X99040228Y-85315613D02*
X99040228Y-83784410D01*
X112971072Y-88050000D02*
X115750000Y-88050000D01*
X112885111Y-87964039D02*
X112971072Y-88050000D01*
X128939000Y-91615577D02*
X127867007Y-92687570D01*
X129171890Y-90238386D02*
X129171890Y-91405005D01*
X90655800Y-82350000D02*
X90398600Y-82092800D01*
X93726000Y-90703400D02*
X91567000Y-88544400D01*
X95834200Y-86385400D02*
X93675200Y-88544400D01*
X94896700Y-90703400D02*
X93726000Y-90703400D01*
X101787977Y-88987977D02*
X101787977Y-87815550D01*
X128208286Y-89274782D02*
X129171890Y-90238386D01*
X88747600Y-85725000D02*
X91567000Y-88544400D01*
X89535519Y-82955881D02*
X87340367Y-82955881D01*
X93675200Y-88544400D02*
X91567000Y-88544400D01*
X115750000Y-88050000D02*
X115930091Y-87869909D01*
X88385156Y-85725810D02*
X88385966Y-85725000D01*
X115930091Y-87869909D02*
X116100000Y-87869909D01*
X86910806Y-84555627D02*
X88080989Y-85725810D01*
X100098451Y-86373836D02*
X99040228Y-85315613D01*
X112765200Y-87964039D02*
X112885111Y-87964039D01*
X94150000Y-81850000D02*
X93650000Y-82350000D01*
G04 #@! TO.N,PHANTOM_LED*
X128774251Y-95707310D02*
X128774251Y-94083543D01*
X128774251Y-94083543D02*
X128238125Y-93547417D01*
G04 #@! TO.N,MIC2_RAW*
X109679400Y-97584600D02*
X108104600Y-97584600D01*
X110520000Y-96000000D02*
X110520000Y-96744000D01*
X109194600Y-98674600D02*
X107000000Y-96480000D01*
X110520000Y-96744000D02*
X109679400Y-97584600D01*
X109203200Y-99358200D02*
X109194600Y-99349600D01*
X117271800Y-96545400D02*
X117010000Y-96283600D01*
X117010000Y-96283600D02*
X117010000Y-96000000D01*
X109194600Y-99349600D02*
X109194600Y-98674600D01*
G04 #@! TO.N,ASDOUT*
X115318471Y-94732113D02*
X114866961Y-94732113D01*
X115748000Y-94302584D02*
X115318471Y-94732113D01*
X119463625Y-97567000D02*
X119458225Y-97572400D01*
X115748000Y-93848000D02*
X115748000Y-94302584D01*
X123500000Y-97500000D02*
X123500000Y-97400000D01*
X122304200Y-97567000D02*
X119463625Y-97567000D01*
X122990000Y-96890000D02*
X122990000Y-96500000D01*
X114432109Y-97572400D02*
X114302909Y-97443200D01*
X122990000Y-96500000D02*
X122990000Y-96881200D01*
X122990000Y-96881200D02*
X122304200Y-97567000D01*
X123500000Y-97400000D02*
X122990000Y-96890000D01*
X119458225Y-97572400D02*
X114432109Y-97572400D01*
G04 #@! TO.N,LRCK*
X119555994Y-89688770D02*
X117977005Y-89688770D01*
X115042169Y-95301798D02*
X115264202Y-95301798D01*
X116687600Y-88783024D02*
X116687600Y-85162400D01*
X116687600Y-85162400D02*
X117350000Y-84500000D01*
X117350000Y-82675000D02*
X118287800Y-81737200D01*
X120732654Y-92573635D02*
X120732654Y-92237679D01*
X114805437Y-95538530D02*
X115042169Y-95301798D01*
X120550000Y-92055025D02*
X120550000Y-90400000D01*
X119934533Y-89784533D02*
X119651757Y-89784533D01*
X117350000Y-84500000D02*
X117350000Y-82675000D01*
X121919220Y-93760201D02*
X120732654Y-92573635D01*
X119651757Y-89784533D02*
X119555994Y-89688770D01*
X117977005Y-89688770D02*
X117593346Y-89688770D01*
X116098000Y-94468000D02*
X116098000Y-93848000D01*
X117977005Y-89688770D02*
X117975816Y-89689959D01*
X117593346Y-89688770D02*
X116687600Y-88783024D01*
X120732654Y-92237679D02*
X120550000Y-92055025D01*
X115264202Y-95301798D02*
X116098000Y-94468000D01*
X118287800Y-81737200D02*
X118287800Y-81610200D01*
X120550000Y-90400000D02*
X119934533Y-89784533D01*
G04 #@! TO.N,DSDIN*
X124798000Y-94310200D02*
X124621200Y-94133400D01*
X124093871Y-89985635D02*
X125432835Y-88646671D01*
X126050000Y-87650000D02*
X126050000Y-84100000D01*
X124093871Y-90006129D02*
X124093871Y-89985635D01*
X123560200Y-81610200D02*
X123367800Y-81610200D01*
X125432835Y-88646671D02*
X125498074Y-88646671D01*
X124621200Y-92102285D02*
X123800000Y-91281085D01*
X125498074Y-88646671D02*
X125694746Y-88450000D01*
X123800000Y-90300000D02*
X124093871Y-90006129D01*
X116448000Y-94673786D02*
X116448000Y-93848000D01*
X126050000Y-84100000D02*
X123560200Y-81610200D01*
X125694746Y-88445130D02*
X125912869Y-88227007D01*
X114992064Y-96576720D02*
X114992064Y-96129722D01*
X124621200Y-94133400D02*
X124621200Y-92102285D01*
X114992064Y-96129722D02*
X116448000Y-94673786D01*
X125912869Y-87787131D02*
X126050000Y-87650000D01*
X125912869Y-88227007D02*
X125912869Y-87787131D01*
X125694746Y-88450000D02*
X125694746Y-88445130D01*
X123800000Y-91281085D02*
X123800000Y-90300000D01*
G04 #@! TO.N,BCLK*
X124971200Y-91957310D02*
X124200000Y-91186110D01*
X124200000Y-91186110D02*
X124200000Y-90439720D01*
X126400000Y-87850000D02*
X126400000Y-82559600D01*
X125907800Y-82067400D02*
X125907800Y-81610200D01*
X116974200Y-94673000D02*
X116798000Y-94496800D01*
X125171200Y-93091000D02*
X124971200Y-92891000D01*
X124200000Y-90439720D02*
X126044746Y-88594975D01*
X126400000Y-82559600D02*
X125907800Y-82067400D01*
X126044746Y-88594975D02*
X126044746Y-88590104D01*
X124971200Y-92891000D02*
X124971200Y-91957310D01*
X117119400Y-94673000D02*
X116974200Y-94673000D01*
X126044746Y-88590104D02*
X126262869Y-88371981D01*
X126262869Y-88371981D02*
X126262869Y-87987131D01*
X126262869Y-87987131D02*
X126400000Y-87850000D01*
X116798000Y-94496800D02*
X116798000Y-93848000D01*
G04 #@! TO.N,MCLK*
X124815600Y-98171000D02*
X119354600Y-98171000D01*
X117773000Y-92523000D02*
X118482582Y-92523000D01*
X118482582Y-92523000D02*
X119735600Y-93776018D01*
X119735600Y-93776018D02*
X119735600Y-95885000D01*
G04 #@! TO.N,+5V*
X121473277Y-91978303D02*
X121250000Y-91755026D01*
X121116254Y-84901019D02*
X121517273Y-84500000D01*
X120960000Y-84901019D02*
X121116254Y-84901019D01*
X121250000Y-89491200D02*
X121005600Y-89246800D01*
X124025000Y-84500000D02*
X124386400Y-84861400D01*
X121473277Y-92041466D02*
X121473277Y-91978303D01*
X120680029Y-86946146D02*
X120680029Y-86881584D01*
X121005600Y-89246800D02*
X121005600Y-87271717D01*
X121517273Y-84500000D02*
X124025000Y-84500000D01*
X121005600Y-87271717D02*
X120680029Y-86946146D01*
X123439574Y-93670774D02*
X122886481Y-93117681D01*
X122886481Y-93117681D02*
X122549492Y-93117681D01*
X123607791Y-93670774D02*
X123439574Y-93670774D01*
X122549492Y-93117681D02*
X121473277Y-92041466D01*
X121250000Y-91755026D02*
X121250000Y-89491200D01*
G04 #@! TO.N,+3V3_A*
X122811000Y-85113400D02*
X121924400Y-86000000D01*
X122936000Y-85050000D02*
X122811000Y-84925000D01*
X122811000Y-84925000D02*
X122811000Y-85113400D01*
X121924400Y-86000000D02*
X121787500Y-86000000D01*
G04 #@! TO.N,+3V3*
X131010000Y-96500000D02*
X130145600Y-97364400D01*
X117092400Y-86309802D02*
X118652202Y-84750000D01*
X118652202Y-84750000D02*
X119270000Y-84750000D01*
X117770000Y-88276800D02*
X117770000Y-89000000D01*
X118541800Y-93811000D02*
X118541800Y-94478200D01*
X117092400Y-86892400D02*
X117092400Y-87599200D01*
X117092400Y-87599200D02*
X117770000Y-88276800D01*
X117092400Y-86892400D02*
X117092400Y-86309802D01*
X118541800Y-93675200D02*
X118089600Y-93223000D01*
X117773000Y-93223000D02*
X117773000Y-92873000D01*
X118541800Y-93811000D02*
X118541800Y-93675200D01*
X118541800Y-94478200D02*
X118020000Y-95000000D01*
X118020000Y-96500000D02*
X118020000Y-95000000D01*
X118089600Y-93223000D02*
X117773000Y-93223000D01*
X130145600Y-97364400D02*
X130145600Y-97561400D01*
X117100000Y-86900000D02*
X117092400Y-86892400D01*
G04 #@! TO.N,SCL*
X124700000Y-87300000D02*
X124700000Y-87413885D01*
X122057397Y-91847767D02*
X121823277Y-91847767D01*
X121600000Y-89946925D02*
X122721024Y-88825901D01*
X121600000Y-91610052D02*
X121600000Y-89946925D01*
X107680153Y-83024935D02*
X106580153Y-81924935D01*
X128270000Y-99491800D02*
X128708200Y-99491800D01*
X117773000Y-92173000D02*
X119031811Y-92173000D01*
X128708200Y-99491800D02*
X129200000Y-99000000D01*
X121823277Y-91847767D02*
X121823277Y-91833329D01*
X110700244Y-84000000D02*
X109725179Y-83024935D01*
X118450000Y-83850000D02*
X124500000Y-83850000D01*
X125300000Y-86700000D02*
X124700000Y-87300000D01*
X124700000Y-87413885D02*
X124530000Y-87583885D01*
X129200000Y-97750000D02*
X129200000Y-97290000D01*
X116800000Y-84225155D02*
X116574845Y-84000000D01*
X125300000Y-84650000D02*
X125300000Y-86700000D01*
X122721024Y-87842467D02*
X122942602Y-87620889D01*
X122721024Y-88825901D02*
X122721024Y-87842467D01*
X127991800Y-99491800D02*
X128270000Y-99491800D01*
X117900000Y-84400000D02*
X118450000Y-83850000D01*
X124500000Y-83850000D02*
X125300000Y-84650000D01*
X119031811Y-92173000D02*
X119181543Y-92322732D01*
X124810865Y-96310865D02*
X127991800Y-99491800D01*
X121823277Y-91833329D02*
X121600000Y-91610052D01*
X124730000Y-96310865D02*
X124810865Y-96310865D01*
X109725179Y-83024935D02*
X107680153Y-83024935D01*
X129200000Y-97290000D02*
X129990000Y-96500000D01*
X116574845Y-84000000D02*
X110700244Y-84000000D01*
G04 #@! TO.N,SDA*
X117773000Y-91823000D02*
X118402750Y-91823000D01*
X123071024Y-88970875D02*
X122200000Y-89841899D01*
X131010000Y-97561400D02*
X131167600Y-97719000D01*
X130810000Y-99212400D02*
X130810000Y-99491800D01*
X116150000Y-83650000D02*
X116327509Y-83472491D01*
X110845218Y-83650000D02*
X116150000Y-83650000D01*
X123071024Y-88295161D02*
X123071024Y-88970875D01*
X109120153Y-81924935D02*
X110845218Y-83650000D01*
X130647600Y-99050000D02*
X130987800Y-99390200D01*
X127839400Y-98350000D02*
X129750000Y-98350000D01*
X129750000Y-98350000D02*
X130450000Y-99050000D01*
X116327509Y-83472491D02*
X116327509Y-83450001D01*
X125362869Y-87999189D02*
X125362869Y-87132105D01*
X125362869Y-87132105D02*
X125650000Y-86844974D01*
X131167600Y-97719000D02*
X131167600Y-99134200D01*
X118200000Y-83300000D02*
X117900000Y-83600000D01*
X131167600Y-99134200D02*
X130810000Y-99491800D01*
X125374722Y-95882923D02*
X125374722Y-95885322D01*
X118402750Y-91823000D02*
X118650750Y-91575000D01*
X125374722Y-95885322D02*
X127839400Y-98350000D01*
X123271024Y-88295161D02*
X123071024Y-88295161D01*
X130450000Y-99050000D02*
X130647600Y-99050000D01*
X125650000Y-86844974D02*
X125650000Y-84300000D01*
X124650000Y-83300000D02*
X118200000Y-83300000D01*
X122200000Y-89841899D02*
X122200000Y-91100000D01*
X125650000Y-84300000D02*
X124650000Y-83300000D01*
G04 #@! TO.N,OK1_COLLECTOR*
X101615298Y-84138698D02*
X101143882Y-84138698D01*
X102903198Y-85426598D02*
X101615298Y-84138698D01*
G04 #@! TO.N,Q1_GATE*
X102446094Y-86696094D02*
X102446094Y-86690869D01*
X114250000Y-86725000D02*
X114250000Y-87000000D01*
X110250000Y-85350000D02*
X108274935Y-83374935D01*
X114250000Y-87000000D02*
X112700000Y-87000000D01*
X111050000Y-85350000D02*
X110250000Y-85350000D01*
X112700000Y-87000000D02*
X111855869Y-86155869D01*
X102450000Y-86700000D02*
X102446094Y-86696094D01*
X115725000Y-85250000D02*
X114250000Y-86725000D01*
X106191523Y-83374935D02*
X102866458Y-86700000D01*
X111240794Y-85531258D02*
X111231258Y-85531258D01*
X111231258Y-85531258D02*
X111050000Y-85350000D01*
X111855869Y-86146333D02*
X111240794Y-85531258D01*
X108274935Y-83374935D02*
X106191523Y-83374935D01*
X111855869Y-86155869D02*
X111855869Y-86146333D01*
X102866458Y-86700000D02*
X102450000Y-86700000D01*
G04 #@! TO.N,V_PoE*
X111449200Y-98050000D02*
X109397800Y-100101400D01*
X116840000Y-98501200D02*
X116388800Y-98050000D01*
X116840000Y-99949000D02*
X116840000Y-98501200D01*
X104902000Y-100101400D02*
X102819200Y-98018600D01*
X127655400Y-88011067D02*
X127655400Y-85217000D01*
X126839000Y-92225249D02*
X126839000Y-90111000D01*
X116388800Y-98050000D02*
X111449200Y-98050000D01*
X124249000Y-100591800D02*
X117482800Y-100591800D01*
X127650000Y-89300000D02*
X127650000Y-88016467D01*
X117482800Y-100591800D02*
X116840000Y-99949000D01*
X127450000Y-96950000D02*
X127800000Y-96600000D01*
X126839000Y-90111000D02*
X127650000Y-89300000D01*
X127650000Y-88016467D02*
X127655400Y-88011067D01*
X124510800Y-100330000D02*
X124249000Y-100591800D01*
X127800000Y-96600000D02*
X127800000Y-94650000D01*
X127800000Y-94650000D02*
X126840750Y-93690750D01*
X126840750Y-93690750D02*
X126840750Y-92226999D01*
X109397800Y-100101400D02*
X104902000Y-100101400D01*
X126840750Y-92226999D02*
X126839000Y-92225249D01*
G04 #@! TO.N,PGND*
X89027000Y-88703400D02*
X89027000Y-88696800D01*
X126899998Y-94749999D02*
X126899251Y-94750746D01*
X89027000Y-88696800D02*
X88976200Y-88646000D01*
X126399000Y-89709248D02*
X126399000Y-94249000D01*
X126399000Y-94249000D02*
X126899998Y-94749999D01*
X100408698Y-85408698D02*
X100000000Y-85000000D01*
X101143882Y-85408698D02*
X100408698Y-85408698D01*
X127100000Y-89008248D02*
X126399000Y-89709248D01*
X126899251Y-94750746D02*
X126899251Y-95707310D01*
G04 #@! TO.N,V_FILT*
X90077000Y-91653400D02*
X89027000Y-92703400D01*
X97063600Y-91653400D02*
X97078800Y-91668600D01*
X89113800Y-85013800D02*
X90855800Y-85013800D01*
X100131549Y-83527818D02*
X99945457Y-83713910D01*
X110476600Y-84750000D02*
X112275000Y-84750000D01*
X96520000Y-85547200D02*
X97002600Y-85064600D01*
X96358000Y-94132400D02*
X95199200Y-94132400D01*
X113270701Y-89320701D02*
X114250000Y-90300000D01*
X98544200Y-98018600D02*
X98544200Y-96318600D01*
X95199200Y-94132400D02*
X94716600Y-93649800D01*
X98221800Y-83845400D02*
X97002600Y-85064600D01*
X97002600Y-86258400D02*
X97002600Y-85064600D01*
X94716600Y-92633800D02*
X95697000Y-91653400D01*
X111070701Y-89320701D02*
X113270701Y-89320701D01*
X96771700Y-91653400D02*
X90077000Y-91653400D01*
X109195010Y-87445010D02*
X111070701Y-89320701D01*
X93319600Y-84226400D02*
X94640400Y-85547200D01*
X88000000Y-83900000D02*
X89113800Y-85013800D01*
X98544200Y-96318600D02*
X96358000Y-94132400D01*
X103222182Y-83527818D02*
X100131549Y-83527818D01*
X109195010Y-87200138D02*
X109195010Y-87445010D01*
X103350000Y-83400000D02*
X103222182Y-83527818D01*
X94640400Y-85547200D02*
X96520000Y-85547200D01*
X96771700Y-91653400D02*
X97063600Y-91653400D01*
X110159800Y-84433200D02*
X110476600Y-84750000D01*
X90855800Y-85013800D02*
X91643200Y-84226400D01*
X98221800Y-83743800D02*
X98221800Y-83845400D01*
X91643200Y-84226400D02*
X93319600Y-84226400D01*
X94716600Y-93649800D02*
X94716600Y-92633800D01*
X95697000Y-91653400D02*
X96771700Y-91653400D01*
G04 #@! TO.N,XLR2_HOT*
X96725742Y-93192600D02*
X97891600Y-92026742D01*
X97891600Y-89281000D02*
X96821000Y-88210400D01*
X96821000Y-88210400D02*
X95834200Y-88210400D01*
X97891600Y-92026742D02*
X97891600Y-89281000D01*
X95834200Y-88108800D02*
X96291400Y-88566000D01*
X95834200Y-93192600D02*
X96725742Y-93192600D01*
G04 #@! TO.N,XLR3_COLD*
X90398600Y-83917800D02*
X91009400Y-83307000D01*
X91009400Y-83307000D02*
X92659200Y-83307000D01*
G04 #@! TO.N,LOUTP*
X113080800Y-93428692D02*
X113080800Y-94513400D01*
X114336492Y-92173000D02*
X113080800Y-93428692D01*
X114773000Y-92173000D02*
X114336492Y-92173000D01*
G04 #@! TO.N,OK1_LED_A*
X106015209Y-87016009D02*
X106015209Y-85234791D01*
X107340400Y-88341200D02*
X106015209Y-87016009D01*
X107111302Y-84138698D02*
X107518882Y-84138698D01*
X106132152Y-88920340D02*
X108601011Y-91389200D01*
X106015209Y-85234791D02*
X107111302Y-84138698D01*
G04 #@! TO.N,DACVREF*
X114318416Y-92873000D02*
X113841755Y-93349661D01*
X123628989Y-89350517D02*
X123628989Y-88894881D01*
X122950000Y-91530473D02*
X122950000Y-90044862D01*
X123628989Y-88894881D02*
X123951171Y-88572699D01*
X123596400Y-92506800D02*
X123342400Y-92252800D01*
X123342400Y-92252800D02*
X123342400Y-91922873D01*
X123977392Y-88377696D02*
X123980000Y-88375088D01*
X122950000Y-90044862D02*
X123636667Y-89358195D01*
X123951171Y-88572699D02*
X123977392Y-88572699D01*
X113841755Y-93349661D02*
X113841755Y-93445555D01*
X123342400Y-91922873D02*
X122950000Y-91530473D01*
X123980000Y-88375088D02*
X123980000Y-86000000D01*
X114773000Y-92873000D02*
X114318416Y-92873000D01*
X123636667Y-89358195D02*
X123628989Y-89350517D01*
X123977392Y-88572699D02*
X123977392Y-88377696D01*
G04 #@! TO.N,MIC1P*
X110837500Y-92862500D02*
X110837500Y-93350000D01*
X112350000Y-92050000D02*
X111650000Y-92050000D01*
X109670000Y-93980000D02*
X110300000Y-93350000D01*
X117703600Y-90449400D02*
X117546600Y-90449400D01*
X112416502Y-90596703D02*
X112631400Y-90811601D01*
X108051600Y-93980000D02*
X109670000Y-93980000D01*
X111650000Y-92050000D02*
X110837500Y-92862500D01*
X112631400Y-91768600D02*
X112350000Y-92050000D01*
X110300000Y-93350000D02*
X110837500Y-93350000D01*
X112631400Y-90811601D02*
X112631400Y-91768600D01*
X117546600Y-90449400D02*
X117148000Y-90848000D01*
G04 #@! TO.N,ADCVREF*
X115548000Y-89594600D02*
X115548000Y-89663838D01*
X118527642Y-90239407D02*
X119889407Y-90239407D01*
X121480000Y-96477400D02*
X121480000Y-96500000D01*
X119889407Y-90239407D02*
X120200000Y-90550000D01*
X122021600Y-94640400D02*
X122021600Y-95935800D01*
X120200000Y-90550000D02*
X120200000Y-92200000D01*
X115548000Y-89663838D02*
X115748000Y-89863838D01*
X120382654Y-92382654D02*
X120382654Y-93001454D01*
X120200000Y-92200000D02*
X120382654Y-92382654D01*
X120382654Y-93001454D02*
X122021600Y-94640400D01*
X122021600Y-95935800D02*
X121480000Y-96477400D01*
X115748000Y-89863838D02*
X115748000Y-90848000D01*
G04 #@! TO.N,PHANTOM_SW*
X112081400Y-91389200D02*
X109621011Y-91389200D01*
G04 #@! TO.N,AD0*
X118389400Y-90855800D02*
X119634000Y-90855800D01*
X123743871Y-89861155D02*
X123400000Y-90205026D01*
X123400000Y-90205026D02*
X123400000Y-91425007D01*
X117773000Y-91472200D02*
X118389400Y-90855800D01*
X124157791Y-93442956D02*
X124157791Y-93898592D01*
X119634000Y-90855800D02*
X119640810Y-90848990D01*
X124155200Y-93901183D02*
X124155200Y-94854800D01*
X124159829Y-92184836D02*
X124159829Y-93440918D01*
X124159829Y-93440918D02*
X124157791Y-93442956D01*
X123743871Y-89840661D02*
X123743871Y-89861155D01*
X124155200Y-94854800D02*
X124010000Y-95000000D01*
X124157791Y-93898592D02*
X124155200Y-93901183D01*
X123400000Y-91425007D02*
X124159829Y-92184836D01*
X124178989Y-89405543D02*
X123743871Y-89840661D01*
X117773000Y-91473000D02*
X117773000Y-91472200D01*
X124178989Y-89122699D02*
X124178989Y-89405543D01*
G04 #@! TO.N,VMID*
X112943450Y-92293250D02*
X113064200Y-92172500D01*
X120520000Y-95000000D02*
X120520000Y-93782600D01*
X120520000Y-93782600D02*
X119710200Y-92972800D01*
X113064200Y-92172500D02*
X113064200Y-91389982D01*
X113454182Y-91000000D02*
X114827986Y-91000000D01*
X114827986Y-91000000D02*
X114979986Y-90848000D01*
X114979986Y-90848000D02*
X115398000Y-90848000D01*
X113064200Y-91389982D02*
X113454182Y-91000000D01*
G04 #@! TO.N,AVDD*
X115990000Y-96379400D02*
X115290600Y-97078800D01*
X122422400Y-96551000D02*
X122422400Y-94620599D01*
X120040400Y-88823800D02*
X120040400Y-88009600D01*
X114442064Y-96804538D02*
X114442064Y-96043901D01*
X115990000Y-96511900D02*
X116607700Y-97129600D01*
X121123277Y-92186440D02*
X121123277Y-92123277D01*
X116607700Y-97129600D02*
X121843800Y-97129600D01*
X115267802Y-97078800D02*
X115219882Y-97126720D01*
X112852982Y-95063400D02*
X112530800Y-94741218D01*
X115990000Y-96000000D02*
X115990000Y-96379400D01*
X115290600Y-97078800D02*
X115267802Y-97078800D01*
X114191518Y-91823000D02*
X114773000Y-91823000D01*
X114764246Y-97126720D02*
X114442064Y-96804538D01*
X122762100Y-94280899D02*
X122762100Y-93825263D01*
X115990000Y-96000000D02*
X115990000Y-96511900D01*
X122422400Y-94620599D02*
X122762100Y-94280899D01*
X120050000Y-88000000D02*
X120050000Y-86512500D01*
X120050000Y-86512500D02*
X120212500Y-86350000D01*
X120900000Y-91900000D02*
X120900000Y-89683400D01*
X120040400Y-88009600D02*
X120050000Y-88000000D01*
X121123277Y-92123277D02*
X120900000Y-91900000D01*
X115219882Y-97126720D02*
X114764246Y-97126720D01*
X122762100Y-93825263D02*
X121123277Y-92186440D01*
X114442064Y-96043901D02*
X113461563Y-95063400D01*
X120900000Y-89683400D02*
X120040400Y-88823800D01*
X112530800Y-93483718D02*
X114191518Y-91823000D01*
X121843800Y-97129600D02*
X122422400Y-96551000D01*
X112530800Y-94741218D02*
X112530800Y-93483718D01*
X113461563Y-95063400D02*
X112852982Y-95063400D01*
G04 #@! TO.N,MIC2P*
X116448000Y-89104577D02*
X116448000Y-90848000D01*
X112524383Y-88514039D02*
X115857463Y-88514039D01*
X111775409Y-88220701D02*
X112231045Y-88220701D01*
X111264092Y-88643489D02*
X111453227Y-88643489D01*
X108051600Y-95529400D02*
X107009400Y-95529400D01*
X107009400Y-95529400D02*
X107000000Y-95520000D01*
X112231045Y-88220701D02*
X112524383Y-88514039D01*
X111453227Y-88643489D02*
X111453227Y-88542883D01*
X115857463Y-88514039D02*
X116448000Y-89104577D01*
X111453227Y-88542883D02*
X111775409Y-88220701D01*
G04 #@! TO.N,MIC2N*
X116098000Y-90848000D02*
X116098000Y-89249550D01*
X111962600Y-92760200D02*
X111962600Y-95442600D01*
X115712489Y-88864039D02*
X112096565Y-88864039D01*
X116098000Y-89249550D02*
X115712489Y-88864039D01*
X112096565Y-88864039D02*
X112003227Y-88770701D01*
X111962600Y-95442600D02*
X112520000Y-96000000D01*
G04 #@! TD*
M02*
