G04 #@! TF.GenerationSoftware,KiCad,Pcbnew,10.0.3*
G04 #@! TF.CreationDate,2026-07-21T21:42:40-07:00*
G04 #@! TF.ProjectId,scramble_hat,73637261-6d62-46c6-955f-6861742e6b69,rev?*
G04 #@! TF.SameCoordinates,Original*
G04 #@! TF.FileFunction,Copper,L1,Top*
G04 #@! TF.FilePolarity,Positive*
%FSLAX46Y46*%
G04 Gerber Fmt 4.6, Leading zero omitted, Abs format (unit mm)*
G04 Created by KiCad (PCBNEW 10.0.3) date 2026-07-21 21:42:40*
%MOMM*%
%LPD*%
G01*
G04 APERTURE LIST*
G04 Aperture macros list*
%AMRoundRect*
0 Rectangle with rounded corners*
0 $1 Rounding radius*
0 $2 $3 $4 $5 $6 $7 $8 $9 X,Y pos of 4 corners*
0 Add a 4 corners polygon primitive as box body*
4,1,4,$2,$3,$4,$5,$6,$7,$8,$9,$2,$3,0*
0 Add four circle primitives for the rounded corners*
1,1,$1+$1,$2,$3*
1,1,$1+$1,$4,$5*
1,1,$1+$1,$6,$7*
1,1,$1+$1,$8,$9*
0 Add four rect primitives between the rounded corners*
20,1,$1+$1,$2,$3,$4,$5,0*
20,1,$1+$1,$4,$5,$6,$7,0*
20,1,$1+$1,$6,$7,$8,$9,0*
20,1,$1+$1,$8,$9,$2,$3,0*%
G04 Aperture macros list end*
G04 #@! TA.AperFunction,SMDPad,CuDef*
%ADD10RoundRect,0.112500X-0.187500X-0.112500X0.187500X-0.112500X0.187500X0.112500X-0.187500X0.112500X0*%
G04 #@! TD*
G04 #@! TA.AperFunction,SMDPad,CuDef*
%ADD11RoundRect,0.135000X-0.135000X-0.185000X0.135000X-0.185000X0.135000X0.185000X-0.135000X0.185000X0*%
G04 #@! TD*
G04 #@! TA.AperFunction,SMDPad,CuDef*
%ADD12RoundRect,0.137500X0.587500X0.137500X-0.587500X0.137500X-0.587500X-0.137500X0.587500X-0.137500X0*%
G04 #@! TD*
G04 #@! TA.AperFunction,SMDPad,CuDef*
%ADD13RoundRect,0.250000X-0.250000X-0.475000X0.250000X-0.475000X0.250000X0.475000X-0.250000X0.475000X0*%
G04 #@! TD*
G04 #@! TA.AperFunction,SMDPad,CuDef*
%ADD14RoundRect,0.250000X-0.450000X0.262500X-0.450000X-0.262500X0.450000X-0.262500X0.450000X0.262500X0*%
G04 #@! TD*
G04 #@! TA.AperFunction,SMDPad,CuDef*
%ADD15R,2.800000X2.200000*%
G04 #@! TD*
G04 #@! TA.AperFunction,SMDPad,CuDef*
%ADD16R,2.800000X2.800000*%
G04 #@! TD*
G04 #@! TA.AperFunction,SMDPad,CuDef*
%ADD17R,2.800000X2.600000*%
G04 #@! TD*
G04 #@! TA.AperFunction,ComponentPad*
%ADD18R,1.700000X1.700000*%
G04 #@! TD*
G04 #@! TA.AperFunction,ComponentPad*
%ADD19C,1.700000*%
G04 #@! TD*
G04 #@! TA.AperFunction,SMDPad,CuDef*
%ADD20RoundRect,0.150000X-0.512500X-0.150000X0.512500X-0.150000X0.512500X0.150000X-0.512500X0.150000X0*%
G04 #@! TD*
G04 #@! TA.AperFunction,SMDPad,CuDef*
%ADD21RoundRect,0.140000X-0.140000X-0.170000X0.140000X-0.170000X0.140000X0.170000X-0.140000X0.170000X0*%
G04 #@! TD*
G04 #@! TA.AperFunction,SMDPad,CuDef*
%ADD22RoundRect,0.135000X0.135000X0.185000X-0.135000X0.185000X-0.135000X-0.185000X0.135000X-0.185000X0*%
G04 #@! TD*
G04 #@! TA.AperFunction,ComponentPad*
%ADD23C,1.600000*%
G04 #@! TD*
G04 #@! TA.AperFunction,ComponentPad*
%ADD24C,2.900000*%
G04 #@! TD*
G04 #@! TA.AperFunction,ComponentPad*
%ADD25C,2.700000*%
G04 #@! TD*
G04 #@! TA.AperFunction,ComponentPad*
%ADD26C,3.200000*%
G04 #@! TD*
G04 #@! TA.AperFunction,ComponentPad*
%ADD27C,3.400000*%
G04 #@! TD*
G04 #@! TA.AperFunction,SMDPad,CuDef*
%ADD28RoundRect,0.137500X-0.587500X-0.137500X0.587500X-0.137500X0.587500X0.137500X-0.587500X0.137500X0*%
G04 #@! TD*
G04 #@! TA.AperFunction,ComponentPad*
%ADD29O,1.600000X1.600000*%
G04 #@! TD*
G04 #@! TA.AperFunction,ViaPad*
%ADD30C,0.600000*%
G04 #@! TD*
G04 #@! TA.AperFunction,Conductor*
%ADD31C,0.200000*%
G04 #@! TD*
G04 APERTURE END LIST*
D10*
G04 #@! TO.P,D1,1,K_1*
G04 #@! TO.N,MIC1N_XLR*
X107075628Y-85442625D03*
G04 #@! TO.P,D1,2,A_2*
G04 #@! TO.N,AGND*
X109175628Y-85442625D03*
G04 #@! TD*
D11*
G04 #@! TO.P,R18,1*
G04 #@! TO.N,PHANTOM_SW*
X115490000Y-94000000D03*
G04 #@! TO.P,R18,2*
G04 #@! TO.N,K2_LEDA*
X116510000Y-94000000D03*
G04 #@! TD*
D12*
G04 #@! TO.P,K1,1,A_1*
G04 #@! TO.N,K1_LEDA*
X120000000Y-91040000D03*
G04 #@! TO.P,K1,2,K_2*
G04 #@! TO.N,AGND*
X120000000Y-88500000D03*
G04 #@! TO.P,K1,3,L1_3*
G04 #@! TO.N,TAP_HV*
X114500000Y-88500000D03*
G04 #@! TO.P,K1,4,L2_4*
G04 #@! TO.N,V_PoE*
X114500000Y-91040000D03*
G04 #@! TD*
D13*
G04 #@! TO.P,C14,1*
G04 #@! TO.N,HP_L_OUT*
X109620800Y-94500000D03*
G04 #@! TO.P,C14,2*
G04 #@! TO.N,HP_L*
X111520800Y-94500000D03*
G04 #@! TD*
D11*
G04 #@! TO.P,R10,1*
G04 #@! TO.N,HP_R*
X112060800Y-96500000D03*
G04 #@! TO.P,R10,2*
G04 #@! TO.N,ROUTP*
X113080800Y-96500000D03*
G04 #@! TD*
D14*
G04 #@! TO.P,R16,1*
G04 #@! TO.N,V_PHANTOM*
X129750000Y-92925000D03*
G04 #@! TO.P,R16,2*
G04 #@! TO.N,PHANTOM_LED*
X129750000Y-94750000D03*
G04 #@! TD*
D15*
G04 #@! TO.P,J2,R,R1_ROUT_R*
G04 #@! TO.N,HP_R_OUT*
X101803200Y-97358200D03*
G04 #@! TO.P,J2,S,S_MIC_S*
G04 #@! TO.N,MIC2_RAW*
X109203200Y-99358200D03*
D16*
G04 #@! TO.P,J2,T,T_LOUT_T*
G04 #@! TO.N,HP_L_OUT*
X109203200Y-89958200D03*
D17*
G04 #@! TO.P,J2,TN,R2_GND_TN*
G04 #@! TO.N,AGND*
X104753200Y-85958200D03*
G04 #@! TD*
D18*
G04 #@! TO.P,J3,1,Pin_1_1*
G04 #@! TO.N,ASDOUT*
X115568642Y-81958514D03*
D19*
G04 #@! TO.P,J3,2,Pin_2_2*
G04 #@! TO.N,LRCK*
X118108642Y-81958514D03*
G04 #@! TO.P,J3,3,Pin_3_3*
G04 #@! TO.N,AGND*
X120648642Y-81958514D03*
G04 #@! TO.P,J3,4,Pin_4_4*
G04 #@! TO.N,DSDIN*
X123188642Y-81958514D03*
G04 #@! TO.P,J3,5,Pin_5_5*
G04 #@! TO.N,BCLK*
X125728642Y-81958514D03*
G04 #@! TO.P,J3,6,Pin_6_6*
G04 #@! TO.N,MCLK*
X128268642Y-81958514D03*
G04 #@! TO.P,J3,7,Pin_7_7*
G04 #@! TO.N,DET*
X130808642Y-81958514D03*
G04 #@! TD*
D20*
G04 #@! TO.P,U2,1,IN_1*
G04 #@! TO.N,+5V*
X120658100Y-84887900D03*
G04 #@! TO.P,U2,2,GND_2*
G04 #@! TO.N,AGND*
X120658100Y-85837900D03*
G04 #@! TO.P,U2,3,EN_3*
G04 #@! TO.N,+5V*
X120658100Y-86787900D03*
G04 #@! TO.P,U2,4,NC_4*
G04 #@! TO.N,unconnected-(U2-NC-Pad4)*
X122933100Y-86787900D03*
G04 #@! TO.P,U2,5,OUT_5*
G04 #@! TO.N,+3V3_A*
X122933100Y-84887900D03*
G04 #@! TD*
D13*
G04 #@! TO.P,C15,1*
G04 #@! TO.N,HP_R_OUT*
X109620800Y-96500000D03*
G04 #@! TO.P,C15,2*
G04 #@! TO.N,HP_R*
X111520800Y-96500000D03*
G04 #@! TD*
D18*
G04 #@! TO.P,J6,1,Pin_1_1*
G04 #@! TO.N,AGND*
X101490180Y-82014535D03*
D19*
G04 #@! TO.P,J6,2,Pin_2_2*
G04 #@! TO.N,+3V3*
X104030180Y-82014535D03*
G04 #@! TO.P,J6,3,Pin_3_3*
G04 #@! TO.N,SCL*
X106570180Y-82014535D03*
G04 #@! TO.P,J6,4,Pin_4_4*
G04 #@! TO.N,SDA*
X109110180Y-82014535D03*
G04 #@! TD*
D21*
G04 #@! TO.P,C21,1*
G04 #@! TO.N,+5V*
X124386400Y-84861400D03*
G04 #@! TO.P,C21,2*
G04 #@! TO.N,AGND*
X125346400Y-84861400D03*
G04 #@! TD*
D11*
G04 #@! TO.P,R17,1*
G04 #@! TO.N,PHANTOM_SW*
X116490000Y-92250000D03*
G04 #@! TO.P,R17,2*
G04 #@! TO.N,K1_LEDA*
X117510000Y-92250000D03*
G04 #@! TD*
D22*
G04 #@! TO.P,R13,1*
G04 #@! TO.N,OK1_COLLECTOR*
X101932077Y-85799746D03*
G04 #@! TO.P,R13,2*
G04 #@! TO.N,Q1_GATE*
X100912077Y-85799746D03*
G04 #@! TD*
D21*
G04 #@! TO.P,C22,1*
G04 #@! TO.N,+3V3_A*
X124361000Y-86741000D03*
G04 #@! TO.P,C22,2*
G04 #@! TO.N,AGND*
X125321000Y-86741000D03*
G04 #@! TD*
D18*
G04 #@! TO.P,J4,1,Pin_1_1*
G04 #@! TO.N,+5V*
X115579670Y-99511875D03*
D19*
G04 #@! TO.P,J4,2,Pin_2_2*
G04 #@! TO.N,unconnected-(J4-Pin_2-Pad2)*
X118119670Y-99511875D03*
G04 #@! TO.P,J4,3,Pin_3_3*
G04 #@! TO.N,AGND*
X120659670Y-99511875D03*
G04 #@! TO.P,J4,4,Pin_4_4*
G04 #@! TO.N,unconnected-(J4-Pin_4-Pad4)*
X123199670Y-99511875D03*
G04 #@! TO.P,J4,5,Pin_5_5*
G04 #@! TO.N,+3V3*
X125739670Y-99511875D03*
G04 #@! TO.P,J4,6,Pin_6_6*
G04 #@! TO.N,SCL*
X128279670Y-99511875D03*
G04 #@! TO.P,J4,7,Pin_7_7*
G04 #@! TO.N,SDA*
X130819670Y-99511875D03*
G04 #@! TD*
D18*
G04 #@! TO.P,J5,1,Pin_1_1*
G04 #@! TO.N,TAP_HV*
X127655400Y-85217000D03*
D19*
G04 #@! TO.P,J5,2,Pin_2_2*
G04 #@! TO.N,TAP_GND*
X130195400Y-85217000D03*
G04 #@! TD*
D23*
G04 #@! TO.P,C19,1*
G04 #@! TO.N,PGND*
X110805869Y-86581258D03*
G04 #@! TO.P,C19,2*
G04 #@! TO.N,AGND*
X118305869Y-86581258D03*
G04 #@! TD*
D11*
G04 #@! TO.P,R11,1*
G04 #@! TO.N,Q1_GATE*
X100929852Y-84431076D03*
G04 #@! TO.P,R11,2*
G04 #@! TO.N,V_FILT*
X101949852Y-84431076D03*
G04 #@! TD*
G04 #@! TO.P,R14,1*
G04 #@! TO.N,PGND*
X113990000Y-87250000D03*
G04 #@! TO.P,R14,2*
G04 #@! TO.N,AGND*
X115010000Y-87250000D03*
G04 #@! TD*
D24*
G04 #@! TO.P,J1,1,XLR_1_1*
G04 #@! TO.N,PGND*
X94996000Y-97764600D03*
G04 #@! TO.P,J1,2,XLR_2_2*
G04 #@! TO.N,XLR2_HOT*
X95631000Y-83794600D03*
D25*
G04 #@! TO.P,J1,3,XLR_3_3*
G04 #@! TO.N,XLR3_COLD*
X100076000Y-90779600D03*
D26*
G04 #@! TO.P,J1,G,JACK_G_G*
G04 #@! TO.N,PGND*
X83566000Y-99034600D03*
D25*
G04 #@! TO.P,J1,R,JACK_R_R*
G04 #@! TO.N,DET*
X99441000Y-87922100D03*
G04 #@! TO.P,J1,S,JACK_S_S*
G04 #@! TO.N,PGND*
X99441000Y-93637100D03*
D27*
G04 #@! TO.P,J1,T,JACK_T_T*
G04 #@! TO.N,GTIP*
X92456000Y-95224600D03*
X92456000Y-86334600D03*
G04 #@! TD*
D11*
G04 #@! TO.P,R9,1*
G04 #@! TO.N,HP_L*
X112060800Y-94500000D03*
G04 #@! TO.P,R9,2*
G04 #@! TO.N,LOUTP*
X113080800Y-94500000D03*
G04 #@! TD*
D28*
G04 #@! TO.P,K2,1,A_1*
G04 #@! TO.N,K2_LEDA*
X122005307Y-92835059D03*
G04 #@! TO.P,K2,2,K_2*
G04 #@! TO.N,AGND*
X122005307Y-95375059D03*
G04 #@! TO.P,K2,3,L1_3*
G04 #@! TO.N,TAP_GND*
X127505307Y-95375059D03*
G04 #@! TO.P,K2,4,L2_4*
G04 #@! TO.N,PGND*
X127505307Y-92835059D03*
G04 #@! TD*
D29*
G04 #@! TO.P,SW1,1,A_1*
G04 #@! TO.N,+3V3*
X125305993Y-90746504D03*
D23*
G04 #@! TO.P,SW1,2,B_2*
G04 #@! TO.N,PHANTOM_SW*
X127845993Y-90746504D03*
D29*
G04 #@! TO.P,SW1,3,C_3*
G04 #@! TO.N,AGND*
X130385993Y-90746504D03*
G04 #@! TD*
D30*
G04 #@! TO.N,MIC1N_XLR*
X90839200Y-89051865D03*
X106000000Y-84208198D03*
X87370000Y-85200000D03*
G04 #@! TO.N,AGND*
X108040000Y-85442625D03*
X118106221Y-93880406D03*
X121522400Y-95500000D03*
X116586397Y-87286397D03*
X89000000Y-86000000D03*
X86000000Y-83500000D03*
X122845330Y-85966459D03*
X124750000Y-85815867D03*
X118516985Y-88733015D03*
X115700000Y-92300000D03*
X114922657Y-86882682D03*
X127000000Y-82650000D03*
X113800800Y-96672400D03*
X88100000Y-88500000D03*
X123379147Y-95785454D03*
G04 #@! TO.N,PHANTOM_SW*
X112269855Y-92032939D03*
X112391756Y-93586062D03*
G04 #@! TO.N,TAP_HV*
X126086091Y-89637953D03*
G04 #@! TO.N,V_PoE*
X105600000Y-100100000D03*
G04 #@! TO.N,ROUTP*
X114044165Y-94744165D03*
G04 #@! TO.N,V_PHANTOM*
X103400000Y-90600000D03*
X96298847Y-87247900D03*
X96000000Y-89800000D03*
X112450000Y-87700000D03*
X115643067Y-86674090D03*
G04 #@! TO.N,PHANTOM_LED*
X129000000Y-95650000D03*
G04 #@! TO.N,MIC2_RAW*
X109203200Y-99358200D03*
X117271800Y-96545400D03*
G04 #@! TO.N,ASDOUT*
X114866961Y-94732113D03*
X123500000Y-97500000D03*
X114302909Y-97443200D03*
G04 #@! TO.N,LRCK*
X114805437Y-95538530D03*
X122212101Y-94084283D03*
G04 #@! TO.N,DSDIN*
X114992064Y-96576720D03*
X124798000Y-94310200D03*
G04 #@! TO.N,BCLK*
X125171200Y-93091000D03*
X117119400Y-94673000D03*
G04 #@! TO.N,MCLK*
X119060000Y-98171000D03*
X119735600Y-96229600D03*
X125550000Y-97963300D03*
G04 #@! TO.N,DET*
X99350000Y-82600000D03*
X98644283Y-85772101D03*
G04 #@! TO.N,+5V*
X123607791Y-93670774D03*
X90300000Y-96700000D03*
X121000000Y-86700000D03*
X86700000Y-95300000D03*
X124386400Y-84861400D03*
X121116254Y-84901019D03*
G04 #@! TO.N,+3V3_A*
X122936000Y-85050000D03*
G04 #@! TO.N,+3V3*
X118900000Y-94000000D03*
X119270000Y-84750000D03*
X92400000Y-92700000D03*
X114100000Y-85200000D03*
X131010000Y-96500000D03*
G04 #@! TO.N,SCL*
X124730000Y-96310865D03*
X118100208Y-84821973D03*
X122120000Y-91650000D03*
X122942602Y-87620889D03*
X129550000Y-100250000D03*
X116708134Y-85314048D03*
X124530000Y-87583885D03*
X119181543Y-92322732D03*
X129200000Y-97750000D03*
G04 #@! TO.N,SDA*
X125362869Y-87737131D03*
X118100000Y-83400000D03*
X118700000Y-91615224D03*
X125688909Y-96400000D03*
X123271024Y-88295161D03*
X122150000Y-90850000D03*
X117000001Y-83597723D03*
G04 #@! TO.N,OK1_COLLECTOR*
X102903198Y-85426598D03*
G04 #@! TO.N,Q1_GATE*
X96799400Y-89789000D03*
X102446094Y-86690869D03*
G04 #@! TO.N,TAP_GND*
X127836751Y-95110000D03*
G04 #@! TO.N,PGND*
X126950000Y-83850000D03*
X127600000Y-92800000D03*
X83250000Y-88750000D03*
X88000000Y-82000000D03*
X100000000Y-84750000D03*
G04 #@! TO.N,V_FILT*
X103350000Y-83400000D03*
X98550000Y-84280000D03*
X97100000Y-86300000D03*
X97078800Y-91668600D03*
X109150000Y-87100000D03*
X100050000Y-83350000D03*
X110159800Y-84433200D03*
G04 #@! TO.N,XLR2_HOT*
X95834200Y-88108800D03*
X95411200Y-92000000D03*
G04 #@! TO.N,XLR3_COLD*
X92659200Y-83307000D03*
G04 #@! TO.N,LOUTP*
X113279391Y-94542790D03*
G04 #@! TO.N,OK1_LED_A*
X107950000Y-92000000D03*
X107340400Y-88341200D03*
G04 #@! TO.N,DACVREF*
X123200000Y-92500000D03*
X113841755Y-93445555D03*
G04 #@! TO.N,MIC1P_XLR*
X97700000Y-95700000D03*
X95800000Y-95200000D03*
G04 #@! TO.N,ADCVREF*
X115548647Y-89499934D03*
X118550013Y-90110000D03*
G04 #@! TO.N,AD0*
X119650000Y-89950000D03*
X123300000Y-89863909D03*
G04 #@! TO.N,PGND_AC*
X89400000Y-91800000D03*
X86500000Y-88700000D03*
G04 #@! TO.N,VMID*
X113068350Y-92168350D03*
X119710200Y-92972800D03*
G04 #@! TO.N,BUF_R*
X88300000Y-95500000D03*
X87000000Y-96750000D03*
G04 #@! TO.N,MIC1P*
X97521204Y-94971622D03*
X117789111Y-90110000D03*
X112416502Y-90596703D03*
X93203577Y-91751874D03*
G04 #@! TO.N,MIC1N*
X102100000Y-94600000D03*
X112726458Y-89870701D03*
X93900000Y-92401865D03*
X117004328Y-89806278D03*
G04 #@! TO.N,MIC2P*
X105230000Y-96250000D03*
X111264092Y-88643489D03*
G04 #@! TO.N,VBIAS*
X83800000Y-95000000D03*
X89300000Y-96800000D03*
X86000000Y-96500000D03*
G04 #@! TO.N,MIC2N*
X111250000Y-92700000D03*
X112003227Y-88770701D03*
G04 #@! TO.N,GB_IN*
X93500000Y-99800000D03*
X88400000Y-98000000D03*
G04 #@! TD*
G04 #@! TO.N,MIC1N_XLR*
D31*
X107075628Y-85080628D02*
X107075628Y-85442625D01*
X87370000Y-85200000D02*
X89450000Y-85200000D01*
X90300000Y-88512665D02*
X90839200Y-89051865D01*
X90300000Y-86050000D02*
X90300000Y-88512665D01*
X89450000Y-85200000D02*
X90300000Y-86050000D01*
X106203198Y-84208198D02*
X107075628Y-85080628D01*
X106000000Y-84208198D02*
X106203198Y-84208198D01*
G04 #@! TO.N,AGND*
X105695000Y-86900000D02*
X104753200Y-85958200D01*
X118816985Y-88733015D02*
X118516985Y-88733015D01*
X101500153Y-81924935D02*
X101500153Y-82705153D01*
X125321000Y-84886800D02*
X125346400Y-84861400D01*
X120000000Y-88500000D02*
X119050000Y-88500000D01*
X131295400Y-84590374D02*
X131295400Y-86846200D01*
X106600000Y-86900000D02*
X105695000Y-86900000D01*
X87200000Y-86000000D02*
X86750000Y-86450000D01*
X131295400Y-86846200D02*
X130290000Y-87851600D01*
X89000000Y-86000000D02*
X87200000Y-86000000D01*
X104753200Y-85958200D02*
X105268775Y-85442625D01*
X127000000Y-82650000D02*
X127150000Y-82800000D01*
X120658100Y-85837900D02*
X120646000Y-85850000D01*
X108040000Y-85460000D02*
X106600000Y-86900000D01*
X124811474Y-85815867D02*
X125321000Y-86325393D01*
X130055026Y-83350000D02*
X131295400Y-84590374D01*
X125321000Y-86325393D02*
X125321000Y-86741000D01*
X124750000Y-85815867D02*
X124811474Y-85815867D01*
X119050000Y-88500000D02*
X118816985Y-88733015D01*
X86750000Y-87150000D02*
X88100000Y-88500000D01*
X125321000Y-86741000D02*
X125321000Y-84886800D01*
X108047375Y-85450000D02*
X109168253Y-85450000D01*
X127150000Y-82800000D02*
X127400000Y-82800000D01*
X86000000Y-83500000D02*
X86060000Y-83500000D01*
X100725645Y-81250000D02*
X87650000Y-81250000D01*
X101490180Y-82014535D02*
X100725645Y-81250000D01*
X127400000Y-82800000D02*
X127950000Y-83350000D01*
X87650000Y-81250000D02*
X86750000Y-82150000D01*
X109168253Y-85450000D02*
X109175628Y-85442625D01*
X86750000Y-82150000D02*
X86750000Y-84190000D01*
X86750000Y-86450000D02*
X86750000Y-87150000D01*
X118652400Y-85850000D02*
X118294800Y-86207600D01*
X86750000Y-84190000D02*
X86750000Y-86450000D01*
X101500153Y-82705153D02*
X104753200Y-85958200D01*
X130290000Y-87851600D02*
X130290000Y-90750000D01*
X127950000Y-83350000D02*
X130055026Y-83350000D01*
X86060000Y-83500000D02*
X86750000Y-84190000D01*
X108040000Y-85442625D02*
X108040000Y-85460000D01*
X108040000Y-85442625D02*
X108047375Y-85450000D01*
X120646000Y-85850000D02*
X118652400Y-85850000D01*
G04 #@! TO.N,PHANTOM_SW*
X121200000Y-90500000D02*
X119100000Y-90500000D01*
X126792497Y-91800000D02*
X124394176Y-91800000D01*
X118884776Y-90715224D02*
X117834776Y-90715224D01*
X115858350Y-91618350D02*
X116490000Y-92250000D01*
X112269855Y-92032939D02*
X112684444Y-91618350D01*
X112684444Y-91618350D02*
X115858350Y-91618350D01*
X116490000Y-92060000D02*
X116490000Y-92250000D01*
X113035076Y-93586062D02*
X112391756Y-93586062D01*
X121500000Y-90200000D02*
X121200000Y-90500000D01*
X127845993Y-90746504D02*
X126792497Y-91800000D01*
X124394176Y-91800000D02*
X122794176Y-90200000D01*
X119100000Y-90500000D02*
X118884776Y-90715224D01*
X115490000Y-94000000D02*
X113449014Y-94000000D01*
X122794176Y-90200000D02*
X121500000Y-90200000D01*
X117834776Y-90715224D02*
X116490000Y-92060000D01*
X113449014Y-94000000D02*
X113035076Y-93586062D01*
G04 #@! TO.N,K2_LEDA*
X117224218Y-94000000D02*
X116510000Y-94000000D01*
X117774218Y-94550000D02*
X117224218Y-94000000D01*
X121280308Y-92835059D02*
X119565367Y-94550000D01*
X122005307Y-92835059D02*
X121280308Y-92835059D01*
X119565367Y-94550000D02*
X117774218Y-94550000D01*
G04 #@! TO.N,K1_LEDA*
X117510000Y-91815852D02*
X118260628Y-91065224D01*
X118260628Y-91065224D02*
X119974776Y-91065224D01*
X117510000Y-92250000D02*
X117510000Y-91815852D01*
X119974776Y-91065224D02*
X120000000Y-91040000D01*
G04 #@! TO.N,TAP_HV*
X118289167Y-88183015D02*
X117972182Y-88500000D01*
X125670321Y-89222183D02*
X122922183Y-89222183D01*
X118816985Y-88183015D02*
X118289167Y-88183015D01*
X119100000Y-87900000D02*
X118816985Y-88183015D01*
X117972182Y-88500000D02*
X114500000Y-88500000D01*
X126086091Y-89637953D02*
X125670321Y-89222183D01*
X122922183Y-89222183D02*
X121600000Y-87900000D01*
X121600000Y-87900000D02*
X119100000Y-87900000D01*
G04 #@! TO.N,V_PoE*
X114500000Y-91040000D02*
X114340000Y-91200000D01*
X112200000Y-91200000D02*
X111700000Y-91700000D01*
X111700000Y-91700000D02*
X111700000Y-92372182D01*
X111500000Y-93350000D02*
X111150000Y-93350000D01*
X109798690Y-97761144D02*
X107838856Y-97761144D01*
X110750000Y-96809834D02*
X109798690Y-97761144D01*
X105600000Y-100000000D02*
X105600000Y-100100000D01*
X114340000Y-91200000D02*
X112200000Y-91200000D01*
X111150000Y-93350000D02*
X110750000Y-93750000D01*
X111850000Y-93000000D02*
X111500000Y-93350000D01*
X111850000Y-92522182D02*
X111850000Y-93000000D01*
X111700000Y-92372182D02*
X111850000Y-92522182D01*
X107838856Y-97761144D02*
X105600000Y-100000000D01*
X110750000Y-93750000D02*
X110750000Y-96809834D01*
G04 #@! TO.N,HP_L_OUT*
X109474000Y-91363800D02*
X109474000Y-94353200D01*
X109474000Y-94353200D02*
X109620800Y-94500000D01*
G04 #@! TO.N,HP_L*
X111520800Y-94500000D02*
X112060800Y-94500000D01*
G04 #@! TO.N,HP_R*
X111520800Y-96500000D02*
X112060800Y-96500000D01*
G04 #@! TO.N,ROUTP*
X114044165Y-94755835D02*
X113080800Y-95719200D01*
X114044165Y-94744165D02*
X114044165Y-94755835D01*
X113080800Y-95719200D02*
X113080800Y-96500000D01*
G04 #@! TO.N,V_PHANTOM*
X126050000Y-84450000D02*
X126050000Y-86400000D01*
X118168742Y-85531258D02*
X118721091Y-84978909D01*
X117618742Y-85531258D02*
X118168742Y-85531258D01*
X126050000Y-86400000D02*
X126750000Y-87100000D01*
X96450000Y-89350000D02*
X96450000Y-87399053D01*
X96000000Y-89800000D02*
X96450000Y-89350000D01*
X116450000Y-86650000D02*
X117550000Y-85550000D01*
X115643067Y-86674090D02*
X115662954Y-86674090D01*
X117600000Y-85550000D02*
X117618742Y-85531258D01*
X117550000Y-85550000D02*
X117600000Y-85550000D01*
X115662954Y-86674090D02*
X115687044Y-86650000D01*
X118720000Y-84522182D02*
X119092182Y-84150000D01*
X106300000Y-87700000D02*
X103400000Y-90600000D01*
X126750000Y-87650000D02*
X128950000Y-89850000D01*
X115687044Y-86650000D02*
X116450000Y-86650000D01*
X96450000Y-87399053D02*
X96298847Y-87247900D01*
X118720000Y-84977818D02*
X118720000Y-84522182D01*
X112450000Y-87700000D02*
X106300000Y-87700000D01*
X128950000Y-89850000D02*
X128950000Y-92125000D01*
X118721091Y-84978909D02*
X118720000Y-84977818D01*
X125750000Y-84150000D02*
X126050000Y-84450000D01*
X126750000Y-87100000D02*
X126750000Y-87650000D01*
X119092182Y-84150000D02*
X125750000Y-84150000D01*
X128950000Y-92125000D02*
X129750000Y-92925000D01*
G04 #@! TO.N,PHANTOM_LED*
X129000000Y-95500000D02*
X129750000Y-94750000D01*
X129000000Y-95650000D02*
X129000000Y-95500000D01*
G04 #@! TO.N,HP_R_OUT*
X109270600Y-96850200D02*
X109620800Y-96500000D01*
X102074000Y-96850200D02*
X109270600Y-96850200D01*
G04 #@! TO.N,MIC2_RAW*
X115982400Y-97993200D02*
X117271800Y-96703800D01*
X110568200Y-97993200D02*
X115982400Y-97993200D01*
X109203200Y-99358200D02*
X110568200Y-97993200D01*
X117271800Y-96703800D02*
X117271800Y-96545400D01*
G04 #@! TO.N,ASDOUT*
X128950000Y-84311600D02*
X128388400Y-83750000D01*
X119350000Y-82750000D02*
X119350000Y-81600000D01*
X128950000Y-89300000D02*
X128950000Y-84311600D01*
X127177818Y-83300000D02*
X119900000Y-83300000D01*
X129820000Y-96200000D02*
X130900000Y-95120000D01*
X114255437Y-95310712D02*
X114255437Y-96349219D01*
X114255437Y-96349219D02*
X114350800Y-96444582D01*
X129300000Y-89650000D02*
X128950000Y-89300000D01*
X129800000Y-91900000D02*
X129300000Y-91400000D01*
X129300000Y-91400000D02*
X129300000Y-89650000D01*
X123500000Y-97500000D02*
X123524392Y-97500000D01*
X130400000Y-91900000D02*
X129800000Y-91900000D01*
X114834036Y-94732113D02*
X114255437Y-95310712D01*
X114866961Y-94732113D02*
X114834036Y-94732113D01*
X130900000Y-95120000D02*
X130900000Y-92400000D01*
X114350800Y-97395309D02*
X114302909Y-97443200D01*
X128388400Y-83750000D02*
X127627818Y-83750000D01*
X127627818Y-83750000D02*
X127177818Y-83300000D01*
X119350000Y-81600000D02*
X118600000Y-80850000D01*
X119900000Y-83300000D02*
X119350000Y-82750000D01*
X123524392Y-97500000D02*
X123874392Y-97150000D01*
X114350800Y-96444582D02*
X114350800Y-97395309D01*
X116677156Y-80850000D02*
X115568642Y-81958514D01*
X130900000Y-92400000D02*
X130400000Y-91900000D01*
X125900000Y-97150000D02*
X126850000Y-96200000D01*
X126850000Y-96200000D02*
X129820000Y-96200000D01*
X123874392Y-97150000D02*
X125900000Y-97150000D01*
X118600000Y-80850000D02*
X116677156Y-80850000D01*
G04 #@! TO.N,LRCK*
X122093838Y-94050000D02*
X121251808Y-94050000D01*
X122212101Y-94084283D02*
X122180899Y-94053081D01*
X121251808Y-94050000D02*
X120051808Y-95250000D01*
X115093967Y-95250000D02*
X114805437Y-95538530D01*
X120051808Y-95250000D02*
X115093967Y-95250000D01*
X122096919Y-94053081D02*
X122093838Y-94050000D01*
X122180899Y-94053081D02*
X122096919Y-94053081D01*
G04 #@! TO.N,DSDIN*
X120269000Y-95631000D02*
X116919000Y-95631000D01*
X122900000Y-94800000D02*
X121100000Y-94800000D01*
X115973280Y-96576720D02*
X114992064Y-96576720D01*
X124798000Y-94310200D02*
X123389800Y-94310200D01*
X123389800Y-94310200D02*
X122900000Y-94800000D01*
X116919000Y-95631000D02*
X115973280Y-96576720D01*
X121100000Y-94800000D02*
X120269000Y-95631000D01*
G04 #@! TO.N,BCLK*
X119800000Y-94900000D02*
X117346400Y-94900000D01*
X121183568Y-93516432D02*
X119800000Y-94900000D01*
X123324067Y-93091000D02*
X122898635Y-93516432D01*
X125171200Y-93091000D02*
X123324067Y-93091000D01*
X117346400Y-94900000D02*
X117119400Y-94673000D01*
X122898635Y-93516432D02*
X121183568Y-93516432D01*
G04 #@! TO.N,MCLK*
X129115000Y-81915000D02*
X128270000Y-81915000D01*
X125550000Y-97963300D02*
X125563300Y-97950000D01*
X119060000Y-98140000D02*
X119735600Y-97464400D01*
X125736700Y-97963300D02*
X127000000Y-96700000D01*
X131683200Y-84483200D02*
X129115000Y-81915000D01*
X129985000Y-96700000D02*
X131683200Y-95001800D01*
X119735600Y-97464400D02*
X119735600Y-96229600D01*
X125550000Y-97963300D02*
X125736700Y-97963300D01*
X119060000Y-98171000D02*
X119060000Y-98140000D01*
X131683200Y-95001800D02*
X131683200Y-84483200D01*
X127000000Y-96700000D02*
X129985000Y-96700000D01*
G04 #@! TO.N,DET*
X98000000Y-85127818D02*
X98644283Y-85772101D01*
X99350000Y-82600000D02*
X98000000Y-83950000D01*
X98000000Y-83950000D02*
X98000000Y-85127818D01*
G04 #@! TO.N,+5V*
X120658100Y-84887900D02*
X121133700Y-84887900D01*
X123612217Y-93675200D02*
X125075200Y-93675200D01*
X121666000Y-86283800D02*
X121161900Y-86787900D01*
X121133700Y-84887900D02*
X121666000Y-85420200D01*
X125450000Y-94514000D02*
X121920000Y-98044000D01*
X119266662Y-100666662D02*
X119266054Y-100666054D01*
X125075200Y-93675200D02*
X125450000Y-94050000D01*
X90300000Y-96550000D02*
X90300000Y-96700000D01*
X121182876Y-100667124D02*
X119266662Y-100666662D01*
X87050000Y-94950000D02*
X88700000Y-94950000D01*
X121161900Y-86787900D02*
X120658100Y-86787900D01*
X123607791Y-93670774D02*
X123612217Y-93675200D01*
X125450000Y-94050000D02*
X125450000Y-94514000D01*
X88700000Y-94950000D02*
X90300000Y-96550000D01*
X116744254Y-100666054D02*
X115570000Y-99491800D01*
X121666000Y-85420200D02*
X121666000Y-86283800D01*
X86700000Y-95300000D02*
X87050000Y-94950000D01*
X121920000Y-98044000D02*
X121920000Y-99930000D01*
X121920000Y-99930000D02*
X121182876Y-100667124D01*
X119266054Y-100666054D02*
X116744254Y-100666054D01*
G04 #@! TO.N,+3V3_A*
X122933100Y-85047100D02*
X122936000Y-85050000D01*
X122933100Y-84887900D02*
X122933100Y-85047100D01*
X124361000Y-86741000D02*
X124361000Y-86461000D01*
X124361000Y-86461000D02*
X122933100Y-85033100D01*
X122933100Y-85033100D02*
X122933100Y-84887900D01*
G04 #@! TO.N,+3V3*
X105289734Y-83174516D02*
X104040153Y-81924935D01*
X114100000Y-85200000D02*
X112750000Y-85200000D01*
X110724516Y-83174516D02*
X105289734Y-83174516D01*
X112750000Y-85200000D02*
X110724516Y-83174516D01*
G04 #@! TO.N,SCL*
X125462490Y-92500000D02*
X125900000Y-92937510D01*
X121400000Y-91650000D02*
X123250000Y-91650000D01*
X124400000Y-87583885D02*
X124362996Y-87620889D01*
X118100208Y-84821973D02*
X117200209Y-84821973D01*
X129550000Y-98100000D02*
X129200000Y-97750000D01*
X124779535Y-96310865D02*
X124730000Y-96310865D01*
X119200675Y-92303600D02*
X120746400Y-92303600D01*
X124100000Y-92500000D02*
X125462490Y-92500000D01*
X124530000Y-87583885D02*
X124400000Y-87583885D01*
X120746400Y-92303600D02*
X121400000Y-91650000D01*
X124900000Y-95572000D02*
X124900000Y-96190400D01*
X125900000Y-92937510D02*
X125900000Y-94572000D01*
X123250000Y-91650000D02*
X124100000Y-92500000D01*
X124362996Y-87620889D02*
X122942602Y-87620889D01*
X119181543Y-92322732D02*
X119200675Y-92303600D01*
X117200209Y-84821973D02*
X116708134Y-85314048D01*
X125900000Y-94572000D02*
X124900000Y-95572000D01*
X124900000Y-96190400D02*
X124779535Y-96310865D01*
X129550000Y-100250000D02*
X129550000Y-98100000D01*
G04 #@! TO.N,SDA*
X122949202Y-90850000D02*
X124249202Y-92150000D01*
X117902277Y-83597723D02*
X118100000Y-83400000D01*
X125088814Y-88133885D02*
X123432300Y-88133885D01*
X120893185Y-91615224D02*
X121658409Y-90850000D01*
X121658409Y-90850000D02*
X122949202Y-90850000D01*
X117000001Y-83597723D02*
X117902277Y-83597723D01*
X125850000Y-95116974D02*
X125850000Y-96238909D01*
X126250000Y-92792536D02*
X126250000Y-94716974D01*
X124249202Y-92150000D02*
X125607464Y-92150000D01*
X125850000Y-96238909D02*
X125688909Y-96400000D01*
X123432300Y-88133885D02*
X123271024Y-88295161D01*
X125607464Y-92150000D02*
X126250000Y-92792536D01*
X118700000Y-91615224D02*
X120893185Y-91615224D01*
X125362869Y-87859830D02*
X125088814Y-88133885D01*
X125362869Y-87737131D02*
X125362869Y-87859830D01*
X126250000Y-94716974D02*
X125850000Y-95116974D01*
G04 #@! TO.N,OK1_COLLECTOR*
X102305225Y-85426598D02*
X101932077Y-85799746D01*
X102903198Y-85426598D02*
X102305225Y-85426598D01*
G04 #@! TO.N,Q1_GATE*
X100912077Y-85799746D02*
X100912077Y-84448851D01*
X95961200Y-90627200D02*
X96799400Y-89789000D01*
X101803200Y-93802200D02*
X100253800Y-95351600D01*
X100253800Y-95351600D02*
X98679000Y-95351600D01*
X101803200Y-86690869D02*
X101803200Y-93802200D01*
X100912077Y-85799746D02*
X101803200Y-86690869D01*
X100912077Y-84448851D02*
X100929852Y-84431076D01*
X95961200Y-92633800D02*
X95961200Y-90627200D01*
X98679000Y-95351600D02*
X95961200Y-92633800D01*
X101803200Y-86690869D02*
X102446094Y-86690869D01*
G04 #@! TO.N,PGND*
X118477818Y-83800000D02*
X118005845Y-84271973D01*
X113392748Y-86652748D02*
X110877359Y-86652748D01*
X113990000Y-87250000D02*
X113392748Y-86652748D01*
X116755548Y-84271973D02*
X113990000Y-87037521D01*
X113990000Y-87037521D02*
X113990000Y-87250000D01*
X127505307Y-92835059D02*
X127564941Y-92835059D01*
X127564941Y-92835059D02*
X127600000Y-92800000D01*
X110877359Y-86652748D02*
X110805869Y-86581258D01*
X126900000Y-83800000D02*
X118477818Y-83800000D01*
X126950000Y-83850000D02*
X126900000Y-83800000D01*
X118005845Y-84271973D02*
X116755548Y-84271973D01*
G04 #@! TO.N,V_FILT*
X99070000Y-84280000D02*
X100000000Y-83350000D01*
X97100000Y-86300000D02*
X97100000Y-89050000D01*
X109755869Y-84837131D02*
X110159800Y-84433200D01*
X101949852Y-84431076D02*
X100868776Y-83350000D01*
X98550000Y-84280000D02*
X99070000Y-84280000D01*
X109251116Y-83524516D02*
X110159800Y-84433200D01*
X97100000Y-89050000D02*
X97500000Y-89450000D01*
X103474516Y-83524516D02*
X109251116Y-83524516D01*
X109150000Y-87100000D02*
X109295148Y-87100000D01*
X100000000Y-83350000D02*
X100050000Y-83350000D01*
X97500000Y-89450000D02*
X97500000Y-91247400D01*
X100868776Y-83350000D02*
X100050000Y-83350000D01*
X103350000Y-83400000D02*
X103474516Y-83524516D01*
X97500000Y-91247400D02*
X97078800Y-91668600D01*
X109295148Y-87100000D02*
X109755869Y-86639279D01*
X109755869Y-86639279D02*
X109755869Y-84837131D01*
G04 #@! TO.N,XLR2_HOT*
X95748847Y-87475718D02*
X95750000Y-87476871D01*
X95411200Y-92000000D02*
X95411200Y-88531800D01*
X95750000Y-88024600D02*
X95834200Y-88108800D01*
X95748847Y-87020082D02*
X95748847Y-87475718D01*
X95631000Y-83794600D02*
X95750000Y-83913600D01*
X95750000Y-87476871D02*
X95750000Y-88024600D01*
X95750000Y-83913600D02*
X95750000Y-87018929D01*
X95750000Y-87018929D02*
X95748847Y-87020082D01*
X95411200Y-88531800D02*
X95834200Y-88108800D01*
G04 #@! TO.N,XLR3_COLD*
X100076000Y-90779600D02*
X99669600Y-90779600D01*
X97650000Y-83100000D02*
X96450000Y-81900000D01*
X96450000Y-81900000D02*
X94066200Y-81900000D01*
X99669600Y-90779600D02*
X97650000Y-88760000D01*
X97650000Y-88760000D02*
X97650000Y-83100000D01*
X94066200Y-81900000D02*
X92659200Y-83307000D01*
G04 #@! TO.N,GTIP*
X91389200Y-86360000D02*
X91389200Y-95250000D01*
G04 #@! TO.N,OK1_LED_A*
X107808909Y-91863909D02*
X107050000Y-91105000D01*
X107050000Y-91105000D02*
X107050000Y-88631600D01*
X107050000Y-88631600D02*
X107340400Y-88341200D01*
X107340400Y-88341200D02*
X107373400Y-88308200D01*
X107813909Y-91863909D02*
X107808909Y-91863909D01*
X107950000Y-92000000D02*
X107813909Y-91863909D01*
G04 #@! TO.N,DACVREF*
X114041755Y-93245555D02*
X113841755Y-93445555D01*
X122950000Y-92250000D02*
X121300000Y-92250000D01*
X119322800Y-93522800D02*
X119045555Y-93245555D01*
X120027200Y-93522800D02*
X119322800Y-93522800D01*
X119045555Y-93245555D02*
X114041755Y-93245555D01*
X123200000Y-92500000D02*
X122950000Y-92250000D01*
X121300000Y-92250000D02*
X120027200Y-93522800D01*
G04 #@! TO.N,MIC1P_XLR*
X96300000Y-95700000D02*
X95800000Y-95200000D01*
X97700000Y-95700000D02*
X96300000Y-95700000D01*
G04 #@! TO.N,ADCVREF*
X118550013Y-89950013D02*
X118550013Y-90110000D01*
X115634542Y-89414039D02*
X115728561Y-89414039D01*
X117750000Y-89150000D02*
X118550013Y-89950013D01*
X115992600Y-89150000D02*
X117750000Y-89150000D01*
X115548647Y-89499934D02*
X115634542Y-89414039D01*
X115728561Y-89414039D02*
X115992600Y-89150000D01*
G04 #@! TO.N,AD0*
X119750000Y-89850000D02*
X119650000Y-89950000D01*
X119800000Y-89850000D02*
X119750000Y-89850000D01*
X123300000Y-89863909D02*
X123291726Y-89863909D01*
X123291726Y-89863909D02*
X123177817Y-89750000D01*
X123177817Y-89750000D02*
X119900000Y-89750000D01*
X119900000Y-89750000D02*
X119800000Y-89850000D01*
G04 #@! TO.N,PGND_AC*
X86500000Y-88705000D02*
X89400000Y-91605000D01*
X89400000Y-91605000D02*
X89400000Y-91800000D01*
X86500000Y-88700000D02*
X86500000Y-88705000D01*
G04 #@! TO.N,VMID*
X119632955Y-92895555D02*
X119710200Y-92972800D01*
X113068350Y-92418150D02*
X113545755Y-92895555D01*
X113068350Y-92168350D02*
X113068350Y-92418150D01*
X113545755Y-92895555D02*
X119632955Y-92895555D01*
G04 #@! TO.N,BUF_R*
X88300000Y-95500000D02*
X88250000Y-95500000D01*
X88250000Y-95500000D02*
X87000000Y-96750000D01*
G04 #@! TO.N,MIC1P*
X117789111Y-90110000D02*
X117499111Y-90400000D01*
X112778274Y-90596703D02*
X112416502Y-90596703D01*
X115921505Y-90400000D02*
X115921439Y-90399934D01*
X97521204Y-94971622D02*
X94301456Y-91751874D01*
X94301456Y-91751874D02*
X93203577Y-91751874D01*
X112975043Y-90399934D02*
X112778274Y-90596703D01*
X115921439Y-90399934D02*
X112975043Y-90399934D01*
X117499111Y-90400000D02*
X115921505Y-90400000D01*
G04 #@! TO.N,MIC1N*
X94650000Y-94994000D02*
X94650000Y-93151865D01*
X102100000Y-94600000D02*
X100998400Y-95701600D01*
X98744400Y-95701600D02*
X98196000Y-96250000D01*
X113406278Y-89806278D02*
X113650000Y-90050000D01*
X94650000Y-93151865D02*
X93900000Y-92401865D01*
X112726458Y-89870701D02*
X112790881Y-89806278D01*
X95906000Y-96250000D02*
X94650000Y-94994000D01*
X113650000Y-90050000D02*
X116550000Y-90050000D01*
X116550000Y-90050000D02*
X116793722Y-89806278D01*
X98196000Y-96250000D02*
X95906000Y-96250000D01*
X116793722Y-89806278D02*
X117004328Y-89806278D01*
X112790881Y-89806278D02*
X113406278Y-89806278D01*
X100998400Y-95701600D02*
X98744400Y-95701600D01*
G04 #@! TO.N,MIC2P*
X110400000Y-95289200D02*
X110400000Y-92650000D01*
X110972600Y-88934981D02*
X111264092Y-88643489D01*
X108400000Y-96000000D02*
X108896000Y-95504000D01*
X108896000Y-95504000D02*
X110185200Y-95504000D01*
X105480000Y-96000000D02*
X108400000Y-96000000D01*
X110185200Y-95504000D02*
X110400000Y-95289200D01*
X105230000Y-96250000D02*
X105480000Y-96000000D01*
X110972600Y-92077400D02*
X110972600Y-88934981D01*
X110400000Y-92650000D02*
X110972600Y-92077400D01*
G04 #@! TO.N,VBIAS*
X86700000Y-97300000D02*
X86000000Y-96600000D01*
X84500000Y-95000000D02*
X86000000Y-96500000D01*
X83800000Y-95000000D02*
X84500000Y-95000000D01*
X89300000Y-96800000D02*
X88800000Y-97300000D01*
X86000000Y-96600000D02*
X86000000Y-96500000D01*
X88800000Y-97300000D02*
X86700000Y-97300000D01*
G04 #@! TO.N,MIC2N*
X111914699Y-88770701D02*
X112003227Y-88770701D01*
X111250000Y-92700000D02*
X111322600Y-92627400D01*
X111322600Y-89362800D02*
X111914699Y-88770701D01*
X111322600Y-92627400D02*
X111322600Y-89362800D01*
G04 #@! TO.N,GB_IN*
X93500000Y-99800000D02*
X90200000Y-99800000D01*
X90200000Y-99800000D02*
X88400000Y-98000000D01*
G04 #@! TD*
M02*
