G04 #@! TF.GenerationSoftware,KiCad,Pcbnew,10.0.3*
G04 #@! TF.CreationDate,2026-07-26T16:01:11-07:00*
G04 #@! TF.ProjectId,scramble_hat,73637261-6d62-46c6-955f-6861742e6b69,rev?*
G04 #@! TF.SameCoordinates,Original*
G04 #@! TF.FileFunction,Legend,Top*
G04 #@! TF.FilePolarity,Positive*
%FSLAX46Y46*%
G04 Gerber Fmt 4.6, Leading zero omitted, Abs format (unit mm)*
G04 Created by KiCad (PCBNEW 10.0.3) date 2026-07-26 16:01:11*
%MOMM*%
%LPD*%
G01*
G04 APERTURE LIST*
G04 Aperture macros list*
%AMRoundRect*
0 Rectangle with rounded corners*
0 $1 Rounding radius*
0 $2 $3 $4 $5 $6 $7 $8 $9 X,Y pos of 4 corners*
0 Add a 4 corners polygon primitive as box body*
4,1,4,$2,$3,$4,$5,$6,$7,$8,$9,$2,$3,0*
0 Add four circle primitives for the rounded corners*
1,1,$1+$1,$2,$3*
1,1,$1+$1,$4,$5*
1,1,$1+$1,$6,$7*
1,1,$1+$1,$8,$9*
0 Add four rect primitives between the rounded corners*
20,1,$1+$1,$2,$3,$4,$5,0*
20,1,$1+$1,$4,$5,$6,$7,0*
20,1,$1+$1,$6,$7,$8,$9,0*
20,1,$1+$1,$8,$9,$2,$3,0*%
G04 Aperture macros list end*
%ADD10C,0.000000*%
%ADD11C,0.168324*%
%ADD12C,0.379314*%
%ADD13C,0.100000*%
%ADD14C,0.150000*%
%ADD15C,0.120000*%
%ADD16RoundRect,0.250000X0.450000X-0.262500X0.450000X0.262500X-0.450000X0.262500X-0.450000X-0.262500X0*%
%ADD17RoundRect,0.112500X-0.187500X-0.112500X0.187500X-0.112500X0.187500X0.112500X-0.187500X0.112500X0*%
%ADD18RoundRect,0.135000X-0.135000X-0.185000X0.135000X-0.185000X0.135000X0.185000X-0.135000X0.185000X0*%
%ADD19RoundRect,0.137500X0.587500X0.137500X-0.587500X0.137500X-0.587500X-0.137500X0.587500X-0.137500X0*%
%ADD20RoundRect,0.250000X-0.250000X-0.475000X0.250000X-0.475000X0.250000X0.475000X-0.250000X0.475000X0*%
%ADD21RoundRect,0.250000X-0.450000X0.262500X-0.450000X-0.262500X0.450000X-0.262500X0.450000X0.262500X0*%
%ADD22C,1.700000*%
%ADD23R,2.800000X2.200000*%
%ADD24R,2.800000X2.800000*%
%ADD25R,2.800000X2.600000*%
%ADD26R,1.700000X1.700000*%
%ADD27RoundRect,0.150000X-0.512500X-0.150000X0.512500X-0.150000X0.512500X0.150000X-0.512500X0.150000X0*%
%ADD28RoundRect,0.140000X-0.140000X-0.170000X0.140000X-0.170000X0.140000X0.170000X-0.140000X0.170000X0*%
%ADD29RoundRect,0.135000X0.135000X0.185000X-0.135000X0.185000X-0.135000X-0.185000X0.135000X-0.185000X0*%
%ADD30C,1.600000*%
%ADD31C,2.900000*%
%ADD32C,2.700000*%
%ADD33C,3.200000*%
%ADD34C,3.400000*%
%ADD35RoundRect,0.137500X-0.587500X-0.137500X0.587500X-0.137500X0.587500X0.137500X-0.587500X0.137500X0*%
%ADD36O,1.600000X1.600000*%
G04 APERTURE END LIST*
D10*
G36*
X90155412Y-83970351D02*
G01*
X90421615Y-83970351D01*
X90421615Y-84010354D01*
X90155412Y-84010354D01*
X90155412Y-84109642D01*
X90119852Y-84109642D01*
X90119852Y-83870584D01*
X90155412Y-83870584D01*
X90155412Y-83970351D01*
G37*
G36*
X90421615Y-83581633D02*
G01*
X90169248Y-83581633D01*
X90421615Y-83669045D01*
X90421615Y-83705100D01*
X90164812Y-83792529D01*
X90421615Y-83792529D01*
X90421615Y-83831048D01*
X90119852Y-83831048D01*
X90119852Y-83770789D01*
X90333708Y-83699665D01*
X90378160Y-83684850D01*
X90369024Y-83682006D01*
X90357901Y-83678421D01*
X90344826Y-83674112D01*
X90329747Y-83669045D01*
X90119852Y-83596939D01*
X90119852Y-83543103D01*
X90421615Y-83543103D01*
X90421615Y-83581633D01*
G37*
D11*
X87419931Y-85308356D02*
X87425225Y-85237046D01*
X87434008Y-85166313D01*
X87446213Y-85096344D01*
X87461819Y-85027194D01*
X87480746Y-84959006D01*
X87502936Y-84891907D01*
X87528381Y-84825992D01*
X87556997Y-84761436D01*
X87588740Y-84698284D01*
X87623568Y-84636692D01*
X87661445Y-84576781D01*
X87702299Y-84518641D01*
X87746073Y-84462435D01*
X87792764Y-84408255D01*
X87842275Y-84356239D01*
X87894310Y-84306706D01*
X87948502Y-84260016D01*
X88004707Y-84216240D01*
X88062817Y-84175389D01*
X88122731Y-84137520D01*
X88184342Y-84102686D01*
X88247486Y-84070933D01*
X88312054Y-84042346D01*
X88377969Y-84016888D01*
X88445073Y-83994691D01*
X88513266Y-83975765D01*
X88582387Y-83960168D01*
X88652387Y-83947953D01*
X88723091Y-83939176D01*
X88794414Y-83933873D01*
X88866216Y-83932105D01*
X88940745Y-83933973D01*
X89014279Y-83939577D01*
X89086728Y-83948776D01*
X89158048Y-83961508D01*
X89228120Y-83977670D01*
X89296831Y-83997203D01*
X89364109Y-84019954D01*
X89429870Y-84045885D01*
X89494014Y-84074900D01*
X89556461Y-84106869D01*
X89617092Y-84141737D01*
X89675858Y-84179394D01*
X89732615Y-84219778D01*
X89787313Y-84262783D01*
X89839859Y-84308273D01*
X89890158Y-84356239D01*
X89938099Y-84406517D01*
X89983621Y-84459050D01*
X90026606Y-84513766D01*
X90066970Y-84570532D01*
X90104637Y-84629313D01*
X90139514Y-84689923D01*
X90171490Y-84752356D01*
X90200485Y-84816519D01*
X90226416Y-84882268D01*
X90249175Y-84949567D01*
X90268697Y-85018266D01*
X90284855Y-85088332D01*
X90297582Y-85159643D01*
X90306819Y-85232091D01*
X90312391Y-85305633D01*
X90314291Y-85380158D01*
X90314291Y-96186176D01*
X90312391Y-96260671D01*
X90306819Y-96334207D01*
X90297582Y-96406683D01*
X90284855Y-96478002D01*
X90268697Y-96548059D01*
X90249175Y-96616767D01*
X90226416Y-96684053D01*
X90200485Y-96749816D01*
X90171490Y-96813940D01*
X90139514Y-96876378D01*
X90104637Y-96937039D01*
X90066970Y-96995789D01*
X90026606Y-97052562D01*
X89983621Y-97107266D01*
X89938099Y-97159805D01*
X89890158Y-97210098D01*
X89839859Y-97258051D01*
X89787313Y-97303550D01*
X89732615Y-97346545D01*
X89675858Y-97386918D01*
X89617092Y-97424588D01*
X89556461Y-97459452D01*
X89494014Y-97491431D01*
X89429870Y-97520425D01*
X89364109Y-97546351D01*
X89296831Y-97569125D01*
X89228120Y-97588640D01*
X89158048Y-97604800D01*
X89086728Y-97617528D01*
X89014279Y-97626746D01*
X88940745Y-97632358D01*
X88866216Y-97634234D01*
X88791691Y-97632358D01*
X88718151Y-97626746D01*
X88645694Y-97617528D01*
X88574381Y-97604800D01*
X88504316Y-97588640D01*
X88435604Y-97569125D01*
X88368325Y-97546351D01*
X88302564Y-97520425D01*
X88238419Y-97491431D01*
X88175990Y-97459452D01*
X88115328Y-97424588D01*
X88056572Y-97386918D01*
X87999819Y-97346545D01*
X87945119Y-97303550D01*
X87892572Y-97258051D01*
X87842275Y-97210098D01*
X87794326Y-97159805D01*
X87748814Y-97107266D01*
X87705823Y-97052562D01*
X87665452Y-96995789D01*
X87627797Y-96937039D01*
X87592922Y-96876378D01*
X87560950Y-96813940D01*
X87531955Y-96749816D01*
X87506015Y-96684053D01*
X87483255Y-96616767D01*
X87463747Y-96548059D01*
X87447568Y-96478002D01*
X87434848Y-96406683D01*
X87425622Y-96334207D01*
X87420042Y-96260671D01*
X87418145Y-96186176D01*
X87418145Y-85380158D01*
X87419931Y-85308356D01*
D12*
X87419931Y-85308356D02*
X87425225Y-85237046D01*
X87434008Y-85166313D01*
X87446213Y-85096344D01*
X87461819Y-85027194D01*
X87480746Y-84959006D01*
X87502936Y-84891907D01*
X87528381Y-84825992D01*
X87556997Y-84761436D01*
X87588740Y-84698284D01*
X87623568Y-84636692D01*
X87661445Y-84576781D01*
X87702299Y-84518641D01*
X87746073Y-84462435D01*
X87792764Y-84408255D01*
X87842275Y-84356239D01*
X87894310Y-84306706D01*
X87948502Y-84260016D01*
X88004707Y-84216240D01*
X88062817Y-84175389D01*
X88122731Y-84137520D01*
X88184342Y-84102686D01*
X88247486Y-84070933D01*
X88312054Y-84042346D01*
X88377969Y-84016888D01*
X88445073Y-83994691D01*
X88513266Y-83975765D01*
X88582387Y-83960168D01*
X88652387Y-83947953D01*
X88723091Y-83939176D01*
X88794414Y-83933873D01*
X88866216Y-83932105D01*
X88940745Y-83933973D01*
X89014279Y-83939577D01*
X89086728Y-83948776D01*
X89158048Y-83961508D01*
X89228120Y-83977670D01*
X89296831Y-83997203D01*
X89364109Y-84019954D01*
X89429870Y-84045885D01*
X89494014Y-84074900D01*
X89556461Y-84106869D01*
X89617092Y-84141737D01*
X89675858Y-84179394D01*
X89732615Y-84219778D01*
X89787313Y-84262783D01*
X89839859Y-84308273D01*
X89890158Y-84356239D01*
X89938099Y-84406517D01*
X89983621Y-84459050D01*
X90026606Y-84513766D01*
X90066970Y-84570532D01*
X90104637Y-84629313D01*
X90139514Y-84689923D01*
X90171490Y-84752356D01*
X90200485Y-84816519D01*
X90226416Y-84882268D01*
X90249175Y-84949567D01*
X90268697Y-85018266D01*
X90284855Y-85088332D01*
X90297582Y-85159643D01*
X90306819Y-85232091D01*
X90312391Y-85305633D01*
X90314291Y-85380158D01*
X90314291Y-96186176D01*
X90312391Y-96260671D01*
X90306819Y-96334207D01*
X90297582Y-96406683D01*
X90284855Y-96478002D01*
X90268697Y-96548059D01*
X90249175Y-96616767D01*
X90226416Y-96684053D01*
X90200485Y-96749816D01*
X90171490Y-96813940D01*
X90139514Y-96876378D01*
X90104637Y-96937039D01*
X90066970Y-96995789D01*
X90026606Y-97052562D01*
X89983621Y-97107266D01*
X89938099Y-97159805D01*
X89890158Y-97210098D01*
X89839859Y-97258051D01*
X89787313Y-97303550D01*
X89732615Y-97346545D01*
X89675858Y-97386918D01*
X89617092Y-97424588D01*
X89556461Y-97459452D01*
X89494014Y-97491431D01*
X89429870Y-97520425D01*
X89364109Y-97546351D01*
X89296831Y-97569125D01*
X89228120Y-97588640D01*
X89158048Y-97604800D01*
X89086728Y-97617528D01*
X89014279Y-97626746D01*
X88940745Y-97632358D01*
X88866216Y-97634234D01*
X88791691Y-97632358D01*
X88718151Y-97626746D01*
X88645694Y-97617528D01*
X88574381Y-97604800D01*
X88504316Y-97588640D01*
X88435604Y-97569125D01*
X88368325Y-97546351D01*
X88302564Y-97520425D01*
X88238419Y-97491431D01*
X88175990Y-97459452D01*
X88115328Y-97424588D01*
X88056572Y-97386918D01*
X87999819Y-97346545D01*
X87945119Y-97303550D01*
X87892572Y-97258051D01*
X87842275Y-97210098D01*
X87794326Y-97159805D01*
X87748814Y-97107266D01*
X87705823Y-97052562D01*
X87665452Y-96995789D01*
X87627797Y-96937039D01*
X87592922Y-96876378D01*
X87560950Y-96813940D01*
X87531955Y-96749816D01*
X87506015Y-96684053D01*
X87483255Y-96616767D01*
X87463747Y-96548059D01*
X87447568Y-96478002D01*
X87434848Y-96406683D01*
X87425622Y-96334207D01*
X87420042Y-96260671D01*
X87418145Y-96186176D01*
X87418145Y-85380158D01*
X87419931Y-85308356D01*
D10*
G36*
X89500405Y-86189095D02*
G01*
X89508611Y-86189526D01*
X89516564Y-86190260D01*
X89524262Y-86191273D01*
X89531718Y-86192597D01*
X89538906Y-86194205D01*
X89545877Y-86196116D01*
X89552561Y-86198322D01*
X89559020Y-86200825D01*
X89565223Y-86203580D01*
X89571168Y-86206675D01*
X89576853Y-86210054D01*
X89582315Y-86213712D01*
X89587514Y-86217671D01*
X89592457Y-86221926D01*
X89597141Y-86226471D01*
X89601575Y-86231286D01*
X89605705Y-86236343D01*
X89609561Y-86241637D01*
X89613130Y-86247182D01*
X89616431Y-86252965D01*
X89619414Y-86259003D01*
X89622130Y-86265286D01*
X89624555Y-86271774D01*
X89626704Y-86278554D01*
X89628566Y-86285565D01*
X89630117Y-86292783D01*
X89631395Y-86300295D01*
X89632411Y-86308021D01*
X89633127Y-86315986D01*
X89633554Y-86324203D01*
X89633701Y-86332650D01*
X89633701Y-87072032D01*
X89633522Y-87082138D01*
X89632989Y-87091928D01*
X89632114Y-87101444D01*
X89630879Y-87110648D01*
X89629308Y-87119556D01*
X89627391Y-87128173D01*
X89625094Y-87136482D01*
X89622470Y-87144510D01*
X89619481Y-87152237D01*
X89616142Y-87159654D01*
X89612459Y-87166785D01*
X89608412Y-87173618D01*
X89604013Y-87180156D01*
X89599290Y-87186399D01*
X89594200Y-87192344D01*
X89588751Y-87197961D01*
X89582935Y-87203295D01*
X89576846Y-87208278D01*
X89570497Y-87212899D01*
X89563908Y-87217202D01*
X89557019Y-87221150D01*
X89549866Y-87224762D01*
X89542467Y-87228020D01*
X89534787Y-87230949D01*
X89526841Y-87233529D01*
X89518640Y-87235747D01*
X89510171Y-87237640D01*
X89501432Y-87239176D01*
X89492417Y-87240368D01*
X89483140Y-87241250D01*
X89473611Y-87241755D01*
X89463789Y-87241936D01*
X88283857Y-87241936D01*
X88273544Y-87241755D01*
X88263500Y-87241260D01*
X88253825Y-87240421D01*
X88244442Y-87239235D01*
X88235380Y-87237724D01*
X88226651Y-87235882D01*
X88218239Y-87233705D01*
X88210163Y-87231203D01*
X88202388Y-87228338D01*
X88194913Y-87225148D01*
X88187786Y-87221604D01*
X88180976Y-87217770D01*
X88174485Y-87213561D01*
X88168321Y-87209029D01*
X88162461Y-87204159D01*
X88156935Y-87198967D01*
X88151736Y-87193438D01*
X88146869Y-87187609D01*
X88142325Y-87181505D01*
X88138114Y-87175075D01*
X88134279Y-87168328D01*
X88130751Y-87161323D01*
X88127554Y-87153980D01*
X88124708Y-87146359D01*
X88122204Y-87138443D01*
X88120000Y-87130197D01*
X88118154Y-87121659D01*
X88116647Y-87112845D01*
X88115474Y-87103712D01*
X88114631Y-87094281D01*
X88114129Y-87084532D01*
X88113978Y-87074508D01*
X88114129Y-87064698D01*
X88114631Y-87055193D01*
X88115474Y-87045986D01*
X88116647Y-87037020D01*
X88118154Y-87028363D01*
X88120000Y-87020000D01*
X88122204Y-87011916D01*
X88124708Y-87004118D01*
X88127554Y-86996600D01*
X88130751Y-86989389D01*
X88134279Y-86982441D01*
X88138114Y-86975790D01*
X88142325Y-86969402D01*
X88146869Y-86963307D01*
X88151736Y-86957531D01*
X88156935Y-86952019D01*
X88162461Y-86946751D01*
X88168321Y-86941830D01*
X88174485Y-86937244D01*
X88180976Y-86932998D01*
X88187786Y-86929086D01*
X88194913Y-86925517D01*
X88202388Y-86922295D01*
X88210163Y-86919417D01*
X88218239Y-86916870D01*
X88226651Y-86914660D01*
X88235380Y-86912780D01*
X88244442Y-86911262D01*
X88253825Y-86910083D01*
X88263500Y-86909214D01*
X88273544Y-86908712D01*
X88283857Y-86908541D01*
X89352174Y-86908541D01*
X89352174Y-86332650D01*
X89352314Y-86324203D01*
X89352736Y-86315986D01*
X89353452Y-86308021D01*
X89354461Y-86300295D01*
X89355747Y-86292783D01*
X89357306Y-86285565D01*
X89359182Y-86278554D01*
X89361301Y-86271774D01*
X89363726Y-86265286D01*
X89366451Y-86259003D01*
X89369451Y-86252965D01*
X89372738Y-86247182D01*
X89376298Y-86241637D01*
X89380159Y-86236343D01*
X89384293Y-86231286D01*
X89388734Y-86226471D01*
X89393417Y-86221926D01*
X89398336Y-86217671D01*
X89403492Y-86213712D01*
X89408879Y-86210054D01*
X89414507Y-86206675D01*
X89420382Y-86203580D01*
X89426446Y-86200825D01*
X89432794Y-86198322D01*
X89439373Y-86196116D01*
X89446178Y-86194205D01*
X89453218Y-86192597D01*
X89460489Y-86191273D01*
X89468018Y-86190260D01*
X89475746Y-86189526D01*
X89483732Y-86189095D01*
X89491949Y-86188932D01*
X89500405Y-86189095D01*
G37*
G36*
X89538949Y-90814031D02*
G01*
X89545131Y-90814554D01*
X89551225Y-90815327D01*
X89557134Y-90816359D01*
X89562871Y-90817641D01*
X89568439Y-90819133D01*
X89573868Y-90820852D01*
X89579127Y-90822787D01*
X89584230Y-90824966D01*
X89589156Y-90827375D01*
X89593928Y-90830004D01*
X89598554Y-90832876D01*
X89602982Y-90835971D01*
X89607299Y-90839293D01*
X89611401Y-90842846D01*
X89615379Y-90846601D01*
X89619159Y-90850608D01*
X89622816Y-90854841D01*
X89626293Y-90859271D01*
X89629524Y-90863939D01*
X89632537Y-90868758D01*
X89635350Y-90873746D01*
X89637949Y-90878914D01*
X89640357Y-90884244D01*
X89642536Y-90889753D01*
X89644522Y-90895424D01*
X89646301Y-90901265D01*
X89647850Y-90907276D01*
X89649217Y-90913462D01*
X89650362Y-90919823D01*
X89651285Y-90926324D01*
X89652030Y-90933008D01*
X89652551Y-90939860D01*
X89652853Y-90946918D01*
X89652947Y-90954115D01*
X89652818Y-90963122D01*
X89652441Y-90971864D01*
X89651759Y-90980369D01*
X89650831Y-90988596D01*
X89649640Y-90996555D01*
X89648175Y-91004277D01*
X89646437Y-91011730D01*
X89644418Y-91018940D01*
X89642181Y-91025880D01*
X89639656Y-91032558D01*
X89636847Y-91038973D01*
X89633772Y-91045148D01*
X89630467Y-91051044D01*
X89626862Y-91056687D01*
X89623006Y-91062082D01*
X89618870Y-91067211D01*
X89614403Y-91072115D01*
X89609646Y-91076947D01*
X89604571Y-91081697D01*
X89599181Y-91086387D01*
X89593496Y-91090997D01*
X89587544Y-91095522D01*
X89581253Y-91099991D01*
X89574662Y-91104367D01*
X89567798Y-91108696D01*
X89560609Y-91112937D01*
X89553140Y-91117105D01*
X89545358Y-91121216D01*
X89537261Y-91125234D01*
X89528880Y-91129176D01*
X89520194Y-91133061D01*
X89511206Y-91136847D01*
X89304761Y-91225918D01*
X89304761Y-91934721D01*
X89511206Y-92022417D01*
X89529323Y-92030494D01*
X89546157Y-92038679D01*
X89554077Y-92042826D01*
X89561672Y-92046978D01*
X89568956Y-92051172D01*
X89575914Y-92055375D01*
X89582525Y-92059627D01*
X89588836Y-92063899D01*
X89594823Y-92068186D01*
X89600487Y-92072510D01*
X89605827Y-92076873D01*
X89610827Y-92081240D01*
X89615502Y-92085649D01*
X89619864Y-92090079D01*
X89623861Y-92094652D01*
X89627620Y-92099490D01*
X89631108Y-92104580D01*
X89634342Y-92109933D01*
X89637342Y-92115524D01*
X89640045Y-92121387D01*
X89642486Y-92127526D01*
X89644687Y-92133931D01*
X89646621Y-92140557D01*
X89648309Y-92147453D01*
X89649713Y-92154611D01*
X89650896Y-92162047D01*
X89651801Y-92169718D01*
X89652451Y-92177639D01*
X89652818Y-92185846D01*
X89652947Y-92194296D01*
X89652853Y-92201753D01*
X89652525Y-92209007D01*
X89651992Y-92216114D01*
X89651228Y-92222997D01*
X89650267Y-92229729D01*
X89649073Y-92236289D01*
X89647671Y-92242664D01*
X89646049Y-92248866D01*
X89644214Y-92254896D01*
X89642151Y-92260746D01*
X89639883Y-92266415D01*
X89637405Y-92271892D01*
X89634698Y-92277208D01*
X89631775Y-92282338D01*
X89628642Y-92287303D01*
X89625286Y-92292087D01*
X89621717Y-92296676D01*
X89617957Y-92301038D01*
X89614078Y-92305186D01*
X89610042Y-92309127D01*
X89605874Y-92312837D01*
X89601541Y-92316346D01*
X89597086Y-92319627D01*
X89592457Y-92322713D01*
X89587682Y-92325563D01*
X89582775Y-92328213D01*
X89577719Y-92330640D01*
X89572509Y-92332832D01*
X89567155Y-92334819D01*
X89561660Y-92336598D01*
X89556022Y-92338161D01*
X89550234Y-92339489D01*
X89544272Y-92340537D01*
X89538196Y-92341257D01*
X89532068Y-92341705D01*
X89525829Y-92341879D01*
X89519524Y-92341741D01*
X89513133Y-92341329D01*
X89506666Y-92340631D01*
X89500089Y-92339632D01*
X89493453Y-92338337D01*
X89486717Y-92336761D01*
X89479898Y-92334890D01*
X89472996Y-92332738D01*
X89465998Y-92330293D01*
X89458923Y-92327550D01*
X89451764Y-92324547D01*
X89444520Y-92321216D01*
X89044976Y-92138859D01*
X88238912Y-91771017D01*
X88229944Y-91766652D01*
X88221271Y-91762184D01*
X88212915Y-91757618D01*
X88204865Y-91752960D01*
X88197132Y-91748209D01*
X88189730Y-91743350D01*
X88182629Y-91738419D01*
X88175820Y-91733369D01*
X88169348Y-91728216D01*
X88163186Y-91722977D01*
X88157320Y-91717635D01*
X88151779Y-91712196D01*
X88146560Y-91706701D01*
X88141620Y-91701068D01*
X88137023Y-91695343D01*
X88132735Y-91689521D01*
X88128670Y-91683541D01*
X88124859Y-91677440D01*
X88121317Y-91671210D01*
X88118035Y-91664860D01*
X88115032Y-91658379D01*
X88112255Y-91651813D01*
X88109765Y-91645106D01*
X88107550Y-91638298D01*
X88105578Y-91631343D01*
X88103858Y-91624269D01*
X88102421Y-91617085D01*
X88101257Y-91609803D01*
X88100322Y-91602365D01*
X88099672Y-91594822D01*
X88099274Y-91587170D01*
X88099150Y-91579383D01*
X88473023Y-91579383D01*
X88473023Y-91583829D01*
X89044976Y-91823897D01*
X89044976Y-91337591D01*
X88473023Y-91579383D01*
X88099150Y-91579383D01*
X88099274Y-91571675D01*
X88099672Y-91564065D01*
X88100322Y-91556599D01*
X88101257Y-91549227D01*
X88102421Y-91541981D01*
X88103858Y-91534872D01*
X88105578Y-91527874D01*
X88107550Y-91520990D01*
X88109765Y-91514224D01*
X88112255Y-91507580D01*
X88115032Y-91501047D01*
X88118035Y-91494660D01*
X88121317Y-91488373D01*
X88124859Y-91482198D01*
X88128670Y-91476163D01*
X88132735Y-91470246D01*
X88137023Y-91464356D01*
X88141620Y-91458626D01*
X88146560Y-91452985D01*
X88151779Y-91447456D01*
X88157320Y-91442040D01*
X88163186Y-91436761D01*
X88169348Y-91431579D01*
X88175820Y-91426520D01*
X88182629Y-91421581D01*
X88189730Y-91416747D01*
X88197132Y-91412052D01*
X88204865Y-91407462D01*
X88212915Y-91402961D01*
X88221271Y-91398621D01*
X88229944Y-91394342D01*
X88238912Y-91390219D01*
X89444520Y-90836071D01*
X89451770Y-90832688D01*
X89458942Y-90829585D01*
X89466029Y-90826761D01*
X89473057Y-90824219D01*
X89480002Y-90821939D01*
X89486855Y-90819956D01*
X89493642Y-90818245D01*
X89500350Y-90816810D01*
X89506970Y-90815649D01*
X89513526Y-90814766D01*
X89519989Y-90814168D01*
X89526393Y-90813852D01*
X89532720Y-90813796D01*
X89538949Y-90814031D01*
G37*
G36*
X89510718Y-84954975D02*
G01*
X89518387Y-84955356D01*
X89525811Y-84956021D01*
X89533005Y-84956935D01*
X89539967Y-84958119D01*
X89546666Y-84959546D01*
X89553140Y-84961263D01*
X89559357Y-84963229D01*
X89565350Y-84965471D01*
X89571107Y-84967947D01*
X89576631Y-84970687D01*
X89581899Y-84973711D01*
X89586936Y-84977005D01*
X89591724Y-84980546D01*
X89596295Y-84984356D01*
X89600598Y-84988430D01*
X89604606Y-84992677D01*
X89608355Y-84997173D01*
X89611837Y-85001945D01*
X89615084Y-85006940D01*
X89618044Y-85012191D01*
X89620770Y-85017679D01*
X89623227Y-85023424D01*
X89625401Y-85029414D01*
X89627363Y-85035648D01*
X89629036Y-85042126D01*
X89630472Y-85048846D01*
X89631625Y-85055841D01*
X89632532Y-85063061D01*
X89633181Y-85070541D01*
X89633558Y-85078251D01*
X89633701Y-85086210D01*
X89633701Y-85835939D01*
X89633522Y-85846290D01*
X89632989Y-85856340D01*
X89632114Y-85866087D01*
X89630879Y-85875513D01*
X89629308Y-85884667D01*
X89627391Y-85893510D01*
X89625094Y-85902045D01*
X89622470Y-85910271D01*
X89619481Y-85918217D01*
X89616142Y-85925860D01*
X89612459Y-85933179D01*
X89608412Y-85940226D01*
X89604013Y-85946960D01*
X89599290Y-85953386D01*
X89594200Y-85959522D01*
X89588751Y-85965343D01*
X89582926Y-85970788D01*
X89576795Y-85975882D01*
X89570356Y-85980613D01*
X89563628Y-85985008D01*
X89556604Y-85989055D01*
X89549258Y-85992731D01*
X89541612Y-85996078D01*
X89533684Y-85999056D01*
X89525439Y-86001676D01*
X89516913Y-86003984D01*
X89508062Y-86005918D01*
X89498921Y-86007481D01*
X89489477Y-86008720D01*
X89479735Y-86009585D01*
X89469699Y-86010110D01*
X89459358Y-86010318D01*
X88292277Y-86010318D01*
X88281979Y-86010110D01*
X88272002Y-86009585D01*
X88262326Y-86008720D01*
X88252938Y-86007481D01*
X88243837Y-86005918D01*
X88235082Y-86003984D01*
X88226602Y-86001676D01*
X88218426Y-85999056D01*
X88210547Y-85996078D01*
X88202986Y-85992731D01*
X88195711Y-85989055D01*
X88188728Y-85985008D01*
X88182060Y-85980613D01*
X88175680Y-85975882D01*
X88169629Y-85970788D01*
X88163845Y-85965343D01*
X88158345Y-85959522D01*
X88153198Y-85953386D01*
X88148412Y-85946960D01*
X88143968Y-85940226D01*
X88139896Y-85933179D01*
X88136164Y-85925860D01*
X88132775Y-85918217D01*
X88129775Y-85910271D01*
X88127109Y-85902045D01*
X88124816Y-85893510D01*
X88122860Y-85884667D01*
X88121253Y-85875513D01*
X88120000Y-85866087D01*
X88119119Y-85856340D01*
X88118592Y-85846290D01*
X88118423Y-85835939D01*
X88118423Y-85086210D01*
X88118546Y-85078251D01*
X88118947Y-85070541D01*
X88119579Y-85063061D01*
X88120495Y-85055841D01*
X88121684Y-85048846D01*
X88123131Y-85042126D01*
X88124847Y-85035648D01*
X88126810Y-85029414D01*
X88129027Y-85023424D01*
X88131531Y-85017679D01*
X88134288Y-85012191D01*
X88137305Y-85006940D01*
X88140586Y-85001945D01*
X88144119Y-84997173D01*
X88147932Y-84992677D01*
X88151990Y-84988430D01*
X88156237Y-84984356D01*
X88160713Y-84980546D01*
X88165435Y-84977005D01*
X88170369Y-84973711D01*
X88175528Y-84970687D01*
X88180906Y-84967947D01*
X88186525Y-84965471D01*
X88192372Y-84963229D01*
X88198435Y-84961263D01*
X88204743Y-84959546D01*
X88211276Y-84958119D01*
X88218019Y-84956935D01*
X88225014Y-84956021D01*
X88232210Y-84955356D01*
X88239657Y-84954975D01*
X88247324Y-84954823D01*
X88255276Y-84954975D01*
X88263011Y-84955356D01*
X88270466Y-84956021D01*
X88277696Y-84956935D01*
X88284680Y-84958119D01*
X88291404Y-84959546D01*
X88297892Y-84961263D01*
X88304114Y-84963229D01*
X88310103Y-84965471D01*
X88315853Y-84967947D01*
X88321341Y-84970687D01*
X88326579Y-84973711D01*
X88331595Y-84977005D01*
X88336344Y-84980546D01*
X88340862Y-84984356D01*
X88345103Y-84988430D01*
X88349131Y-84992677D01*
X88352874Y-84997173D01*
X88356370Y-85001945D01*
X88359588Y-85006940D01*
X88362560Y-85012191D01*
X88365279Y-85017679D01*
X88367728Y-85023424D01*
X88369937Y-85029414D01*
X88371876Y-85035648D01*
X88373564Y-85042126D01*
X88374961Y-85048846D01*
X88376125Y-85055841D01*
X88377026Y-85063061D01*
X88377696Y-85070541D01*
X88378073Y-85078251D01*
X88378201Y-85086210D01*
X88378201Y-85692215D01*
X88733322Y-85692215D01*
X88733322Y-85135600D01*
X88733456Y-85127398D01*
X88733825Y-85119468D01*
X88734478Y-85111780D01*
X88735391Y-85104365D01*
X88736552Y-85097225D01*
X88737978Y-85090315D01*
X88739655Y-85083679D01*
X88741586Y-85077322D01*
X88743798Y-85071209D01*
X88746246Y-85065388D01*
X88748954Y-85059784D01*
X88751936Y-85054488D01*
X88755167Y-85049425D01*
X88758643Y-85044630D01*
X88762404Y-85040086D01*
X88766414Y-85035820D01*
X88770667Y-85031776D01*
X88775153Y-85027960D01*
X88779941Y-85024411D01*
X88784931Y-85021138D01*
X88790179Y-85018103D01*
X88795679Y-85015376D01*
X88801414Y-85012871D01*
X88807404Y-85010656D01*
X88813633Y-85008671D01*
X88820128Y-85006979D01*
X88826853Y-85005516D01*
X88833826Y-85004341D01*
X88841046Y-85003432D01*
X88848516Y-85002753D01*
X88856226Y-85002362D01*
X88864204Y-85002241D01*
X88872170Y-85002362D01*
X88879866Y-85002753D01*
X88887357Y-85003432D01*
X88894581Y-85004341D01*
X88901542Y-85005516D01*
X88908278Y-85006979D01*
X88914765Y-85008671D01*
X88920998Y-85010656D01*
X88926988Y-85012871D01*
X88932729Y-85015376D01*
X88938216Y-85018103D01*
X88943485Y-85021138D01*
X88948482Y-85024411D01*
X88953231Y-85027960D01*
X88957741Y-85031776D01*
X88961991Y-85035820D01*
X88966004Y-85040086D01*
X88969737Y-85044630D01*
X88973231Y-85049425D01*
X88976468Y-85054488D01*
X88979443Y-85059784D01*
X88982164Y-85065388D01*
X88984613Y-85071209D01*
X88986805Y-85077322D01*
X88988736Y-85083679D01*
X88990431Y-85090315D01*
X88991847Y-85097225D01*
X88993015Y-85104365D01*
X88993924Y-85111780D01*
X88994565Y-85119468D01*
X88994957Y-85127398D01*
X88995078Y-85135600D01*
X88995078Y-85692215D01*
X89373401Y-85692215D01*
X89373401Y-85086210D01*
X89373545Y-85078251D01*
X89373938Y-85070541D01*
X89374582Y-85063061D01*
X89375500Y-85055841D01*
X89376695Y-85048846D01*
X89378138Y-85042126D01*
X89379838Y-85035648D01*
X89381817Y-85029414D01*
X89384042Y-85023424D01*
X89386536Y-85017679D01*
X89389286Y-85012191D01*
X89392291Y-85006940D01*
X89395577Y-85001945D01*
X89399120Y-84997173D01*
X89402930Y-84992677D01*
X89407003Y-84988430D01*
X89411255Y-84984356D01*
X89415729Y-84980546D01*
X89420453Y-84977005D01*
X89425398Y-84973711D01*
X89430573Y-84970687D01*
X89435979Y-84967947D01*
X89441626Y-84965471D01*
X89447495Y-84963229D01*
X89453594Y-84961263D01*
X89459953Y-84959546D01*
X89466496Y-84958119D01*
X89473300Y-84956935D01*
X89480333Y-84956021D01*
X89487598Y-84955356D01*
X89495091Y-84954975D01*
X89502804Y-84954823D01*
X89510718Y-84954975D01*
G37*
G36*
X89507377Y-89043338D02*
G01*
X89516137Y-89043802D01*
X89524643Y-89044561D01*
X89532913Y-89045621D01*
X89540915Y-89047000D01*
X89548675Y-89048682D01*
X89556179Y-89050662D01*
X89563444Y-89052937D01*
X89570444Y-89055510D01*
X89577212Y-89058428D01*
X89583699Y-89061633D01*
X89589957Y-89065124D01*
X89595958Y-89068951D01*
X89601706Y-89073075D01*
X89607209Y-89077475D01*
X89612464Y-89082209D01*
X89617350Y-89087148D01*
X89621949Y-89092376D01*
X89626233Y-89097866D01*
X89630180Y-89103626D01*
X89633802Y-89109670D01*
X89637154Y-89115958D01*
X89640147Y-89122520D01*
X89642829Y-89129370D01*
X89645218Y-89136483D01*
X89647249Y-89143871D01*
X89649013Y-89151509D01*
X89650425Y-89159448D01*
X89651550Y-89167622D01*
X89652332Y-89176084D01*
X89652797Y-89184819D01*
X89652947Y-89193824D01*
X89652797Y-89202836D01*
X89652332Y-89211574D01*
X89651550Y-89220066D01*
X89650425Y-89228298D01*
X89649013Y-89236276D01*
X89647249Y-89243994D01*
X89645218Y-89251449D01*
X89642829Y-89258648D01*
X89640147Y-89265566D01*
X89637154Y-89272267D01*
X89633802Y-89278698D01*
X89630180Y-89284854D01*
X89626233Y-89290769D01*
X89621949Y-89296419D01*
X89617350Y-89301805D01*
X89612464Y-89306923D01*
X89607209Y-89311708D01*
X89601706Y-89316179D01*
X89595958Y-89320362D01*
X89589957Y-89324207D01*
X89583699Y-89327767D01*
X89577212Y-89331002D01*
X89570444Y-89333921D01*
X89563444Y-89336560D01*
X89556179Y-89338880D01*
X89548675Y-89340877D01*
X89540915Y-89342579D01*
X89532913Y-89343973D01*
X89524643Y-89345050D01*
X89516137Y-89345831D01*
X89507377Y-89346292D01*
X89498374Y-89346455D01*
X88712545Y-89346455D01*
X89343285Y-89698576D01*
X89348332Y-89701869D01*
X89353209Y-89705180D01*
X89357950Y-89708510D01*
X89362506Y-89711872D01*
X89366923Y-89715235D01*
X89371180Y-89718659D01*
X89375279Y-89722058D01*
X89379223Y-89725512D01*
X89382981Y-89728975D01*
X89386624Y-89732458D01*
X89390076Y-89735991D01*
X89393379Y-89739513D01*
X89396525Y-89743083D01*
X89399523Y-89746663D01*
X89402355Y-89750274D01*
X89405022Y-89753899D01*
X89407483Y-89757565D01*
X89409758Y-89761359D01*
X89411885Y-89765303D01*
X89413877Y-89769404D01*
X89415714Y-89773645D01*
X89417360Y-89778041D01*
X89418858Y-89782556D01*
X89420219Y-89787252D01*
X89421403Y-89792071D01*
X89422431Y-89797054D01*
X89423293Y-89802162D01*
X89424007Y-89807437D01*
X89424568Y-89812840D01*
X89424957Y-89818411D01*
X89425192Y-89824122D01*
X89425274Y-89829957D01*
X89425184Y-89835829D01*
X89424939Y-89841548D01*
X89424529Y-89847137D01*
X89423952Y-89852598D01*
X89423191Y-89857905D01*
X89422291Y-89863096D01*
X89421202Y-89868133D01*
X89419959Y-89873075D01*
X89418558Y-89877839D01*
X89416972Y-89882481D01*
X89415234Y-89886988D01*
X89413319Y-89891359D01*
X89411255Y-89895598D01*
X89409017Y-89899704D01*
X89406606Y-89903667D01*
X89404028Y-89907508D01*
X89401248Y-89911179D01*
X89398336Y-89914820D01*
X89395284Y-89918401D01*
X89392085Y-89921950D01*
X89388773Y-89925444D01*
X89385305Y-89928911D01*
X89381695Y-89932310D01*
X89377978Y-89935648D01*
X89374118Y-89938971D01*
X89370113Y-89942223D01*
X89365975Y-89945449D01*
X89361711Y-89948628D01*
X89357301Y-89951746D01*
X89352758Y-89954824D01*
X89348099Y-89957861D01*
X89343285Y-89960854D01*
X88716881Y-90313494D01*
X89498374Y-90313494D01*
X89507377Y-90313629D01*
X89516137Y-90314081D01*
X89524643Y-90314822D01*
X89532913Y-90315839D01*
X89540915Y-90317166D01*
X89548675Y-90318780D01*
X89556179Y-90320659D01*
X89563444Y-90322890D01*
X89570444Y-90325371D01*
X89577212Y-90328172D01*
X89583699Y-90331230D01*
X89589957Y-90334610D01*
X89595958Y-90338271D01*
X89601706Y-90342232D01*
X89607209Y-90346481D01*
X89612464Y-90351025D01*
X89617350Y-90355871D01*
X89621949Y-90361009D01*
X89626233Y-90366449D01*
X89630180Y-90372180D01*
X89633802Y-90378206D01*
X89637154Y-90384522D01*
X89640147Y-90391164D01*
X89642829Y-90398079D01*
X89645218Y-90405287D01*
X89647249Y-90412803D01*
X89649013Y-90420610D01*
X89650425Y-90428739D01*
X89651550Y-90437135D01*
X89652332Y-90445830D01*
X89652797Y-90454830D01*
X89652947Y-90464119D01*
X89652797Y-90473147D01*
X89652332Y-90481867D01*
X89651550Y-90490325D01*
X89650425Y-90498521D01*
X89649013Y-90506434D01*
X89647249Y-90514081D01*
X89645218Y-90521478D01*
X89642829Y-90528602D01*
X89640147Y-90535426D01*
X89637154Y-90542008D01*
X89633802Y-90548313D01*
X89630180Y-90554341D01*
X89626233Y-90560099D01*
X89621949Y-90565587D01*
X89617350Y-90570811D01*
X89612464Y-90575760D01*
X89607209Y-90580430D01*
X89601706Y-90584788D01*
X89595958Y-90588849D01*
X89589957Y-90592621D01*
X89583699Y-90596070D01*
X89577212Y-90599230D01*
X89570444Y-90602088D01*
X89563444Y-90604646D01*
X89556179Y-90606902D01*
X89548675Y-90608860D01*
X89540915Y-90610518D01*
X89532913Y-90611869D01*
X89524643Y-90612928D01*
X89516137Y-90613669D01*
X89507377Y-90614139D01*
X89498374Y-90614280D01*
X88253746Y-90614280D01*
X88244735Y-90614116D01*
X88235973Y-90613629D01*
X88227483Y-90612818D01*
X88219219Y-90611680D01*
X88211241Y-90610224D01*
X88203512Y-90608453D01*
X88196009Y-90606351D01*
X88188796Y-90603915D01*
X88181823Y-90601153D01*
X88175102Y-90598060D01*
X88168629Y-90594658D01*
X88162413Y-90590947D01*
X88156477Y-90586898D01*
X88150779Y-90582515D01*
X88145329Y-90577820D01*
X88140158Y-90572789D01*
X88135172Y-90567420D01*
X88130528Y-90561805D01*
X88126213Y-90555965D01*
X88122209Y-90549849D01*
X88118524Y-90543519D01*
X88115164Y-90536927D01*
X88112125Y-90530092D01*
X88109393Y-90523038D01*
X88107010Y-90515711D01*
X88104905Y-90508155D01*
X88103150Y-90500356D01*
X88101708Y-90492321D01*
X88100582Y-90484018D01*
X88099796Y-90475502D01*
X88099306Y-90466723D01*
X88099150Y-90457722D01*
X88099242Y-90449724D01*
X88099542Y-90441966D01*
X88100012Y-90434415D01*
X88100700Y-90427057D01*
X88101561Y-90419927D01*
X88102606Y-90413007D01*
X88103865Y-90406300D01*
X88105320Y-90399800D01*
X88106973Y-90393520D01*
X88108788Y-90387435D01*
X88110818Y-90381598D01*
X88113049Y-90375941D01*
X88115450Y-90370502D01*
X88118053Y-90365280D01*
X88120856Y-90360273D01*
X88123848Y-90355477D01*
X88127075Y-90350802D01*
X88130567Y-90346177D01*
X88134367Y-90341576D01*
X88138410Y-90337005D01*
X88142761Y-90332502D01*
X88147374Y-90328017D01*
X88152253Y-90323573D01*
X88157416Y-90319177D01*
X88162875Y-90314814D01*
X88168601Y-90310486D01*
X88174610Y-90306195D01*
X88180873Y-90301945D01*
X88187447Y-90297751D01*
X88194277Y-90293569D01*
X88201412Y-90289432D01*
X88208769Y-90285351D01*
X89048837Y-89825511D01*
X88208769Y-89365689D01*
X88201412Y-89361662D01*
X88194277Y-89357585D01*
X88187447Y-89353472D01*
X88180873Y-89349303D01*
X88174610Y-89345102D01*
X88168601Y-89340852D01*
X88162875Y-89336567D01*
X88157416Y-89332249D01*
X88152253Y-89327857D01*
X88147374Y-89323443D01*
X88142761Y-89318984D01*
X88138410Y-89314493D01*
X88134367Y-89309953D01*
X88130567Y-89305366D01*
X88127075Y-89300728D01*
X88123848Y-89296075D01*
X88120856Y-89291203D01*
X88118053Y-89286188D01*
X88115450Y-89280948D01*
X88113049Y-89275545D01*
X88110818Y-89269932D01*
X88108788Y-89264141D01*
X88106973Y-89258155D01*
X88105320Y-89251974D01*
X88103865Y-89245630D01*
X88102606Y-89239074D01*
X88101561Y-89232330D01*
X88100700Y-89225386D01*
X88100012Y-89218286D01*
X88099542Y-89210969D01*
X88099242Y-89203485D01*
X88099150Y-89195792D01*
X88099306Y-89186819D01*
X88099796Y-89178047D01*
X88100582Y-89169567D01*
X88101708Y-89161347D01*
X88103150Y-89153396D01*
X88104905Y-89145704D01*
X88107010Y-89138272D01*
X88109393Y-89131112D01*
X88112125Y-89124195D01*
X88115164Y-89117551D01*
X88118524Y-89111158D01*
X88122209Y-89105043D01*
X88126213Y-89099186D01*
X88130528Y-89093588D01*
X88135172Y-89088254D01*
X88140158Y-89083186D01*
X88145329Y-89078343D01*
X88150779Y-89073816D01*
X88156477Y-89069602D01*
X88162413Y-89065689D01*
X88168629Y-89062100D01*
X88175102Y-89058816D01*
X88181823Y-89055854D01*
X88188796Y-89053200D01*
X88196009Y-89050857D01*
X88203512Y-89048810D01*
X88211241Y-89047098D01*
X88219219Y-89045689D01*
X88227483Y-89044590D01*
X88235973Y-89043811D01*
X88244735Y-89043340D01*
X88253746Y-89043191D01*
X89498374Y-89043191D01*
X89507377Y-89043338D01*
G37*
G36*
X89230866Y-87494189D02*
G01*
X89255085Y-87495826D01*
X89278599Y-87498547D01*
X89301431Y-87502385D01*
X89323554Y-87507303D01*
X89344991Y-87513301D01*
X89365715Y-87520391D01*
X89385768Y-87528589D01*
X89405111Y-87537866D01*
X89423756Y-87548238D01*
X89441717Y-87559694D01*
X89458981Y-87572255D01*
X89475551Y-87585918D01*
X89491420Y-87600669D01*
X89506601Y-87616506D01*
X89521097Y-87633426D01*
X89534736Y-87651232D01*
X89547476Y-87669884D01*
X89559356Y-87689373D01*
X89570356Y-87709661D01*
X89580461Y-87730795D01*
X89589705Y-87752745D01*
X89598062Y-87775528D01*
X89605544Y-87799128D01*
X89612133Y-87823538D01*
X89617865Y-87848803D01*
X89622711Y-87874893D01*
X89626667Y-87901784D01*
X89629738Y-87929518D01*
X89631945Y-87958085D01*
X89633260Y-87987459D01*
X89633701Y-88017669D01*
X89633701Y-88561464D01*
X89633522Y-88571789D01*
X89632989Y-88581848D01*
X89632114Y-88591579D01*
X89630879Y-88601013D01*
X89629308Y-88610164D01*
X89627391Y-88619017D01*
X89625094Y-88627548D01*
X89622470Y-88635796D01*
X89619481Y-88643735D01*
X89616142Y-88651366D01*
X89612459Y-88658699D01*
X89608412Y-88665720D01*
X89604013Y-88672471D01*
X89599290Y-88678892D01*
X89594200Y-88685032D01*
X89588751Y-88690859D01*
X89582926Y-88696293D01*
X89576795Y-88701392D01*
X89570356Y-88706143D01*
X89563628Y-88710521D01*
X89556604Y-88714555D01*
X89549258Y-88718244D01*
X89541612Y-88721579D01*
X89533684Y-88724561D01*
X89525439Y-88727201D01*
X89516913Y-88729488D01*
X89508062Y-88731402D01*
X89498921Y-88732984D01*
X89489477Y-88734234D01*
X89479735Y-88735100D01*
X89469699Y-88735620D01*
X89459358Y-88735802D01*
X89386743Y-88735802D01*
X88741719Y-88735802D01*
X88292277Y-88735802D01*
X88281979Y-88735620D01*
X88272002Y-88735100D01*
X88262326Y-88734234D01*
X88252938Y-88732984D01*
X88243837Y-88731402D01*
X88235082Y-88729488D01*
X88226602Y-88727201D01*
X88218426Y-88724561D01*
X88210547Y-88721579D01*
X88202986Y-88718244D01*
X88195711Y-88714555D01*
X88188728Y-88710521D01*
X88182060Y-88706143D01*
X88175680Y-88701392D01*
X88169629Y-88696293D01*
X88163845Y-88690859D01*
X88158345Y-88685032D01*
X88153198Y-88678892D01*
X88148412Y-88672471D01*
X88143968Y-88665720D01*
X88139896Y-88658699D01*
X88136164Y-88651366D01*
X88132775Y-88643735D01*
X88129775Y-88635796D01*
X88127109Y-88627548D01*
X88124816Y-88619017D01*
X88122860Y-88610164D01*
X88121253Y-88601013D01*
X88120000Y-88591579D01*
X88119119Y-88581848D01*
X88118592Y-88571789D01*
X88118423Y-88561464D01*
X88118423Y-88099654D01*
X88365358Y-88099654D01*
X88365358Y-88417736D01*
X88741719Y-88417736D01*
X88741719Y-88099654D01*
X88741527Y-88084295D01*
X88740964Y-88069433D01*
X88740554Y-88063106D01*
X88988657Y-88063106D01*
X88988657Y-88417736D01*
X89386743Y-88417736D01*
X89386743Y-88063106D01*
X89386544Y-88047264D01*
X89385968Y-88031952D01*
X89384984Y-88017172D01*
X89383608Y-88002952D01*
X89381825Y-87989256D01*
X89379669Y-87976088D01*
X89377095Y-87963471D01*
X89374156Y-87951370D01*
X89370811Y-87939818D01*
X89367074Y-87928792D01*
X89362947Y-87918305D01*
X89358404Y-87908358D01*
X89353496Y-87898959D01*
X89348187Y-87890085D01*
X89342469Y-87881731D01*
X89336377Y-87873945D01*
X89329821Y-87866651D01*
X89322885Y-87859821D01*
X89315622Y-87853480D01*
X89307947Y-87847579D01*
X89299897Y-87842162D01*
X89291473Y-87837221D01*
X89282689Y-87832768D01*
X89273518Y-87828764D01*
X89263981Y-87825219D01*
X89254069Y-87822156D01*
X89243777Y-87819576D01*
X89233121Y-87817453D01*
X89222074Y-87815807D01*
X89210672Y-87814632D01*
X89198879Y-87813926D01*
X89186714Y-87813675D01*
X89174569Y-87813926D01*
X89162797Y-87814632D01*
X89151425Y-87815807D01*
X89140402Y-87817453D01*
X89129804Y-87819576D01*
X89119576Y-87822156D01*
X89109740Y-87825219D01*
X89100284Y-87828764D01*
X89091223Y-87832768D01*
X89082532Y-87837221D01*
X89074227Y-87842162D01*
X89066322Y-87847579D01*
X89058807Y-87853480D01*
X89051664Y-87859821D01*
X89044907Y-87866651D01*
X89038554Y-87873945D01*
X89032506Y-87881731D01*
X89026855Y-87890085D01*
X89021595Y-87898959D01*
X89016722Y-87908358D01*
X89012237Y-87918305D01*
X89008150Y-87928792D01*
X89004446Y-87939818D01*
X89001139Y-87951370D01*
X88998206Y-87963471D01*
X88995682Y-87976088D01*
X88993542Y-87989256D01*
X88991775Y-88002952D01*
X88990427Y-88017172D01*
X88989440Y-88031952D01*
X88988853Y-88047264D01*
X88988657Y-88063106D01*
X88740554Y-88063106D01*
X88740035Y-88055096D01*
X88738745Y-88041252D01*
X88737085Y-88027930D01*
X88735048Y-88015102D01*
X88732638Y-88002790D01*
X88729856Y-87990994D01*
X88726715Y-87979713D01*
X88723190Y-87968931D01*
X88719298Y-87958667D01*
X88715029Y-87948909D01*
X88710412Y-87939635D01*
X88705416Y-87930908D01*
X88700039Y-87922666D01*
X88694309Y-87914935D01*
X88688179Y-87907645D01*
X88681704Y-87900823D01*
X88674865Y-87894453D01*
X88667662Y-87888572D01*
X88660083Y-87883162D01*
X88652134Y-87878235D01*
X88643826Y-87873755D01*
X88635159Y-87869753D01*
X88626122Y-87866204D01*
X88616718Y-87863151D01*
X88606927Y-87860573D01*
X88596792Y-87858455D01*
X88586271Y-87856799D01*
X88575397Y-87855617D01*
X88564164Y-87854911D01*
X88552537Y-87854679D01*
X88541184Y-87854911D01*
X88530168Y-87855617D01*
X88519488Y-87856799D01*
X88509178Y-87858455D01*
X88499203Y-87860573D01*
X88489594Y-87863151D01*
X88480352Y-87866204D01*
X88471429Y-87869753D01*
X88462862Y-87873755D01*
X88454661Y-87878235D01*
X88446800Y-87883162D01*
X88439292Y-87888572D01*
X88432137Y-87894453D01*
X88425331Y-87900823D01*
X88418877Y-87907645D01*
X88412782Y-87914935D01*
X88407025Y-87922666D01*
X88401671Y-87930908D01*
X88396655Y-87939635D01*
X88392041Y-87948909D01*
X88387754Y-87958667D01*
X88383870Y-87968931D01*
X88380359Y-87979713D01*
X88377215Y-87990994D01*
X88374435Y-88002790D01*
X88372032Y-88015102D01*
X88369998Y-88027930D01*
X88368326Y-88041252D01*
X88367031Y-88055096D01*
X88366096Y-88069433D01*
X88365551Y-88084295D01*
X88365358Y-88099654D01*
X88118423Y-88099654D01*
X88118423Y-88041396D01*
X88119142Y-88001861D01*
X88121368Y-87963839D01*
X88123037Y-87945371D01*
X88125075Y-87927284D01*
X88127486Y-87909570D01*
X88130271Y-87892226D01*
X88133401Y-87875250D01*
X88136936Y-87858628D01*
X88140816Y-87842401D01*
X88145075Y-87826534D01*
X88149715Y-87811031D01*
X88154698Y-87795912D01*
X88160066Y-87781161D01*
X88165816Y-87766763D01*
X88171840Y-87752717D01*
X88178203Y-87739106D01*
X88184878Y-87725919D01*
X88191874Y-87713153D01*
X88199209Y-87700828D01*
X88206849Y-87688914D01*
X88214831Y-87677424D01*
X88223120Y-87666391D01*
X88231739Y-87655766D01*
X88240685Y-87645565D01*
X88249950Y-87635805D01*
X88259549Y-87626474D01*
X88269479Y-87617585D01*
X88279688Y-87609094D01*
X88290260Y-87601027D01*
X88301147Y-87593416D01*
X88312281Y-87586229D01*
X88323681Y-87579518D01*
X88335340Y-87573273D01*
X88347269Y-87567479D01*
X88359486Y-87562151D01*
X88371959Y-87557280D01*
X88384703Y-87552908D01*
X88397718Y-87548960D01*
X88410986Y-87545488D01*
X88424552Y-87542484D01*
X88438397Y-87539923D01*
X88452471Y-87537848D01*
X88466843Y-87536224D01*
X88481468Y-87535084D01*
X88496373Y-87534367D01*
X88511553Y-87534134D01*
X88528302Y-87534457D01*
X88544766Y-87535354D01*
X88560881Y-87536870D01*
X88576696Y-87538997D01*
X88592173Y-87541726D01*
X88607358Y-87545047D01*
X88622223Y-87548996D01*
X88636765Y-87553530D01*
X88650986Y-87558686D01*
X88664891Y-87564424D01*
X88678473Y-87570797D01*
X88691766Y-87577760D01*
X88704737Y-87585344D01*
X88717373Y-87593517D01*
X88729694Y-87602301D01*
X88741719Y-87611687D01*
X88753267Y-87621595D01*
X88764323Y-87631973D01*
X88774913Y-87642798D01*
X88785029Y-87654069D01*
X88794646Y-87665791D01*
X88803774Y-87677973D01*
X88812438Y-87690600D01*
X88820612Y-87703680D01*
X88828301Y-87717207D01*
X88835516Y-87731178D01*
X88842236Y-87745615D01*
X88848491Y-87760501D01*
X88848946Y-87761707D01*
X88852365Y-87750417D01*
X88858281Y-87733249D01*
X88864698Y-87716631D01*
X88871663Y-87700550D01*
X88879136Y-87685036D01*
X88887143Y-87670059D01*
X88895686Y-87655625D01*
X88904767Y-87641753D01*
X88914366Y-87628419D01*
X88924479Y-87615630D01*
X88935133Y-87603391D01*
X88946327Y-87591711D01*
X88958045Y-87580592D01*
X88970182Y-87570038D01*
X88982769Y-87560201D01*
X88995782Y-87551022D01*
X89009275Y-87542542D01*
X89023210Y-87534731D01*
X89037594Y-87527603D01*
X89052408Y-87521136D01*
X89067676Y-87515376D01*
X89083407Y-87510269D01*
X89099565Y-87505870D01*
X89116200Y-87502139D01*
X89133254Y-87499087D01*
X89150751Y-87496720D01*
X89168715Y-87494997D01*
X89187132Y-87493978D01*
X89205987Y-87493645D01*
X89230866Y-87494189D01*
G37*
G36*
X89537382Y-92469409D02*
G01*
X89543726Y-92469803D01*
X89549912Y-92470469D01*
X89555979Y-92471391D01*
X89561868Y-92472572D01*
X89567614Y-92474037D01*
X89573191Y-92475768D01*
X89578657Y-92477774D01*
X89583941Y-92480033D01*
X89589071Y-92482609D01*
X89594073Y-92485396D01*
X89598911Y-92488489D01*
X89603597Y-92491822D01*
X89608139Y-92495460D01*
X89612535Y-92499359D01*
X89616767Y-92503522D01*
X89620849Y-92507964D01*
X89624737Y-92512645D01*
X89628379Y-92517631D01*
X89631771Y-92522874D01*
X89634909Y-92528388D01*
X89637786Y-92534181D01*
X89640410Y-92540220D01*
X89642797Y-92546546D01*
X89644923Y-92553146D01*
X89646807Y-92560009D01*
X89648439Y-92567143D01*
X89649814Y-92574550D01*
X89650950Y-92582230D01*
X89651831Y-92590173D01*
X89652457Y-92598389D01*
X89652824Y-92606874D01*
X89652947Y-92615626D01*
X89652829Y-92624411D01*
X89652479Y-92632956D01*
X89651900Y-92641320D01*
X89651084Y-92649492D01*
X89650011Y-92657419D01*
X89648713Y-92665143D01*
X89647194Y-92672648D01*
X89645440Y-92679954D01*
X89643417Y-92687054D01*
X89641190Y-92693907D01*
X89638717Y-92700566D01*
X89636018Y-92707023D01*
X89633075Y-92713264D01*
X89629888Y-92719288D01*
X89626483Y-92725105D01*
X89622836Y-92730702D01*
X89618935Y-92736166D01*
X89614799Y-92741541D01*
X89610424Y-92746851D01*
X89605762Y-92752086D01*
X89600866Y-92757254D01*
X89595719Y-92762356D01*
X89590314Y-92767361D01*
X89584678Y-92772313D01*
X89578779Y-92777190D01*
X89572626Y-92781978D01*
X89566234Y-92786704D01*
X89559577Y-92791358D01*
X89552682Y-92795927D01*
X89545523Y-92800447D01*
X89538128Y-92804882D01*
X89530472Y-92809232D01*
X89150165Y-93015195D01*
X89142787Y-93019316D01*
X89135724Y-93023555D01*
X89128941Y-93027910D01*
X89122474Y-93032357D01*
X89116324Y-93036922D01*
X89110484Y-93041578D01*
X89104920Y-93046359D01*
X89099667Y-93051236D01*
X89094735Y-93056239D01*
X89090088Y-93061330D01*
X89085747Y-93066540D01*
X89081730Y-93071878D01*
X89078000Y-93077280D01*
X89074601Y-93082820D01*
X89071480Y-93088454D01*
X89068669Y-93094217D01*
X89066039Y-93100031D01*
X89063572Y-93106008D01*
X89061279Y-93112164D01*
X89059172Y-93118485D01*
X89057214Y-93124939D01*
X89055426Y-93131574D01*
X89053819Y-93138366D01*
X89052367Y-93145333D01*
X89051093Y-93152454D01*
X89050003Y-93159741D01*
X89049058Y-93167179D01*
X89048308Y-93174782D01*
X89047701Y-93182547D01*
X89047275Y-93190465D01*
X89047033Y-93198573D01*
X89046938Y-93206842D01*
X89046938Y-93369837D01*
X89481085Y-93369837D01*
X89491133Y-93369966D01*
X89500889Y-93370468D01*
X89510370Y-93371280D01*
X89519580Y-93372428D01*
X89528503Y-93373903D01*
X89537130Y-93375714D01*
X89545477Y-93377839D01*
X89553566Y-93380294D01*
X89561353Y-93383112D01*
X89568861Y-93386215D01*
X89576088Y-93389647D01*
X89583034Y-93393422D01*
X89589705Y-93397526D01*
X89596085Y-93401955D01*
X89602193Y-93406709D01*
X89608012Y-93411785D01*
X89613461Y-93417205D01*
X89618552Y-93422911D01*
X89623290Y-93428939D01*
X89627672Y-93435282D01*
X89631707Y-93441951D01*
X89635420Y-93448897D01*
X89638744Y-93456201D01*
X89641723Y-93463779D01*
X89644336Y-93471660D01*
X89646633Y-93479892D01*
X89648572Y-93488433D01*
X89650150Y-93497267D01*
X89651361Y-93506415D01*
X89652255Y-93515884D01*
X89652776Y-93525664D01*
X89652947Y-93535761D01*
X89652776Y-93545799D01*
X89652255Y-93555533D01*
X89651361Y-93564970D01*
X89650150Y-93574099D01*
X89648572Y-93582924D01*
X89646633Y-93591447D01*
X89644336Y-93599687D01*
X89641723Y-93607614D01*
X89638744Y-93615260D01*
X89635420Y-93622589D01*
X89631707Y-93629593D01*
X89627672Y-93636322D01*
X89623290Y-93642765D01*
X89618552Y-93648876D01*
X89613461Y-93654697D01*
X89608012Y-93660209D01*
X89602193Y-93665428D01*
X89596085Y-93670289D01*
X89589705Y-93674824D01*
X89583034Y-93679015D01*
X89576088Y-93682878D01*
X89568861Y-93686402D01*
X89561353Y-93689607D01*
X89553566Y-93692448D01*
X89545477Y-93694975D01*
X89537130Y-93697136D01*
X89528503Y-93698994D01*
X89519580Y-93700502D01*
X89510370Y-93701682D01*
X89500889Y-93702516D01*
X89491133Y-93703013D01*
X89481085Y-93703181D01*
X88805932Y-93703181D01*
X88288318Y-93703181D01*
X88277981Y-93703013D01*
X88267952Y-93702496D01*
X88258271Y-93701621D01*
X88248895Y-93700431D01*
X88239849Y-93698905D01*
X88231116Y-93697000D01*
X88222702Y-93694784D01*
X88214596Y-93692203D01*
X88206823Y-93689278D01*
X88199378Y-93686005D01*
X88192248Y-93682418D01*
X88185430Y-93678475D01*
X88178938Y-93674171D01*
X88172773Y-93669536D01*
X88166921Y-93664562D01*
X88161379Y-93659224D01*
X88156188Y-93653585D01*
X88151299Y-93647637D01*
X88146780Y-93641405D01*
X88142587Y-93634897D01*
X88138714Y-93628047D01*
X88135196Y-93620912D01*
X88132007Y-93613496D01*
X88129165Y-93605770D01*
X88126618Y-93597745D01*
X88124445Y-93589428D01*
X88122620Y-93580819D01*
X88121098Y-93571912D01*
X88119928Y-93562697D01*
X88119077Y-93553188D01*
X88118586Y-93543386D01*
X88118423Y-93533286D01*
X88118423Y-93071497D01*
X88378201Y-93071497D01*
X88378201Y-93369837D01*
X88805932Y-93369837D01*
X88805932Y-93071497D01*
X88805722Y-93055078D01*
X88805088Y-93039168D01*
X88804051Y-93023787D01*
X88802581Y-93008919D01*
X88800705Y-92994577D01*
X88798408Y-92980714D01*
X88795704Y-92967383D01*
X88792601Y-92954540D01*
X88789050Y-92942251D01*
X88785087Y-92930465D01*
X88780709Y-92919164D01*
X88775914Y-92908415D01*
X88770710Y-92898154D01*
X88765086Y-92888426D01*
X88759036Y-92879181D01*
X88752577Y-92870465D01*
X88745646Y-92862284D01*
X88738274Y-92854605D01*
X88730493Y-92847491D01*
X88722319Y-92840877D01*
X88713673Y-92834795D01*
X88704624Y-92829234D01*
X88695176Y-92824212D01*
X88685279Y-92819740D01*
X88674979Y-92815769D01*
X88664245Y-92812328D01*
X88653115Y-92809425D01*
X88641537Y-92807048D01*
X88629551Y-92805183D01*
X88617151Y-92803867D01*
X88604313Y-92803063D01*
X88591071Y-92802799D01*
X88578119Y-92803063D01*
X88565572Y-92803867D01*
X88553439Y-92805183D01*
X88541678Y-92807048D01*
X88530337Y-92809425D01*
X88519405Y-92812328D01*
X88508859Y-92815769D01*
X88498726Y-92819740D01*
X88488973Y-92824212D01*
X88479636Y-92829234D01*
X88470710Y-92834795D01*
X88462165Y-92840877D01*
X88454037Y-92847491D01*
X88446302Y-92854605D01*
X88438967Y-92862284D01*
X88432045Y-92870465D01*
X88425528Y-92879181D01*
X88419415Y-92888426D01*
X88413745Y-92898154D01*
X88408482Y-92908415D01*
X88403647Y-92919164D01*
X88399231Y-92930465D01*
X88395238Y-92942251D01*
X88391646Y-92954540D01*
X88388511Y-92967383D01*
X88385778Y-92980714D01*
X88383462Y-92994577D01*
X88381566Y-93008919D01*
X88380094Y-93023787D01*
X88379035Y-93039168D01*
X88378400Y-93055078D01*
X88378201Y-93071497D01*
X88118423Y-93071497D01*
X88118423Y-93011228D01*
X88118893Y-92979968D01*
X88120324Y-92949590D01*
X88122710Y-92920142D01*
X88126064Y-92891587D01*
X88130378Y-92863958D01*
X88135625Y-92837234D01*
X88141846Y-92811424D01*
X88149032Y-92786515D01*
X88157167Y-92762523D01*
X88166267Y-92739432D01*
X88176299Y-92717280D01*
X88187314Y-92696005D01*
X88199283Y-92675655D01*
X88212200Y-92656213D01*
X88226077Y-92637678D01*
X88240887Y-92620072D01*
X88256586Y-92603383D01*
X88273032Y-92587761D01*
X88290235Y-92573230D01*
X88308202Y-92559790D01*
X88326900Y-92547407D01*
X88346383Y-92536102D01*
X88366604Y-92525870D01*
X88387598Y-92516724D01*
X88409321Y-92508641D01*
X88431832Y-92501633D01*
X88455065Y-92495727D01*
X88479082Y-92490881D01*
X88503842Y-92487125D01*
X88529367Y-92484425D01*
X88555635Y-92482803D01*
X88582685Y-92482260D01*
X88600250Y-92482503D01*
X88617525Y-92483242D01*
X88634476Y-92484463D01*
X88651149Y-92486155D01*
X88667515Y-92488356D01*
X88683565Y-92491018D01*
X88699335Y-92494178D01*
X88714788Y-92497834D01*
X88729958Y-92501963D01*
X88744806Y-92506583D01*
X88759356Y-92511679D01*
X88773620Y-92517267D01*
X88787578Y-92523344D01*
X88801241Y-92529915D01*
X88814593Y-92536957D01*
X88827643Y-92544511D01*
X88840384Y-92552499D01*
X88852725Y-92560926D01*
X88864691Y-92569784D01*
X88876308Y-92579064D01*
X88887521Y-92588797D01*
X88898399Y-92598952D01*
X88908902Y-92609539D01*
X88919045Y-92620556D01*
X88928780Y-92632020D01*
X88938164Y-92643907D01*
X88947189Y-92656219D01*
X88955822Y-92668959D01*
X88964088Y-92682144D01*
X88971997Y-92695759D01*
X88979532Y-92709795D01*
X88986691Y-92724288D01*
X88993448Y-92739118D01*
X88999773Y-92754384D01*
X89005654Y-92770034D01*
X89011102Y-92786115D01*
X89016123Y-92802603D01*
X89019222Y-92814069D01*
X89020016Y-92811451D01*
X89023311Y-92801871D01*
X89026961Y-92792455D01*
X89030953Y-92783207D01*
X89035284Y-92774136D01*
X89039984Y-92765260D01*
X89045022Y-92756540D01*
X89050398Y-92747984D01*
X89056071Y-92739534D01*
X89062106Y-92731232D01*
X89068500Y-92723088D01*
X89075246Y-92715079D01*
X89082361Y-92707235D01*
X89089818Y-92699509D01*
X89097655Y-92691940D01*
X89105824Y-92684521D01*
X89114386Y-92677253D01*
X89123290Y-92670121D01*
X89132553Y-92663148D01*
X89142164Y-92656311D01*
X89152154Y-92649623D01*
X89162488Y-92643080D01*
X89173200Y-92636689D01*
X89184252Y-92630427D01*
X89431688Y-92497582D01*
X89438418Y-92493930D01*
X89445108Y-92490546D01*
X89451817Y-92487407D01*
X89458479Y-92484524D01*
X89465147Y-92481887D01*
X89471799Y-92479502D01*
X89478419Y-92477372D01*
X89485038Y-92475475D01*
X89491626Y-92473846D01*
X89498208Y-92472460D01*
X89504780Y-92471331D01*
X89511347Y-92470460D01*
X89517870Y-92469806D01*
X89524391Y-92469433D01*
X89530897Y-92469319D01*
X89537382Y-92469409D01*
G37*
G36*
X89416495Y-93936579D02*
G01*
X89421873Y-93936915D01*
X89427243Y-93937440D01*
X89432622Y-93938156D01*
X89438010Y-93939047D01*
X89443358Y-93940159D01*
X89448721Y-93941440D01*
X89454105Y-93942926D01*
X89459475Y-93944608D01*
X89464842Y-93946487D01*
X89470210Y-93948541D01*
X89475541Y-93950780D01*
X89480763Y-93953217D01*
X89485874Y-93955915D01*
X89490895Y-93958854D01*
X89495819Y-93962032D01*
X89500645Y-93965451D01*
X89505351Y-93969099D01*
X89509973Y-93972992D01*
X89514491Y-93977129D01*
X89518899Y-93981492D01*
X89523231Y-93986121D01*
X89527440Y-93990949D01*
X89531565Y-93996033D01*
X89535577Y-94001378D01*
X89539502Y-94006932D01*
X89543315Y-94012750D01*
X89549920Y-94022843D01*
X89556403Y-94033195D01*
X89562664Y-94043854D01*
X89568740Y-94054801D01*
X89574635Y-94066028D01*
X89580343Y-94077526D01*
X89585862Y-94089335D01*
X89591224Y-94101405D01*
X89596371Y-94113780D01*
X89601349Y-94126422D01*
X89606115Y-94139370D01*
X89610739Y-94152588D01*
X89615134Y-94166087D01*
X89619369Y-94179890D01*
X89623419Y-94193989D01*
X89627276Y-94208328D01*
X89634331Y-94237306D01*
X89640470Y-94266234D01*
X89645630Y-94295099D01*
X89649858Y-94323910D01*
X89653161Y-94352641D01*
X89655529Y-94381328D01*
X89656924Y-94409943D01*
X89657397Y-94438477D01*
X89657037Y-94468831D01*
X89655902Y-94498642D01*
X89653996Y-94527873D01*
X89651348Y-94556554D01*
X89647948Y-94584730D01*
X89643787Y-94612273D01*
X89638877Y-94639327D01*
X89633210Y-94665814D01*
X89626766Y-94691748D01*
X89619595Y-94717116D01*
X89611636Y-94741951D01*
X89602943Y-94766230D01*
X89593492Y-94789951D01*
X89583282Y-94813126D01*
X89572332Y-94835751D01*
X89560603Y-94857811D01*
X89548199Y-94879235D01*
X89535175Y-94900017D01*
X89521563Y-94920185D01*
X89507316Y-94939706D01*
X89492464Y-94958609D01*
X89477016Y-94976878D01*
X89460951Y-94994536D01*
X89444282Y-95011544D01*
X89427004Y-95027931D01*
X89409107Y-95043677D01*
X89390611Y-95058807D01*
X89371485Y-95073316D01*
X89351776Y-95087168D01*
X89331447Y-95100431D01*
X89310512Y-95113040D01*
X89288958Y-95125007D01*
X89266791Y-95136326D01*
X89244149Y-95146877D01*
X89220977Y-95156724D01*
X89197327Y-95165850D01*
X89173202Y-95174242D01*
X89148564Y-95181898D01*
X89123444Y-95188813D01*
X89097835Y-95195034D01*
X89071702Y-95200507D01*
X89045092Y-95205229D01*
X89017992Y-95209252D01*
X88990390Y-95212537D01*
X88962315Y-95215080D01*
X88933714Y-95216892D01*
X88904639Y-95217998D01*
X88875070Y-95218354D01*
X88831053Y-95217539D01*
X88788141Y-95215095D01*
X88746349Y-95211009D01*
X88705649Y-95205293D01*
X88685725Y-95201793D01*
X88666107Y-95197915D01*
X88646709Y-95193621D01*
X88627614Y-95188900D01*
X88608822Y-95183810D01*
X88590266Y-95178284D01*
X88572015Y-95172381D01*
X88554036Y-95166016D01*
X88536295Y-95159210D01*
X88518866Y-95152035D01*
X88501772Y-95144508D01*
X88484979Y-95136581D01*
X88468505Y-95128305D01*
X88452379Y-95119623D01*
X88436542Y-95110579D01*
X88421060Y-95101192D01*
X88405868Y-95091403D01*
X88391016Y-95081235D01*
X88376462Y-95070711D01*
X88362253Y-95059772D01*
X88348340Y-95048512D01*
X88334760Y-95036847D01*
X88321515Y-95024812D01*
X88308561Y-95012408D01*
X88295970Y-94999582D01*
X88283743Y-94986413D01*
X88271850Y-94972917D01*
X88260339Y-94959070D01*
X88249196Y-94944887D01*
X88238419Y-94930359D01*
X88227995Y-94915501D01*
X88217933Y-94900290D01*
X88208232Y-94884742D01*
X88198899Y-94868883D01*
X88189918Y-94852643D01*
X88181317Y-94836077D01*
X88173076Y-94819170D01*
X88165184Y-94801929D01*
X88157669Y-94784369D01*
X88150513Y-94766428D01*
X88143755Y-94748144D01*
X88137438Y-94729553D01*
X88131550Y-94710672D01*
X88126094Y-94691499D01*
X88121076Y-94672016D01*
X88116498Y-94652271D01*
X88112363Y-94632204D01*
X88108646Y-94611867D01*
X88105387Y-94591220D01*
X88102549Y-94570272D01*
X88100153Y-94549048D01*
X88098201Y-94527510D01*
X88096684Y-94505690D01*
X88095571Y-94483600D01*
X88094911Y-94461186D01*
X88094710Y-94438477D01*
X88095140Y-94411522D01*
X88096400Y-94384481D01*
X88098508Y-94357318D01*
X88101500Y-94330091D01*
X88105317Y-94302751D01*
X88109975Y-94275323D01*
X88115499Y-94247798D01*
X88121873Y-94220186D01*
X88128889Y-94192969D01*
X88136619Y-94166668D01*
X88145071Y-94141224D01*
X88154221Y-94116725D01*
X88164091Y-94093077D01*
X88174664Y-94070368D01*
X88185934Y-94048521D01*
X88197939Y-94027577D01*
X88201751Y-94021041D01*
X88205702Y-94014771D01*
X88209763Y-94008759D01*
X88213926Y-94003032D01*
X88218257Y-93997551D01*
X88222669Y-93992350D01*
X88227227Y-93987424D01*
X88231895Y-93982725D01*
X88236669Y-93978352D01*
X88241582Y-93974185D01*
X88246584Y-93970341D01*
X88251721Y-93966732D01*
X88257003Y-93963390D01*
X88262371Y-93960306D01*
X88267877Y-93957504D01*
X88273500Y-93954965D01*
X88279116Y-93952608D01*
X88284715Y-93950462D01*
X88290355Y-93948520D01*
X88295975Y-93946825D01*
X88301597Y-93945340D01*
X88307223Y-93944037D01*
X88312823Y-93942982D01*
X88318445Y-93942125D01*
X88324067Y-93941484D01*
X88329693Y-93941070D01*
X88335284Y-93940887D01*
X88340920Y-93940893D01*
X88346525Y-93941124D01*
X88352143Y-93941573D01*
X88357771Y-93942232D01*
X88363382Y-93943116D01*
X88368954Y-93944127D01*
X88374425Y-93945314D01*
X88379813Y-93946655D01*
X88385099Y-93948172D01*
X88390267Y-93949874D01*
X88395364Y-93951736D01*
X88400367Y-93953759D01*
X88405247Y-93955958D01*
X88410044Y-93958327D01*
X88414729Y-93960852D01*
X88419350Y-93963567D01*
X88423860Y-93966453D01*
X88428270Y-93969502D01*
X88432594Y-93972707D01*
X88436801Y-93976119D01*
X88440922Y-93979669D01*
X88444852Y-93983299D01*
X88448590Y-93987048D01*
X88452164Y-93990906D01*
X88455523Y-93994885D01*
X88458726Y-93998971D01*
X88461732Y-94003152D01*
X88464577Y-94007456D01*
X88467239Y-94011890D01*
X88469706Y-94016426D01*
X88471990Y-94021059D01*
X88474093Y-94025822D01*
X88476020Y-94030682D01*
X88477781Y-94035670D01*
X88479336Y-94040758D01*
X88480720Y-94045963D01*
X88481926Y-94051281D01*
X88482824Y-94056690D01*
X88483451Y-94062182D01*
X88483778Y-94067780D01*
X88483832Y-94073435D01*
X88483598Y-94079197D01*
X88483086Y-94085012D01*
X88482268Y-94090945D01*
X88481189Y-94096966D01*
X88479806Y-94103060D01*
X88478129Y-94109232D01*
X88476192Y-94115490D01*
X88473960Y-94121843D01*
X88471434Y-94128281D01*
X88468639Y-94134811D01*
X88465544Y-94141390D01*
X88462165Y-94148079D01*
X88452866Y-94164346D01*
X88444220Y-94180834D01*
X88436283Y-94197497D01*
X88428956Y-94214389D01*
X88422296Y-94231471D01*
X88416325Y-94248743D01*
X88411009Y-94266218D01*
X88406359Y-94283890D01*
X88402307Y-94301599D01*
X88398797Y-94319375D01*
X88395826Y-94337222D01*
X88393398Y-94355154D01*
X88391501Y-94373144D01*
X88390147Y-94391234D01*
X88389343Y-94409403D01*
X88389070Y-94427630D01*
X88389282Y-94445416D01*
X88389966Y-94462833D01*
X88391076Y-94479908D01*
X88392652Y-94496616D01*
X88394663Y-94512975D01*
X88397125Y-94528971D01*
X88400044Y-94544611D01*
X88403390Y-94559878D01*
X88407192Y-94574779D01*
X88411443Y-94589341D01*
X88416161Y-94603545D01*
X88421293Y-94617368D01*
X88426888Y-94630865D01*
X88432935Y-94643983D01*
X88439429Y-94656743D01*
X88446359Y-94669147D01*
X88453660Y-94681197D01*
X88461369Y-94692843D01*
X88469458Y-94704142D01*
X88477942Y-94715050D01*
X88486840Y-94725599D01*
X88496112Y-94735759D01*
X88505799Y-94745547D01*
X88515884Y-94754957D01*
X88526350Y-94764035D01*
X88537229Y-94772672D01*
X88548503Y-94780967D01*
X88560180Y-94788889D01*
X88572239Y-94796434D01*
X88584724Y-94803580D01*
X88597582Y-94810393D01*
X88610834Y-94816823D01*
X88624421Y-94822808D01*
X88638405Y-94828390D01*
X88652785Y-94833614D01*
X88667545Y-94838426D01*
X88682685Y-94842868D01*
X88698221Y-94846920D01*
X88714172Y-94850579D01*
X88730466Y-94853882D01*
X88747196Y-94856752D01*
X88764266Y-94859273D01*
X88781767Y-94861379D01*
X88799648Y-94863145D01*
X88817921Y-94864466D01*
X88836575Y-94865434D01*
X88855626Y-94866011D01*
X88875070Y-94866207D01*
X88894219Y-94866011D01*
X88913015Y-94865434D01*
X88931454Y-94864466D01*
X88949551Y-94863145D01*
X88967303Y-94861379D01*
X88984685Y-94859273D01*
X89001737Y-94856752D01*
X89018410Y-94853882D01*
X89034768Y-94850579D01*
X89050753Y-94846920D01*
X89066368Y-94842868D01*
X89081676Y-94838426D01*
X89096599Y-94833614D01*
X89111193Y-94828390D01*
X89125400Y-94822808D01*
X89139301Y-94816823D01*
X89152797Y-94810393D01*
X89165889Y-94803580D01*
X89178570Y-94796434D01*
X89190850Y-94788889D01*
X89202714Y-94780967D01*
X89214174Y-94772672D01*
X89225224Y-94764035D01*
X89235853Y-94754957D01*
X89246082Y-94745547D01*
X89255914Y-94735759D01*
X89265312Y-94725599D01*
X89274324Y-94715050D01*
X89282927Y-94704142D01*
X89291104Y-94692843D01*
X89298872Y-94681197D01*
X89306246Y-94669147D01*
X89313117Y-94656743D01*
X89319555Y-94643983D01*
X89325555Y-94630865D01*
X89331101Y-94617368D01*
X89336191Y-94603545D01*
X89340852Y-94589341D01*
X89345054Y-94574779D01*
X89348848Y-94559878D01*
X89352159Y-94544611D01*
X89355052Y-94528971D01*
X89357493Y-94512975D01*
X89359498Y-94496616D01*
X89361047Y-94479908D01*
X89362153Y-94462833D01*
X89362817Y-94445416D01*
X89363039Y-94427630D01*
X89362777Y-94410425D01*
X89361953Y-94393087D01*
X89360614Y-94375657D01*
X89358721Y-94358113D01*
X89356298Y-94340458D01*
X89353321Y-94322713D01*
X89349812Y-94304856D01*
X89345753Y-94286863D01*
X89341132Y-94268926D01*
X89335902Y-94251157D01*
X89330093Y-94233559D01*
X89323646Y-94216125D01*
X89316615Y-94198846D01*
X89308992Y-94181753D01*
X89300756Y-94164832D01*
X89291912Y-94148079D01*
X89288536Y-94141140D01*
X89285439Y-94134309D01*
X89282647Y-94127568D01*
X89280091Y-94120923D01*
X89277851Y-94114363D01*
X89275868Y-94107894D01*
X89274188Y-94101518D01*
X89272785Y-94095217D01*
X89271654Y-94089043D01*
X89270816Y-94082940D01*
X89270255Y-94076943D01*
X89269970Y-94071031D01*
X89269970Y-94065212D01*
X89270260Y-94059489D01*
X89270816Y-94053853D01*
X89271666Y-94048322D01*
X89272683Y-94042868D01*
X89273888Y-94037558D01*
X89275280Y-94032345D01*
X89276852Y-94027264D01*
X89278619Y-94022289D01*
X89280558Y-94017431D01*
X89282689Y-94012682D01*
X89284999Y-94008054D01*
X89287504Y-94003544D01*
X89290184Y-93999163D01*
X89293071Y-93994882D01*
X89296117Y-93990713D01*
X89299357Y-93986659D01*
X89302792Y-93982708D01*
X89306404Y-93978920D01*
X89310193Y-93975218D01*
X89314134Y-93971652D01*
X89318149Y-93968261D01*
X89322289Y-93965048D01*
X89326488Y-93962005D01*
X89330807Y-93959131D01*
X89335184Y-93956406D01*
X89339694Y-93953870D01*
X89344286Y-93951506D01*
X89348937Y-93949305D01*
X89353720Y-93947282D01*
X89358579Y-93945428D01*
X89363533Y-93943722D01*
X89368589Y-93942209D01*
X89373719Y-93940873D01*
X89378952Y-93939677D01*
X89384279Y-93938662D01*
X89389650Y-93937825D01*
X89395016Y-93937207D01*
X89400373Y-93936753D01*
X89405761Y-93936501D01*
X89411129Y-93936459D01*
X89416495Y-93936579D01*
G37*
G36*
X89197630Y-95390714D02*
G01*
X89210849Y-95391226D01*
X89223911Y-95392056D01*
X89236812Y-95393233D01*
X89249566Y-95394734D01*
X89262148Y-95396594D01*
X89274586Y-95398774D01*
X89286847Y-95401292D01*
X89298969Y-95404160D01*
X89310924Y-95407342D01*
X89322727Y-95410865D01*
X89334357Y-95414730D01*
X89345842Y-95418914D01*
X89357171Y-95423448D01*
X89368326Y-95428317D01*
X89379346Y-95433517D01*
X89390099Y-95439035D01*
X89400669Y-95444870D01*
X89411051Y-95451000D01*
X89421256Y-95457452D01*
X89431245Y-95464190D01*
X89441061Y-95471226D01*
X89450672Y-95478582D01*
X89460092Y-95486246D01*
X89469328Y-95494204D01*
X89478343Y-95502463D01*
X89487192Y-95511047D01*
X89495842Y-95519937D01*
X89504284Y-95529112D01*
X89512549Y-95538592D01*
X89520620Y-95548383D01*
X89528503Y-95558482D01*
X89536165Y-95568796D01*
X89543613Y-95579354D01*
X89550819Y-95590199D01*
X89557813Y-95601255D01*
X89564589Y-95612601D01*
X89571144Y-95624191D01*
X89577467Y-95636018D01*
X89583562Y-95648126D01*
X89589444Y-95660454D01*
X89595084Y-95673098D01*
X89600526Y-95685929D01*
X89605727Y-95699050D01*
X89610706Y-95712424D01*
X89615475Y-95726050D01*
X89620023Y-95739927D01*
X89624313Y-95754067D01*
X89632062Y-95782905D01*
X89638790Y-95812624D01*
X89644475Y-95843205D01*
X89649121Y-95874691D01*
X89652748Y-95907056D01*
X89655328Y-95940295D01*
X89656897Y-95974400D01*
X89657397Y-96009422D01*
X89657169Y-96032060D01*
X89656512Y-96054831D01*
X89655383Y-96077677D01*
X89653814Y-96100675D01*
X89651812Y-96123734D01*
X89649348Y-96146936D01*
X89646437Y-96170228D01*
X89643073Y-96193643D01*
X89639439Y-96216855D01*
X89635427Y-96239774D01*
X89631045Y-96262471D01*
X89626293Y-96284896D01*
X89621162Y-96307038D01*
X89615667Y-96328940D01*
X89609800Y-96350567D01*
X89603562Y-96371931D01*
X89596951Y-96392887D01*
X89589930Y-96413224D01*
X89582503Y-96433011D01*
X89574662Y-96452193D01*
X89566455Y-96470788D01*
X89557813Y-96488785D01*
X89548795Y-96506218D01*
X89539365Y-96523054D01*
X89536031Y-96528878D01*
X89532586Y-96534475D01*
X89528997Y-96539870D01*
X89525323Y-96545043D01*
X89521512Y-96550003D01*
X89517576Y-96554730D01*
X89513526Y-96559255D01*
X89509369Y-96563571D01*
X89505072Y-96567659D01*
X89500668Y-96571523D01*
X89496133Y-96575191D01*
X89491482Y-96578633D01*
X89486717Y-96581859D01*
X89481821Y-96584871D01*
X89476819Y-96587646D01*
X89471701Y-96590229D01*
X89466454Y-96592551D01*
X89461190Y-96594674D01*
X89455914Y-96596593D01*
X89450637Y-96598318D01*
X89445353Y-96599856D01*
X89440065Y-96601213D01*
X89434779Y-96602350D01*
X89429483Y-96603321D01*
X89424139Y-96604101D01*
X89418838Y-96604659D01*
X89413504Y-96605047D01*
X89408154Y-96605232D01*
X89402829Y-96605232D01*
X89397459Y-96605035D01*
X89392097Y-96604648D01*
X89386743Y-96604062D01*
X89381361Y-96603282D01*
X89376048Y-96602378D01*
X89370812Y-96601284D01*
X89365659Y-96600006D01*
X89360605Y-96598599D01*
X89355607Y-96597008D01*
X89350699Y-96595227D01*
X89345866Y-96593318D01*
X89341141Y-96591238D01*
X89336455Y-96588977D01*
X89331885Y-96586555D01*
X89327382Y-96583953D01*
X89322959Y-96581202D01*
X89318640Y-96578300D01*
X89314362Y-96575228D01*
X89310193Y-96571960D01*
X89306136Y-96568508D01*
X89302281Y-96564942D01*
X89298601Y-96561249D01*
X89295094Y-96557457D01*
X89291778Y-96553531D01*
X89288645Y-96549498D01*
X89285680Y-96545348D01*
X89282908Y-96541091D01*
X89280308Y-96536713D01*
X89277886Y-96532215D01*
X89275663Y-96527615D01*
X89273619Y-96522873D01*
X89271743Y-96518034D01*
X89270060Y-96513076D01*
X89268555Y-96508000D01*
X89267237Y-96502820D01*
X89266118Y-96497525D01*
X89265310Y-96492170D01*
X89264786Y-96486734D01*
X89264535Y-96481243D01*
X89264582Y-96475644D01*
X89264889Y-96470013D01*
X89265486Y-96464286D01*
X89266351Y-96458472D01*
X89267519Y-96452614D01*
X89268965Y-96446671D01*
X89270681Y-96440642D01*
X89272683Y-96434560D01*
X89274960Y-96428406D01*
X89277543Y-96422157D01*
X89280402Y-96415865D01*
X89283526Y-96409482D01*
X89295467Y-96387126D01*
X89306605Y-96364277D01*
X89316942Y-96340934D01*
X89326488Y-96317100D01*
X89335229Y-96292775D01*
X89343171Y-96267967D01*
X89350272Y-96242658D01*
X89356627Y-96216870D01*
X89362048Y-96190812D01*
X89366786Y-96164794D01*
X89370772Y-96138833D01*
X89374024Y-96112884D01*
X89376541Y-96086967D01*
X89378372Y-96061073D01*
X89379461Y-96035234D01*
X89379831Y-96009422D01*
X89379636Y-95990193D01*
X89379080Y-95971670D01*
X89378151Y-95953854D01*
X89376824Y-95936731D01*
X89375146Y-95920331D01*
X89373087Y-95904615D01*
X89370670Y-95889625D01*
X89367847Y-95875321D01*
X89364670Y-95861716D01*
X89361126Y-95848811D01*
X89357194Y-95836602D01*
X89352896Y-95825122D01*
X89348216Y-95814317D01*
X89343162Y-95804239D01*
X89337707Y-95794865D01*
X89331925Y-95786161D01*
X89325779Y-95778085D01*
X89319431Y-95770530D01*
X89312911Y-95763511D01*
X89306180Y-95757000D01*
X89299270Y-95751004D01*
X89292141Y-95745529D01*
X89284833Y-95740581D01*
X89277350Y-95736150D01*
X89269662Y-95732251D01*
X89261775Y-95728878D01*
X89253695Y-95725989D01*
X89245429Y-95723647D01*
X89236971Y-95721826D01*
X89228326Y-95720528D01*
X89219460Y-95719754D01*
X89210428Y-95719500D01*
X89202685Y-95719672D01*
X89195146Y-95720237D01*
X89187810Y-95721153D01*
X89180700Y-95722468D01*
X89173783Y-95724123D01*
X89167052Y-95726154D01*
X89160569Y-95728563D01*
X89154240Y-95731334D01*
X89148130Y-95734479D01*
X89142236Y-95738006D01*
X89136547Y-95741901D01*
X89131053Y-95746157D01*
X89125771Y-95750798D01*
X89120712Y-95755782D01*
X89115829Y-95761158D01*
X89111155Y-95766903D01*
X89106632Y-95773051D01*
X89102178Y-95779752D01*
X89097842Y-95787019D01*
X89093554Y-95794845D01*
X89089372Y-95803212D01*
X89085262Y-95812159D01*
X89081241Y-95821661D01*
X89077304Y-95831722D01*
X89073470Y-95842352D01*
X89069720Y-95853534D01*
X89066023Y-95865277D01*
X89062437Y-95877553D01*
X89058930Y-95890432D01*
X89055514Y-95903851D01*
X89052169Y-95917823D01*
X89048911Y-95932352D01*
X88997564Y-96174860D01*
X88991939Y-96200262D01*
X88985863Y-96224821D01*
X88979279Y-96248552D01*
X88972243Y-96271448D01*
X88964725Y-96293530D01*
X88956709Y-96314760D01*
X88948225Y-96335164D01*
X88939276Y-96354759D01*
X88929850Y-96373519D01*
X88919904Y-96391446D01*
X88909516Y-96408548D01*
X88898648Y-96424826D01*
X88887292Y-96440232D01*
X88875472Y-96454855D01*
X88863150Y-96468636D01*
X88850365Y-96481589D01*
X88837075Y-96493648D01*
X88823278Y-96504960D01*
X88808960Y-96515483D01*
X88794158Y-96525236D01*
X88778821Y-96534193D01*
X88762975Y-96542379D01*
X88746600Y-96549769D01*
X88729737Y-96556411D01*
X88712340Y-96562234D01*
X88694449Y-96567311D01*
X88676025Y-96571603D01*
X88657092Y-96575099D01*
X88637641Y-96577839D01*
X88617693Y-96579784D01*
X88597234Y-96580951D01*
X88576255Y-96581352D01*
X88562870Y-96581162D01*
X88549650Y-96580647D01*
X88536572Y-96579769D01*
X88523648Y-96578521D01*
X88510904Y-96576941D01*
X88498288Y-96575021D01*
X88485827Y-96572741D01*
X88473525Y-96570107D01*
X88461383Y-96567116D01*
X88449403Y-96563799D01*
X88437556Y-96560114D01*
X88425858Y-96556072D01*
X88414326Y-96551672D01*
X88402960Y-96546945D01*
X88391707Y-96541841D01*
X88380677Y-96536404D01*
X88369724Y-96530586D01*
X88358952Y-96524479D01*
X88348373Y-96518102D01*
X88337971Y-96511444D01*
X88327783Y-96504467D01*
X88317765Y-96497254D01*
X88307946Y-96489741D01*
X88298308Y-96481938D01*
X88288872Y-96473886D01*
X88279624Y-96465514D01*
X88270552Y-96456884D01*
X88261668Y-96447960D01*
X88252972Y-96438760D01*
X88244486Y-96429278D01*
X88236177Y-96419501D01*
X88228062Y-96409482D01*
X88220100Y-96399089D01*
X88212347Y-96388499D01*
X88204863Y-96377652D01*
X88197617Y-96366564D01*
X88190619Y-96355250D01*
X88183826Y-96343684D01*
X88177300Y-96331876D01*
X88171019Y-96319824D01*
X88164952Y-96307533D01*
X88159141Y-96295024D01*
X88153562Y-96282269D01*
X88148224Y-96269252D01*
X88143129Y-96256018D01*
X88138280Y-96242548D01*
X88133671Y-96228840D01*
X88129284Y-96214877D01*
X88121177Y-96186249D01*
X88114149Y-96156927D01*
X88108218Y-96126916D01*
X88103352Y-96096203D01*
X88099565Y-96064812D01*
X88096856Y-96032711D01*
X88095258Y-95999920D01*
X88094710Y-95966434D01*
X88095160Y-95936503D01*
X88096524Y-95906683D01*
X88098801Y-95876979D01*
X88101985Y-95847421D01*
X88106092Y-95817952D01*
X88111098Y-95788642D01*
X88117012Y-95759443D01*
X88123848Y-95730360D01*
X88131433Y-95701781D01*
X88139899Y-95674049D01*
X88149216Y-95647181D01*
X88159410Y-95621202D01*
X88170469Y-95596082D01*
X88182377Y-95571815D01*
X88188652Y-95560010D01*
X88195143Y-95548418D01*
X88201881Y-95537032D01*
X88208769Y-95525874D01*
X88212055Y-95520617D01*
X88215438Y-95515558D01*
X88218938Y-95510723D01*
X88222545Y-95506101D01*
X88226245Y-95501674D01*
X88230077Y-95497488D01*
X88234007Y-95493483D01*
X88238073Y-95489703D01*
X88242221Y-95486116D01*
X88246502Y-95482797D01*
X88250870Y-95479620D01*
X88255375Y-95476705D01*
X88259988Y-95473985D01*
X88264706Y-95471490D01*
X88269540Y-95469182D01*
X88274491Y-95467111D01*
X88279437Y-95465166D01*
X88284377Y-95463378D01*
X88289317Y-95461750D01*
X88294281Y-95460302D01*
X88299226Y-95459052D01*
X88304177Y-95457932D01*
X88309155Y-95457017D01*
X88314126Y-95456240D01*
X88319091Y-95455638D01*
X88324071Y-95455228D01*
X88329038Y-95454973D01*
X88334033Y-95454874D01*
X88339001Y-95454973D01*
X88344002Y-95455228D01*
X88348998Y-95455638D01*
X88354003Y-95456240D01*
X88358902Y-95457016D01*
X88363724Y-95457932D01*
X88368484Y-95459027D01*
X88373178Y-95460291D01*
X88377784Y-95461704D01*
X88382308Y-95463303D01*
X88386780Y-95465064D01*
X88391174Y-95466984D01*
X88395496Y-95469075D01*
X88399744Y-95471329D01*
X88403897Y-95473750D01*
X88407983Y-95476340D01*
X88412007Y-95479095D01*
X88415970Y-95482006D01*
X88419814Y-95485099D01*
X88423638Y-95488347D01*
X88427341Y-95491726D01*
X88430832Y-95495240D01*
X88434199Y-95498862D01*
X88437366Y-95502570D01*
X88440397Y-95506391D01*
X88443266Y-95510367D01*
X88445939Y-95514408D01*
X88448455Y-95518598D01*
X88450824Y-95522878D01*
X88453012Y-95527276D01*
X88455032Y-95531782D01*
X88456888Y-95536402D01*
X88458568Y-95541147D01*
X88460104Y-95545998D01*
X88461453Y-95550945D01*
X88462673Y-95556024D01*
X88463582Y-95561221D01*
X88464191Y-95566523D01*
X88464540Y-95571973D01*
X88464577Y-95577550D01*
X88464340Y-95583262D01*
X88463811Y-95589105D01*
X88463008Y-95595092D01*
X88461936Y-95601194D01*
X88460531Y-95607435D01*
X88458891Y-95613811D01*
X88456927Y-95620327D01*
X88454700Y-95626945D01*
X88452186Y-95633712D01*
X88449384Y-95640602D01*
X88446269Y-95647633D01*
X88442908Y-95654787D01*
X88434069Y-95672693D01*
X88425842Y-95690871D01*
X88418204Y-95709313D01*
X88411172Y-95728000D01*
X88404749Y-95746969D01*
X88398909Y-95766193D01*
X88393679Y-95785684D01*
X88389070Y-95805421D01*
X88385017Y-95825382D01*
X88381505Y-95845465D01*
X88378538Y-95865688D01*
X88376099Y-95886056D01*
X88374218Y-95906576D01*
X88372865Y-95927202D01*
X88372044Y-95947995D01*
X88371768Y-95968903D01*
X88372162Y-95990980D01*
X88373254Y-96012212D01*
X88375126Y-96032660D01*
X88377712Y-96052280D01*
X88381048Y-96071034D01*
X88382987Y-96080144D01*
X88385115Y-96089004D01*
X88387430Y-96097703D01*
X88389933Y-96106160D01*
X88392627Y-96114445D01*
X88395502Y-96122499D01*
X88398520Y-96130300D01*
X88401711Y-96137851D01*
X88405065Y-96145177D01*
X88408531Y-96152271D01*
X88412186Y-96159132D01*
X88415982Y-96165756D01*
X88419914Y-96172152D01*
X88424026Y-96178325D01*
X88428252Y-96184253D01*
X88432641Y-96189963D01*
X88437191Y-96195424D01*
X88441885Y-96200682D01*
X88446732Y-96205696D01*
X88451731Y-96210453D01*
X88456875Y-96214996D01*
X88462165Y-96219320D01*
X88467586Y-96223321D01*
X88473086Y-96227080D01*
X88478730Y-96230562D01*
X88484447Y-96233793D01*
X88490262Y-96236757D01*
X88496198Y-96239470D01*
X88502217Y-96241930D01*
X88508338Y-96244143D01*
X88514566Y-96246081D01*
X88520888Y-96247748D01*
X88527323Y-96249172D01*
X88533827Y-96250343D01*
X88540467Y-96251243D01*
X88547183Y-96251878D01*
X88554026Y-96252284D01*
X88560944Y-96252409D01*
X88568683Y-96252238D01*
X88576252Y-96251706D01*
X88583616Y-96250814D01*
X88590797Y-96249601D01*
X88597788Y-96248003D01*
X88604588Y-96246096D01*
X88611205Y-96243809D01*
X88617624Y-96241155D01*
X88623848Y-96238179D01*
X88629890Y-96234855D01*
X88635764Y-96231171D01*
X88641418Y-96227120D01*
X88646889Y-96222719D01*
X88652183Y-96217990D01*
X88657287Y-96212907D01*
X88662198Y-96207449D01*
X88666951Y-96201525D01*
X88671601Y-96195071D01*
X88676120Y-96188091D01*
X88680529Y-96180605D01*
X88684826Y-96172605D01*
X88688990Y-96164077D01*
X88693073Y-96155041D01*
X88697020Y-96145478D01*
X88700846Y-96135396D01*
X88704561Y-96124821D01*
X88708165Y-96113700D01*
X88711647Y-96102079D01*
X88715002Y-96089936D01*
X88718255Y-96077264D01*
X88721400Y-96064094D01*
X88724428Y-96050402D01*
X88776286Y-95807399D01*
X88782122Y-95781528D01*
X88788389Y-95756477D01*
X88795079Y-95732263D01*
X88802208Y-95708906D01*
X88809779Y-95686361D01*
X88817768Y-95664670D01*
X88826191Y-95643806D01*
X88835058Y-95623789D01*
X88844354Y-95604611D01*
X88854086Y-95586264D01*
X88864233Y-95568750D01*
X88874823Y-95552098D01*
X88885842Y-95536254D01*
X88897284Y-95521261D01*
X88909185Y-95507109D01*
X88921505Y-95493781D01*
X88934212Y-95481276D01*
X88947429Y-95469572D01*
X88961129Y-95458682D01*
X88975335Y-95448629D01*
X88990020Y-95439322D01*
X89005216Y-95430890D01*
X89020884Y-95423233D01*
X89037071Y-95416385D01*
X89053733Y-95410322D01*
X89070900Y-95405061D01*
X89088564Y-95400633D01*
X89106687Y-95397005D01*
X89125344Y-95394183D01*
X89144490Y-95392149D01*
X89164112Y-95390952D01*
X89184252Y-95390554D01*
X89197630Y-95390714D01*
G37*
D13*
X99484318Y-98250000D02*
X99868295Y-98250000D01*
X99868295Y-98250000D02*
X100351363Y-99582668D01*
X116000000Y-97000000D02*
X116000000Y-98000000D01*
X116849670Y-96500000D02*
X116000000Y-97000000D01*
X127703884Y-87091466D02*
X128465789Y-87091466D01*
X128084836Y-87472419D02*
X128084836Y-86710514D01*
X129703884Y-87091466D02*
X130465789Y-87091466D01*
X81276191Y-83157419D02*
X81847619Y-83157419D01*
X81561905Y-84157419D02*
X81561905Y-83157419D01*
X82180953Y-84157419D02*
X82180953Y-83490752D01*
X82180953Y-83157419D02*
X82133334Y-83205038D01*
X82133334Y-83205038D02*
X82180953Y-83252657D01*
X82180953Y-83252657D02*
X82228572Y-83205038D01*
X82228572Y-83205038D02*
X82180953Y-83157419D01*
X82180953Y-83157419D02*
X82180953Y-83252657D01*
X84076191Y-84509800D02*
X84219048Y-84557419D01*
X84219048Y-84557419D02*
X84457143Y-84557419D01*
X84457143Y-84557419D02*
X84552381Y-84509800D01*
X84552381Y-84509800D02*
X84600000Y-84462180D01*
X84600000Y-84462180D02*
X84647619Y-84366942D01*
X84647619Y-84366942D02*
X84647619Y-84271704D01*
X84647619Y-84271704D02*
X84600000Y-84176466D01*
X84600000Y-84176466D02*
X84552381Y-84128847D01*
X84552381Y-84128847D02*
X84457143Y-84081228D01*
X84457143Y-84081228D02*
X84266667Y-84033609D01*
X84266667Y-84033609D02*
X84171429Y-83985990D01*
X84171429Y-83985990D02*
X84123810Y-83938371D01*
X84123810Y-83938371D02*
X84076191Y-83843133D01*
X84076191Y-83843133D02*
X84076191Y-83747895D01*
X84076191Y-83747895D02*
X84123810Y-83652657D01*
X84123810Y-83652657D02*
X84171429Y-83605038D01*
X84171429Y-83605038D02*
X84266667Y-83557419D01*
X84266667Y-83557419D02*
X84504762Y-83557419D01*
X84504762Y-83557419D02*
X84647619Y-83605038D01*
X85076191Y-84557419D02*
X85076191Y-83890752D01*
X85076191Y-83557419D02*
X85028572Y-83605038D01*
X85028572Y-83605038D02*
X85076191Y-83652657D01*
X85076191Y-83652657D02*
X85123810Y-83605038D01*
X85123810Y-83605038D02*
X85076191Y-83557419D01*
X85076191Y-83557419D02*
X85076191Y-83652657D01*
X85961905Y-84509800D02*
X86104762Y-84557419D01*
X86104762Y-84557419D02*
X86342857Y-84557419D01*
X86342857Y-84557419D02*
X86438095Y-84509800D01*
X86438095Y-84509800D02*
X86485714Y-84462180D01*
X86485714Y-84462180D02*
X86533333Y-84366942D01*
X86533333Y-84366942D02*
X86533333Y-84271704D01*
X86533333Y-84271704D02*
X86485714Y-84176466D01*
X86485714Y-84176466D02*
X86438095Y-84128847D01*
X86438095Y-84128847D02*
X86342857Y-84081228D01*
X86342857Y-84081228D02*
X86152381Y-84033609D01*
X86152381Y-84033609D02*
X86057143Y-83985990D01*
X86057143Y-83985990D02*
X86009524Y-83938371D01*
X86009524Y-83938371D02*
X85961905Y-83843133D01*
X85961905Y-83843133D02*
X85961905Y-83747895D01*
X85961905Y-83747895D02*
X86009524Y-83652657D01*
X86009524Y-83652657D02*
X86057143Y-83605038D01*
X86057143Y-83605038D02*
X86152381Y-83557419D01*
X86152381Y-83557419D02*
X86390476Y-83557419D01*
X86390476Y-83557419D02*
X86533333Y-83605038D01*
X87104762Y-84557419D02*
X87009524Y-84509800D01*
X87009524Y-84509800D02*
X86961905Y-84462180D01*
X86961905Y-84462180D02*
X86914286Y-84366942D01*
X86914286Y-84366942D02*
X86914286Y-84081228D01*
X86914286Y-84081228D02*
X86961905Y-83985990D01*
X86961905Y-83985990D02*
X87009524Y-83938371D01*
X87009524Y-83938371D02*
X87104762Y-83890752D01*
X87104762Y-83890752D02*
X87247619Y-83890752D01*
X87247619Y-83890752D02*
X87342857Y-83938371D01*
X87342857Y-83938371D02*
X87390476Y-83985990D01*
X87390476Y-83985990D02*
X87438095Y-84081228D01*
X87438095Y-84081228D02*
X87438095Y-84366942D01*
X87438095Y-84366942D02*
X87390476Y-84462180D01*
X87390476Y-84462180D02*
X87342857Y-84509800D01*
X87342857Y-84509800D02*
X87247619Y-84557419D01*
X87247619Y-84557419D02*
X87104762Y-84557419D01*
X91861905Y-83157419D02*
X92433333Y-83157419D01*
X92147619Y-84157419D02*
X92147619Y-83157419D01*
X92909524Y-84157419D02*
X92814286Y-84109800D01*
X92814286Y-84109800D02*
X92766667Y-84062180D01*
X92766667Y-84062180D02*
X92719048Y-83966942D01*
X92719048Y-83966942D02*
X92719048Y-83681228D01*
X92719048Y-83681228D02*
X92766667Y-83585990D01*
X92766667Y-83585990D02*
X92814286Y-83538371D01*
X92814286Y-83538371D02*
X92909524Y-83490752D01*
X92909524Y-83490752D02*
X93052381Y-83490752D01*
X93052381Y-83490752D02*
X93147619Y-83538371D01*
X93147619Y-83538371D02*
X93195238Y-83585990D01*
X93195238Y-83585990D02*
X93242857Y-83681228D01*
X93242857Y-83681228D02*
X93242857Y-83966942D01*
X93242857Y-83966942D02*
X93195238Y-84062180D01*
X93195238Y-84062180D02*
X93147619Y-84109800D01*
X93147619Y-84109800D02*
X93052381Y-84157419D01*
X93052381Y-84157419D02*
X92909524Y-84157419D01*
X99838095Y-83505038D02*
X99742857Y-83457419D01*
X99742857Y-83457419D02*
X99600000Y-83457419D01*
X99600000Y-83457419D02*
X99457143Y-83505038D01*
X99457143Y-83505038D02*
X99361905Y-83600276D01*
X99361905Y-83600276D02*
X99314286Y-83695514D01*
X99314286Y-83695514D02*
X99266667Y-83885990D01*
X99266667Y-83885990D02*
X99266667Y-84028847D01*
X99266667Y-84028847D02*
X99314286Y-84219323D01*
X99314286Y-84219323D02*
X99361905Y-84314561D01*
X99361905Y-84314561D02*
X99457143Y-84409800D01*
X99457143Y-84409800D02*
X99600000Y-84457419D01*
X99600000Y-84457419D02*
X99695238Y-84457419D01*
X99695238Y-84457419D02*
X99838095Y-84409800D01*
X99838095Y-84409800D02*
X99885714Y-84362180D01*
X99885714Y-84362180D02*
X99885714Y-84028847D01*
X99885714Y-84028847D02*
X99695238Y-84028847D01*
X100314286Y-84457419D02*
X100314286Y-83457419D01*
X100314286Y-83457419D02*
X100885714Y-84457419D01*
X100885714Y-84457419D02*
X100885714Y-83457419D01*
X101361905Y-84457419D02*
X101361905Y-83457419D01*
X101361905Y-83457419D02*
X101600000Y-83457419D01*
X101600000Y-83457419D02*
X101742857Y-83505038D01*
X101742857Y-83505038D02*
X101838095Y-83600276D01*
X101838095Y-83600276D02*
X101885714Y-83695514D01*
X101885714Y-83695514D02*
X101933333Y-83885990D01*
X101933333Y-83885990D02*
X101933333Y-84028847D01*
X101933333Y-84028847D02*
X101885714Y-84219323D01*
X101885714Y-84219323D02*
X101838095Y-84314561D01*
X101838095Y-84314561D02*
X101742857Y-84409800D01*
X101742857Y-84409800D02*
X101600000Y-84457419D01*
X101600000Y-84457419D02*
X101361905Y-84457419D01*
X102461905Y-83457419D02*
X103080952Y-83457419D01*
X103080952Y-83457419D02*
X102747619Y-83838371D01*
X102747619Y-83838371D02*
X102890476Y-83838371D01*
X102890476Y-83838371D02*
X102985714Y-83885990D01*
X102985714Y-83885990D02*
X103033333Y-83933609D01*
X103033333Y-83933609D02*
X103080952Y-84028847D01*
X103080952Y-84028847D02*
X103080952Y-84266942D01*
X103080952Y-84266942D02*
X103033333Y-84362180D01*
X103033333Y-84362180D02*
X102985714Y-84409800D01*
X102985714Y-84409800D02*
X102890476Y-84457419D01*
X102890476Y-84457419D02*
X102604762Y-84457419D01*
X102604762Y-84457419D02*
X102509524Y-84409800D01*
X102509524Y-84409800D02*
X102461905Y-84362180D01*
X103366667Y-83457419D02*
X103700000Y-84457419D01*
X103700000Y-84457419D02*
X104033333Y-83457419D01*
X104271429Y-83457419D02*
X104890476Y-83457419D01*
X104890476Y-83457419D02*
X104557143Y-83838371D01*
X104557143Y-83838371D02*
X104700000Y-83838371D01*
X104700000Y-83838371D02*
X104795238Y-83885990D01*
X104795238Y-83885990D02*
X104842857Y-83933609D01*
X104842857Y-83933609D02*
X104890476Y-84028847D01*
X104890476Y-84028847D02*
X104890476Y-84266942D01*
X104890476Y-84266942D02*
X104842857Y-84362180D01*
X104842857Y-84362180D02*
X104795238Y-84409800D01*
X104795238Y-84409800D02*
X104700000Y-84457419D01*
X104700000Y-84457419D02*
X104414286Y-84457419D01*
X104414286Y-84457419D02*
X104319048Y-84409800D01*
X104319048Y-84409800D02*
X104271429Y-84362180D01*
X105709524Y-84409800D02*
X105852381Y-84457419D01*
X105852381Y-84457419D02*
X106090476Y-84457419D01*
X106090476Y-84457419D02*
X106185714Y-84409800D01*
X106185714Y-84409800D02*
X106233333Y-84362180D01*
X106233333Y-84362180D02*
X106280952Y-84266942D01*
X106280952Y-84266942D02*
X106280952Y-84171704D01*
X106280952Y-84171704D02*
X106233333Y-84076466D01*
X106233333Y-84076466D02*
X106185714Y-84028847D01*
X106185714Y-84028847D02*
X106090476Y-83981228D01*
X106090476Y-83981228D02*
X105900000Y-83933609D01*
X105900000Y-83933609D02*
X105804762Y-83885990D01*
X105804762Y-83885990D02*
X105757143Y-83838371D01*
X105757143Y-83838371D02*
X105709524Y-83743133D01*
X105709524Y-83743133D02*
X105709524Y-83647895D01*
X105709524Y-83647895D02*
X105757143Y-83552657D01*
X105757143Y-83552657D02*
X105804762Y-83505038D01*
X105804762Y-83505038D02*
X105900000Y-83457419D01*
X105900000Y-83457419D02*
X106138095Y-83457419D01*
X106138095Y-83457419D02*
X106280952Y-83505038D01*
X107280952Y-84362180D02*
X107233333Y-84409800D01*
X107233333Y-84409800D02*
X107090476Y-84457419D01*
X107090476Y-84457419D02*
X106995238Y-84457419D01*
X106995238Y-84457419D02*
X106852381Y-84409800D01*
X106852381Y-84409800D02*
X106757143Y-84314561D01*
X106757143Y-84314561D02*
X106709524Y-84219323D01*
X106709524Y-84219323D02*
X106661905Y-84028847D01*
X106661905Y-84028847D02*
X106661905Y-83885990D01*
X106661905Y-83885990D02*
X106709524Y-83695514D01*
X106709524Y-83695514D02*
X106757143Y-83600276D01*
X106757143Y-83600276D02*
X106852381Y-83505038D01*
X106852381Y-83505038D02*
X106995238Y-83457419D01*
X106995238Y-83457419D02*
X107090476Y-83457419D01*
X107090476Y-83457419D02*
X107233333Y-83505038D01*
X107233333Y-83505038D02*
X107280952Y-83552657D01*
X108185714Y-84457419D02*
X107709524Y-84457419D01*
X107709524Y-84457419D02*
X107709524Y-83457419D01*
X108885714Y-84409800D02*
X109028571Y-84457419D01*
X109028571Y-84457419D02*
X109266666Y-84457419D01*
X109266666Y-84457419D02*
X109361904Y-84409800D01*
X109361904Y-84409800D02*
X109409523Y-84362180D01*
X109409523Y-84362180D02*
X109457142Y-84266942D01*
X109457142Y-84266942D02*
X109457142Y-84171704D01*
X109457142Y-84171704D02*
X109409523Y-84076466D01*
X109409523Y-84076466D02*
X109361904Y-84028847D01*
X109361904Y-84028847D02*
X109266666Y-83981228D01*
X109266666Y-83981228D02*
X109076190Y-83933609D01*
X109076190Y-83933609D02*
X108980952Y-83885990D01*
X108980952Y-83885990D02*
X108933333Y-83838371D01*
X108933333Y-83838371D02*
X108885714Y-83743133D01*
X108885714Y-83743133D02*
X108885714Y-83647895D01*
X108885714Y-83647895D02*
X108933333Y-83552657D01*
X108933333Y-83552657D02*
X108980952Y-83505038D01*
X108980952Y-83505038D02*
X109076190Y-83457419D01*
X109076190Y-83457419D02*
X109314285Y-83457419D01*
X109314285Y-83457419D02*
X109457142Y-83505038D01*
X109885714Y-84457419D02*
X109885714Y-83457419D01*
X109885714Y-83457419D02*
X110123809Y-83457419D01*
X110123809Y-83457419D02*
X110266666Y-83505038D01*
X110266666Y-83505038D02*
X110361904Y-83600276D01*
X110361904Y-83600276D02*
X110409523Y-83695514D01*
X110409523Y-83695514D02*
X110457142Y-83885990D01*
X110457142Y-83885990D02*
X110457142Y-84028847D01*
X110457142Y-84028847D02*
X110409523Y-84219323D01*
X110409523Y-84219323D02*
X110361904Y-84314561D01*
X110361904Y-84314561D02*
X110266666Y-84409800D01*
X110266666Y-84409800D02*
X110123809Y-84457419D01*
X110123809Y-84457419D02*
X109885714Y-84457419D01*
X110838095Y-84171704D02*
X111314285Y-84171704D01*
X110742857Y-84457419D02*
X111076190Y-83457419D01*
X111076190Y-83457419D02*
X111409523Y-84457419D01*
X117209523Y-95257419D02*
X116733333Y-95257419D01*
X116733333Y-95257419D02*
X116685714Y-95733609D01*
X116685714Y-95733609D02*
X116733333Y-95685990D01*
X116733333Y-95685990D02*
X116828571Y-95638371D01*
X116828571Y-95638371D02*
X117066666Y-95638371D01*
X117066666Y-95638371D02*
X117161904Y-95685990D01*
X117161904Y-95685990D02*
X117209523Y-95733609D01*
X117209523Y-95733609D02*
X117257142Y-95828847D01*
X117257142Y-95828847D02*
X117257142Y-96066942D01*
X117257142Y-96066942D02*
X117209523Y-96162180D01*
X117209523Y-96162180D02*
X117161904Y-96209800D01*
X117161904Y-96209800D02*
X117066666Y-96257419D01*
X117066666Y-96257419D02*
X116828571Y-96257419D01*
X116828571Y-96257419D02*
X116733333Y-96209800D01*
X116733333Y-96209800D02*
X116685714Y-96162180D01*
X117542857Y-95257419D02*
X117876190Y-96257419D01*
X117876190Y-96257419D02*
X118209523Y-95257419D01*
X128333333Y-88857419D02*
X128333333Y-87857419D01*
X128333333Y-87857419D02*
X128714285Y-87857419D01*
X128714285Y-87857419D02*
X128809523Y-87905038D01*
X128809523Y-87905038D02*
X128857142Y-87952657D01*
X128857142Y-87952657D02*
X128904761Y-88047895D01*
X128904761Y-88047895D02*
X128904761Y-88190752D01*
X128904761Y-88190752D02*
X128857142Y-88285990D01*
X128857142Y-88285990D02*
X128809523Y-88333609D01*
X128809523Y-88333609D02*
X128714285Y-88381228D01*
X128714285Y-88381228D02*
X128333333Y-88381228D01*
X129476190Y-88857419D02*
X129380952Y-88809800D01*
X129380952Y-88809800D02*
X129333333Y-88762180D01*
X129333333Y-88762180D02*
X129285714Y-88666942D01*
X129285714Y-88666942D02*
X129285714Y-88381228D01*
X129285714Y-88381228D02*
X129333333Y-88285990D01*
X129333333Y-88285990D02*
X129380952Y-88238371D01*
X129380952Y-88238371D02*
X129476190Y-88190752D01*
X129476190Y-88190752D02*
X129619047Y-88190752D01*
X129619047Y-88190752D02*
X129714285Y-88238371D01*
X129714285Y-88238371D02*
X129761904Y-88285990D01*
X129761904Y-88285990D02*
X129809523Y-88381228D01*
X129809523Y-88381228D02*
X129809523Y-88666942D01*
X129809523Y-88666942D02*
X129761904Y-88762180D01*
X129761904Y-88762180D02*
X129714285Y-88809800D01*
X129714285Y-88809800D02*
X129619047Y-88857419D01*
X129619047Y-88857419D02*
X129476190Y-88857419D01*
X130238095Y-88333609D02*
X130571428Y-88333609D01*
X130714285Y-88857419D02*
X130238095Y-88857419D01*
X130238095Y-88857419D02*
X130238095Y-87857419D01*
X130238095Y-87857419D02*
X130714285Y-87857419D01*
D14*
X105066666Y-93354819D02*
X105066666Y-94069104D01*
X105066666Y-94069104D02*
X105019047Y-94211961D01*
X105019047Y-94211961D02*
X104923809Y-94307200D01*
X104923809Y-94307200D02*
X104780952Y-94354819D01*
X104780952Y-94354819D02*
X104685714Y-94354819D01*
X105495238Y-93450057D02*
X105542857Y-93402438D01*
X105542857Y-93402438D02*
X105638095Y-93354819D01*
X105638095Y-93354819D02*
X105876190Y-93354819D01*
X105876190Y-93354819D02*
X105971428Y-93402438D01*
X105971428Y-93402438D02*
X106019047Y-93450057D01*
X106019047Y-93450057D02*
X106066666Y-93545295D01*
X106066666Y-93545295D02*
X106066666Y-93640533D01*
X106066666Y-93640533D02*
X106019047Y-93783390D01*
X106019047Y-93783390D02*
X105447619Y-94354819D01*
X105447619Y-94354819D02*
X106066666Y-94354819D01*
X113666666Y-83954819D02*
X113666666Y-84669104D01*
X113666666Y-84669104D02*
X113619047Y-84811961D01*
X113619047Y-84811961D02*
X113523809Y-84907200D01*
X113523809Y-84907200D02*
X113380952Y-84954819D01*
X113380952Y-84954819D02*
X113285714Y-84954819D01*
X114047619Y-83954819D02*
X114666666Y-83954819D01*
X114666666Y-83954819D02*
X114333333Y-84335771D01*
X114333333Y-84335771D02*
X114476190Y-84335771D01*
X114476190Y-84335771D02*
X114571428Y-84383390D01*
X114571428Y-84383390D02*
X114619047Y-84431009D01*
X114619047Y-84431009D02*
X114666666Y-84526247D01*
X114666666Y-84526247D02*
X114666666Y-84764342D01*
X114666666Y-84764342D02*
X114619047Y-84859580D01*
X114619047Y-84859580D02*
X114571428Y-84907200D01*
X114571428Y-84907200D02*
X114476190Y-84954819D01*
X114476190Y-84954819D02*
X114190476Y-84954819D01*
X114190476Y-84954819D02*
X114095238Y-84907200D01*
X114095238Y-84907200D02*
X114047619Y-84859580D01*
X92666666Y-80754819D02*
X92666666Y-81469104D01*
X92666666Y-81469104D02*
X92619047Y-81611961D01*
X92619047Y-81611961D02*
X92523809Y-81707200D01*
X92523809Y-81707200D02*
X92380952Y-81754819D01*
X92380952Y-81754819D02*
X92285714Y-81754819D01*
X93047619Y-80754819D02*
X93714285Y-80754819D01*
X93714285Y-80754819D02*
X93285714Y-81754819D01*
X98466666Y-80754819D02*
X98466666Y-81469104D01*
X98466666Y-81469104D02*
X98419047Y-81611961D01*
X98419047Y-81611961D02*
X98323809Y-81707200D01*
X98323809Y-81707200D02*
X98180952Y-81754819D01*
X98180952Y-81754819D02*
X98085714Y-81754819D01*
X99371428Y-80754819D02*
X99180952Y-80754819D01*
X99180952Y-80754819D02*
X99085714Y-80802438D01*
X99085714Y-80802438D02*
X99038095Y-80850057D01*
X99038095Y-80850057D02*
X98942857Y-80992914D01*
X98942857Y-80992914D02*
X98895238Y-81183390D01*
X98895238Y-81183390D02*
X98895238Y-81564342D01*
X98895238Y-81564342D02*
X98942857Y-81659580D01*
X98942857Y-81659580D02*
X98990476Y-81707200D01*
X98990476Y-81707200D02*
X99085714Y-81754819D01*
X99085714Y-81754819D02*
X99276190Y-81754819D01*
X99276190Y-81754819D02*
X99371428Y-81707200D01*
X99371428Y-81707200D02*
X99419047Y-81659580D01*
X99419047Y-81659580D02*
X99466666Y-81564342D01*
X99466666Y-81564342D02*
X99466666Y-81326247D01*
X99466666Y-81326247D02*
X99419047Y-81231009D01*
X99419047Y-81231009D02*
X99371428Y-81183390D01*
X99371428Y-81183390D02*
X99276190Y-81135771D01*
X99276190Y-81135771D02*
X99085714Y-81135771D01*
X99085714Y-81135771D02*
X98990476Y-81183390D01*
X98990476Y-81183390D02*
X98942857Y-81231009D01*
X98942857Y-81231009D02*
X98895238Y-81326247D01*
X113676336Y-96874894D02*
X113676336Y-97589179D01*
X113676336Y-97589179D02*
X113628717Y-97732036D01*
X113628717Y-97732036D02*
X113533479Y-97827275D01*
X113533479Y-97827275D02*
X113390622Y-97874894D01*
X113390622Y-97874894D02*
X113295384Y-97874894D01*
X114581098Y-97208227D02*
X114581098Y-97874894D01*
X114343003Y-96827275D02*
X114104908Y-97541560D01*
X114104908Y-97541560D02*
X114723955Y-97541560D01*
X126066666Y-87154819D02*
X126066666Y-87869104D01*
X126066666Y-87869104D02*
X126019047Y-88011961D01*
X126019047Y-88011961D02*
X125923809Y-88107200D01*
X125923809Y-88107200D02*
X125780952Y-88154819D01*
X125780952Y-88154819D02*
X125685714Y-88154819D01*
X127019047Y-87154819D02*
X126542857Y-87154819D01*
X126542857Y-87154819D02*
X126495238Y-87631009D01*
X126495238Y-87631009D02*
X126542857Y-87583390D01*
X126542857Y-87583390D02*
X126638095Y-87535771D01*
X126638095Y-87535771D02*
X126876190Y-87535771D01*
X126876190Y-87535771D02*
X126971428Y-87583390D01*
X126971428Y-87583390D02*
X127019047Y-87631009D01*
X127019047Y-87631009D02*
X127066666Y-87726247D01*
X127066666Y-87726247D02*
X127066666Y-87964342D01*
X127066666Y-87964342D02*
X127019047Y-88059580D01*
X127019047Y-88059580D02*
X126971428Y-88107200D01*
X126971428Y-88107200D02*
X126876190Y-88154819D01*
X126876190Y-88154819D02*
X126638095Y-88154819D01*
X126638095Y-88154819D02*
X126542857Y-88107200D01*
X126542857Y-88107200D02*
X126495238Y-88059580D01*
D13*
X110971428Y-88372371D02*
X110628571Y-88372371D01*
X110800000Y-88372371D02*
X110800000Y-87772371D01*
X110800000Y-87772371D02*
X110742857Y-87858085D01*
X110742857Y-87858085D02*
X110685714Y-87915228D01*
X110685714Y-87915228D02*
X110628571Y-87943800D01*
D14*
X83266666Y-90354819D02*
X83266666Y-91069104D01*
X83266666Y-91069104D02*
X83219047Y-91211961D01*
X83219047Y-91211961D02*
X83123809Y-91307200D01*
X83123809Y-91307200D02*
X82980952Y-91354819D01*
X82980952Y-91354819D02*
X82885714Y-91354819D01*
X84266666Y-91354819D02*
X83695238Y-91354819D01*
X83980952Y-91354819D02*
X83980952Y-90354819D01*
X83980952Y-90354819D02*
X83885714Y-90497676D01*
X83885714Y-90497676D02*
X83790476Y-90592914D01*
X83790476Y-90592914D02*
X83695238Y-90640533D01*
G04 #@! TO.C,R27*
D15*
X97765000Y-98477064D02*
X97765000Y-98022936D01*
X99235000Y-98477064D02*
X99235000Y-98022936D01*
G04 #@! TO.C,D1*
X106515628Y-84592625D02*
X106515628Y-86292625D01*
X106515628Y-84592625D02*
X109175628Y-84592625D01*
X106515628Y-86292625D02*
X109175628Y-86292625D01*
G04 #@! TO.C,R18*
X115846359Y-93620000D02*
X116153641Y-93620000D01*
X115846359Y-94380000D02*
X116153641Y-94380000D01*
G04 #@! TO.C,K1*
X115240000Y-87610000D02*
X119260000Y-87610000D01*
X115240000Y-87965000D02*
X115240000Y-87610000D01*
X115240000Y-91930000D02*
X115240000Y-91575000D01*
X119260000Y-87610000D02*
X119260000Y-87965000D01*
X119260000Y-91575000D02*
X119260000Y-91930000D01*
X119260000Y-91930000D02*
X115240000Y-91930000D01*
X120000000Y-90500000D02*
X119660000Y-90030000D01*
X120340000Y-90030000D01*
X120000000Y-90500000D01*
G36*
X120000000Y-90500000D02*
G01*
X119660000Y-90030000D01*
X120340000Y-90030000D01*
X120000000Y-90500000D01*
G37*
G04 #@! TO.C,C14*
X110309548Y-93765000D02*
X110832052Y-93765000D01*
X110309548Y-95235000D02*
X110832052Y-95235000D01*
G04 #@! TO.C,R10*
X112417159Y-96120000D02*
X112724441Y-96120000D01*
X112417159Y-96880000D02*
X112724441Y-96880000D01*
G04 #@! TO.C,R16*
X129015000Y-93610436D02*
X129015000Y-94064564D01*
X130485000Y-93610436D02*
X130485000Y-94064564D01*
G04 #@! TO.C,J2*
X102403200Y-87158200D02*
X103153200Y-87158200D01*
X102403200Y-96058200D02*
X102403200Y-87158200D01*
X102403200Y-101858200D02*
X102403200Y-98658200D01*
X102903200Y-101858200D02*
X102403200Y-101858200D01*
X102903200Y-104358200D02*
X102903200Y-101858200D01*
X106353200Y-87158200D02*
X108603200Y-87158200D01*
X108103200Y-101858200D02*
X108103200Y-104358200D01*
X108103200Y-104358200D02*
X102903200Y-104358200D01*
X108603200Y-87158200D02*
X108603200Y-88358200D01*
X108603200Y-91558200D02*
X108603200Y-98058200D01*
X108603200Y-98058200D02*
X110603200Y-98058200D01*
X108603200Y-100658200D02*
X108603200Y-101858200D01*
X108603200Y-100658200D02*
X110603200Y-100658200D01*
X108603200Y-101858200D02*
X108103200Y-101858200D01*
G04 #@! TO.C,J3*
X114238642Y-80628514D02*
X115568642Y-80628514D01*
X114238642Y-81958514D02*
X114238642Y-80628514D01*
X116838642Y-80628514D02*
X132138642Y-80628514D01*
X116838642Y-83288514D02*
X116838642Y-80628514D01*
X116838642Y-83288514D02*
X132138642Y-83288514D01*
X132138642Y-83288514D02*
X132138642Y-80628514D01*
G04 #@! TO.C,J7*
X81380000Y-80670000D02*
X82710000Y-80670000D01*
X81380000Y-82000000D02*
X81380000Y-80670000D01*
X83980000Y-80670000D02*
X91660000Y-80670000D01*
X83980000Y-83330000D02*
X83980000Y-80670000D01*
X83980000Y-83330000D02*
X91660000Y-83330000D01*
X91660000Y-83330000D02*
X91660000Y-80670000D01*
G04 #@! TO.C,U2*
X120885600Y-84277900D02*
X122705600Y-84277900D01*
X120885600Y-84327900D02*
X120885600Y-84277900D01*
X120885600Y-87397900D02*
X120885600Y-87347900D01*
X122705600Y-84277900D02*
X122705600Y-84327900D01*
X122705600Y-85447900D02*
X122705600Y-86227900D01*
X122705600Y-87347900D02*
X122705600Y-87397900D01*
X122705600Y-87397900D02*
X120885600Y-87397900D01*
X120345600Y-84327900D02*
X120105600Y-83997900D01*
X120585600Y-83997900D01*
X120345600Y-84327900D01*
G36*
X120345600Y-84327900D02*
G01*
X120105600Y-83997900D01*
X120585600Y-83997900D01*
X120345600Y-84327900D01*
G37*
G04 #@! TO.C,C15*
X110309548Y-95765000D02*
X110832052Y-95765000D01*
X110309548Y-97235000D02*
X110832052Y-97235000D01*
G04 #@! TO.C,J6*
X100110180Y-83394535D02*
X100110180Y-82014535D01*
X101490180Y-83394535D02*
X100110180Y-83394535D01*
X102760180Y-80634535D02*
X110490180Y-80634535D01*
X102760180Y-83394535D02*
X102760180Y-80634535D01*
X102760180Y-83394535D02*
X110490180Y-83394535D01*
X110490180Y-83394535D02*
X110490180Y-80634535D01*
G04 #@! TO.C,C21*
X124758564Y-84501400D02*
X124974236Y-84501400D01*
X124758564Y-85221400D02*
X124974236Y-85221400D01*
G04 #@! TO.C,R17*
X116846359Y-91870000D02*
X117153641Y-91870000D01*
X116846359Y-92630000D02*
X117153641Y-92630000D01*
G04 #@! TO.C,R13*
X101575718Y-85419746D02*
X101268436Y-85419746D01*
X101575718Y-86179746D02*
X101268436Y-86179746D01*
G04 #@! TO.C,C22*
X124733164Y-86381000D02*
X124948836Y-86381000D01*
X124733164Y-87101000D02*
X124948836Y-87101000D01*
G04 #@! TO.C,J4*
X114249670Y-98181875D02*
X115579670Y-98181875D01*
X114249670Y-99511875D02*
X114249670Y-98181875D01*
X116849670Y-98181875D02*
X132149670Y-98181875D01*
X116849670Y-100841875D02*
X116849670Y-98181875D01*
X116849670Y-100841875D02*
X132149670Y-100841875D01*
X132149670Y-100841875D02*
X132149670Y-98181875D01*
G04 #@! TO.C,J5*
X126275400Y-86597000D02*
X126275400Y-85217000D01*
X127655400Y-86597000D02*
X126275400Y-86597000D01*
X128925400Y-83837000D02*
X131575400Y-83837000D01*
X128925400Y-86597000D02*
X128925400Y-83837000D01*
X128925400Y-86597000D02*
X131575400Y-86597000D01*
X131575400Y-86597000D02*
X131575400Y-83837000D01*
G04 #@! TO.C,C19*
D14*
X120055869Y-86581258D02*
G75*
G02*
X109055869Y-86581258I-5500000J0D01*
G01*
X109055869Y-86581258D02*
G75*
G02*
X120055869Y-86581258I5500000J0D01*
G01*
G04 #@! TO.C,R11*
D15*
X101286211Y-84051076D02*
X101593493Y-84051076D01*
X101286211Y-84811076D02*
X101593493Y-84811076D01*
G04 #@! TO.C,R14*
X114346359Y-86870000D02*
X114653641Y-86870000D01*
X114346359Y-87630000D02*
X114653641Y-87630000D01*
G04 #@! TO.C,J1*
X73761000Y-82659600D02*
X72761000Y-82659600D01*
X73761000Y-82659600D02*
X73761000Y-79659600D01*
X73761000Y-98899600D02*
X72761000Y-98899600D01*
X73761000Y-101899600D02*
X73761000Y-98899600D01*
X76461000Y-78159600D02*
X83051000Y-78159600D01*
X76461000Y-79659600D02*
X73761000Y-79659600D01*
X76461000Y-79659600D02*
X76461000Y-78159600D01*
X76461000Y-101899600D02*
X73761000Y-101899600D01*
X76461000Y-103399600D02*
X76461000Y-101899600D01*
X76461000Y-103399600D02*
X83051000Y-103399600D01*
X83051000Y-78159600D02*
X83051000Y-79659600D01*
X83051000Y-79659600D02*
X88151000Y-79659600D01*
X83051000Y-101899600D02*
X83051000Y-103399600D01*
X83051000Y-101899600D02*
X88151000Y-101899600D01*
X88151000Y-79659600D02*
X88151000Y-82459600D01*
X88151000Y-82459600D02*
X94496000Y-82464600D01*
X88151000Y-99099600D02*
X93896000Y-99099600D01*
X88151000Y-101899600D02*
X88151000Y-99099600D01*
X96096000Y-99099600D02*
X101201000Y-99099600D01*
X96796000Y-82459600D02*
X101201000Y-82459600D01*
X101201000Y-89479600D02*
X101201000Y-82459600D01*
X101201000Y-99099600D02*
X101201000Y-92079600D01*
X72761000Y-98899600D02*
G75*
G02*
X72750399Y-82679370I15120000J8120000D01*
G01*
G04 #@! TO.C,R9*
X112417159Y-94120000D02*
X112724441Y-94120000D01*
X112417159Y-94880000D02*
X112724441Y-94880000D01*
G04 #@! TO.C,K2*
X122745307Y-91945059D02*
X126765307Y-91945059D01*
X122745307Y-92300059D02*
X122745307Y-91945059D01*
X122745307Y-96265059D02*
X122745307Y-95910059D01*
X126765307Y-91945059D02*
X126765307Y-92300059D01*
X126765307Y-95910059D02*
X126765307Y-96265059D01*
X126765307Y-96265059D02*
X122745307Y-96265059D01*
X122005307Y-93375059D02*
X122345307Y-93845059D01*
X121665307Y-93845059D01*
X122005307Y-93375059D01*
G36*
X122345307Y-93845059D02*
G01*
X121665307Y-93845059D01*
X122005307Y-93375059D01*
X122345307Y-93845059D01*
G37*
G04 #@! TD*
%LPC*%
D16*
G04 #@! TO.C,R27*
X98500000Y-99162500D03*
X98500000Y-97337500D03*
G04 #@! TD*
D17*
G04 #@! TO.C,D1*
X107075628Y-85442625D03*
X109175628Y-85442625D03*
G04 #@! TD*
D18*
G04 #@! TO.C,R18*
X115490000Y-94000000D03*
X116510000Y-94000000D03*
G04 #@! TD*
D19*
G04 #@! TO.C,K1*
X120000000Y-91040000D03*
X120000000Y-88500000D03*
X114500000Y-88500000D03*
X114500000Y-91040000D03*
G04 #@! TD*
D20*
G04 #@! TO.C,C14*
X109620800Y-94500000D03*
X111520800Y-94500000D03*
G04 #@! TD*
D18*
G04 #@! TO.C,R10*
X112060800Y-96500000D03*
X113080800Y-96500000D03*
G04 #@! TD*
D21*
G04 #@! TO.C,R16*
X129750000Y-92925000D03*
X129750000Y-94750000D03*
G04 #@! TD*
D22*
G04 #@! TO.C,J2*
X105503200Y-98258200D03*
X105503200Y-91258200D03*
D23*
X101803200Y-97358200D03*
X109203200Y-99358200D03*
D24*
X109203200Y-89958200D03*
D25*
X104753200Y-85958200D03*
G04 #@! TD*
D26*
G04 #@! TO.C,J3*
X115568642Y-81958514D03*
D22*
X118108642Y-81958514D03*
X120648642Y-81958514D03*
X123188642Y-81958514D03*
X125728642Y-81958514D03*
X128268642Y-81958514D03*
X130808642Y-81958514D03*
G04 #@! TD*
D26*
G04 #@! TO.C,J7*
X82710000Y-82000000D03*
D22*
X85250000Y-82000000D03*
X87790000Y-82000000D03*
X90330000Y-82000000D03*
G04 #@! TD*
D27*
G04 #@! TO.C,U2*
X120658100Y-84887900D03*
X120658100Y-85837900D03*
X120658100Y-86787900D03*
X122933100Y-86787900D03*
X122933100Y-84887900D03*
G04 #@! TD*
D20*
G04 #@! TO.C,C15*
X109620800Y-96500000D03*
X111520800Y-96500000D03*
G04 #@! TD*
D26*
G04 #@! TO.C,J6*
X101490180Y-82014535D03*
D22*
X104030180Y-82014535D03*
X106570180Y-82014535D03*
X109110180Y-82014535D03*
G04 #@! TD*
D28*
G04 #@! TO.C,C21*
X124386400Y-84861400D03*
X125346400Y-84861400D03*
G04 #@! TD*
D18*
G04 #@! TO.C,R17*
X116490000Y-92250000D03*
X117510000Y-92250000D03*
G04 #@! TD*
D29*
G04 #@! TO.C,R13*
X101932077Y-85799746D03*
X100912077Y-85799746D03*
G04 #@! TD*
D28*
G04 #@! TO.C,C22*
X124361000Y-86741000D03*
X125321000Y-86741000D03*
G04 #@! TD*
D26*
G04 #@! TO.C,J4*
X115579670Y-99511875D03*
D22*
X118119670Y-99511875D03*
X120659670Y-99511875D03*
X123199670Y-99511875D03*
X125739670Y-99511875D03*
X128279670Y-99511875D03*
X130819670Y-99511875D03*
G04 #@! TD*
D26*
G04 #@! TO.C,J5*
X127655400Y-85217000D03*
D22*
X130195400Y-85217000D03*
G04 #@! TD*
D30*
G04 #@! TO.C,C19*
X110805869Y-86581258D03*
X118305869Y-86581258D03*
G04 #@! TD*
D18*
G04 #@! TO.C,R11*
X100929852Y-84431076D03*
X101949852Y-84431076D03*
G04 #@! TD*
G04 #@! TO.C,R14*
X113990000Y-87250000D03*
X115010000Y-87250000D03*
G04 #@! TD*
D30*
G04 #@! TO.C,J1*
X86106000Y-90779600D03*
X82931000Y-96494600D03*
X82931000Y-85064600D03*
D31*
X94996000Y-97764600D03*
X95631000Y-83794600D03*
D32*
X100076000Y-90779600D03*
D33*
X83566000Y-99034600D03*
D32*
X99441000Y-87922100D03*
X99441000Y-93637100D03*
D34*
X92456000Y-95224600D03*
X92456000Y-86334600D03*
G04 #@! TD*
D18*
G04 #@! TO.C,R9*
X112060800Y-94500000D03*
X113080800Y-94500000D03*
G04 #@! TD*
D35*
G04 #@! TO.C,K2*
X122005307Y-92835059D03*
X122005307Y-95375059D03*
X127505307Y-95375059D03*
X127505307Y-92835059D03*
G04 #@! TD*
D36*
G04 #@! TO.C,SW1*
X125305993Y-90746504D03*
D30*
X127845993Y-90746504D03*
D36*
X130385993Y-90746504D03*
G04 #@! TD*
%LPD*%
M02*
