M48
; DRILL file KiCad 10.0.3 date 2026-06-24T15:19:14
; FORMAT={-:-/ absolute / metric / decimal}
; #@! TF.CreationDate,2026-06-24T15:19:14-07:00
; #@! TF.GenerationSoftware,Kicad,Pcbnew,10.0.3
; #@! TF.FileFunction,Plated,1,4,PTH
FMAT,2
METRIC
; #@! TA.AperFunction,Plated,PTH,ViaDrill
T1C0.300
; #@! TA.AperFunction,Plated,PTH,ComponentDrill
T2C0.800
; #@! TA.AperFunction,Plated,PTH,ComponentDrill
T3C0.900
; #@! TA.AperFunction,Plated,PTH,ComponentDrill
T4C1.000
; #@! TA.AperFunction,Plated,PTH,ComponentDrill
T5C1.200
; #@! TA.AperFunction,Plated,PTH,ComponentDrill
T6C1.600
%
G90
G05
T1
X85.979Y-82.067
X88.976Y-88.646
X92.659Y-83.307
X95.834Y-88.109
X95.834Y-95.194
X96.799Y-89.789
X97.003Y-86.258
X97.028Y-81.957
X97.079Y-91.669
X98.425Y-82.55
X99.466Y-84.074
X100.406Y-81.94
X101.676Y-87.935
X102.166Y-81.857
X102.416Y-84.074
X103.179Y-81.864
X105.029Y-87.96
X106.401Y-83.972
X106.451Y-81.915
X107.205Y-85.892
X107.34Y-88.341
X108.052Y-93.98
X108.052Y-95.529
X109.203Y-99.358
X110.16Y-84.433
X110.312Y-83.261
X111.264Y-88.643
X111.963Y-92.76
X112.003Y-88.771
X112.014Y-84.988
X112.081Y-89.517
X112.081Y-91.389
X112.417Y-90.597
X112.572Y-87.563
X112.654Y-86.228
X112.943Y-92.293
X113.081Y-94.513
X113.614Y-91.618
X113.691Y-89.121
X113.801Y-96.672
X113.842Y-93.446
X114.071Y-85.217
X114.303Y-97.443
X114.372Y-94.073
X114.805Y-95.539
X114.867Y-94.732
X114.992Y-96.577
X115.321Y-89.437
X116.273Y-92.287
X117.119Y-94.673
X117.272Y-96.545
X117.318Y-89.806
X117.704Y-90.449
X117.729Y-93.828
X118.542Y-93.811
X118.651Y-91.575
X118.98Y-84.5
X119.11Y-88.594
X119.182Y-92.323
X119.355Y-98.171
X119.641Y-90.849
X119.659Y-89.806
X119.71Y-92.973
X119.736Y-95.885
X120.68Y-86.882
X121.006Y-95.834
X121.405Y-84.612
X121.919Y-93.76
X122.041Y-88.322
X122.928Y-86.038
X122.936Y-85.05
X123.02Y-91.694
X123.351Y-95.773
X123.596Y-88.621
X123.596Y-92.507
X123.608Y-93.671
X123.723Y-97.917
X123.758Y-87.512
X124.028Y-89.967
X124.386Y-84.861
X124.798Y-94.31
X125.137Y-96.647
X125.171Y-93.091
X125.375Y-95.883
X126.467Y-98.831
X126.975Y-86.893
X127.0Y-83.21
X127.344Y-91.169
X127.508Y-95.148
X130.073Y-87.198
X130.146Y-97.561
T2
X110.795Y-86.208
X118.295Y-86.208
T3
X125.4Y-89.967
X127.94Y-89.967
X130.48Y-89.967
T4
X115.57Y-81.915
X115.57Y-99.492
X118.11Y-81.915
X118.11Y-99.492
X120.65Y-81.915
X120.65Y-99.492
X123.19Y-81.915
X123.19Y-99.492
X125.73Y-81.915
X125.73Y-99.492
X127.554Y-93.193
X128.27Y-81.915
X128.27Y-99.492
X130.094Y-93.193
X130.81Y-81.915
X130.81Y-99.492
T5
X94.996Y-97.765
X95.631Y-83.795
X99.441Y-87.922
X99.441Y-93.637
X100.076Y-90.78
T6
X83.566Y-99.035
X92.456Y-86.335
X92.456Y-95.225
M30
