G04 #@! TF.GenerationSoftware,KiCad,Pcbnew,10.0.3*
G04 #@! TF.CreationDate,2026-07-08T22:23:12-07:00*
G04 #@! TF.ProjectId,scramble_hat,73637261-6d62-46c6-955f-6861742e6b69,rev?*
G04 #@! TF.SameCoordinates,Original*
G04 #@! TF.FileFunction,Copper,L3,Inr*
G04 #@! TF.FilePolarity,Positive*
%FSLAX46Y46*%
G04 Gerber Fmt 4.6, Leading zero omitted, Abs format (unit mm)*
G04 Created by KiCad (PCBNEW 10.0.3) date 2026-07-08 22:23:12*
%MOMM*%
%LPD*%
G01*
G04 APERTURE LIST*
G04 #@! TA.AperFunction,ComponentPad*
%ADD10R,1.700000X1.700000*%
G04 #@! TD*
G04 #@! TA.AperFunction,ComponentPad*
%ADD11C,1.700000*%
G04 #@! TD*
G04 #@! TA.AperFunction,ComponentPad*
%ADD12C,1.600000*%
G04 #@! TD*
G04 #@! TA.AperFunction,ComponentPad*
%ADD13C,2.900000*%
G04 #@! TD*
G04 #@! TA.AperFunction,ComponentPad*
%ADD14C,2.700000*%
G04 #@! TD*
G04 #@! TA.AperFunction,ComponentPad*
%ADD15C,3.200000*%
G04 #@! TD*
G04 #@! TA.AperFunction,ComponentPad*
%ADD16C,3.400000*%
G04 #@! TD*
G04 #@! TA.AperFunction,ComponentPad*
%ADD17O,1.600000X1.600000*%
G04 #@! TD*
G04 #@! TA.AperFunction,ViaPad*
%ADD18C,0.600000*%
G04 #@! TD*
G04 APERTURE END LIST*
D10*
G04 #@! TO.N,ASDOUT*
G04 #@! TO.C,J3*
X115570000Y-81915000D03*
D11*
G04 #@! TO.N,LRCK*
X118110000Y-81915000D03*
G04 #@! TO.N,AGND*
X120650000Y-81915000D03*
G04 #@! TO.N,DSDIN*
X123190000Y-81915000D03*
G04 #@! TO.N,BCLK*
X125730000Y-81915000D03*
G04 #@! TO.N,MCLK*
X128270000Y-81915000D03*
G04 #@! TO.N,PHANTOM_EN*
X130810000Y-81915000D03*
G04 #@! TD*
D10*
G04 #@! TO.N,+5V*
G04 #@! TO.C,J4*
X115570000Y-99491800D03*
D11*
G04 #@! TO.N,unconnected-(J4-Pin_2-Pad2)*
X118110000Y-99491800D03*
G04 #@! TO.N,AGND*
X120650000Y-99491800D03*
G04 #@! TO.N,unconnected-(J4-Pin_4-Pad4)*
X123190000Y-99491800D03*
G04 #@! TO.N,+3V3*
X125730000Y-99491800D03*
G04 #@! TO.N,SCL*
X128270000Y-99491800D03*
G04 #@! TO.N,SDA*
X130810000Y-99491800D03*
G04 #@! TD*
D10*
G04 #@! TO.N,V_PoE*
G04 #@! TO.C,J5*
X127553800Y-93192600D03*
D11*
G04 #@! TO.N,PGND*
X130093800Y-93192600D03*
G04 #@! TD*
D12*
G04 #@! TO.N,PGND*
G04 #@! TO.C,C19*
X110794800Y-86207600D03*
G04 #@! TO.N,AGND*
X118294800Y-86207600D03*
G04 #@! TD*
D13*
G04 #@! TO.N,PGND*
G04 #@! TO.C,J1*
X94996000Y-97764600D03*
G04 #@! TO.N,XLR2_HOT*
X95631000Y-83794600D03*
D14*
G04 #@! TO.N,XLR3_COLD*
X100076000Y-90779600D03*
D15*
G04 #@! TO.N,PGND*
X83566000Y-99034600D03*
D14*
G04 #@! TO.N,unconnected-(J1-JACK_R-PadR)*
X99441000Y-87922100D03*
G04 #@! TO.N,PGND*
X99441000Y-93637100D03*
D16*
G04 #@! TO.N,unconnected-(J1-JACK_T-PadT)*
X92456000Y-95224600D03*
X92456000Y-86334600D03*
G04 #@! TD*
D17*
G04 #@! TO.N,+3V3*
G04 #@! TO.C,SW1*
X125399800Y-89966800D03*
D12*
G04 #@! TO.N,PHANTOM_SW*
X127939800Y-89966800D03*
D17*
G04 #@! TO.N,AGND*
X130479800Y-89966800D03*
G04 #@! TD*
D18*
G04 #@! TO.N,V_PoE*
X127343919Y-91168998D03*
G04 #@! TO.N,V_FILT*
X98221800Y-83743800D03*
X103532400Y-81864200D03*
X97002600Y-86258400D03*
X113691365Y-89120761D03*
X106451400Y-81915000D03*
X97078800Y-91668600D03*
X110159800Y-84433200D03*
G04 #@! TO.N,MIC1N*
X112081400Y-89516617D03*
X106899814Y-85157414D03*
X117317727Y-89806278D03*
G04 #@! TO.N,AGND*
X122041000Y-88321800D03*
X117729000Y-93827600D03*
X113614200Y-91617800D03*
X122928284Y-86037902D03*
X123596400Y-88620600D03*
X119109986Y-88594149D03*
X127000000Y-83210400D03*
X116273000Y-92287000D03*
X123757600Y-87511800D03*
X113715800Y-85217000D03*
X118980000Y-84500000D03*
X113800800Y-96672400D03*
X107721400Y-85826600D03*
X121005600Y-95834200D03*
X123351201Y-95772636D03*
G04 #@! TO.N,ROUTP*
X114372087Y-94072800D03*
G04 #@! TO.N,V_PHANTOM*
X110312200Y-83261200D03*
X97028000Y-81957000D03*
X100406200Y-81940400D03*
G04 #@! TO.N,PHANTOM_LED*
X130073400Y-87198200D03*
G04 #@! TO.N,MIC2_RAW*
X109203200Y-99358200D03*
X117271800Y-96545400D03*
G04 #@! TO.N,ASDOUT*
X114866961Y-94732113D03*
X127508000Y-95148400D03*
X114302909Y-97443200D03*
G04 #@! TO.N,LRCK*
X114805437Y-95538530D03*
X121919220Y-93760201D03*
G04 #@! TO.N,DSDIN*
X114992064Y-96576720D03*
X124798000Y-94310200D03*
G04 #@! TO.N,BCLK*
X125171200Y-93091000D03*
X117119400Y-94673000D03*
G04 #@! TO.N,MCLK*
X119354600Y-98171000D03*
X119735600Y-95885000D03*
X123723400Y-97917000D03*
G04 #@! TO.N,+5V*
X123607791Y-93670774D03*
X120680029Y-86881584D03*
X124386400Y-84861400D03*
X121405092Y-84612181D03*
G04 #@! TO.N,+3V3_A*
X122936000Y-85050000D03*
G04 #@! TO.N,OK1_COLLECTOR*
X101701600Y-84988400D03*
G04 #@! TO.N,Q1_GATE*
X96799400Y-89789000D03*
X102430079Y-81908023D03*
X114486600Y-86360000D03*
X115747800Y-85344000D03*
G04 #@! TO.N,+3V3*
X123020000Y-91694000D03*
X126466600Y-98831400D03*
X118541800Y-93811000D03*
X130145600Y-97561400D03*
G04 #@! TO.N,SCL*
X125137000Y-96647000D03*
X119181543Y-92322732D03*
G04 #@! TO.N,SDA*
X118650750Y-91575000D03*
X125374722Y-95882923D03*
G04 #@! TO.N,PGND*
X88976200Y-88646000D03*
X85979000Y-82067400D03*
X112014000Y-84988400D03*
X100542000Y-84056509D03*
X126974600Y-86893400D03*
G04 #@! TO.N,XLR2_HOT*
X95834200Y-88108800D03*
G04 #@! TO.N,XLR3_COLD*
X92659200Y-83307000D03*
G04 #@! TO.N,LOUTP*
X113080800Y-94513400D03*
G04 #@! TO.N,OK1_LED_A*
X105029000Y-87960200D03*
X107340400Y-88341200D03*
G04 #@! TO.N,DACVREF*
X123596400Y-92506800D03*
X113841755Y-93445555D03*
G04 #@! TO.N,MIC1P*
X117703600Y-90449400D03*
X112416502Y-90596703D03*
X95834200Y-95194200D03*
X108051600Y-93980000D03*
G04 #@! TO.N,ADCVREF*
X115548000Y-89594600D03*
X119659400Y-89805600D03*
G04 #@! TO.N,PHANTOM_SW*
X112081400Y-91389200D03*
G04 #@! TO.N,AD0*
X119640810Y-90848990D03*
X124028200Y-89966800D03*
G04 #@! TO.N,VMID*
X112943450Y-92293250D03*
X119710200Y-92972800D03*
G04 #@! TO.N,MIC2P*
X108051600Y-95529400D03*
X111264092Y-88643489D03*
G04 #@! TO.N,MIC2N*
X111962600Y-92760200D03*
X112003227Y-88770701D03*
G04 #@! TD*
G04 #@! TA.AperFunction,Conductor*
G04 #@! TO.N,+3V3*
G36*
X130405228Y-80734763D02*
G01*
X130451021Y-80787534D01*
X130461016Y-80856685D01*
X130432038Y-80920262D01*
X130385719Y-80953688D01*
X130312406Y-80984056D01*
X130140342Y-81099024D01*
X129994024Y-81245342D01*
X129879058Y-81417403D01*
X129799870Y-81608579D01*
X129799868Y-81608587D01*
X129759500Y-81811530D01*
X129759500Y-82018469D01*
X129799868Y-82221412D01*
X129799870Y-82221420D01*
X129879058Y-82412596D01*
X129994024Y-82584657D01*
X130140342Y-82730975D01*
X130140345Y-82730977D01*
X130312402Y-82845941D01*
X130503580Y-82925130D01*
X130648052Y-82953867D01*
X130706530Y-82965499D01*
X130706534Y-82965500D01*
X130706535Y-82965500D01*
X130913466Y-82965500D01*
X130913467Y-82965499D01*
X131116420Y-82925130D01*
X131307598Y-82845941D01*
X131479655Y-82730977D01*
X131500732Y-82709900D01*
X131571019Y-82639614D01*
X131632342Y-82606129D01*
X131702034Y-82611113D01*
X131757967Y-82652985D01*
X131782384Y-82718449D01*
X131782700Y-82727295D01*
X131782700Y-98679505D01*
X131763015Y-98746544D01*
X131710211Y-98792299D01*
X131641053Y-98802243D01*
X131577497Y-98773218D01*
X131571019Y-98767186D01*
X131479657Y-98675824D01*
X131311655Y-98563570D01*
X131307598Y-98560859D01*
X131231169Y-98529201D01*
X131116420Y-98481670D01*
X131116412Y-98481668D01*
X130913469Y-98441300D01*
X130913465Y-98441300D01*
X130706535Y-98441300D01*
X130706530Y-98441300D01*
X130503587Y-98481668D01*
X130503579Y-98481670D01*
X130312403Y-98560858D01*
X130140342Y-98675824D01*
X129994024Y-98822142D01*
X129879058Y-98994203D01*
X129799870Y-99185379D01*
X129799868Y-99185387D01*
X129759500Y-99388330D01*
X129759500Y-99595269D01*
X129799868Y-99798212D01*
X129799870Y-99798220D01*
X129874925Y-99979419D01*
X129879059Y-99989398D01*
X129892836Y-100010017D01*
X129994024Y-100161457D01*
X130140342Y-100307775D01*
X130140345Y-100307777D01*
X130312402Y-100422741D01*
X130503580Y-100501930D01*
X130592841Y-100519685D01*
X130610879Y-100523273D01*
X130672790Y-100555657D01*
X130707364Y-100616373D01*
X130703625Y-100686142D01*
X130662759Y-100742815D01*
X130597741Y-100768396D01*
X130586658Y-100768890D01*
X128495815Y-100768386D01*
X128428780Y-100748685D01*
X128383038Y-100695870D01*
X128373111Y-100626709D01*
X128402152Y-100563161D01*
X128460939Y-100525400D01*
X128471635Y-100522772D01*
X128576420Y-100501930D01*
X128767598Y-100422741D01*
X128939655Y-100307777D01*
X129085977Y-100161455D01*
X129200941Y-99989398D01*
X129280130Y-99798220D01*
X129320500Y-99595265D01*
X129320500Y-99388335D01*
X129280130Y-99185380D01*
X129200941Y-98994202D01*
X129085977Y-98822145D01*
X129085975Y-98822142D01*
X128939657Y-98675824D01*
X128771655Y-98563570D01*
X128767598Y-98560859D01*
X128691169Y-98529201D01*
X128576420Y-98481670D01*
X128576412Y-98481668D01*
X128373469Y-98441300D01*
X128373465Y-98441300D01*
X128166535Y-98441300D01*
X128166530Y-98441300D01*
X127963587Y-98481668D01*
X127963579Y-98481670D01*
X127772403Y-98560858D01*
X127600342Y-98675824D01*
X127454024Y-98822142D01*
X127339057Y-98994203D01*
X127270835Y-99158908D01*
X127226994Y-99213311D01*
X127160700Y-99235376D01*
X127093000Y-99218097D01*
X127045390Y-99166959D01*
X127038343Y-99149773D01*
X126981095Y-98973582D01*
X126884624Y-98784249D01*
X126845270Y-98730082D01*
X126845269Y-98730082D01*
X126212962Y-99362390D01*
X126195925Y-99298807D01*
X126130099Y-99184793D01*
X126037007Y-99091701D01*
X125922993Y-99025875D01*
X125859409Y-99008837D01*
X126491716Y-98376528D01*
X126437550Y-98337175D01*
X126248217Y-98240704D01*
X126046129Y-98175042D01*
X125836246Y-98141800D01*
X125623754Y-98141800D01*
X125413872Y-98175042D01*
X125413869Y-98175042D01*
X125211782Y-98240704D01*
X125022439Y-98337180D01*
X124968282Y-98376527D01*
X124968282Y-98376528D01*
X125600591Y-99008837D01*
X125537007Y-99025875D01*
X125422993Y-99091701D01*
X125329901Y-99184793D01*
X125264075Y-99298807D01*
X125247037Y-99362391D01*
X124614728Y-98730082D01*
X124614727Y-98730082D01*
X124575380Y-98784239D01*
X124478905Y-98973581D01*
X124421656Y-99149774D01*
X124382218Y-99207449D01*
X124317859Y-99234647D01*
X124249013Y-99222732D01*
X124197537Y-99175488D01*
X124189164Y-99158907D01*
X124187806Y-99155629D01*
X124161327Y-99091701D01*
X124120943Y-98994205D01*
X124005975Y-98822142D01*
X123859658Y-98675825D01*
X123859654Y-98675822D01*
X123791117Y-98630027D01*
X123746312Y-98576415D01*
X123737605Y-98507090D01*
X123767759Y-98444062D01*
X123827202Y-98407343D01*
X123827565Y-98407244D01*
X123916586Y-98383392D01*
X124030714Y-98317500D01*
X124123900Y-98224314D01*
X124189792Y-98110186D01*
X124223900Y-97982892D01*
X124223900Y-97851108D01*
X124189792Y-97723814D01*
X124123900Y-97609686D01*
X124030714Y-97516500D01*
X123973650Y-97483554D01*
X123916587Y-97450608D01*
X123852939Y-97433554D01*
X123789292Y-97416500D01*
X123657508Y-97416500D01*
X123530212Y-97450608D01*
X123416086Y-97516500D01*
X123416083Y-97516502D01*
X123322902Y-97609683D01*
X123322900Y-97609686D01*
X123257008Y-97723812D01*
X123222900Y-97851108D01*
X123222900Y-97982891D01*
X123257008Y-98110187D01*
X123275260Y-98141800D01*
X123322900Y-98224314D01*
X123322902Y-98224316D01*
X123328205Y-98229619D01*
X123361690Y-98290942D01*
X123356706Y-98360634D01*
X123314834Y-98416567D01*
X123249370Y-98440984D01*
X123240524Y-98441300D01*
X123086530Y-98441300D01*
X122883587Y-98481668D01*
X122883579Y-98481670D01*
X122692403Y-98560858D01*
X122520342Y-98675824D01*
X122374024Y-98822142D01*
X122259058Y-98994203D01*
X122179870Y-99185379D01*
X122179868Y-99185387D01*
X122139500Y-99388330D01*
X122139500Y-99595269D01*
X122179868Y-99798212D01*
X122179870Y-99798220D01*
X122254925Y-99979419D01*
X122259059Y-99989398D01*
X122272836Y-100010017D01*
X122374024Y-100161457D01*
X122520342Y-100307775D01*
X122520345Y-100307777D01*
X122692402Y-100422741D01*
X122883580Y-100501930D01*
X122934052Y-100511969D01*
X122981632Y-100521434D01*
X123043543Y-100553818D01*
X123078117Y-100614534D01*
X123074378Y-100684304D01*
X123033512Y-100740976D01*
X122968494Y-100766557D01*
X122957411Y-100767051D01*
X120885040Y-100766551D01*
X120818005Y-100746850D01*
X120772263Y-100694035D01*
X120762336Y-100624874D01*
X120791377Y-100561326D01*
X120850164Y-100523565D01*
X120860859Y-100520938D01*
X120956420Y-100501930D01*
X121147598Y-100422741D01*
X121319655Y-100307777D01*
X121465977Y-100161455D01*
X121580941Y-99989398D01*
X121660130Y-99798220D01*
X121700500Y-99595265D01*
X121700500Y-99388335D01*
X121660130Y-99185380D01*
X121580941Y-98994202D01*
X121465977Y-98822145D01*
X121465975Y-98822142D01*
X121319657Y-98675824D01*
X121151655Y-98563570D01*
X121147598Y-98560859D01*
X121071169Y-98529201D01*
X120956420Y-98481670D01*
X120956412Y-98481668D01*
X120753469Y-98441300D01*
X120753465Y-98441300D01*
X120546535Y-98441300D01*
X120546530Y-98441300D01*
X120343587Y-98481668D01*
X120343579Y-98481670D01*
X120152403Y-98560858D01*
X119980342Y-98675824D01*
X119834024Y-98822142D01*
X119719058Y-98994203D01*
X119639870Y-99185379D01*
X119639868Y-99185387D01*
X119599500Y-99388330D01*
X119599500Y-99595269D01*
X119639868Y-99798212D01*
X119639870Y-99798220D01*
X119714925Y-99979419D01*
X119719059Y-99989398D01*
X119732836Y-100010017D01*
X119834024Y-100161457D01*
X119980342Y-100307775D01*
X119980345Y-100307777D01*
X120152402Y-100422741D01*
X120343580Y-100501930D01*
X120380655Y-100509304D01*
X120438549Y-100520821D01*
X120500460Y-100553206D01*
X120535034Y-100613921D01*
X120531295Y-100683691D01*
X120490428Y-100740363D01*
X120425410Y-100765944D01*
X120414328Y-100766438D01*
X118348115Y-100765939D01*
X118281080Y-100746238D01*
X118235338Y-100693423D01*
X118225411Y-100624262D01*
X118254452Y-100560714D01*
X118313239Y-100522953D01*
X118323926Y-100520327D01*
X118416420Y-100501930D01*
X118607598Y-100422741D01*
X118779655Y-100307777D01*
X118925977Y-100161455D01*
X119040941Y-99989398D01*
X119120130Y-99798220D01*
X119160500Y-99595265D01*
X119160500Y-99388335D01*
X119120130Y-99185380D01*
X119040941Y-98994202D01*
X118925977Y-98822145D01*
X118925975Y-98822142D01*
X118779657Y-98675824D01*
X118611655Y-98563570D01*
X118607598Y-98560859D01*
X118531169Y-98529201D01*
X118416420Y-98481670D01*
X118416412Y-98481668D01*
X118213469Y-98441300D01*
X118213465Y-98441300D01*
X118006535Y-98441300D01*
X118006530Y-98441300D01*
X117803587Y-98481668D01*
X117803579Y-98481670D01*
X117612403Y-98560858D01*
X117440342Y-98675824D01*
X117294024Y-98822142D01*
X117179058Y-98994203D01*
X117099870Y-99185379D01*
X117099868Y-99185387D01*
X117059500Y-99388330D01*
X117059500Y-99595269D01*
X117099868Y-99798212D01*
X117099870Y-99798220D01*
X117174925Y-99979419D01*
X117179059Y-99989398D01*
X117192836Y-100010017D01*
X117294024Y-100161457D01*
X117440342Y-100307775D01*
X117440345Y-100307777D01*
X117612402Y-100422741D01*
X117803580Y-100501930D01*
X117895469Y-100520207D01*
X117957377Y-100552591D01*
X117991952Y-100613306D01*
X117988213Y-100683076D01*
X117947347Y-100739748D01*
X117882329Y-100765330D01*
X117871246Y-100765824D01*
X116554636Y-100765507D01*
X116487601Y-100745806D01*
X116441859Y-100692991D01*
X116431932Y-100623830D01*
X116460973Y-100560282D01*
X116489562Y-100539675D01*
X116488077Y-100537452D01*
X116564552Y-100486352D01*
X116607056Y-100422741D01*
X116608867Y-100420031D01*
X116608867Y-100420029D01*
X116608868Y-100420029D01*
X116620499Y-100361552D01*
X116620500Y-100361550D01*
X116620500Y-98622049D01*
X116620499Y-98622047D01*
X116608868Y-98563570D01*
X116608867Y-98563569D01*
X116564552Y-98497247D01*
X116498230Y-98452932D01*
X116498229Y-98452931D01*
X116439752Y-98441300D01*
X116439748Y-98441300D01*
X114700252Y-98441300D01*
X114700247Y-98441300D01*
X114641770Y-98452931D01*
X114641769Y-98452932D01*
X114575447Y-98497247D01*
X114531132Y-98563569D01*
X114531131Y-98563570D01*
X114519500Y-98622047D01*
X114519500Y-100361552D01*
X114531131Y-100420029D01*
X114531132Y-100420030D01*
X114575447Y-100486352D01*
X114651923Y-100537452D01*
X114649592Y-100540939D01*
X114686042Y-100570312D01*
X114708107Y-100636606D01*
X114690828Y-100704305D01*
X114639691Y-100751916D01*
X114584156Y-100765032D01*
X114130473Y-100764922D01*
X114063438Y-100745221D01*
X114017696Y-100692406D01*
X114007769Y-100623245D01*
X114020016Y-100584633D01*
X114132241Y-100364379D01*
X114210090Y-100124785D01*
X114249500Y-99875962D01*
X114249500Y-99624038D01*
X114210090Y-99375215D01*
X114132241Y-99135621D01*
X114132239Y-99135618D01*
X114132239Y-99135616D01*
X114090747Y-99054184D01*
X114017870Y-98911155D01*
X113953201Y-98822145D01*
X113869798Y-98707350D01*
X113869794Y-98707345D01*
X113691654Y-98529205D01*
X113691649Y-98529201D01*
X113487848Y-98381132D01*
X113487847Y-98381131D01*
X113487845Y-98381130D01*
X113401588Y-98337180D01*
X113263383Y-98266760D01*
X113103811Y-98214912D01*
X113085681Y-98209021D01*
X113028006Y-98169583D01*
X113000808Y-98105224D01*
X113000801Y-98105108D01*
X118854100Y-98105108D01*
X118854100Y-98236892D01*
X118862103Y-98266759D01*
X118888208Y-98364187D01*
X118913013Y-98407150D01*
X118954100Y-98478314D01*
X119047286Y-98571500D01*
X119161414Y-98637392D01*
X119288708Y-98671500D01*
X119288710Y-98671500D01*
X119420490Y-98671500D01*
X119420492Y-98671500D01*
X119547786Y-98637392D01*
X119661914Y-98571500D01*
X119755100Y-98478314D01*
X119820992Y-98364186D01*
X119855100Y-98236892D01*
X119855100Y-98105108D01*
X119820992Y-97977814D01*
X119755100Y-97863686D01*
X119661914Y-97770500D01*
X119581052Y-97723814D01*
X119547787Y-97704608D01*
X119484139Y-97687554D01*
X119420492Y-97670500D01*
X119288708Y-97670500D01*
X119161412Y-97704608D01*
X119047286Y-97770500D01*
X119047283Y-97770502D01*
X118954102Y-97863683D01*
X118954100Y-97863686D01*
X118888208Y-97977812D01*
X118886847Y-97982892D01*
X118854100Y-98105108D01*
X113000801Y-98105108D01*
X113000000Y-98091090D01*
X113000000Y-96606508D01*
X113300300Y-96606508D01*
X113300300Y-96738291D01*
X113334408Y-96865587D01*
X113345058Y-96884033D01*
X113400300Y-96979714D01*
X113493486Y-97072900D01*
X113607614Y-97138792D01*
X113729216Y-97171374D01*
X113788874Y-97207737D01*
X113819404Y-97270584D01*
X113816896Y-97323240D01*
X113802409Y-97377306D01*
X113802409Y-97377308D01*
X113802409Y-97509092D01*
X113819463Y-97572739D01*
X113836517Y-97636387D01*
X113856213Y-97670500D01*
X113902409Y-97750514D01*
X113995595Y-97843700D01*
X114109723Y-97909592D01*
X114237017Y-97943700D01*
X114237019Y-97943700D01*
X114368799Y-97943700D01*
X114368801Y-97943700D01*
X114496095Y-97909592D01*
X114610223Y-97843700D01*
X114703409Y-97750514D01*
X114769301Y-97636386D01*
X114803409Y-97509092D01*
X114803409Y-97377308D01*
X114769301Y-97250014D01*
X114769298Y-97250009D01*
X114766189Y-97242500D01*
X114768918Y-97241369D01*
X114755778Y-97187246D01*
X114778619Y-97121215D01*
X114833533Y-97078015D01*
X114903085Y-97071362D01*
X114911717Y-97073347D01*
X114926172Y-97077220D01*
X114926174Y-97077220D01*
X115057954Y-97077220D01*
X115057956Y-97077220D01*
X115185250Y-97043112D01*
X115299378Y-96977220D01*
X115392564Y-96884034D01*
X115458456Y-96769906D01*
X115492564Y-96642612D01*
X115492564Y-96510828D01*
X115484172Y-96479508D01*
X116771300Y-96479508D01*
X116771300Y-96611291D01*
X116805408Y-96738587D01*
X116823491Y-96769907D01*
X116871300Y-96852714D01*
X116964486Y-96945900D01*
X117078614Y-97011792D01*
X117205908Y-97045900D01*
X117205910Y-97045900D01*
X117337690Y-97045900D01*
X117337692Y-97045900D01*
X117464986Y-97011792D01*
X117579114Y-96945900D01*
X117672300Y-96852714D01*
X117738192Y-96738586D01*
X117772300Y-96611292D01*
X117772300Y-96581108D01*
X124636500Y-96581108D01*
X124636500Y-96712891D01*
X124670608Y-96840187D01*
X124685273Y-96865587D01*
X124736500Y-96954314D01*
X124829686Y-97047500D01*
X124943814Y-97113392D01*
X125071108Y-97147500D01*
X125071110Y-97147500D01*
X125202890Y-97147500D01*
X125202892Y-97147500D01*
X125330186Y-97113392D01*
X125444314Y-97047500D01*
X125537500Y-96954314D01*
X125603392Y-96840186D01*
X125637500Y-96712892D01*
X125637500Y-96581108D01*
X125603392Y-96453814D01*
X125603390Y-96453810D01*
X125603226Y-96453413D01*
X125603187Y-96453050D01*
X125601288Y-96445963D01*
X125602393Y-96445666D01*
X125595759Y-96383944D01*
X125627035Y-96321465D01*
X125655783Y-96298579D01*
X125682036Y-96283423D01*
X125775222Y-96190237D01*
X125841114Y-96076109D01*
X125875222Y-95948815D01*
X125875222Y-95817031D01*
X125841114Y-95689737D01*
X125775222Y-95575609D01*
X125682036Y-95482423D01*
X125597646Y-95433700D01*
X125567909Y-95416531D01*
X125504261Y-95399477D01*
X125440614Y-95382423D01*
X125308830Y-95382423D01*
X125181534Y-95416531D01*
X125067408Y-95482423D01*
X125067405Y-95482425D01*
X124974224Y-95575606D01*
X124974222Y-95575609D01*
X124908330Y-95689735D01*
X124880855Y-95792275D01*
X124874222Y-95817031D01*
X124874222Y-95948815D01*
X124905648Y-96066101D01*
X124908331Y-96076111D01*
X124908496Y-96076510D01*
X124908534Y-96076872D01*
X124910434Y-96083960D01*
X124909328Y-96084256D01*
X124915962Y-96145979D01*
X124884685Y-96208457D01*
X124855936Y-96231343D01*
X124829692Y-96246495D01*
X124829683Y-96246502D01*
X124736502Y-96339683D01*
X124736500Y-96339686D01*
X124670608Y-96453812D01*
X124636500Y-96581108D01*
X117772300Y-96581108D01*
X117772300Y-96479508D01*
X117738192Y-96352214D01*
X117737717Y-96351392D01*
X117708387Y-96300591D01*
X117672300Y-96238086D01*
X117579114Y-96144900D01*
X117510726Y-96105416D01*
X117464987Y-96079008D01*
X117401339Y-96061954D01*
X117337692Y-96044900D01*
X117205908Y-96044900D01*
X117078612Y-96079008D01*
X116964486Y-96144900D01*
X116964483Y-96144902D01*
X116871302Y-96238083D01*
X116871300Y-96238086D01*
X116805408Y-96352212D01*
X116771300Y-96479508D01*
X115484172Y-96479508D01*
X115458456Y-96383534D01*
X115392564Y-96269406D01*
X115299378Y-96176220D01*
X115185250Y-96110328D01*
X115185247Y-96110326D01*
X115184314Y-96109940D01*
X115183646Y-96109402D01*
X115178211Y-96106264D01*
X115178700Y-96105416D01*
X115129910Y-96066101D01*
X115107843Y-95999807D01*
X115125120Y-95932107D01*
X115132354Y-95921259D01*
X115137722Y-95914058D01*
X115205937Y-95845844D01*
X115221373Y-95819108D01*
X119235100Y-95819108D01*
X119235100Y-95950892D01*
X119239101Y-95965823D01*
X119269208Y-96078187D01*
X119287541Y-96109940D01*
X119335100Y-96192314D01*
X119428286Y-96285500D01*
X119522139Y-96339686D01*
X119538816Y-96349315D01*
X119542414Y-96351392D01*
X119669708Y-96385500D01*
X119669710Y-96385500D01*
X119801490Y-96385500D01*
X119801492Y-96385500D01*
X119928786Y-96351392D01*
X120042914Y-96285500D01*
X120136100Y-96192314D01*
X120201992Y-96078186D01*
X120236100Y-95950892D01*
X120236100Y-95819108D01*
X120222488Y-95768308D01*
X120505100Y-95768308D01*
X120505100Y-95900091D01*
X120539208Y-96027387D01*
X120551769Y-96049142D01*
X120605100Y-96141514D01*
X120698286Y-96234700D01*
X120812414Y-96300592D01*
X120939708Y-96334700D01*
X120939710Y-96334700D01*
X121071490Y-96334700D01*
X121071492Y-96334700D01*
X121198786Y-96300592D01*
X121312914Y-96234700D01*
X121406100Y-96141514D01*
X121471992Y-96027386D01*
X121506100Y-95900092D01*
X121506100Y-95768308D01*
X121489604Y-95706744D01*
X122850701Y-95706744D01*
X122850701Y-95838528D01*
X122852662Y-95845846D01*
X122884809Y-95965823D01*
X122904430Y-95999807D01*
X122950701Y-96079950D01*
X123043887Y-96173136D01*
X123105065Y-96208457D01*
X123150513Y-96234697D01*
X123158015Y-96239028D01*
X123285309Y-96273136D01*
X123285311Y-96273136D01*
X123417091Y-96273136D01*
X123417093Y-96273136D01*
X123544387Y-96239028D01*
X123658515Y-96173136D01*
X123751701Y-96079950D01*
X123817593Y-95965822D01*
X123851701Y-95838528D01*
X123851701Y-95706744D01*
X123817593Y-95579450D01*
X123815375Y-95575609D01*
X123787243Y-95526883D01*
X123751701Y-95465322D01*
X123658515Y-95372136D01*
X123591942Y-95333700D01*
X123544388Y-95306244D01*
X123480740Y-95289190D01*
X123417093Y-95272136D01*
X123285309Y-95272136D01*
X123158013Y-95306244D01*
X123043887Y-95372136D01*
X123043884Y-95372138D01*
X122950703Y-95465319D01*
X122950701Y-95465322D01*
X122884809Y-95579448D01*
X122855258Y-95689737D01*
X122850701Y-95706744D01*
X121489604Y-95706744D01*
X121471992Y-95641014D01*
X121406100Y-95526886D01*
X121312914Y-95433700D01*
X121255850Y-95400754D01*
X121198787Y-95367808D01*
X121114948Y-95345344D01*
X121071492Y-95333700D01*
X120939708Y-95333700D01*
X120812412Y-95367808D01*
X120698286Y-95433700D01*
X120698283Y-95433702D01*
X120605102Y-95526883D01*
X120605100Y-95526886D01*
X120539208Y-95641012D01*
X120505100Y-95768308D01*
X120222488Y-95768308D01*
X120201992Y-95691814D01*
X120136100Y-95577686D01*
X120042914Y-95484500D01*
X119954930Y-95433702D01*
X119928787Y-95418608D01*
X119865139Y-95401554D01*
X119801492Y-95384500D01*
X119669708Y-95384500D01*
X119542412Y-95418608D01*
X119428286Y-95484500D01*
X119428283Y-95484502D01*
X119335102Y-95577683D01*
X119335100Y-95577686D01*
X119269208Y-95691812D01*
X119248711Y-95768310D01*
X119235100Y-95819108D01*
X115221373Y-95819108D01*
X115271829Y-95731716D01*
X115305937Y-95604422D01*
X115305937Y-95472638D01*
X115271829Y-95345344D01*
X115205937Y-95231216D01*
X115205933Y-95231212D01*
X115205830Y-95231033D01*
X115189357Y-95163133D01*
X115212209Y-95097106D01*
X115225531Y-95081356D01*
X115267461Y-95039427D01*
X115333353Y-94925299D01*
X115367461Y-94798005D01*
X115367461Y-94666221D01*
X115351622Y-94607108D01*
X116618900Y-94607108D01*
X116618900Y-94738891D01*
X116653008Y-94866187D01*
X116680554Y-94913897D01*
X116718900Y-94980314D01*
X116812086Y-95073500D01*
X116926214Y-95139392D01*
X117053508Y-95173500D01*
X117053510Y-95173500D01*
X117185290Y-95173500D01*
X117185292Y-95173500D01*
X117312586Y-95139392D01*
X117411112Y-95082508D01*
X127007500Y-95082508D01*
X127007500Y-95214291D01*
X127041608Y-95341587D01*
X127056747Y-95367808D01*
X127107500Y-95455714D01*
X127200686Y-95548900D01*
X127314814Y-95614792D01*
X127442108Y-95648900D01*
X127442110Y-95648900D01*
X127573890Y-95648900D01*
X127573892Y-95648900D01*
X127701186Y-95614792D01*
X127815314Y-95548900D01*
X127908500Y-95455714D01*
X127974392Y-95341586D01*
X128008500Y-95214292D01*
X128008500Y-95082508D01*
X127974392Y-94955214D01*
X127908500Y-94841086D01*
X127815314Y-94747900D01*
X127705669Y-94684596D01*
X127701187Y-94682008D01*
X127634098Y-94664032D01*
X127573892Y-94647900D01*
X127442108Y-94647900D01*
X127314812Y-94682008D01*
X127200686Y-94747900D01*
X127200683Y-94747902D01*
X127107502Y-94841083D01*
X127107500Y-94841086D01*
X127041608Y-94955212D01*
X127007500Y-95082508D01*
X117411112Y-95082508D01*
X117426714Y-95073500D01*
X117519900Y-94980314D01*
X117585792Y-94866186D01*
X117619900Y-94738892D01*
X117619900Y-94607108D01*
X117586965Y-94484191D01*
X117588628Y-94414343D01*
X117627791Y-94356481D01*
X117692019Y-94328977D01*
X117706740Y-94328100D01*
X117794890Y-94328100D01*
X117794892Y-94328100D01*
X117922186Y-94293992D01*
X118036314Y-94228100D01*
X118129500Y-94134914D01*
X118195392Y-94020786D01*
X118229500Y-93893492D01*
X118229500Y-93761708D01*
X118211441Y-93694309D01*
X121418720Y-93694309D01*
X121418720Y-93826093D01*
X121428410Y-93862257D01*
X121452828Y-93953388D01*
X121467089Y-93978088D01*
X121518720Y-94067515D01*
X121611906Y-94160701D01*
X121726034Y-94226593D01*
X121853328Y-94260701D01*
X121853330Y-94260701D01*
X121985110Y-94260701D01*
X121985112Y-94260701D01*
X122046292Y-94244308D01*
X124297500Y-94244308D01*
X124297500Y-94376092D01*
X124298578Y-94380114D01*
X124331608Y-94503387D01*
X124364554Y-94560450D01*
X124397500Y-94617514D01*
X124490686Y-94710700D01*
X124604814Y-94776592D01*
X124732108Y-94810700D01*
X124732110Y-94810700D01*
X124863890Y-94810700D01*
X124863892Y-94810700D01*
X124991186Y-94776592D01*
X125105314Y-94710700D01*
X125198500Y-94617514D01*
X125264392Y-94503386D01*
X125298500Y-94376092D01*
X125298500Y-94244308D01*
X125264392Y-94117014D01*
X125198500Y-94002886D01*
X125105314Y-93909700D01*
X125026092Y-93863961D01*
X124991187Y-93843808D01*
X124925065Y-93826091D01*
X124863892Y-93809700D01*
X124732108Y-93809700D01*
X124604812Y-93843808D01*
X124490686Y-93909700D01*
X124490683Y-93909702D01*
X124397502Y-94002883D01*
X124397500Y-94002886D01*
X124331608Y-94117012D01*
X124302247Y-94226592D01*
X124297500Y-94244308D01*
X122046292Y-94244308D01*
X122112406Y-94226593D01*
X122226534Y-94160701D01*
X122319720Y-94067515D01*
X122385612Y-93953387D01*
X122419720Y-93826093D01*
X122419720Y-93694309D01*
X122385612Y-93567015D01*
X122319720Y-93452887D01*
X122226534Y-93359701D01*
X122169470Y-93326755D01*
X122112407Y-93293809D01*
X122048759Y-93276755D01*
X121985112Y-93259701D01*
X121853328Y-93259701D01*
X121726032Y-93293809D01*
X121611906Y-93359701D01*
X121611903Y-93359703D01*
X121518722Y-93452884D01*
X121518720Y-93452887D01*
X121452828Y-93567013D01*
X121433609Y-93638741D01*
X121418720Y-93694309D01*
X118211441Y-93694309D01*
X118195392Y-93634414D01*
X118129500Y-93520286D01*
X118036314Y-93427100D01*
X117979250Y-93394154D01*
X117922187Y-93361208D01*
X117858539Y-93344154D01*
X117794892Y-93327100D01*
X117663108Y-93327100D01*
X117535812Y-93361208D01*
X117421686Y-93427100D01*
X117421683Y-93427102D01*
X117328502Y-93520283D01*
X117328500Y-93520286D01*
X117262608Y-93634412D01*
X117252456Y-93672302D01*
X117228500Y-93761708D01*
X117228500Y-93893492D01*
X117258889Y-94006908D01*
X117261435Y-94016407D01*
X117259772Y-94086257D01*
X117220609Y-94144119D01*
X117156381Y-94171623D01*
X117141660Y-94172500D01*
X117053508Y-94172500D01*
X116926212Y-94206608D01*
X116812086Y-94272500D01*
X116812083Y-94272502D01*
X116718902Y-94365683D01*
X116718900Y-94365686D01*
X116653008Y-94479812D01*
X116618900Y-94607108D01*
X115351622Y-94607108D01*
X115333353Y-94538927D01*
X115267461Y-94424799D01*
X115174275Y-94331613D01*
X115060147Y-94265721D01*
X114964492Y-94240090D01*
X114904833Y-94203726D01*
X114874304Y-94140879D01*
X114872587Y-94120316D01*
X114872587Y-94006910D01*
X114872587Y-94006908D01*
X114838479Y-93879614D01*
X114772587Y-93765486D01*
X114679401Y-93672300D01*
X114565273Y-93606408D01*
X114437979Y-93572300D01*
X114434161Y-93571277D01*
X114374501Y-93534912D01*
X114343972Y-93472065D01*
X114342255Y-93451502D01*
X114342255Y-93379665D01*
X114342255Y-93379663D01*
X114308147Y-93252369D01*
X114242255Y-93138241D01*
X114149069Y-93045055D01*
X114071924Y-93000515D01*
X114034942Y-92979163D01*
X113971294Y-92962109D01*
X113907647Y-92945055D01*
X113775863Y-92945055D01*
X113648567Y-92979163D01*
X113534441Y-93045055D01*
X113534438Y-93045057D01*
X113441257Y-93138238D01*
X113441255Y-93138241D01*
X113375363Y-93252367D01*
X113342961Y-93373297D01*
X113341255Y-93379663D01*
X113341255Y-93511447D01*
X113353566Y-93557391D01*
X113375363Y-93638742D01*
X113405071Y-93690196D01*
X113441255Y-93752869D01*
X113534441Y-93846055D01*
X113616604Y-93893492D01*
X113644680Y-93909702D01*
X113648569Y-93911947D01*
X113775863Y-93946055D01*
X113775866Y-93946055D01*
X113779680Y-93947077D01*
X113839341Y-93983442D01*
X113869870Y-94046288D01*
X113871587Y-94066852D01*
X113871587Y-94138692D01*
X113877484Y-94160700D01*
X113905695Y-94265987D01*
X113921864Y-94293992D01*
X113971587Y-94380114D01*
X114064773Y-94473300D01*
X114163608Y-94530363D01*
X114178438Y-94538925D01*
X114178901Y-94539192D01*
X114274556Y-94564822D01*
X114334214Y-94601185D01*
X114364744Y-94664032D01*
X114366461Y-94684596D01*
X114366461Y-94798005D01*
X114397514Y-94913899D01*
X114400570Y-94925301D01*
X114400570Y-94925302D01*
X114466566Y-95039610D01*
X114483039Y-95107510D01*
X114460186Y-95173537D01*
X114446862Y-95189289D01*
X114404940Y-95231212D01*
X114404937Y-95231216D01*
X114339045Y-95345342D01*
X114319414Y-95418608D01*
X114304937Y-95472638D01*
X114304937Y-95604422D01*
X114316855Y-95648900D01*
X114339045Y-95731717D01*
X114371991Y-95788780D01*
X114404937Y-95845844D01*
X114498123Y-95939030D01*
X114612251Y-96004922D01*
X114612258Y-96004924D01*
X114613179Y-96005306D01*
X114613843Y-96005841D01*
X114619290Y-96008986D01*
X114618799Y-96009834D01*
X114667586Y-96049142D01*
X114689657Y-96115434D01*
X114672383Y-96183135D01*
X114653418Y-96207552D01*
X114591564Y-96269406D01*
X114525672Y-96383534D01*
X114509024Y-96445666D01*
X114503120Y-96467700D01*
X114466755Y-96527360D01*
X114403907Y-96557889D01*
X114334532Y-96549594D01*
X114280654Y-96505109D01*
X114268780Y-96483050D01*
X114267194Y-96479223D01*
X114267192Y-96479214D01*
X114201300Y-96365086D01*
X114108114Y-96271900D01*
X114043677Y-96234697D01*
X113993987Y-96206008D01*
X113899191Y-96180608D01*
X113866692Y-96171900D01*
X113734908Y-96171900D01*
X113607612Y-96206008D01*
X113493486Y-96271900D01*
X113493483Y-96271902D01*
X113400302Y-96365083D01*
X113400300Y-96365086D01*
X113334408Y-96479212D01*
X113300300Y-96606508D01*
X113000000Y-96606508D01*
X113000000Y-95137900D01*
X113019685Y-95070861D01*
X113072489Y-95025106D01*
X113124000Y-95013900D01*
X113146690Y-95013900D01*
X113146692Y-95013900D01*
X113273986Y-94979792D01*
X113388114Y-94913900D01*
X113481300Y-94820714D01*
X113547192Y-94706586D01*
X113581300Y-94579292D01*
X113581300Y-94447508D01*
X113547192Y-94320214D01*
X113481300Y-94206086D01*
X113388114Y-94112900D01*
X113309505Y-94067515D01*
X113273987Y-94047008D01*
X113210339Y-94029954D01*
X113146692Y-94012900D01*
X113124000Y-94012900D01*
X113056961Y-93993215D01*
X113011206Y-93940411D01*
X113000000Y-93888900D01*
X113000000Y-92891401D01*
X113019685Y-92824362D01*
X113072489Y-92778607D01*
X113091900Y-92771628D01*
X113136636Y-92759642D01*
X113250764Y-92693750D01*
X113343950Y-92600564D01*
X113409842Y-92486436D01*
X113443950Y-92359142D01*
X113443950Y-92242300D01*
X113444316Y-92241053D01*
X113443975Y-92239799D01*
X113449875Y-92221108D01*
X115772500Y-92221108D01*
X115772500Y-92352892D01*
X115777758Y-92372514D01*
X115806608Y-92480187D01*
X115831293Y-92522942D01*
X115872500Y-92594314D01*
X115965686Y-92687500D01*
X116079814Y-92753392D01*
X116207108Y-92787500D01*
X116207110Y-92787500D01*
X116338890Y-92787500D01*
X116338892Y-92787500D01*
X116466186Y-92753392D01*
X116580314Y-92687500D01*
X116673500Y-92594314D01*
X116739392Y-92480186D01*
X116773500Y-92352892D01*
X116773500Y-92221108D01*
X116739392Y-92093814D01*
X116737749Y-92090969D01*
X116708558Y-92040408D01*
X116673500Y-91979686D01*
X116580314Y-91886500D01*
X116523250Y-91853554D01*
X116466187Y-91820608D01*
X116402539Y-91803554D01*
X116338892Y-91786500D01*
X116207108Y-91786500D01*
X116079812Y-91820608D01*
X115965686Y-91886500D01*
X115965683Y-91886502D01*
X115872502Y-91979683D01*
X115872500Y-91979686D01*
X115806608Y-92093812D01*
X115776117Y-92207610D01*
X115772500Y-92221108D01*
X113449875Y-92221108D01*
X113454136Y-92207610D01*
X113463635Y-92175261D01*
X113464616Y-92174410D01*
X113465008Y-92173170D01*
X113490963Y-92151580D01*
X113516439Y-92129506D01*
X113518050Y-92129050D01*
X113518724Y-92128490D01*
X113523610Y-92127478D01*
X113552782Y-92119231D01*
X113560336Y-92118300D01*
X113680092Y-92118300D01*
X113807386Y-92084192D01*
X113921514Y-92018300D01*
X114014700Y-91925114D01*
X114080592Y-91810986D01*
X114114700Y-91683692D01*
X114114700Y-91551908D01*
X114103232Y-91509108D01*
X118150250Y-91509108D01*
X118150250Y-91640891D01*
X118184358Y-91768187D01*
X118196779Y-91789700D01*
X118250250Y-91882314D01*
X118343436Y-91975500D01*
X118417566Y-92018299D01*
X118455859Y-92040408D01*
X118457564Y-92041392D01*
X118584858Y-92075500D01*
X118584859Y-92075500D01*
X118592708Y-92077603D01*
X118592353Y-92078924D01*
X118648404Y-92103715D01*
X118686879Y-92162036D01*
X118688105Y-92230484D01*
X118681043Y-92256840D01*
X118681043Y-92256842D01*
X118681043Y-92388623D01*
X118715151Y-92515919D01*
X118719206Y-92522942D01*
X118781043Y-92630046D01*
X118874229Y-92723232D01*
X118988357Y-92789124D01*
X119115651Y-92823232D01*
X119115654Y-92823232D01*
X119117793Y-92823805D01*
X119177453Y-92860170D01*
X119207983Y-92923016D01*
X119209700Y-92943580D01*
X119209700Y-93038692D01*
X119216072Y-93062473D01*
X119243808Y-93165987D01*
X119265975Y-93204381D01*
X119309700Y-93280114D01*
X119402886Y-93373300D01*
X119517014Y-93439192D01*
X119644308Y-93473300D01*
X119644310Y-93473300D01*
X119776090Y-93473300D01*
X119776092Y-93473300D01*
X119903386Y-93439192D01*
X120017514Y-93373300D01*
X120110700Y-93280114D01*
X120176592Y-93165986D01*
X120210700Y-93038692D01*
X120210700Y-92906908D01*
X120176592Y-92779614D01*
X120110700Y-92665486D01*
X120017514Y-92572300D01*
X119993675Y-92558537D01*
X119970919Y-92545398D01*
X119970917Y-92545397D01*
X119903386Y-92506408D01*
X119776092Y-92472300D01*
X119773937Y-92472300D01*
X119762902Y-92468205D01*
X119739362Y-92450644D01*
X119723389Y-92440908D01*
X123095900Y-92440908D01*
X123095900Y-92572691D01*
X123130008Y-92699987D01*
X123143429Y-92723232D01*
X123195900Y-92814114D01*
X123289086Y-92907300D01*
X123403214Y-92973192D01*
X123410718Y-92976300D01*
X123409439Y-92979388D01*
X123455841Y-93007662D01*
X123486379Y-93070504D01*
X123478094Y-93139881D01*
X123433617Y-93193765D01*
X123421597Y-93200237D01*
X123421644Y-93200318D01*
X123300477Y-93270274D01*
X123300474Y-93270276D01*
X123207293Y-93363457D01*
X123207291Y-93363460D01*
X123141399Y-93477586D01*
X123129959Y-93520283D01*
X123107291Y-93604882D01*
X123107291Y-93736666D01*
X123115013Y-93765486D01*
X123141399Y-93863961D01*
X123158449Y-93893492D01*
X123207291Y-93978088D01*
X123300477Y-94071274D01*
X123386312Y-94120831D01*
X123414601Y-94137164D01*
X123414605Y-94137166D01*
X123541899Y-94171274D01*
X123541901Y-94171274D01*
X123673681Y-94171274D01*
X123673683Y-94171274D01*
X123800977Y-94137166D01*
X123915105Y-94071274D01*
X124008291Y-93978088D01*
X124074183Y-93863960D01*
X124108291Y-93736666D01*
X124108291Y-93604882D01*
X124074183Y-93477588D01*
X124008291Y-93363460D01*
X123915105Y-93270274D01*
X123839446Y-93226592D01*
X123800976Y-93204381D01*
X123793473Y-93201274D01*
X123794745Y-93198201D01*
X123788820Y-93194583D01*
X123767710Y-93187171D01*
X123759575Y-93176730D01*
X123748281Y-93169836D01*
X123738519Y-93149706D01*
X123724767Y-93132056D01*
X123723568Y-93118875D01*
X123717794Y-93106968D01*
X123720465Y-93084754D01*
X123718439Y-93062473D01*
X123724555Y-93050737D01*
X123726136Y-93037598D01*
X123736462Y-93025108D01*
X124670700Y-93025108D01*
X124670700Y-93156892D01*
X124674286Y-93170274D01*
X124704808Y-93284187D01*
X124729584Y-93327100D01*
X124770700Y-93398314D01*
X124863886Y-93491500D01*
X124978014Y-93557392D01*
X125105308Y-93591500D01*
X125105310Y-93591500D01*
X125237090Y-93591500D01*
X125237092Y-93591500D01*
X125364386Y-93557392D01*
X125478514Y-93491500D01*
X125571700Y-93398314D01*
X125637592Y-93284186D01*
X125671700Y-93156892D01*
X125671700Y-93025108D01*
X125637592Y-92897814D01*
X125633889Y-92891401D01*
X125595184Y-92824362D01*
X125571700Y-92783686D01*
X125478514Y-92690500D01*
X125421450Y-92657554D01*
X125364387Y-92624608D01*
X125274659Y-92600566D01*
X125237092Y-92590500D01*
X125105308Y-92590500D01*
X124978012Y-92624608D01*
X124863886Y-92690500D01*
X124863883Y-92690502D01*
X124770702Y-92783683D01*
X124770700Y-92783686D01*
X124704808Y-92897812D01*
X124681782Y-92983750D01*
X124670700Y-93025108D01*
X123736462Y-93025108D01*
X123740392Y-93020355D01*
X123750734Y-93000515D01*
X123764637Y-92991031D01*
X123770658Y-92983750D01*
X123778575Y-92978823D01*
X123787409Y-92973775D01*
X123789586Y-92973192D01*
X123903714Y-92907300D01*
X123996900Y-92814114D01*
X124062792Y-92699986D01*
X124096900Y-92572692D01*
X124096900Y-92440908D01*
X124065266Y-92322847D01*
X126503300Y-92322847D01*
X126503300Y-94062352D01*
X126514931Y-94120829D01*
X126514932Y-94120830D01*
X126559247Y-94187152D01*
X126625569Y-94231467D01*
X126625570Y-94231468D01*
X126684047Y-94243099D01*
X126684050Y-94243100D01*
X126684052Y-94243100D01*
X128423550Y-94243100D01*
X128423551Y-94243099D01*
X128438675Y-94240091D01*
X128482029Y-94231468D01*
X128482029Y-94231467D01*
X128482031Y-94231467D01*
X128548352Y-94187152D01*
X128592667Y-94120831D01*
X128592667Y-94120829D01*
X128592668Y-94120829D01*
X128601352Y-94077168D01*
X128604300Y-94062348D01*
X128604300Y-93089130D01*
X129043300Y-93089130D01*
X129043300Y-93296069D01*
X129083668Y-93499012D01*
X129083670Y-93499020D01*
X129139751Y-93634412D01*
X129162859Y-93690198D01*
X129220341Y-93776226D01*
X129277824Y-93862257D01*
X129424142Y-94008575D01*
X129424145Y-94008577D01*
X129596202Y-94123541D01*
X129787380Y-94202730D01*
X129931852Y-94231467D01*
X129990330Y-94243099D01*
X129990334Y-94243100D01*
X129990335Y-94243100D01*
X130197266Y-94243100D01*
X130197267Y-94243099D01*
X130400220Y-94202730D01*
X130591398Y-94123541D01*
X130763455Y-94008577D01*
X130909777Y-93862255D01*
X131024741Y-93690198D01*
X131103930Y-93499020D01*
X131144300Y-93296065D01*
X131144300Y-93089135D01*
X131103930Y-92886180D01*
X131024741Y-92695002D01*
X130909777Y-92522945D01*
X130909775Y-92522942D01*
X130763457Y-92376624D01*
X130669152Y-92313612D01*
X130591398Y-92261659D01*
X130516135Y-92230484D01*
X130400220Y-92182470D01*
X130400212Y-92182468D01*
X130197269Y-92142100D01*
X130197265Y-92142100D01*
X129990335Y-92142100D01*
X129990330Y-92142100D01*
X129787387Y-92182468D01*
X129787379Y-92182470D01*
X129596203Y-92261658D01*
X129424142Y-92376624D01*
X129277824Y-92522942D01*
X129162858Y-92695003D01*
X129083670Y-92886179D01*
X129083668Y-92886187D01*
X129043300Y-93089130D01*
X128604300Y-93089130D01*
X128604300Y-92322852D01*
X128604300Y-92322849D01*
X128604299Y-92322847D01*
X128592668Y-92264370D01*
X128592667Y-92264369D01*
X128548352Y-92198047D01*
X128482030Y-92153732D01*
X128482029Y-92153731D01*
X128423552Y-92142100D01*
X128423548Y-92142100D01*
X126684052Y-92142100D01*
X126684047Y-92142100D01*
X126625570Y-92153731D01*
X126625569Y-92153732D01*
X126559247Y-92198047D01*
X126514932Y-92264369D01*
X126514931Y-92264370D01*
X126503300Y-92322847D01*
X124065266Y-92322847D01*
X124062792Y-92313614D01*
X123996900Y-92199486D01*
X123903714Y-92106300D01*
X123834053Y-92066081D01*
X123789587Y-92040408D01*
X123696310Y-92015415D01*
X123662292Y-92006300D01*
X123530508Y-92006300D01*
X123403212Y-92040408D01*
X123289086Y-92106300D01*
X123289083Y-92106302D01*
X123195902Y-92199483D01*
X123195900Y-92199486D01*
X123130008Y-92313612D01*
X123095900Y-92440908D01*
X119723389Y-92440908D01*
X119714289Y-92435361D01*
X119711681Y-92429994D01*
X119706899Y-92426426D01*
X119696590Y-92398927D01*
X119683760Y-92372514D01*
X119682920Y-92362459D01*
X119682374Y-92361002D01*
X119682680Y-92359582D01*
X119682043Y-92351951D01*
X119682043Y-92256842D01*
X119682043Y-92256840D01*
X119647935Y-92129546D01*
X119582043Y-92015418D01*
X119488857Y-91922232D01*
X119419717Y-91882314D01*
X119374730Y-91856340D01*
X119318942Y-91841392D01*
X119247435Y-91822232D01*
X119247434Y-91822232D01*
X119239585Y-91820129D01*
X119239938Y-91818810D01*
X119183878Y-91794008D01*
X119145409Y-91735682D01*
X119144188Y-91667247D01*
X119151250Y-91640892D01*
X119151250Y-91509108D01*
X119117142Y-91381814D01*
X119051250Y-91267686D01*
X118958064Y-91174500D01*
X118901000Y-91141554D01*
X118843937Y-91108608D01*
X118744207Y-91081886D01*
X118716642Y-91074500D01*
X118584858Y-91074500D01*
X118457562Y-91108608D01*
X118343436Y-91174500D01*
X118343433Y-91174502D01*
X118250252Y-91267683D01*
X118250250Y-91267686D01*
X118184358Y-91381812D01*
X118150250Y-91509108D01*
X114103232Y-91509108D01*
X114080592Y-91424614D01*
X114014700Y-91310486D01*
X113921514Y-91217300D01*
X113847386Y-91174502D01*
X113807387Y-91151408D01*
X113743739Y-91134354D01*
X113680092Y-91117300D01*
X113548308Y-91117300D01*
X113421012Y-91151408D01*
X113306886Y-91217300D01*
X113306883Y-91217302D01*
X113211681Y-91312505D01*
X113150358Y-91345990D01*
X113080666Y-91341006D01*
X113024733Y-91299134D01*
X113000316Y-91233670D01*
X113000000Y-91224824D01*
X113000000Y-89387057D01*
X113019685Y-89320018D01*
X113072489Y-89274263D01*
X113141647Y-89264319D01*
X113205203Y-89293344D01*
X113231387Y-89325057D01*
X113290865Y-89428075D01*
X113384051Y-89521261D01*
X113498179Y-89587153D01*
X113625473Y-89621261D01*
X113625475Y-89621261D01*
X113757255Y-89621261D01*
X113757257Y-89621261D01*
X113884551Y-89587153D01*
X113985780Y-89528708D01*
X115047500Y-89528708D01*
X115047500Y-89660492D01*
X115055539Y-89690494D01*
X115081608Y-89787787D01*
X115102476Y-89823931D01*
X115147500Y-89901914D01*
X115240686Y-89995100D01*
X115354814Y-90060992D01*
X115482108Y-90095100D01*
X115482110Y-90095100D01*
X115613890Y-90095100D01*
X115613892Y-90095100D01*
X115741186Y-90060992D01*
X115855314Y-89995100D01*
X115948500Y-89901914D01*
X116014392Y-89787786D01*
X116027093Y-89740386D01*
X116817227Y-89740386D01*
X116817227Y-89872169D01*
X116851335Y-89999465D01*
X116870519Y-90032692D01*
X116917227Y-90113592D01*
X117010413Y-90206778D01*
X117100232Y-90258635D01*
X117124541Y-90272670D01*
X117126545Y-90273500D01*
X117127976Y-90274653D01*
X117131580Y-90276734D01*
X117131255Y-90277295D01*
X117180952Y-90317337D01*
X117203021Y-90383630D01*
X117203100Y-90388064D01*
X117203100Y-90515291D01*
X117237208Y-90642587D01*
X117244838Y-90655802D01*
X117303100Y-90756714D01*
X117396286Y-90849900D01*
X117510414Y-90915792D01*
X117637708Y-90949900D01*
X117637710Y-90949900D01*
X117769490Y-90949900D01*
X117769492Y-90949900D01*
X117896786Y-90915792D01*
X118010914Y-90849900D01*
X118077716Y-90783098D01*
X119140310Y-90783098D01*
X119140310Y-90914882D01*
X119144053Y-90928851D01*
X119174418Y-91042178D01*
X119176168Y-91045209D01*
X119176172Y-91045215D01*
X119240310Y-91156304D01*
X119333496Y-91249490D01*
X119447624Y-91315382D01*
X119574918Y-91349490D01*
X119574920Y-91349490D01*
X119706700Y-91349490D01*
X119706702Y-91349490D01*
X119833996Y-91315382D01*
X119948124Y-91249490D01*
X120041310Y-91156304D01*
X120107202Y-91042176D01*
X120141310Y-90914882D01*
X120141310Y-90783098D01*
X120107202Y-90655804D01*
X120041310Y-90541676D01*
X119948124Y-90448490D01*
X119948122Y-90448489D01*
X119948120Y-90448487D01*
X119933501Y-90440047D01*
X119885286Y-90389479D01*
X119872065Y-90320872D01*
X119898034Y-90256007D01*
X119933501Y-90225275D01*
X119966714Y-90206100D01*
X120059900Y-90112914D01*
X120125792Y-89998786D01*
X120152018Y-89900908D01*
X123527700Y-89900908D01*
X123527700Y-90032692D01*
X123535283Y-90060991D01*
X123561808Y-90159987D01*
X123582718Y-90196203D01*
X123627700Y-90274114D01*
X123720886Y-90367300D01*
X123835014Y-90433192D01*
X123962308Y-90467300D01*
X123962310Y-90467300D01*
X124094091Y-90467300D01*
X124094092Y-90467300D01*
X124094092Y-90467299D01*
X124102149Y-90466239D01*
X124102608Y-90469725D01*
X124156230Y-90470909D01*
X124214160Y-90509972D01*
X124229162Y-90532791D01*
X124287940Y-90648149D01*
X124408217Y-90813694D01*
X124408217Y-90813695D01*
X124552904Y-90958382D01*
X124718450Y-91078659D01*
X124900768Y-91171554D01*
X125095378Y-91234788D01*
X125149800Y-91243407D01*
X125149800Y-90342077D01*
X125226106Y-90386133D01*
X125340556Y-90416800D01*
X125459044Y-90416800D01*
X125573494Y-90386133D01*
X125649800Y-90342077D01*
X125649800Y-91243406D01*
X125704221Y-91234788D01*
X125898831Y-91171554D01*
X126081149Y-91078659D01*
X126246694Y-90958382D01*
X126246695Y-90958382D01*
X126391382Y-90813695D01*
X126391382Y-90813694D01*
X126511659Y-90648149D01*
X126604555Y-90465831D01*
X126667790Y-90271217D01*
X126697675Y-90082531D01*
X126727604Y-90019396D01*
X126786916Y-89982465D01*
X126856778Y-89983463D01*
X126915011Y-90022073D01*
X126941765Y-90077737D01*
X126977747Y-90258629D01*
X126977750Y-90258639D01*
X127053164Y-90440707D01*
X127053171Y-90440720D01*
X127133050Y-90560267D01*
X127153928Y-90626945D01*
X127135443Y-90694325D01*
X127091949Y-90736545D01*
X127036605Y-90768498D01*
X127036602Y-90768500D01*
X126943421Y-90861681D01*
X126943419Y-90861684D01*
X126877527Y-90975810D01*
X126843419Y-91103106D01*
X126843419Y-91234889D01*
X126877527Y-91362185D01*
X126887108Y-91378779D01*
X126943419Y-91476312D01*
X127036605Y-91569498D01*
X127150733Y-91635390D01*
X127278027Y-91669498D01*
X127278029Y-91669498D01*
X127409809Y-91669498D01*
X127409811Y-91669498D01*
X127537105Y-91635390D01*
X127651233Y-91569498D01*
X127744419Y-91476312D01*
X127810311Y-91362184D01*
X127844419Y-91234890D01*
X127844419Y-91103106D01*
X127844419Y-91094979D01*
X127846944Y-91094979D01*
X127855767Y-91038439D01*
X127902151Y-90986188D01*
X127967935Y-90967300D01*
X128038343Y-90967300D01*
X128168382Y-90941432D01*
X128231635Y-90928851D01*
X128413714Y-90853432D01*
X128577582Y-90743939D01*
X128716939Y-90604582D01*
X128826432Y-90440714D01*
X128901851Y-90258635D01*
X128930702Y-90113592D01*
X128940300Y-90065343D01*
X129479299Y-90065343D01*
X129517747Y-90258629D01*
X129517750Y-90258639D01*
X129593164Y-90440707D01*
X129593171Y-90440720D01*
X129702660Y-90604581D01*
X129702663Y-90604585D01*
X129842014Y-90743936D01*
X129842018Y-90743939D01*
X130005879Y-90853428D01*
X130005892Y-90853435D01*
X130173376Y-90922808D01*
X130187965Y-90928851D01*
X130187969Y-90928851D01*
X130187970Y-90928852D01*
X130381256Y-90967300D01*
X130381259Y-90967300D01*
X130578343Y-90967300D01*
X130708382Y-90941432D01*
X130771635Y-90928851D01*
X130953714Y-90853432D01*
X131117582Y-90743939D01*
X131256939Y-90604582D01*
X131366432Y-90440714D01*
X131441851Y-90258635D01*
X131470702Y-90113592D01*
X131480300Y-90065343D01*
X131480300Y-89868256D01*
X131441852Y-89674970D01*
X131441851Y-89674969D01*
X131441851Y-89674965D01*
X131435855Y-89660489D01*
X131366435Y-89492892D01*
X131366428Y-89492879D01*
X131256939Y-89329018D01*
X131256936Y-89329014D01*
X131117585Y-89189663D01*
X131117581Y-89189660D01*
X130953720Y-89080171D01*
X130953707Y-89080164D01*
X130771639Y-89004750D01*
X130771629Y-89004747D01*
X130578343Y-88966300D01*
X130578341Y-88966300D01*
X130381259Y-88966300D01*
X130381257Y-88966300D01*
X130187970Y-89004747D01*
X130187960Y-89004750D01*
X130005892Y-89080164D01*
X130005879Y-89080171D01*
X129842018Y-89189660D01*
X129842014Y-89189663D01*
X129702663Y-89329014D01*
X129702660Y-89329018D01*
X129593171Y-89492879D01*
X129593164Y-89492892D01*
X129517750Y-89674960D01*
X129517747Y-89674970D01*
X129479300Y-89868256D01*
X129479300Y-89868259D01*
X129479300Y-90065341D01*
X129479300Y-90065343D01*
X129479299Y-90065343D01*
X128940300Y-90065343D01*
X128940300Y-89868256D01*
X128901852Y-89674970D01*
X128901851Y-89674969D01*
X128901851Y-89674965D01*
X128895855Y-89660489D01*
X128826435Y-89492892D01*
X128826428Y-89492879D01*
X128716939Y-89329018D01*
X128716936Y-89329014D01*
X128577585Y-89189663D01*
X128577581Y-89189660D01*
X128413720Y-89080171D01*
X128413707Y-89080164D01*
X128231639Y-89004750D01*
X128231629Y-89004747D01*
X128038343Y-88966300D01*
X128038341Y-88966300D01*
X127841259Y-88966300D01*
X127841257Y-88966300D01*
X127647970Y-89004747D01*
X127647960Y-89004750D01*
X127465892Y-89080164D01*
X127465879Y-89080171D01*
X127302018Y-89189660D01*
X127302014Y-89189663D01*
X127162663Y-89329014D01*
X127162660Y-89329018D01*
X127053171Y-89492879D01*
X127053164Y-89492892D01*
X126977750Y-89674960D01*
X126977747Y-89674970D01*
X126941765Y-89855862D01*
X126909380Y-89917773D01*
X126848664Y-89952347D01*
X126778894Y-89948606D01*
X126722223Y-89907740D01*
X126697675Y-89851068D01*
X126667790Y-89662382D01*
X126604555Y-89467768D01*
X126511659Y-89285450D01*
X126391382Y-89119905D01*
X126391382Y-89119904D01*
X126246695Y-88975217D01*
X126081149Y-88854940D01*
X125898829Y-88762044D01*
X125704213Y-88698809D01*
X125649800Y-88690190D01*
X125649800Y-89591522D01*
X125573494Y-89547467D01*
X125459044Y-89516800D01*
X125340556Y-89516800D01*
X125226106Y-89547467D01*
X125149800Y-89591522D01*
X125149800Y-88690190D01*
X125095386Y-88698809D01*
X124900770Y-88762044D01*
X124718450Y-88854940D01*
X124552905Y-88975217D01*
X124552904Y-88975217D01*
X124408217Y-89119904D01*
X124408217Y-89119905D01*
X124287940Y-89285450D01*
X124229162Y-89400808D01*
X124181187Y-89451604D01*
X124113366Y-89468399D01*
X124102234Y-89466700D01*
X124102148Y-89467361D01*
X124094093Y-89466300D01*
X124094092Y-89466300D01*
X123962308Y-89466300D01*
X123835012Y-89500408D01*
X123720886Y-89566300D01*
X123720883Y-89566302D01*
X123627702Y-89659483D01*
X123627700Y-89659486D01*
X123561808Y-89773612D01*
X123535400Y-89872170D01*
X123527700Y-89900908D01*
X120152018Y-89900908D01*
X120159900Y-89871492D01*
X120159900Y-89739708D01*
X120125792Y-89612414D01*
X120059900Y-89498286D01*
X119966714Y-89405100D01*
X119909650Y-89372154D01*
X119852587Y-89339208D01*
X119758313Y-89313948D01*
X119725292Y-89305100D01*
X119593508Y-89305100D01*
X119466212Y-89339208D01*
X119352086Y-89405100D01*
X119352083Y-89405102D01*
X119258902Y-89498283D01*
X119258900Y-89498286D01*
X119193008Y-89612412D01*
X119176246Y-89674970D01*
X119158900Y-89739708D01*
X119158900Y-89871492D01*
X119167052Y-89901916D01*
X119193008Y-89998787D01*
X119225954Y-90055850D01*
X119258900Y-90112914D01*
X119352086Y-90206100D01*
X119366707Y-90214542D01*
X119414922Y-90265109D01*
X119428144Y-90333716D01*
X119402176Y-90398580D01*
X119366708Y-90429314D01*
X119333499Y-90448487D01*
X119333493Y-90448492D01*
X119240312Y-90541673D01*
X119240310Y-90541676D01*
X119174418Y-90655802D01*
X119147379Y-90756716D01*
X119140310Y-90783098D01*
X118077716Y-90783098D01*
X118104100Y-90756714D01*
X118169992Y-90642586D01*
X118204100Y-90515292D01*
X118204100Y-90383508D01*
X118169992Y-90256214D01*
X118169872Y-90256007D01*
X118141448Y-90206775D01*
X118104100Y-90142086D01*
X118010914Y-90048900D01*
X117959812Y-90019396D01*
X117896784Y-89983006D01*
X117894771Y-89982173D01*
X117893334Y-89981015D01*
X117889747Y-89978944D01*
X117890070Y-89978384D01*
X117840369Y-89938331D01*
X117818306Y-89872036D01*
X117818227Y-89867613D01*
X117818227Y-89740388D01*
X117818227Y-89740386D01*
X117784119Y-89613092D01*
X117783726Y-89612412D01*
X117766462Y-89582509D01*
X117718227Y-89498964D01*
X117625041Y-89405778D01*
X117567977Y-89372832D01*
X117510914Y-89339886D01*
X117414106Y-89313947D01*
X117383619Y-89305778D01*
X117251835Y-89305778D01*
X117124539Y-89339886D01*
X117010413Y-89405778D01*
X117010410Y-89405780D01*
X116917229Y-89498961D01*
X116917227Y-89498964D01*
X116851335Y-89613090D01*
X116817227Y-89740386D01*
X116027093Y-89740386D01*
X116048500Y-89660492D01*
X116048500Y-89528708D01*
X116014392Y-89401414D01*
X115948500Y-89287286D01*
X115855314Y-89194100D01*
X115798250Y-89161154D01*
X115741187Y-89128208D01*
X115664518Y-89107665D01*
X115613892Y-89094100D01*
X115482108Y-89094100D01*
X115354812Y-89128208D01*
X115240686Y-89194100D01*
X115240683Y-89194102D01*
X115147502Y-89287283D01*
X115147500Y-89287286D01*
X115081608Y-89401412D01*
X115055470Y-89498964D01*
X115047500Y-89528708D01*
X113985780Y-89528708D01*
X113998679Y-89521261D01*
X114091865Y-89428075D01*
X114157757Y-89313947D01*
X114191865Y-89186653D01*
X114191865Y-89054869D01*
X114157757Y-88927575D01*
X114091865Y-88813447D01*
X113998679Y-88720261D01*
X113940186Y-88686490D01*
X113884552Y-88654369D01*
X113858889Y-88647493D01*
X113757257Y-88620261D01*
X113625473Y-88620261D01*
X113498177Y-88654369D01*
X113384051Y-88720261D01*
X113384048Y-88720263D01*
X113290867Y-88813444D01*
X113290865Y-88813447D01*
X113231387Y-88916465D01*
X113180819Y-88964680D01*
X113112212Y-88977902D01*
X113047348Y-88951934D01*
X113006820Y-88895020D01*
X113000000Y-88854464D01*
X113000000Y-88528257D01*
X118609486Y-88528257D01*
X118609486Y-88660041D01*
X118625622Y-88720261D01*
X118643594Y-88787336D01*
X118663781Y-88822300D01*
X118709486Y-88901463D01*
X118802672Y-88994649D01*
X118916800Y-89060541D01*
X119044094Y-89094649D01*
X119044096Y-89094649D01*
X119175876Y-89094649D01*
X119175878Y-89094649D01*
X119303172Y-89060541D01*
X119417300Y-88994649D01*
X119510486Y-88901463D01*
X119576378Y-88787335D01*
X119610486Y-88660041D01*
X119610486Y-88528257D01*
X119576378Y-88400963D01*
X119510486Y-88286835D01*
X119479559Y-88255908D01*
X121540500Y-88255908D01*
X121540500Y-88387692D01*
X121544056Y-88400963D01*
X121574608Y-88514987D01*
X121597543Y-88554710D01*
X121640500Y-88629114D01*
X121733686Y-88722300D01*
X121832521Y-88779363D01*
X121846329Y-88787335D01*
X121847814Y-88788192D01*
X121975108Y-88822300D01*
X121975110Y-88822300D01*
X122106890Y-88822300D01*
X122106892Y-88822300D01*
X122234186Y-88788192D01*
X122348314Y-88722300D01*
X122441500Y-88629114D01*
X122484458Y-88554708D01*
X123095900Y-88554708D01*
X123095900Y-88686492D01*
X123100808Y-88704809D01*
X123130008Y-88813787D01*
X123153768Y-88854940D01*
X123195900Y-88927914D01*
X123289086Y-89021100D01*
X123357398Y-89060540D01*
X123391394Y-89080168D01*
X123403214Y-89086992D01*
X123530508Y-89121100D01*
X123530510Y-89121100D01*
X123662290Y-89121100D01*
X123662292Y-89121100D01*
X123789586Y-89086992D01*
X123903714Y-89021100D01*
X123996900Y-88927914D01*
X124062792Y-88813786D01*
X124096900Y-88686492D01*
X124096900Y-88554708D01*
X124062792Y-88427414D01*
X123996900Y-88313286D01*
X123903714Y-88220100D01*
X123891708Y-88213168D01*
X123843494Y-88162602D01*
X123830270Y-88093995D01*
X123856238Y-88029131D01*
X123913152Y-87988602D01*
X123921605Y-87986010D01*
X123950786Y-87978192D01*
X124064914Y-87912300D01*
X124158100Y-87819114D01*
X124223992Y-87704986D01*
X124258100Y-87577692D01*
X124258100Y-87445908D01*
X124223992Y-87318614D01*
X124158100Y-87204486D01*
X124064914Y-87111300D01*
X124001642Y-87074770D01*
X123950787Y-87045408D01*
X123887139Y-87028354D01*
X123823492Y-87011300D01*
X123691708Y-87011300D01*
X123564412Y-87045408D01*
X123450286Y-87111300D01*
X123450283Y-87111302D01*
X123357102Y-87204483D01*
X123357100Y-87204486D01*
X123291208Y-87318612D01*
X123257100Y-87445908D01*
X123257100Y-87577691D01*
X123291208Y-87704987D01*
X123324154Y-87762050D01*
X123357100Y-87819114D01*
X123450286Y-87912300D01*
X123462288Y-87919229D01*
X123510505Y-87969795D01*
X123523729Y-88038402D01*
X123497762Y-88103267D01*
X123440849Y-88143796D01*
X123432385Y-88146391D01*
X123403215Y-88154207D01*
X123403214Y-88154207D01*
X123289086Y-88220100D01*
X123289083Y-88220102D01*
X123195902Y-88313283D01*
X123195900Y-88313286D01*
X123130008Y-88427412D01*
X123106543Y-88514986D01*
X123095900Y-88554708D01*
X122484458Y-88554708D01*
X122507392Y-88514986D01*
X122541500Y-88387692D01*
X122541500Y-88255908D01*
X122507392Y-88128614D01*
X122441500Y-88014486D01*
X122348314Y-87921300D01*
X122291250Y-87888354D01*
X122234187Y-87855408D01*
X122170539Y-87838354D01*
X122106892Y-87821300D01*
X121975108Y-87821300D01*
X121847812Y-87855408D01*
X121733686Y-87921300D01*
X121733683Y-87921302D01*
X121640502Y-88014483D01*
X121640500Y-88014486D01*
X121574608Y-88128612D01*
X121550094Y-88220102D01*
X121540500Y-88255908D01*
X119479559Y-88255908D01*
X119417300Y-88193649D01*
X119360236Y-88160703D01*
X119303173Y-88127757D01*
X119211773Y-88103267D01*
X119175878Y-88093649D01*
X119044094Y-88093649D01*
X118916798Y-88127757D01*
X118802672Y-88193649D01*
X118802669Y-88193651D01*
X118709488Y-88286832D01*
X118709486Y-88286835D01*
X118643594Y-88400961D01*
X118613175Y-88514488D01*
X118609486Y-88528257D01*
X113000000Y-88528257D01*
X113000000Y-86294108D01*
X113986100Y-86294108D01*
X113986100Y-86425891D01*
X114020208Y-86553187D01*
X114032379Y-86574267D01*
X114086100Y-86667314D01*
X114179286Y-86760500D01*
X114293414Y-86826392D01*
X114420708Y-86860500D01*
X114420710Y-86860500D01*
X114552490Y-86860500D01*
X114552492Y-86860500D01*
X114679786Y-86826392D01*
X114793914Y-86760500D01*
X114887100Y-86667314D01*
X114952992Y-86553186D01*
X114987100Y-86425892D01*
X114987100Y-86306143D01*
X117294299Y-86306143D01*
X117332747Y-86499429D01*
X117332750Y-86499439D01*
X117408164Y-86681507D01*
X117408171Y-86681520D01*
X117517660Y-86845381D01*
X117517663Y-86845385D01*
X117657014Y-86984736D01*
X117657018Y-86984739D01*
X117820879Y-87094228D01*
X117820892Y-87094235D01*
X118002960Y-87169649D01*
X118002965Y-87169651D01*
X118002969Y-87169651D01*
X118002970Y-87169652D01*
X118196256Y-87208100D01*
X118196259Y-87208100D01*
X118393343Y-87208100D01*
X118523382Y-87182232D01*
X118586635Y-87169651D01*
X118768714Y-87094232D01*
X118932582Y-86984739D01*
X119071939Y-86845382D01*
X119091777Y-86815692D01*
X120179529Y-86815692D01*
X120179529Y-86947476D01*
X120194946Y-87005012D01*
X120213637Y-87074771D01*
X120234729Y-87111302D01*
X120279529Y-87188898D01*
X120372715Y-87282084D01*
X120486843Y-87347976D01*
X120614137Y-87382084D01*
X120614139Y-87382084D01*
X120745919Y-87382084D01*
X120745921Y-87382084D01*
X120873215Y-87347976D01*
X120987343Y-87282084D01*
X121080529Y-87188898D01*
X121146421Y-87074770D01*
X121180529Y-86947476D01*
X121180529Y-86827508D01*
X126474100Y-86827508D01*
X126474100Y-86959292D01*
X126486351Y-87005012D01*
X126508208Y-87086587D01*
X126534606Y-87132308D01*
X126574100Y-87200714D01*
X126667286Y-87293900D01*
X126781414Y-87359792D01*
X126908708Y-87393900D01*
X126908710Y-87393900D01*
X127040490Y-87393900D01*
X127040492Y-87393900D01*
X127167786Y-87359792D01*
X127281914Y-87293900D01*
X127375100Y-87200714D01*
X127414594Y-87132308D01*
X129572900Y-87132308D01*
X129572900Y-87264091D01*
X129607008Y-87391387D01*
X129608459Y-87393900D01*
X129672900Y-87505514D01*
X129766086Y-87598700D01*
X129880214Y-87664592D01*
X130007508Y-87698700D01*
X130007510Y-87698700D01*
X130139290Y-87698700D01*
X130139292Y-87698700D01*
X130266586Y-87664592D01*
X130380714Y-87598700D01*
X130473900Y-87505514D01*
X130539792Y-87391386D01*
X130573900Y-87264092D01*
X130573900Y-87132308D01*
X130539792Y-87005014D01*
X130473900Y-86890886D01*
X130380714Y-86797700D01*
X130316277Y-86760497D01*
X130266587Y-86731808D01*
X130148674Y-86700214D01*
X130139292Y-86697700D01*
X130007508Y-86697700D01*
X129880212Y-86731808D01*
X129766086Y-86797700D01*
X129766083Y-86797702D01*
X129672902Y-86890883D01*
X129672900Y-86890886D01*
X129607008Y-87005012D01*
X129572900Y-87132308D01*
X127414594Y-87132308D01*
X127440992Y-87086586D01*
X127475100Y-86959292D01*
X127475100Y-86827508D01*
X127440992Y-86700214D01*
X127375100Y-86586086D01*
X127281914Y-86492900D01*
X127224850Y-86459954D01*
X127167787Y-86427008D01*
X127104139Y-86409954D01*
X127040492Y-86392900D01*
X126908708Y-86392900D01*
X126781412Y-86427008D01*
X126667286Y-86492900D01*
X126667283Y-86492902D01*
X126574102Y-86586083D01*
X126574100Y-86586086D01*
X126508208Y-86700212D01*
X126474399Y-86826391D01*
X126474100Y-86827508D01*
X121180529Y-86827508D01*
X121180529Y-86815692D01*
X121146421Y-86688398D01*
X121142442Y-86681507D01*
X121134248Y-86667314D01*
X121080529Y-86574270D01*
X120987343Y-86481084D01*
X120913411Y-86438399D01*
X120873216Y-86415192D01*
X120790019Y-86392900D01*
X120745921Y-86381084D01*
X120614137Y-86381084D01*
X120486841Y-86415192D01*
X120372715Y-86481084D01*
X120372712Y-86481086D01*
X120279531Y-86574267D01*
X120279529Y-86574270D01*
X120213637Y-86688396D01*
X120184350Y-86797700D01*
X120179529Y-86815692D01*
X119091777Y-86815692D01*
X119103799Y-86797700D01*
X119143239Y-86738675D01*
X119143239Y-86738674D01*
X119168938Y-86700212D01*
X119181432Y-86681514D01*
X119256851Y-86499435D01*
X119273608Y-86415192D01*
X119295300Y-86306143D01*
X119295300Y-86109056D01*
X119295299Y-86109054D01*
X119271235Y-85988074D01*
X119268039Y-85972010D01*
X122427784Y-85972010D01*
X122427784Y-86103794D01*
X122429194Y-86109056D01*
X122461892Y-86231089D01*
X122494838Y-86288152D01*
X122527784Y-86345216D01*
X122620970Y-86438402D01*
X122694901Y-86481086D01*
X122726671Y-86499429D01*
X122735098Y-86504294D01*
X122862392Y-86538402D01*
X122862394Y-86538402D01*
X122994174Y-86538402D01*
X122994176Y-86538402D01*
X123121470Y-86504294D01*
X123235598Y-86438402D01*
X123328784Y-86345216D01*
X123394676Y-86231088D01*
X123428784Y-86103794D01*
X123428784Y-85972010D01*
X123394676Y-85844716D01*
X123328784Y-85730588D01*
X123235598Y-85637402D01*
X123233175Y-85634979D01*
X123199690Y-85573656D01*
X123204674Y-85503964D01*
X123238939Y-85457619D01*
X123237567Y-85456247D01*
X123283924Y-85409890D01*
X123336500Y-85357314D01*
X123402392Y-85243186D01*
X123436500Y-85115892D01*
X123436500Y-84984108D01*
X123402392Y-84856814D01*
X123366997Y-84795508D01*
X123885900Y-84795508D01*
X123885900Y-84927292D01*
X123896377Y-84966392D01*
X123920008Y-85054587D01*
X123948825Y-85104499D01*
X123985900Y-85168714D01*
X124079086Y-85261900D01*
X124142507Y-85298516D01*
X124181394Y-85320968D01*
X124193214Y-85327792D01*
X124320508Y-85361900D01*
X124320510Y-85361900D01*
X124452290Y-85361900D01*
X124452292Y-85361900D01*
X124579586Y-85327792D01*
X124693714Y-85261900D01*
X124786900Y-85168714D01*
X124852792Y-85054586D01*
X124886900Y-84927292D01*
X124886900Y-84795508D01*
X124852792Y-84668214D01*
X124786900Y-84554086D01*
X124693714Y-84460900D01*
X124621129Y-84418993D01*
X124579587Y-84395008D01*
X124515939Y-84377954D01*
X124452292Y-84360900D01*
X124320508Y-84360900D01*
X124193212Y-84395008D01*
X124079086Y-84460900D01*
X124079083Y-84460902D01*
X123985902Y-84554083D01*
X123985900Y-84554086D01*
X123920008Y-84668212D01*
X123897931Y-84750608D01*
X123885900Y-84795508D01*
X123366997Y-84795508D01*
X123336500Y-84742686D01*
X123243314Y-84649500D01*
X123186250Y-84616554D01*
X123129187Y-84583608D01*
X123019007Y-84554086D01*
X123001892Y-84549500D01*
X122870108Y-84549500D01*
X122742812Y-84583608D01*
X122628686Y-84649500D01*
X122628683Y-84649502D01*
X122535502Y-84742683D01*
X122535500Y-84742686D01*
X122469608Y-84856812D01*
X122446381Y-84943500D01*
X122435500Y-84984108D01*
X122435500Y-85115892D01*
X122449654Y-85168716D01*
X122469608Y-85243187D01*
X122489770Y-85278108D01*
X122535500Y-85357314D01*
X122535502Y-85357316D01*
X122631108Y-85452922D01*
X122664593Y-85514245D01*
X122659609Y-85583937D01*
X122625348Y-85630286D01*
X122626717Y-85631655D01*
X122527786Y-85730585D01*
X122527784Y-85730588D01*
X122461892Y-85844714D01*
X122442853Y-85915770D01*
X122427784Y-85972010D01*
X119268039Y-85972010D01*
X119256852Y-85915770D01*
X119256851Y-85915769D01*
X119256851Y-85915765D01*
X119247673Y-85893608D01*
X119181435Y-85733692D01*
X119181428Y-85733679D01*
X119071939Y-85569818D01*
X119071936Y-85569814D01*
X118932585Y-85430463D01*
X118932581Y-85430460D01*
X118768720Y-85320971D01*
X118768707Y-85320964D01*
X118586639Y-85245550D01*
X118586629Y-85245547D01*
X118393343Y-85207100D01*
X118393341Y-85207100D01*
X118196259Y-85207100D01*
X118196257Y-85207100D01*
X118002970Y-85245547D01*
X118002960Y-85245550D01*
X117820892Y-85320964D01*
X117820879Y-85320971D01*
X117657018Y-85430460D01*
X117657014Y-85430463D01*
X117517663Y-85569814D01*
X117517660Y-85569818D01*
X117408171Y-85733679D01*
X117408164Y-85733692D01*
X117332750Y-85915760D01*
X117332747Y-85915770D01*
X117294300Y-86109056D01*
X117294300Y-86109059D01*
X117294300Y-86306141D01*
X117294300Y-86306143D01*
X117294299Y-86306143D01*
X114987100Y-86306143D01*
X114987100Y-86294108D01*
X114952992Y-86166814D01*
X114887100Y-86052686D01*
X114793914Y-85959500D01*
X114718163Y-85915765D01*
X114679787Y-85893608D01*
X114616139Y-85876554D01*
X114552492Y-85859500D01*
X114420708Y-85859500D01*
X114293412Y-85893608D01*
X114179286Y-85959500D01*
X114179283Y-85959502D01*
X114086102Y-86052683D01*
X114086100Y-86052686D01*
X114020208Y-86166812D01*
X113986100Y-86294108D01*
X113000000Y-86294108D01*
X113000000Y-85421254D01*
X113019685Y-85354215D01*
X113072489Y-85308460D01*
X113141647Y-85298516D01*
X113205203Y-85327541D01*
X113242977Y-85386319D01*
X113243768Y-85389137D01*
X113249408Y-85410186D01*
X113315300Y-85524314D01*
X113408486Y-85617500D01*
X113522614Y-85683392D01*
X113649908Y-85717500D01*
X113649910Y-85717500D01*
X113781690Y-85717500D01*
X113781692Y-85717500D01*
X113908986Y-85683392D01*
X114023114Y-85617500D01*
X114116300Y-85524314D01*
X114182192Y-85410186D01*
X114216300Y-85282892D01*
X114216300Y-85278108D01*
X115247300Y-85278108D01*
X115247300Y-85409892D01*
X115252812Y-85430463D01*
X115281408Y-85537187D01*
X115285910Y-85544984D01*
X115347300Y-85651314D01*
X115440486Y-85744500D01*
X115554614Y-85810392D01*
X115681908Y-85844500D01*
X115681910Y-85844500D01*
X115813690Y-85844500D01*
X115813692Y-85844500D01*
X115940986Y-85810392D01*
X116055114Y-85744500D01*
X116148300Y-85651314D01*
X116214192Y-85537186D01*
X116248300Y-85409892D01*
X116248300Y-85278108D01*
X116214192Y-85150814D01*
X116148300Y-85036686D01*
X116055114Y-84943500D01*
X115980636Y-84900500D01*
X115940987Y-84877608D01*
X115863377Y-84856813D01*
X115813692Y-84843500D01*
X115681908Y-84843500D01*
X115554612Y-84877608D01*
X115440486Y-84943500D01*
X115440483Y-84943502D01*
X115347302Y-85036683D01*
X115347300Y-85036686D01*
X115281408Y-85150812D01*
X115256024Y-85245549D01*
X115247300Y-85278108D01*
X114216300Y-85278108D01*
X114216300Y-85151108D01*
X114182192Y-85023814D01*
X114116300Y-84909686D01*
X114023114Y-84816500D01*
X113966050Y-84783554D01*
X113908987Y-84750608D01*
X113845339Y-84733554D01*
X113781692Y-84716500D01*
X113649908Y-84716500D01*
X113522612Y-84750608D01*
X113408486Y-84816500D01*
X113408483Y-84816502D01*
X113315302Y-84909683D01*
X113315300Y-84909686D01*
X113249408Y-85023812D01*
X113243775Y-85044838D01*
X113207410Y-85104499D01*
X113144563Y-85135028D01*
X113075187Y-85126733D01*
X113021310Y-85082248D01*
X113000035Y-85015696D01*
X113000000Y-85012745D01*
X113000000Y-84434108D01*
X118479500Y-84434108D01*
X118479500Y-84565891D01*
X118513608Y-84693187D01*
X118527068Y-84716500D01*
X118579500Y-84807314D01*
X118672686Y-84900500D01*
X118786814Y-84966392D01*
X118914108Y-85000500D01*
X118914110Y-85000500D01*
X119045890Y-85000500D01*
X119045892Y-85000500D01*
X119173186Y-84966392D01*
X119287314Y-84900500D01*
X119380500Y-84807314D01*
X119446392Y-84693186D01*
X119480500Y-84565892D01*
X119480500Y-84546289D01*
X120904592Y-84546289D01*
X120904592Y-84678073D01*
X120908642Y-84693187D01*
X120938700Y-84805368D01*
X120960716Y-84843500D01*
X121004592Y-84919495D01*
X121097778Y-85012681D01*
X121211906Y-85078573D01*
X121339200Y-85112681D01*
X121339202Y-85112681D01*
X121470982Y-85112681D01*
X121470984Y-85112681D01*
X121598278Y-85078573D01*
X121712406Y-85012681D01*
X121805592Y-84919495D01*
X121871484Y-84805367D01*
X121905592Y-84678073D01*
X121905592Y-84546289D01*
X121871484Y-84418995D01*
X121805592Y-84304867D01*
X121712406Y-84211681D01*
X121655342Y-84178735D01*
X121598279Y-84145789D01*
X121534631Y-84128735D01*
X121470984Y-84111681D01*
X121339200Y-84111681D01*
X121211904Y-84145789D01*
X121097778Y-84211681D01*
X121097775Y-84211683D01*
X121004594Y-84304864D01*
X121004592Y-84304867D01*
X120938700Y-84418993D01*
X120927471Y-84460902D01*
X120904592Y-84546289D01*
X119480500Y-84546289D01*
X119480500Y-84434108D01*
X119446392Y-84306814D01*
X119380500Y-84192686D01*
X119287314Y-84099500D01*
X119230250Y-84066554D01*
X119173187Y-84033608D01*
X119109539Y-84016554D01*
X119045892Y-83999500D01*
X118914108Y-83999500D01*
X118786812Y-84033608D01*
X118672686Y-84099500D01*
X118672683Y-84099502D01*
X118579502Y-84192683D01*
X118579500Y-84192686D01*
X118513608Y-84306812D01*
X118479500Y-84434108D01*
X113000000Y-84434108D01*
X113000000Y-83362909D01*
X113019685Y-83295870D01*
X113072489Y-83250115D01*
X113085675Y-83244980D01*
X113263379Y-83187241D01*
X113347247Y-83144508D01*
X126499500Y-83144508D01*
X126499500Y-83276291D01*
X126533608Y-83403587D01*
X126566554Y-83460650D01*
X126599500Y-83517714D01*
X126692686Y-83610900D01*
X126806814Y-83676792D01*
X126934108Y-83710900D01*
X126934110Y-83710900D01*
X127065890Y-83710900D01*
X127065892Y-83710900D01*
X127193186Y-83676792D01*
X127307314Y-83610900D01*
X127400500Y-83517714D01*
X127466392Y-83403586D01*
X127500500Y-83276292D01*
X127500500Y-83144508D01*
X127466392Y-83017214D01*
X127400500Y-82903086D01*
X127307314Y-82809900D01*
X127250250Y-82776954D01*
X127193187Y-82744008D01*
X127129539Y-82726954D01*
X127065892Y-82709900D01*
X126934108Y-82709900D01*
X126806812Y-82744008D01*
X126692686Y-82809900D01*
X126692683Y-82809902D01*
X126599502Y-82903083D01*
X126599500Y-82903086D01*
X126533608Y-83017212D01*
X126499500Y-83144508D01*
X113347247Y-83144508D01*
X113487845Y-83072870D01*
X113492162Y-83069733D01*
X113538507Y-83036063D01*
X113691192Y-82925130D01*
X113691656Y-82924793D01*
X113869793Y-82746656D01*
X114017870Y-82542845D01*
X114132241Y-82318379D01*
X114210090Y-82078785D01*
X114249500Y-81829962D01*
X114249500Y-81578038D01*
X114210090Y-81329215D01*
X114132241Y-81089621D01*
X114132239Y-81089618D01*
X114132239Y-81089616D01*
X114079835Y-80986769D01*
X114039355Y-80907322D01*
X114026460Y-80838656D01*
X114052736Y-80773915D01*
X114109842Y-80733658D01*
X114149747Y-80727030D01*
X114472768Y-80726792D01*
X114539819Y-80746427D01*
X114585612Y-80799197D01*
X114595607Y-80868349D01*
X114575958Y-80919683D01*
X114531132Y-80986769D01*
X114531131Y-80986770D01*
X114519500Y-81045247D01*
X114519500Y-82784752D01*
X114531131Y-82843229D01*
X114531132Y-82843230D01*
X114575447Y-82909552D01*
X114641769Y-82953867D01*
X114641770Y-82953868D01*
X114700247Y-82965499D01*
X114700250Y-82965500D01*
X114700252Y-82965500D01*
X116439750Y-82965500D01*
X116439751Y-82965499D01*
X116454568Y-82962552D01*
X116498229Y-82953868D01*
X116498229Y-82953867D01*
X116498231Y-82953867D01*
X116564552Y-82909552D01*
X116608867Y-82843231D01*
X116608867Y-82843229D01*
X116608868Y-82843229D01*
X116620499Y-82784752D01*
X116620500Y-82784750D01*
X116620500Y-81045249D01*
X116620499Y-81045247D01*
X116608868Y-80986770D01*
X116608867Y-80986769D01*
X116562964Y-80918071D01*
X116542086Y-80851394D01*
X116560570Y-80784014D01*
X116612549Y-80737323D01*
X116665972Y-80725180D01*
X117615594Y-80724482D01*
X117682647Y-80744117D01*
X117728440Y-80796888D01*
X117738435Y-80866039D01*
X117709457Y-80929616D01*
X117663138Y-80963043D01*
X117612402Y-80984058D01*
X117440342Y-81099024D01*
X117294024Y-81245342D01*
X117179058Y-81417403D01*
X117099870Y-81608579D01*
X117099868Y-81608587D01*
X117059500Y-81811530D01*
X117059500Y-82018469D01*
X117099868Y-82221412D01*
X117099870Y-82221420D01*
X117179058Y-82412596D01*
X117294024Y-82584657D01*
X117440342Y-82730975D01*
X117440345Y-82730977D01*
X117612402Y-82845941D01*
X117803580Y-82925130D01*
X117948052Y-82953867D01*
X118006530Y-82965499D01*
X118006534Y-82965500D01*
X118006535Y-82965500D01*
X118213466Y-82965500D01*
X118213467Y-82965499D01*
X118416420Y-82925130D01*
X118607598Y-82845941D01*
X118779655Y-82730977D01*
X118925977Y-82584655D01*
X119040941Y-82412598D01*
X119120130Y-82221420D01*
X119160500Y-82018465D01*
X119160500Y-81811535D01*
X119120130Y-81608580D01*
X119040941Y-81417402D01*
X118925977Y-81245345D01*
X118925975Y-81245342D01*
X118779657Y-81099024D01*
X118607597Y-80984058D01*
X118555109Y-80962317D01*
X118500706Y-80918475D01*
X118478642Y-80852181D01*
X118495922Y-80784482D01*
X118547059Y-80736872D01*
X118602468Y-80723756D01*
X120160111Y-80722611D01*
X120227163Y-80742246D01*
X120272956Y-80795017D01*
X120282951Y-80864168D01*
X120253973Y-80927745D01*
X120207655Y-80961171D01*
X120152404Y-80984057D01*
X119980342Y-81099024D01*
X119834024Y-81245342D01*
X119719058Y-81417403D01*
X119639870Y-81608579D01*
X119639868Y-81608587D01*
X119599500Y-81811530D01*
X119599500Y-82018469D01*
X119639868Y-82221412D01*
X119639870Y-82221420D01*
X119719058Y-82412596D01*
X119834024Y-82584657D01*
X119980342Y-82730975D01*
X119980345Y-82730977D01*
X120152402Y-82845941D01*
X120343580Y-82925130D01*
X120488052Y-82953867D01*
X120546530Y-82965499D01*
X120546534Y-82965500D01*
X120546535Y-82965500D01*
X120753466Y-82965500D01*
X120753467Y-82965499D01*
X120956420Y-82925130D01*
X121147598Y-82845941D01*
X121319655Y-82730977D01*
X121465977Y-82584655D01*
X121580941Y-82412598D01*
X121660130Y-82221420D01*
X121700500Y-82018465D01*
X121700500Y-81811535D01*
X121660130Y-81608580D01*
X121580941Y-81417402D01*
X121465977Y-81245345D01*
X121465975Y-81245342D01*
X121319657Y-81099024D01*
X121147597Y-80984058D01*
X121090609Y-80960453D01*
X121036206Y-80916611D01*
X121014142Y-80850317D01*
X121031422Y-80782618D01*
X121082559Y-80735008D01*
X121137968Y-80721892D01*
X122704626Y-80720741D01*
X122771680Y-80740376D01*
X122817473Y-80793147D01*
X122827468Y-80862298D01*
X122798490Y-80925875D01*
X122752170Y-80959302D01*
X122692403Y-80984057D01*
X122520342Y-81099024D01*
X122374024Y-81245342D01*
X122259058Y-81417403D01*
X122179870Y-81608579D01*
X122179868Y-81608587D01*
X122139500Y-81811530D01*
X122139500Y-82018469D01*
X122179868Y-82221412D01*
X122179870Y-82221420D01*
X122259058Y-82412596D01*
X122374024Y-82584657D01*
X122520342Y-82730975D01*
X122520345Y-82730977D01*
X122692402Y-82845941D01*
X122883580Y-82925130D01*
X123028052Y-82953867D01*
X123086530Y-82965499D01*
X123086534Y-82965500D01*
X123086535Y-82965500D01*
X123293466Y-82965500D01*
X123293467Y-82965499D01*
X123496420Y-82925130D01*
X123687598Y-82845941D01*
X123859655Y-82730977D01*
X124005977Y-82584655D01*
X124120941Y-82412598D01*
X124200130Y-82221420D01*
X124240500Y-82018465D01*
X124240500Y-81811535D01*
X124200130Y-81608580D01*
X124120941Y-81417402D01*
X124005977Y-81245345D01*
X124005975Y-81245342D01*
X123859657Y-81099024D01*
X123687597Y-80984058D01*
X123626109Y-80958589D01*
X123571706Y-80914747D01*
X123549642Y-80848453D01*
X123566922Y-80780754D01*
X123618059Y-80733144D01*
X123673468Y-80720028D01*
X125249143Y-80718870D01*
X125316196Y-80738505D01*
X125361989Y-80791276D01*
X125371984Y-80860427D01*
X125343006Y-80924004D01*
X125296686Y-80957431D01*
X125232404Y-80984057D01*
X125060342Y-81099024D01*
X124914024Y-81245342D01*
X124799058Y-81417403D01*
X124719870Y-81608579D01*
X124719868Y-81608587D01*
X124679500Y-81811530D01*
X124679500Y-82018469D01*
X124719868Y-82221412D01*
X124719870Y-82221420D01*
X124799058Y-82412596D01*
X124914024Y-82584657D01*
X125060342Y-82730975D01*
X125060345Y-82730977D01*
X125232402Y-82845941D01*
X125423580Y-82925130D01*
X125568052Y-82953867D01*
X125626530Y-82965499D01*
X125626534Y-82965500D01*
X125626535Y-82965500D01*
X125833466Y-82965500D01*
X125833467Y-82965499D01*
X126036420Y-82925130D01*
X126227598Y-82845941D01*
X126399655Y-82730977D01*
X126545977Y-82584655D01*
X126660941Y-82412598D01*
X126740130Y-82221420D01*
X126780500Y-82018465D01*
X126780500Y-81811535D01*
X126740130Y-81608580D01*
X126660941Y-81417402D01*
X126545977Y-81245345D01*
X126545975Y-81245342D01*
X126399657Y-81099024D01*
X126227597Y-80984058D01*
X126161609Y-80956725D01*
X126107206Y-80912883D01*
X126085142Y-80846589D01*
X126102422Y-80778890D01*
X126153559Y-80731280D01*
X126208969Y-80718164D01*
X127793660Y-80716999D01*
X127860712Y-80736634D01*
X127906505Y-80789405D01*
X127916500Y-80858556D01*
X127887522Y-80922133D01*
X127841203Y-80955560D01*
X127772402Y-80984058D01*
X127600342Y-81099024D01*
X127454024Y-81245342D01*
X127339058Y-81417403D01*
X127259870Y-81608579D01*
X127259868Y-81608587D01*
X127219500Y-81811530D01*
X127219500Y-82018469D01*
X127259868Y-82221412D01*
X127259870Y-82221420D01*
X127339058Y-82412596D01*
X127454024Y-82584657D01*
X127600342Y-82730975D01*
X127600345Y-82730977D01*
X127772402Y-82845941D01*
X127963580Y-82925130D01*
X128108052Y-82953867D01*
X128166530Y-82965499D01*
X128166534Y-82965500D01*
X128166535Y-82965500D01*
X128373466Y-82965500D01*
X128373467Y-82965499D01*
X128576420Y-82925130D01*
X128767598Y-82845941D01*
X128939655Y-82730977D01*
X129085977Y-82584655D01*
X129200941Y-82412598D01*
X129280130Y-82221420D01*
X129320500Y-82018465D01*
X129320500Y-81811535D01*
X129280130Y-81608580D01*
X129200941Y-81417402D01*
X129085977Y-81245345D01*
X129085975Y-81245342D01*
X128939657Y-81099024D01*
X128767595Y-80984057D01*
X128697109Y-80954861D01*
X128642706Y-80911020D01*
X128620641Y-80844725D01*
X128637920Y-80777026D01*
X128689058Y-80729416D01*
X128744468Y-80716300D01*
X130338177Y-80715128D01*
X130405228Y-80734763D01*
G37*
G04 #@! TD.AperFunction*
G04 #@! TA.AperFunction,Conductor*
G36*
X126845270Y-100253517D02*
G01*
X126845270Y-100253516D01*
X126884622Y-100199354D01*
X126981095Y-100010017D01*
X127038343Y-99833826D01*
X127077780Y-99776151D01*
X127142139Y-99748952D01*
X127210985Y-99760866D01*
X127262461Y-99808110D01*
X127270835Y-99824691D01*
X127334925Y-99979419D01*
X127339059Y-99989398D01*
X127352836Y-100010017D01*
X127454024Y-100161457D01*
X127600342Y-100307775D01*
X127600345Y-100307777D01*
X127772402Y-100422741D01*
X127963580Y-100501930D01*
X128024221Y-100513992D01*
X128067796Y-100522660D01*
X128129707Y-100555044D01*
X128164281Y-100615760D01*
X128160542Y-100685530D01*
X128119676Y-100742202D01*
X128054658Y-100767783D01*
X128043575Y-100768277D01*
X126613169Y-100767932D01*
X126546134Y-100748231D01*
X126500392Y-100695416D01*
X126489581Y-100634202D01*
X126491716Y-100607069D01*
X125859408Y-99974762D01*
X125922993Y-99957725D01*
X126037007Y-99891899D01*
X126130099Y-99798807D01*
X126195925Y-99684793D01*
X126212962Y-99621208D01*
X126845270Y-100253517D01*
G37*
G04 #@! TD.AperFunction*
G04 #@! TA.AperFunction,Conductor*
G36*
X125264075Y-99684793D02*
G01*
X125329901Y-99798807D01*
X125422993Y-99891899D01*
X125537007Y-99957725D01*
X125600591Y-99974762D01*
X124968282Y-100607070D01*
X124970384Y-100633777D01*
X124956020Y-100702154D01*
X124906968Y-100751911D01*
X124846736Y-100767506D01*
X123421965Y-100767163D01*
X123354930Y-100747462D01*
X123309188Y-100694647D01*
X123299261Y-100625486D01*
X123328302Y-100561938D01*
X123387089Y-100524177D01*
X123397804Y-100521546D01*
X123421214Y-100516889D01*
X123496420Y-100501930D01*
X123687598Y-100422741D01*
X123859655Y-100307777D01*
X124005977Y-100161455D01*
X124120941Y-99989398D01*
X124189165Y-99824689D01*
X124233004Y-99770288D01*
X124299298Y-99748223D01*
X124366998Y-99765502D01*
X124414609Y-99816639D01*
X124421656Y-99833826D01*
X124478904Y-100010016D01*
X124575375Y-100199350D01*
X124614728Y-100253516D01*
X125247037Y-99621208D01*
X125264075Y-99684793D01*
G37*
G04 #@! TD.AperFunction*
G04 #@! TD*
M02*
