%TF.GenerationSoftware,KiCad,Pcbnew,10.0.3*%
%TF.CreationDate,2026-06-24T15:18:47-07:00*%
%TF.ProjectId,scramble_hat,73637261-6d62-46c6-955f-6861742e6b69,rev?*%
%TF.SameCoordinates,Original*%
%TF.FileFunction,Legend,Top*%
%TF.FilePolarity,Positive*%
%FSLAX46Y46*%
G04 Gerber Fmt 4.6, Leading zero omitted, Abs format (unit mm)*
G04 Created by KiCad (PCBNEW 10.0.3) date 2026-06-24 15:18:47*
%MOMM*%
%LPD*%
G01*
G04 APERTURE LIST*
%ADD10C,0.125000*%
%ADD11C,0.150000*%
%ADD12C,0.100000*%
%ADD13C,0.120000*%
G04 APERTURE END LIST*
D10*
X120970331Y-93145831D02*
X120970331Y-92145831D01*
X120970331Y-92145831D02*
X121351283Y-92145831D01*
X121351283Y-92145831D02*
X121446521Y-92193450D01*
X121446521Y-92193450D02*
X121494140Y-92241069D01*
X121494140Y-92241069D02*
X121541759Y-92336307D01*
X121541759Y-92336307D02*
X121541759Y-92479164D01*
X121541759Y-92479164D02*
X121494140Y-92574402D01*
X121494140Y-92574402D02*
X121446521Y-92622021D01*
X121446521Y-92622021D02*
X121351283Y-92669640D01*
X121351283Y-92669640D02*
X120970331Y-92669640D01*
X121970331Y-93145831D02*
X121970331Y-92145831D01*
X121970331Y-92622021D02*
X122541759Y-92622021D01*
X122541759Y-93145831D02*
X122541759Y-92145831D01*
X123017950Y-93145831D02*
X123017950Y-92145831D01*
X123017950Y-92145831D02*
X123589378Y-93145831D01*
X123589378Y-93145831D02*
X123589378Y-92145831D01*
X123922712Y-92145831D02*
X124494140Y-92145831D01*
X124208426Y-93145831D02*
X124208426Y-92145831D01*
X124827474Y-93145831D02*
X124827474Y-92145831D01*
X124827474Y-92145831D02*
X125160807Y-92860116D01*
X125160807Y-92860116D02*
X125494140Y-92145831D01*
X125494140Y-92145831D02*
X125494140Y-93145831D01*
X120970331Y-94755775D02*
X120970331Y-93755775D01*
X120970331Y-93755775D02*
X121351283Y-93755775D01*
X121351283Y-93755775D02*
X121446521Y-93803394D01*
X121446521Y-93803394D02*
X121494140Y-93851013D01*
X121494140Y-93851013D02*
X121541759Y-93946251D01*
X121541759Y-93946251D02*
X121541759Y-94089108D01*
X121541759Y-94089108D02*
X121494140Y-94184346D01*
X121494140Y-94184346D02*
X121446521Y-94231965D01*
X121446521Y-94231965D02*
X121351283Y-94279584D01*
X121351283Y-94279584D02*
X120970331Y-94279584D01*
X122160807Y-93755775D02*
X122351283Y-93755775D01*
X122351283Y-93755775D02*
X122446521Y-93803394D01*
X122446521Y-93803394D02*
X122541759Y-93898632D01*
X122541759Y-93898632D02*
X122589378Y-94089108D01*
X122589378Y-94089108D02*
X122589378Y-94422441D01*
X122589378Y-94422441D02*
X122541759Y-94612917D01*
X122541759Y-94612917D02*
X122446521Y-94708156D01*
X122446521Y-94708156D02*
X122351283Y-94755775D01*
X122351283Y-94755775D02*
X122160807Y-94755775D01*
X122160807Y-94755775D02*
X122065569Y-94708156D01*
X122065569Y-94708156D02*
X121970331Y-94612917D01*
X121970331Y-94612917D02*
X121922712Y-94422441D01*
X121922712Y-94422441D02*
X121922712Y-94089108D01*
X121922712Y-94089108D02*
X121970331Y-93898632D01*
X121970331Y-93898632D02*
X122065569Y-93803394D01*
X122065569Y-93803394D02*
X122160807Y-93755775D01*
X122922712Y-93755775D02*
X123160807Y-94755775D01*
X123160807Y-94755775D02*
X123351283Y-94041489D01*
X123351283Y-94041489D02*
X123541759Y-94755775D01*
X123541759Y-94755775D02*
X123779855Y-93755775D01*
X124160807Y-94231965D02*
X124494140Y-94231965D01*
X124636997Y-94755775D02*
X124160807Y-94755775D01*
X124160807Y-94755775D02*
X124160807Y-93755775D01*
X124160807Y-93755775D02*
X124636997Y-93755775D01*
X125636997Y-94755775D02*
X125303664Y-94279584D01*
X125065569Y-94755775D02*
X125065569Y-93755775D01*
X125065569Y-93755775D02*
X125446521Y-93755775D01*
X125446521Y-93755775D02*
X125541759Y-93803394D01*
X125541759Y-93803394D02*
X125589378Y-93851013D01*
X125589378Y-93851013D02*
X125636997Y-93946251D01*
X125636997Y-93946251D02*
X125636997Y-94089108D01*
X125636997Y-94089108D02*
X125589378Y-94184346D01*
X125589378Y-94184346D02*
X125541759Y-94231965D01*
X125541759Y-94231965D02*
X125446521Y-94279584D01*
X125446521Y-94279584D02*
X125065569Y-94279584D01*
X121541759Y-96270480D02*
X121494140Y-96318100D01*
X121494140Y-96318100D02*
X121351283Y-96365719D01*
X121351283Y-96365719D02*
X121256045Y-96365719D01*
X121256045Y-96365719D02*
X121113188Y-96318100D01*
X121113188Y-96318100D02*
X121017950Y-96222861D01*
X121017950Y-96222861D02*
X120970331Y-96127623D01*
X120970331Y-96127623D02*
X120922712Y-95937147D01*
X120922712Y-95937147D02*
X120922712Y-95794290D01*
X120922712Y-95794290D02*
X120970331Y-95603814D01*
X120970331Y-95603814D02*
X121017950Y-95508576D01*
X121017950Y-95508576D02*
X121113188Y-95413338D01*
X121113188Y-95413338D02*
X121256045Y-95365719D01*
X121256045Y-95365719D02*
X121351283Y-95365719D01*
X121351283Y-95365719D02*
X121494140Y-95413338D01*
X121494140Y-95413338D02*
X121541759Y-95460957D01*
X122160807Y-95365719D02*
X122351283Y-95365719D01*
X122351283Y-95365719D02*
X122446521Y-95413338D01*
X122446521Y-95413338D02*
X122541759Y-95508576D01*
X122541759Y-95508576D02*
X122589378Y-95699052D01*
X122589378Y-95699052D02*
X122589378Y-96032385D01*
X122589378Y-96032385D02*
X122541759Y-96222861D01*
X122541759Y-96222861D02*
X122446521Y-96318100D01*
X122446521Y-96318100D02*
X122351283Y-96365719D01*
X122351283Y-96365719D02*
X122160807Y-96365719D01*
X122160807Y-96365719D02*
X122065569Y-96318100D01*
X122065569Y-96318100D02*
X121970331Y-96222861D01*
X121970331Y-96222861D02*
X121922712Y-96032385D01*
X121922712Y-96032385D02*
X121922712Y-95699052D01*
X121922712Y-95699052D02*
X121970331Y-95508576D01*
X121970331Y-95508576D02*
X122065569Y-95413338D01*
X122065569Y-95413338D02*
X122160807Y-95365719D01*
X123017950Y-96365719D02*
X123017950Y-95365719D01*
X123017950Y-95365719D02*
X123589378Y-96365719D01*
X123589378Y-96365719D02*
X123589378Y-95365719D01*
X124065569Y-96365719D02*
X124065569Y-95365719D01*
X124065569Y-95365719D02*
X124636997Y-96365719D01*
X124636997Y-96365719D02*
X124636997Y-95365719D01*
D11*
X107413466Y-81058609D02*
X107080133Y-81058609D01*
X107080133Y-81582419D02*
X107080133Y-80582419D01*
X107080133Y-80582419D02*
X107556323Y-80582419D01*
X108461085Y-81582419D02*
X107889657Y-81582419D01*
X108175371Y-81582419D02*
X108175371Y-80582419D01*
X108175371Y-80582419D02*
X108080133Y-80725276D01*
X108080133Y-80725276D02*
X107984895Y-80820514D01*
X107984895Y-80820514D02*
X107889657Y-80868133D01*
X107643705Y-88262619D02*
X107643705Y-87262619D01*
X107643705Y-87262619D02*
X107881800Y-87262619D01*
X107881800Y-87262619D02*
X108024657Y-87310238D01*
X108024657Y-87310238D02*
X108119895Y-87405476D01*
X108119895Y-87405476D02*
X108167514Y-87500714D01*
X108167514Y-87500714D02*
X108215133Y-87691190D01*
X108215133Y-87691190D02*
X108215133Y-87834047D01*
X108215133Y-87834047D02*
X108167514Y-88024523D01*
X108167514Y-88024523D02*
X108119895Y-88119761D01*
X108119895Y-88119761D02*
X108024657Y-88215000D01*
X108024657Y-88215000D02*
X107881800Y-88262619D01*
X107881800Y-88262619D02*
X107643705Y-88262619D01*
X109167514Y-88262619D02*
X108596086Y-88262619D01*
X108881800Y-88262619D02*
X108881800Y-87262619D01*
X108881800Y-87262619D02*
X108786562Y-87405476D01*
X108786562Y-87405476D02*
X108691324Y-87500714D01*
X108691324Y-87500714D02*
X108596086Y-87548333D01*
X106849942Y-94974580D02*
X106802323Y-95022200D01*
X106802323Y-95022200D02*
X106659466Y-95069819D01*
X106659466Y-95069819D02*
X106564228Y-95069819D01*
X106564228Y-95069819D02*
X106421371Y-95022200D01*
X106421371Y-95022200D02*
X106326133Y-94926961D01*
X106326133Y-94926961D02*
X106278514Y-94831723D01*
X106278514Y-94831723D02*
X106230895Y-94641247D01*
X106230895Y-94641247D02*
X106230895Y-94498390D01*
X106230895Y-94498390D02*
X106278514Y-94307914D01*
X106278514Y-94307914D02*
X106326133Y-94212676D01*
X106326133Y-94212676D02*
X106421371Y-94117438D01*
X106421371Y-94117438D02*
X106564228Y-94069819D01*
X106564228Y-94069819D02*
X106659466Y-94069819D01*
X106659466Y-94069819D02*
X106802323Y-94117438D01*
X106802323Y-94117438D02*
X106849942Y-94165057D01*
X107802323Y-95069819D02*
X107230895Y-95069819D01*
X107516609Y-95069819D02*
X107516609Y-94069819D01*
X107516609Y-94069819D02*
X107421371Y-94212676D01*
X107421371Y-94212676D02*
X107326133Y-94307914D01*
X107326133Y-94307914D02*
X107230895Y-94355533D01*
X108659466Y-94403152D02*
X108659466Y-95069819D01*
X108421371Y-94022200D02*
X108183276Y-94736485D01*
X108183276Y-94736485D02*
X108802323Y-94736485D01*
X114215942Y-96797019D02*
X113882609Y-96320828D01*
X113644514Y-96797019D02*
X113644514Y-95797019D01*
X113644514Y-95797019D02*
X114025466Y-95797019D01*
X114025466Y-95797019D02*
X114120704Y-95844638D01*
X114120704Y-95844638D02*
X114168323Y-95892257D01*
X114168323Y-95892257D02*
X114215942Y-95987495D01*
X114215942Y-95987495D02*
X114215942Y-96130352D01*
X114215942Y-96130352D02*
X114168323Y-96225590D01*
X114168323Y-96225590D02*
X114120704Y-96273209D01*
X114120704Y-96273209D02*
X114025466Y-96320828D01*
X114025466Y-96320828D02*
X113644514Y-96320828D01*
X115168323Y-96797019D02*
X114596895Y-96797019D01*
X114882609Y-96797019D02*
X114882609Y-95797019D01*
X114882609Y-95797019D02*
X114787371Y-95939876D01*
X114787371Y-95939876D02*
X114692133Y-96035114D01*
X114692133Y-96035114D02*
X114596895Y-96082733D01*
X115787371Y-95797019D02*
X115882609Y-95797019D01*
X115882609Y-95797019D02*
X115977847Y-95844638D01*
X115977847Y-95844638D02*
X116025466Y-95892257D01*
X116025466Y-95892257D02*
X116073085Y-95987495D01*
X116073085Y-95987495D02*
X116120704Y-96177971D01*
X116120704Y-96177971D02*
X116120704Y-96416066D01*
X116120704Y-96416066D02*
X116073085Y-96606542D01*
X116073085Y-96606542D02*
X116025466Y-96701780D01*
X116025466Y-96701780D02*
X115977847Y-96749400D01*
X115977847Y-96749400D02*
X115882609Y-96797019D01*
X115882609Y-96797019D02*
X115787371Y-96797019D01*
X115787371Y-96797019D02*
X115692133Y-96749400D01*
X115692133Y-96749400D02*
X115644514Y-96701780D01*
X115644514Y-96701780D02*
X115596895Y-96606542D01*
X115596895Y-96606542D02*
X115549276Y-96416066D01*
X115549276Y-96416066D02*
X115549276Y-96177971D01*
X115549276Y-96177971D02*
X115596895Y-95987495D01*
X115596895Y-95987495D02*
X115644514Y-95892257D01*
X115644514Y-95892257D02*
X115692133Y-95844638D01*
X115692133Y-95844638D02*
X115787371Y-95797019D01*
X128514242Y-86003019D02*
X128180909Y-85526828D01*
X127942814Y-86003019D02*
X127942814Y-85003019D01*
X127942814Y-85003019D02*
X128323766Y-85003019D01*
X128323766Y-85003019D02*
X128419004Y-85050638D01*
X128419004Y-85050638D02*
X128466623Y-85098257D01*
X128466623Y-85098257D02*
X128514242Y-85193495D01*
X128514242Y-85193495D02*
X128514242Y-85336352D01*
X128514242Y-85336352D02*
X128466623Y-85431590D01*
X128466623Y-85431590D02*
X128419004Y-85479209D01*
X128419004Y-85479209D02*
X128323766Y-85526828D01*
X128323766Y-85526828D02*
X127942814Y-85526828D01*
X129466623Y-86003019D02*
X128895195Y-86003019D01*
X129180909Y-86003019D02*
X129180909Y-85003019D01*
X129180909Y-85003019D02*
X129085671Y-85145876D01*
X129085671Y-85145876D02*
X128990433Y-85241114D01*
X128990433Y-85241114D02*
X128895195Y-85288733D01*
X130323766Y-85003019D02*
X130133290Y-85003019D01*
X130133290Y-85003019D02*
X130038052Y-85050638D01*
X130038052Y-85050638D02*
X129990433Y-85098257D01*
X129990433Y-85098257D02*
X129895195Y-85241114D01*
X129895195Y-85241114D02*
X129847576Y-85431590D01*
X129847576Y-85431590D02*
X129847576Y-85812542D01*
X129847576Y-85812542D02*
X129895195Y-85907780D01*
X129895195Y-85907780D02*
X129942814Y-85955400D01*
X129942814Y-85955400D02*
X130038052Y-86003019D01*
X130038052Y-86003019D02*
X130228528Y-86003019D01*
X130228528Y-86003019D02*
X130323766Y-85955400D01*
X130323766Y-85955400D02*
X130371385Y-85907780D01*
X130371385Y-85907780D02*
X130419004Y-85812542D01*
X130419004Y-85812542D02*
X130419004Y-85574447D01*
X130419004Y-85574447D02*
X130371385Y-85479209D01*
X130371385Y-85479209D02*
X130323766Y-85431590D01*
X130323766Y-85431590D02*
X130228528Y-85383971D01*
X130228528Y-85383971D02*
X130038052Y-85383971D01*
X130038052Y-85383971D02*
X129942814Y-85431590D01*
X129942814Y-85431590D02*
X129895195Y-85479209D01*
X129895195Y-85479209D02*
X129847576Y-85574447D01*
X105127466Y-94120619D02*
X105127466Y-94834904D01*
X105127466Y-94834904D02*
X105079847Y-94977761D01*
X105079847Y-94977761D02*
X104984609Y-95073000D01*
X104984609Y-95073000D02*
X104841752Y-95120619D01*
X104841752Y-95120619D02*
X104746514Y-95120619D01*
X105556038Y-94215857D02*
X105603657Y-94168238D01*
X105603657Y-94168238D02*
X105698895Y-94120619D01*
X105698895Y-94120619D02*
X105936990Y-94120619D01*
X105936990Y-94120619D02*
X106032228Y-94168238D01*
X106032228Y-94168238D02*
X106079847Y-94215857D01*
X106079847Y-94215857D02*
X106127466Y-94311095D01*
X106127466Y-94311095D02*
X106127466Y-94406333D01*
X106127466Y-94406333D02*
X106079847Y-94549190D01*
X106079847Y-94549190D02*
X105508419Y-95120619D01*
X105508419Y-95120619D02*
X106127466Y-95120619D01*
X113484066Y-82741419D02*
X113484066Y-83455704D01*
X113484066Y-83455704D02*
X113436447Y-83598561D01*
X113436447Y-83598561D02*
X113341209Y-83693800D01*
X113341209Y-83693800D02*
X113198352Y-83741419D01*
X113198352Y-83741419D02*
X113103114Y-83741419D01*
X113865019Y-82741419D02*
X114484066Y-82741419D01*
X114484066Y-82741419D02*
X114150733Y-83122371D01*
X114150733Y-83122371D02*
X114293590Y-83122371D01*
X114293590Y-83122371D02*
X114388828Y-83169990D01*
X114388828Y-83169990D02*
X114436447Y-83217609D01*
X114436447Y-83217609D02*
X114484066Y-83312847D01*
X114484066Y-83312847D02*
X114484066Y-83550942D01*
X114484066Y-83550942D02*
X114436447Y-83646180D01*
X114436447Y-83646180D02*
X114388828Y-83693800D01*
X114388828Y-83693800D02*
X114293590Y-83741419D01*
X114293590Y-83741419D02*
X114007876Y-83741419D01*
X114007876Y-83741419D02*
X113912638Y-83693800D01*
X113912638Y-83693800D02*
X113865019Y-83646180D01*
X121056495Y-87694419D02*
X121056495Y-88503942D01*
X121056495Y-88503942D02*
X121104114Y-88599180D01*
X121104114Y-88599180D02*
X121151733Y-88646800D01*
X121151733Y-88646800D02*
X121246971Y-88694419D01*
X121246971Y-88694419D02*
X121437447Y-88694419D01*
X121437447Y-88694419D02*
X121532685Y-88646800D01*
X121532685Y-88646800D02*
X121580304Y-88599180D01*
X121580304Y-88599180D02*
X121627923Y-88503942D01*
X121627923Y-88503942D02*
X121627923Y-87694419D01*
X122056495Y-87789657D02*
X122104114Y-87742038D01*
X122104114Y-87742038D02*
X122199352Y-87694419D01*
X122199352Y-87694419D02*
X122437447Y-87694419D01*
X122437447Y-87694419D02*
X122532685Y-87742038D01*
X122532685Y-87742038D02*
X122580304Y-87789657D01*
X122580304Y-87789657D02*
X122627923Y-87884895D01*
X122627923Y-87884895D02*
X122627923Y-87980133D01*
X122627923Y-87980133D02*
X122580304Y-88122990D01*
X122580304Y-88122990D02*
X122008876Y-88694419D01*
X122008876Y-88694419D02*
X122627923Y-88694419D01*
X106849942Y-96955780D02*
X106802323Y-97003400D01*
X106802323Y-97003400D02*
X106659466Y-97051019D01*
X106659466Y-97051019D02*
X106564228Y-97051019D01*
X106564228Y-97051019D02*
X106421371Y-97003400D01*
X106421371Y-97003400D02*
X106326133Y-96908161D01*
X106326133Y-96908161D02*
X106278514Y-96812923D01*
X106278514Y-96812923D02*
X106230895Y-96622447D01*
X106230895Y-96622447D02*
X106230895Y-96479590D01*
X106230895Y-96479590D02*
X106278514Y-96289114D01*
X106278514Y-96289114D02*
X106326133Y-96193876D01*
X106326133Y-96193876D02*
X106421371Y-96098638D01*
X106421371Y-96098638D02*
X106564228Y-96051019D01*
X106564228Y-96051019D02*
X106659466Y-96051019D01*
X106659466Y-96051019D02*
X106802323Y-96098638D01*
X106802323Y-96098638D02*
X106849942Y-96146257D01*
X107802323Y-97051019D02*
X107230895Y-97051019D01*
X107516609Y-97051019D02*
X107516609Y-96051019D01*
X107516609Y-96051019D02*
X107421371Y-96193876D01*
X107421371Y-96193876D02*
X107326133Y-96289114D01*
X107326133Y-96289114D02*
X107230895Y-96336733D01*
X108707085Y-96051019D02*
X108230895Y-96051019D01*
X108230895Y-96051019D02*
X108183276Y-96527209D01*
X108183276Y-96527209D02*
X108230895Y-96479590D01*
X108230895Y-96479590D02*
X108326133Y-96431971D01*
X108326133Y-96431971D02*
X108564228Y-96431971D01*
X108564228Y-96431971D02*
X108659466Y-96479590D01*
X108659466Y-96479590D02*
X108707085Y-96527209D01*
X108707085Y-96527209D02*
X108754704Y-96622447D01*
X108754704Y-96622447D02*
X108754704Y-96860542D01*
X108754704Y-96860542D02*
X108707085Y-96955780D01*
X108707085Y-96955780D02*
X108659466Y-97003400D01*
X108659466Y-97003400D02*
X108564228Y-97051019D01*
X108564228Y-97051019D02*
X108326133Y-97051019D01*
X108326133Y-97051019D02*
X108230895Y-97003400D01*
X108230895Y-97003400D02*
X108183276Y-96955780D01*
X124604542Y-84230380D02*
X124556923Y-84278000D01*
X124556923Y-84278000D02*
X124414066Y-84325619D01*
X124414066Y-84325619D02*
X124318828Y-84325619D01*
X124318828Y-84325619D02*
X124175971Y-84278000D01*
X124175971Y-84278000D02*
X124080733Y-84182761D01*
X124080733Y-84182761D02*
X124033114Y-84087523D01*
X124033114Y-84087523D02*
X123985495Y-83897047D01*
X123985495Y-83897047D02*
X123985495Y-83754190D01*
X123985495Y-83754190D02*
X124033114Y-83563714D01*
X124033114Y-83563714D02*
X124080733Y-83468476D01*
X124080733Y-83468476D02*
X124175971Y-83373238D01*
X124175971Y-83373238D02*
X124318828Y-83325619D01*
X124318828Y-83325619D02*
X124414066Y-83325619D01*
X124414066Y-83325619D02*
X124556923Y-83373238D01*
X124556923Y-83373238D02*
X124604542Y-83420857D01*
X124985495Y-83420857D02*
X125033114Y-83373238D01*
X125033114Y-83373238D02*
X125128352Y-83325619D01*
X125128352Y-83325619D02*
X125366447Y-83325619D01*
X125366447Y-83325619D02*
X125461685Y-83373238D01*
X125461685Y-83373238D02*
X125509304Y-83420857D01*
X125509304Y-83420857D02*
X125556923Y-83516095D01*
X125556923Y-83516095D02*
X125556923Y-83611333D01*
X125556923Y-83611333D02*
X125509304Y-83754190D01*
X125509304Y-83754190D02*
X124937876Y-84325619D01*
X124937876Y-84325619D02*
X125556923Y-84325619D01*
X126509304Y-84325619D02*
X125937876Y-84325619D01*
X126223590Y-84325619D02*
X126223590Y-83325619D01*
X126223590Y-83325619D02*
X126128352Y-83468476D01*
X126128352Y-83468476D02*
X126033114Y-83563714D01*
X126033114Y-83563714D02*
X125937876Y-83611333D01*
X103604219Y-89542857D02*
X103128028Y-89876190D01*
X103604219Y-90114285D02*
X102604219Y-90114285D01*
X102604219Y-90114285D02*
X102604219Y-89733333D01*
X102604219Y-89733333D02*
X102651838Y-89638095D01*
X102651838Y-89638095D02*
X102699457Y-89590476D01*
X102699457Y-89590476D02*
X102794695Y-89542857D01*
X102794695Y-89542857D02*
X102937552Y-89542857D01*
X102937552Y-89542857D02*
X103032790Y-89590476D01*
X103032790Y-89590476D02*
X103080409Y-89638095D01*
X103080409Y-89638095D02*
X103128028Y-89733333D01*
X103128028Y-89733333D02*
X103128028Y-90114285D01*
X103604219Y-88590476D02*
X103604219Y-89161904D01*
X103604219Y-88876190D02*
X102604219Y-88876190D01*
X102604219Y-88876190D02*
X102747076Y-88971428D01*
X102747076Y-88971428D02*
X102842314Y-89066666D01*
X102842314Y-89066666D02*
X102889933Y-89161904D01*
X102604219Y-88257142D02*
X102604219Y-87638095D01*
X102604219Y-87638095D02*
X102985171Y-87971428D01*
X102985171Y-87971428D02*
X102985171Y-87828571D01*
X102985171Y-87828571D02*
X103032790Y-87733333D01*
X103032790Y-87733333D02*
X103080409Y-87685714D01*
X103080409Y-87685714D02*
X103175647Y-87638095D01*
X103175647Y-87638095D02*
X103413742Y-87638095D01*
X103413742Y-87638095D02*
X103508980Y-87685714D01*
X103508980Y-87685714D02*
X103556600Y-87733333D01*
X103556600Y-87733333D02*
X103604219Y-87828571D01*
X103604219Y-87828571D02*
X103604219Y-88114285D01*
X103604219Y-88114285D02*
X103556600Y-88209523D01*
X103556600Y-88209523D02*
X103508980Y-88257142D01*
X124375942Y-88268980D02*
X124328323Y-88316600D01*
X124328323Y-88316600D02*
X124185466Y-88364219D01*
X124185466Y-88364219D02*
X124090228Y-88364219D01*
X124090228Y-88364219D02*
X123947371Y-88316600D01*
X123947371Y-88316600D02*
X123852133Y-88221361D01*
X123852133Y-88221361D02*
X123804514Y-88126123D01*
X123804514Y-88126123D02*
X123756895Y-87935647D01*
X123756895Y-87935647D02*
X123756895Y-87792790D01*
X123756895Y-87792790D02*
X123804514Y-87602314D01*
X123804514Y-87602314D02*
X123852133Y-87507076D01*
X123852133Y-87507076D02*
X123947371Y-87411838D01*
X123947371Y-87411838D02*
X124090228Y-87364219D01*
X124090228Y-87364219D02*
X124185466Y-87364219D01*
X124185466Y-87364219D02*
X124328323Y-87411838D01*
X124328323Y-87411838D02*
X124375942Y-87459457D01*
X124756895Y-87459457D02*
X124804514Y-87411838D01*
X124804514Y-87411838D02*
X124899752Y-87364219D01*
X124899752Y-87364219D02*
X125137847Y-87364219D01*
X125137847Y-87364219D02*
X125233085Y-87411838D01*
X125233085Y-87411838D02*
X125280704Y-87459457D01*
X125280704Y-87459457D02*
X125328323Y-87554695D01*
X125328323Y-87554695D02*
X125328323Y-87649933D01*
X125328323Y-87649933D02*
X125280704Y-87792790D01*
X125280704Y-87792790D02*
X124709276Y-88364219D01*
X124709276Y-88364219D02*
X125328323Y-88364219D01*
X125709276Y-87459457D02*
X125756895Y-87411838D01*
X125756895Y-87411838D02*
X125852133Y-87364219D01*
X125852133Y-87364219D02*
X126090228Y-87364219D01*
X126090228Y-87364219D02*
X126185466Y-87411838D01*
X126185466Y-87411838D02*
X126233085Y-87459457D01*
X126233085Y-87459457D02*
X126280704Y-87554695D01*
X126280704Y-87554695D02*
X126280704Y-87649933D01*
X126280704Y-87649933D02*
X126233085Y-87792790D01*
X126233085Y-87792790D02*
X125661657Y-88364219D01*
X125661657Y-88364219D02*
X126280704Y-88364219D01*
X113026866Y-97371819D02*
X113026866Y-98086104D01*
X113026866Y-98086104D02*
X112979247Y-98228961D01*
X112979247Y-98228961D02*
X112884009Y-98324200D01*
X112884009Y-98324200D02*
X112741152Y-98371819D01*
X112741152Y-98371819D02*
X112645914Y-98371819D01*
X113931628Y-97705152D02*
X113931628Y-98371819D01*
X113693533Y-97324200D02*
X113455438Y-98038485D01*
X113455438Y-98038485D02*
X114074485Y-98038485D01*
X128292266Y-94882619D02*
X128292266Y-95596904D01*
X128292266Y-95596904D02*
X128244647Y-95739761D01*
X128244647Y-95739761D02*
X128149409Y-95835000D01*
X128149409Y-95835000D02*
X128006552Y-95882619D01*
X128006552Y-95882619D02*
X127911314Y-95882619D01*
X129244647Y-94882619D02*
X128768457Y-94882619D01*
X128768457Y-94882619D02*
X128720838Y-95358809D01*
X128720838Y-95358809D02*
X128768457Y-95311190D01*
X128768457Y-95311190D02*
X128863695Y-95263571D01*
X128863695Y-95263571D02*
X129101790Y-95263571D01*
X129101790Y-95263571D02*
X129197028Y-95311190D01*
X129197028Y-95311190D02*
X129244647Y-95358809D01*
X129244647Y-95358809D02*
X129292266Y-95454047D01*
X129292266Y-95454047D02*
X129292266Y-95692142D01*
X129292266Y-95692142D02*
X129244647Y-95787380D01*
X129244647Y-95787380D02*
X129197028Y-95835000D01*
X129197028Y-95835000D02*
X129101790Y-95882619D01*
X129101790Y-95882619D02*
X128863695Y-95882619D01*
X128863695Y-95882619D02*
X128768457Y-95835000D01*
X128768457Y-95835000D02*
X128720838Y-95787380D01*
X115892342Y-85170180D02*
X115844723Y-85217800D01*
X115844723Y-85217800D02*
X115701866Y-85265419D01*
X115701866Y-85265419D02*
X115606628Y-85265419D01*
X115606628Y-85265419D02*
X115463771Y-85217800D01*
X115463771Y-85217800D02*
X115368533Y-85122561D01*
X115368533Y-85122561D02*
X115320914Y-85027323D01*
X115320914Y-85027323D02*
X115273295Y-84836847D01*
X115273295Y-84836847D02*
X115273295Y-84693990D01*
X115273295Y-84693990D02*
X115320914Y-84503514D01*
X115320914Y-84503514D02*
X115368533Y-84408276D01*
X115368533Y-84408276D02*
X115463771Y-84313038D01*
X115463771Y-84313038D02*
X115606628Y-84265419D01*
X115606628Y-84265419D02*
X115701866Y-84265419D01*
X115701866Y-84265419D02*
X115844723Y-84313038D01*
X115844723Y-84313038D02*
X115892342Y-84360657D01*
X116844723Y-85265419D02*
X116273295Y-85265419D01*
X116559009Y-85265419D02*
X116559009Y-84265419D01*
X116559009Y-84265419D02*
X116463771Y-84408276D01*
X116463771Y-84408276D02*
X116368533Y-84503514D01*
X116368533Y-84503514D02*
X116273295Y-84551133D01*
X117320914Y-85265419D02*
X117511390Y-85265419D01*
X117511390Y-85265419D02*
X117606628Y-85217800D01*
X117606628Y-85217800D02*
X117654247Y-85170180D01*
X117654247Y-85170180D02*
X117749485Y-85027323D01*
X117749485Y-85027323D02*
X117797104Y-84836847D01*
X117797104Y-84836847D02*
X117797104Y-84455895D01*
X117797104Y-84455895D02*
X117749485Y-84360657D01*
X117749485Y-84360657D02*
X117701866Y-84313038D01*
X117701866Y-84313038D02*
X117606628Y-84265419D01*
X117606628Y-84265419D02*
X117416152Y-84265419D01*
X117416152Y-84265419D02*
X117320914Y-84313038D01*
X117320914Y-84313038D02*
X117273295Y-84360657D01*
X117273295Y-84360657D02*
X117225676Y-84455895D01*
X117225676Y-84455895D02*
X117225676Y-84693990D01*
X117225676Y-84693990D02*
X117273295Y-84789228D01*
X117273295Y-84789228D02*
X117320914Y-84836847D01*
X117320914Y-84836847D02*
X117416152Y-84884466D01*
X117416152Y-84884466D02*
X117606628Y-84884466D01*
X117606628Y-84884466D02*
X117701866Y-84836847D01*
X117701866Y-84836847D02*
X117749485Y-84789228D01*
X117749485Y-84789228D02*
X117797104Y-84693990D01*
D12*
X110966228Y-83479971D02*
X110623371Y-83479971D01*
X110794800Y-83479971D02*
X110794800Y-82879971D01*
X110794800Y-82879971D02*
X110737657Y-82965685D01*
X110737657Y-82965685D02*
X110680514Y-83022828D01*
X110680514Y-83022828D02*
X110623371Y-83051400D01*
D11*
X102100142Y-81430019D02*
X101766809Y-80953828D01*
X101528714Y-81430019D02*
X101528714Y-80430019D01*
X101528714Y-80430019D02*
X101909666Y-80430019D01*
X101909666Y-80430019D02*
X102004904Y-80477638D01*
X102004904Y-80477638D02*
X102052523Y-80525257D01*
X102052523Y-80525257D02*
X102100142Y-80620495D01*
X102100142Y-80620495D02*
X102100142Y-80763352D01*
X102100142Y-80763352D02*
X102052523Y-80858590D01*
X102052523Y-80858590D02*
X102004904Y-80906209D01*
X102004904Y-80906209D02*
X101909666Y-80953828D01*
X101909666Y-80953828D02*
X101528714Y-80953828D01*
X103052523Y-81430019D02*
X102481095Y-81430019D01*
X102766809Y-81430019D02*
X102766809Y-80430019D01*
X102766809Y-80430019D02*
X102671571Y-80572876D01*
X102671571Y-80572876D02*
X102576333Y-80668114D01*
X102576333Y-80668114D02*
X102481095Y-80715733D01*
X104004904Y-81430019D02*
X103433476Y-81430019D01*
X103719190Y-81430019D02*
X103719190Y-80430019D01*
X103719190Y-80430019D02*
X103623952Y-80572876D01*
X103623952Y-80572876D02*
X103528714Y-80668114D01*
X103528714Y-80668114D02*
X103433476Y-80715733D01*
X113580942Y-87399019D02*
X113247609Y-86922828D01*
X113009514Y-87399019D02*
X113009514Y-86399019D01*
X113009514Y-86399019D02*
X113390466Y-86399019D01*
X113390466Y-86399019D02*
X113485704Y-86446638D01*
X113485704Y-86446638D02*
X113533323Y-86494257D01*
X113533323Y-86494257D02*
X113580942Y-86589495D01*
X113580942Y-86589495D02*
X113580942Y-86732352D01*
X113580942Y-86732352D02*
X113533323Y-86827590D01*
X113533323Y-86827590D02*
X113485704Y-86875209D01*
X113485704Y-86875209D02*
X113390466Y-86922828D01*
X113390466Y-86922828D02*
X113009514Y-86922828D01*
X114533323Y-87399019D02*
X113961895Y-87399019D01*
X114247609Y-87399019D02*
X114247609Y-86399019D01*
X114247609Y-86399019D02*
X114152371Y-86541876D01*
X114152371Y-86541876D02*
X114057133Y-86637114D01*
X114057133Y-86637114D02*
X113961895Y-86684733D01*
X115390466Y-86732352D02*
X115390466Y-87399019D01*
X115152371Y-86351400D02*
X114914276Y-87065685D01*
X114914276Y-87065685D02*
X115533323Y-87065685D01*
X100982542Y-86567180D02*
X100934923Y-86614800D01*
X100934923Y-86614800D02*
X100792066Y-86662419D01*
X100792066Y-86662419D02*
X100696828Y-86662419D01*
X100696828Y-86662419D02*
X100553971Y-86614800D01*
X100553971Y-86614800D02*
X100458733Y-86519561D01*
X100458733Y-86519561D02*
X100411114Y-86424323D01*
X100411114Y-86424323D02*
X100363495Y-86233847D01*
X100363495Y-86233847D02*
X100363495Y-86090990D01*
X100363495Y-86090990D02*
X100411114Y-85900514D01*
X100411114Y-85900514D02*
X100458733Y-85805276D01*
X100458733Y-85805276D02*
X100553971Y-85710038D01*
X100553971Y-85710038D02*
X100696828Y-85662419D01*
X100696828Y-85662419D02*
X100792066Y-85662419D01*
X100792066Y-85662419D02*
X100934923Y-85710038D01*
X100934923Y-85710038D02*
X100982542Y-85757657D01*
X101934923Y-86662419D02*
X101363495Y-86662419D01*
X101649209Y-86662419D02*
X101649209Y-85662419D01*
X101649209Y-85662419D02*
X101553971Y-85805276D01*
X101553971Y-85805276D02*
X101458733Y-85900514D01*
X101458733Y-85900514D02*
X101363495Y-85948133D01*
X102792066Y-85662419D02*
X102601590Y-85662419D01*
X102601590Y-85662419D02*
X102506352Y-85710038D01*
X102506352Y-85710038D02*
X102458733Y-85757657D01*
X102458733Y-85757657D02*
X102363495Y-85900514D01*
X102363495Y-85900514D02*
X102315876Y-86090990D01*
X102315876Y-86090990D02*
X102315876Y-86471942D01*
X102315876Y-86471942D02*
X102363495Y-86567180D01*
X102363495Y-86567180D02*
X102411114Y-86614800D01*
X102411114Y-86614800D02*
X102506352Y-86662419D01*
X102506352Y-86662419D02*
X102696828Y-86662419D01*
X102696828Y-86662419D02*
X102792066Y-86614800D01*
X102792066Y-86614800D02*
X102839685Y-86567180D01*
X102839685Y-86567180D02*
X102887304Y-86471942D01*
X102887304Y-86471942D02*
X102887304Y-86233847D01*
X102887304Y-86233847D02*
X102839685Y-86138609D01*
X102839685Y-86138609D02*
X102792066Y-86090990D01*
X102792066Y-86090990D02*
X102696828Y-86043371D01*
X102696828Y-86043371D02*
X102506352Y-86043371D01*
X102506352Y-86043371D02*
X102411114Y-86090990D01*
X102411114Y-86090990D02*
X102363495Y-86138609D01*
X102363495Y-86138609D02*
X102315876Y-86233847D01*
X91995666Y-89980419D02*
X91995666Y-90694704D01*
X91995666Y-90694704D02*
X91948047Y-90837561D01*
X91948047Y-90837561D02*
X91852809Y-90932800D01*
X91852809Y-90932800D02*
X91709952Y-90980419D01*
X91709952Y-90980419D02*
X91614714Y-90980419D01*
X92995666Y-90980419D02*
X92424238Y-90980419D01*
X92709952Y-90980419D02*
X92709952Y-89980419D01*
X92709952Y-89980419D02*
X92614714Y-90123276D01*
X92614714Y-90123276D02*
X92519476Y-90218514D01*
X92519476Y-90218514D02*
X92424238Y-90266133D01*
X114209533Y-94841219D02*
X113876200Y-94365028D01*
X113638105Y-94841219D02*
X113638105Y-93841219D01*
X113638105Y-93841219D02*
X114019057Y-93841219D01*
X114019057Y-93841219D02*
X114114295Y-93888838D01*
X114114295Y-93888838D02*
X114161914Y-93936457D01*
X114161914Y-93936457D02*
X114209533Y-94031695D01*
X114209533Y-94031695D02*
X114209533Y-94174552D01*
X114209533Y-94174552D02*
X114161914Y-94269790D01*
X114161914Y-94269790D02*
X114114295Y-94317409D01*
X114114295Y-94317409D02*
X114019057Y-94365028D01*
X114019057Y-94365028D02*
X113638105Y-94365028D01*
X114685724Y-94841219D02*
X114876200Y-94841219D01*
X114876200Y-94841219D02*
X114971438Y-94793600D01*
X114971438Y-94793600D02*
X115019057Y-94745980D01*
X115019057Y-94745980D02*
X115114295Y-94603123D01*
X115114295Y-94603123D02*
X115161914Y-94412647D01*
X115161914Y-94412647D02*
X115161914Y-94031695D01*
X115161914Y-94031695D02*
X115114295Y-93936457D01*
X115114295Y-93936457D02*
X115066676Y-93888838D01*
X115066676Y-93888838D02*
X114971438Y-93841219D01*
X114971438Y-93841219D02*
X114780962Y-93841219D01*
X114780962Y-93841219D02*
X114685724Y-93888838D01*
X114685724Y-93888838D02*
X114638105Y-93936457D01*
X114638105Y-93936457D02*
X114590486Y-94031695D01*
X114590486Y-94031695D02*
X114590486Y-94269790D01*
X114590486Y-94269790D02*
X114638105Y-94365028D01*
X114638105Y-94365028D02*
X114685724Y-94412647D01*
X114685724Y-94412647D02*
X114780962Y-94460266D01*
X114780962Y-94460266D02*
X114971438Y-94460266D01*
X114971438Y-94460266D02*
X115066676Y-94412647D01*
X115066676Y-94412647D02*
X115114295Y-94365028D01*
X115114295Y-94365028D02*
X115161914Y-94269790D01*
%TO.C,F1*%
D13*
X105725548Y-80916200D02*
X108498052Y-80916200D01*
X105725548Y-84336200D02*
X108498052Y-84336200D01*
%TO.C,D1*%
X107163500Y-84757000D02*
X108633500Y-84757000D01*
X107163500Y-84782000D02*
X107163500Y-84757000D01*
X107163500Y-86977000D02*
X107163500Y-86952000D01*
X108633500Y-84757000D02*
X108633500Y-84782000D01*
X108633500Y-85652000D02*
X108633500Y-86082000D01*
X108633500Y-86952000D02*
X108633500Y-86977000D01*
X108633500Y-86977000D02*
X107163500Y-86977000D01*
X106718500Y-84777000D02*
X106578500Y-84587000D01*
X106858500Y-84587000D01*
X106718500Y-84777000D01*
G36*
X106718500Y-84777000D02*
G01*
X106578500Y-84587000D01*
X106858500Y-84587000D01*
X106718500Y-84777000D01*
G37*
%TO.C,C14*%
X110309548Y-93765000D02*
X110832052Y-93765000D01*
X110309548Y-95235000D02*
X110832052Y-95235000D01*
%TO.C,R10*%
X112417159Y-96120000D02*
X112724441Y-96120000D01*
X112417159Y-96880000D02*
X112724441Y-96880000D01*
%TO.C,R16*%
X128930036Y-86463200D02*
X129384164Y-86463200D01*
X128930036Y-87933200D02*
X129384164Y-87933200D01*
%TO.C,J2*%
X102403200Y-87158200D02*
X103153200Y-87158200D01*
X102403200Y-96058200D02*
X102403200Y-87158200D01*
X102403200Y-101858200D02*
X102403200Y-98658200D01*
X102903200Y-101858200D02*
X102403200Y-101858200D01*
X102903200Y-104358200D02*
X102903200Y-101858200D01*
X106353200Y-87158200D02*
X108603200Y-87158200D01*
X108103200Y-101858200D02*
X108103200Y-104358200D01*
X108103200Y-104358200D02*
X102903200Y-104358200D01*
X108603200Y-87158200D02*
X108603200Y-88358200D01*
X108603200Y-91558200D02*
X108603200Y-98058200D01*
X108603200Y-98058200D02*
X110603200Y-98058200D01*
X108603200Y-100658200D02*
X108603200Y-101858200D01*
X108603200Y-100658200D02*
X110603200Y-100658200D01*
X108603200Y-101858200D02*
X108103200Y-101858200D01*
%TO.C,J3*%
X114240000Y-80585000D02*
X115570000Y-80585000D01*
X114240000Y-81915000D02*
X114240000Y-80585000D01*
X116840000Y-80585000D02*
X132140000Y-80585000D01*
X116840000Y-83245000D02*
X116840000Y-80585000D01*
X116840000Y-83245000D02*
X132140000Y-83245000D01*
X132140000Y-83245000D02*
X132140000Y-80585000D01*
%TO.C,U2*%
X120885600Y-84277900D02*
X122705600Y-84277900D01*
X120885600Y-84327900D02*
X120885600Y-84277900D01*
X120885600Y-87397900D02*
X120885600Y-87347900D01*
X122705600Y-84277900D02*
X122705600Y-84327900D01*
X122705600Y-85447900D02*
X122705600Y-86227900D01*
X122705600Y-87347900D02*
X122705600Y-87397900D01*
X122705600Y-87397900D02*
X120885600Y-87397900D01*
X120345600Y-84327900D02*
X120105600Y-83997900D01*
X120585600Y-83997900D01*
X120345600Y-84327900D01*
G36*
X120345600Y-84327900D02*
G01*
X120105600Y-83997900D01*
X120585600Y-83997900D01*
X120345600Y-84327900D01*
G37*
%TO.C,C15*%
X110309548Y-95765000D02*
X110832052Y-95765000D01*
X110309548Y-97235000D02*
X110832052Y-97235000D01*
%TO.C,C21*%
X124758564Y-84501400D02*
X124974236Y-84501400D01*
X124758564Y-85221400D02*
X124974236Y-85221400D01*
%TO.C,R13*%
X101321600Y-88316559D02*
X101321600Y-88623841D01*
X102081600Y-88316559D02*
X102081600Y-88623841D01*
%TO.C,C22*%
X124733164Y-86381000D02*
X124948836Y-86381000D01*
X124733164Y-87101000D02*
X124948836Y-87101000D01*
%TO.C,J4*%
X114240000Y-98161800D02*
X115570000Y-98161800D01*
X114240000Y-99491800D02*
X114240000Y-98161800D01*
X116840000Y-98161800D02*
X132140000Y-98161800D01*
X116840000Y-100821800D02*
X116840000Y-98161800D01*
X116840000Y-100821800D02*
X132140000Y-100821800D01*
X132140000Y-100821800D02*
X132140000Y-98161800D01*
%TO.C,J5*%
X126173800Y-94572600D02*
X126173800Y-93192600D01*
X127553800Y-94572600D02*
X126173800Y-94572600D01*
X128823800Y-91812600D02*
X131473800Y-91812600D01*
X128823800Y-94572600D02*
X128823800Y-91812600D01*
X128823800Y-94572600D02*
X131473800Y-94572600D01*
X131473800Y-94572600D02*
X131473800Y-91812600D01*
%TO.C,C19*%
D11*
X120044800Y-86207600D02*
G75*
G02*
X109044800Y-86207600I-5500000J0D01*
G01*
X109044800Y-86207600D02*
G75*
G02*
X120044800Y-86207600I5500000J0D01*
G01*
%TO.C,R11*%
D13*
X102515159Y-81484200D02*
X102822441Y-81484200D01*
X102515159Y-82244200D02*
X102822441Y-82244200D01*
%TO.C,R14*%
X113841559Y-87732600D02*
X114148841Y-87732600D01*
X113841559Y-88492600D02*
X114148841Y-88492600D01*
%TO.C,C16*%
X100230148Y-82714000D02*
X101652652Y-82714000D01*
X100230148Y-85434000D02*
X101652652Y-85434000D01*
%TO.C,J1*%
X73761000Y-82659600D02*
X72761000Y-82659600D01*
X73761000Y-82659600D02*
X73761000Y-79659600D01*
X73761000Y-98899600D02*
X72761000Y-98899600D01*
X73761000Y-101899600D02*
X73761000Y-98899600D01*
X76461000Y-78159600D02*
X83051000Y-78159600D01*
X76461000Y-79659600D02*
X73761000Y-79659600D01*
X76461000Y-79659600D02*
X76461000Y-78159600D01*
X76461000Y-101899600D02*
X73761000Y-101899600D01*
X76461000Y-103399600D02*
X76461000Y-101899600D01*
X76461000Y-103399600D02*
X83051000Y-103399600D01*
X83051000Y-78159600D02*
X83051000Y-79659600D01*
X83051000Y-79659600D02*
X88151000Y-79659600D01*
X83051000Y-101899600D02*
X83051000Y-103399600D01*
X83051000Y-101899600D02*
X88151000Y-101899600D01*
X88151000Y-79659600D02*
X88151000Y-82459600D01*
X88151000Y-82459600D02*
X94496000Y-82464600D01*
X88151000Y-99099600D02*
X93896000Y-99099600D01*
X88151000Y-101899600D02*
X88151000Y-99099600D01*
X96096000Y-99099600D02*
X101201000Y-99099600D01*
X96796000Y-82459600D02*
X101201000Y-82459600D01*
X101201000Y-89479600D02*
X101201000Y-82459600D01*
X101201000Y-99099600D02*
X101201000Y-92079600D01*
X72761000Y-98899600D02*
G75*
G02*
X72750399Y-82679370I15120000J8120000D01*
G01*
%TO.C,R9*%
X112417159Y-94120000D02*
X112724441Y-94120000D01*
X112417159Y-94880000D02*
X112724441Y-94880000D01*
%TD*%
M02*
