G04 #@! TF.GenerationSoftware,KiCad,Pcbnew,10.0.3*
G04 #@! TF.CreationDate,2026-07-09T23:28:52-07:00*
G04 #@! TF.ProjectId,scramble_hat,73637261-6d62-46c6-955f-6861742e6b69,rev?*
G04 #@! TF.SameCoordinates,Original*
G04 #@! TF.FileFunction,Copper,L2,Inr*
G04 #@! TF.FilePolarity,Positive*
%FSLAX46Y46*%
G04 Gerber Fmt 4.6, Leading zero omitted, Abs format (unit mm)*
G04 Created by KiCad (PCBNEW 10.0.3) date 2026-07-09 23:28:52*
%MOMM*%
%LPD*%
G01*
G04 APERTURE LIST*
G04 #@! TA.AperFunction,ComponentPad*
%ADD10R,1.700000X1.700000*%
G04 #@! TD*
G04 #@! TA.AperFunction,ComponentPad*
%ADD11C,1.700000*%
G04 #@! TD*
G04 #@! TA.AperFunction,ComponentPad*
%ADD12C,1.600000*%
G04 #@! TD*
G04 #@! TA.AperFunction,ComponentPad*
%ADD13C,2.900000*%
G04 #@! TD*
G04 #@! TA.AperFunction,ComponentPad*
%ADD14C,2.700000*%
G04 #@! TD*
G04 #@! TA.AperFunction,ComponentPad*
%ADD15C,3.200000*%
G04 #@! TD*
G04 #@! TA.AperFunction,ComponentPad*
%ADD16C,3.400000*%
G04 #@! TD*
G04 #@! TA.AperFunction,ComponentPad*
%ADD17O,1.600000X1.600000*%
G04 #@! TD*
G04 #@! TA.AperFunction,ViaPad*
%ADD18C,0.600000*%
G04 #@! TD*
G04 #@! TA.AperFunction,ViaPad*
%ADD19C,0.300000*%
G04 #@! TD*
G04 APERTURE END LIST*
D10*
G04 #@! TO.N,ASDOUT*
G04 #@! TO.C,J3*
X115570000Y-81915000D03*
D11*
G04 #@! TO.N,LRCK*
X118110000Y-81915000D03*
G04 #@! TO.N,AGND*
X120650000Y-81915000D03*
G04 #@! TO.N,DSDIN*
X123190000Y-81915000D03*
G04 #@! TO.N,BCLK*
X125730000Y-81915000D03*
G04 #@! TO.N,MCLK*
X128270000Y-81915000D03*
G04 #@! TO.N,PHANTOM_EN*
X130810000Y-81915000D03*
G04 #@! TD*
D10*
G04 #@! TO.N,AGND*
G04 #@! TO.C,J6*
X101500153Y-81924935D03*
D11*
G04 #@! TO.N,+3V3*
X104040153Y-81924935D03*
G04 #@! TO.N,SCL*
X106580153Y-81924935D03*
G04 #@! TO.N,SDA*
X109120153Y-81924935D03*
G04 #@! TD*
D10*
G04 #@! TO.N,+5V*
G04 #@! TO.C,J4*
X115570000Y-99491800D03*
D11*
G04 #@! TO.N,unconnected-(J4-Pin_2-Pad2)*
X118110000Y-99491800D03*
G04 #@! TO.N,AGND*
X120650000Y-99491800D03*
G04 #@! TO.N,unconnected-(J4-Pin_4-Pad4)*
X123190000Y-99491800D03*
G04 #@! TO.N,+3V3*
X125730000Y-99491800D03*
G04 #@! TO.N,SCL*
X128270000Y-99491800D03*
G04 #@! TO.N,SDA*
X130810000Y-99491800D03*
G04 #@! TD*
D10*
G04 #@! TO.N,V_PoE*
G04 #@! TO.C,J5*
X127655400Y-85217000D03*
D11*
G04 #@! TO.N,PGND*
X130195400Y-85217000D03*
G04 #@! TD*
D12*
G04 #@! TO.N,PGND*
G04 #@! TO.C,C19*
X110805869Y-86581258D03*
G04 #@! TO.N,AGND*
X118305869Y-86581258D03*
G04 #@! TD*
D13*
G04 #@! TO.N,PGND*
G04 #@! TO.C,J1*
X94996000Y-97764600D03*
G04 #@! TO.N,XLR2_HOT*
X95631000Y-83794600D03*
D14*
G04 #@! TO.N,XLR3_COLD*
X100076000Y-90779600D03*
D15*
G04 #@! TO.N,PGND*
X83566000Y-99034600D03*
D14*
G04 #@! TO.N,unconnected-(J1-JACK_R-PadR)*
X99441000Y-87922100D03*
G04 #@! TO.N,PGND*
X99441000Y-93637100D03*
D16*
G04 #@! TO.N,unconnected-(J1-JACK_T-PadT)*
X92456000Y-95224600D03*
X92456000Y-86334600D03*
G04 #@! TD*
D17*
G04 #@! TO.N,+3V3*
G04 #@! TO.C,SW1*
X125349000Y-90779600D03*
D12*
G04 #@! TO.N,PHANTOM_SW*
X127889000Y-90779600D03*
D17*
G04 #@! TO.N,AGND*
X130429000Y-90779600D03*
G04 #@! TD*
D18*
G04 #@! TO.N,MIC1N*
X112850000Y-89950000D03*
X106136078Y-84208198D03*
X116998000Y-89899400D03*
G04 #@! TO.N,AGND*
X121927231Y-88750000D03*
X117729000Y-93827600D03*
X113614200Y-91617800D03*
X122845330Y-85966459D03*
X118730000Y-89000000D03*
X124750000Y-85815867D03*
X127000000Y-83210400D03*
X116273000Y-92287000D03*
X116137600Y-86959522D03*
X113800800Y-96672400D03*
X107288128Y-85442625D03*
X121005600Y-95834200D03*
X123351201Y-95772636D03*
G04 #@! TO.N,ROUTP*
X114372087Y-94072800D03*
G04 #@! TO.N,V_PHANTOM*
X103400000Y-90600000D03*
D19*
X127867007Y-92687570D03*
D18*
X112765200Y-87964039D03*
D19*
X128208286Y-89274782D03*
D18*
X116100000Y-87869909D03*
D19*
G04 #@! TO.N,PHANTOM_LED*
X128238125Y-93547417D03*
D18*
G04 #@! TO.N,MIC2_RAW*
X109203200Y-99358200D03*
X117271800Y-96545400D03*
G04 #@! TO.N,ASDOUT*
X114866961Y-94732113D03*
X123500000Y-97500000D03*
X114302909Y-97443200D03*
G04 #@! TO.N,LRCK*
X114805437Y-95538530D03*
X121919220Y-93760201D03*
G04 #@! TO.N,DSDIN*
X114992064Y-96576720D03*
X124798000Y-94310200D03*
G04 #@! TO.N,BCLK*
X125171200Y-93091000D03*
X117119400Y-94673000D03*
G04 #@! TO.N,MCLK*
X119354600Y-98171000D03*
X119735600Y-95885000D03*
X125550000Y-97963300D03*
G04 #@! TO.N,+5V*
X123607791Y-93670774D03*
X120680029Y-86881584D03*
X124386400Y-84861400D03*
X120960000Y-84901019D03*
G04 #@! TO.N,+3V3_A*
X122936000Y-85050000D03*
G04 #@! TO.N,+3V3*
X118541800Y-93811000D03*
X119270000Y-84750000D03*
X114200000Y-83100000D03*
X131010000Y-96500000D03*
G04 #@! TO.N,SCL*
X124730000Y-96310865D03*
X122057397Y-91847767D03*
X122942602Y-87620889D03*
X129550000Y-100250000D03*
X116800000Y-84225155D03*
X124530000Y-87583885D03*
X117900000Y-84400000D03*
X119181543Y-92322732D03*
X129200000Y-97750000D03*
G04 #@! TO.N,SDA*
X125362869Y-87999189D03*
X118650750Y-91575000D03*
X125374722Y-95882923D03*
X123271024Y-88295161D03*
X122200000Y-91100000D03*
X117900000Y-83600000D03*
X116327509Y-83450001D03*
G04 #@! TO.N,OK1_COLLECTOR*
X102903198Y-85426598D03*
G04 #@! TO.N,Q1_GATE*
X96799400Y-89789000D03*
X102446094Y-86690869D03*
G04 #@! TO.N,V_PoE*
X124510800Y-100330000D03*
X127450000Y-96950000D03*
G04 #@! TO.N,PGND*
X127100000Y-89008248D03*
X88976200Y-88646000D03*
X88000000Y-82000000D03*
X100000000Y-85000000D03*
G04 #@! TO.N,V_FILT*
X103350000Y-83400000D03*
X98221800Y-83743800D03*
X97002600Y-86258400D03*
X97078800Y-91668600D03*
X109195010Y-87200138D03*
X99945457Y-83713910D03*
X110159800Y-84433200D03*
G04 #@! TO.N,XLR2_HOT*
X95834200Y-88108800D03*
G04 #@! TO.N,XLR3_COLD*
X92659200Y-83307000D03*
G04 #@! TO.N,LOUTP*
X113080800Y-94513400D03*
G04 #@! TO.N,OK1_LED_A*
X106132152Y-88920340D03*
X107340400Y-88341200D03*
G04 #@! TO.N,DACVREF*
X123596400Y-92506800D03*
X113841755Y-93445555D03*
G04 #@! TO.N,MIC1P*
X117703600Y-90449400D03*
X112416502Y-90596703D03*
X95834200Y-95194200D03*
X108051600Y-93980000D03*
G04 #@! TO.N,ADCVREF*
X115548000Y-89594600D03*
X118527642Y-90239407D03*
G04 #@! TO.N,PHANTOM_SW*
X112081400Y-91389200D03*
G04 #@! TO.N,AD0*
X119640810Y-90848990D03*
X124178989Y-89122699D03*
G04 #@! TO.N,VMID*
X112943450Y-92293250D03*
X119710200Y-92972800D03*
G04 #@! TO.N,MIC2P*
X108051600Y-95529400D03*
X111264092Y-88643489D03*
G04 #@! TO.N,MIC2N*
X111962600Y-92760200D03*
X112003227Y-88770701D03*
G04 #@! TD*
G04 #@! TA.AperFunction,Conductor*
G04 #@! TO.N,PGND*
G36*
X111213996Y-80748872D02*
G01*
X111259789Y-80801643D01*
X111269784Y-80870794D01*
X111257518Y-80909531D01*
X111165761Y-81089613D01*
X111087910Y-81329214D01*
X111048500Y-81578038D01*
X111048500Y-81829961D01*
X111087910Y-82078785D01*
X111165760Y-82318383D01*
X111218827Y-82422531D01*
X111276472Y-82535666D01*
X111280132Y-82542848D01*
X111428201Y-82746649D01*
X111428205Y-82746654D01*
X111606345Y-82924794D01*
X111606350Y-82924798D01*
X111784117Y-83053952D01*
X111810155Y-83072870D01*
X111953184Y-83145747D01*
X112034616Y-83187239D01*
X112034618Y-83187239D01*
X112034621Y-83187241D01*
X112274215Y-83265090D01*
X112523038Y-83304500D01*
X112523039Y-83304500D01*
X112774961Y-83304500D01*
X112774962Y-83304500D01*
X112856603Y-83291569D01*
X112925895Y-83300523D01*
X112979347Y-83345519D01*
X112999987Y-83412271D01*
X113000000Y-83414042D01*
X113000000Y-87347198D01*
X112980315Y-87414237D01*
X112927511Y-87459992D01*
X112858353Y-87469936D01*
X112843911Y-87466973D01*
X112831092Y-87463539D01*
X112699308Y-87463539D01*
X112572012Y-87497647D01*
X112457886Y-87563539D01*
X112457883Y-87563541D01*
X112364702Y-87656722D01*
X112364700Y-87656725D01*
X112298808Y-87770851D01*
X112264700Y-87898147D01*
X112264700Y-88029930D01*
X112293600Y-88137789D01*
X112291937Y-88207639D01*
X112252774Y-88265501D01*
X112188545Y-88293005D01*
X112141733Y-88289657D01*
X112069120Y-88270201D01*
X112069119Y-88270201D01*
X111937335Y-88270201D01*
X111810039Y-88304309D01*
X111780027Y-88321637D01*
X111712127Y-88338109D01*
X111646100Y-88315256D01*
X111630347Y-88301930D01*
X111571408Y-88242991D01*
X111571406Y-88242989D01*
X111501419Y-88202582D01*
X111457279Y-88177097D01*
X111383114Y-88157225D01*
X111329984Y-88142989D01*
X111198200Y-88142989D01*
X111070904Y-88177097D01*
X110956778Y-88242989D01*
X110956775Y-88242991D01*
X110863594Y-88336172D01*
X110863592Y-88336175D01*
X110797700Y-88450301D01*
X110781892Y-88509299D01*
X110763592Y-88577597D01*
X110763592Y-88709381D01*
X110772252Y-88741700D01*
X110797700Y-88836676D01*
X110800601Y-88841700D01*
X110863592Y-88950803D01*
X110956778Y-89043989D01*
X111040895Y-89092554D01*
X111062027Y-89104755D01*
X111070906Y-89109881D01*
X111198200Y-89143989D01*
X111198202Y-89143989D01*
X111329982Y-89143989D01*
X111329984Y-89143989D01*
X111457278Y-89109881D01*
X111487290Y-89092553D01*
X111555187Y-89076080D01*
X111621215Y-89098931D01*
X111636971Y-89112259D01*
X111695913Y-89171201D01*
X111810041Y-89237093D01*
X111937335Y-89271201D01*
X111937337Y-89271201D01*
X112069117Y-89271201D01*
X112069119Y-89271201D01*
X112196413Y-89237093D01*
X112310541Y-89171201D01*
X112403727Y-89078015D01*
X112469619Y-88963887D01*
X112503727Y-88836593D01*
X112503727Y-88704809D01*
X112474826Y-88596948D01*
X112476489Y-88527101D01*
X112515652Y-88469238D01*
X112579880Y-88441734D01*
X112626692Y-88445081D01*
X112699308Y-88464539D01*
X112699310Y-88464539D01*
X112831088Y-88464539D01*
X112831092Y-88464539D01*
X112843907Y-88461105D01*
X112913752Y-88462766D01*
X112971616Y-88501926D01*
X112999123Y-88566153D01*
X113000000Y-88580879D01*
X113000000Y-89325500D01*
X112980315Y-89392539D01*
X112927511Y-89438294D01*
X112876000Y-89449500D01*
X112784108Y-89449500D01*
X112656812Y-89483608D01*
X112542686Y-89549500D01*
X112542683Y-89549502D01*
X112449502Y-89642683D01*
X112449500Y-89642686D01*
X112383608Y-89756812D01*
X112349500Y-89884108D01*
X112349500Y-90001351D01*
X112329815Y-90068390D01*
X112277011Y-90114145D01*
X112257596Y-90121125D01*
X112223316Y-90130310D01*
X112109188Y-90196203D01*
X112109185Y-90196205D01*
X112016004Y-90289386D01*
X112016002Y-90289389D01*
X111950110Y-90403515D01*
X111946018Y-90418788D01*
X111916002Y-90530811D01*
X111916002Y-90662595D01*
X111919629Y-90676130D01*
X111948035Y-90782145D01*
X111946372Y-90851995D01*
X111907209Y-90909857D01*
X111890261Y-90921624D01*
X111774092Y-90988695D01*
X111774083Y-90988702D01*
X111680902Y-91081883D01*
X111680900Y-91081886D01*
X111615008Y-91196012D01*
X111593255Y-91277198D01*
X111580900Y-91323308D01*
X111580900Y-91455092D01*
X111597194Y-91515901D01*
X111615008Y-91582387D01*
X111626741Y-91602708D01*
X111680900Y-91696514D01*
X111774086Y-91789700D01*
X111888214Y-91855592D01*
X112015508Y-91889700D01*
X112015510Y-91889700D01*
X112147290Y-91889700D01*
X112147292Y-91889700D01*
X112274586Y-91855592D01*
X112388714Y-91789700D01*
X112481900Y-91696514D01*
X112547792Y-91582386D01*
X112581900Y-91455092D01*
X112581900Y-91323308D01*
X112549866Y-91203754D01*
X112551529Y-91133906D01*
X112590692Y-91076044D01*
X112607641Y-91064276D01*
X112609685Y-91063095D01*
X112609688Y-91063095D01*
X112723816Y-90997203D01*
X112788319Y-90932700D01*
X112849642Y-90899215D01*
X112919334Y-90904199D01*
X112975267Y-90946071D01*
X112999684Y-91011535D01*
X113000000Y-91020381D01*
X113000000Y-91668750D01*
X112980315Y-91735789D01*
X112927511Y-91781544D01*
X112885485Y-91790686D01*
X112885618Y-91791689D01*
X112877558Y-91792750D01*
X112750262Y-91826858D01*
X112641420Y-91889699D01*
X112636136Y-91892750D01*
X112557457Y-91971428D01*
X112557116Y-91971769D01*
X112542953Y-91985931D01*
X112542950Y-91985936D01*
X112477058Y-92100062D01*
X112442950Y-92227358D01*
X112442950Y-92244828D01*
X112423265Y-92311867D01*
X112370461Y-92357622D01*
X112301303Y-92367566D01*
X112256950Y-92352215D01*
X112155788Y-92293809D01*
X112155787Y-92293808D01*
X112155786Y-92293808D01*
X112028492Y-92259700D01*
X111896708Y-92259700D01*
X111769412Y-92293808D01*
X111655286Y-92359700D01*
X111655283Y-92359702D01*
X111562102Y-92452883D01*
X111562100Y-92452886D01*
X111496208Y-92567012D01*
X111462100Y-92694308D01*
X111462100Y-92826091D01*
X111496208Y-92953387D01*
X111511090Y-92979163D01*
X111562100Y-93067514D01*
X111655286Y-93160700D01*
X111769414Y-93226592D01*
X111896708Y-93260700D01*
X111896710Y-93260700D01*
X112028490Y-93260700D01*
X112028492Y-93260700D01*
X112155786Y-93226592D01*
X112269914Y-93160700D01*
X112363100Y-93067514D01*
X112428992Y-92953386D01*
X112463100Y-92826092D01*
X112463100Y-92808621D01*
X112482785Y-92741582D01*
X112535589Y-92695827D01*
X112604747Y-92685883D01*
X112649099Y-92701234D01*
X112693659Y-92726961D01*
X112750258Y-92759639D01*
X112750259Y-92759639D01*
X112750264Y-92759642D01*
X112877558Y-92793750D01*
X112877566Y-92793750D01*
X112885618Y-92794811D01*
X112885394Y-92796508D01*
X112943039Y-92813435D01*
X112988794Y-92866239D01*
X113000000Y-92917750D01*
X113000000Y-93921745D01*
X112980315Y-93988784D01*
X112927511Y-94034539D01*
X112908098Y-94041519D01*
X112887612Y-94047008D01*
X112773486Y-94112900D01*
X112773483Y-94112902D01*
X112680302Y-94206083D01*
X112680300Y-94206086D01*
X112614408Y-94320212D01*
X112580300Y-94447508D01*
X112580300Y-94579291D01*
X112614408Y-94706587D01*
X112643217Y-94756484D01*
X112680300Y-94820714D01*
X112773486Y-94913900D01*
X112887614Y-94979792D01*
X112908094Y-94985279D01*
X112967751Y-95021640D01*
X112998282Y-95084486D01*
X113000000Y-95105053D01*
X113000000Y-98039956D01*
X112980315Y-98106995D01*
X112927511Y-98152750D01*
X112858353Y-98162694D01*
X112856603Y-98162429D01*
X112774969Y-98149500D01*
X112774962Y-98149500D01*
X112523038Y-98149500D01*
X112441408Y-98162429D01*
X112274214Y-98188910D01*
X112034616Y-98266760D01*
X111810151Y-98381132D01*
X111606350Y-98529201D01*
X111606345Y-98529205D01*
X111428205Y-98707345D01*
X111428201Y-98707350D01*
X111280132Y-98911151D01*
X111165760Y-99135616D01*
X111087910Y-99375214D01*
X111076831Y-99445165D01*
X111048500Y-99624038D01*
X111048500Y-99671750D01*
X111048500Y-99875962D01*
X111087910Y-100124785D01*
X111165759Y-100364379D01*
X111165760Y-100364382D01*
X111165761Y-100364383D01*
X111277617Y-100583914D01*
X111290513Y-100652584D01*
X111264236Y-100717324D01*
X111207130Y-100757581D01*
X111167102Y-100764209D01*
X84987074Y-100757896D01*
X84920039Y-100738195D01*
X84899423Y-100721577D01*
X83928293Y-99750447D01*
X83944942Y-99743551D01*
X84075970Y-99656001D01*
X84187401Y-99544570D01*
X84274951Y-99413542D01*
X84281847Y-99396893D01*
X85217239Y-100332286D01*
X85217241Y-100332286D01*
X85315825Y-100203811D01*
X85315836Y-100203794D01*
X85453472Y-99965402D01*
X85453479Y-99965387D01*
X85558819Y-99711071D01*
X85630069Y-99445165D01*
X85656458Y-99244722D01*
X85666000Y-99172241D01*
X85666000Y-98896958D01*
X85630069Y-98624034D01*
X85558819Y-98358128D01*
X85453479Y-98103812D01*
X85453472Y-98103797D01*
X85315836Y-97865404D01*
X85217240Y-97736912D01*
X84281846Y-98672305D01*
X84274951Y-98655658D01*
X84187401Y-98524630D01*
X84075970Y-98413199D01*
X83944942Y-98325649D01*
X83928293Y-98318752D01*
X84863686Y-97383358D01*
X84735196Y-97284763D01*
X84496802Y-97147127D01*
X84496787Y-97147120D01*
X84242471Y-97041780D01*
X84018047Y-96981645D01*
X83958387Y-96945279D01*
X83927858Y-96882432D01*
X83935580Y-96814417D01*
X83941130Y-96801020D01*
X83981500Y-96598065D01*
X83981500Y-96391135D01*
X83941130Y-96188180D01*
X83861941Y-95997002D01*
X83746977Y-95824945D01*
X83746975Y-95824942D01*
X83600657Y-95678624D01*
X83475050Y-95594697D01*
X83428598Y-95563659D01*
X83278572Y-95501516D01*
X83237420Y-95484470D01*
X83237412Y-95484468D01*
X83034469Y-95444100D01*
X83034465Y-95444100D01*
X82827535Y-95444100D01*
X82827530Y-95444100D01*
X82624587Y-95484468D01*
X82624579Y-95484470D01*
X82433403Y-95563658D01*
X82261342Y-95678624D01*
X82115024Y-95824942D01*
X82000058Y-95997003D01*
X81920870Y-96188179D01*
X81920868Y-96188187D01*
X81880500Y-96391130D01*
X81880500Y-96598069D01*
X81920868Y-96801012D01*
X81920870Y-96801020D01*
X81975442Y-96932769D01*
X82000059Y-96992198D01*
X82040678Y-97052989D01*
X82115024Y-97164257D01*
X82232632Y-97281865D01*
X82266117Y-97343188D01*
X82268686Y-97377655D01*
X82268312Y-97383358D01*
X83203706Y-98318752D01*
X83187058Y-98325649D01*
X83056030Y-98413199D01*
X82944599Y-98524630D01*
X82857049Y-98655658D01*
X82850153Y-98672306D01*
X81914758Y-97736912D01*
X81914757Y-97736912D01*
X81816166Y-97865399D01*
X81678527Y-98103797D01*
X81678520Y-98103812D01*
X81612661Y-98262813D01*
X81568820Y-98317217D01*
X81502526Y-98339282D01*
X81434827Y-98322003D01*
X81387216Y-98270866D01*
X81374100Y-98215361D01*
X81374100Y-95100041D01*
X90555500Y-95100041D01*
X90555500Y-95349158D01*
X90555501Y-95349175D01*
X90587902Y-95595291D01*
X90588018Y-95596165D01*
X90621893Y-95722587D01*
X90652498Y-95836807D01*
X90747830Y-96066961D01*
X90747837Y-96066976D01*
X90872400Y-96282726D01*
X91024060Y-96480374D01*
X91024066Y-96480381D01*
X91200218Y-96656533D01*
X91200225Y-96656539D01*
X91397873Y-96808199D01*
X91613623Y-96932762D01*
X91613638Y-96932769D01*
X91712825Y-96973853D01*
X91843793Y-97028102D01*
X92084435Y-97092582D01*
X92331435Y-97125100D01*
X92331442Y-97125100D01*
X92580558Y-97125100D01*
X92580565Y-97125100D01*
X92827565Y-97092582D01*
X92975327Y-97052989D01*
X93045175Y-97054652D01*
X93103038Y-97093814D01*
X93130542Y-97158043D01*
X93127194Y-97204857D01*
X93079366Y-97383355D01*
X93079363Y-97383368D01*
X93046001Y-97636780D01*
X93046000Y-97636796D01*
X93046000Y-97892403D01*
X93046001Y-97892419D01*
X93079363Y-98145831D01*
X93079366Y-98145844D01*
X93145523Y-98392750D01*
X93243342Y-98628906D01*
X93243347Y-98628916D01*
X93371154Y-98850285D01*
X93451738Y-98955305D01*
X93451739Y-98955305D01*
X94431387Y-97975658D01*
X94436889Y-97996191D01*
X94515881Y-98133008D01*
X94627592Y-98244719D01*
X94764409Y-98323711D01*
X94784941Y-98329212D01*
X93805293Y-99308859D01*
X93805293Y-99308860D01*
X93910314Y-99389445D01*
X94131683Y-99517252D01*
X94131693Y-99517257D01*
X94367849Y-99615076D01*
X94614755Y-99681233D01*
X94614768Y-99681236D01*
X94868180Y-99714598D01*
X94868197Y-99714600D01*
X95123803Y-99714600D01*
X95123819Y-99714598D01*
X95377231Y-99681236D01*
X95377244Y-99681233D01*
X95624150Y-99615076D01*
X95860306Y-99517257D01*
X95860316Y-99517252D01*
X96081681Y-99389448D01*
X96186705Y-99308859D01*
X95207058Y-98329212D01*
X95227591Y-98323711D01*
X95364408Y-98244719D01*
X95476119Y-98133008D01*
X95555111Y-97996191D01*
X95560612Y-97975658D01*
X96540259Y-98955305D01*
X96620848Y-98850281D01*
X96748652Y-98628916D01*
X96748657Y-98628906D01*
X96846476Y-98392750D01*
X96905735Y-98171589D01*
X104402700Y-98171589D01*
X104402700Y-98344811D01*
X104429798Y-98515901D01*
X104483327Y-98680645D01*
X104561968Y-98834988D01*
X104663786Y-98975128D01*
X104786272Y-99097614D01*
X104926412Y-99199432D01*
X105080755Y-99278073D01*
X105245499Y-99331602D01*
X105416589Y-99358700D01*
X105416590Y-99358700D01*
X105589810Y-99358700D01*
X105589811Y-99358700D01*
X105760901Y-99331602D01*
X105881835Y-99292308D01*
X108702700Y-99292308D01*
X108702700Y-99424092D01*
X108719754Y-99487739D01*
X108736808Y-99551387D01*
X108769754Y-99608450D01*
X108802700Y-99665514D01*
X108895886Y-99758700D01*
X109010014Y-99824592D01*
X109137308Y-99858700D01*
X109137310Y-99858700D01*
X109269090Y-99858700D01*
X109269092Y-99858700D01*
X109396386Y-99824592D01*
X109510514Y-99758700D01*
X109603700Y-99665514D01*
X109669592Y-99551386D01*
X109703700Y-99424092D01*
X109703700Y-99292308D01*
X109669592Y-99165014D01*
X109603700Y-99050886D01*
X109510514Y-98957700D01*
X109429889Y-98911151D01*
X109396387Y-98891808D01*
X109332739Y-98874754D01*
X109269092Y-98857700D01*
X109137308Y-98857700D01*
X109010012Y-98891808D01*
X108895886Y-98957700D01*
X108895883Y-98957702D01*
X108802702Y-99050883D01*
X108802700Y-99050886D01*
X108736808Y-99165012D01*
X108709226Y-99267951D01*
X108702700Y-99292308D01*
X105881835Y-99292308D01*
X105925645Y-99278073D01*
X106079988Y-99199432D01*
X106220128Y-99097614D01*
X106342614Y-98975128D01*
X106444432Y-98834988D01*
X106523073Y-98680645D01*
X106576602Y-98515901D01*
X106603700Y-98344811D01*
X106603700Y-98171589D01*
X106576602Y-98000499D01*
X106523073Y-97835755D01*
X106444432Y-97681412D01*
X106342614Y-97541272D01*
X106220128Y-97418786D01*
X106079988Y-97316968D01*
X105925645Y-97238327D01*
X105760901Y-97184798D01*
X105760899Y-97184797D01*
X105760898Y-97184797D01*
X105629471Y-97163981D01*
X105589811Y-97157700D01*
X105416589Y-97157700D01*
X105376928Y-97163981D01*
X105245502Y-97184797D01*
X105080752Y-97238328D01*
X104926411Y-97316968D01*
X104890323Y-97343188D01*
X104786272Y-97418786D01*
X104786270Y-97418788D01*
X104786269Y-97418788D01*
X104663788Y-97541269D01*
X104663788Y-97541270D01*
X104663786Y-97541272D01*
X104661005Y-97545100D01*
X104561968Y-97681411D01*
X104483328Y-97835752D01*
X104429797Y-98000502D01*
X104405684Y-98152750D01*
X104402700Y-98171589D01*
X96905735Y-98171589D01*
X96912634Y-98145842D01*
X96912635Y-98145834D01*
X96945998Y-97892419D01*
X96946000Y-97892403D01*
X96946000Y-97636796D01*
X96945998Y-97636780D01*
X96912636Y-97383368D01*
X96912633Y-97383355D01*
X96846476Y-97136449D01*
X96748657Y-96900293D01*
X96748652Y-96900283D01*
X96620845Y-96678914D01*
X96540260Y-96573893D01*
X96540259Y-96573893D01*
X95560612Y-97553540D01*
X95555111Y-97533009D01*
X95476119Y-97396192D01*
X95364408Y-97284481D01*
X95227591Y-97205489D01*
X95207058Y-97199987D01*
X96186705Y-96220339D01*
X96186705Y-96220338D01*
X96081685Y-96139754D01*
X95860316Y-96011947D01*
X95860306Y-96011942D01*
X95624150Y-95914123D01*
X95377244Y-95847966D01*
X95377231Y-95847963D01*
X95123819Y-95814601D01*
X95123803Y-95814600D01*
X94868197Y-95814600D01*
X94868180Y-95814601D01*
X94614768Y-95847963D01*
X94614755Y-95847966D01*
X94436257Y-95895794D01*
X94366407Y-95894131D01*
X94308545Y-95854968D01*
X94281041Y-95790740D01*
X94284388Y-95743928D01*
X94323982Y-95596165D01*
X94356500Y-95349165D01*
X94356500Y-95128308D01*
X95333700Y-95128308D01*
X95333700Y-95260091D01*
X95367808Y-95387387D01*
X95370863Y-95392678D01*
X95433700Y-95501514D01*
X95526886Y-95594700D01*
X95641014Y-95660592D01*
X95768308Y-95694700D01*
X95768310Y-95694700D01*
X95900090Y-95694700D01*
X95900092Y-95694700D01*
X96027386Y-95660592D01*
X96141514Y-95594700D01*
X96234700Y-95501514D01*
X96300592Y-95387386D01*
X96334700Y-95260092D01*
X96334700Y-95128308D01*
X96300592Y-95001014D01*
X96234700Y-94886886D01*
X96141514Y-94793700D01*
X96077054Y-94756484D01*
X96027387Y-94727808D01*
X95948187Y-94706587D01*
X95900092Y-94693700D01*
X95768308Y-94693700D01*
X95641012Y-94727808D01*
X95526886Y-94793700D01*
X95526883Y-94793702D01*
X95433702Y-94886883D01*
X95433700Y-94886886D01*
X95367808Y-95001012D01*
X95333700Y-95128308D01*
X94356500Y-95128308D01*
X94356500Y-95100035D01*
X94323982Y-94853035D01*
X94259502Y-94612393D01*
X94164164Y-94382227D01*
X94163166Y-94380499D01*
X94039599Y-94166473D01*
X93887939Y-93968825D01*
X93887933Y-93968818D01*
X93711781Y-93792666D01*
X93711774Y-93792660D01*
X93514124Y-93640998D01*
X93514122Y-93640997D01*
X93476321Y-93619173D01*
X93476320Y-93619173D01*
X93298376Y-93516437D01*
X93298361Y-93516430D01*
X93296963Y-93515851D01*
X97591000Y-93515851D01*
X97591000Y-93758348D01*
X97591001Y-93758364D01*
X97622653Y-93998787D01*
X97685421Y-94233039D01*
X97778220Y-94457078D01*
X97778227Y-94457092D01*
X97899481Y-94667110D01*
X97968061Y-94756484D01*
X98876387Y-93848158D01*
X98881889Y-93868691D01*
X98960881Y-94005508D01*
X99072592Y-94117219D01*
X99209409Y-94196211D01*
X99229940Y-94201712D01*
X98321614Y-95110036D01*
X98321614Y-95110037D01*
X98410989Y-95178617D01*
X98410996Y-95178622D01*
X98621007Y-95299872D01*
X98621021Y-95299879D01*
X98845060Y-95392678D01*
X99079312Y-95455446D01*
X99319735Y-95487098D01*
X99319752Y-95487100D01*
X99562248Y-95487100D01*
X99562264Y-95487098D01*
X99741449Y-95463508D01*
X107551100Y-95463508D01*
X107551100Y-95595291D01*
X107585208Y-95722587D01*
X107597528Y-95743925D01*
X107651100Y-95836714D01*
X107744286Y-95929900D01*
X107858414Y-95995792D01*
X107985708Y-96029900D01*
X107985710Y-96029900D01*
X108117490Y-96029900D01*
X108117492Y-96029900D01*
X108244786Y-95995792D01*
X108358914Y-95929900D01*
X108452100Y-95836714D01*
X108517992Y-95722586D01*
X108552100Y-95595292D01*
X108552100Y-95463508D01*
X108517992Y-95336214D01*
X108452100Y-95222086D01*
X108358914Y-95128900D01*
X108281987Y-95084486D01*
X108244787Y-95063008D01*
X108181139Y-95045954D01*
X108117492Y-95028900D01*
X107985708Y-95028900D01*
X107858412Y-95063008D01*
X107744286Y-95128900D01*
X107744283Y-95128902D01*
X107651102Y-95222083D01*
X107651100Y-95222086D01*
X107585208Y-95336212D01*
X107551100Y-95463508D01*
X99741449Y-95463508D01*
X99802687Y-95455446D01*
X100036939Y-95392678D01*
X100162138Y-95340820D01*
X100260978Y-95299879D01*
X100260992Y-95299872D01*
X100471016Y-95178615D01*
X100560384Y-95110039D01*
X100560384Y-95110036D01*
X99652059Y-94201712D01*
X99672591Y-94196211D01*
X99809408Y-94117219D01*
X99921119Y-94005508D01*
X100000111Y-93868691D01*
X100005612Y-93848159D01*
X100913936Y-94756484D01*
X100913939Y-94756484D01*
X100982515Y-94667116D01*
X101103772Y-94457092D01*
X101103779Y-94457078D01*
X101196578Y-94233039D01*
X101259346Y-93998787D01*
X101270495Y-93914108D01*
X107551100Y-93914108D01*
X107551100Y-94045891D01*
X107585208Y-94173187D01*
X107604201Y-94206083D01*
X107651100Y-94287314D01*
X107744286Y-94380500D01*
X107858414Y-94446392D01*
X107985708Y-94480500D01*
X107985710Y-94480500D01*
X108117490Y-94480500D01*
X108117492Y-94480500D01*
X108244786Y-94446392D01*
X108358914Y-94380500D01*
X108452100Y-94287314D01*
X108517992Y-94173186D01*
X108552100Y-94045892D01*
X108552100Y-93914108D01*
X108517992Y-93786814D01*
X108452100Y-93672686D01*
X108358914Y-93579500D01*
X108301850Y-93546554D01*
X108244787Y-93513608D01*
X108181139Y-93496554D01*
X108117492Y-93479500D01*
X107985708Y-93479500D01*
X107858412Y-93513608D01*
X107744286Y-93579500D01*
X107744283Y-93579502D01*
X107651102Y-93672683D01*
X107651100Y-93672686D01*
X107585208Y-93786812D01*
X107551100Y-93914108D01*
X101270495Y-93914108D01*
X101273696Y-93889795D01*
X101273696Y-93889794D01*
X101290998Y-93758365D01*
X101291000Y-93758348D01*
X101291000Y-93515851D01*
X101290998Y-93515835D01*
X101259346Y-93275412D01*
X101196578Y-93041160D01*
X101103779Y-92817121D01*
X101103772Y-92817107D01*
X100982522Y-92607096D01*
X100982517Y-92607089D01*
X100913937Y-92517714D01*
X100913936Y-92517714D01*
X100005612Y-93426039D01*
X100000111Y-93405509D01*
X99921119Y-93268692D01*
X99809408Y-93156981D01*
X99672591Y-93077989D01*
X99652058Y-93072487D01*
X100408467Y-92316077D01*
X100457828Y-92285827D01*
X100671185Y-92216504D01*
X100888639Y-92105706D01*
X101086083Y-91962255D01*
X101258655Y-91789683D01*
X101402106Y-91592239D01*
X101512904Y-91374785D01*
X101578927Y-91171589D01*
X104402700Y-91171589D01*
X104402700Y-91344810D01*
X104420166Y-91455091D01*
X104429798Y-91515901D01*
X104458004Y-91602710D01*
X104483328Y-91680647D01*
X104491412Y-91696513D01*
X104561968Y-91834988D01*
X104663786Y-91975128D01*
X104786272Y-92097614D01*
X104926412Y-92199432D01*
X105080755Y-92278073D01*
X105245499Y-92331602D01*
X105416589Y-92358700D01*
X105416590Y-92358700D01*
X105589810Y-92358700D01*
X105589811Y-92358700D01*
X105760901Y-92331602D01*
X105925645Y-92278073D01*
X106079988Y-92199432D01*
X106220128Y-92097614D01*
X106342614Y-91975128D01*
X106444432Y-91834988D01*
X106523073Y-91680645D01*
X106576602Y-91515901D01*
X106603700Y-91344811D01*
X106603700Y-91171589D01*
X106576602Y-91000499D01*
X106523073Y-90835755D01*
X106444432Y-90681412D01*
X106342614Y-90541272D01*
X106220128Y-90418786D01*
X106079988Y-90316968D01*
X105925645Y-90238327D01*
X105760901Y-90184798D01*
X105760899Y-90184797D01*
X105760898Y-90184797D01*
X105629471Y-90163981D01*
X105589811Y-90157700D01*
X105416589Y-90157700D01*
X105376928Y-90163981D01*
X105245502Y-90184797D01*
X105080752Y-90238328D01*
X104926411Y-90316968D01*
X104880259Y-90350500D01*
X104786272Y-90418786D01*
X104786270Y-90418788D01*
X104786269Y-90418788D01*
X104663788Y-90541269D01*
X104663788Y-90541270D01*
X104663786Y-90541272D01*
X104620059Y-90601456D01*
X104561968Y-90681411D01*
X104483328Y-90835752D01*
X104429797Y-91000502D01*
X104402700Y-91171589D01*
X101578927Y-91171589D01*
X101588321Y-91142676D01*
X101626500Y-90901627D01*
X101626500Y-90657573D01*
X101606945Y-90534108D01*
X102899500Y-90534108D01*
X102899500Y-90665892D01*
X102902245Y-90676135D01*
X102933608Y-90793187D01*
X102958185Y-90835755D01*
X102999500Y-90907314D01*
X103092686Y-91000500D01*
X103191521Y-91057563D01*
X103206810Y-91066390D01*
X103206814Y-91066392D01*
X103334108Y-91100500D01*
X103334110Y-91100500D01*
X103465890Y-91100500D01*
X103465892Y-91100500D01*
X103593186Y-91066392D01*
X103707314Y-91000500D01*
X103800500Y-90907314D01*
X103866392Y-90793186D01*
X103900500Y-90665892D01*
X103900500Y-90534108D01*
X103866392Y-90406814D01*
X103864488Y-90403517D01*
X103814519Y-90316968D01*
X103800500Y-90292686D01*
X103707314Y-90199500D01*
X103650250Y-90166554D01*
X103593187Y-90133608D01*
X103520548Y-90114145D01*
X103465892Y-90099500D01*
X103334108Y-90099500D01*
X103206812Y-90133608D01*
X103092686Y-90199500D01*
X103092683Y-90199502D01*
X102999502Y-90292683D01*
X102999500Y-90292686D01*
X102933608Y-90406812D01*
X102900383Y-90530811D01*
X102899500Y-90534108D01*
X101606945Y-90534108D01*
X101588321Y-90416524D01*
X101512904Y-90184415D01*
X101402106Y-89966961D01*
X101341910Y-89884108D01*
X101258660Y-89769523D01*
X101258656Y-89769518D01*
X101086081Y-89596943D01*
X101086076Y-89596939D01*
X100888642Y-89453496D01*
X100888641Y-89453495D01*
X100888639Y-89453494D01*
X100671185Y-89342696D01*
X100517915Y-89292895D01*
X100460240Y-89253458D01*
X100433042Y-89189100D01*
X100444957Y-89120253D01*
X100468547Y-89087290D01*
X100623655Y-88932183D01*
X100623661Y-88932175D01*
X100680133Y-88854448D01*
X105631652Y-88854448D01*
X105631652Y-88986231D01*
X105665760Y-89113527D01*
X105683347Y-89143988D01*
X105731652Y-89227654D01*
X105824838Y-89320840D01*
X105938966Y-89386732D01*
X106066260Y-89420840D01*
X106066262Y-89420840D01*
X106198042Y-89420840D01*
X106198044Y-89420840D01*
X106325338Y-89386732D01*
X106439466Y-89320840D01*
X106532652Y-89227654D01*
X106598544Y-89113526D01*
X106632652Y-88986232D01*
X106632652Y-88854448D01*
X106598544Y-88727154D01*
X106532652Y-88613026D01*
X106439466Y-88519840D01*
X106382402Y-88486894D01*
X106325339Y-88453948D01*
X106261691Y-88436894D01*
X106198044Y-88419840D01*
X106066260Y-88419840D01*
X105938964Y-88453948D01*
X105824838Y-88519840D01*
X105824835Y-88519842D01*
X105731654Y-88613023D01*
X105731652Y-88613026D01*
X105665760Y-88727152D01*
X105631652Y-88854448D01*
X100680133Y-88854448D01*
X100738992Y-88773436D01*
X100767103Y-88734743D01*
X100767104Y-88734742D01*
X100767106Y-88734739D01*
X100877904Y-88517285D01*
X100953321Y-88285176D01*
X100954884Y-88275308D01*
X106839900Y-88275308D01*
X106839900Y-88407092D01*
X106842318Y-88416116D01*
X106874008Y-88534387D01*
X106898956Y-88577597D01*
X106939900Y-88648514D01*
X107033086Y-88741700D01*
X107147214Y-88807592D01*
X107274508Y-88841700D01*
X107274510Y-88841700D01*
X107406290Y-88841700D01*
X107406292Y-88841700D01*
X107533586Y-88807592D01*
X107647714Y-88741700D01*
X107740900Y-88648514D01*
X107806792Y-88534386D01*
X107840900Y-88407092D01*
X107840900Y-88275308D01*
X107806792Y-88148014D01*
X107740900Y-88033886D01*
X107647714Y-87940700D01*
X107590650Y-87907754D01*
X107533587Y-87874808D01*
X107467871Y-87857200D01*
X107406292Y-87840700D01*
X107274508Y-87840700D01*
X107147212Y-87874808D01*
X107033086Y-87940700D01*
X107033083Y-87940702D01*
X106939902Y-88033883D01*
X106939900Y-88033886D01*
X106874008Y-88148012D01*
X106848560Y-88242989D01*
X106839900Y-88275308D01*
X100954884Y-88275308D01*
X100991500Y-88044127D01*
X100991500Y-87800073D01*
X100953321Y-87559024D01*
X100877904Y-87326915D01*
X100767106Y-87109461D01*
X100686258Y-86998183D01*
X100623660Y-86912023D01*
X100623656Y-86912018D01*
X100451081Y-86739443D01*
X100420422Y-86717168D01*
X100420420Y-86717166D01*
X100293532Y-86624977D01*
X101945594Y-86624977D01*
X101945594Y-86756760D01*
X101979702Y-86884056D01*
X101989680Y-86901338D01*
X102045594Y-86998183D01*
X102138780Y-87091369D01*
X102252908Y-87157261D01*
X102380202Y-87191369D01*
X102380204Y-87191369D01*
X102511984Y-87191369D01*
X102511986Y-87191369D01*
X102639280Y-87157261D01*
X102679143Y-87134246D01*
X108694510Y-87134246D01*
X108694510Y-87266029D01*
X108728618Y-87393325D01*
X108740692Y-87414237D01*
X108794510Y-87507452D01*
X108887696Y-87600638D01*
X109001824Y-87666530D01*
X109129118Y-87700638D01*
X109129120Y-87700638D01*
X109260900Y-87700638D01*
X109260902Y-87700638D01*
X109388196Y-87666530D01*
X109502324Y-87600638D01*
X109595510Y-87507452D01*
X109661402Y-87393324D01*
X109665339Y-87378628D01*
X109675150Y-87362923D01*
X109685002Y-87354161D01*
X109692638Y-87340934D01*
X110405869Y-86627703D01*
X110405869Y-86633919D01*
X110433128Y-86735652D01*
X110485789Y-86826864D01*
X110560263Y-86901338D01*
X110651475Y-86953999D01*
X110753208Y-86981258D01*
X110759422Y-86981258D01*
X110079945Y-87660732D01*
X110124519Y-87693117D01*
X110306837Y-87786013D01*
X110501451Y-87849248D01*
X110703552Y-87881258D01*
X110908186Y-87881258D01*
X111110286Y-87849248D01*
X111304900Y-87786013D01*
X111487218Y-87693117D01*
X111531790Y-87660732D01*
X110852316Y-86981258D01*
X110858530Y-86981258D01*
X110960263Y-86953999D01*
X111051475Y-86901338D01*
X111125949Y-86826864D01*
X111178610Y-86735652D01*
X111205869Y-86633919D01*
X111205869Y-86627706D01*
X111885343Y-87307180D01*
X111885343Y-87307179D01*
X111917728Y-87262607D01*
X112010624Y-87080289D01*
X112073859Y-86885675D01*
X112105869Y-86683575D01*
X112105869Y-86478940D01*
X112073859Y-86276840D01*
X112010624Y-86082226D01*
X111917728Y-85899908D01*
X111885343Y-85855335D01*
X111885343Y-85855334D01*
X111205869Y-86534809D01*
X111205869Y-86528597D01*
X111178610Y-86426864D01*
X111125949Y-86335652D01*
X111051475Y-86261178D01*
X110960263Y-86208517D01*
X110858530Y-86181258D01*
X110852315Y-86181258D01*
X111531791Y-85501782D01*
X111531790Y-85501781D01*
X111487228Y-85469405D01*
X111487219Y-85469399D01*
X111304900Y-85376502D01*
X111110286Y-85313267D01*
X110908186Y-85281258D01*
X110703552Y-85281258D01*
X110501451Y-85313267D01*
X110306837Y-85376502D01*
X110124513Y-85469401D01*
X110079946Y-85501781D01*
X110079946Y-85501782D01*
X110759423Y-86181258D01*
X110753208Y-86181258D01*
X110651475Y-86208517D01*
X110560263Y-86261178D01*
X110485789Y-86335652D01*
X110433128Y-86426864D01*
X110405869Y-86528597D01*
X110405869Y-86534811D01*
X109726393Y-85855335D01*
X109726392Y-85855335D01*
X109694012Y-85899902D01*
X109601113Y-86082226D01*
X109537878Y-86276840D01*
X109505869Y-86478940D01*
X109505869Y-86603676D01*
X109486184Y-86670715D01*
X109433380Y-86716470D01*
X109364222Y-86726414D01*
X109349777Y-86723451D01*
X109260903Y-86699638D01*
X109260902Y-86699638D01*
X109129118Y-86699638D01*
X109001822Y-86733746D01*
X108887696Y-86799638D01*
X108887693Y-86799640D01*
X108794512Y-86892821D01*
X108794510Y-86892824D01*
X108728618Y-87006950D01*
X108694510Y-87134246D01*
X102679143Y-87134246D01*
X102753408Y-87091369D01*
X102846594Y-86998183D01*
X102912486Y-86884055D01*
X102946594Y-86756761D01*
X102946594Y-86624977D01*
X102912486Y-86497683D01*
X102846594Y-86383555D01*
X102753408Y-86290369D01*
X102696344Y-86257423D01*
X102639281Y-86224477D01*
X102575633Y-86207423D01*
X102511986Y-86190369D01*
X102380202Y-86190369D01*
X102252906Y-86224477D01*
X102138780Y-86290369D01*
X102138777Y-86290371D01*
X102045596Y-86383552D01*
X102045594Y-86383555D01*
X101979702Y-86497681D01*
X101945594Y-86624977D01*
X100293532Y-86624977D01*
X100253643Y-86595996D01*
X100036187Y-86485197D01*
X100036186Y-86485196D01*
X100036185Y-86485196D01*
X99804076Y-86409779D01*
X99804074Y-86409778D01*
X99804072Y-86409778D01*
X99635769Y-86383121D01*
X99563027Y-86371600D01*
X99318973Y-86371600D01*
X99263093Y-86380450D01*
X99077927Y-86409778D01*
X99077924Y-86409779D01*
X98925952Y-86459158D01*
X98845812Y-86485197D01*
X98628357Y-86595996D01*
X98430923Y-86739439D01*
X98430918Y-86739443D01*
X98258343Y-86912018D01*
X98258339Y-86912023D01*
X98114896Y-87109457D01*
X98004097Y-87326912D01*
X97928678Y-87559027D01*
X97890500Y-87800073D01*
X97890500Y-88044126D01*
X97928678Y-88285172D01*
X97928678Y-88285174D01*
X97928679Y-88285176D01*
X98004096Y-88517285D01*
X98111029Y-88727154D01*
X98114896Y-88734742D01*
X98258339Y-88932176D01*
X98258343Y-88932181D01*
X98430918Y-89104756D01*
X98430923Y-89104760D01*
X98600076Y-89227656D01*
X98628361Y-89248206D01*
X98766923Y-89318806D01*
X98845810Y-89359002D01*
X98845812Y-89359002D01*
X98845815Y-89359004D01*
X98949025Y-89392539D01*
X98999083Y-89408804D01*
X99056758Y-89448242D01*
X99083956Y-89512601D01*
X99072041Y-89581447D01*
X99048446Y-89614416D01*
X98893338Y-89769524D01*
X98749896Y-89966957D01*
X98639097Y-90184412D01*
X98563678Y-90416527D01*
X98543270Y-90545379D01*
X98525500Y-90657573D01*
X98525500Y-90901627D01*
X98526401Y-90907313D01*
X98559659Y-91117300D01*
X98563679Y-91142676D01*
X98607387Y-91277196D01*
X98639097Y-91374787D01*
X98749896Y-91592243D01*
X98841009Y-91717650D01*
X98864489Y-91783456D01*
X98848663Y-91851510D01*
X98798557Y-91900205D01*
X98788144Y-91905096D01*
X98621016Y-91974322D01*
X98621006Y-91974327D01*
X98410990Y-92095580D01*
X98321614Y-92164160D01*
X98321614Y-92164161D01*
X99229941Y-93072487D01*
X99209409Y-93077989D01*
X99072592Y-93156981D01*
X98960881Y-93268692D01*
X98881889Y-93405509D01*
X98876387Y-93426040D01*
X97968061Y-92517714D01*
X97968060Y-92517714D01*
X97899480Y-92607090D01*
X97778227Y-92817106D01*
X97778220Y-92817121D01*
X97685421Y-93041160D01*
X97622653Y-93275412D01*
X97591001Y-93515835D01*
X97591000Y-93515851D01*
X93296963Y-93515851D01*
X93068207Y-93421098D01*
X92827561Y-93356617D01*
X92580575Y-93324101D01*
X92580570Y-93324100D01*
X92580565Y-93324100D01*
X92331435Y-93324100D01*
X92331429Y-93324100D01*
X92331424Y-93324101D01*
X92084438Y-93356617D01*
X91843792Y-93421098D01*
X91613638Y-93516430D01*
X91613623Y-93516437D01*
X91397873Y-93641000D01*
X91200225Y-93792660D01*
X91200218Y-93792666D01*
X91024066Y-93968818D01*
X91024060Y-93968825D01*
X90872400Y-94166473D01*
X90747837Y-94382223D01*
X90747830Y-94382238D01*
X90652498Y-94612392D01*
X90588017Y-94853038D01*
X90555501Y-95100024D01*
X90555500Y-95100041D01*
X81374100Y-95100041D01*
X81374100Y-90676130D01*
X85055500Y-90676130D01*
X85055500Y-90883069D01*
X85095868Y-91086012D01*
X85095870Y-91086020D01*
X85175059Y-91277198D01*
X85205870Y-91323310D01*
X85290024Y-91449257D01*
X85436342Y-91595575D01*
X85436345Y-91595577D01*
X85608402Y-91710541D01*
X85799580Y-91789730D01*
X85986236Y-91826858D01*
X86002530Y-91830099D01*
X86002534Y-91830100D01*
X86002535Y-91830100D01*
X86209466Y-91830100D01*
X86209467Y-91830099D01*
X86412420Y-91789730D01*
X86603598Y-91710541D01*
X86764983Y-91602708D01*
X96578300Y-91602708D01*
X96578300Y-91734491D01*
X96612408Y-91861787D01*
X96628524Y-91889700D01*
X96678300Y-91975914D01*
X96771486Y-92069100D01*
X96885614Y-92134992D01*
X97012908Y-92169100D01*
X97012910Y-92169100D01*
X97144690Y-92169100D01*
X97144692Y-92169100D01*
X97271986Y-92134992D01*
X97386114Y-92069100D01*
X97479300Y-91975914D01*
X97545192Y-91861786D01*
X97579300Y-91734492D01*
X97579300Y-91602708D01*
X97545192Y-91475414D01*
X97479300Y-91361286D01*
X97386114Y-91268100D01*
X97329050Y-91235154D01*
X97271987Y-91202208D01*
X97208339Y-91185154D01*
X97144692Y-91168100D01*
X97012908Y-91168100D01*
X96885612Y-91202208D01*
X96771486Y-91268100D01*
X96771483Y-91268102D01*
X96678302Y-91361283D01*
X96678300Y-91361286D01*
X96612408Y-91475412D01*
X96578300Y-91602708D01*
X86764983Y-91602708D01*
X86775655Y-91595577D01*
X86819324Y-91551908D01*
X86864333Y-91506900D01*
X86921974Y-91449258D01*
X86921975Y-91449257D01*
X86921977Y-91449255D01*
X87036941Y-91277198D01*
X87116130Y-91086020D01*
X87156500Y-90883065D01*
X87156500Y-90676135D01*
X87116130Y-90473180D01*
X87036941Y-90282002D01*
X86921977Y-90109945D01*
X86921975Y-90109942D01*
X86775657Y-89963624D01*
X86689626Y-89906141D01*
X86603598Y-89848659D01*
X86412420Y-89769470D01*
X86412412Y-89769468D01*
X86209469Y-89729100D01*
X86209465Y-89729100D01*
X86002535Y-89729100D01*
X86002530Y-89729100D01*
X85799587Y-89769468D01*
X85799579Y-89769470D01*
X85608403Y-89848658D01*
X85436342Y-89963624D01*
X85290024Y-90109942D01*
X85175058Y-90282003D01*
X85095870Y-90473179D01*
X85095868Y-90473187D01*
X85055500Y-90676130D01*
X81374100Y-90676130D01*
X81374100Y-89723108D01*
X96298900Y-89723108D01*
X96298900Y-89854891D01*
X96333008Y-89982187D01*
X96344073Y-90001351D01*
X96398900Y-90096314D01*
X96492086Y-90189500D01*
X96606214Y-90255392D01*
X96733508Y-90289500D01*
X96733510Y-90289500D01*
X96865290Y-90289500D01*
X96865292Y-90289500D01*
X96992586Y-90255392D01*
X97106714Y-90189500D01*
X97199900Y-90096314D01*
X97265792Y-89982186D01*
X97299900Y-89854892D01*
X97299900Y-89723108D01*
X97265792Y-89595814D01*
X97199900Y-89481686D01*
X97106714Y-89388500D01*
X97027381Y-89342697D01*
X96992587Y-89322608D01*
X96881698Y-89292896D01*
X96865292Y-89288500D01*
X96733508Y-89288500D01*
X96606212Y-89322608D01*
X96492086Y-89388500D01*
X96492083Y-89388502D01*
X96398902Y-89481683D01*
X96398900Y-89481686D01*
X96333008Y-89595812D01*
X96298900Y-89723108D01*
X81374100Y-89723108D01*
X81374100Y-86210041D01*
X90555500Y-86210041D01*
X90555500Y-86459158D01*
X90555501Y-86459175D01*
X90588017Y-86706161D01*
X90652498Y-86946807D01*
X90747830Y-87176961D01*
X90747837Y-87176976D01*
X90872400Y-87392726D01*
X91024060Y-87590374D01*
X91024066Y-87590381D01*
X91200218Y-87766533D01*
X91200225Y-87766539D01*
X91397873Y-87918199D01*
X91613623Y-88042762D01*
X91613638Y-88042769D01*
X91712825Y-88083853D01*
X91843793Y-88138102D01*
X92084435Y-88202582D01*
X92331435Y-88235100D01*
X92331442Y-88235100D01*
X92580558Y-88235100D01*
X92580565Y-88235100D01*
X92827565Y-88202582D01*
X93068207Y-88138102D01*
X93298025Y-88042908D01*
X95333700Y-88042908D01*
X95333700Y-88174692D01*
X95341173Y-88202582D01*
X95367808Y-88301987D01*
X95400754Y-88359050D01*
X95433700Y-88416114D01*
X95526886Y-88509300D01*
X95641014Y-88575192D01*
X95768308Y-88609300D01*
X95768310Y-88609300D01*
X95900090Y-88609300D01*
X95900092Y-88609300D01*
X96027386Y-88575192D01*
X96141514Y-88509300D01*
X96234700Y-88416114D01*
X96300592Y-88301986D01*
X96334700Y-88174692D01*
X96334700Y-88042908D01*
X96300592Y-87915614D01*
X96234700Y-87801486D01*
X96141514Y-87708300D01*
X96084450Y-87675354D01*
X96027387Y-87642408D01*
X95963739Y-87625354D01*
X95900092Y-87608300D01*
X95768308Y-87608300D01*
X95641012Y-87642408D01*
X95526886Y-87708300D01*
X95526883Y-87708302D01*
X95433702Y-87801483D01*
X95433700Y-87801486D01*
X95367808Y-87915612D01*
X95337177Y-88029930D01*
X95333700Y-88042908D01*
X93298025Y-88042908D01*
X93298373Y-88042764D01*
X93421730Y-87971544D01*
X93498201Y-87927394D01*
X93498202Y-87927393D01*
X93514127Y-87918199D01*
X93711776Y-87766538D01*
X93887938Y-87590376D01*
X94039599Y-87392727D01*
X94164164Y-87176973D01*
X94259502Y-86946807D01*
X94323982Y-86706165D01*
X94356500Y-86459165D01*
X94356500Y-86210035D01*
X94354192Y-86192508D01*
X96502100Y-86192508D01*
X96502100Y-86324291D01*
X96536208Y-86451587D01*
X96552001Y-86478940D01*
X96602100Y-86565714D01*
X96695286Y-86658900D01*
X96809414Y-86724792D01*
X96936708Y-86758900D01*
X96936710Y-86758900D01*
X97068490Y-86758900D01*
X97068492Y-86758900D01*
X97195786Y-86724792D01*
X97309914Y-86658900D01*
X97403100Y-86565714D01*
X97468992Y-86451586D01*
X97503100Y-86324292D01*
X97503100Y-86192508D01*
X97468992Y-86065214D01*
X97403100Y-85951086D01*
X97309914Y-85857900D01*
X97252850Y-85824954D01*
X97195787Y-85792008D01*
X97132139Y-85774954D01*
X97068492Y-85757900D01*
X96936708Y-85757900D01*
X96809412Y-85792008D01*
X96695286Y-85857900D01*
X96695283Y-85857902D01*
X96602102Y-85951083D01*
X96602100Y-85951086D01*
X96536208Y-86065212D01*
X96502100Y-86192508D01*
X94354192Y-86192508D01*
X94352711Y-86181258D01*
X94323982Y-85963037D01*
X94323982Y-85963035D01*
X94259502Y-85722393D01*
X94193146Y-85562196D01*
X94164169Y-85492238D01*
X94164162Y-85492223D01*
X94039599Y-85276473D01*
X93887939Y-85078825D01*
X93887933Y-85078818D01*
X93711781Y-84902666D01*
X93711774Y-84902660D01*
X93514126Y-84751000D01*
X93298376Y-84626437D01*
X93298361Y-84626430D01*
X93068207Y-84531098D01*
X92948759Y-84499092D01*
X92827565Y-84466618D01*
X92827564Y-84466617D01*
X92827561Y-84466617D01*
X92580575Y-84434101D01*
X92580570Y-84434100D01*
X92580565Y-84434100D01*
X92331435Y-84434100D01*
X92331429Y-84434100D01*
X92331424Y-84434101D01*
X92084438Y-84466617D01*
X91843792Y-84531098D01*
X91613638Y-84626430D01*
X91613623Y-84626437D01*
X91397873Y-84751000D01*
X91200225Y-84902660D01*
X91200218Y-84902666D01*
X91024066Y-85078818D01*
X91024060Y-85078825D01*
X90872400Y-85276473D01*
X90747837Y-85492223D01*
X90747830Y-85492238D01*
X90652498Y-85722392D01*
X90588017Y-85963038D01*
X90555501Y-86210024D01*
X90555501Y-86210032D01*
X90555500Y-86210041D01*
X81374100Y-86210041D01*
X81374100Y-84961130D01*
X81880500Y-84961130D01*
X81880500Y-85168069D01*
X81920868Y-85371012D01*
X81920870Y-85371020D01*
X82000059Y-85562198D01*
X82038537Y-85619785D01*
X82115024Y-85734257D01*
X82261342Y-85880575D01*
X82261345Y-85880577D01*
X82433402Y-85995541D01*
X82624580Y-86074730D01*
X82827530Y-86115099D01*
X82827534Y-86115100D01*
X82827535Y-86115100D01*
X83034466Y-86115100D01*
X83034467Y-86115099D01*
X83078689Y-86106303D01*
X83189014Y-86084359D01*
X83211423Y-86079901D01*
X83237420Y-86074730D01*
X83428598Y-85995541D01*
X83600655Y-85880577D01*
X83746977Y-85734255D01*
X83861941Y-85562198D01*
X83941130Y-85371020D01*
X83981500Y-85168065D01*
X83981500Y-84961135D01*
X83941130Y-84758180D01*
X83861941Y-84567002D01*
X83746977Y-84394945D01*
X83746975Y-84394942D01*
X83600657Y-84248624D01*
X83441539Y-84142306D01*
X83428598Y-84133659D01*
X83409832Y-84125886D01*
X83237420Y-84054470D01*
X83237412Y-84054468D01*
X83034469Y-84014100D01*
X83034465Y-84014100D01*
X82827535Y-84014100D01*
X82827530Y-84014100D01*
X82624587Y-84054468D01*
X82624579Y-84054470D01*
X82433403Y-84133658D01*
X82261342Y-84248624D01*
X82115024Y-84394942D01*
X82000058Y-84567003D01*
X81920870Y-84758179D01*
X81920868Y-84758187D01*
X81880500Y-84961130D01*
X81374100Y-84961130D01*
X81374100Y-83241108D01*
X92158700Y-83241108D01*
X92158700Y-83372892D01*
X92169726Y-83414042D01*
X92192808Y-83500187D01*
X92221923Y-83550614D01*
X92258700Y-83614314D01*
X92351886Y-83707500D01*
X92466014Y-83773392D01*
X92593308Y-83807500D01*
X92593310Y-83807500D01*
X92725090Y-83807500D01*
X92725092Y-83807500D01*
X92852386Y-83773392D01*
X92966514Y-83707500D01*
X93009317Y-83664697D01*
X93980500Y-83664697D01*
X93980500Y-83924502D01*
X94021140Y-84181093D01*
X94101422Y-84428176D01*
X94172159Y-84567002D01*
X94193402Y-84608695D01*
X94219368Y-84659654D01*
X94290951Y-84758179D01*
X94372069Y-84869829D01*
X94555771Y-85053531D01*
X94765949Y-85206234D01*
X94903800Y-85276473D01*
X94997423Y-85324177D01*
X94997425Y-85324177D01*
X94997428Y-85324179D01*
X95244507Y-85404460D01*
X95376706Y-85425397D01*
X95501098Y-85445100D01*
X95501103Y-85445100D01*
X95760902Y-85445100D01*
X95874298Y-85427139D01*
X96017493Y-85404460D01*
X96152154Y-85360706D01*
X102402698Y-85360706D01*
X102402698Y-85492490D01*
X102409251Y-85516946D01*
X102436806Y-85619785D01*
X102469752Y-85676848D01*
X102502698Y-85733912D01*
X102595884Y-85827098D01*
X102710012Y-85892990D01*
X102837306Y-85927098D01*
X102837308Y-85927098D01*
X102969088Y-85927098D01*
X102969090Y-85927098D01*
X103096384Y-85892990D01*
X103210512Y-85827098D01*
X103303698Y-85733912D01*
X103369590Y-85619784D01*
X103403698Y-85492490D01*
X103403698Y-85376733D01*
X106787628Y-85376733D01*
X106787628Y-85508516D01*
X106821736Y-85635812D01*
X106854682Y-85692875D01*
X106887628Y-85749939D01*
X106980814Y-85843125D01*
X107094942Y-85909017D01*
X107222236Y-85943125D01*
X107222238Y-85943125D01*
X107354018Y-85943125D01*
X107354020Y-85943125D01*
X107481314Y-85909017D01*
X107595442Y-85843125D01*
X107688628Y-85749939D01*
X107754520Y-85635811D01*
X107788628Y-85508517D01*
X107788628Y-85376733D01*
X107754520Y-85249439D01*
X107688628Y-85135311D01*
X107595442Y-85042125D01*
X107538378Y-85009179D01*
X107481315Y-84976233D01*
X107417667Y-84959179D01*
X107354020Y-84942125D01*
X107222236Y-84942125D01*
X107094940Y-84976233D01*
X106980814Y-85042125D01*
X106980811Y-85042127D01*
X106887630Y-85135308D01*
X106887628Y-85135311D01*
X106821736Y-85249437D01*
X106787628Y-85376733D01*
X103403698Y-85376733D01*
X103403698Y-85360706D01*
X103369590Y-85233412D01*
X103303698Y-85119284D01*
X103210512Y-85026098D01*
X103124144Y-84976233D01*
X103096385Y-84960206D01*
X102997461Y-84933700D01*
X102969090Y-84926098D01*
X102837306Y-84926098D01*
X102710010Y-84960206D01*
X102595884Y-85026098D01*
X102595881Y-85026100D01*
X102502700Y-85119281D01*
X102502698Y-85119284D01*
X102436806Y-85233410D01*
X102415409Y-85313267D01*
X102402698Y-85360706D01*
X96152154Y-85360706D01*
X96264572Y-85324179D01*
X96496051Y-85206234D01*
X96706229Y-85053531D01*
X96889931Y-84869829D01*
X97042634Y-84659651D01*
X97160579Y-84428172D01*
X97240860Y-84181093D01*
X97266180Y-84021224D01*
X97281500Y-83924502D01*
X97281500Y-83677908D01*
X97721300Y-83677908D01*
X97721300Y-83809691D01*
X97755408Y-83936987D01*
X97772626Y-83966808D01*
X97821300Y-84051114D01*
X97914486Y-84144300D01*
X98028614Y-84210192D01*
X98155908Y-84244300D01*
X98155910Y-84244300D01*
X98287690Y-84244300D01*
X98287692Y-84244300D01*
X98414986Y-84210192D01*
X98529114Y-84144300D01*
X98622300Y-84051114D01*
X98688192Y-83936986D01*
X98722300Y-83809692D01*
X98722300Y-83677908D01*
X98714291Y-83648018D01*
X99444957Y-83648018D01*
X99444957Y-83779802D01*
X99452966Y-83809691D01*
X99479065Y-83907097D01*
X99512011Y-83964160D01*
X99544957Y-84021224D01*
X99638143Y-84114410D01*
X99752271Y-84180302D01*
X99879565Y-84214410D01*
X99879567Y-84214410D01*
X100011347Y-84214410D01*
X100011349Y-84214410D01*
X100138643Y-84180302D01*
X100204454Y-84142306D01*
X105635578Y-84142306D01*
X105635578Y-84274089D01*
X105669686Y-84401385D01*
X105688575Y-84434101D01*
X105735578Y-84515512D01*
X105828764Y-84608698D01*
X105942892Y-84674590D01*
X106070186Y-84708698D01*
X106070188Y-84708698D01*
X106201968Y-84708698D01*
X106201970Y-84708698D01*
X106329264Y-84674590D01*
X106443392Y-84608698D01*
X106536578Y-84515512D01*
X106602470Y-84401384D01*
X106611601Y-84367308D01*
X109659300Y-84367308D01*
X109659300Y-84499092D01*
X109663700Y-84515512D01*
X109693408Y-84626387D01*
X109712615Y-84659654D01*
X109759300Y-84740514D01*
X109852486Y-84833700D01*
X109966614Y-84899592D01*
X110093908Y-84933700D01*
X110093910Y-84933700D01*
X110225690Y-84933700D01*
X110225692Y-84933700D01*
X110352986Y-84899592D01*
X110467114Y-84833700D01*
X110560300Y-84740514D01*
X110626192Y-84626386D01*
X110660300Y-84499092D01*
X110660300Y-84367308D01*
X110626192Y-84240014D01*
X110560300Y-84125886D01*
X110467114Y-84032700D01*
X110410050Y-83999754D01*
X110352987Y-83966808D01*
X110241691Y-83936987D01*
X110225692Y-83932700D01*
X110093908Y-83932700D01*
X109966612Y-83966808D01*
X109852486Y-84032700D01*
X109852483Y-84032702D01*
X109759302Y-84125883D01*
X109759300Y-84125886D01*
X109693408Y-84240012D01*
X109684277Y-84274090D01*
X109659300Y-84367308D01*
X106611601Y-84367308D01*
X106636578Y-84274090D01*
X106636578Y-84142306D01*
X106602470Y-84015012D01*
X106601943Y-84014100D01*
X106574639Y-83966808D01*
X106536578Y-83900884D01*
X106443392Y-83807698D01*
X106383971Y-83773391D01*
X106329265Y-83741806D01*
X106265617Y-83724752D01*
X106201970Y-83707698D01*
X106070186Y-83707698D01*
X105942890Y-83741806D01*
X105828764Y-83807698D01*
X105828761Y-83807700D01*
X105735580Y-83900881D01*
X105735578Y-83900884D01*
X105669686Y-84015010D01*
X105635578Y-84142306D01*
X100204454Y-84142306D01*
X100252771Y-84114410D01*
X100345957Y-84021224D01*
X100411849Y-83907096D01*
X100445957Y-83779802D01*
X100445957Y-83648018D01*
X100411849Y-83520724D01*
X100345957Y-83406596D01*
X100252771Y-83313410D01*
X100169077Y-83265089D01*
X100138644Y-83247518D01*
X100074996Y-83230464D01*
X100011349Y-83213410D01*
X99879565Y-83213410D01*
X99752269Y-83247518D01*
X99638143Y-83313410D01*
X99638140Y-83313412D01*
X99544959Y-83406593D01*
X99544957Y-83406596D01*
X99479065Y-83520722D01*
X99471056Y-83550614D01*
X99444957Y-83648018D01*
X98714291Y-83648018D01*
X98688192Y-83550614D01*
X98622300Y-83436486D01*
X98529114Y-83343300D01*
X98461911Y-83304500D01*
X98414987Y-83277408D01*
X98351339Y-83260354D01*
X98287692Y-83243300D01*
X98155908Y-83243300D01*
X98028612Y-83277408D01*
X97914486Y-83343300D01*
X97914483Y-83343302D01*
X97821302Y-83436483D01*
X97821300Y-83436486D01*
X97755408Y-83550612D01*
X97721300Y-83677908D01*
X97281500Y-83677908D01*
X97281500Y-83664697D01*
X97255444Y-83500187D01*
X97240860Y-83408107D01*
X97160579Y-83161028D01*
X97160577Y-83161025D01*
X97160577Y-83161023D01*
X97066014Y-82975435D01*
X97042634Y-82929549D01*
X97042632Y-82929546D01*
X97042631Y-82929544D01*
X96889933Y-82719374D01*
X96889928Y-82719368D01*
X96706231Y-82535671D01*
X96706225Y-82535666D01*
X96496054Y-82382968D01*
X96496053Y-82382967D01*
X96496051Y-82382966D01*
X96423764Y-82346134D01*
X96264576Y-82265022D01*
X96017493Y-82184740D01*
X95760902Y-82144100D01*
X95760897Y-82144100D01*
X95501103Y-82144100D01*
X95501098Y-82144100D01*
X95244506Y-82184740D01*
X94997423Y-82265022D01*
X94765945Y-82382968D01*
X94555774Y-82535666D01*
X94555768Y-82535671D01*
X94372071Y-82719368D01*
X94372066Y-82719374D01*
X94219369Y-82929544D01*
X94219367Y-82929546D01*
X94219366Y-82929549D01*
X94216555Y-82935066D01*
X94101422Y-83161023D01*
X94021140Y-83408106D01*
X93980500Y-83664697D01*
X93009317Y-83664697D01*
X93059700Y-83614314D01*
X93125592Y-83500186D01*
X93159700Y-83372892D01*
X93159700Y-83241108D01*
X93125592Y-83113814D01*
X93059700Y-82999686D01*
X92966514Y-82906500D01*
X92878831Y-82855876D01*
X92852387Y-82840608D01*
X92788739Y-82823554D01*
X92725092Y-82806500D01*
X92593308Y-82806500D01*
X92466012Y-82840608D01*
X92351886Y-82906500D01*
X92351883Y-82906502D01*
X92258702Y-82999683D01*
X92258700Y-82999686D01*
X92192808Y-83113812D01*
X92158700Y-83241108D01*
X81374100Y-83241108D01*
X81374100Y-80875033D01*
X81393785Y-80807994D01*
X81446589Y-80762239D01*
X81498004Y-80751033D01*
X100402645Y-80737136D01*
X100469699Y-80756771D01*
X100515492Y-80809542D01*
X100525487Y-80878693D01*
X100505838Y-80930027D01*
X100461285Y-80996704D01*
X100461284Y-80996705D01*
X100449653Y-81055182D01*
X100449653Y-82794687D01*
X100461284Y-82853164D01*
X100461285Y-82853165D01*
X100505600Y-82919487D01*
X100571922Y-82963802D01*
X100571923Y-82963803D01*
X100630400Y-82975434D01*
X100630403Y-82975435D01*
X100630405Y-82975435D01*
X102369903Y-82975435D01*
X102369904Y-82975434D01*
X102389020Y-82971632D01*
X102428382Y-82963803D01*
X102428382Y-82963802D01*
X102428384Y-82963802D01*
X102494705Y-82919487D01*
X102539020Y-82853166D01*
X102539020Y-82853164D01*
X102539021Y-82853164D01*
X102550652Y-82794687D01*
X102550653Y-82794685D01*
X102550653Y-81055184D01*
X102550652Y-81055182D01*
X102539021Y-80996705D01*
X102539020Y-80996704D01*
X102493390Y-80928414D01*
X102472512Y-80861737D01*
X102490996Y-80794357D01*
X102542975Y-80747666D01*
X102596398Y-80735523D01*
X103544760Y-80734826D01*
X103611813Y-80754461D01*
X103657606Y-80807232D01*
X103667601Y-80876383D01*
X103638623Y-80939960D01*
X103592304Y-80973387D01*
X103542555Y-80993993D01*
X103370495Y-81108959D01*
X103224177Y-81255277D01*
X103109211Y-81427338D01*
X103030023Y-81618514D01*
X103030021Y-81618522D01*
X102989653Y-81821465D01*
X102989653Y-82028404D01*
X103030021Y-82231347D01*
X103030023Y-82231355D01*
X103109211Y-82422531D01*
X103224177Y-82594592D01*
X103325447Y-82695862D01*
X103358932Y-82757185D01*
X103353948Y-82826877D01*
X103312076Y-82882810D01*
X103269861Y-82903317D01*
X103156814Y-82933608D01*
X103156812Y-82933608D01*
X103156812Y-82933609D01*
X103042686Y-82999500D01*
X103042683Y-82999502D01*
X102949502Y-83092683D01*
X102949500Y-83092686D01*
X102883608Y-83206812D01*
X102860898Y-83291569D01*
X102849500Y-83334108D01*
X102849500Y-83465892D01*
X102858690Y-83500189D01*
X102883608Y-83593187D01*
X102916554Y-83650250D01*
X102949500Y-83707314D01*
X103042686Y-83800500D01*
X103156814Y-83866392D01*
X103284108Y-83900500D01*
X103284110Y-83900500D01*
X103415890Y-83900500D01*
X103415892Y-83900500D01*
X103543186Y-83866392D01*
X103657314Y-83800500D01*
X103750500Y-83707314D01*
X103816392Y-83593186D01*
X103850500Y-83465892D01*
X103850500Y-83334108D01*
X103816392Y-83206814D01*
X103786702Y-83155390D01*
X103770230Y-83087492D01*
X103793082Y-83021465D01*
X103848003Y-82978274D01*
X103917556Y-82971632D01*
X103918282Y-82971774D01*
X103922097Y-82972532D01*
X103936686Y-82975434D01*
X103936687Y-82975435D01*
X103936688Y-82975435D01*
X104143619Y-82975435D01*
X104143620Y-82975434D01*
X104346573Y-82935065D01*
X104537751Y-82855876D01*
X104709808Y-82740912D01*
X104856130Y-82594590D01*
X104971094Y-82422533D01*
X105050283Y-82231355D01*
X105090653Y-82028400D01*
X105090653Y-81821470D01*
X105050283Y-81618515D01*
X104971094Y-81427337D01*
X104856130Y-81255280D01*
X104856128Y-81255277D01*
X104709810Y-81108959D01*
X104537749Y-80993992D01*
X104486247Y-80972660D01*
X104431844Y-80928819D01*
X104409779Y-80862525D01*
X104427058Y-80794825D01*
X104478196Y-80747215D01*
X104533607Y-80734099D01*
X106089277Y-80732955D01*
X106156329Y-80752590D01*
X106202122Y-80805361D01*
X106212117Y-80874512D01*
X106183139Y-80938089D01*
X106136820Y-80971515D01*
X106082559Y-80993991D01*
X105910495Y-81108959D01*
X105764177Y-81255277D01*
X105649211Y-81427338D01*
X105570023Y-81618514D01*
X105570021Y-81618522D01*
X105529653Y-81821465D01*
X105529653Y-82028404D01*
X105570021Y-82231347D01*
X105570023Y-82231355D01*
X105649211Y-82422531D01*
X105764177Y-82594592D01*
X105910495Y-82740910D01*
X105910498Y-82740912D01*
X106082555Y-82855876D01*
X106273733Y-82935065D01*
X106418205Y-82963802D01*
X106476683Y-82975434D01*
X106476687Y-82975435D01*
X106476688Y-82975435D01*
X106683619Y-82975435D01*
X106683620Y-82975434D01*
X106886573Y-82935065D01*
X107077751Y-82855876D01*
X107249808Y-82740912D01*
X107396130Y-82594590D01*
X107511094Y-82422533D01*
X107590283Y-82231355D01*
X107630653Y-82028400D01*
X107630653Y-81821470D01*
X107590283Y-81618515D01*
X107511094Y-81427337D01*
X107396130Y-81255280D01*
X107396128Y-81255277D01*
X107249810Y-81108959D01*
X107077749Y-80993992D01*
X107021747Y-80970796D01*
X106967344Y-80926955D01*
X106945279Y-80860661D01*
X106962558Y-80792961D01*
X107013696Y-80745351D01*
X107069107Y-80732235D01*
X108633791Y-80731085D01*
X108700845Y-80750720D01*
X108746638Y-80803491D01*
X108756633Y-80872642D01*
X108727655Y-80936219D01*
X108681335Y-80969646D01*
X108622557Y-80993992D01*
X108450495Y-81108959D01*
X108304177Y-81255277D01*
X108189211Y-81427338D01*
X108110023Y-81618514D01*
X108110021Y-81618522D01*
X108069653Y-81821465D01*
X108069653Y-82028404D01*
X108110021Y-82231347D01*
X108110023Y-82231355D01*
X108189211Y-82422531D01*
X108304177Y-82594592D01*
X108450495Y-82740910D01*
X108450498Y-82740912D01*
X108622555Y-82855876D01*
X108813733Y-82935065D01*
X108958205Y-82963802D01*
X109016683Y-82975434D01*
X109016687Y-82975435D01*
X109016688Y-82975435D01*
X109223619Y-82975435D01*
X109223620Y-82975434D01*
X109426573Y-82935065D01*
X109617751Y-82855876D01*
X109789808Y-82740912D01*
X109936130Y-82594590D01*
X110051094Y-82422533D01*
X110130283Y-82231355D01*
X110170653Y-82028400D01*
X110170653Y-81821470D01*
X110130283Y-81618515D01*
X110051094Y-81427337D01*
X109936130Y-81255280D01*
X109936128Y-81255277D01*
X109789810Y-81108959D01*
X109617749Y-80993992D01*
X109557247Y-80968932D01*
X109502844Y-80925091D01*
X109480779Y-80858796D01*
X109498058Y-80791097D01*
X109549196Y-80743487D01*
X109604607Y-80730371D01*
X111146944Y-80729237D01*
X111213996Y-80748872D01*
G37*
G04 #@! TD.AperFunction*
G04 #@! TA.AperFunction,Conductor*
G36*
X82857049Y-99413542D02*
G01*
X82944599Y-99544570D01*
X83056030Y-99656001D01*
X83187058Y-99743551D01*
X83203706Y-99750446D01*
X82233259Y-100720892D01*
X82171936Y-100754377D01*
X82145548Y-100757211D01*
X81498070Y-100757055D01*
X81431035Y-100737354D01*
X81385293Y-100684539D01*
X81374100Y-100633055D01*
X81374100Y-99853838D01*
X81393785Y-99786799D01*
X81446589Y-99741044D01*
X81515747Y-99731100D01*
X81579303Y-99760125D01*
X81612661Y-99806386D01*
X81678520Y-99965387D01*
X81678527Y-99965402D01*
X81816163Y-100203796D01*
X81914758Y-100332286D01*
X82850152Y-99396892D01*
X82857049Y-99413542D01*
G37*
G04 #@! TD.AperFunction*
G04 #@! TD*
G04 #@! TA.AperFunction,Conductor*
G04 #@! TO.N,AGND*
G36*
X130355271Y-80720133D02*
G01*
X130363891Y-80722658D01*
X130422697Y-80760381D01*
X130451776Y-80823913D01*
X130441891Y-80893079D01*
X130401619Y-80942212D01*
X130397458Y-80945215D01*
X130372347Y-80959226D01*
X130312409Y-80984054D01*
X130140337Y-81099027D01*
X129994027Y-81245337D01*
X129879057Y-81417404D01*
X129799870Y-81608579D01*
X129799864Y-81608604D01*
X129759500Y-81811527D01*
X129759500Y-81811530D01*
X129759500Y-82018469D01*
X129759500Y-82018471D01*
X129759499Y-82018471D01*
X129799864Y-82221394D01*
X129799870Y-82221421D01*
X129865937Y-82380923D01*
X129865938Y-82380923D01*
X129879059Y-82412599D01*
X129879062Y-82412604D01*
X129892835Y-82433216D01*
X129994025Y-82584659D01*
X130140336Y-82730970D01*
X130140340Y-82730973D01*
X130140342Y-82730975D01*
X130140345Y-82730977D01*
X130140349Y-82730980D01*
X130140348Y-82730980D01*
X130140411Y-82731032D01*
X130140448Y-82731046D01*
X130312402Y-82845941D01*
X130503580Y-82925130D01*
X130638696Y-82952006D01*
X130648052Y-82953867D01*
X130703559Y-82964908D01*
X130705794Y-82965409D01*
X130706532Y-82965500D01*
X130913466Y-82965500D01*
X130917586Y-82965500D01*
X130925435Y-82963118D01*
X131116420Y-82925130D01*
X131307598Y-82845941D01*
X131479655Y-82730977D01*
X131522438Y-82688194D01*
X131558413Y-82652218D01*
X131586657Y-82631074D01*
X131596591Y-82625650D01*
X131614013Y-82621859D01*
X131619734Y-82618736D01*
X131626234Y-82619200D01*
X131664861Y-82610797D01*
X131730326Y-82635211D01*
X131772199Y-82691143D01*
X131772201Y-82691147D01*
X131774882Y-82698335D01*
X131782700Y-82741669D01*
X131782700Y-83670500D01*
X131763015Y-83737539D01*
X131710211Y-83783294D01*
X131658700Y-83794500D01*
X131083244Y-83794500D01*
X131031727Y-83801064D01*
X131031726Y-83801065D01*
X130971516Y-83816662D01*
X130971491Y-83816669D01*
X130953793Y-83822117D01*
X130953788Y-83822120D01*
X130876708Y-83871325D01*
X130876697Y-83871334D01*
X130827657Y-83921081D01*
X130827650Y-83921088D01*
X130811138Y-83940027D01*
X130811135Y-83940031D01*
X130805852Y-83951505D01*
X130780901Y-83987320D01*
X130598341Y-84169879D01*
X130537018Y-84203364D01*
X130486469Y-84203815D01*
X130298873Y-84166500D01*
X130298869Y-84166500D01*
X130298865Y-84166500D01*
X130091935Y-84166500D01*
X130091930Y-84166500D01*
X130091925Y-84166500D01*
X129904326Y-84203816D01*
X129834735Y-84197589D01*
X129792454Y-84169880D01*
X129606000Y-83983426D01*
X129584248Y-83954058D01*
X129580427Y-83946888D01*
X129575646Y-83937915D01*
X129529891Y-83885111D01*
X129529885Y-83885104D01*
X129512303Y-83867160D01*
X129512302Y-83867159D01*
X129512300Y-83867157D01*
X129512298Y-83867156D01*
X129512296Y-83867154D01*
X129432486Y-83822511D01*
X129432481Y-83822509D01*
X129365449Y-83802826D01*
X129365445Y-83802825D01*
X129365444Y-83802825D01*
X129307546Y-83794500D01*
X129307542Y-83794500D01*
X128725817Y-83794500D01*
X128725809Y-83794500D01*
X128701431Y-83796133D01*
X128698383Y-83796338D01*
X128690971Y-83797336D01*
X128665583Y-83800755D01*
X128665580Y-83800755D01*
X128665579Y-83800756D01*
X128665576Y-83800756D01*
X128585018Y-83829579D01*
X128525575Y-83866294D01*
X128525566Y-83866300D01*
X128505041Y-83880784D01*
X128505034Y-83880790D01*
X128448192Y-83952435D01*
X128418031Y-84015468D01*
X128408591Y-84038758D01*
X128406988Y-84054817D01*
X128380741Y-84119570D01*
X128323653Y-84159853D01*
X128283601Y-84166500D01*
X127026362Y-84166500D01*
X126959323Y-84146815D01*
X126913568Y-84094011D01*
X126903625Y-84060150D01*
X126901196Y-84043263D01*
X126901194Y-84043251D01*
X126901193Y-84043242D01*
X126896101Y-84018627D01*
X126853091Y-83937915D01*
X126807336Y-83885111D01*
X126807330Y-83885104D01*
X126789748Y-83867160D01*
X126789747Y-83867159D01*
X126789745Y-83867157D01*
X126789743Y-83867156D01*
X126789741Y-83867154D01*
X126709931Y-83822511D01*
X126709926Y-83822509D01*
X126642894Y-83802826D01*
X126642890Y-83802825D01*
X126642889Y-83802825D01*
X126584991Y-83794500D01*
X126584987Y-83794500D01*
X126123992Y-83794500D01*
X126080313Y-83799197D01*
X126028825Y-83810397D01*
X126018627Y-83812890D01*
X126018624Y-83812891D01*
X125937916Y-83855899D01*
X125937913Y-83855901D01*
X125885104Y-83901660D01*
X125867160Y-83919242D01*
X125867154Y-83919249D01*
X125822511Y-83999059D01*
X125822509Y-83999064D01*
X125802826Y-84066096D01*
X125802825Y-84066101D01*
X125802825Y-84066102D01*
X125794937Y-84120966D01*
X125794500Y-84124003D01*
X125794500Y-87455689D01*
X125774815Y-87522728D01*
X125722011Y-87568483D01*
X125652853Y-87578427D01*
X125608501Y-87563077D01*
X125598783Y-87557466D01*
X125556056Y-87532797D01*
X125492408Y-87515743D01*
X125428761Y-87498689D01*
X125428760Y-87498689D01*
X125296975Y-87498689D01*
X125180518Y-87529892D01*
X125180518Y-87529893D01*
X125145474Y-87534083D01*
X125129848Y-87533711D01*
X125063307Y-87512444D01*
X125061807Y-87511429D01*
X125021081Y-87465547D01*
X125017537Y-87458672D01*
X125007981Y-87433952D01*
X124996392Y-87390699D01*
X124930500Y-87276571D01*
X124837314Y-87183385D01*
X124780250Y-87150439D01*
X124723187Y-87117493D01*
X124659539Y-87100439D01*
X124595892Y-87083385D01*
X124595891Y-87083385D01*
X124464108Y-87083385D01*
X124336808Y-87117494D01*
X124336806Y-87117495D01*
X124222696Y-87183378D01*
X124222682Y-87183387D01*
X124222677Y-87183391D01*
X124129506Y-87276562D01*
X124129502Y-87276567D01*
X124129493Y-87276581D01*
X124063610Y-87390691D01*
X124063607Y-87390698D01*
X124060172Y-87403516D01*
X124060173Y-87403517D01*
X124029500Y-87517993D01*
X124029500Y-87649780D01*
X124036384Y-87675472D01*
X124036385Y-87675472D01*
X124063608Y-87777072D01*
X124079165Y-87804017D01*
X124129500Y-87891199D01*
X124222686Y-87984385D01*
X124336814Y-88050277D01*
X124464108Y-88084385D01*
X124464110Y-88084385D01*
X124595889Y-88084385D01*
X124595892Y-88084385D01*
X124712358Y-88053178D01*
X124747394Y-88048989D01*
X124763020Y-88049361D01*
X124829543Y-88070617D01*
X124831045Y-88071633D01*
X124871785Y-88117524D01*
X124872985Y-88119850D01*
X124875331Y-88124401D01*
X124884888Y-88149125D01*
X124896474Y-88192370D01*
X124896477Y-88192376D01*
X124917778Y-88229269D01*
X124962369Y-88306503D01*
X125055555Y-88399689D01*
X125169683Y-88465581D01*
X125296977Y-88499689D01*
X125296979Y-88499689D01*
X125428759Y-88499689D01*
X125428761Y-88499689D01*
X125556055Y-88465581D01*
X125608500Y-88435301D01*
X125676399Y-88418829D01*
X125742426Y-88441681D01*
X125785617Y-88496602D01*
X125794500Y-88542689D01*
X125794500Y-89697148D01*
X125774815Y-89764187D01*
X125722011Y-89809942D01*
X125652853Y-89819886D01*
X125643725Y-89818100D01*
X125643721Y-89818122D01*
X125447546Y-89779100D01*
X125447543Y-89779100D01*
X125447541Y-89779100D01*
X125250459Y-89779100D01*
X125250457Y-89779100D01*
X125250453Y-89779100D01*
X125057176Y-89817545D01*
X125057170Y-89817547D01*
X125057160Y-89817550D01*
X125057155Y-89817551D01*
X125057137Y-89817558D01*
X124875098Y-89892960D01*
X124875089Y-89892965D01*
X124875072Y-89892975D01*
X124711215Y-90002461D01*
X124711214Y-90002462D01*
X124711208Y-90002467D01*
X124571867Y-90141808D01*
X124571862Y-90141814D01*
X124462375Y-90305672D01*
X124462365Y-90305689D01*
X124462360Y-90305698D01*
X124386958Y-90487737D01*
X124386945Y-90487776D01*
X124348500Y-90681051D01*
X124348500Y-90833774D01*
X124343237Y-90851694D01*
X124386945Y-91071422D01*
X124386946Y-91071426D01*
X124386947Y-91071429D01*
X124386950Y-91071439D01*
X124386953Y-91071447D01*
X124386958Y-91071461D01*
X124462360Y-91253500D01*
X124462365Y-91253509D01*
X124462375Y-91253526D01*
X124571861Y-91417383D01*
X124571862Y-91417384D01*
X124571867Y-91417390D01*
X124711208Y-91556731D01*
X124711214Y-91556736D01*
X124711218Y-91556739D01*
X124875079Y-91666228D01*
X124875092Y-91666235D01*
X124875094Y-91666235D01*
X124875098Y-91666238D01*
X124983774Y-91711252D01*
X125029116Y-91730033D01*
X125051554Y-91739326D01*
X125055963Y-91741412D01*
X125250453Y-91780100D01*
X125447543Y-91780100D01*
X125447545Y-91780100D01*
X125581463Y-91753461D01*
X125605664Y-91748647D01*
X125640835Y-91741651D01*
X125640836Y-91741650D01*
X125646308Y-91740562D01*
X125715899Y-91746789D01*
X125771077Y-91789651D01*
X125794322Y-91855541D01*
X125794500Y-91862179D01*
X125794500Y-92708752D01*
X125774815Y-92775791D01*
X125722011Y-92821546D01*
X125652853Y-92831490D01*
X125589297Y-92802465D01*
X125572129Y-92784245D01*
X125571700Y-92783686D01*
X125478516Y-92690502D01*
X125478514Y-92690500D01*
X125421450Y-92657554D01*
X125364387Y-92624608D01*
X125274659Y-92600566D01*
X125274659Y-92600565D01*
X125237093Y-92590500D01*
X125237092Y-92590500D01*
X125105308Y-92590500D01*
X124978008Y-92624609D01*
X124978006Y-92624610D01*
X124863896Y-92690493D01*
X124863882Y-92690502D01*
X124863877Y-92690506D01*
X124770706Y-92783677D01*
X124770702Y-92783682D01*
X124770693Y-92783696D01*
X124704807Y-92897810D01*
X124704807Y-92897811D01*
X124681782Y-92983748D01*
X124670700Y-93025106D01*
X124670700Y-93025108D01*
X124670700Y-93156892D01*
X124673137Y-93165988D01*
X124674285Y-93170269D01*
X124674286Y-93170274D01*
X124704808Y-93284188D01*
X124710363Y-93293809D01*
X124720000Y-93310500D01*
X124770700Y-93398314D01*
X124863886Y-93491500D01*
X124978014Y-93557392D01*
X125105308Y-93591500D01*
X125105310Y-93591500D01*
X125237090Y-93591500D01*
X125237092Y-93591500D01*
X125364386Y-93557392D01*
X125478514Y-93491500D01*
X125571700Y-93398314D01*
X125571703Y-93398307D01*
X125572124Y-93397761D01*
X125572602Y-93397411D01*
X125577447Y-93392567D01*
X125578202Y-93393322D01*
X125628551Y-93356558D01*
X125698297Y-93352403D01*
X125759218Y-93386615D01*
X125791971Y-93448332D01*
X125794500Y-93473247D01*
X125794500Y-95332579D01*
X125774815Y-95399618D01*
X125722011Y-95445373D01*
X125652853Y-95455317D01*
X125608499Y-95439966D01*
X125567910Y-95416531D01*
X125504261Y-95399477D01*
X125440614Y-95382423D01*
X125440613Y-95382423D01*
X125308830Y-95382423D01*
X125181530Y-95416532D01*
X125181528Y-95416533D01*
X125067418Y-95482416D01*
X125067404Y-95482425D01*
X125067399Y-95482429D01*
X124974228Y-95575600D01*
X124974220Y-95575609D01*
X124974218Y-95575613D01*
X124908329Y-95689736D01*
X124905246Y-95701243D01*
X124894078Y-95727324D01*
X124891358Y-95733677D01*
X124883223Y-95747023D01*
X124831527Y-95794024D01*
X124831525Y-95794025D01*
X124823551Y-95797899D01*
X124769365Y-95810365D01*
X124664108Y-95810365D01*
X124536808Y-95844474D01*
X124536806Y-95844475D01*
X124422696Y-95910358D01*
X124422682Y-95910367D01*
X124422677Y-95910371D01*
X124329506Y-96003542D01*
X124329502Y-96003547D01*
X124329493Y-96003561D01*
X124263610Y-96117671D01*
X124263609Y-96117674D01*
X124263608Y-96117676D01*
X124263608Y-96117677D01*
X124259981Y-96131213D01*
X124244166Y-96190237D01*
X124229500Y-96244971D01*
X124229500Y-96376758D01*
X124231843Y-96385502D01*
X124231844Y-96385505D01*
X124235662Y-96399754D01*
X124263608Y-96504052D01*
X124280533Y-96533366D01*
X124329500Y-96618179D01*
X124422686Y-96711365D01*
X124501406Y-96756814D01*
X124501407Y-96756815D01*
X124521809Y-96768594D01*
X124536810Y-96777255D01*
X124536814Y-96777257D01*
X124664108Y-96811365D01*
X124664110Y-96811365D01*
X124795890Y-96811365D01*
X124795892Y-96811365D01*
X124923186Y-96777257D01*
X125037314Y-96711365D01*
X125130500Y-96618179D01*
X125196392Y-96504051D01*
X125199474Y-96492545D01*
X125213363Y-96460110D01*
X125221502Y-96446756D01*
X125273197Y-96399762D01*
X125281187Y-96395880D01*
X125335357Y-96383423D01*
X125440612Y-96383423D01*
X125440614Y-96383423D01*
X125567908Y-96349315D01*
X125608499Y-96325880D01*
X125676399Y-96309406D01*
X125742426Y-96332258D01*
X125785617Y-96387178D01*
X125794500Y-96433266D01*
X125794500Y-96876007D01*
X125799197Y-96919686D01*
X125810397Y-96971174D01*
X125811775Y-96976809D01*
X125812890Y-96981373D01*
X125855900Y-97062085D01*
X125862191Y-97069345D01*
X125901660Y-97114895D01*
X125907853Y-97121215D01*
X125919246Y-97132843D01*
X125919247Y-97132844D01*
X125919249Y-97132845D01*
X125998516Y-97177184D01*
X125999063Y-97177490D01*
X126066102Y-97197175D01*
X126124000Y-97205500D01*
X126825491Y-97205500D01*
X126825500Y-97205500D01*
X126869184Y-97200803D01*
X126911919Y-97191506D01*
X126981610Y-97196490D01*
X127037544Y-97238360D01*
X127045664Y-97250670D01*
X127049500Y-97257314D01*
X127142686Y-97350500D01*
X127256814Y-97416392D01*
X127384108Y-97450500D01*
X127384110Y-97450500D01*
X127515890Y-97450500D01*
X127515892Y-97450500D01*
X127643186Y-97416392D01*
X127757314Y-97350500D01*
X127850500Y-97257314D01*
X127855504Y-97248645D01*
X127906067Y-97200428D01*
X127974673Y-97187201D01*
X127997829Y-97191662D01*
X128016602Y-97197175D01*
X128074500Y-97205500D01*
X128074504Y-97205500D01*
X128737322Y-97205500D01*
X128804361Y-97225185D01*
X128850116Y-97277989D01*
X128860060Y-97347147D01*
X128831035Y-97410703D01*
X128825003Y-97417181D01*
X128799506Y-97442677D01*
X128799502Y-97442682D01*
X128799493Y-97442696D01*
X128733610Y-97556806D01*
X128733609Y-97556809D01*
X128733608Y-97556811D01*
X128733608Y-97556812D01*
X128731175Y-97565892D01*
X128707036Y-97655983D01*
X128699500Y-97684106D01*
X128699500Y-97815895D01*
X128712305Y-97863685D01*
X128712306Y-97863685D01*
X128712306Y-97863686D01*
X128733608Y-97943187D01*
X128766554Y-98000250D01*
X128799500Y-98057314D01*
X128892686Y-98150500D01*
X129006814Y-98216392D01*
X129134108Y-98250500D01*
X129134110Y-98250500D01*
X129265890Y-98250500D01*
X129265892Y-98250500D01*
X129393186Y-98216392D01*
X129507314Y-98150500D01*
X129600500Y-98057314D01*
X129666392Y-97943186D01*
X129700500Y-97815892D01*
X129700500Y-97684108D01*
X129666392Y-97556814D01*
X129666387Y-97556806D01*
X129657563Y-97541521D01*
X129600500Y-97442686D01*
X129574995Y-97417181D01*
X129541510Y-97355858D01*
X129546494Y-97286166D01*
X129588366Y-97230233D01*
X129653830Y-97205816D01*
X129662676Y-97205500D01*
X130505967Y-97205500D01*
X130505973Y-97205500D01*
X130544866Y-97201786D01*
X130590953Y-97192903D01*
X130596424Y-97191771D01*
X130679091Y-97152651D01*
X130734012Y-97109461D01*
X130752785Y-97092742D01*
X130780867Y-97047709D01*
X130833042Y-97001243D01*
X130886223Y-96989326D01*
X130902474Y-96989344D01*
X130944108Y-97000500D01*
X130944110Y-97000500D01*
X131075890Y-97000500D01*
X131075892Y-97000500D01*
X131116621Y-96989586D01*
X131133014Y-96989605D01*
X131151431Y-96995035D01*
X131170628Y-96995492D01*
X131184251Y-97004712D01*
X131200031Y-97009365D01*
X131212590Y-97023892D01*
X131228491Y-97034654D01*
X131242304Y-97055287D01*
X131245923Y-97062079D01*
X131245926Y-97062083D01*
X131245927Y-97062085D01*
X131252218Y-97069345D01*
X131291687Y-97114895D01*
X131297880Y-97121215D01*
X131309273Y-97132843D01*
X131309274Y-97132844D01*
X131309276Y-97132845D01*
X131388543Y-97177184D01*
X131389090Y-97177490D01*
X131456129Y-97197175D01*
X131514027Y-97205500D01*
X131514031Y-97205500D01*
X131658700Y-97205500D01*
X131725739Y-97225185D01*
X131771494Y-97277989D01*
X131782700Y-97329500D01*
X131782700Y-98661675D01*
X131782699Y-98661677D01*
X131782700Y-98661678D01*
X131778456Y-98691186D01*
X131777676Y-98696613D01*
X131774489Y-98707466D01*
X131736714Y-98766243D01*
X131673157Y-98795266D01*
X131604007Y-98785325D01*
X131597029Y-98782138D01*
X131560859Y-98757026D01*
X131479657Y-98675824D01*
X131479656Y-98675823D01*
X131479655Y-98675822D01*
X131311655Y-98563569D01*
X131311655Y-98563570D01*
X131307598Y-98560859D01*
X131307597Y-98560858D01*
X131231169Y-98529201D01*
X131207935Y-98519577D01*
X131116420Y-98481670D01*
X131116412Y-98481668D01*
X131116404Y-98481666D01*
X131116394Y-98481664D01*
X130913471Y-98441300D01*
X130913469Y-98441300D01*
X130913465Y-98441300D01*
X130706535Y-98441300D01*
X130706530Y-98441300D01*
X130706528Y-98441300D01*
X130503604Y-98481664D01*
X130503579Y-98481670D01*
X130312404Y-98560857D01*
X130140337Y-98675827D01*
X129994027Y-98822137D01*
X129879057Y-98994204D01*
X129799870Y-99185379D01*
X129799864Y-99185404D01*
X129759500Y-99388327D01*
X129759500Y-99595272D01*
X129759580Y-99596086D01*
X129759681Y-99619282D01*
X129758279Y-99634935D01*
X129732692Y-99699951D01*
X129676029Y-99740809D01*
X129669748Y-99743025D01*
X129624017Y-99747805D01*
X129624017Y-99749500D01*
X129484105Y-99749500D01*
X129481263Y-99750262D01*
X129476928Y-99750445D01*
X129476049Y-99750561D01*
X129476038Y-99750482D01*
X129469835Y-99750745D01*
X129462588Y-99753758D01*
X129439473Y-99752028D01*
X129429814Y-99752437D01*
X129429773Y-99752731D01*
X129428186Y-99752506D01*
X129427314Y-99752543D01*
X129420804Y-99751377D01*
X129419048Y-99750501D01*
X129417577Y-99750391D01*
X129415581Y-99749865D01*
X129415835Y-99748897D01*
X129391476Y-99736743D01*
X129361647Y-99723191D01*
X129360378Y-99721225D01*
X129358285Y-99720181D01*
X129341529Y-99692021D01*
X129329350Y-99673152D01*
X129327471Y-99673961D01*
X129327363Y-99673710D01*
X129326414Y-99668604D01*
X129323759Y-99664490D01*
X129322467Y-99660122D01*
X129322558Y-99660094D01*
X129322914Y-99649755D01*
X129317361Y-99619851D01*
X129317408Y-99618650D01*
X129319698Y-99599297D01*
X129320500Y-99595266D01*
X129320500Y-99388334D01*
X129320499Y-99388330D01*
X129302692Y-99298807D01*
X129280130Y-99185380D01*
X129200941Y-98994202D01*
X129086046Y-98822249D01*
X129086036Y-98822217D01*
X129085980Y-98822148D01*
X129085980Y-98822149D01*
X129085977Y-98822145D01*
X129085975Y-98822142D01*
X129085972Y-98822139D01*
X129085970Y-98822136D01*
X128939662Y-98675828D01*
X128939655Y-98675822D01*
X128771655Y-98563569D01*
X128771655Y-98563570D01*
X128767598Y-98560859D01*
X128767597Y-98560858D01*
X128691169Y-98529201D01*
X128667935Y-98519577D01*
X128576420Y-98481670D01*
X128576412Y-98481668D01*
X128576404Y-98481666D01*
X128576394Y-98481664D01*
X128373471Y-98441300D01*
X128373469Y-98441300D01*
X128373465Y-98441300D01*
X128166535Y-98441300D01*
X128166530Y-98441300D01*
X128166528Y-98441300D01*
X127963604Y-98481664D01*
X127963579Y-98481670D01*
X127772404Y-98560857D01*
X127600337Y-98675827D01*
X127454027Y-98822137D01*
X127339057Y-98994204D01*
X127259870Y-99185379D01*
X127259864Y-99185404D01*
X127219500Y-99388327D01*
X127219500Y-99388330D01*
X127219500Y-99595269D01*
X127219500Y-99595271D01*
X127219499Y-99595271D01*
X127259290Y-99795308D01*
X127259868Y-99798212D01*
X127259870Y-99798220D01*
X127331226Y-99970487D01*
X127334925Y-99979418D01*
X127339058Y-99989396D01*
X127339060Y-99989399D01*
X127352835Y-100010016D01*
X127454025Y-100161459D01*
X127600336Y-100307770D01*
X127600340Y-100307773D01*
X127600342Y-100307775D01*
X127600345Y-100307777D01*
X127600349Y-100307780D01*
X127600348Y-100307780D01*
X127600411Y-100307832D01*
X127600448Y-100307846D01*
X127772402Y-100422741D01*
X127963580Y-100501930D01*
X128024221Y-100513992D01*
X128050314Y-100519182D01*
X128050316Y-100519183D01*
X128050318Y-100519184D01*
X128083585Y-100530919D01*
X128089000Y-100533751D01*
X128101834Y-100546134D01*
X128112226Y-100551570D01*
X128118024Y-100561753D01*
X128139281Y-100582262D01*
X128146080Y-100611028D01*
X128146798Y-100612288D01*
X128146720Y-100613734D01*
X128155354Y-100650258D01*
X128132113Y-100716149D01*
X128076939Y-100759016D01*
X128076926Y-100759021D01*
X128075289Y-100759665D01*
X128029864Y-100768273D01*
X125976722Y-100767778D01*
X125960240Y-100763119D01*
X125944268Y-100763448D01*
X125941784Y-100762745D01*
X125935922Y-100761022D01*
X125922671Y-100752501D01*
X125911869Y-100749448D01*
X125907501Y-100746766D01*
X125898841Y-100737177D01*
X125877155Y-100723232D01*
X125867868Y-100702882D01*
X125860671Y-100694913D01*
X125858658Y-100682701D01*
X125848147Y-100659668D01*
X125851279Y-100637924D01*
X125849310Y-100625974D01*
X125854847Y-100613158D01*
X125858110Y-100590512D01*
X125871112Y-100575514D01*
X125877023Y-100561835D01*
X125891279Y-100552253D01*
X125903875Y-100537724D01*
X125905401Y-100536744D01*
X125927809Y-100527703D01*
X125935013Y-100522862D01*
X125940064Y-100522758D01*
X125948191Y-100519479D01*
X126036420Y-100501930D01*
X126227598Y-100422741D01*
X126399655Y-100307777D01*
X126545977Y-100161455D01*
X126660941Y-99989398D01*
X126740130Y-99798220D01*
X126780500Y-99595265D01*
X126780500Y-99388335D01*
X126740130Y-99185380D01*
X126660941Y-98994202D01*
X126546046Y-98822249D01*
X126546036Y-98822217D01*
X126545980Y-98822148D01*
X126545980Y-98822149D01*
X126545977Y-98822145D01*
X126545975Y-98822142D01*
X126545972Y-98822139D01*
X126545970Y-98822136D01*
X126399662Y-98675828D01*
X126399655Y-98675822D01*
X126231655Y-98563569D01*
X126231655Y-98563570D01*
X126227598Y-98560859D01*
X126227597Y-98560858D01*
X126151169Y-98529201D01*
X126036437Y-98481677D01*
X126036416Y-98481668D01*
X126036412Y-98481667D01*
X126033720Y-98481132D01*
X126000442Y-98469390D01*
X125988378Y-98463079D01*
X125938100Y-98414562D01*
X125922034Y-98346564D01*
X125940950Y-98287094D01*
X125946713Y-98277950D01*
X125946712Y-98277949D01*
X125962030Y-98253644D01*
X125962155Y-98252502D01*
X125969260Y-98238120D01*
X126016392Y-98156486D01*
X126050500Y-98029192D01*
X126050500Y-97897408D01*
X126016392Y-97770114D01*
X126016389Y-97770108D01*
X125997841Y-97737982D01*
X125997840Y-97737981D01*
X125993776Y-97730942D01*
X125993776Y-97730941D01*
X125966736Y-97684107D01*
X125950502Y-97655989D01*
X125950497Y-97655983D01*
X125857316Y-97562802D01*
X125857314Y-97562800D01*
X125800250Y-97529854D01*
X125743187Y-97496908D01*
X125679539Y-97479854D01*
X125615892Y-97462800D01*
X125615891Y-97462800D01*
X125484108Y-97462800D01*
X125356808Y-97496909D01*
X125356806Y-97496910D01*
X125242696Y-97562793D01*
X125242682Y-97562802D01*
X125242677Y-97562806D01*
X125149506Y-97655977D01*
X125149502Y-97655982D01*
X125149493Y-97655996D01*
X125083610Y-97770106D01*
X125083609Y-97770108D01*
X125083502Y-97770506D01*
X125049500Y-97897408D01*
X125049500Y-98029191D01*
X125083608Y-98156487D01*
X125102328Y-98188910D01*
X125149500Y-98270614D01*
X125149502Y-98270616D01*
X125233433Y-98354547D01*
X125238084Y-98360493D01*
X125238368Y-98361209D01*
X125240570Y-98363781D01*
X125246320Y-98371658D01*
X125246320Y-98371659D01*
X125256599Y-98385741D01*
X125280225Y-98451494D01*
X125264555Y-98519577D01*
X125261292Y-98525386D01*
X125222071Y-98567760D01*
X125060341Y-98675823D01*
X124914027Y-98822137D01*
X124799057Y-98994204D01*
X124719870Y-99185379D01*
X124719864Y-99185404D01*
X124679500Y-99388327D01*
X124679500Y-99595270D01*
X124693135Y-99663817D01*
X124695513Y-99689127D01*
X124695467Y-99694119D01*
X124695280Y-99696218D01*
X124695443Y-99696874D01*
X124695383Y-99703526D01*
X124694026Y-99707997D01*
X124692706Y-99728059D01*
X124692488Y-99729090D01*
X124681347Y-99749776D01*
X124675094Y-99770385D01*
X124666153Y-99777991D01*
X124659360Y-99790607D01*
X124659312Y-99790657D01*
X124658745Y-99791230D01*
X124635470Y-99804098D01*
X124621879Y-99815662D01*
X124612198Y-99816964D01*
X124601991Y-99822608D01*
X124602305Y-99823708D01*
X124598665Y-99824746D01*
X124597941Y-99824847D01*
X124597598Y-99825037D01*
X124594433Y-99825700D01*
X124592130Y-99826151D01*
X124592036Y-99825672D01*
X124564660Y-99829500D01*
X124444908Y-99829500D01*
X124444900Y-99829501D01*
X124383612Y-99845922D01*
X124373006Y-99846438D01*
X124366508Y-99849238D01*
X124335720Y-99848254D01*
X124331222Y-99848474D01*
X124329903Y-99848255D01*
X124327847Y-99847870D01*
X124327537Y-99847862D01*
X124323442Y-99847183D01*
X124322976Y-99846958D01*
X124322944Y-99846952D01*
X124322945Y-99846943D01*
X124295175Y-99833527D01*
X124266155Y-99821584D01*
X124263968Y-99818451D01*
X124260529Y-99816790D01*
X124244196Y-99790123D01*
X124230840Y-99770989D01*
X124229101Y-99771734D01*
X124228164Y-99769545D01*
X124227561Y-99766291D01*
X124226190Y-99764326D01*
X124225546Y-99762408D01*
X124226767Y-99761998D01*
X124226679Y-99761523D01*
X124224036Y-99757208D01*
X124224229Y-99748287D01*
X124218251Y-99715994D01*
X124218298Y-99714779D01*
X124220588Y-99695365D01*
X124240500Y-99595265D01*
X124240500Y-99388335D01*
X124200130Y-99185380D01*
X124120941Y-98994202D01*
X124006046Y-98822249D01*
X124006036Y-98822217D01*
X124005980Y-98822148D01*
X124005980Y-98822149D01*
X124005977Y-98822145D01*
X124005975Y-98822142D01*
X124005972Y-98822139D01*
X124005970Y-98822136D01*
X123859662Y-98675828D01*
X123859655Y-98675822D01*
X123691655Y-98563569D01*
X123691655Y-98563570D01*
X123687598Y-98560859D01*
X123687597Y-98560858D01*
X123611169Y-98529201D01*
X123587935Y-98519577D01*
X123496420Y-98481670D01*
X123496412Y-98481668D01*
X123496404Y-98481666D01*
X123496394Y-98481664D01*
X123293471Y-98441300D01*
X123293469Y-98441300D01*
X123293465Y-98441300D01*
X123086535Y-98441300D01*
X123086530Y-98441300D01*
X123086528Y-98441300D01*
X122883604Y-98481664D01*
X122883579Y-98481670D01*
X122692404Y-98560857D01*
X122520337Y-98675827D01*
X122374026Y-98822138D01*
X122374021Y-98822145D01*
X122259063Y-98994192D01*
X122259055Y-98994206D01*
X122197657Y-99142437D01*
X122187404Y-99159717D01*
X122179649Y-99172788D01*
X122172553Y-99181594D01*
X122115162Y-99221444D01*
X122045337Y-99223939D01*
X121985248Y-99188288D01*
X121983579Y-99186496D01*
X121981831Y-99184618D01*
X121954664Y-99138451D01*
X121901095Y-98973582D01*
X121804624Y-98784249D01*
X121765270Y-98730082D01*
X121765269Y-98730082D01*
X121765268Y-98730082D01*
X121259702Y-99235649D01*
X121198379Y-99269134D01*
X121128687Y-99264150D01*
X121072754Y-99222278D01*
X121064634Y-99209969D01*
X121063179Y-99207449D01*
X121050099Y-99184793D01*
X120957007Y-99091701D01*
X120957004Y-99091699D01*
X120957000Y-99091696D01*
X120931828Y-99077163D01*
X120883613Y-99026596D01*
X120870391Y-98957989D01*
X120896359Y-98893124D01*
X120906141Y-98882103D01*
X121411716Y-98376528D01*
X121405014Y-98371659D01*
X121357550Y-98337175D01*
X121357548Y-98337174D01*
X121168214Y-98240702D01*
X120966130Y-98175042D01*
X120756251Y-98141800D01*
X120756246Y-98141800D01*
X120543754Y-98141800D01*
X120543749Y-98141800D01*
X120343513Y-98173515D01*
X120343505Y-98173515D01*
X120343506Y-98173516D01*
X120333865Y-98175042D01*
X120131773Y-98240707D01*
X120051278Y-98281721D01*
X120017875Y-98293105D01*
X120004235Y-98295667D01*
X119934714Y-98288696D01*
X119879999Y-98245248D01*
X119878054Y-98242488D01*
X119857087Y-98191323D01*
X119856765Y-98189378D01*
X119855100Y-98169125D01*
X119855100Y-98105110D01*
X119855100Y-98105108D01*
X119820992Y-97977814D01*
X119814397Y-97966392D01*
X119814395Y-97966388D01*
X119801296Y-97943700D01*
X119755102Y-97863689D01*
X119755098Y-97863684D01*
X119661916Y-97770502D01*
X119661914Y-97770500D01*
X119604850Y-97737554D01*
X119547787Y-97704608D01*
X119484139Y-97687554D01*
X119420492Y-97670500D01*
X119420491Y-97670500D01*
X119288708Y-97670500D01*
X119161408Y-97704609D01*
X119161406Y-97704610D01*
X119047296Y-97770493D01*
X119047282Y-97770502D01*
X119047277Y-97770506D01*
X118954106Y-97863677D01*
X118954102Y-97863682D01*
X118954099Y-97863688D01*
X118888210Y-97977806D01*
X118888209Y-97977809D01*
X118888208Y-97977811D01*
X118888208Y-97977812D01*
X118866906Y-98057314D01*
X118866905Y-98057313D01*
X118854100Y-98105104D01*
X118854100Y-98236893D01*
X118864862Y-98277060D01*
X118864863Y-98277060D01*
X118888208Y-98364187D01*
X118918449Y-98416565D01*
X118954100Y-98478314D01*
X119047286Y-98571500D01*
X119161414Y-98637392D01*
X119288708Y-98671500D01*
X119288710Y-98671500D01*
X119332644Y-98671500D01*
X119367576Y-98676521D01*
X119380895Y-98680432D01*
X119439673Y-98718206D01*
X119468699Y-98781761D01*
X119468699Y-98781765D01*
X119469174Y-98785069D01*
X119464637Y-98840189D01*
X119464040Y-98842072D01*
X119456324Y-98860889D01*
X119398905Y-98973581D01*
X119392203Y-98994208D01*
X119347165Y-99132817D01*
X119333939Y-99159717D01*
X119331595Y-99164485D01*
X119325211Y-99173822D01*
X119271123Y-99218053D01*
X119201710Y-99226020D01*
X119139009Y-99195195D01*
X119135317Y-99191806D01*
X119104609Y-99147910D01*
X119096714Y-99128850D01*
X119081327Y-99091701D01*
X119040943Y-98994205D01*
X118925975Y-98822142D01*
X118925973Y-98822139D01*
X118779662Y-98675828D01*
X118779655Y-98675822D01*
X118611655Y-98563569D01*
X118611655Y-98563570D01*
X118607598Y-98560859D01*
X118607597Y-98560858D01*
X118531169Y-98529201D01*
X118507935Y-98519577D01*
X118416420Y-98481670D01*
X118416412Y-98481668D01*
X118416404Y-98481666D01*
X118416394Y-98481664D01*
X118213471Y-98441300D01*
X118213469Y-98441300D01*
X118213465Y-98441300D01*
X118006535Y-98441300D01*
X118006530Y-98441300D01*
X118006528Y-98441300D01*
X117803604Y-98481664D01*
X117803579Y-98481670D01*
X117612404Y-98560857D01*
X117440337Y-98675827D01*
X117294027Y-98822137D01*
X117179057Y-98994204D01*
X117099870Y-99185379D01*
X117099864Y-99185404D01*
X117059500Y-99388327D01*
X117059500Y-99388330D01*
X117059500Y-99595269D01*
X117059500Y-99595271D01*
X117059499Y-99595271D01*
X117099290Y-99795308D01*
X117099868Y-99798212D01*
X117099870Y-99798220D01*
X117171226Y-99970487D01*
X117174925Y-99979418D01*
X117179058Y-99989396D01*
X117179060Y-99989399D01*
X117192835Y-100010016D01*
X117294025Y-100161459D01*
X117440336Y-100307770D01*
X117440340Y-100307773D01*
X117440342Y-100307775D01*
X117440345Y-100307777D01*
X117440349Y-100307780D01*
X117440348Y-100307780D01*
X117440411Y-100307832D01*
X117440448Y-100307846D01*
X117612402Y-100422741D01*
X117803580Y-100501930D01*
X117877982Y-100516729D01*
X117893154Y-100524438D01*
X117908651Y-100527142D01*
X117911255Y-100528465D01*
X117915948Y-100530920D01*
X117916676Y-100531301D01*
X117927817Y-100542052D01*
X117937758Y-100547103D01*
X117941534Y-100550578D01*
X117948276Y-100561793D01*
X117966955Y-100579817D01*
X117972034Y-100601310D01*
X117977534Y-100610459D01*
X117977158Y-100622997D01*
X117983023Y-100647814D01*
X117975803Y-100668277D01*
X117975444Y-100680298D01*
X117967450Y-100691953D01*
X117959778Y-100713703D01*
X117944277Y-100725746D01*
X117935929Y-100737920D01*
X117919950Y-100744647D01*
X117904620Y-100756558D01*
X117902984Y-100757202D01*
X117879594Y-100761637D01*
X117871533Y-100765031D01*
X117866409Y-100764137D01*
X117857535Y-100765820D01*
X116572466Y-100765511D01*
X116537538Y-100760481D01*
X116528904Y-100757944D01*
X116470133Y-100720158D01*
X116441121Y-100656597D01*
X116451078Y-100587441D01*
X116491356Y-100538382D01*
X116527286Y-100512483D01*
X116533995Y-100506769D01*
X116564552Y-100486352D01*
X116593395Y-100443186D01*
X116598656Y-100435311D01*
X116598668Y-100435301D01*
X116607902Y-100425113D01*
X116610639Y-100414190D01*
X116610647Y-100414160D01*
X116611249Y-100408057D01*
X116613288Y-100397808D01*
X116618556Y-100371319D01*
X116618558Y-100371319D01*
X116618558Y-100371308D01*
X116620500Y-100361548D01*
X116620500Y-98622052D01*
X116620500Y-98622049D01*
X116620499Y-98622047D01*
X116608868Y-98563570D01*
X116608867Y-98563569D01*
X116564552Y-98497247D01*
X116513416Y-98463079D01*
X116508385Y-98459717D01*
X116503641Y-98455824D01*
X116498230Y-98452932D01*
X116498229Y-98452931D01*
X116439752Y-98441300D01*
X116439750Y-98441300D01*
X114700249Y-98441300D01*
X114700247Y-98441300D01*
X114641770Y-98452931D01*
X114641769Y-98452931D01*
X114641768Y-98452932D01*
X114641765Y-98452933D01*
X114641759Y-98452938D01*
X114575447Y-98497247D01*
X114531138Y-98563559D01*
X114531133Y-98563565D01*
X114531132Y-98563568D01*
X114531132Y-98563569D01*
X114531131Y-98563570D01*
X114519500Y-98622047D01*
X114519500Y-100361552D01*
X114531131Y-100420029D01*
X114531132Y-100420030D01*
X114531786Y-100421254D01*
X114532365Y-100421876D01*
X114575447Y-100486352D01*
X114620356Y-100516359D01*
X114624159Y-100520443D01*
X114649592Y-100540938D01*
X114649592Y-100540939D01*
X114652520Y-100543299D01*
X114692368Y-100600690D01*
X114694862Y-100670515D01*
X114659210Y-100730604D01*
X114603215Y-100760530D01*
X114598227Y-100761708D01*
X114569696Y-100765028D01*
X114148303Y-100764926D01*
X114113370Y-100759895D01*
X114100052Y-100755981D01*
X114041283Y-100718192D01*
X114012274Y-100654631D01*
X114011797Y-100651308D01*
X114016336Y-100596232D01*
X114016930Y-100594361D01*
X114024639Y-100575558D01*
X114131629Y-100365580D01*
X114132239Y-100364383D01*
X114132239Y-100364382D01*
X114132241Y-100364379D01*
X114210090Y-100124785D01*
X114249500Y-99875962D01*
X114249500Y-99624038D01*
X114210090Y-99375215D01*
X114210089Y-99375211D01*
X114210089Y-99375210D01*
X114134853Y-99143659D01*
X114134851Y-99143654D01*
X114132241Y-99135621D01*
X114132239Y-99135618D01*
X114132239Y-99135616D01*
X114129999Y-99131220D01*
X114129689Y-99130425D01*
X114128956Y-99129173D01*
X114109379Y-99090752D01*
X114090747Y-99054183D01*
X114090747Y-99054184D01*
X114017870Y-98911155D01*
X113953201Y-98822145D01*
X113869798Y-98707350D01*
X113869794Y-98707345D01*
X113869791Y-98707342D01*
X113869788Y-98707338D01*
X113691660Y-98529210D01*
X113691655Y-98529206D01*
X113691654Y-98529205D01*
X113691649Y-98529201D01*
X113596012Y-98459717D01*
X113498445Y-98388831D01*
X113498443Y-98388830D01*
X113487848Y-98381132D01*
X113487847Y-98381131D01*
X113487845Y-98381130D01*
X113417747Y-98345413D01*
X113263383Y-98266760D01*
X113263379Y-98266759D01*
X113263376Y-98266757D01*
X113263042Y-98266619D01*
X113262934Y-98266532D01*
X113259042Y-98264549D01*
X113259458Y-98263731D01*
X113208638Y-98222779D01*
X113186573Y-98156485D01*
X113191518Y-98117120D01*
X113197172Y-98097863D01*
X113197175Y-98097854D01*
X113205500Y-98039956D01*
X113205500Y-95105053D01*
X113205179Y-95097362D01*
X113205138Y-95096358D01*
X113222013Y-95028557D01*
X113267031Y-94983807D01*
X113273984Y-94979792D01*
X113273986Y-94979792D01*
X113388114Y-94913900D01*
X113481300Y-94820714D01*
X113547192Y-94706586D01*
X113581300Y-94579292D01*
X113581300Y-94447508D01*
X113547192Y-94320214D01*
X113481300Y-94206086D01*
X113388114Y-94112900D01*
X113309505Y-94067515D01*
X113273987Y-94047008D01*
X113273920Y-94046990D01*
X113266843Y-94042908D01*
X113248082Y-94023248D01*
X113226926Y-94006192D01*
X113224316Y-93998344D01*
X113218606Y-93992361D01*
X113213452Y-93965679D01*
X113204876Y-93939893D01*
X113205613Y-93926191D01*
X113205184Y-93926161D01*
X113205355Y-93923762D01*
X113205355Y-93923757D01*
X113205500Y-93921743D01*
X113205500Y-93807303D01*
X113225185Y-93740264D01*
X113277989Y-93694509D01*
X113347147Y-93684565D01*
X113410703Y-93713590D01*
X113436885Y-93745301D01*
X113441255Y-93752869D01*
X113534441Y-93846055D01*
X113633276Y-93903118D01*
X113644680Y-93909702D01*
X113648569Y-93911947D01*
X113648573Y-93911948D01*
X113648572Y-93911948D01*
X113673194Y-93918545D01*
X113762463Y-93942464D01*
X113762464Y-93942465D01*
X113762465Y-93942465D01*
X113762470Y-93942466D01*
X113794907Y-93956358D01*
X113805900Y-93963058D01*
X113808256Y-93964495D01*
X113855244Y-94016181D01*
X113859118Y-94024154D01*
X113871587Y-94078346D01*
X113871587Y-94138692D01*
X113877484Y-94160700D01*
X113904278Y-94260700D01*
X113905696Y-94265989D01*
X113905696Y-94265990D01*
X113937001Y-94320212D01*
X113971582Y-94380107D01*
X113971585Y-94380111D01*
X113971587Y-94380114D01*
X114064773Y-94473300D01*
X114064774Y-94473301D01*
X114064776Y-94473302D01*
X114163606Y-94530362D01*
X114163608Y-94530363D01*
X114178438Y-94538925D01*
X114178901Y-94539192D01*
X114257334Y-94560207D01*
X114257337Y-94560209D01*
X114257340Y-94560209D01*
X114257343Y-94560210D01*
X114289782Y-94574102D01*
X114296401Y-94578137D01*
X114303130Y-94582239D01*
X114350118Y-94633925D01*
X114353992Y-94641898D01*
X114366461Y-94696090D01*
X114366461Y-94798006D01*
X114384729Y-94866186D01*
X114397514Y-94913899D01*
X114400570Y-94925301D01*
X114400570Y-94925302D01*
X114458549Y-95025725D01*
X114459397Y-95027296D01*
X114459954Y-95029921D01*
X114470769Y-95056934D01*
X114474454Y-95072122D01*
X114473438Y-95093454D01*
X114473903Y-95095644D01*
X114473252Y-95097362D01*
X114471131Y-95141912D01*
X114471127Y-95141924D01*
X114468226Y-95150304D01*
X114438731Y-95197419D01*
X114404947Y-95231203D01*
X114404937Y-95231215D01*
X114339045Y-95345340D01*
X114319413Y-95418610D01*
X114304937Y-95472638D01*
X114304937Y-95604421D01*
X114306164Y-95608999D01*
X114339045Y-95731718D01*
X114365833Y-95778115D01*
X114365835Y-95778118D01*
X114404934Y-95845840D01*
X114404936Y-95845842D01*
X114404937Y-95845844D01*
X114498123Y-95939030D01*
X114605531Y-96001042D01*
X114621314Y-96011861D01*
X114637870Y-96025200D01*
X114677722Y-96082589D01*
X114680221Y-96152409D01*
X114678926Y-96157485D01*
X114646456Y-96214513D01*
X114591564Y-96269404D01*
X114525674Y-96383526D01*
X114525673Y-96383529D01*
X114525672Y-96383531D01*
X114525672Y-96383532D01*
X114524695Y-96387178D01*
X114498857Y-96483605D01*
X114498857Y-96483609D01*
X114493534Y-96503478D01*
X114491564Y-96510829D01*
X114491564Y-96642611D01*
X114515022Y-96730160D01*
X114517219Y-96742119D01*
X114529590Y-96793110D01*
X114526265Y-96862901D01*
X114485737Y-96919815D01*
X114466558Y-96927493D01*
X114464143Y-96930059D01*
X114453547Y-96932701D01*
X114420873Y-96945783D01*
X114413239Y-96946512D01*
X114401957Y-96945570D01*
X114396350Y-96946969D01*
X114389041Y-96944492D01*
X114376896Y-96943478D01*
X114376859Y-96943761D01*
X114370926Y-96942979D01*
X114369359Y-96942849D01*
X114368804Y-96942700D01*
X114368802Y-96942700D01*
X114368801Y-96942700D01*
X114237017Y-96942700D01*
X114109717Y-96976809D01*
X114109715Y-96976810D01*
X113995605Y-97042693D01*
X113995591Y-97042702D01*
X113995586Y-97042706D01*
X113902415Y-97135877D01*
X113902411Y-97135882D01*
X113902402Y-97135896D01*
X113836519Y-97250006D01*
X113836518Y-97250008D01*
X113834561Y-97257313D01*
X113802409Y-97377308D01*
X113802409Y-97509091D01*
X113817628Y-97565892D01*
X113836518Y-97636389D01*
X113869311Y-97693187D01*
X113869312Y-97693188D01*
X113902409Y-97750514D01*
X113995595Y-97843700D01*
X114109723Y-97909592D01*
X114237017Y-97943700D01*
X114237019Y-97943700D01*
X114368799Y-97943700D01*
X114368801Y-97943700D01*
X114496095Y-97909592D01*
X114610223Y-97843700D01*
X114703409Y-97750514D01*
X114769301Y-97636386D01*
X114803409Y-97509092D01*
X114803409Y-97434108D01*
X122999500Y-97434108D01*
X122999500Y-97565891D01*
X123023640Y-97655986D01*
X123033608Y-97693187D01*
X123033610Y-97693192D01*
X123059469Y-97737980D01*
X123059470Y-97737981D01*
X123099500Y-97807314D01*
X123192686Y-97900500D01*
X123306814Y-97966392D01*
X123434108Y-98000500D01*
X123434110Y-98000500D01*
X123565890Y-98000500D01*
X123565892Y-98000500D01*
X123693186Y-97966392D01*
X123807314Y-97900500D01*
X123900500Y-97807314D01*
X123966392Y-97693186D01*
X124000500Y-97565892D01*
X124000500Y-97434108D01*
X123966392Y-97306814D01*
X123966387Y-97306806D01*
X123937813Y-97257314D01*
X123900500Y-97192686D01*
X123807314Y-97099500D01*
X123750250Y-97066554D01*
X123693187Y-97033608D01*
X123611763Y-97011791D01*
X123565892Y-96999500D01*
X123565891Y-96999500D01*
X123434108Y-96999500D01*
X123306808Y-97033609D01*
X123306806Y-97033610D01*
X123192696Y-97099493D01*
X123192682Y-97099502D01*
X123192677Y-97099506D01*
X123099506Y-97192677D01*
X123099502Y-97192682D01*
X123099493Y-97192696D01*
X123033610Y-97306806D01*
X123033609Y-97306808D01*
X123021903Y-97350497D01*
X122999500Y-97434108D01*
X114803409Y-97434108D01*
X114803409Y-97377308D01*
X114769301Y-97250014D01*
X114765482Y-97243400D01*
X114762140Y-97226255D01*
X114762550Y-97221862D01*
X114760222Y-97212146D01*
X114759780Y-97206464D01*
X114767325Y-97170707D01*
X114768634Y-97156688D01*
X114770892Y-97153803D01*
X114774206Y-97138100D01*
X114823303Y-97088387D01*
X114877783Y-97076179D01*
X114877556Y-97073802D01*
X114881693Y-97073406D01*
X114887864Y-97073920D01*
X114891482Y-97073110D01*
X114891519Y-97073113D01*
X114897483Y-97073504D01*
X114897403Y-97074716D01*
X114918074Y-97076439D01*
X114918111Y-97076159D01*
X114923999Y-97076934D01*
X114925604Y-97077067D01*
X114926172Y-97077220D01*
X114926174Y-97077220D01*
X115057954Y-97077220D01*
X115057956Y-97077220D01*
X115185250Y-97043112D01*
X115299378Y-96977220D01*
X115392564Y-96884034D01*
X115458456Y-96769906D01*
X115492564Y-96642612D01*
X115492564Y-96510828D01*
X115484172Y-96479508D01*
X116771300Y-96479508D01*
X116771300Y-96611292D01*
X116773146Y-96618181D01*
X116776817Y-96631885D01*
X116776818Y-96631888D01*
X116805408Y-96738588D01*
X116827733Y-96777255D01*
X116827734Y-96777256D01*
X116871300Y-96852714D01*
X116964486Y-96945900D01*
X117078614Y-97011792D01*
X117205908Y-97045900D01*
X117205910Y-97045900D01*
X117337690Y-97045900D01*
X117337692Y-97045900D01*
X117464986Y-97011792D01*
X117579114Y-96945900D01*
X117672300Y-96852714D01*
X117738192Y-96738586D01*
X117772300Y-96611292D01*
X117772300Y-96479508D01*
X117738192Y-96352214D01*
X117737717Y-96351392D01*
X117711979Y-96306812D01*
X117672300Y-96238086D01*
X117579114Y-96144900D01*
X117500479Y-96099500D01*
X117464987Y-96079008D01*
X117401339Y-96061954D01*
X117337692Y-96044900D01*
X117337691Y-96044900D01*
X117205908Y-96044900D01*
X117078608Y-96079009D01*
X117078606Y-96079010D01*
X116964496Y-96144893D01*
X116964482Y-96144902D01*
X116964477Y-96144906D01*
X116871306Y-96238077D01*
X116871302Y-96238082D01*
X116871293Y-96238096D01*
X116805410Y-96352206D01*
X116805409Y-96352209D01*
X116805408Y-96352211D01*
X116805408Y-96352212D01*
X116796585Y-96385140D01*
X116772418Y-96475334D01*
X116771608Y-96478355D01*
X116771608Y-96478357D01*
X116771300Y-96479508D01*
X115484172Y-96479508D01*
X115458456Y-96383534D01*
X115458451Y-96383526D01*
X115439898Y-96351391D01*
X115392564Y-96269406D01*
X115299378Y-96176220D01*
X115221424Y-96131213D01*
X115197969Y-96117671D01*
X115191966Y-96114205D01*
X115176165Y-96103373D01*
X115159625Y-96090045D01*
X115119775Y-96032653D01*
X115117278Y-95962835D01*
X115118574Y-95957757D01*
X115151040Y-95900739D01*
X115205937Y-95845844D01*
X115221373Y-95819108D01*
X119235100Y-95819108D01*
X119235100Y-95950891D01*
X119236941Y-95957761D01*
X119269208Y-96078188D01*
X119276054Y-96090045D01*
X119287541Y-96109940D01*
X119335100Y-96192314D01*
X119428286Y-96285500D01*
X119527121Y-96342563D01*
X119538816Y-96349315D01*
X119542414Y-96351392D01*
X119669708Y-96385500D01*
X119669710Y-96385500D01*
X119801490Y-96385500D01*
X119801492Y-96385500D01*
X119928786Y-96351392D01*
X120042914Y-96285500D01*
X120136100Y-96192314D01*
X120201992Y-96078186D01*
X120236100Y-95950892D01*
X120236100Y-95819108D01*
X120201992Y-95691814D01*
X120201987Y-95691806D01*
X120193163Y-95676521D01*
X120136100Y-95577686D01*
X120042914Y-95484500D01*
X119985850Y-95451554D01*
X119928787Y-95418608D01*
X119865139Y-95401554D01*
X119801492Y-95384500D01*
X119801491Y-95384500D01*
X119669708Y-95384500D01*
X119542408Y-95418609D01*
X119542406Y-95418610D01*
X119428296Y-95484493D01*
X119428282Y-95484502D01*
X119428277Y-95484506D01*
X119335106Y-95577677D01*
X119335102Y-95577682D01*
X119335093Y-95577696D01*
X119269210Y-95691806D01*
X119269209Y-95691808D01*
X119253890Y-95748980D01*
X119235100Y-95819108D01*
X115221373Y-95819108D01*
X115271829Y-95731716D01*
X115305937Y-95604422D01*
X115305937Y-95472638D01*
X115271829Y-95345344D01*
X115214740Y-95246463D01*
X115201626Y-95213705D01*
X115197940Y-95198511D01*
X115198973Y-95176823D01*
X115201263Y-95128730D01*
X115204164Y-95120347D01*
X115233663Y-95073224D01*
X115267461Y-95039427D01*
X115333353Y-94925299D01*
X115367461Y-94798005D01*
X115367461Y-94666221D01*
X115351622Y-94607108D01*
X116618900Y-94607108D01*
X116618900Y-94738891D01*
X116629002Y-94776592D01*
X116653008Y-94866188D01*
X116679050Y-94911292D01*
X116680554Y-94913897D01*
X116718900Y-94980314D01*
X116812086Y-95073500D01*
X116926214Y-95139392D01*
X117053508Y-95173500D01*
X117053510Y-95173500D01*
X117185290Y-95173500D01*
X117185292Y-95173500D01*
X117312586Y-95139392D01*
X117426714Y-95073500D01*
X117519900Y-94980314D01*
X117585792Y-94866186D01*
X117619900Y-94738892D01*
X117619900Y-94607108D01*
X117585792Y-94479814D01*
X117585787Y-94479806D01*
X117554027Y-94424796D01*
X117519900Y-94365686D01*
X117426714Y-94272500D01*
X117347201Y-94226593D01*
X117347201Y-94226592D01*
X117347199Y-94226592D01*
X117312587Y-94206608D01*
X117248939Y-94189554D01*
X117185292Y-94172500D01*
X117185291Y-94172500D01*
X117053508Y-94172500D01*
X116926208Y-94206609D01*
X116926206Y-94206610D01*
X116812096Y-94272493D01*
X116812082Y-94272502D01*
X116812077Y-94272506D01*
X116718906Y-94365677D01*
X116718902Y-94365682D01*
X116718893Y-94365696D01*
X116653010Y-94479806D01*
X116653009Y-94479808D01*
X116639463Y-94530363D01*
X116618900Y-94607108D01*
X115351622Y-94607108D01*
X115333353Y-94538927D01*
X115267461Y-94424799D01*
X115174275Y-94331613D01*
X115071885Y-94272498D01*
X115060149Y-94265722D01*
X115060148Y-94265721D01*
X115060147Y-94265721D01*
X114981707Y-94244702D01*
X114949266Y-94230809D01*
X114935921Y-94222675D01*
X114888923Y-94170974D01*
X114888922Y-94170970D01*
X114885048Y-94162994D01*
X114872587Y-94108819D01*
X114872587Y-94006910D01*
X114872587Y-94006908D01*
X114838479Y-93879614D01*
X114838477Y-93879610D01*
X114836907Y-93876891D01*
X114791927Y-93798983D01*
X114791925Y-93798979D01*
X114778862Y-93776354D01*
X114777685Y-93773737D01*
X114773577Y-93767090D01*
X114772665Y-93765564D01*
X114752207Y-93745106D01*
X118041300Y-93745106D01*
X118041300Y-93876892D01*
X118043836Y-93886359D01*
X118043843Y-93886381D01*
X118044518Y-93888900D01*
X118075408Y-94004187D01*
X118080439Y-94012900D01*
X118141300Y-94118314D01*
X118234486Y-94211500D01*
X118348614Y-94277392D01*
X118475908Y-94311500D01*
X118475910Y-94311500D01*
X118607690Y-94311500D01*
X118607692Y-94311500D01*
X118734986Y-94277392D01*
X118849114Y-94211500D01*
X118942300Y-94118314D01*
X119008192Y-94004186D01*
X119042300Y-93876892D01*
X119042300Y-93745108D01*
X119028689Y-93694309D01*
X121418720Y-93694309D01*
X121418720Y-93826093D01*
X121424069Y-93846055D01*
X121427481Y-93858791D01*
X121427482Y-93858797D01*
X121441124Y-93909706D01*
X121452828Y-93953388D01*
X121467089Y-93978088D01*
X121518720Y-94067515D01*
X121611906Y-94160701D01*
X121726034Y-94226593D01*
X121853328Y-94260701D01*
X121853330Y-94260701D01*
X121985110Y-94260701D01*
X121985112Y-94260701D01*
X122046292Y-94244308D01*
X124297500Y-94244308D01*
X124297500Y-94376092D01*
X124298578Y-94380114D01*
X124302313Y-94394056D01*
X124302314Y-94394060D01*
X124323546Y-94473300D01*
X124331608Y-94503387D01*
X124364554Y-94560450D01*
X124397500Y-94617514D01*
X124490686Y-94710700D01*
X124604814Y-94776592D01*
X124732108Y-94810700D01*
X124732110Y-94810700D01*
X124863890Y-94810700D01*
X124863892Y-94810700D01*
X124991186Y-94776592D01*
X125105314Y-94710700D01*
X125198500Y-94617514D01*
X125264392Y-94503386D01*
X125298500Y-94376092D01*
X125298500Y-94244308D01*
X125264392Y-94117014D01*
X125264387Y-94117006D01*
X125242067Y-94078346D01*
X125198500Y-94002886D01*
X125105314Y-93909700D01*
X125043530Y-93874029D01*
X125043530Y-93874028D01*
X125043528Y-93874028D01*
X124991187Y-93843808D01*
X124925065Y-93826091D01*
X124925064Y-93826090D01*
X124863893Y-93809700D01*
X124863892Y-93809700D01*
X124732108Y-93809700D01*
X124604808Y-93843809D01*
X124604806Y-93843810D01*
X124490696Y-93909693D01*
X124490682Y-93909702D01*
X124490677Y-93909706D01*
X124397506Y-94002877D01*
X124397502Y-94002882D01*
X124397493Y-94002896D01*
X124331610Y-94117006D01*
X124331609Y-94117009D01*
X124331608Y-94117011D01*
X124331608Y-94117012D01*
X124312171Y-94189554D01*
X124306291Y-94211499D01*
X124297770Y-94243296D01*
X124297770Y-94243299D01*
X124297500Y-94244308D01*
X122046292Y-94244308D01*
X122112406Y-94226593D01*
X122226534Y-94160701D01*
X122319720Y-94067515D01*
X122385612Y-93953387D01*
X122419720Y-93826093D01*
X122419720Y-93694309D01*
X122385612Y-93567015D01*
X122385607Y-93567007D01*
X122367077Y-93534912D01*
X122319720Y-93452887D01*
X122226534Y-93359701D01*
X122141316Y-93310500D01*
X122112407Y-93293809D01*
X122048759Y-93276755D01*
X121985112Y-93259701D01*
X121985111Y-93259701D01*
X121853328Y-93259701D01*
X121726028Y-93293810D01*
X121726026Y-93293811D01*
X121611916Y-93359694D01*
X121611902Y-93359703D01*
X121611897Y-93359707D01*
X121518726Y-93452878D01*
X121518722Y-93452883D01*
X121518713Y-93452897D01*
X121452830Y-93567007D01*
X121452829Y-93567010D01*
X121452828Y-93567012D01*
X121452828Y-93567013D01*
X121450449Y-93575891D01*
X121433609Y-93638741D01*
X121419191Y-93692549D01*
X121419191Y-93692550D01*
X121418720Y-93694309D01*
X119028689Y-93694309D01*
X119008192Y-93617814D01*
X119008187Y-93617806D01*
X118999363Y-93602521D01*
X118942300Y-93503686D01*
X118849114Y-93410500D01*
X118767639Y-93363460D01*
X118734987Y-93344608D01*
X118671339Y-93327554D01*
X118607692Y-93310500D01*
X118607691Y-93310500D01*
X118475908Y-93310500D01*
X118348608Y-93344609D01*
X118348606Y-93344610D01*
X118234496Y-93410493D01*
X118234482Y-93410502D01*
X118234477Y-93410506D01*
X118141306Y-93503677D01*
X118141302Y-93503682D01*
X118141293Y-93503696D01*
X118075410Y-93617806D01*
X118075409Y-93617809D01*
X118075408Y-93617811D01*
X118075408Y-93617812D01*
X118069800Y-93638741D01*
X118058020Y-93682707D01*
X118041300Y-93745106D01*
X114752207Y-93745106D01*
X114679403Y-93672302D01*
X114679401Y-93672300D01*
X114565273Y-93606408D01*
X114451378Y-93575890D01*
X114448171Y-93574517D01*
X114418931Y-93561994D01*
X114405586Y-93553859D01*
X114358590Y-93502157D01*
X114358590Y-93502156D01*
X114354716Y-93494180D01*
X114342255Y-93440005D01*
X114342255Y-93379665D01*
X114342255Y-93379663D01*
X114308147Y-93252369D01*
X114242255Y-93138241D01*
X114149069Y-93045055D01*
X114071924Y-93000515D01*
X114034942Y-92979163D01*
X113971294Y-92962109D01*
X113907647Y-92945055D01*
X113907646Y-92945055D01*
X113775863Y-92945055D01*
X113648563Y-92979164D01*
X113648561Y-92979165D01*
X113534451Y-93045048D01*
X113534437Y-93045057D01*
X113534432Y-93045061D01*
X113441261Y-93138232D01*
X113441259Y-93138235D01*
X113441257Y-93138237D01*
X113441257Y-93138238D01*
X113441255Y-93138241D01*
X113436883Y-93145812D01*
X113386315Y-93194024D01*
X113317708Y-93207244D01*
X113252844Y-93181273D01*
X113212318Y-93124357D01*
X113205500Y-93083806D01*
X113205500Y-92917758D01*
X113205499Y-92917742D01*
X113204376Y-92907301D01*
X113200803Y-92874066D01*
X113190775Y-92827970D01*
X113195759Y-92758280D01*
X113237629Y-92702346D01*
X113249947Y-92694222D01*
X113250353Y-92693987D01*
X113250764Y-92693750D01*
X113343950Y-92600564D01*
X113409842Y-92486436D01*
X113443950Y-92359142D01*
X113443950Y-92227358D01*
X113409842Y-92100064D01*
X113343950Y-91985936D01*
X113250764Y-91892750D01*
X113247688Y-91890974D01*
X113245614Y-91888798D01*
X113244315Y-91887802D01*
X113244470Y-91887599D01*
X113199473Y-91840406D01*
X113186252Y-91771799D01*
X113190715Y-91748647D01*
X113192769Y-91741652D01*
X113197175Y-91726648D01*
X113205500Y-91668750D01*
X113205500Y-91509108D01*
X118150250Y-91509108D01*
X118150250Y-91640892D01*
X118153918Y-91654581D01*
X118179122Y-91748647D01*
X118184359Y-91768190D01*
X118196265Y-91788811D01*
X118196267Y-91788813D01*
X118203233Y-91800879D01*
X118250250Y-91882314D01*
X118343436Y-91975500D01*
X118343438Y-91975501D01*
X118343442Y-91975504D01*
X118396783Y-92006300D01*
X118412571Y-92015415D01*
X118456803Y-92040953D01*
X118457564Y-92041392D01*
X118580147Y-92074237D01*
X118585177Y-92076064D01*
X118586191Y-92076809D01*
X118593013Y-92079216D01*
X118593886Y-92079602D01*
X118613730Y-92088379D01*
X118667077Y-92133499D01*
X118687551Y-92199563D01*
X118687792Y-92213033D01*
X118683588Y-92247339D01*
X118681043Y-92256835D01*
X118681043Y-92388625D01*
X118693566Y-92435361D01*
X118715151Y-92515920D01*
X118736142Y-92552276D01*
X118781040Y-92630042D01*
X118781042Y-92630044D01*
X118781043Y-92630046D01*
X118874229Y-92723232D01*
X118934934Y-92758280D01*
X118978922Y-92783677D01*
X118988357Y-92789124D01*
X119100578Y-92819193D01*
X119133013Y-92833082D01*
X119146363Y-92841219D01*
X119193359Y-92892913D01*
X119197234Y-92900889D01*
X119209700Y-92955076D01*
X119209700Y-93038693D01*
X119216072Y-93062473D01*
X119243808Y-93165987D01*
X119243808Y-93165988D01*
X119265725Y-93203947D01*
X119265726Y-93203949D01*
X119307760Y-93276755D01*
X119309700Y-93280114D01*
X119402886Y-93373300D01*
X119517014Y-93439192D01*
X119644308Y-93473300D01*
X119644310Y-93473300D01*
X119776090Y-93473300D01*
X119776092Y-93473300D01*
X119903386Y-93439192D01*
X120017514Y-93373300D01*
X120110700Y-93280114D01*
X120176592Y-93165986D01*
X120210700Y-93038692D01*
X120210700Y-92906908D01*
X120176592Y-92779614D01*
X120110700Y-92665486D01*
X120017514Y-92572300D01*
X119903386Y-92506408D01*
X119791167Y-92476339D01*
X119758724Y-92462446D01*
X119745378Y-92454311D01*
X119733194Y-92440908D01*
X123095900Y-92440908D01*
X123095900Y-92572691D01*
X123128463Y-92694222D01*
X123130009Y-92699989D01*
X123143429Y-92723233D01*
X123143430Y-92723234D01*
X123195900Y-92814114D01*
X123289086Y-92907300D01*
X123351925Y-92943580D01*
X123367248Y-92952427D01*
X123367655Y-92952854D01*
X123368228Y-92952999D01*
X123371014Y-92955975D01*
X123421056Y-92986467D01*
X123468062Y-93038160D01*
X123479659Y-93107060D01*
X123452165Y-93171293D01*
X123452163Y-93171295D01*
X123449075Y-93175036D01*
X123412234Y-93205277D01*
X123388247Y-93218192D01*
X123386941Y-93219823D01*
X123384989Y-93220478D01*
X123377942Y-93225549D01*
X123300473Y-93270276D01*
X123300468Y-93270280D01*
X123207297Y-93363451D01*
X123207293Y-93363456D01*
X123207291Y-93363460D01*
X123141401Y-93477580D01*
X123141400Y-93477583D01*
X123141399Y-93477585D01*
X123141399Y-93477586D01*
X123134408Y-93503677D01*
X123126039Y-93534912D01*
X123107291Y-93604880D01*
X123107291Y-93604882D01*
X123107291Y-93736666D01*
X123115013Y-93765486D01*
X123141399Y-93863961D01*
X123141400Y-93863962D01*
X123141399Y-93863962D01*
X123148864Y-93876891D01*
X123161004Y-93897917D01*
X123207291Y-93978088D01*
X123300477Y-94071274D01*
X123381956Y-94118316D01*
X123381957Y-94118317D01*
X123414601Y-94137164D01*
X123414605Y-94137166D01*
X123541899Y-94171274D01*
X123541901Y-94171274D01*
X123673681Y-94171274D01*
X123673683Y-94171274D01*
X123800977Y-94137166D01*
X123915105Y-94071274D01*
X124008291Y-93978088D01*
X124074183Y-93863960D01*
X124108291Y-93736666D01*
X124108291Y-93604882D01*
X124074183Y-93477588D01*
X124074178Y-93477580D01*
X124059920Y-93452884D01*
X124008291Y-93363460D01*
X123915105Y-93270274D01*
X123839446Y-93226592D01*
X123837989Y-93225751D01*
X123836923Y-93225135D01*
X123833894Y-93221957D01*
X123833828Y-93222066D01*
X123783245Y-93191178D01*
X123784612Y-93188937D01*
X123780195Y-93184994D01*
X123764257Y-93177498D01*
X123754673Y-93162211D01*
X123741213Y-93150195D01*
X123736500Y-93133222D01*
X123727145Y-93118299D01*
X123727347Y-93100256D01*
X123722521Y-93082872D01*
X123727733Y-93065937D01*
X123727930Y-93048434D01*
X123737366Y-93028477D01*
X123736424Y-93028006D01*
X123736447Y-93027960D01*
X123739551Y-93023856D01*
X123742802Y-93016981D01*
X123742951Y-93016496D01*
X123743800Y-93015207D01*
X123743816Y-93015193D01*
X123744057Y-93014831D01*
X123744161Y-93014900D01*
X123750185Y-93009798D01*
X123763817Y-92991778D01*
X123764634Y-92991032D01*
X123764637Y-92991031D01*
X123764638Y-92991028D01*
X123764994Y-92990705D01*
X123786533Y-92974954D01*
X123789583Y-92973192D01*
X123789586Y-92973192D01*
X123903714Y-92907300D01*
X123996900Y-92814114D01*
X124062792Y-92699986D01*
X124096900Y-92572692D01*
X124096900Y-92440908D01*
X124062792Y-92313614D01*
X123996900Y-92199486D01*
X123903714Y-92106300D01*
X123802026Y-92047590D01*
X123789587Y-92040408D01*
X123696310Y-92015415D01*
X123696310Y-92015414D01*
X123662293Y-92006300D01*
X123662292Y-92006300D01*
X123530508Y-92006300D01*
X123403208Y-92040409D01*
X123403206Y-92040410D01*
X123289096Y-92106293D01*
X123289082Y-92106302D01*
X123289077Y-92106306D01*
X123195906Y-92199477D01*
X123195902Y-92199482D01*
X123195893Y-92199496D01*
X123130012Y-92313603D01*
X123130009Y-92313608D01*
X123130008Y-92313612D01*
X123095900Y-92440908D01*
X119733194Y-92440908D01*
X119698380Y-92402610D01*
X119698378Y-92402605D01*
X119694504Y-92394629D01*
X119682043Y-92340454D01*
X119682043Y-92256842D01*
X119682043Y-92256840D01*
X119647935Y-92129546D01*
X119582043Y-92015418D01*
X119488857Y-91922232D01*
X119488856Y-91922231D01*
X119488854Y-91922230D01*
X119454467Y-91902376D01*
X119426376Y-91886158D01*
X119426360Y-91886149D01*
X119419721Y-91882316D01*
X119374729Y-91856340D01*
X119247435Y-91822232D01*
X119247433Y-91822232D01*
X119243417Y-91821156D01*
X119241331Y-91820228D01*
X119240122Y-91820224D01*
X119227689Y-91814162D01*
X119208074Y-91805440D01*
X119205845Y-91803996D01*
X119204841Y-91803282D01*
X119204535Y-91803146D01*
X119201036Y-91800879D01*
X119200371Y-91800105D01*
X119199741Y-91799658D01*
X119199851Y-91799501D01*
X119184695Y-91781875D01*
X121556897Y-91781875D01*
X121556897Y-91913658D01*
X121591005Y-92040954D01*
X121608602Y-92071433D01*
X121613319Y-92079602D01*
X121625132Y-92100062D01*
X121656897Y-92155081D01*
X121750083Y-92248267D01*
X121828962Y-92293808D01*
X121863263Y-92313612D01*
X121864211Y-92314159D01*
X121991505Y-92348267D01*
X121991507Y-92348267D01*
X122123287Y-92348267D01*
X122123289Y-92348267D01*
X122250583Y-92314159D01*
X122364711Y-92248267D01*
X122457897Y-92155081D01*
X122523789Y-92040953D01*
X122557897Y-91913659D01*
X122557897Y-91781875D01*
X122523789Y-91654581D01*
X122523786Y-91654575D01*
X122517851Y-91644295D01*
X122504735Y-91611537D01*
X122501048Y-91596344D01*
X122504366Y-91526557D01*
X122507271Y-91518163D01*
X122536767Y-91471045D01*
X122600500Y-91407314D01*
X122666392Y-91293186D01*
X122700500Y-91165892D01*
X122700500Y-91034108D01*
X122666392Y-90906814D01*
X122666387Y-90906806D01*
X122649839Y-90878143D01*
X122600500Y-90792686D01*
X122507314Y-90699500D01*
X122507312Y-90699499D01*
X122507307Y-90699495D01*
X122447088Y-90664728D01*
X122447088Y-90664727D01*
X122447085Y-90664727D01*
X122431630Y-90655804D01*
X122393187Y-90633608D01*
X122329539Y-90616554D01*
X122265892Y-90599500D01*
X122265891Y-90599500D01*
X122134108Y-90599500D01*
X122006808Y-90633609D01*
X122006806Y-90633610D01*
X121892696Y-90699493D01*
X121892682Y-90699502D01*
X121892677Y-90699506D01*
X121799506Y-90792677D01*
X121799502Y-90792682D01*
X121799493Y-90792696D01*
X121733610Y-90906806D01*
X121733609Y-90906808D01*
X121724790Y-90939722D01*
X121699500Y-91034108D01*
X121699500Y-91165892D01*
X121726775Y-91267686D01*
X121733609Y-91293188D01*
X121733609Y-91293189D01*
X121743909Y-91311029D01*
X121747173Y-91319128D01*
X121747612Y-91323620D01*
X121752664Y-91336239D01*
X121756349Y-91351428D01*
X121753026Y-91421217D01*
X121750127Y-91429594D01*
X121720627Y-91476722D01*
X121656897Y-91540451D01*
X121591007Y-91654573D01*
X121591006Y-91654575D01*
X121567739Y-91741412D01*
X121556897Y-91781875D01*
X119184695Y-91781875D01*
X119180507Y-91777005D01*
X119158632Y-91754363D01*
X119157898Y-91750712D01*
X119155482Y-91747902D01*
X119151233Y-91717533D01*
X119147002Y-91696468D01*
X119144710Y-91696509D01*
X119144499Y-91684700D01*
X119148705Y-91650389D01*
X119151250Y-91640892D01*
X119151250Y-91509108D01*
X119117142Y-91381814D01*
X119117141Y-91381812D01*
X119115390Y-91378779D01*
X119115385Y-91378772D01*
X119051250Y-91267686D01*
X118958064Y-91174500D01*
X118901000Y-91141554D01*
X118843937Y-91108608D01*
X118744207Y-91081886D01*
X118744207Y-91081885D01*
X118716643Y-91074500D01*
X118716642Y-91074500D01*
X118584858Y-91074500D01*
X118457558Y-91108609D01*
X118457556Y-91108610D01*
X118343446Y-91174493D01*
X118343432Y-91174502D01*
X118343427Y-91174506D01*
X118250256Y-91267677D01*
X118250252Y-91267682D01*
X118250251Y-91267684D01*
X118184360Y-91381806D01*
X118184358Y-91381810D01*
X118158268Y-91479183D01*
X118154050Y-91494927D01*
X118150250Y-91509108D01*
X113205500Y-91509108D01*
X113205500Y-91020381D01*
X113205369Y-91013045D01*
X113205053Y-91004199D01*
X113192227Y-90939720D01*
X113167810Y-90874256D01*
X113157784Y-90851694D01*
X113157604Y-90851288D01*
X113157602Y-90851285D01*
X113107872Y-90792696D01*
X113098421Y-90781561D01*
X113098416Y-90781557D01*
X113049687Y-90745077D01*
X113046951Y-90741422D01*
X113042797Y-90739525D01*
X113026204Y-90713705D01*
X113007817Y-90689142D01*
X113006801Y-90683514D01*
X113005023Y-90680747D01*
X113000000Y-90645812D01*
X113000000Y-90530745D01*
X113005022Y-90495813D01*
X113007382Y-90487776D01*
X113010324Y-90477756D01*
X113043731Y-90422947D01*
X113051273Y-90415755D01*
X113074837Y-90398117D01*
X113157314Y-90350500D01*
X113250500Y-90257314D01*
X113316392Y-90143186D01*
X113350500Y-90015892D01*
X113350500Y-89884108D01*
X113316392Y-89756814D01*
X113250500Y-89642686D01*
X113201055Y-89593241D01*
X113167570Y-89531918D01*
X113167800Y-89528708D01*
X115047500Y-89528708D01*
X115047500Y-89660491D01*
X115057322Y-89697148D01*
X115081608Y-89787788D01*
X115092101Y-89805961D01*
X115098792Y-89817550D01*
X115147500Y-89901914D01*
X115240686Y-89995100D01*
X115354814Y-90060992D01*
X115482108Y-90095100D01*
X115482110Y-90095100D01*
X115613890Y-90095100D01*
X115613892Y-90095100D01*
X115741186Y-90060992D01*
X115855314Y-89995100D01*
X115948500Y-89901914D01*
X115987994Y-89833508D01*
X116497500Y-89833508D01*
X116497500Y-89965292D01*
X116508950Y-90008026D01*
X116511058Y-90015890D01*
X116531608Y-90092587D01*
X116560030Y-90141814D01*
X116597500Y-90206714D01*
X116690686Y-90299900D01*
X116804814Y-90365792D01*
X116932108Y-90399900D01*
X116932110Y-90399900D01*
X117052471Y-90399900D01*
X117071564Y-90401379D01*
X117072019Y-90401449D01*
X117072019Y-90401450D01*
X117094473Y-90404949D01*
X117157682Y-90434721D01*
X117194561Y-90493239D01*
X117206982Y-90536486D01*
X117207286Y-90536843D01*
X117213799Y-90555224D01*
X117225663Y-90599500D01*
X117234802Y-90633609D01*
X117237209Y-90642590D01*
X117252261Y-90668661D01*
X117252262Y-90668661D01*
X117303100Y-90756714D01*
X117396286Y-90849900D01*
X117510414Y-90915792D01*
X117637708Y-90949900D01*
X117637710Y-90949900D01*
X117769490Y-90949900D01*
X117769492Y-90949900D01*
X117896786Y-90915792D01*
X118010914Y-90849900D01*
X118077716Y-90783098D01*
X119140310Y-90783098D01*
X119140310Y-90914882D01*
X119172255Y-91034108D01*
X119174418Y-91042178D01*
X119176168Y-91045209D01*
X119176172Y-91045215D01*
X119240310Y-91156304D01*
X119333496Y-91249490D01*
X119447624Y-91315382D01*
X119574918Y-91349490D01*
X119574920Y-91349490D01*
X119706700Y-91349490D01*
X119706702Y-91349490D01*
X119833996Y-91315382D01*
X119948124Y-91249490D01*
X120041310Y-91156304D01*
X120107202Y-91042176D01*
X120141310Y-90914882D01*
X120141310Y-90783098D01*
X120107202Y-90655804D01*
X120107197Y-90655796D01*
X120084541Y-90616554D01*
X120041310Y-90541676D01*
X119948124Y-90448490D01*
X119891060Y-90415544D01*
X119833997Y-90382598D01*
X119770349Y-90365544D01*
X119706702Y-90348490D01*
X119706701Y-90348490D01*
X119574918Y-90348490D01*
X119447618Y-90382599D01*
X119447616Y-90382600D01*
X119333506Y-90448483D01*
X119333492Y-90448492D01*
X119333487Y-90448496D01*
X119240316Y-90541667D01*
X119240312Y-90541672D01*
X119240303Y-90541686D01*
X119174420Y-90655796D01*
X119174419Y-90655798D01*
X119140310Y-90783098D01*
X118077716Y-90783098D01*
X118104100Y-90756714D01*
X118112823Y-90741604D01*
X118134638Y-90713864D01*
X118145947Y-90703080D01*
X118208045Y-90671062D01*
X118209851Y-90670714D01*
X118271059Y-90674367D01*
X118278431Y-90676724D01*
X118302669Y-90687447D01*
X118333596Y-90705303D01*
X118333595Y-90705303D01*
X118334453Y-90705798D01*
X118334455Y-90705798D01*
X118334456Y-90705799D01*
X118461750Y-90739907D01*
X118461752Y-90739907D01*
X118593532Y-90739907D01*
X118593534Y-90739907D01*
X118720828Y-90705799D01*
X118834956Y-90639907D01*
X118928142Y-90546721D01*
X118994034Y-90432593D01*
X119028142Y-90305299D01*
X119028142Y-90173515D01*
X118994034Y-90046221D01*
X118928142Y-89932093D01*
X118834956Y-89838907D01*
X118802011Y-89819886D01*
X118786643Y-89811013D01*
X118786640Y-89811012D01*
X118777892Y-89805961D01*
X118720829Y-89773015D01*
X118606693Y-89742433D01*
X118600759Y-89740843D01*
X118600754Y-89740841D01*
X118595701Y-89739487D01*
X118593534Y-89738907D01*
X118593533Y-89738907D01*
X118461750Y-89738907D01*
X118334450Y-89773016D01*
X118334448Y-89773017D01*
X118220338Y-89838900D01*
X118220324Y-89838909D01*
X118220319Y-89838913D01*
X118127148Y-89932084D01*
X118127144Y-89932089D01*
X118127142Y-89932092D01*
X118118417Y-89947204D01*
X118102131Y-89967912D01*
X118096602Y-89974943D01*
X118085291Y-89985728D01*
X118023196Y-90017743D01*
X118021417Y-90018086D01*
X117960195Y-90014443D01*
X117952826Y-90012088D01*
X117928571Y-90001359D01*
X117910922Y-89991169D01*
X117904392Y-89986158D01*
X117889180Y-89979857D01*
X117881018Y-89978783D01*
X117830668Y-89965292D01*
X117769492Y-89948900D01*
X117769491Y-89948900D01*
X117649118Y-89948900D01*
X117630008Y-89947419D01*
X117629581Y-89947352D01*
X117607106Y-89943846D01*
X117543902Y-89914066D01*
X117507034Y-89855553D01*
X117494623Y-89812336D01*
X117494328Y-89811989D01*
X117487799Y-89793573D01*
X117464392Y-89706214D01*
X117398500Y-89592086D01*
X117305314Y-89498900D01*
X117282858Y-89485935D01*
X117229353Y-89455043D01*
X117229349Y-89455041D01*
X117219751Y-89449500D01*
X117191187Y-89433008D01*
X117105579Y-89410070D01*
X117100583Y-89408731D01*
X117100574Y-89408728D01*
X117063893Y-89398900D01*
X117063892Y-89398900D01*
X116932108Y-89398900D01*
X116804808Y-89433009D01*
X116804806Y-89433010D01*
X116690696Y-89498893D01*
X116690682Y-89498902D01*
X116690677Y-89498906D01*
X116597506Y-89592077D01*
X116597502Y-89592082D01*
X116597493Y-89592096D01*
X116531609Y-89706208D01*
X116522849Y-89738905D01*
X116522848Y-89738907D01*
X116497500Y-89833508D01*
X115987994Y-89833508D01*
X116014392Y-89787786D01*
X116048500Y-89660492D01*
X116048500Y-89528708D01*
X116014392Y-89401414D01*
X116014387Y-89401406D01*
X116003990Y-89383398D01*
X115948500Y-89287286D01*
X115855314Y-89194100D01*
X115798250Y-89161154D01*
X115741187Y-89128208D01*
X115677539Y-89111154D01*
X115613892Y-89094100D01*
X115613891Y-89094100D01*
X115482108Y-89094100D01*
X115354808Y-89128209D01*
X115354806Y-89128210D01*
X115240696Y-89194093D01*
X115240682Y-89194102D01*
X115240677Y-89194106D01*
X115147506Y-89287277D01*
X115147502Y-89287282D01*
X115147493Y-89287296D01*
X115081610Y-89401406D01*
X115081609Y-89401408D01*
X115081608Y-89401412D01*
X115047500Y-89528708D01*
X113167800Y-89528708D01*
X113172554Y-89462226D01*
X113175002Y-89456940D01*
X113174793Y-89456853D01*
X113177486Y-89450443D01*
X113177490Y-89450437D01*
X113197175Y-89383398D01*
X113205500Y-89325500D01*
X113205500Y-88580879D01*
X113205137Y-88568662D01*
X113204260Y-88553936D01*
X113188027Y-88485249D01*
X113160520Y-88421022D01*
X113152041Y-88404157D01*
X113139518Y-88335419D01*
X113162169Y-88278699D01*
X113161636Y-88278391D01*
X113163767Y-88274699D01*
X113164458Y-88272970D01*
X113165694Y-88271358D01*
X113165700Y-88271353D01*
X113231592Y-88157225D01*
X113265700Y-88029931D01*
X113265700Y-87898147D01*
X113240478Y-87804017D01*
X115599500Y-87804017D01*
X115599500Y-87935800D01*
X115624722Y-88029931D01*
X115633609Y-88063099D01*
X115648788Y-88089390D01*
X115648789Y-88089390D01*
X115699500Y-88177223D01*
X115792686Y-88270409D01*
X115906814Y-88336301D01*
X116034108Y-88370409D01*
X116034110Y-88370409D01*
X116165890Y-88370409D01*
X116165892Y-88370409D01*
X116293186Y-88336301D01*
X116407314Y-88270409D01*
X116500500Y-88177223D01*
X116566392Y-88063095D01*
X116600500Y-87935801D01*
X116600500Y-87804017D01*
X116566392Y-87676723D01*
X116566387Y-87676715D01*
X116542044Y-87634551D01*
X116500500Y-87562595D01*
X116407314Y-87469409D01*
X116388717Y-87458672D01*
X116357950Y-87440908D01*
X116357946Y-87440906D01*
X116350250Y-87436463D01*
X116293187Y-87403517D01*
X116213192Y-87382083D01*
X116206084Y-87380178D01*
X116206078Y-87380176D01*
X116165893Y-87369409D01*
X116165892Y-87369409D01*
X116034108Y-87369409D01*
X115906808Y-87403518D01*
X115906806Y-87403519D01*
X115792696Y-87469402D01*
X115792682Y-87469411D01*
X115792677Y-87469415D01*
X115699506Y-87562586D01*
X115699502Y-87562591D01*
X115699493Y-87562605D01*
X115633610Y-87676715D01*
X115633609Y-87676717D01*
X115621335Y-87722524D01*
X115599500Y-87804017D01*
X113240478Y-87804017D01*
X113231592Y-87770853D01*
X113165700Y-87656725D01*
X113157868Y-87648893D01*
X113149238Y-87631043D01*
X113145507Y-87608605D01*
X113137304Y-87587390D01*
X113139886Y-87574798D01*
X113137778Y-87562119D01*
X113146770Y-87541225D01*
X113151340Y-87518944D01*
X113152604Y-87516624D01*
X113177490Y-87472135D01*
X113197175Y-87405096D01*
X113205500Y-87347198D01*
X113205500Y-86478934D01*
X117005869Y-86478934D01*
X117005869Y-86683580D01*
X117037877Y-86885669D01*
X117037878Y-86885675D01*
X117101113Y-87080289D01*
X117153643Y-87183384D01*
X117194013Y-87262615D01*
X117194016Y-87262618D01*
X117226386Y-87307172D01*
X117226390Y-87307177D01*
X117226392Y-87307179D01*
X117226393Y-87307180D01*
X117769372Y-86764200D01*
X117830693Y-86730717D01*
X117900384Y-86735701D01*
X117956318Y-86777572D01*
X117964436Y-86789880D01*
X117985789Y-86826864D01*
X118060263Y-86901338D01*
X118060264Y-86901339D01*
X118060266Y-86901340D01*
X118097242Y-86922688D01*
X118145457Y-86973254D01*
X118158681Y-87041861D01*
X118132713Y-87106726D01*
X118122923Y-87117756D01*
X117579944Y-87660731D01*
X117579945Y-87660731D01*
X117579945Y-87660732D01*
X117624519Y-87693117D01*
X117710655Y-87737005D01*
X117806832Y-87786011D01*
X117806834Y-87786011D01*
X117806837Y-87786013D01*
X118001451Y-87849248D01*
X118203552Y-87881258D01*
X118408185Y-87881258D01*
X118408186Y-87881258D01*
X118610286Y-87849248D01*
X118804900Y-87786013D01*
X118987218Y-87693117D01*
X119031790Y-87660732D01*
X119031791Y-87660732D01*
X119005610Y-87634551D01*
X118926056Y-87554997D01*
X122442102Y-87554997D01*
X122442102Y-87686780D01*
X122443467Y-87691875D01*
X122476210Y-87814077D01*
X122479894Y-87820457D01*
X122495084Y-87846766D01*
X122542102Y-87928203D01*
X122635288Y-88021389D01*
X122702805Y-88060370D01*
X122730543Y-88082183D01*
X122741332Y-88093498D01*
X122773347Y-88155592D01*
X122775025Y-88164298D01*
X122773044Y-88219861D01*
X122770524Y-88229265D01*
X122770524Y-88229267D01*
X122770524Y-88229269D01*
X122770524Y-88361053D01*
X122771458Y-88364538D01*
X122804632Y-88488348D01*
X122804632Y-88488349D01*
X122836676Y-88543848D01*
X122836676Y-88543851D01*
X122836678Y-88543851D01*
X122870524Y-88602475D01*
X122963710Y-88695661D01*
X123062545Y-88752724D01*
X123077834Y-88761551D01*
X123077838Y-88761553D01*
X123205132Y-88795661D01*
X123205134Y-88795661D01*
X123336914Y-88795661D01*
X123336916Y-88795661D01*
X123464210Y-88761553D01*
X123578338Y-88695661D01*
X123578339Y-88695659D01*
X123581472Y-88693851D01*
X123584441Y-88693130D01*
X123586653Y-88691022D01*
X123618173Y-88684946D01*
X123649372Y-88677377D01*
X123652259Y-88678376D01*
X123655260Y-88677798D01*
X123685066Y-88689730D01*
X123715399Y-88700229D01*
X123717287Y-88702630D01*
X123720124Y-88703766D01*
X123738747Y-88729918D01*
X123758590Y-88755150D01*
X123758880Y-88758190D01*
X123760653Y-88760680D01*
X123762181Y-88792755D01*
X123765232Y-88824703D01*
X123763876Y-88828337D01*
X123763978Y-88830471D01*
X123750860Y-88863237D01*
X123746990Y-88869940D01*
X123746986Y-88869947D01*
X123712545Y-88929599D01*
X123712112Y-88931318D01*
X123678489Y-89056805D01*
X123678489Y-89188592D01*
X123689220Y-89228640D01*
X123704936Y-89287296D01*
X123712598Y-89315888D01*
X123715507Y-89320927D01*
X123715508Y-89320927D01*
X123778489Y-89430013D01*
X123871675Y-89523199D01*
X123985803Y-89589091D01*
X124113097Y-89623199D01*
X124113099Y-89623199D01*
X124244879Y-89623199D01*
X124244881Y-89623199D01*
X124372175Y-89589091D01*
X124486303Y-89523199D01*
X124579489Y-89430013D01*
X124645381Y-89315885D01*
X124679489Y-89188591D01*
X124679489Y-89056807D01*
X124645381Y-88929513D01*
X124579489Y-88815385D01*
X124486303Y-88722199D01*
X124429239Y-88689253D01*
X124372176Y-88656307D01*
X124308528Y-88639253D01*
X124244881Y-88622199D01*
X124244880Y-88622199D01*
X124113097Y-88622199D01*
X124001567Y-88652083D01*
X124001562Y-88652084D01*
X123987598Y-88655825D01*
X123985888Y-88656255D01*
X123886064Y-88713890D01*
X123868539Y-88724008D01*
X123800639Y-88740481D01*
X123734612Y-88717628D01*
X123691421Y-88662707D01*
X123684780Y-88593154D01*
X123699153Y-88554620D01*
X123706042Y-88542689D01*
X123737416Y-88488347D01*
X123771524Y-88361053D01*
X123771524Y-88229269D01*
X123737416Y-88101975D01*
X123671524Y-87987847D01*
X123578338Y-87894661D01*
X123510819Y-87855679D01*
X123483081Y-87833865D01*
X123470296Y-87820457D01*
X123439411Y-87763615D01*
X123438727Y-87760737D01*
X123438747Y-87759266D01*
X123438278Y-87758355D01*
X123438843Y-87752428D01*
X123439580Y-87699920D01*
X123443102Y-87686781D01*
X123443102Y-87554997D01*
X123408994Y-87427703D01*
X123408989Y-87427695D01*
X123395030Y-87403516D01*
X123343102Y-87313575D01*
X123249916Y-87220389D01*
X123249914Y-87220388D01*
X123249909Y-87220384D01*
X123185824Y-87183385D01*
X123185824Y-87183384D01*
X123185821Y-87183384D01*
X123185819Y-87183383D01*
X123135789Y-87154497D01*
X123072141Y-87137443D01*
X123008494Y-87120389D01*
X123008493Y-87120389D01*
X122876710Y-87120389D01*
X122749410Y-87154498D01*
X122749408Y-87154499D01*
X122635298Y-87220382D01*
X122635284Y-87220391D01*
X122635279Y-87220395D01*
X122542108Y-87313566D01*
X122542104Y-87313571D01*
X122542095Y-87313585D01*
X122476212Y-87427695D01*
X122476211Y-87427697D01*
X122465035Y-87469407D01*
X122442102Y-87554997D01*
X118926056Y-87554997D01*
X118488813Y-87117755D01*
X118455329Y-87056433D01*
X118460313Y-86986742D01*
X118502184Y-86930808D01*
X118514487Y-86922692D01*
X118551475Y-86901338D01*
X118625949Y-86826864D01*
X118647299Y-86789883D01*
X118697864Y-86741669D01*
X118766471Y-86728445D01*
X118831336Y-86754412D01*
X118842367Y-86764203D01*
X119385342Y-87307178D01*
X119385343Y-87307179D01*
X119417728Y-87262607D01*
X119472812Y-87154499D01*
X119510622Y-87080293D01*
X119510622Y-87080292D01*
X119510624Y-87080289D01*
X119573859Y-86885675D01*
X119584943Y-86815692D01*
X120179529Y-86815692D01*
X120179529Y-86947475D01*
X120181277Y-86953999D01*
X120213637Y-87074772D01*
X120238303Y-87117493D01*
X120279529Y-87188898D01*
X120372715Y-87282084D01*
X120471550Y-87339147D01*
X120485488Y-87347194D01*
X120486843Y-87347976D01*
X120614137Y-87382084D01*
X120614139Y-87382084D01*
X120745919Y-87382084D01*
X120745921Y-87382084D01*
X120873215Y-87347976D01*
X120987343Y-87282084D01*
X121080529Y-87188898D01*
X121146421Y-87074770D01*
X121180529Y-86947476D01*
X121180529Y-86815692D01*
X121146421Y-86688398D01*
X121143636Y-86683575D01*
X121114967Y-86633919D01*
X121080529Y-86574270D01*
X120987343Y-86481084D01*
X120930279Y-86448138D01*
X120873216Y-86415192D01*
X120809568Y-86398138D01*
X120745921Y-86381084D01*
X120745920Y-86381084D01*
X120614137Y-86381084D01*
X120486837Y-86415193D01*
X120486835Y-86415194D01*
X120372725Y-86481077D01*
X120372711Y-86481086D01*
X120372706Y-86481090D01*
X120279535Y-86574261D01*
X120279531Y-86574266D01*
X120279522Y-86574280D01*
X120213639Y-86688390D01*
X120213638Y-86688392D01*
X120193325Y-86764202D01*
X120179529Y-86815692D01*
X119584943Y-86815692D01*
X119589303Y-86788167D01*
X119605869Y-86683575D01*
X119605869Y-86478940D01*
X119573859Y-86276840D01*
X119510624Y-86082226D01*
X119510622Y-86082223D01*
X119510622Y-86082221D01*
X119417728Y-85899908D01*
X119409025Y-85887930D01*
X119399484Y-85861191D01*
X119385342Y-85855333D01*
X118842366Y-86398311D01*
X118781043Y-86431796D01*
X118711352Y-86426812D01*
X118655418Y-86384941D01*
X118647299Y-86372632D01*
X118625949Y-86335652D01*
X118551475Y-86261178D01*
X118514494Y-86239827D01*
X118466279Y-86189261D01*
X118453055Y-86120654D01*
X118479023Y-86055789D01*
X118488805Y-86044767D01*
X119031791Y-85501782D01*
X119031790Y-85501781D01*
X119031789Y-85501780D01*
X119031788Y-85501779D01*
X119031783Y-85501775D01*
X118987229Y-85469405D01*
X118987226Y-85469402D01*
X118888683Y-85419192D01*
X118804900Y-85376502D01*
X118610286Y-85313267D01*
X118610280Y-85313266D01*
X118408191Y-85281258D01*
X118408186Y-85281258D01*
X118203552Y-85281258D01*
X118203547Y-85281258D01*
X118001456Y-85313266D01*
X118001454Y-85313266D01*
X118001451Y-85313267D01*
X117904144Y-85344884D01*
X117806832Y-85376503D01*
X117624509Y-85469403D01*
X117579946Y-85501780D01*
X117579946Y-85501782D01*
X118122924Y-86044759D01*
X118156409Y-86106082D01*
X118151425Y-86175773D01*
X118109554Y-86231707D01*
X118097243Y-86239827D01*
X118060266Y-86261175D01*
X118060261Y-86261179D01*
X117985790Y-86335650D01*
X117985784Y-86335658D01*
X117964437Y-86372632D01*
X117913870Y-86420847D01*
X117845262Y-86434069D01*
X117780398Y-86408101D01*
X117769370Y-86398312D01*
X117226393Y-85855335D01*
X117226392Y-85855335D01*
X117226391Y-85855335D01*
X117194014Y-85899898D01*
X117101114Y-86082221D01*
X117070717Y-86175773D01*
X117037878Y-86276840D01*
X117037877Y-86276843D01*
X117037877Y-86276845D01*
X117005869Y-86478934D01*
X113205500Y-86478934D01*
X113205500Y-83414042D01*
X113205494Y-83412534D01*
X113205481Y-83410763D01*
X113196316Y-83351565D01*
X113192267Y-83338473D01*
X113191268Y-83268613D01*
X113228198Y-83209300D01*
X113259229Y-83189829D01*
X113259038Y-83189453D01*
X113263248Y-83187307D01*
X113263310Y-83187269D01*
X113263368Y-83187244D01*
X113263379Y-83187241D01*
X113487845Y-83072870D01*
X113488172Y-83072631D01*
X113488183Y-83072626D01*
X113488186Y-83072621D01*
X113488196Y-83072614D01*
X113488667Y-83072366D01*
X113492003Y-83070322D01*
X113492134Y-83070536D01*
X113519399Y-83056149D01*
X113531601Y-83051795D01*
X113601355Y-83047806D01*
X113662194Y-83082163D01*
X113693635Y-83138777D01*
X113696866Y-83151824D01*
X113699440Y-83165438D01*
X113699498Y-83165883D01*
X113699500Y-83165890D01*
X113699500Y-83165892D01*
X113702797Y-83178196D01*
X113706254Y-83191099D01*
X113733473Y-83292686D01*
X113733608Y-83293187D01*
X113740136Y-83304494D01*
X113740138Y-83304500D01*
X113740140Y-83304500D01*
X113799500Y-83407314D01*
X113892686Y-83500500D01*
X114006814Y-83566392D01*
X114134108Y-83600500D01*
X114134110Y-83600500D01*
X114265890Y-83600500D01*
X114265892Y-83600500D01*
X114393186Y-83566392D01*
X114507314Y-83500500D01*
X114600500Y-83407314D01*
X114666392Y-83293186D01*
X114700500Y-83165892D01*
X114700500Y-83107329D01*
X114700574Y-83106817D01*
X114705523Y-83072393D01*
X114709927Y-83057395D01*
X114747672Y-82998644D01*
X114747700Y-82998619D01*
X114747699Y-82998619D01*
X114749041Y-82997456D01*
X114803920Y-82969977D01*
X114811479Y-82968333D01*
X114837832Y-82965500D01*
X115796704Y-82965500D01*
X115825175Y-82969593D01*
X115831636Y-82970521D01*
X115844955Y-82974432D01*
X115903733Y-83012206D01*
X115932759Y-83075761D01*
X115932761Y-83075778D01*
X115932992Y-83077386D01*
X115927430Y-83135580D01*
X115925792Y-83140312D01*
X115916005Y-83161744D01*
X115901292Y-83187231D01*
X115901287Y-83187239D01*
X115861117Y-83256812D01*
X115839236Y-83338475D01*
X115827009Y-83384109D01*
X115827009Y-83515892D01*
X115840540Y-83566391D01*
X115861118Y-83643191D01*
X115892143Y-83696928D01*
X115927004Y-83757308D01*
X115927007Y-83757312D01*
X115927009Y-83757315D01*
X116020195Y-83850501D01*
X116118596Y-83907313D01*
X116127266Y-83912319D01*
X116134323Y-83916393D01*
X116216265Y-83938348D01*
X116220272Y-83939722D01*
X116223854Y-83942257D01*
X116244603Y-83951142D01*
X116256496Y-83958391D01*
X116257952Y-83959279D01*
X116276064Y-83979202D01*
X116277306Y-83980081D01*
X116277659Y-83980957D01*
X116304940Y-84010965D01*
X116305732Y-84012595D01*
X116318061Y-84072685D01*
X116317693Y-84080413D01*
X116313608Y-84106607D01*
X116299500Y-84159259D01*
X116299500Y-84159261D01*
X116299500Y-84291046D01*
X116333608Y-84418342D01*
X116358176Y-84460893D01*
X116358181Y-84460902D01*
X116358182Y-84460904D01*
X116399497Y-84532465D01*
X116399499Y-84532468D01*
X116399500Y-84532469D01*
X116492686Y-84625655D01*
X116606814Y-84691547D01*
X116734108Y-84725655D01*
X116734110Y-84725655D01*
X116865890Y-84725655D01*
X116865892Y-84725655D01*
X116993186Y-84691547D01*
X117107314Y-84625655D01*
X117172705Y-84560263D01*
X117173869Y-84559258D01*
X117174785Y-84558231D01*
X117207169Y-84527340D01*
X117207170Y-84527341D01*
X117219995Y-84515107D01*
X117282089Y-84483081D01*
X117351643Y-84489708D01*
X117367093Y-84501852D01*
X117369858Y-84502465D01*
X117376905Y-84509565D01*
X117406568Y-84532881D01*
X117411014Y-84539121D01*
X117415328Y-84548275D01*
X117419079Y-84552054D01*
X117420711Y-84559696D01*
X117429801Y-84578981D01*
X117433606Y-84593182D01*
X117433606Y-84593184D01*
X117440247Y-84604686D01*
X117445613Y-84613979D01*
X117499500Y-84707314D01*
X117592686Y-84800500D01*
X117706814Y-84866392D01*
X117834108Y-84900500D01*
X117834110Y-84900500D01*
X117965890Y-84900500D01*
X117965892Y-84900500D01*
X118093186Y-84866392D01*
X118207314Y-84800500D01*
X118300500Y-84707314D01*
X118313898Y-84684108D01*
X118769500Y-84684108D01*
X118769500Y-84815892D01*
X118778473Y-84849380D01*
X118803608Y-84943187D01*
X118836554Y-85000250D01*
X118869500Y-85057314D01*
X118962686Y-85150500D01*
X119061521Y-85207563D01*
X119062848Y-85208329D01*
X119076814Y-85216392D01*
X119204108Y-85250500D01*
X119204110Y-85250500D01*
X119335890Y-85250500D01*
X119335892Y-85250500D01*
X119463186Y-85216392D01*
X119577314Y-85150500D01*
X119670500Y-85057314D01*
X119736392Y-84943186D01*
X119765346Y-84835127D01*
X120459500Y-84835127D01*
X120459500Y-84966911D01*
X120476554Y-85030558D01*
X120482992Y-85054587D01*
X120493609Y-85094208D01*
X120504768Y-85113536D01*
X120504769Y-85113537D01*
X120559497Y-85208329D01*
X120559499Y-85208331D01*
X120559500Y-85208333D01*
X120652686Y-85301519D01*
X120766814Y-85367411D01*
X120894108Y-85401519D01*
X120894110Y-85401519D01*
X121025890Y-85401519D01*
X121025892Y-85401519D01*
X121153186Y-85367411D01*
X121267314Y-85301519D01*
X121360500Y-85208333D01*
X121426392Y-85094205D01*
X121455892Y-84984108D01*
X122435500Y-84984108D01*
X122435500Y-85115892D01*
X122449654Y-85168716D01*
X122469608Y-85243187D01*
X122491589Y-85281258D01*
X122535500Y-85357314D01*
X122628686Y-85450500D01*
X122742814Y-85516392D01*
X122870108Y-85550500D01*
X122870110Y-85550500D01*
X123001890Y-85550500D01*
X123001892Y-85550500D01*
X123129186Y-85516392D01*
X123243314Y-85450500D01*
X123336500Y-85357314D01*
X123402392Y-85243186D01*
X123436500Y-85115892D01*
X123436500Y-84984108D01*
X123402392Y-84856814D01*
X123389872Y-84835129D01*
X123378766Y-84815892D01*
X123378765Y-84815891D01*
X123366997Y-84795508D01*
X123885900Y-84795508D01*
X123885900Y-84927291D01*
X123892992Y-84953758D01*
X123920008Y-85054588D01*
X123945044Y-85097950D01*
X123952954Y-85111650D01*
X123985900Y-85168714D01*
X124079086Y-85261900D01*
X124193214Y-85327792D01*
X124320508Y-85361900D01*
X124320510Y-85361900D01*
X124452290Y-85361900D01*
X124452292Y-85361900D01*
X124579586Y-85327792D01*
X124693714Y-85261900D01*
X124786900Y-85168714D01*
X124852792Y-85054586D01*
X124886900Y-84927292D01*
X124886900Y-84795508D01*
X124852792Y-84668214D01*
X124852787Y-84668206D01*
X124822191Y-84615212D01*
X124786900Y-84554086D01*
X124693714Y-84460900D01*
X124620000Y-84418341D01*
X124579587Y-84395008D01*
X124515939Y-84377954D01*
X124452292Y-84360900D01*
X124452291Y-84360900D01*
X124320508Y-84360900D01*
X124193208Y-84395009D01*
X124193206Y-84395010D01*
X124079096Y-84460893D01*
X124079082Y-84460902D01*
X124079077Y-84460906D01*
X123985906Y-84554077D01*
X123985902Y-84554082D01*
X123985893Y-84554096D01*
X123920010Y-84668206D01*
X123920009Y-84668208D01*
X123909393Y-84707829D01*
X123885900Y-84795508D01*
X123366997Y-84795508D01*
X123336504Y-84742692D01*
X123336499Y-84742686D01*
X123336497Y-84742683D01*
X123243316Y-84649502D01*
X123243314Y-84649500D01*
X123186250Y-84616554D01*
X123181790Y-84613979D01*
X123129188Y-84583608D01*
X123029188Y-84556814D01*
X123029186Y-84556813D01*
X123001893Y-84549500D01*
X123001892Y-84549500D01*
X122870108Y-84549500D01*
X122742808Y-84583609D01*
X122742806Y-84583610D01*
X122628696Y-84649493D01*
X122628682Y-84649502D01*
X122628677Y-84649506D01*
X122535506Y-84742677D01*
X122535502Y-84742682D01*
X122535493Y-84742696D01*
X122469610Y-84856806D01*
X122469609Y-84856809D01*
X122469608Y-84856811D01*
X122469608Y-84856812D01*
X122467041Y-84866391D01*
X122440109Y-84966903D01*
X122440109Y-84966907D01*
X122435500Y-84984108D01*
X121455892Y-84984108D01*
X121460500Y-84966911D01*
X121460500Y-84835127D01*
X121426392Y-84707833D01*
X121426092Y-84707314D01*
X121378946Y-84625655D01*
X121366837Y-84604681D01*
X121360502Y-84593708D01*
X121360498Y-84593703D01*
X121267316Y-84500521D01*
X121267314Y-84500519D01*
X121198689Y-84460898D01*
X121167151Y-84442689D01*
X121153188Y-84434627D01*
X121089539Y-84417573D01*
X121025892Y-84400519D01*
X121025891Y-84400519D01*
X120894108Y-84400519D01*
X120766808Y-84434628D01*
X120766806Y-84434629D01*
X120652696Y-84500512D01*
X120652682Y-84500521D01*
X120652677Y-84500525D01*
X120559506Y-84593696D01*
X120559502Y-84593701D01*
X120559493Y-84593715D01*
X120493607Y-84707829D01*
X120493607Y-84707831D01*
X120484564Y-84741582D01*
X120484550Y-84741634D01*
X120484270Y-84742683D01*
X120459500Y-84835127D01*
X119765346Y-84835127D01*
X119770500Y-84815892D01*
X119770500Y-84684108D01*
X119736392Y-84556814D01*
X119736279Y-84556619D01*
X119734822Y-84554096D01*
X119727564Y-84541523D01*
X119726177Y-84539121D01*
X119670500Y-84442686D01*
X119577314Y-84349500D01*
X119476073Y-84291048D01*
X119476070Y-84291045D01*
X119463190Y-84283609D01*
X119463187Y-84283608D01*
X119399539Y-84266554D01*
X119335892Y-84249500D01*
X119335891Y-84249500D01*
X119204108Y-84249500D01*
X119076808Y-84283609D01*
X119076806Y-84283610D01*
X118962696Y-84349493D01*
X118962682Y-84349502D01*
X118962677Y-84349506D01*
X118869506Y-84442677D01*
X118869502Y-84442682D01*
X118869493Y-84442696D01*
X118803610Y-84556806D01*
X118803609Y-84556809D01*
X118803608Y-84556811D01*
X118803608Y-84556812D01*
X118773759Y-84668212D01*
X118769500Y-84684108D01*
X118313898Y-84684108D01*
X118359755Y-84604680D01*
X118366391Y-84593188D01*
X118366392Y-84593185D01*
X118400500Y-84465892D01*
X118400500Y-84334108D01*
X118366392Y-84206814D01*
X118300500Y-84092686D01*
X118300498Y-84092684D01*
X118300497Y-84092682D01*
X118298472Y-84090043D01*
X118288016Y-84073984D01*
X118279459Y-84058313D01*
X118278698Y-84054817D01*
X118264606Y-83990051D01*
X118264735Y-83988242D01*
X118284101Y-83930047D01*
X118288294Y-83923523D01*
X118295931Y-83914050D01*
X118295553Y-83913760D01*
X118300492Y-83907321D01*
X118300500Y-83907314D01*
X118366392Y-83793186D01*
X118400500Y-83665892D01*
X118400500Y-83534108D01*
X118366392Y-83406814D01*
X118366387Y-83406806D01*
X118353283Y-83384109D01*
X118300500Y-83292686D01*
X118207314Y-83199500D01*
X118207313Y-83199499D01*
X118207311Y-83199497D01*
X118200871Y-83194556D01*
X118201018Y-83194363D01*
X118180461Y-83178196D01*
X118172656Y-83170010D01*
X118140641Y-83107907D01*
X118147284Y-83038353D01*
X118190474Y-82983435D01*
X118194865Y-82980308D01*
X118242585Y-82959707D01*
X118416420Y-82925130D01*
X118607598Y-82845941D01*
X118779655Y-82730977D01*
X118925977Y-82584655D01*
X119040941Y-82412598D01*
X119102343Y-82264357D01*
X119120349Y-82234010D01*
X119122525Y-82231310D01*
X119127446Y-82225202D01*
X119184836Y-82185354D01*
X119254661Y-82182859D01*
X119314748Y-82218507D01*
X119318008Y-82222009D01*
X119318155Y-82222166D01*
X119345334Y-82268347D01*
X119392204Y-82412596D01*
X119398904Y-82433216D01*
X119495374Y-82622548D01*
X119495375Y-82622550D01*
X119530674Y-82671137D01*
X119534728Y-82676716D01*
X120040297Y-82171147D01*
X120101619Y-82137663D01*
X120171311Y-82142647D01*
X120227244Y-82184519D01*
X120235363Y-82196828D01*
X120249896Y-82222000D01*
X120249899Y-82222004D01*
X120249901Y-82222007D01*
X120342993Y-82315099D01*
X120368169Y-82329634D01*
X120416384Y-82380202D01*
X120429606Y-82448809D01*
X120403638Y-82513673D01*
X120393849Y-82524702D01*
X119888282Y-83030268D01*
X119888282Y-83030269D01*
X119888282Y-83030270D01*
X119942449Y-83069624D01*
X120085836Y-83142684D01*
X120131784Y-83166096D01*
X120333866Y-83231756D01*
X120333867Y-83231756D01*
X120333870Y-83231757D01*
X120543754Y-83265000D01*
X120756245Y-83265000D01*
X120756246Y-83265000D01*
X120869050Y-83247132D01*
X120956487Y-83233284D01*
X120956493Y-83233283D01*
X120966127Y-83231757D01*
X120966130Y-83231757D01*
X121168217Y-83166095D01*
X121357554Y-83069622D01*
X121374383Y-83057395D01*
X121379121Y-83053953D01*
X121405858Y-83044412D01*
X121411717Y-83030269D01*
X120906149Y-82524702D01*
X120872664Y-82463379D01*
X120877648Y-82393688D01*
X120919519Y-82337754D01*
X120931822Y-82329639D01*
X120957007Y-82315099D01*
X121050099Y-82222007D01*
X121064634Y-82196830D01*
X121115199Y-82148616D01*
X121183805Y-82135391D01*
X121248671Y-82161358D01*
X121259702Y-82171149D01*
X121765269Y-82676717D01*
X121765269Y-82676716D01*
X121765270Y-82676717D01*
X121765270Y-82676716D01*
X121778738Y-82671137D01*
X121784955Y-82649967D01*
X121788954Y-82644118D01*
X121792227Y-82639614D01*
X121804622Y-82622554D01*
X121901095Y-82433217D01*
X121952833Y-82273981D01*
X121968405Y-82242311D01*
X121974790Y-82232973D01*
X122028878Y-82188744D01*
X122098292Y-82180779D01*
X122160989Y-82211603D01*
X122163735Y-82214123D01*
X122164695Y-82215005D01*
X122195390Y-82258890D01*
X122245937Y-82380923D01*
X122245938Y-82380923D01*
X122259059Y-82412599D01*
X122259062Y-82412604D01*
X122272835Y-82433216D01*
X122374025Y-82584659D01*
X122520336Y-82730970D01*
X122520340Y-82730973D01*
X122520342Y-82730975D01*
X122520345Y-82730977D01*
X122520349Y-82730980D01*
X122520348Y-82730980D01*
X122520411Y-82731032D01*
X122520448Y-82731046D01*
X122692402Y-82845941D01*
X122883580Y-82925130D01*
X123018696Y-82952006D01*
X123028052Y-82953867D01*
X123083559Y-82964908D01*
X123085794Y-82965409D01*
X123086532Y-82965500D01*
X123293466Y-82965500D01*
X123297586Y-82965500D01*
X123305435Y-82963118D01*
X123496420Y-82925130D01*
X123687598Y-82845941D01*
X123859655Y-82730977D01*
X124005977Y-82584655D01*
X124120941Y-82412598D01*
X124200130Y-82221420D01*
X124240500Y-82018465D01*
X124240500Y-81811535D01*
X124200130Y-81608580D01*
X124120941Y-81417402D01*
X124006046Y-81245449D01*
X124006036Y-81245417D01*
X124005980Y-81245348D01*
X124005980Y-81245349D01*
X124005977Y-81245345D01*
X124005975Y-81245342D01*
X124005972Y-81245339D01*
X124005970Y-81245336D01*
X123859659Y-81099025D01*
X123687600Y-80984060D01*
X123687599Y-80984059D01*
X123687597Y-80984058D01*
X123687595Y-80984057D01*
X123687593Y-80984056D01*
X123654099Y-80970182D01*
X123642580Y-80965411D01*
X123641071Y-80964195D01*
X123639151Y-80963930D01*
X123612228Y-80947403D01*
X123605207Y-80941744D01*
X123595039Y-80927100D01*
X123588178Y-80921571D01*
X123581323Y-80907345D01*
X123565360Y-80884354D01*
X123562866Y-80814529D01*
X123598518Y-80754440D01*
X123654445Y-80724530D01*
X123659430Y-80723350D01*
X123667421Y-80722414D01*
X123669657Y-80721379D01*
X123672689Y-80721797D01*
X123687891Y-80720017D01*
X125231314Y-80718883D01*
X125266248Y-80723878D01*
X125274867Y-80726402D01*
X125333673Y-80764131D01*
X125362746Y-80827665D01*
X125352856Y-80896831D01*
X125312588Y-80945955D01*
X125308427Y-80948958D01*
X125283313Y-80962970D01*
X125232411Y-80984053D01*
X125232393Y-80984063D01*
X125060343Y-81099022D01*
X125060336Y-81099028D01*
X124914027Y-81245337D01*
X124799057Y-81417404D01*
X124719870Y-81608579D01*
X124719864Y-81608604D01*
X124679500Y-81811527D01*
X124679500Y-81811530D01*
X124679500Y-82018469D01*
X124679500Y-82018471D01*
X124679499Y-82018471D01*
X124719864Y-82221394D01*
X124719870Y-82221421D01*
X124785937Y-82380923D01*
X124785938Y-82380923D01*
X124799059Y-82412599D01*
X124799062Y-82412604D01*
X124812835Y-82433216D01*
X124914025Y-82584659D01*
X125060336Y-82730970D01*
X125060340Y-82730973D01*
X125060342Y-82730975D01*
X125060345Y-82730977D01*
X125060349Y-82730980D01*
X125060348Y-82730980D01*
X125060411Y-82731032D01*
X125060448Y-82731046D01*
X125232402Y-82845941D01*
X125423580Y-82925130D01*
X125558696Y-82952006D01*
X125568052Y-82953867D01*
X125623559Y-82964908D01*
X125625794Y-82965409D01*
X125626532Y-82965500D01*
X125833466Y-82965500D01*
X125837586Y-82965500D01*
X125845435Y-82963118D01*
X126036420Y-82925130D01*
X126227598Y-82845941D01*
X126399655Y-82730977D01*
X126545977Y-82584655D01*
X126660941Y-82412598D01*
X126740130Y-82221420D01*
X126780500Y-82018465D01*
X126780500Y-81811535D01*
X126740130Y-81608580D01*
X126660941Y-81417402D01*
X126546046Y-81245449D01*
X126546036Y-81245417D01*
X126545980Y-81245348D01*
X126545980Y-81245349D01*
X126545977Y-81245345D01*
X126545975Y-81245342D01*
X126545972Y-81245339D01*
X126545970Y-81245336D01*
X126399659Y-81099025D01*
X126227595Y-80984056D01*
X126178080Y-80963547D01*
X126176531Y-80962299D01*
X126174563Y-80962026D01*
X126147731Y-80945541D01*
X126143600Y-80942212D01*
X126140712Y-80939884D01*
X126130541Y-80925238D01*
X126123677Y-80919706D01*
X126116843Y-80905510D01*
X126100862Y-80882495D01*
X126098366Y-80812670D01*
X126134016Y-80752579D01*
X126189948Y-80722666D01*
X126194927Y-80721487D01*
X126203004Y-80720541D01*
X126205255Y-80719501D01*
X126208290Y-80719922D01*
X126223396Y-80718153D01*
X127775830Y-80717012D01*
X127810768Y-80722009D01*
X127819384Y-80724532D01*
X127878190Y-80762263D01*
X127907262Y-80825798D01*
X127897369Y-80894963D01*
X127857108Y-80944081D01*
X127852946Y-80947085D01*
X127827828Y-80961100D01*
X127772405Y-80984056D01*
X127772398Y-80984060D01*
X127600339Y-81099025D01*
X127454027Y-81245337D01*
X127339057Y-81417404D01*
X127259870Y-81608579D01*
X127259864Y-81608604D01*
X127219500Y-81811527D01*
X127219500Y-81811530D01*
X127219500Y-82018469D01*
X127219500Y-82018471D01*
X127219499Y-82018471D01*
X127259864Y-82221394D01*
X127259870Y-82221421D01*
X127325937Y-82380923D01*
X127325938Y-82380923D01*
X127339059Y-82412599D01*
X127339062Y-82412604D01*
X127352835Y-82433216D01*
X127454025Y-82584659D01*
X127600336Y-82730970D01*
X127600340Y-82730973D01*
X127600342Y-82730975D01*
X127600345Y-82730977D01*
X127600349Y-82730980D01*
X127600348Y-82730980D01*
X127600411Y-82731032D01*
X127600448Y-82731046D01*
X127772402Y-82845941D01*
X127963580Y-82925130D01*
X128098696Y-82952006D01*
X128108052Y-82953867D01*
X128163559Y-82964908D01*
X128165794Y-82965409D01*
X128166532Y-82965500D01*
X128373466Y-82965500D01*
X128377586Y-82965500D01*
X128385435Y-82963118D01*
X128576420Y-82925130D01*
X128767598Y-82845941D01*
X128939655Y-82730977D01*
X129085977Y-82584655D01*
X129200941Y-82412598D01*
X129280130Y-82221420D01*
X129320500Y-82018465D01*
X129320500Y-81811535D01*
X129280130Y-81608580D01*
X129200941Y-81417402D01*
X129086046Y-81245449D01*
X129086036Y-81245417D01*
X129085980Y-81245348D01*
X129085980Y-81245349D01*
X129085977Y-81245345D01*
X129085975Y-81245342D01*
X129085972Y-81245339D01*
X129085970Y-81245336D01*
X128939662Y-81099028D01*
X128939655Y-81099022D01*
X128767605Y-80984063D01*
X128767596Y-80984058D01*
X128767595Y-80984057D01*
X128721198Y-80964839D01*
X128713579Y-80961683D01*
X128712030Y-80960435D01*
X128710062Y-80960162D01*
X128683232Y-80943678D01*
X128676210Y-80938019D01*
X128666040Y-80923374D01*
X128659176Y-80917842D01*
X128652342Y-80903646D01*
X128636361Y-80880631D01*
X128633865Y-80810806D01*
X128669515Y-80750715D01*
X128725447Y-80720802D01*
X128730426Y-80719623D01*
X128738503Y-80718677D01*
X128740754Y-80717637D01*
X128743789Y-80718058D01*
X128758895Y-80716289D01*
X130320346Y-80715141D01*
X130355271Y-80720133D01*
G37*
G04 #@! TD.AperFunction*
G04 #@! TA.AperFunction,Conductor*
G36*
X121248671Y-99738158D02*
G01*
X121259702Y-99747949D01*
X121765269Y-100253517D01*
X121765269Y-100253516D01*
X121765270Y-100253517D01*
X121765270Y-100253516D01*
X121778738Y-100247937D01*
X121784955Y-100226767D01*
X121788954Y-100220918D01*
X121792227Y-100216414D01*
X121804622Y-100199354D01*
X121901095Y-100010017D01*
X121952833Y-99850781D01*
X121968405Y-99819111D01*
X121974790Y-99809773D01*
X122028878Y-99765544D01*
X122098292Y-99757579D01*
X122160989Y-99788403D01*
X122164681Y-99791792D01*
X122195389Y-99835686D01*
X122206955Y-99863608D01*
X122206954Y-99863608D01*
X122206955Y-99863609D01*
X122254924Y-99979418D01*
X122254925Y-99979418D01*
X122259058Y-99989396D01*
X122259060Y-99989399D01*
X122272835Y-100010016D01*
X122374025Y-100161459D01*
X122520336Y-100307770D01*
X122520340Y-100307773D01*
X122520342Y-100307775D01*
X122520345Y-100307777D01*
X122520349Y-100307780D01*
X122520348Y-100307780D01*
X122520411Y-100307832D01*
X122520448Y-100307846D01*
X122692402Y-100422741D01*
X122883580Y-100501930D01*
X122905773Y-100506344D01*
X122923568Y-100509884D01*
X122923577Y-100509885D01*
X122923609Y-100509892D01*
X122964146Y-100517955D01*
X122997417Y-100529691D01*
X123002832Y-100532524D01*
X123015667Y-100544907D01*
X123026055Y-100550341D01*
X123031852Y-100560522D01*
X123053114Y-100581035D01*
X123059914Y-100609803D01*
X123060628Y-100611057D01*
X123060550Y-100612496D01*
X123069187Y-100649031D01*
X123045947Y-100714923D01*
X122990783Y-100757785D01*
X122989147Y-100758429D01*
X122943698Y-100767047D01*
X121551096Y-100766711D01*
X121516163Y-100761680D01*
X121501596Y-100757399D01*
X121442827Y-100719611D01*
X121414449Y-100659992D01*
X121412422Y-100648520D01*
X121410916Y-100617234D01*
X121411032Y-100615760D01*
X121411716Y-100607070D01*
X120906148Y-100101502D01*
X120872663Y-100040179D01*
X120877647Y-99970487D01*
X120919519Y-99914554D01*
X120931818Y-99906441D01*
X120957007Y-99891899D01*
X121050099Y-99798807D01*
X121064634Y-99773630D01*
X121115199Y-99725416D01*
X121183805Y-99712191D01*
X121248671Y-99738158D01*
G37*
G04 #@! TD.AperFunction*
G04 #@! TA.AperFunction,Conductor*
G36*
X120171311Y-99719447D02*
G01*
X120227244Y-99761319D01*
X120235363Y-99773628D01*
X120249896Y-99798800D01*
X120249899Y-99798804D01*
X120249901Y-99798807D01*
X120342993Y-99891899D01*
X120368169Y-99906434D01*
X120416384Y-99957002D01*
X120429606Y-100025609D01*
X120403638Y-100090473D01*
X120393849Y-100101502D01*
X119888282Y-100607068D01*
X119888889Y-100614779D01*
X119888888Y-100614786D01*
X119888889Y-100614788D01*
X119886621Y-100650006D01*
X119884990Y-100657770D01*
X119883502Y-100664853D01*
X119850452Y-100726411D01*
X119793238Y-100759393D01*
X119781947Y-100762317D01*
X119750831Y-100766277D01*
X118365946Y-100765943D01*
X118331008Y-100760910D01*
X118325146Y-100759187D01*
X118310137Y-100749535D01*
X118293018Y-100744499D01*
X118281360Y-100731030D01*
X118266379Y-100721397D01*
X118258970Y-100705163D01*
X118247292Y-100691671D01*
X118244766Y-100674038D01*
X118237371Y-100657833D01*
X118239915Y-100640169D01*
X118237386Y-100622507D01*
X118244793Y-100606309D01*
X118247334Y-100588677D01*
X118259024Y-100575193D01*
X118266445Y-100558967D01*
X118293077Y-100535914D01*
X118293099Y-100535890D01*
X118294625Y-100534909D01*
X118337414Y-100517644D01*
X118416420Y-100501930D01*
X118607598Y-100422741D01*
X118779655Y-100307777D01*
X118925977Y-100161455D01*
X119040941Y-99989398D01*
X119102343Y-99841157D01*
X119120349Y-99810810D01*
X119125758Y-99804098D01*
X119127446Y-99802002D01*
X119184836Y-99762154D01*
X119254661Y-99759659D01*
X119314748Y-99795307D01*
X119318008Y-99798809D01*
X119318155Y-99798966D01*
X119345334Y-99845147D01*
X119392204Y-99989396D01*
X119398904Y-100010016D01*
X119495374Y-100199348D01*
X119495375Y-100199350D01*
X119530674Y-100247937D01*
X119534728Y-100253516D01*
X120040297Y-99747947D01*
X120101619Y-99714463D01*
X120171311Y-99719447D01*
G37*
G04 #@! TD.AperFunction*
G04 #@! TA.AperFunction,Conductor*
G36*
X119777199Y-80727914D02*
G01*
X119792200Y-80732306D01*
X119798595Y-80736408D01*
X119806140Y-80737309D01*
X119836282Y-80755670D01*
X119844242Y-80762239D01*
X119844560Y-80762605D01*
X119844616Y-80762548D01*
X119877157Y-80789401D01*
X119885914Y-80797360D01*
X120393850Y-81305296D01*
X120427335Y-81366619D01*
X120422351Y-81436311D01*
X120380479Y-81492244D01*
X120368173Y-81500362D01*
X120342996Y-81514898D01*
X120342990Y-81514903D01*
X120249903Y-81607990D01*
X120249898Y-81607996D01*
X120235362Y-81633173D01*
X120184793Y-81681387D01*
X120116185Y-81694607D01*
X120051322Y-81668637D01*
X120040296Y-81658850D01*
X119534728Y-81153282D01*
X119534727Y-81153282D01*
X119495380Y-81207438D01*
X119398906Y-81396777D01*
X119347165Y-81556017D01*
X119331595Y-81587685D01*
X119325211Y-81597022D01*
X119271123Y-81641253D01*
X119201710Y-81649220D01*
X119139010Y-81618396D01*
X119139008Y-81618394D01*
X119135327Y-81615015D01*
X119104609Y-81571110D01*
X119047004Y-81432037D01*
X119040946Y-81417411D01*
X119040943Y-81417406D01*
X119040943Y-81417405D01*
X118925975Y-81245342D01*
X118925973Y-81245339D01*
X118779659Y-81099025D01*
X118607600Y-80984060D01*
X118607599Y-80984059D01*
X118607597Y-80984058D01*
X118607595Y-80984057D01*
X118607593Y-80984056D01*
X118571581Y-80969140D01*
X118570071Y-80967923D01*
X118568151Y-80967658D01*
X118541228Y-80951131D01*
X118540841Y-80950819D01*
X118534207Y-80945472D01*
X118524039Y-80930828D01*
X118517178Y-80925299D01*
X118510323Y-80911073D01*
X118494360Y-80888082D01*
X118491866Y-80818257D01*
X118527518Y-80758168D01*
X118583445Y-80728258D01*
X118588430Y-80727078D01*
X118596421Y-80726142D01*
X118598657Y-80725107D01*
X118601689Y-80725525D01*
X118616891Y-80723745D01*
X119742266Y-80722918D01*
X119777199Y-80727914D01*
G37*
G04 #@! TD.AperFunction*
G04 #@! TA.AperFunction,Conductor*
G36*
X122721723Y-80725745D02*
G01*
X122730343Y-80728270D01*
X122789149Y-80765993D01*
X122818228Y-80829525D01*
X122808343Y-80898691D01*
X122768083Y-80947816D01*
X122763923Y-80950819D01*
X122738799Y-80964839D01*
X122692406Y-80984055D01*
X122520337Y-81099027D01*
X122374026Y-81245338D01*
X122374020Y-81245346D01*
X122259063Y-81417392D01*
X122259055Y-81417406D01*
X122197657Y-81565637D01*
X122187444Y-81582850D01*
X122179649Y-81595988D01*
X122172553Y-81604794D01*
X122115162Y-81644644D01*
X122045337Y-81647139D01*
X121985248Y-81611488D01*
X121983579Y-81609696D01*
X121981831Y-81607818D01*
X121954664Y-81561651D01*
X121901095Y-81396782D01*
X121804624Y-81207449D01*
X121765270Y-81153282D01*
X121765269Y-81153282D01*
X121765268Y-81153282D01*
X121259702Y-81658849D01*
X121198379Y-81692334D01*
X121128687Y-81687350D01*
X121072754Y-81645478D01*
X121064634Y-81633169D01*
X121063179Y-81630649D01*
X121050099Y-81607993D01*
X120957007Y-81514901D01*
X120957004Y-81514899D01*
X120957000Y-81514896D01*
X120931828Y-81500363D01*
X120883613Y-81449796D01*
X120870391Y-81381189D01*
X120896359Y-81316324D01*
X120906133Y-81305312D01*
X121413203Y-80798241D01*
X121419503Y-80792366D01*
X121454642Y-80761809D01*
X121454943Y-80762110D01*
X121458797Y-80758196D01*
X121462407Y-80755058D01*
X121483765Y-80745258D01*
X121512605Y-80728611D01*
X121524345Y-80725562D01*
X121555402Y-80721585D01*
X122686798Y-80720753D01*
X122721723Y-80725745D01*
G37*
G04 #@! TD.AperFunction*
G04 #@! TD*
G04 #@! TA.AperFunction,Conductor*
G04 #@! TO.N,PGND*
G36*
X126652030Y-84019685D02*
G01*
X126697785Y-84072489D01*
X126707729Y-84141647D01*
X126678704Y-84205203D01*
X126669231Y-84213560D01*
X126669483Y-84213812D01*
X126660848Y-84222446D01*
X126616532Y-84288769D01*
X126616531Y-84288770D01*
X126604900Y-84347247D01*
X126604900Y-86086752D01*
X126616531Y-86145229D01*
X126616532Y-86145230D01*
X126660847Y-86211552D01*
X126727169Y-86255867D01*
X126727170Y-86255868D01*
X126785647Y-86267499D01*
X126785650Y-86267500D01*
X126785652Y-86267500D01*
X128525150Y-86267500D01*
X128525151Y-86267499D01*
X128539968Y-86264552D01*
X128583629Y-86255868D01*
X128583629Y-86255867D01*
X128583631Y-86255867D01*
X128649952Y-86211552D01*
X128694267Y-86145231D01*
X128694267Y-86145229D01*
X128694268Y-86145229D01*
X128705899Y-86086752D01*
X128705900Y-86086750D01*
X128705900Y-85783048D01*
X128725585Y-85716009D01*
X128778389Y-85670254D01*
X128847547Y-85660310D01*
X128911103Y-85689335D01*
X128941338Y-85731264D01*
X128942094Y-85730879D01*
X129040775Y-85924550D01*
X129080128Y-85978716D01*
X129712437Y-85346408D01*
X129729475Y-85409993D01*
X129795301Y-85524007D01*
X129888393Y-85617099D01*
X130002407Y-85682925D01*
X130065990Y-85699962D01*
X129433682Y-86332269D01*
X129433682Y-86332270D01*
X129487849Y-86371624D01*
X129677182Y-86468095D01*
X129879270Y-86533757D01*
X130089154Y-86567000D01*
X130301646Y-86567000D01*
X130511527Y-86533757D01*
X130511530Y-86533757D01*
X130713617Y-86468095D01*
X130902954Y-86371622D01*
X130957116Y-86332270D01*
X130957117Y-86332270D01*
X130324808Y-85699962D01*
X130388393Y-85682925D01*
X130502407Y-85617099D01*
X130595499Y-85524007D01*
X130661325Y-85409993D01*
X130678362Y-85346408D01*
X131310670Y-85978717D01*
X131310670Y-85978716D01*
X131350022Y-85924554D01*
X131446495Y-85735217D01*
X131512157Y-85533130D01*
X131512157Y-85533127D01*
X131536227Y-85381161D01*
X131566156Y-85318026D01*
X131625468Y-85281095D01*
X131695330Y-85282093D01*
X131753563Y-85320703D01*
X131781677Y-85384666D01*
X131782700Y-85400559D01*
X131782700Y-96876000D01*
X131763015Y-96943039D01*
X131710211Y-96988794D01*
X131658700Y-97000000D01*
X131514027Y-97000000D01*
X131446988Y-96980315D01*
X131401233Y-96927511D01*
X131391289Y-96858353D01*
X131406640Y-96814000D01*
X131476390Y-96693189D01*
X131476392Y-96693186D01*
X131510500Y-96565892D01*
X131510500Y-96434108D01*
X131476392Y-96306814D01*
X131410500Y-96192686D01*
X131317314Y-96099500D01*
X131260250Y-96066554D01*
X131203187Y-96033608D01*
X131139539Y-96016554D01*
X131075892Y-95999500D01*
X130944108Y-95999500D01*
X130816812Y-96033608D01*
X130702686Y-96099500D01*
X130702683Y-96099502D01*
X130609502Y-96192683D01*
X130609500Y-96192686D01*
X130543608Y-96306812D01*
X130509500Y-96434108D01*
X130509500Y-96565891D01*
X130543609Y-96693188D01*
X130543609Y-96693189D01*
X130613360Y-96814000D01*
X130629833Y-96881900D01*
X130606981Y-96947927D01*
X130552060Y-96991117D01*
X130505973Y-97000000D01*
X128074500Y-97000000D01*
X128007461Y-96980315D01*
X127961706Y-96927511D01*
X127953948Y-96891853D01*
X127951561Y-96892168D01*
X127950500Y-96884115D01*
X127950500Y-96884108D01*
X127916392Y-96756814D01*
X127850500Y-96642686D01*
X127757314Y-96549500D01*
X127700250Y-96516554D01*
X127643187Y-96483608D01*
X127579539Y-96466554D01*
X127515892Y-96449500D01*
X127384108Y-96449500D01*
X127256812Y-96483608D01*
X127142686Y-96549500D01*
X127142683Y-96549502D01*
X127049502Y-96642683D01*
X127049500Y-96642686D01*
X126983608Y-96756812D01*
X126949500Y-96884108D01*
X126948439Y-96892168D01*
X126944889Y-96891700D01*
X126929815Y-96943039D01*
X126877011Y-96988794D01*
X126825500Y-97000000D01*
X126124000Y-97000000D01*
X126056961Y-96980315D01*
X126011206Y-96927511D01*
X126000000Y-96876000D01*
X126000000Y-93501273D01*
X127887625Y-93501273D01*
X127887625Y-93593560D01*
X127911512Y-93682707D01*
X127911513Y-93682710D01*
X127957651Y-93762622D01*
X127957654Y-93762626D01*
X127957656Y-93762629D01*
X128022913Y-93827886D01*
X128022916Y-93827887D01*
X128022919Y-93827890D01*
X128102831Y-93874028D01*
X128102832Y-93874028D01*
X128102837Y-93874031D01*
X128191981Y-93897917D01*
X128191983Y-93897917D01*
X128284267Y-93897917D01*
X128284269Y-93897917D01*
X128373413Y-93874031D01*
X128453337Y-93827886D01*
X128518594Y-93762629D01*
X128564739Y-93682705D01*
X128588625Y-93593561D01*
X128588625Y-93501273D01*
X128564739Y-93412129D01*
X128556763Y-93398314D01*
X128518598Y-93332211D01*
X128518595Y-93332208D01*
X128518594Y-93332205D01*
X128453337Y-93266948D01*
X128453334Y-93266946D01*
X128453330Y-93266943D01*
X128373418Y-93220805D01*
X128373415Y-93220804D01*
X128373414Y-93220803D01*
X128373413Y-93220803D01*
X128284269Y-93196917D01*
X128191981Y-93196917D01*
X128176692Y-93201013D01*
X128165735Y-93203949D01*
X128165731Y-93203950D01*
X128102837Y-93220803D01*
X128035618Y-93259612D01*
X128035610Y-93259616D01*
X128022919Y-93266943D01*
X128022910Y-93266950D01*
X127957658Y-93332202D01*
X127957651Y-93332211D01*
X127911513Y-93412123D01*
X127911512Y-93412126D01*
X127887625Y-93501273D01*
X126000000Y-93501273D01*
X126000000Y-92641426D01*
X127516507Y-92641426D01*
X127516507Y-92733713D01*
X127540394Y-92822860D01*
X127540395Y-92822863D01*
X127586533Y-92902775D01*
X127586536Y-92902779D01*
X127586538Y-92902782D01*
X127651795Y-92968039D01*
X127651798Y-92968040D01*
X127651801Y-92968043D01*
X127731713Y-93014181D01*
X127731714Y-93014181D01*
X127731719Y-93014184D01*
X127820863Y-93038070D01*
X127820865Y-93038070D01*
X127913148Y-93038070D01*
X127913151Y-93038070D01*
X128002295Y-93014184D01*
X128082219Y-92968039D01*
X128147476Y-92902782D01*
X128193621Y-92822858D01*
X128217507Y-92733714D01*
X128217507Y-92641426D01*
X128193621Y-92552282D01*
X128193618Y-92552276D01*
X128147480Y-92472364D01*
X128147477Y-92472361D01*
X128147476Y-92472358D01*
X128082219Y-92407101D01*
X128082216Y-92407099D01*
X128082212Y-92407096D01*
X128002300Y-92360958D01*
X128002297Y-92360957D01*
X128002296Y-92360956D01*
X128002295Y-92360956D01*
X127913151Y-92337070D01*
X127820863Y-92337070D01*
X127731719Y-92360956D01*
X127731718Y-92360956D01*
X127731716Y-92360957D01*
X127731713Y-92360958D01*
X127651801Y-92407096D01*
X127651792Y-92407103D01*
X127586540Y-92472355D01*
X127586533Y-92472364D01*
X127540395Y-92552276D01*
X127540394Y-92552279D01*
X127516507Y-92641426D01*
X126000000Y-92641426D01*
X126000000Y-91594883D01*
X126019685Y-91527844D01*
X126036314Y-91507206D01*
X126126139Y-91417382D01*
X126235632Y-91253514D01*
X126311051Y-91071435D01*
X126349500Y-90878143D01*
X126888499Y-90878143D01*
X126926947Y-91071429D01*
X126926950Y-91071439D01*
X127002364Y-91253507D01*
X127002371Y-91253520D01*
X127111860Y-91417381D01*
X127111863Y-91417385D01*
X127251214Y-91556736D01*
X127251218Y-91556739D01*
X127415079Y-91666228D01*
X127415092Y-91666235D01*
X127597160Y-91741649D01*
X127597165Y-91741651D01*
X127597169Y-91741651D01*
X127597170Y-91741652D01*
X127790456Y-91780100D01*
X127790459Y-91780100D01*
X127987543Y-91780100D01*
X128117582Y-91754232D01*
X128180835Y-91741651D01*
X128362914Y-91666232D01*
X128526782Y-91556739D01*
X128666139Y-91417382D01*
X128775632Y-91253514D01*
X128851051Y-91071435D01*
X128889500Y-90878143D01*
X129428499Y-90878143D01*
X129466947Y-91071429D01*
X129466950Y-91071439D01*
X129542364Y-91253507D01*
X129542371Y-91253520D01*
X129651860Y-91417381D01*
X129651863Y-91417385D01*
X129791214Y-91556736D01*
X129791218Y-91556739D01*
X129955079Y-91666228D01*
X129955092Y-91666235D01*
X130137160Y-91741649D01*
X130137165Y-91741651D01*
X130137169Y-91741651D01*
X130137170Y-91741652D01*
X130330456Y-91780100D01*
X130330459Y-91780100D01*
X130527543Y-91780100D01*
X130657582Y-91754232D01*
X130720835Y-91741651D01*
X130902914Y-91666232D01*
X131066782Y-91556739D01*
X131206139Y-91417382D01*
X131315632Y-91253514D01*
X131391051Y-91071435D01*
X131429500Y-90878141D01*
X131429500Y-90681059D01*
X131429500Y-90681056D01*
X131391052Y-90487770D01*
X131391051Y-90487769D01*
X131391051Y-90487765D01*
X131391049Y-90487760D01*
X131315635Y-90305692D01*
X131315628Y-90305679D01*
X131206139Y-90141818D01*
X131206136Y-90141814D01*
X131066785Y-90002463D01*
X131066781Y-90002460D01*
X130902920Y-89892971D01*
X130902907Y-89892964D01*
X130720839Y-89817550D01*
X130720829Y-89817547D01*
X130527543Y-89779100D01*
X130527541Y-89779100D01*
X130330459Y-89779100D01*
X130330457Y-89779100D01*
X130137170Y-89817547D01*
X130137160Y-89817550D01*
X129955092Y-89892964D01*
X129955079Y-89892971D01*
X129791218Y-90002460D01*
X129791214Y-90002463D01*
X129651863Y-90141814D01*
X129651860Y-90141818D01*
X129542371Y-90305679D01*
X129542364Y-90305692D01*
X129466950Y-90487760D01*
X129466947Y-90487770D01*
X129428500Y-90681056D01*
X129428500Y-90681059D01*
X129428500Y-90878141D01*
X129428500Y-90878143D01*
X129428499Y-90878143D01*
X128889500Y-90878143D01*
X128889500Y-90878141D01*
X128889500Y-90681059D01*
X128889500Y-90681056D01*
X128851052Y-90487770D01*
X128851051Y-90487769D01*
X128851051Y-90487765D01*
X128851049Y-90487760D01*
X128775635Y-90305692D01*
X128775628Y-90305679D01*
X128666139Y-90141818D01*
X128666136Y-90141814D01*
X128526785Y-90002463D01*
X128526781Y-90002460D01*
X128362920Y-89892971D01*
X128362907Y-89892964D01*
X128265380Y-89852568D01*
X128210976Y-89808727D01*
X128188911Y-89742433D01*
X128206190Y-89674734D01*
X128257327Y-89627123D01*
X128280734Y-89618233D01*
X128343574Y-89601396D01*
X128423498Y-89555251D01*
X128488755Y-89489994D01*
X128534900Y-89410070D01*
X128558786Y-89320926D01*
X128558786Y-89228638D01*
X128534900Y-89139494D01*
X128534897Y-89139488D01*
X128488759Y-89059576D01*
X128488756Y-89059573D01*
X128488755Y-89059570D01*
X128423498Y-88994313D01*
X128423495Y-88994311D01*
X128423491Y-88994308D01*
X128343579Y-88948170D01*
X128343576Y-88948169D01*
X128343575Y-88948168D01*
X128343574Y-88948168D01*
X128254430Y-88924282D01*
X128162142Y-88924282D01*
X128072998Y-88948168D01*
X128072997Y-88948168D01*
X128072995Y-88948169D01*
X128072992Y-88948170D01*
X127993080Y-88994308D01*
X127993071Y-88994315D01*
X127927819Y-89059567D01*
X127927812Y-89059576D01*
X127881674Y-89139488D01*
X127881673Y-89139491D01*
X127857786Y-89228638D01*
X127857786Y-89320925D01*
X127881673Y-89410072D01*
X127881674Y-89410075D01*
X127927812Y-89489987D01*
X127927815Y-89489991D01*
X127927817Y-89489994D01*
X127993074Y-89555251D01*
X127993076Y-89555252D01*
X127994994Y-89556724D01*
X127996203Y-89558380D01*
X127998821Y-89560998D01*
X127998412Y-89561406D01*
X128036197Y-89613152D01*
X128040352Y-89682898D01*
X128006140Y-89743818D01*
X127944422Y-89776571D01*
X127919508Y-89779100D01*
X127790457Y-89779100D01*
X127597170Y-89817547D01*
X127597160Y-89817550D01*
X127415092Y-89892964D01*
X127415079Y-89892971D01*
X127251218Y-90002460D01*
X127251214Y-90002463D01*
X127111863Y-90141814D01*
X127111860Y-90141818D01*
X127002371Y-90305679D01*
X127002364Y-90305692D01*
X126926950Y-90487760D01*
X126926947Y-90487770D01*
X126888500Y-90681056D01*
X126888500Y-90681059D01*
X126888500Y-90878141D01*
X126888500Y-90878143D01*
X126888499Y-90878143D01*
X126349500Y-90878143D01*
X126349500Y-90878141D01*
X126349500Y-90681059D01*
X126349500Y-90681056D01*
X126311052Y-90487770D01*
X126311051Y-90487769D01*
X126311051Y-90487765D01*
X126311049Y-90487760D01*
X126235635Y-90305692D01*
X126235628Y-90305679D01*
X126126139Y-90141818D01*
X126126136Y-90141814D01*
X126036319Y-90051997D01*
X126002834Y-89990674D01*
X126000000Y-89964316D01*
X126000000Y-84124000D01*
X126019685Y-84056961D01*
X126072489Y-84011206D01*
X126124000Y-84000000D01*
X126584991Y-84000000D01*
X126652030Y-84019685D01*
G37*
G04 #@! TD.AperFunction*
G04 #@! TA.AperFunction,Conductor*
G36*
X131725739Y-84019685D02*
G01*
X131771494Y-84072489D01*
X131782700Y-84124000D01*
X131782700Y-85033440D01*
X131763015Y-85100479D01*
X131710211Y-85146234D01*
X131641053Y-85156178D01*
X131577497Y-85127153D01*
X131539723Y-85068375D01*
X131536227Y-85052838D01*
X131512157Y-84900872D01*
X131512157Y-84900869D01*
X131446495Y-84698782D01*
X131350024Y-84509449D01*
X131310670Y-84455282D01*
X131310669Y-84455282D01*
X130678362Y-85087590D01*
X130661325Y-85024007D01*
X130595499Y-84909993D01*
X130502407Y-84816901D01*
X130388393Y-84751075D01*
X130324809Y-84734037D01*
X130968814Y-84090030D01*
X130973998Y-84065354D01*
X131023049Y-84015596D01*
X131083253Y-84000000D01*
X131658700Y-84000000D01*
X131725739Y-84019685D01*
G37*
G04 #@! TD.AperFunction*
G04 #@! TA.AperFunction,Conductor*
G36*
X129374585Y-84019685D02*
G01*
X129420340Y-84072489D01*
X129423752Y-84091798D01*
X130065991Y-84734037D01*
X130002407Y-84751075D01*
X129888393Y-84816901D01*
X129795301Y-84909993D01*
X129729475Y-85024007D01*
X129712437Y-85087591D01*
X129080128Y-84455282D01*
X129080127Y-84455282D01*
X129040780Y-84509439D01*
X128942094Y-84703121D01*
X128941078Y-84702603D01*
X128900612Y-84752813D01*
X128834316Y-84774872D01*
X128766618Y-84757588D01*
X128719012Y-84706447D01*
X128705900Y-84650951D01*
X128705900Y-84347249D01*
X128705899Y-84347247D01*
X128694268Y-84288770D01*
X128694267Y-84288769D01*
X128649951Y-84222446D01*
X128641317Y-84213812D01*
X128643764Y-84211364D01*
X128612111Y-84173486D01*
X128603406Y-84104160D01*
X128633564Y-84041134D01*
X128693008Y-84004417D01*
X128725809Y-84000000D01*
X129307546Y-84000000D01*
X129374585Y-84019685D01*
G37*
G04 #@! TD.AperFunction*
G04 #@! TD*
M02*
