M48
; DRILL file KiCad 10.0.3 date 2026-07-27T17:44:53
; FORMAT={-:-/ absolute / metric / decimal}
; #@! TF.CreationDate,2026-07-27T17:44:53-07:00
; #@! TF.GenerationSoftware,Kicad,Pcbnew,10.0.3
; #@! TF.FileFunction,Plated,1,4,PTH
FMAT,2
METRIC
; #@! TA.AperFunction,Plated,PTH,ViaDrill
T1C0.300
; #@! TA.AperFunction,Plated,PTH,ComponentDrill
T2C0.800
; #@! TA.AperFunction,Plated,PTH,ComponentDrill
T3C0.900
; #@! TA.AperFunction,Plated,PTH,ComponentDrill
T4C1.000
; #@! TA.AperFunction,Plated,PTH,ComponentDrill
T5C1.200
; #@! TA.AperFunction,Plated,PTH,ComponentDrill
T6C1.600
%
G90
G05
T1
X82.25Y-86.75
X83.0Y-92.79
X83.26Y-86.75
X83.8Y-90.8
X83.8Y-95.0
X85.061Y-84.491
X85.5Y-88.7
X86.0Y-96.5
X86.5Y-88.7
X86.7Y-95.3
X87.0Y-96.75
X88.3Y-95.5
X88.4Y-98.0
X89.0Y-87.5
X89.3Y-96.8
X89.4Y-84.4
X89.4Y-91.8
X90.033Y-85.139
X90.3Y-96.7
X90.839Y-89.052
X90.95Y-84.45
X91.136Y-83.15
X92.4Y-92.7
X92.496Y-83.139
X93.204Y-91.752
X93.381Y-83.0
X93.5Y-99.8
X93.9Y-92.402
X95.411Y-92.0
X95.8Y-95.2
X95.834Y-88.109
X96.0Y-89.8
X96.3Y-86.4
X96.799Y-89.789
X97.079Y-91.669
X97.25Y-88.3
X97.521Y-94.972
X97.7Y-95.7
X98.142Y-85.835
X98.15Y-84.7
X99.35Y-81.8
X99.9Y-99.7
X99.96Y-82.69
X100.245Y-84.823
X101.5Y-85.11
X101.6Y-88.8
X101.95Y-91.95
X102.1Y-94.6
X102.511Y-87.139
X102.9Y-99.2
X102.903Y-85.402
X103.161Y-83.589
X103.3Y-93.9
X103.45Y-89.8
X103.8Y-92.8
X104.043Y-97.243
X104.329Y-87.723
X104.65Y-89.096
X105.23Y-96.25
X106.0Y-84.208
X107.25Y-90.35
X107.786Y-82.914
X107.95Y-92.0
X108.04Y-85.443
X108.9Y-87.15
X109.203Y-99.358
X110.16Y-84.433
X111.25Y-92.7
X111.264Y-88.643
X112.003Y-88.771
X112.27Y-92.033
X112.392Y-93.586
X112.417Y-90.597
X112.45Y-87.7
X112.726Y-89.871
X113.068Y-92.168
X113.279Y-94.543
X113.801Y-96.672
X113.842Y-93.446
X114.044Y-94.744
X114.1Y-85.2
X114.303Y-97.443
X114.31Y-83.9
X114.805Y-95.539
X114.867Y-94.732
X114.923Y-86.883
X114.992Y-96.577
X115.549Y-89.5
X115.643Y-86.674
X115.7Y-92.3
X116.586Y-87.286
X116.65Y-98.122
X116.708Y-85.314
X117.004Y-89.806
X117.119Y-94.673
X117.272Y-96.545
X117.339Y-83.861
X117.789Y-90.11
X118.1Y-84.822
X118.106Y-93.88
X118.211Y-83.711
X118.517Y-88.733
X118.55Y-90.11
X118.7Y-91.615
X118.9Y-94.0
X119.182Y-92.323
X119.27Y-84.75
X119.65Y-89.95
X119.71Y-92.973
X119.736Y-96.23
X121.0Y-86.7
X121.116Y-84.901
X121.522Y-95.5
X122.12Y-91.65
X122.15Y-90.85
X122.212Y-94.084
X122.25Y-82.95
X122.845Y-85.966
X122.936Y-85.05
X122.943Y-87.621
X123.2Y-92.5
X123.271Y-88.295
X123.3Y-89.864
X123.379Y-95.785
X123.5Y-97.5
X123.608Y-93.671
X124.386Y-84.861
X124.53Y-87.584
X124.73Y-96.311
X124.75Y-85.816
X124.798Y-94.31
X125.171Y-93.091
X125.363Y-87.737
X125.55Y-97.963
X125.689Y-96.4
X126.086Y-89.638
X127.093Y-82.75
X127.6Y-92.8
X127.837Y-95.11
X128.205Y-86.9
X129.0Y-95.65
X129.2Y-97.75
X129.711Y-83.289
X131.01Y-96.5
T2
X110.806Y-86.581
X118.306Y-86.581
T3
X125.306Y-90.747
X127.846Y-90.747
X130.386Y-90.747
T4
X82.34Y-81.809
X84.88Y-81.809
X87.42Y-81.809
X89.96Y-81.809
X101.56Y-81.876
X104.1Y-81.876
X106.64Y-81.876
X109.18Y-81.876
X115.565Y-81.831
X115.588Y-99.65
X118.105Y-81.831
X118.128Y-99.65
X120.645Y-81.831
X120.668Y-99.65
X123.185Y-81.831
X123.208Y-99.65
X125.725Y-81.831
X125.748Y-99.65
X127.655Y-85.217
X128.265Y-81.831
X128.288Y-99.65
X130.195Y-85.217
X130.805Y-81.831
X130.828Y-99.65
T5
X94.996Y-97.765
X95.631Y-83.795
X99.441Y-87.922
X99.441Y-93.637
X100.076Y-90.78
T6
X83.566Y-99.035
X92.456Y-86.335
X92.456Y-95.225
M30
