G04 #@! TF.GenerationSoftware,KiCad,Pcbnew,10.0.3*
G04 #@! TF.CreationDate,2026-07-10T21:25:50-07:00*
G04 #@! TF.ProjectId,scramble_hat,73637261-6d62-46c6-955f-6861742e6b69,rev?*
G04 #@! TF.SameCoordinates,Original*
G04 #@! TF.FileFunction,Copper,L3,Inr*
G04 #@! TF.FilePolarity,Positive*
%FSLAX46Y46*%
G04 Gerber Fmt 4.6, Leading zero omitted, Abs format (unit mm)*
G04 Created by KiCad (PCBNEW 10.0.3) date 2026-07-10 21:25:50*
%MOMM*%
%LPD*%
G01*
G04 APERTURE LIST*
G04 #@! TA.AperFunction,ComponentPad*
%ADD10R,1.700000X1.700000*%
G04 #@! TD*
G04 #@! TA.AperFunction,ComponentPad*
%ADD11C,1.700000*%
G04 #@! TD*
G04 #@! TA.AperFunction,ComponentPad*
%ADD12C,1.600000*%
G04 #@! TD*
G04 #@! TA.AperFunction,ComponentPad*
%ADD13C,2.900000*%
G04 #@! TD*
G04 #@! TA.AperFunction,ComponentPad*
%ADD14C,2.700000*%
G04 #@! TD*
G04 #@! TA.AperFunction,ComponentPad*
%ADD15C,3.200000*%
G04 #@! TD*
G04 #@! TA.AperFunction,ComponentPad*
%ADD16C,3.400000*%
G04 #@! TD*
G04 #@! TA.AperFunction,ComponentPad*
%ADD17O,1.600000X1.600000*%
G04 #@! TD*
G04 #@! TA.AperFunction,ViaPad*
%ADD18C,0.600000*%
G04 #@! TD*
G04 APERTURE END LIST*
D10*
G04 #@! TO.N,ASDOUT*
G04 #@! TO.C,J3*
X115570000Y-81915000D03*
D11*
G04 #@! TO.N,LRCK*
X118110000Y-81915000D03*
G04 #@! TO.N,AGND*
X120650000Y-81915000D03*
G04 #@! TO.N,DSDIN*
X123190000Y-81915000D03*
G04 #@! TO.N,BCLK*
X125730000Y-81915000D03*
G04 #@! TO.N,MCLK*
X128270000Y-81915000D03*
G04 #@! TO.N,PHANTOM_EN*
X130810000Y-81915000D03*
G04 #@! TD*
D10*
G04 #@! TO.N,AGND*
G04 #@! TO.C,J6*
X101500153Y-81924935D03*
D11*
G04 #@! TO.N,+3V3*
X104040153Y-81924935D03*
G04 #@! TO.N,SCL*
X106580153Y-81924935D03*
G04 #@! TO.N,SDA*
X109120153Y-81924935D03*
G04 #@! TD*
D10*
G04 #@! TO.N,+5V*
G04 #@! TO.C,J4*
X115570000Y-99491800D03*
D11*
G04 #@! TO.N,unconnected-(J4-Pin_2-Pad2)*
X118110000Y-99491800D03*
G04 #@! TO.N,AGND*
X120650000Y-99491800D03*
G04 #@! TO.N,unconnected-(J4-Pin_4-Pad4)*
X123190000Y-99491800D03*
G04 #@! TO.N,+3V3*
X125730000Y-99491800D03*
G04 #@! TO.N,SCL*
X128270000Y-99491800D03*
G04 #@! TO.N,SDA*
X130810000Y-99491800D03*
G04 #@! TD*
D10*
G04 #@! TO.N,V_PoE*
G04 #@! TO.C,J5*
X127655400Y-85217000D03*
D11*
G04 #@! TO.N,PGND*
X130195400Y-85217000D03*
G04 #@! TD*
D12*
G04 #@! TO.N,PGND*
G04 #@! TO.C,C19*
X110805869Y-86581258D03*
G04 #@! TO.N,AGND*
X118305869Y-86581258D03*
G04 #@! TD*
D13*
G04 #@! TO.N,PGND*
G04 #@! TO.C,J1*
X94996000Y-97764600D03*
G04 #@! TO.N,XLR2_HOT*
X95631000Y-83794600D03*
D14*
G04 #@! TO.N,XLR3_COLD*
X100076000Y-90779600D03*
D15*
G04 #@! TO.N,PGND*
X83566000Y-99034600D03*
D14*
G04 #@! TO.N,unconnected-(J1-JACK_R-PadR)*
X99441000Y-87922100D03*
G04 #@! TO.N,PGND*
X99441000Y-93637100D03*
D16*
G04 #@! TO.N,unconnected-(J1-JACK_T-PadT)*
X92456000Y-95224600D03*
X92456000Y-86334600D03*
G04 #@! TD*
D17*
G04 #@! TO.N,+3V3*
G04 #@! TO.C,SW1*
X125349000Y-90779600D03*
D12*
G04 #@! TO.N,PHANTOM_SW*
X127889000Y-90779600D03*
D17*
G04 #@! TO.N,AGND*
X130429000Y-90779600D03*
G04 #@! TD*
D18*
G04 #@! TO.N,MIC1N*
X112850000Y-89950000D03*
X106136078Y-84208198D03*
X116998000Y-89899400D03*
G04 #@! TO.N,AGND*
X121927231Y-88750000D03*
X117729000Y-93827600D03*
X113614200Y-91617800D03*
X122845330Y-85966459D03*
X118730000Y-89000000D03*
X124750000Y-85815867D03*
X127000000Y-83210400D03*
X116273000Y-92287000D03*
X116137600Y-86959522D03*
X113800800Y-96672400D03*
X107288128Y-85442625D03*
X121005600Y-95774600D03*
X123351201Y-95772636D03*
G04 #@! TO.N,ROUTP*
X114372087Y-94072800D03*
G04 #@! TO.N,V_PHANTOM*
X103400000Y-90600000D03*
X127867007Y-92687570D03*
X112765200Y-87964039D03*
X128291091Y-89418909D03*
X116100000Y-87869909D03*
G04 #@! TO.N,PHANTOM_LED*
X128950000Y-93650000D03*
G04 #@! TO.N,MIC2_RAW*
X109203200Y-99358200D03*
X117271800Y-96545400D03*
G04 #@! TO.N,ASDOUT*
X114866961Y-94732113D03*
X123500000Y-97500000D03*
X114302909Y-97443200D03*
G04 #@! TO.N,LRCK*
X114805437Y-95538530D03*
X121919220Y-93760201D03*
G04 #@! TO.N,DSDIN*
X114992064Y-96576720D03*
X124798000Y-94310200D03*
G04 #@! TO.N,BCLK*
X125171200Y-93091000D03*
X117119400Y-94673000D03*
G04 #@! TO.N,MCLK*
X119354600Y-98171000D03*
X119735600Y-95885000D03*
X125550000Y-97963300D03*
G04 #@! TO.N,+5V*
X123607791Y-93670774D03*
X120680029Y-86881584D03*
X124386400Y-84861400D03*
X120960000Y-84901019D03*
G04 #@! TO.N,+3V3_A*
X122936000Y-85050000D03*
G04 #@! TO.N,+3V3*
X118541800Y-93811000D03*
X119270000Y-84750000D03*
X114200000Y-83100000D03*
X131010000Y-96500000D03*
G04 #@! TO.N,SCL*
X124730000Y-96310865D03*
X122057397Y-91847767D03*
X122942602Y-87620889D03*
X129550000Y-100250000D03*
X116800000Y-84225155D03*
X124530000Y-87583885D03*
X117900000Y-84400000D03*
X119181543Y-92322732D03*
X129200000Y-97750000D03*
G04 #@! TO.N,SDA*
X125200000Y-88022699D03*
X118650750Y-91575000D03*
X125374722Y-95882923D03*
X123271024Y-88295161D03*
X122200000Y-91100000D03*
X117900000Y-83600000D03*
X116327509Y-83450001D03*
G04 #@! TO.N,OK1_COLLECTOR*
X102903198Y-85426598D03*
G04 #@! TO.N,Q1_GATE*
X96799400Y-89789000D03*
X102446094Y-86690869D03*
G04 #@! TO.N,V_PoE*
X124510800Y-100330000D03*
X127450000Y-96950000D03*
G04 #@! TO.N,PGND*
X127100000Y-89008248D03*
X88976200Y-88646000D03*
X88000000Y-82000000D03*
X100000000Y-84750000D03*
G04 #@! TO.N,V_FILT*
X103350000Y-83400000D03*
X98221800Y-83743800D03*
X97100000Y-86300000D03*
X97078800Y-91668600D03*
X109195010Y-87200138D03*
X100050000Y-83350000D03*
X110159800Y-84433200D03*
G04 #@! TO.N,XLR2_HOT*
X95834200Y-88108800D03*
G04 #@! TO.N,XLR3_COLD*
X92659200Y-83307000D03*
G04 #@! TO.N,LOUTP*
X113080800Y-94513400D03*
G04 #@! TO.N,OK1_LED_A*
X106132152Y-88920340D03*
X107340400Y-88341200D03*
G04 #@! TO.N,DACVREF*
X123200000Y-92500000D03*
X113841755Y-93445555D03*
G04 #@! TO.N,MIC1P*
X117703600Y-90449400D03*
X112416502Y-90596703D03*
X95834200Y-95194200D03*
X108051600Y-93980000D03*
G04 #@! TO.N,ADCVREF*
X115548000Y-89594600D03*
X118527642Y-90239407D03*
G04 #@! TO.N,PHANTOM_SW*
X112081400Y-91389200D03*
G04 #@! TO.N,AD0*
X119640810Y-90848990D03*
X124178989Y-89122699D03*
G04 #@! TO.N,VMID*
X112943450Y-92293250D03*
X119710200Y-92972800D03*
G04 #@! TO.N,MIC2P*
X108051600Y-95529400D03*
X111264092Y-88643489D03*
G04 #@! TO.N,MIC2N*
X111962600Y-92760200D03*
X112003227Y-88770701D03*
G04 #@! TD*
G04 #@! TA.AperFunction,Conductor*
G04 #@! TO.N,+3V3*
G36*
X126845270Y-100253517D02*
G01*
X126845270Y-100253516D01*
X126884622Y-100199354D01*
X126981095Y-100010017D01*
X127038343Y-99833826D01*
X127077780Y-99776151D01*
X127142139Y-99748952D01*
X127210985Y-99760866D01*
X127262461Y-99808110D01*
X127270835Y-99824691D01*
X127339058Y-99989396D01*
X127454024Y-100161457D01*
X127600342Y-100307775D01*
X127600345Y-100307777D01*
X127772402Y-100422741D01*
X127963580Y-100501930D01*
X128067794Y-100522659D01*
X128129704Y-100555043D01*
X128164278Y-100615759D01*
X128160539Y-100685528D01*
X128119673Y-100742200D01*
X128054655Y-100767782D01*
X128043572Y-100768276D01*
X126613169Y-100767931D01*
X126546134Y-100748230D01*
X126500392Y-100695415D01*
X126489581Y-100634201D01*
X126491716Y-100607069D01*
X125859408Y-99974762D01*
X125922993Y-99957725D01*
X126037007Y-99891899D01*
X126130099Y-99798807D01*
X126195925Y-99684793D01*
X126212962Y-99621208D01*
X126845270Y-100253517D01*
G37*
G04 #@! TD.AperFunction*
G04 #@! TA.AperFunction,Conductor*
G36*
X130405228Y-80734763D02*
G01*
X130451021Y-80787534D01*
X130461016Y-80856685D01*
X130432038Y-80920262D01*
X130385719Y-80953688D01*
X130312406Y-80984056D01*
X130140342Y-81099024D01*
X129994024Y-81245342D01*
X129879058Y-81417403D01*
X129799870Y-81608579D01*
X129799868Y-81608587D01*
X129759500Y-81811530D01*
X129759500Y-82018469D01*
X129799868Y-82221412D01*
X129799870Y-82221420D01*
X129879058Y-82412596D01*
X129994024Y-82584657D01*
X130140342Y-82730975D01*
X130140345Y-82730977D01*
X130312402Y-82845941D01*
X130503580Y-82925130D01*
X130648052Y-82953867D01*
X130706530Y-82965499D01*
X130706534Y-82965500D01*
X130706535Y-82965500D01*
X130913466Y-82965500D01*
X130913467Y-82965499D01*
X131116420Y-82925130D01*
X131307598Y-82845941D01*
X131479655Y-82730977D01*
X131500732Y-82709900D01*
X131571019Y-82639614D01*
X131632342Y-82606129D01*
X131702034Y-82611113D01*
X131757967Y-82652985D01*
X131782384Y-82718449D01*
X131782700Y-82727295D01*
X131782700Y-98679505D01*
X131763015Y-98746544D01*
X131710211Y-98792299D01*
X131641053Y-98802243D01*
X131577497Y-98773218D01*
X131571019Y-98767186D01*
X131479657Y-98675824D01*
X131311655Y-98563570D01*
X131307598Y-98560859D01*
X131231169Y-98529201D01*
X131116420Y-98481670D01*
X131116412Y-98481668D01*
X130913469Y-98441300D01*
X130913465Y-98441300D01*
X130706535Y-98441300D01*
X130706530Y-98441300D01*
X130503587Y-98481668D01*
X130503579Y-98481670D01*
X130312403Y-98560858D01*
X130140342Y-98675824D01*
X129994024Y-98822142D01*
X129879058Y-98994203D01*
X129799870Y-99185379D01*
X129799868Y-99185387D01*
X129759500Y-99388330D01*
X129759500Y-99595266D01*
X129761108Y-99603353D01*
X129754876Y-99672945D01*
X129712009Y-99728119D01*
X129646118Y-99751360D01*
X129642938Y-99751489D01*
X129625161Y-99751983D01*
X129615892Y-99749500D01*
X129484108Y-99749500D01*
X129457421Y-99756650D01*
X129442851Y-99757056D01*
X129422587Y-99751713D01*
X129401640Y-99751214D01*
X129389484Y-99742986D01*
X129375290Y-99739244D01*
X129361132Y-99723795D01*
X129343779Y-99712049D01*
X129338001Y-99698554D01*
X129328084Y-99687733D01*
X129324526Y-99667083D01*
X129316278Y-99647819D01*
X129317183Y-99624461D01*
X129316221Y-99618877D01*
X129317518Y-99615813D01*
X129317786Y-99608908D01*
X129318891Y-99603353D01*
X129320500Y-99595265D01*
X129320500Y-99388335D01*
X129280130Y-99185380D01*
X129200941Y-98994202D01*
X129085977Y-98822145D01*
X129085975Y-98822142D01*
X128939657Y-98675824D01*
X128771655Y-98563570D01*
X128767598Y-98560859D01*
X128691169Y-98529201D01*
X128576420Y-98481670D01*
X128576412Y-98481668D01*
X128373469Y-98441300D01*
X128373465Y-98441300D01*
X128166535Y-98441300D01*
X128166530Y-98441300D01*
X127963587Y-98481668D01*
X127963579Y-98481670D01*
X127772403Y-98560858D01*
X127600342Y-98675824D01*
X127454024Y-98822142D01*
X127339057Y-98994203D01*
X127270835Y-99158908D01*
X127226994Y-99213311D01*
X127160700Y-99235376D01*
X127093000Y-99218097D01*
X127045390Y-99166959D01*
X127038343Y-99149773D01*
X126981095Y-98973582D01*
X126884624Y-98784249D01*
X126845270Y-98730082D01*
X126845269Y-98730082D01*
X126212962Y-99362390D01*
X126195925Y-99298807D01*
X126130099Y-99184793D01*
X126037007Y-99091701D01*
X125922993Y-99025875D01*
X125859409Y-99008837D01*
X126491716Y-98376528D01*
X126437550Y-98337175D01*
X126248217Y-98240704D01*
X126126111Y-98201030D01*
X126068436Y-98161593D01*
X126041237Y-98097234D01*
X126044654Y-98051007D01*
X126050500Y-98029192D01*
X126050500Y-97897408D01*
X126016392Y-97770114D01*
X126016389Y-97770108D01*
X125997841Y-97737982D01*
X125997840Y-97737981D01*
X125966736Y-97684108D01*
X128699500Y-97684108D01*
X128699500Y-97815892D01*
X128712306Y-97863686D01*
X128733608Y-97943187D01*
X128766554Y-98000250D01*
X128799500Y-98057314D01*
X128892686Y-98150500D01*
X128991521Y-98207563D01*
X129004250Y-98214912D01*
X129006814Y-98216392D01*
X129134108Y-98250500D01*
X129134110Y-98250500D01*
X129265890Y-98250500D01*
X129265892Y-98250500D01*
X129393186Y-98216392D01*
X129507314Y-98150500D01*
X129600500Y-98057314D01*
X129666392Y-97943186D01*
X129700500Y-97815892D01*
X129700500Y-97684108D01*
X129666392Y-97556814D01*
X129600500Y-97442686D01*
X129507314Y-97349500D01*
X129433380Y-97306814D01*
X129393187Y-97283608D01*
X129329539Y-97266554D01*
X129265892Y-97249500D01*
X129134108Y-97249500D01*
X129006812Y-97283608D01*
X128892686Y-97349500D01*
X128892683Y-97349502D01*
X128799502Y-97442683D01*
X128799500Y-97442686D01*
X128733608Y-97556812D01*
X128707036Y-97655983D01*
X128699500Y-97684108D01*
X125966736Y-97684108D01*
X125950500Y-97655986D01*
X125857314Y-97562800D01*
X125800250Y-97529854D01*
X125743187Y-97496908D01*
X125679539Y-97479854D01*
X125615892Y-97462800D01*
X125484108Y-97462800D01*
X125356812Y-97496908D01*
X125242686Y-97562800D01*
X125242683Y-97562802D01*
X125149502Y-97655983D01*
X125149500Y-97655986D01*
X125083608Y-97770112D01*
X125058536Y-97863686D01*
X125049500Y-97897408D01*
X125049500Y-98029192D01*
X125082004Y-98150500D01*
X125083609Y-98156488D01*
X125083610Y-98156491D01*
X125084980Y-98158864D01*
X125085527Y-98161120D01*
X125086720Y-98164000D01*
X125086270Y-98164185D01*
X125101451Y-98226764D01*
X125080266Y-98290389D01*
X125000272Y-98408518D01*
X125600591Y-99008837D01*
X125537007Y-99025875D01*
X125422993Y-99091701D01*
X125329901Y-99184793D01*
X125264075Y-99298807D01*
X125247037Y-99362391D01*
X124614728Y-98730082D01*
X124614727Y-98730082D01*
X124575380Y-98784239D01*
X124478905Y-98973581D01*
X124421656Y-99149774D01*
X124382218Y-99207449D01*
X124317859Y-99234647D01*
X124249013Y-99222732D01*
X124197537Y-99175488D01*
X124189164Y-99158907D01*
X124187806Y-99155629D01*
X124161327Y-99091701D01*
X124120943Y-98994205D01*
X124005975Y-98822142D01*
X123859657Y-98675824D01*
X123691655Y-98563570D01*
X123687598Y-98560859D01*
X123496420Y-98481670D01*
X123496412Y-98481668D01*
X123293469Y-98441300D01*
X123293465Y-98441300D01*
X123086535Y-98441300D01*
X123086530Y-98441300D01*
X122883587Y-98481668D01*
X122883579Y-98481670D01*
X122692403Y-98560858D01*
X122520342Y-98675824D01*
X122374024Y-98822142D01*
X122259058Y-98994203D01*
X122179870Y-99185379D01*
X122179868Y-99185387D01*
X122139500Y-99388330D01*
X122139500Y-99595269D01*
X122179868Y-99798212D01*
X122179870Y-99798220D01*
X122259058Y-99989396D01*
X122374024Y-100161457D01*
X122520342Y-100307775D01*
X122520345Y-100307777D01*
X122692402Y-100422741D01*
X122883580Y-100501930D01*
X122934052Y-100511969D01*
X122981632Y-100521434D01*
X123043543Y-100553818D01*
X123078117Y-100614534D01*
X123074378Y-100684304D01*
X123033512Y-100740976D01*
X122968494Y-100766557D01*
X122957411Y-100767051D01*
X120885040Y-100766551D01*
X120818005Y-100746850D01*
X120772263Y-100694035D01*
X120762336Y-100624874D01*
X120791377Y-100561326D01*
X120850164Y-100523565D01*
X120860859Y-100520938D01*
X120956420Y-100501930D01*
X121147598Y-100422741D01*
X121319655Y-100307777D01*
X121465977Y-100161455D01*
X121580941Y-99989398D01*
X121660130Y-99798220D01*
X121700500Y-99595265D01*
X121700500Y-99388335D01*
X121660130Y-99185380D01*
X121580941Y-98994202D01*
X121465977Y-98822145D01*
X121465975Y-98822142D01*
X121319657Y-98675824D01*
X121151655Y-98563570D01*
X121147598Y-98560859D01*
X121071169Y-98529201D01*
X120956420Y-98481670D01*
X120956412Y-98481668D01*
X120753469Y-98441300D01*
X120753465Y-98441300D01*
X120546535Y-98441300D01*
X120546530Y-98441300D01*
X120343587Y-98481668D01*
X120343579Y-98481670D01*
X120152403Y-98560858D01*
X119980342Y-98675824D01*
X119834024Y-98822142D01*
X119719058Y-98994203D01*
X119639870Y-99185379D01*
X119639868Y-99185387D01*
X119599500Y-99388330D01*
X119599500Y-99595269D01*
X119639868Y-99798212D01*
X119639870Y-99798220D01*
X119719058Y-99989396D01*
X119834024Y-100161457D01*
X119980342Y-100307775D01*
X119980345Y-100307777D01*
X120152402Y-100422741D01*
X120343580Y-100501930D01*
X120380655Y-100509304D01*
X120438549Y-100520821D01*
X120500460Y-100553206D01*
X120535034Y-100613921D01*
X120531295Y-100683691D01*
X120490428Y-100740363D01*
X120425410Y-100765944D01*
X120414328Y-100766438D01*
X118348115Y-100765939D01*
X118281080Y-100746238D01*
X118235338Y-100693423D01*
X118225411Y-100624262D01*
X118254452Y-100560714D01*
X118313239Y-100522953D01*
X118323926Y-100520327D01*
X118416420Y-100501930D01*
X118607598Y-100422741D01*
X118779655Y-100307777D01*
X118925977Y-100161455D01*
X119040941Y-99989398D01*
X119120130Y-99798220D01*
X119160500Y-99595265D01*
X119160500Y-99388335D01*
X119120130Y-99185380D01*
X119040941Y-98994202D01*
X118925977Y-98822145D01*
X118925975Y-98822142D01*
X118779657Y-98675824D01*
X118611655Y-98563570D01*
X118607598Y-98560859D01*
X118531169Y-98529201D01*
X118416420Y-98481670D01*
X118416412Y-98481668D01*
X118213469Y-98441300D01*
X118213465Y-98441300D01*
X118006535Y-98441300D01*
X118006530Y-98441300D01*
X117803587Y-98481668D01*
X117803579Y-98481670D01*
X117612403Y-98560858D01*
X117440342Y-98675824D01*
X117294024Y-98822142D01*
X117179058Y-98994203D01*
X117099870Y-99185379D01*
X117099868Y-99185387D01*
X117059500Y-99388330D01*
X117059500Y-99595269D01*
X117099868Y-99798212D01*
X117099870Y-99798220D01*
X117179058Y-99989396D01*
X117294024Y-100161457D01*
X117440342Y-100307775D01*
X117440345Y-100307777D01*
X117612402Y-100422741D01*
X117803580Y-100501930D01*
X117895469Y-100520207D01*
X117957377Y-100552591D01*
X117991952Y-100613306D01*
X117988213Y-100683076D01*
X117947347Y-100739748D01*
X117882329Y-100765330D01*
X117871246Y-100765824D01*
X116554636Y-100765507D01*
X116487601Y-100745806D01*
X116441859Y-100692991D01*
X116431932Y-100623830D01*
X116460973Y-100560282D01*
X116489562Y-100539675D01*
X116488077Y-100537452D01*
X116564552Y-100486352D01*
X116607056Y-100422741D01*
X116608867Y-100420031D01*
X116608867Y-100420029D01*
X116608868Y-100420029D01*
X116620499Y-100361552D01*
X116620500Y-100361550D01*
X116620500Y-98622049D01*
X116620499Y-98622047D01*
X116608868Y-98563570D01*
X116608867Y-98563569D01*
X116564552Y-98497247D01*
X116498230Y-98452932D01*
X116498229Y-98452931D01*
X116439752Y-98441300D01*
X116439748Y-98441300D01*
X114700252Y-98441300D01*
X114700247Y-98441300D01*
X114641770Y-98452931D01*
X114641769Y-98452932D01*
X114575447Y-98497247D01*
X114531132Y-98563569D01*
X114531131Y-98563570D01*
X114519500Y-98622047D01*
X114519500Y-100361552D01*
X114531131Y-100420029D01*
X114531132Y-100420030D01*
X114575447Y-100486352D01*
X114651923Y-100537452D01*
X114649592Y-100540939D01*
X114686042Y-100570312D01*
X114708107Y-100636606D01*
X114690828Y-100704305D01*
X114639691Y-100751916D01*
X114584156Y-100765032D01*
X114130473Y-100764922D01*
X114063438Y-100745221D01*
X114017696Y-100692406D01*
X114007769Y-100623245D01*
X114020016Y-100584633D01*
X114132241Y-100364379D01*
X114210090Y-100124785D01*
X114249500Y-99875962D01*
X114249500Y-99624038D01*
X114210090Y-99375215D01*
X114132241Y-99135621D01*
X114132239Y-99135618D01*
X114132239Y-99135616D01*
X114090747Y-99054184D01*
X114017870Y-98911155D01*
X113953201Y-98822145D01*
X113869798Y-98707350D01*
X113869794Y-98707345D01*
X113691654Y-98529205D01*
X113691649Y-98529201D01*
X113487848Y-98381132D01*
X113487847Y-98381131D01*
X113487845Y-98381130D01*
X113417747Y-98345413D01*
X113263383Y-98266760D01*
X113103811Y-98214912D01*
X113085681Y-98209021D01*
X113028006Y-98169583D01*
X113000808Y-98105224D01*
X113000801Y-98105108D01*
X118854100Y-98105108D01*
X118854100Y-98236892D01*
X118857746Y-98250499D01*
X118888208Y-98364187D01*
X118913803Y-98408518D01*
X118954100Y-98478314D01*
X119047286Y-98571500D01*
X119161414Y-98637392D01*
X119288708Y-98671500D01*
X119288710Y-98671500D01*
X119420490Y-98671500D01*
X119420492Y-98671500D01*
X119547786Y-98637392D01*
X119661914Y-98571500D01*
X119755100Y-98478314D01*
X119820992Y-98364186D01*
X119855100Y-98236892D01*
X119855100Y-98105108D01*
X119820992Y-97977814D01*
X119814397Y-97966392D01*
X119801296Y-97943700D01*
X119755100Y-97863686D01*
X119661914Y-97770500D01*
X119604850Y-97737554D01*
X119547787Y-97704608D01*
X119484139Y-97687554D01*
X119420492Y-97670500D01*
X119288708Y-97670500D01*
X119161412Y-97704608D01*
X119047286Y-97770500D01*
X119047283Y-97770502D01*
X118954102Y-97863683D01*
X118954100Y-97863686D01*
X118888208Y-97977812D01*
X118866906Y-98057314D01*
X118854100Y-98105108D01*
X113000801Y-98105108D01*
X113000000Y-98091090D01*
X113000000Y-96606508D01*
X113300300Y-96606508D01*
X113300300Y-96738292D01*
X113305263Y-96756814D01*
X113334408Y-96865587D01*
X113367354Y-96922650D01*
X113400300Y-96979714D01*
X113493486Y-97072900D01*
X113607614Y-97138792D01*
X113729216Y-97171374D01*
X113788874Y-97207737D01*
X113819404Y-97270584D01*
X113816896Y-97323240D01*
X113802409Y-97377306D01*
X113802409Y-97509091D01*
X113836517Y-97636387D01*
X113869311Y-97693186D01*
X113902409Y-97750514D01*
X113995595Y-97843700D01*
X114109723Y-97909592D01*
X114237017Y-97943700D01*
X114237019Y-97943700D01*
X114368799Y-97943700D01*
X114368801Y-97943700D01*
X114496095Y-97909592D01*
X114610223Y-97843700D01*
X114703409Y-97750514D01*
X114769301Y-97636386D01*
X114803409Y-97509092D01*
X114803409Y-97434108D01*
X122999500Y-97434108D01*
X122999500Y-97565891D01*
X123033608Y-97693187D01*
X123059470Y-97737981D01*
X123099500Y-97807314D01*
X123192686Y-97900500D01*
X123306814Y-97966392D01*
X123434108Y-98000500D01*
X123434110Y-98000500D01*
X123565890Y-98000500D01*
X123565892Y-98000500D01*
X123693186Y-97966392D01*
X123807314Y-97900500D01*
X123900500Y-97807314D01*
X123966392Y-97693186D01*
X124000500Y-97565892D01*
X124000500Y-97434108D01*
X123966392Y-97306814D01*
X123900500Y-97192686D01*
X123807314Y-97099500D01*
X123750250Y-97066554D01*
X123693187Y-97033608D01*
X123611763Y-97011791D01*
X123565892Y-96999500D01*
X123434108Y-96999500D01*
X123306812Y-97033608D01*
X123192686Y-97099500D01*
X123192683Y-97099502D01*
X123099502Y-97192683D01*
X123099500Y-97192686D01*
X123033608Y-97306812D01*
X122999500Y-97434108D01*
X114803409Y-97434108D01*
X114803409Y-97377308D01*
X114769301Y-97250014D01*
X114762206Y-97237726D01*
X114758169Y-97218044D01*
X114759470Y-97202452D01*
X114755778Y-97187246D01*
X114762316Y-97168344D01*
X114763979Y-97148417D01*
X114773503Y-97136003D01*
X114778619Y-97121215D01*
X114794338Y-97108848D01*
X114806511Y-97092984D01*
X114821233Y-97087690D01*
X114833533Y-97078015D01*
X114853442Y-97076110D01*
X114872260Y-97069345D01*
X114887508Y-97072851D01*
X114903085Y-97071362D01*
X114911717Y-97073347D01*
X114926172Y-97077220D01*
X114926174Y-97077220D01*
X115057954Y-97077220D01*
X115057956Y-97077220D01*
X115185250Y-97043112D01*
X115299378Y-96977220D01*
X115392564Y-96884034D01*
X115458456Y-96769906D01*
X115492564Y-96642612D01*
X115492564Y-96510828D01*
X115484172Y-96479508D01*
X116771300Y-96479508D01*
X116771300Y-96611292D01*
X116773146Y-96618181D01*
X116805408Y-96738587D01*
X116827734Y-96777256D01*
X116871300Y-96852714D01*
X116964486Y-96945900D01*
X117078614Y-97011792D01*
X117205908Y-97045900D01*
X117205910Y-97045900D01*
X117337690Y-97045900D01*
X117337692Y-97045900D01*
X117464986Y-97011792D01*
X117579114Y-96945900D01*
X117640906Y-96884108D01*
X126949500Y-96884108D01*
X126949500Y-97015891D01*
X126983608Y-97143187D01*
X126999882Y-97171373D01*
X127049500Y-97257314D01*
X127142686Y-97350500D01*
X127256814Y-97416392D01*
X127384108Y-97450500D01*
X127384110Y-97450500D01*
X127515890Y-97450500D01*
X127515892Y-97450500D01*
X127643186Y-97416392D01*
X127757314Y-97350500D01*
X127850500Y-97257314D01*
X127916392Y-97143186D01*
X127950500Y-97015892D01*
X127950500Y-96884108D01*
X127916392Y-96756814D01*
X127850500Y-96642686D01*
X127757314Y-96549500D01*
X127678596Y-96504052D01*
X127643187Y-96483608D01*
X127579539Y-96466554D01*
X127515892Y-96449500D01*
X127384108Y-96449500D01*
X127256812Y-96483608D01*
X127142686Y-96549500D01*
X127142683Y-96549502D01*
X127049502Y-96642683D01*
X127049500Y-96642686D01*
X126983608Y-96756812D01*
X126949500Y-96884108D01*
X117640906Y-96884108D01*
X117672300Y-96852714D01*
X117738192Y-96738586D01*
X117772300Y-96611292D01*
X117772300Y-96479508D01*
X117738192Y-96352214D01*
X117737717Y-96351392D01*
X117729363Y-96336921D01*
X117672300Y-96238086D01*
X117579114Y-96144900D01*
X117510726Y-96105416D01*
X117464987Y-96079008D01*
X117401339Y-96061954D01*
X117337692Y-96044900D01*
X117205908Y-96044900D01*
X117078612Y-96079008D01*
X116964486Y-96144900D01*
X116964483Y-96144902D01*
X116871302Y-96238083D01*
X116871300Y-96238086D01*
X116805408Y-96352212D01*
X116774464Y-96467700D01*
X116771300Y-96479508D01*
X115484172Y-96479508D01*
X115458456Y-96383534D01*
X115392564Y-96269406D01*
X115299378Y-96176220D01*
X115221424Y-96131213D01*
X115185247Y-96110326D01*
X115184314Y-96109940D01*
X115183646Y-96109402D01*
X115178211Y-96106264D01*
X115178700Y-96105416D01*
X115129910Y-96066101D01*
X115107843Y-95999807D01*
X115125120Y-95932107D01*
X115132354Y-95921259D01*
X115137722Y-95914058D01*
X115205937Y-95845844D01*
X115221373Y-95819108D01*
X119235100Y-95819108D01*
X119235100Y-95950892D01*
X119239101Y-95965823D01*
X119269208Y-96078187D01*
X119287541Y-96109940D01*
X119335100Y-96192314D01*
X119428286Y-96285500D01*
X119527121Y-96342563D01*
X119538816Y-96349315D01*
X119542414Y-96351392D01*
X119669708Y-96385500D01*
X119669710Y-96385500D01*
X119801490Y-96385500D01*
X119801492Y-96385500D01*
X119928786Y-96351392D01*
X120042914Y-96285500D01*
X120136100Y-96192314D01*
X120201992Y-96078186D01*
X120236100Y-95950892D01*
X120236100Y-95819108D01*
X120206519Y-95708708D01*
X120505100Y-95708708D01*
X120505100Y-95840491D01*
X120539208Y-95967787D01*
X120560870Y-96005306D01*
X120605100Y-96081914D01*
X120698286Y-96175100D01*
X120797121Y-96232163D01*
X120809010Y-96239027D01*
X120812414Y-96240992D01*
X120939708Y-96275100D01*
X120939710Y-96275100D01*
X121071490Y-96275100D01*
X121071492Y-96275100D01*
X121198786Y-96240992D01*
X121312914Y-96175100D01*
X121406100Y-96081914D01*
X121471992Y-95967786D01*
X121506100Y-95840492D01*
X121506100Y-95708708D01*
X121505574Y-95706744D01*
X122850701Y-95706744D01*
X122850701Y-95838528D01*
X122852662Y-95845846D01*
X122884809Y-95965823D01*
X122885943Y-95967787D01*
X122950701Y-96079950D01*
X123043887Y-96173136D01*
X123158015Y-96239028D01*
X123285309Y-96273136D01*
X123285311Y-96273136D01*
X123417091Y-96273136D01*
X123417093Y-96273136D01*
X123522200Y-96244973D01*
X124229500Y-96244973D01*
X124229500Y-96376757D01*
X124231843Y-96385500D01*
X124263608Y-96504052D01*
X124277065Y-96527360D01*
X124329500Y-96618179D01*
X124422686Y-96711365D01*
X124501406Y-96756814D01*
X124536810Y-96777255D01*
X124536814Y-96777257D01*
X124664108Y-96811365D01*
X124664110Y-96811365D01*
X124795890Y-96811365D01*
X124795892Y-96811365D01*
X124923186Y-96777257D01*
X125037314Y-96711365D01*
X125130500Y-96618179D01*
X125196392Y-96504051D01*
X125204087Y-96475329D01*
X125240451Y-96415670D01*
X125303298Y-96385140D01*
X125323862Y-96383423D01*
X125440612Y-96383423D01*
X125440614Y-96383423D01*
X125567908Y-96349315D01*
X125682036Y-96283423D01*
X125775222Y-96190237D01*
X125841114Y-96076109D01*
X125875222Y-95948815D01*
X125875222Y-95817031D01*
X125841114Y-95689737D01*
X125775222Y-95575609D01*
X125682036Y-95482423D01*
X125624972Y-95449477D01*
X125567909Y-95416531D01*
X125504261Y-95399477D01*
X125440614Y-95382423D01*
X125308830Y-95382423D01*
X125181534Y-95416531D01*
X125067408Y-95482423D01*
X125067405Y-95482425D01*
X124974224Y-95575606D01*
X124974222Y-95575609D01*
X124908330Y-95689736D01*
X124908330Y-95689737D01*
X124903773Y-95706746D01*
X124900635Y-95718457D01*
X124864271Y-95778118D01*
X124801424Y-95808648D01*
X124780860Y-95810365D01*
X124664108Y-95810365D01*
X124536812Y-95844473D01*
X124422686Y-95910365D01*
X124422683Y-95910367D01*
X124329502Y-96003548D01*
X124329500Y-96003551D01*
X124263608Y-96117677D01*
X124239527Y-96207552D01*
X124229500Y-96244973D01*
X123522200Y-96244973D01*
X123544387Y-96239028D01*
X123658515Y-96173136D01*
X123751701Y-96079950D01*
X123817593Y-95965822D01*
X123851701Y-95838528D01*
X123851701Y-95706744D01*
X123817593Y-95579450D01*
X123815375Y-95575609D01*
X123808764Y-95564157D01*
X123751701Y-95465322D01*
X123658515Y-95372136D01*
X123601451Y-95339190D01*
X123544388Y-95306244D01*
X123480740Y-95289190D01*
X123417093Y-95272136D01*
X123285309Y-95272136D01*
X123158013Y-95306244D01*
X123043887Y-95372136D01*
X123043884Y-95372138D01*
X122950703Y-95465319D01*
X122950701Y-95465322D01*
X122884809Y-95579448D01*
X122855258Y-95689736D01*
X122850701Y-95706744D01*
X121505574Y-95706744D01*
X121471992Y-95581414D01*
X121468640Y-95575609D01*
X121463163Y-95566121D01*
X121406100Y-95467286D01*
X121312914Y-95374100D01*
X121255850Y-95341154D01*
X121198787Y-95308208D01*
X121135139Y-95291154D01*
X121071492Y-95274100D01*
X120939708Y-95274100D01*
X120812412Y-95308208D01*
X120698286Y-95374100D01*
X120698283Y-95374102D01*
X120605102Y-95467283D01*
X120605100Y-95467286D01*
X120539208Y-95581412D01*
X120505100Y-95708708D01*
X120206519Y-95708708D01*
X120201992Y-95691814D01*
X120136100Y-95577686D01*
X120042914Y-95484500D01*
X119985850Y-95451554D01*
X119928787Y-95418608D01*
X119865139Y-95401554D01*
X119801492Y-95384500D01*
X119669708Y-95384500D01*
X119542412Y-95418608D01*
X119428286Y-95484500D01*
X119428283Y-95484502D01*
X119335102Y-95577683D01*
X119335100Y-95577686D01*
X119269208Y-95691812D01*
X119255576Y-95742690D01*
X119235100Y-95819108D01*
X115221373Y-95819108D01*
X115271829Y-95731716D01*
X115305937Y-95604422D01*
X115305937Y-95472638D01*
X115271829Y-95345344D01*
X115205937Y-95231216D01*
X115205933Y-95231212D01*
X115205830Y-95231033D01*
X115189357Y-95163133D01*
X115212209Y-95097106D01*
X115225531Y-95081356D01*
X115267461Y-95039427D01*
X115333353Y-94925299D01*
X115367461Y-94798005D01*
X115367461Y-94666221D01*
X115351622Y-94607108D01*
X116618900Y-94607108D01*
X116618900Y-94738891D01*
X116653008Y-94866187D01*
X116680554Y-94913897D01*
X116718900Y-94980314D01*
X116812086Y-95073500D01*
X116926214Y-95139392D01*
X117053508Y-95173500D01*
X117053510Y-95173500D01*
X117185290Y-95173500D01*
X117185292Y-95173500D01*
X117312586Y-95139392D01*
X117426714Y-95073500D01*
X117519900Y-94980314D01*
X117585792Y-94866186D01*
X117619900Y-94738892D01*
X117619900Y-94607108D01*
X117586965Y-94484191D01*
X117588628Y-94414343D01*
X117627791Y-94356481D01*
X117692019Y-94328977D01*
X117706740Y-94328100D01*
X117794890Y-94328100D01*
X117794892Y-94328100D01*
X117922186Y-94293992D01*
X118036314Y-94228100D01*
X118129500Y-94134914D01*
X118195392Y-94020786D01*
X118229500Y-93893492D01*
X118229500Y-93761708D01*
X118211441Y-93694309D01*
X121418720Y-93694309D01*
X121418720Y-93826093D01*
X121424069Y-93846055D01*
X121452828Y-93953388D01*
X121467089Y-93978088D01*
X121518720Y-94067515D01*
X121611906Y-94160701D01*
X121726034Y-94226593D01*
X121853328Y-94260701D01*
X121853330Y-94260701D01*
X121985110Y-94260701D01*
X121985112Y-94260701D01*
X122046292Y-94244308D01*
X124297500Y-94244308D01*
X124297500Y-94376092D01*
X124298578Y-94380114D01*
X124331608Y-94503387D01*
X124364554Y-94560450D01*
X124397500Y-94617514D01*
X124490686Y-94710700D01*
X124604814Y-94776592D01*
X124732108Y-94810700D01*
X124732110Y-94810700D01*
X124863890Y-94810700D01*
X124863892Y-94810700D01*
X124991186Y-94776592D01*
X125105314Y-94710700D01*
X125198500Y-94617514D01*
X125264392Y-94503386D01*
X125298500Y-94376092D01*
X125298500Y-94244308D01*
X125264392Y-94117014D01*
X125198500Y-94002886D01*
X125105314Y-93909700D01*
X125026092Y-93863961D01*
X124991187Y-93843808D01*
X124925065Y-93826091D01*
X124863892Y-93809700D01*
X124732108Y-93809700D01*
X124604812Y-93843808D01*
X124490686Y-93909700D01*
X124490683Y-93909702D01*
X124397502Y-94002883D01*
X124397500Y-94002886D01*
X124331608Y-94117012D01*
X124302247Y-94226592D01*
X124297500Y-94244308D01*
X122046292Y-94244308D01*
X122112406Y-94226593D01*
X122226534Y-94160701D01*
X122319720Y-94067515D01*
X122385612Y-93953387D01*
X122419720Y-93826093D01*
X122419720Y-93694309D01*
X122395758Y-93604882D01*
X123107291Y-93604882D01*
X123107291Y-93736666D01*
X123115013Y-93765486D01*
X123141399Y-93863961D01*
X123158449Y-93893492D01*
X123207291Y-93978088D01*
X123300477Y-94071274D01*
X123379701Y-94117014D01*
X123414601Y-94137164D01*
X123414605Y-94137166D01*
X123541899Y-94171274D01*
X123541901Y-94171274D01*
X123673681Y-94171274D01*
X123673683Y-94171274D01*
X123800977Y-94137166D01*
X123915105Y-94071274D01*
X124008291Y-93978088D01*
X124074183Y-93863960D01*
X124108291Y-93736666D01*
X124108291Y-93604882D01*
X124074183Y-93477588D01*
X124008291Y-93363460D01*
X123915105Y-93270274D01*
X123839446Y-93226592D01*
X123800978Y-93204382D01*
X123737330Y-93187328D01*
X123673683Y-93170274D01*
X123541899Y-93170274D01*
X123519713Y-93176218D01*
X123519704Y-93176220D01*
X123414605Y-93204382D01*
X123376611Y-93226317D01*
X123376602Y-93226321D01*
X123300480Y-93270272D01*
X123300474Y-93270276D01*
X123207293Y-93363457D01*
X123207291Y-93363460D01*
X123141399Y-93477586D01*
X123129959Y-93520283D01*
X123107291Y-93604882D01*
X122395758Y-93604882D01*
X122385612Y-93567015D01*
X122319720Y-93452887D01*
X122226534Y-93359701D01*
X122169470Y-93326755D01*
X122112407Y-93293809D01*
X122048759Y-93276755D01*
X121985112Y-93259701D01*
X121853328Y-93259701D01*
X121726032Y-93293809D01*
X121611906Y-93359701D01*
X121611903Y-93359703D01*
X121518722Y-93452884D01*
X121518720Y-93452887D01*
X121452828Y-93567013D01*
X121433609Y-93638741D01*
X121418720Y-93694309D01*
X118211441Y-93694309D01*
X118195392Y-93634414D01*
X118129500Y-93520286D01*
X118036314Y-93427100D01*
X117979250Y-93394154D01*
X117922187Y-93361208D01*
X117853049Y-93342683D01*
X117794892Y-93327100D01*
X117663108Y-93327100D01*
X117535812Y-93361208D01*
X117421686Y-93427100D01*
X117421683Y-93427102D01*
X117328502Y-93520283D01*
X117328500Y-93520286D01*
X117262608Y-93634412D01*
X117240776Y-93715892D01*
X117228500Y-93761708D01*
X117228500Y-93893492D01*
X117258889Y-94006908D01*
X117261435Y-94016407D01*
X117259772Y-94086257D01*
X117220609Y-94144119D01*
X117156381Y-94171623D01*
X117141660Y-94172500D01*
X117053508Y-94172500D01*
X116926212Y-94206608D01*
X116812086Y-94272500D01*
X116812083Y-94272502D01*
X116718902Y-94365683D01*
X116718900Y-94365686D01*
X116653008Y-94479812D01*
X116618900Y-94607108D01*
X115351622Y-94607108D01*
X115333353Y-94538927D01*
X115267461Y-94424799D01*
X115174275Y-94331613D01*
X115060147Y-94265721D01*
X114964492Y-94240090D01*
X114904833Y-94203726D01*
X114874304Y-94140879D01*
X114872587Y-94120316D01*
X114872587Y-94006910D01*
X114872587Y-94006908D01*
X114838479Y-93879614D01*
X114772587Y-93765486D01*
X114679401Y-93672300D01*
X114565273Y-93606408D01*
X114437979Y-93572300D01*
X114434161Y-93571277D01*
X114374501Y-93534912D01*
X114343972Y-93472065D01*
X114342255Y-93451502D01*
X114342255Y-93379665D01*
X114342255Y-93379663D01*
X114308147Y-93252369D01*
X114242255Y-93138241D01*
X114149069Y-93045055D01*
X114061599Y-92994554D01*
X114034942Y-92979163D01*
X113971294Y-92962109D01*
X113907647Y-92945055D01*
X113775863Y-92945055D01*
X113648567Y-92979163D01*
X113534441Y-93045055D01*
X113534438Y-93045057D01*
X113441257Y-93138238D01*
X113441255Y-93138241D01*
X113375363Y-93252367D01*
X113342961Y-93373297D01*
X113341255Y-93379663D01*
X113341255Y-93511447D01*
X113353566Y-93557391D01*
X113375363Y-93638742D01*
X113407445Y-93694309D01*
X113441255Y-93752869D01*
X113534441Y-93846055D01*
X113616604Y-93893492D01*
X113644680Y-93909702D01*
X113648569Y-93911947D01*
X113775863Y-93946055D01*
X113775866Y-93946055D01*
X113779680Y-93947077D01*
X113839341Y-93983442D01*
X113869870Y-94046288D01*
X113871587Y-94066852D01*
X113871587Y-94138692D01*
X113877484Y-94160700D01*
X113905695Y-94265987D01*
X113921864Y-94293992D01*
X113971587Y-94380114D01*
X114064773Y-94473300D01*
X114163608Y-94530363D01*
X114178438Y-94538925D01*
X114178901Y-94539192D01*
X114274556Y-94564822D01*
X114334214Y-94601185D01*
X114364744Y-94664032D01*
X114366461Y-94684596D01*
X114366461Y-94798005D01*
X114397514Y-94913899D01*
X114400570Y-94925301D01*
X114400570Y-94925302D01*
X114466566Y-95039610D01*
X114483039Y-95107510D01*
X114460186Y-95173537D01*
X114446862Y-95189289D01*
X114404940Y-95231212D01*
X114404937Y-95231216D01*
X114339045Y-95345342D01*
X114304937Y-95472638D01*
X114304937Y-95604421D01*
X114339045Y-95731717D01*
X114365835Y-95778118D01*
X114404937Y-95845844D01*
X114498123Y-95939030D01*
X114612251Y-96004922D01*
X114612258Y-96004924D01*
X114613179Y-96005306D01*
X114613843Y-96005841D01*
X114619290Y-96008986D01*
X114618799Y-96009834D01*
X114667586Y-96049142D01*
X114689657Y-96115434D01*
X114672383Y-96183135D01*
X114653418Y-96207552D01*
X114591564Y-96269406D01*
X114525672Y-96383534D01*
X114507997Y-96449500D01*
X114503120Y-96467700D01*
X114466755Y-96527360D01*
X114403907Y-96557889D01*
X114334532Y-96549594D01*
X114280654Y-96505109D01*
X114268780Y-96483050D01*
X114267194Y-96479223D01*
X114267192Y-96479214D01*
X114201300Y-96365086D01*
X114108114Y-96271900D01*
X114049541Y-96238083D01*
X113993987Y-96206008D01*
X113908622Y-96183135D01*
X113866692Y-96171900D01*
X113734908Y-96171900D01*
X113607612Y-96206008D01*
X113493486Y-96271900D01*
X113493483Y-96271902D01*
X113400302Y-96365083D01*
X113400300Y-96365086D01*
X113334408Y-96479212D01*
X113315550Y-96549594D01*
X113300300Y-96606508D01*
X113000000Y-96606508D01*
X113000000Y-95137900D01*
X113019685Y-95070861D01*
X113072489Y-95025106D01*
X113124000Y-95013900D01*
X113146690Y-95013900D01*
X113146692Y-95013900D01*
X113273986Y-94979792D01*
X113388114Y-94913900D01*
X113481300Y-94820714D01*
X113547192Y-94706586D01*
X113581300Y-94579292D01*
X113581300Y-94447508D01*
X113547192Y-94320214D01*
X113481300Y-94206086D01*
X113388114Y-94112900D01*
X113309505Y-94067515D01*
X113273987Y-94047008D01*
X113210339Y-94029954D01*
X113146692Y-94012900D01*
X113124000Y-94012900D01*
X113056961Y-93993215D01*
X113011206Y-93940411D01*
X113000000Y-93888900D01*
X113000000Y-92891401D01*
X113019685Y-92824362D01*
X113072489Y-92778607D01*
X113091900Y-92771628D01*
X113136636Y-92759642D01*
X113250764Y-92693750D01*
X113343950Y-92600564D01*
X113409842Y-92486436D01*
X113443950Y-92359142D01*
X113443950Y-92242300D01*
X113444316Y-92241053D01*
X113443975Y-92239799D01*
X113449875Y-92221108D01*
X115772500Y-92221108D01*
X115772500Y-92352892D01*
X115774175Y-92359142D01*
X115806608Y-92480187D01*
X115839554Y-92537250D01*
X115872500Y-92594314D01*
X115965686Y-92687500D01*
X116079814Y-92753392D01*
X116207108Y-92787500D01*
X116207110Y-92787500D01*
X116338890Y-92787500D01*
X116338892Y-92787500D01*
X116466186Y-92753392D01*
X116580314Y-92687500D01*
X116673500Y-92594314D01*
X116739392Y-92480186D01*
X116773500Y-92352892D01*
X116773500Y-92221108D01*
X116739392Y-92093814D01*
X116737749Y-92090969D01*
X116723380Y-92066081D01*
X116673500Y-91979686D01*
X116580314Y-91886500D01*
X116523250Y-91853554D01*
X116466187Y-91820608D01*
X116401524Y-91803282D01*
X116338892Y-91786500D01*
X116207108Y-91786500D01*
X116079812Y-91820608D01*
X115965686Y-91886500D01*
X115965683Y-91886502D01*
X115872502Y-91979683D01*
X115872500Y-91979686D01*
X115806608Y-92093812D01*
X115776117Y-92207610D01*
X115772500Y-92221108D01*
X113449875Y-92221108D01*
X113454136Y-92207610D01*
X113463635Y-92175261D01*
X113464616Y-92174410D01*
X113465008Y-92173170D01*
X113490963Y-92151580D01*
X113516439Y-92129506D01*
X113518050Y-92129050D01*
X113518724Y-92128490D01*
X113523610Y-92127478D01*
X113552782Y-92119231D01*
X113560336Y-92118300D01*
X113680092Y-92118300D01*
X113807386Y-92084192D01*
X113921514Y-92018300D01*
X114014700Y-91925114D01*
X114080592Y-91810986D01*
X114114700Y-91683692D01*
X114114700Y-91551908D01*
X114103232Y-91509108D01*
X118150250Y-91509108D01*
X118150250Y-91640892D01*
X118153918Y-91654581D01*
X118184358Y-91768187D01*
X118196779Y-91789700D01*
X118250250Y-91882314D01*
X118343436Y-91975500D01*
X118417566Y-92018299D01*
X118456803Y-92040953D01*
X118457564Y-92041392D01*
X118584858Y-92075500D01*
X118584859Y-92075500D01*
X118592708Y-92077603D01*
X118592353Y-92078924D01*
X118648404Y-92103715D01*
X118686879Y-92162036D01*
X118688105Y-92230484D01*
X118681043Y-92256840D01*
X118681043Y-92256842D01*
X118681043Y-92388623D01*
X118715151Y-92515919D01*
X118744002Y-92565890D01*
X118781043Y-92630046D01*
X118874229Y-92723232D01*
X118988357Y-92789124D01*
X119115651Y-92823232D01*
X119115654Y-92823232D01*
X119117793Y-92823805D01*
X119177453Y-92860170D01*
X119207983Y-92923016D01*
X119209700Y-92943580D01*
X119209700Y-93038692D01*
X119217423Y-93067514D01*
X119243808Y-93165987D01*
X119256558Y-93188070D01*
X119309700Y-93280114D01*
X119402886Y-93373300D01*
X119517014Y-93439192D01*
X119644308Y-93473300D01*
X119644310Y-93473300D01*
X119776090Y-93473300D01*
X119776092Y-93473300D01*
X119903386Y-93439192D01*
X120017514Y-93373300D01*
X120110700Y-93280114D01*
X120176592Y-93165986D01*
X120210700Y-93038692D01*
X120210700Y-93025108D01*
X124670700Y-93025108D01*
X124670700Y-93156892D01*
X124679054Y-93188069D01*
X124704808Y-93284187D01*
X124729584Y-93327100D01*
X124770700Y-93398314D01*
X124863886Y-93491500D01*
X124978014Y-93557392D01*
X125105308Y-93591500D01*
X125105310Y-93591500D01*
X125237090Y-93591500D01*
X125237092Y-93591500D01*
X125264680Y-93584108D01*
X128449500Y-93584108D01*
X128449500Y-93715892D01*
X128461776Y-93761708D01*
X128483608Y-93843187D01*
X128504640Y-93879614D01*
X128549500Y-93957314D01*
X128642686Y-94050500D01*
X128756814Y-94116392D01*
X128884108Y-94150500D01*
X128884110Y-94150500D01*
X129015890Y-94150500D01*
X129015892Y-94150500D01*
X129143186Y-94116392D01*
X129257314Y-94050500D01*
X129350500Y-93957314D01*
X129416392Y-93843186D01*
X129450500Y-93715892D01*
X129450500Y-93584108D01*
X129416392Y-93456814D01*
X129350500Y-93342686D01*
X129257314Y-93249500D01*
X129179168Y-93204382D01*
X129143187Y-93183608D01*
X129057691Y-93160700D01*
X129015892Y-93149500D01*
X128884108Y-93149500D01*
X128756812Y-93183608D01*
X128642686Y-93249500D01*
X128642683Y-93249502D01*
X128549502Y-93342683D01*
X128549500Y-93342686D01*
X128483608Y-93456812D01*
X128454080Y-93567015D01*
X128449500Y-93584108D01*
X125264680Y-93584108D01*
X125364386Y-93557392D01*
X125478514Y-93491500D01*
X125571700Y-93398314D01*
X125637592Y-93284186D01*
X125671700Y-93156892D01*
X125671700Y-93025108D01*
X125637592Y-92897814D01*
X125633889Y-92891401D01*
X125595184Y-92824362D01*
X125571700Y-92783686D01*
X125478514Y-92690500D01*
X125421450Y-92657554D01*
X125364387Y-92624608D01*
X125353452Y-92621678D01*
X127366507Y-92621678D01*
X127366507Y-92753462D01*
X127380937Y-92807316D01*
X127400615Y-92880757D01*
X127417265Y-92909595D01*
X127466507Y-92994884D01*
X127559693Y-93088070D01*
X127658528Y-93145133D01*
X127666092Y-93149500D01*
X127673821Y-93153962D01*
X127801115Y-93188070D01*
X127801117Y-93188070D01*
X127932897Y-93188070D01*
X127932899Y-93188070D01*
X128060193Y-93153962D01*
X128174321Y-93088070D01*
X128267507Y-92994884D01*
X128333399Y-92880756D01*
X128367507Y-92753462D01*
X128367507Y-92621678D01*
X128333399Y-92494384D01*
X128267507Y-92380256D01*
X128174321Y-92287070D01*
X128117257Y-92254124D01*
X128060194Y-92221178D01*
X127953847Y-92192683D01*
X127932899Y-92187070D01*
X127801115Y-92187070D01*
X127673819Y-92221178D01*
X127559693Y-92287070D01*
X127559690Y-92287072D01*
X127466509Y-92380253D01*
X127466507Y-92380256D01*
X127400615Y-92494382D01*
X127372165Y-92600563D01*
X127366507Y-92621678D01*
X125353452Y-92621678D01*
X125274659Y-92600566D01*
X125237092Y-92590500D01*
X125105308Y-92590500D01*
X124978012Y-92624608D01*
X124863886Y-92690500D01*
X124863883Y-92690502D01*
X124770702Y-92783683D01*
X124770700Y-92783686D01*
X124704808Y-92897812D01*
X124686433Y-92966391D01*
X124670700Y-93025108D01*
X120210700Y-93025108D01*
X120210700Y-92906908D01*
X120176592Y-92779614D01*
X120110700Y-92665486D01*
X120017514Y-92572300D01*
X119903386Y-92506408D01*
X119776092Y-92472300D01*
X119776091Y-92472300D01*
X119773949Y-92471726D01*
X119714289Y-92435361D01*
X119713680Y-92434108D01*
X122699500Y-92434108D01*
X122699500Y-92565891D01*
X122733608Y-92693187D01*
X122750955Y-92723232D01*
X122799500Y-92807314D01*
X122892686Y-92900500D01*
X123006814Y-92966392D01*
X123134108Y-93000500D01*
X123134110Y-93000500D01*
X123265889Y-93000500D01*
X123265892Y-93000500D01*
X123393186Y-92966392D01*
X123507314Y-92900500D01*
X123600500Y-92807314D01*
X123666392Y-92693186D01*
X123700500Y-92565892D01*
X123700500Y-92434108D01*
X123666392Y-92306814D01*
X123600500Y-92192686D01*
X123507314Y-92099500D01*
X123432327Y-92056206D01*
X123393187Y-92033608D01*
X123325288Y-92015415D01*
X123265892Y-91999500D01*
X123134108Y-91999500D01*
X123006812Y-92033608D01*
X122892686Y-92099500D01*
X122892683Y-92099502D01*
X122799502Y-92192683D01*
X122799500Y-92192686D01*
X122733608Y-92306812D01*
X122699500Y-92434108D01*
X119713680Y-92434108D01*
X119683760Y-92372514D01*
X119682043Y-92351951D01*
X119682043Y-92256842D01*
X119682043Y-92256840D01*
X119647935Y-92129546D01*
X119582043Y-92015418D01*
X119488857Y-91922232D01*
X119435557Y-91891459D01*
X119427985Y-91887087D01*
X119427983Y-91887086D01*
X119374729Y-91856340D01*
X119247435Y-91822232D01*
X119239970Y-91822232D01*
X119223527Y-91816560D01*
X119204841Y-91803282D01*
X119183878Y-91794008D01*
X119176900Y-91783429D01*
X119174713Y-91781875D01*
X121556897Y-91781875D01*
X121556897Y-91913659D01*
X121559967Y-91925116D01*
X121591005Y-92040954D01*
X121615968Y-92084190D01*
X121656897Y-92155081D01*
X121750083Y-92248267D01*
X121828962Y-92293808D01*
X121864207Y-92314157D01*
X121864211Y-92314159D01*
X121991505Y-92348267D01*
X121991507Y-92348267D01*
X122123287Y-92348267D01*
X122123289Y-92348267D01*
X122250583Y-92314159D01*
X122364711Y-92248267D01*
X122457897Y-92155081D01*
X122523789Y-92040953D01*
X122557897Y-91913659D01*
X122557897Y-91781875D01*
X122523789Y-91654581D01*
X122515886Y-91640892D01*
X122508936Y-91628854D01*
X122492462Y-91560954D01*
X122515314Y-91494927D01*
X122528630Y-91479183D01*
X122600500Y-91407314D01*
X122666392Y-91293186D01*
X122700500Y-91165892D01*
X122700500Y-91034108D01*
X122666392Y-90906814D01*
X122600500Y-90792686D01*
X122507314Y-90699500D01*
X122431627Y-90655802D01*
X122393187Y-90633608D01*
X122329539Y-90616554D01*
X122265892Y-90599500D01*
X122134108Y-90599500D01*
X122006812Y-90633608D01*
X121892686Y-90699500D01*
X121892683Y-90699502D01*
X121799502Y-90792683D01*
X121799500Y-90792686D01*
X121733608Y-90906812D01*
X121702040Y-91024630D01*
X121699500Y-91034108D01*
X121699500Y-91165892D01*
X121726775Y-91267686D01*
X121733609Y-91293188D01*
X121733609Y-91293189D01*
X121748461Y-91318913D01*
X121764934Y-91386813D01*
X121742082Y-91452840D01*
X121728756Y-91468594D01*
X121656897Y-91540453D01*
X121591005Y-91654579D01*
X121560565Y-91768186D01*
X121556897Y-91781875D01*
X119174713Y-91781875D01*
X119166572Y-91776090D01*
X119158030Y-91754819D01*
X119145409Y-91735682D01*
X119145179Y-91722813D01*
X119140537Y-91711252D01*
X119144595Y-91690077D01*
X119144188Y-91667247D01*
X119151250Y-91640892D01*
X119151250Y-91509108D01*
X119117142Y-91381814D01*
X119051250Y-91267686D01*
X118958064Y-91174500D01*
X118901000Y-91141554D01*
X118843937Y-91108608D01*
X118744207Y-91081886D01*
X118716642Y-91074500D01*
X118584858Y-91074500D01*
X118457562Y-91108608D01*
X118343436Y-91174500D01*
X118343433Y-91174502D01*
X118250252Y-91267683D01*
X118250250Y-91267686D01*
X118184358Y-91381812D01*
X118154050Y-91494927D01*
X118150250Y-91509108D01*
X114103232Y-91509108D01*
X114080592Y-91424614D01*
X114014700Y-91310486D01*
X113921514Y-91217300D01*
X113847386Y-91174502D01*
X113807387Y-91151408D01*
X113743739Y-91134354D01*
X113680092Y-91117300D01*
X113548308Y-91117300D01*
X113421012Y-91151408D01*
X113306886Y-91217300D01*
X113306883Y-91217302D01*
X113211681Y-91312505D01*
X113150358Y-91345990D01*
X113080666Y-91341006D01*
X113024733Y-91299134D01*
X113000316Y-91233670D01*
X113000000Y-91224824D01*
X113000000Y-90512916D01*
X113019685Y-90445877D01*
X113061998Y-90405530D01*
X113157314Y-90350500D01*
X113250500Y-90257314D01*
X113316392Y-90143186D01*
X113350500Y-90015892D01*
X113350500Y-89884108D01*
X113316392Y-89756814D01*
X113250500Y-89642686D01*
X113157314Y-89549500D01*
X113121301Y-89528708D01*
X115047500Y-89528708D01*
X115047500Y-89660491D01*
X115081608Y-89787787D01*
X115099866Y-89819410D01*
X115147500Y-89901914D01*
X115240686Y-89995100D01*
X115354814Y-90060992D01*
X115482108Y-90095100D01*
X115482110Y-90095100D01*
X115613890Y-90095100D01*
X115613892Y-90095100D01*
X115741186Y-90060992D01*
X115855314Y-89995100D01*
X115948500Y-89901914D01*
X115987994Y-89833508D01*
X116497500Y-89833508D01*
X116497500Y-89965292D01*
X116511058Y-90015890D01*
X116531608Y-90092587D01*
X116560030Y-90141814D01*
X116597500Y-90206714D01*
X116690686Y-90299900D01*
X116804814Y-90365792D01*
X116932108Y-90399900D01*
X116932110Y-90399900D01*
X117072019Y-90399900D01*
X117072019Y-90401450D01*
X117131938Y-90410788D01*
X117184199Y-90457162D01*
X117198706Y-90507670D01*
X117202039Y-90507232D01*
X117203100Y-90515291D01*
X117237208Y-90642587D01*
X117252263Y-90668662D01*
X117303100Y-90756714D01*
X117396286Y-90849900D01*
X117510414Y-90915792D01*
X117637708Y-90949900D01*
X117637710Y-90949900D01*
X117769490Y-90949900D01*
X117769492Y-90949900D01*
X117896786Y-90915792D01*
X118010914Y-90849900D01*
X118077716Y-90783098D01*
X119140310Y-90783098D01*
X119140310Y-90914881D01*
X119174418Y-91042178D01*
X119176168Y-91045209D01*
X119176172Y-91045215D01*
X119240310Y-91156304D01*
X119333496Y-91249490D01*
X119447624Y-91315382D01*
X119574918Y-91349490D01*
X119574920Y-91349490D01*
X119706700Y-91349490D01*
X119706702Y-91349490D01*
X119833996Y-91315382D01*
X119948124Y-91249490D01*
X120041310Y-91156304D01*
X120107202Y-91042176D01*
X120141310Y-90914882D01*
X120141310Y-90783098D01*
X120107202Y-90655804D01*
X120041310Y-90541676D01*
X119948124Y-90448490D01*
X119891060Y-90415544D01*
X119833997Y-90382598D01*
X119770349Y-90365544D01*
X119706702Y-90348490D01*
X119574918Y-90348490D01*
X119447622Y-90382598D01*
X119333496Y-90448490D01*
X119333493Y-90448492D01*
X119240312Y-90541673D01*
X119240310Y-90541676D01*
X119174418Y-90655802D01*
X119140310Y-90783098D01*
X118077716Y-90783098D01*
X118104100Y-90756714D01*
X118121736Y-90726166D01*
X118172299Y-90677953D01*
X118240906Y-90664728D01*
X118291123Y-90680781D01*
X118334450Y-90705796D01*
X118334451Y-90705796D01*
X118334456Y-90705799D01*
X118461750Y-90739907D01*
X118461752Y-90739907D01*
X118593532Y-90739907D01*
X118593534Y-90739907D01*
X118720828Y-90705799D01*
X118834956Y-90639907D01*
X118928142Y-90546721D01*
X118994034Y-90432593D01*
X119028142Y-90305299D01*
X119028142Y-90173515D01*
X118994034Y-90046221D01*
X118928142Y-89932093D01*
X118834956Y-89838907D01*
X118777892Y-89805961D01*
X118720829Y-89773015D01*
X118657181Y-89755961D01*
X118593534Y-89738907D01*
X118461750Y-89738907D01*
X118334454Y-89773015D01*
X118220328Y-89838907D01*
X118220325Y-89838909D01*
X118127144Y-89932090D01*
X118127142Y-89932093D01*
X118117439Y-89948900D01*
X118109506Y-89962640D01*
X118058938Y-90010855D01*
X117990331Y-90024077D01*
X117940119Y-90008026D01*
X117896788Y-89983009D01*
X117896787Y-89983008D01*
X117896786Y-89983008D01*
X117769492Y-89948900D01*
X117637708Y-89948900D01*
X117629581Y-89948900D01*
X117629581Y-89947352D01*
X117569646Y-89938004D01*
X117517392Y-89891622D01*
X117502892Y-89841129D01*
X117499561Y-89841568D01*
X117498500Y-89833515D01*
X117498500Y-89833508D01*
X117464392Y-89706214D01*
X117398500Y-89592086D01*
X117305314Y-89498900D01*
X117219751Y-89449500D01*
X117191187Y-89433008D01*
X117124341Y-89415097D01*
X117063892Y-89398900D01*
X116932108Y-89398900D01*
X116804812Y-89433008D01*
X116690686Y-89498900D01*
X116690683Y-89498902D01*
X116597502Y-89592083D01*
X116597500Y-89592086D01*
X116531608Y-89706212D01*
X116497951Y-89831825D01*
X116497500Y-89833508D01*
X115987994Y-89833508D01*
X116014392Y-89787786D01*
X116048500Y-89660492D01*
X116048500Y-89528708D01*
X116014392Y-89401414D01*
X115948500Y-89287286D01*
X115855314Y-89194100D01*
X115779792Y-89150497D01*
X115741187Y-89128208D01*
X115677539Y-89111154D01*
X115613892Y-89094100D01*
X115482108Y-89094100D01*
X115354812Y-89128208D01*
X115240686Y-89194100D01*
X115240683Y-89194102D01*
X115147502Y-89287283D01*
X115147500Y-89287286D01*
X115081608Y-89401412D01*
X115047500Y-89528708D01*
X113121301Y-89528708D01*
X113055816Y-89490900D01*
X113050068Y-89486631D01*
X113033156Y-89464218D01*
X113013784Y-89443901D01*
X113011868Y-89436006D01*
X113007984Y-89430858D01*
X113006796Y-89415097D01*
X113000000Y-89387082D01*
X113000000Y-88934108D01*
X118229500Y-88934108D01*
X118229500Y-89065892D01*
X118237058Y-89094100D01*
X118263608Y-89193187D01*
X118277005Y-89216391D01*
X118329500Y-89307314D01*
X118422686Y-89400500D01*
X118513078Y-89452688D01*
X118533048Y-89464218D01*
X118536814Y-89466392D01*
X118664108Y-89500500D01*
X118664110Y-89500500D01*
X118795890Y-89500500D01*
X118795892Y-89500500D01*
X118923186Y-89466392D01*
X119037314Y-89400500D01*
X119130500Y-89307314D01*
X119196392Y-89193186D01*
X119230500Y-89065892D01*
X119230500Y-88934108D01*
X119196392Y-88806814D01*
X119130500Y-88692686D01*
X119121922Y-88684108D01*
X121426731Y-88684108D01*
X121426731Y-88815891D01*
X121460839Y-88943187D01*
X121474196Y-88966321D01*
X121526731Y-89057314D01*
X121619917Y-89150500D01*
X121734045Y-89216392D01*
X121861339Y-89250500D01*
X121861341Y-89250500D01*
X121993121Y-89250500D01*
X121993123Y-89250500D01*
X122120417Y-89216392D01*
X122234545Y-89150500D01*
X122327731Y-89057314D01*
X122328024Y-89056807D01*
X123678489Y-89056807D01*
X123678489Y-89188591D01*
X123691485Y-89237093D01*
X123712597Y-89315886D01*
X123734035Y-89353017D01*
X123778489Y-89430013D01*
X123871675Y-89523199D01*
X123917230Y-89549500D01*
X123984770Y-89588495D01*
X123985803Y-89589091D01*
X124113097Y-89623199D01*
X124113099Y-89623199D01*
X124244878Y-89623199D01*
X124244881Y-89623199D01*
X124372175Y-89589091D01*
X124372178Y-89589088D01*
X124374395Y-89588495D01*
X124444245Y-89590158D01*
X124502108Y-89629320D01*
X124529612Y-89693549D01*
X124518026Y-89762451D01*
X124494171Y-89795951D01*
X124357414Y-89932708D01*
X124237140Y-90098250D01*
X124144244Y-90280570D01*
X124081009Y-90475186D01*
X124072391Y-90529600D01*
X124973722Y-90529600D01*
X124929667Y-90605906D01*
X124899000Y-90720356D01*
X124899000Y-90838844D01*
X124929667Y-90953294D01*
X124973722Y-91029600D01*
X124072391Y-91029600D01*
X124081009Y-91084013D01*
X124144244Y-91278629D01*
X124237140Y-91460949D01*
X124357417Y-91626494D01*
X124357417Y-91626495D01*
X124502104Y-91771182D01*
X124667650Y-91891459D01*
X124849968Y-91984354D01*
X125044578Y-92047588D01*
X125099000Y-92056207D01*
X125099000Y-91154877D01*
X125175306Y-91198933D01*
X125289756Y-91229600D01*
X125408244Y-91229600D01*
X125522694Y-91198933D01*
X125599000Y-91154877D01*
X125599000Y-92056206D01*
X125653421Y-92047588D01*
X125848031Y-91984354D01*
X126030349Y-91891459D01*
X126195894Y-91771182D01*
X126195895Y-91771182D01*
X126340582Y-91626495D01*
X126340582Y-91626494D01*
X126460859Y-91460949D01*
X126553755Y-91278631D01*
X126616990Y-91084017D01*
X126646875Y-90895331D01*
X126676804Y-90832196D01*
X126736116Y-90795265D01*
X126805978Y-90796263D01*
X126864211Y-90834873D01*
X126890965Y-90890537D01*
X126926947Y-91071429D01*
X126926950Y-91071439D01*
X127002364Y-91253507D01*
X127002371Y-91253520D01*
X127111860Y-91417381D01*
X127111863Y-91417385D01*
X127251214Y-91556736D01*
X127251218Y-91556739D01*
X127415079Y-91666228D01*
X127415092Y-91666235D01*
X127582754Y-91735682D01*
X127597165Y-91741651D01*
X127597169Y-91741651D01*
X127597170Y-91741652D01*
X127790456Y-91780100D01*
X127790459Y-91780100D01*
X127987543Y-91780100D01*
X128117582Y-91754232D01*
X128180835Y-91741651D01*
X128362914Y-91666232D01*
X128526782Y-91556739D01*
X128666139Y-91417382D01*
X128775632Y-91253514D01*
X128851051Y-91071435D01*
X128886081Y-90895331D01*
X128889500Y-90878143D01*
X129428499Y-90878143D01*
X129466947Y-91071429D01*
X129466950Y-91071439D01*
X129542364Y-91253507D01*
X129542371Y-91253520D01*
X129651860Y-91417381D01*
X129651863Y-91417385D01*
X129791214Y-91556736D01*
X129791218Y-91556739D01*
X129955079Y-91666228D01*
X129955092Y-91666235D01*
X130122754Y-91735682D01*
X130137165Y-91741651D01*
X130137169Y-91741651D01*
X130137170Y-91741652D01*
X130330456Y-91780100D01*
X130330459Y-91780100D01*
X130527543Y-91780100D01*
X130657582Y-91754232D01*
X130720835Y-91741651D01*
X130902914Y-91666232D01*
X131066782Y-91556739D01*
X131206139Y-91417382D01*
X131315632Y-91253514D01*
X131391051Y-91071435D01*
X131426081Y-90895331D01*
X131429500Y-90878143D01*
X131429500Y-90681056D01*
X131391052Y-90487770D01*
X131391051Y-90487769D01*
X131391051Y-90487765D01*
X131378375Y-90457162D01*
X131315635Y-90305692D01*
X131315628Y-90305679D01*
X131206139Y-90141818D01*
X131206136Y-90141814D01*
X131066785Y-90002463D01*
X131066781Y-90002460D01*
X130902920Y-89892971D01*
X130902907Y-89892964D01*
X130720839Y-89817550D01*
X130720829Y-89817547D01*
X130527543Y-89779100D01*
X130527541Y-89779100D01*
X130330459Y-89779100D01*
X130330457Y-89779100D01*
X130137170Y-89817547D01*
X130137160Y-89817550D01*
X129955092Y-89892964D01*
X129955079Y-89892971D01*
X129791218Y-90002460D01*
X129791214Y-90002463D01*
X129651863Y-90141814D01*
X129651860Y-90141818D01*
X129542371Y-90305679D01*
X129542364Y-90305692D01*
X129466950Y-90487760D01*
X129466947Y-90487770D01*
X129428500Y-90681056D01*
X129428500Y-90681059D01*
X129428500Y-90878141D01*
X129428500Y-90878143D01*
X129428499Y-90878143D01*
X128889500Y-90878143D01*
X128889500Y-90681056D01*
X128851052Y-90487770D01*
X128851051Y-90487769D01*
X128851051Y-90487765D01*
X128838375Y-90457162D01*
X128775635Y-90305692D01*
X128775628Y-90305679D01*
X128666139Y-90141818D01*
X128666136Y-90141814D01*
X128551216Y-90026894D01*
X128517731Y-89965571D01*
X128522715Y-89895879D01*
X128564587Y-89839946D01*
X128576892Y-89831829D01*
X128598405Y-89819409D01*
X128691591Y-89726223D01*
X128757483Y-89612095D01*
X128791591Y-89484801D01*
X128791591Y-89353017D01*
X128757483Y-89225723D01*
X128691591Y-89111595D01*
X128598405Y-89018409D01*
X128508190Y-88966323D01*
X128484278Y-88952517D01*
X128398409Y-88929509D01*
X128356983Y-88918409D01*
X128225199Y-88918409D01*
X128097903Y-88952517D01*
X127983777Y-89018409D01*
X127983774Y-89018411D01*
X127890593Y-89111592D01*
X127890591Y-89111595D01*
X127824699Y-89225721D01*
X127821652Y-89237093D01*
X127790591Y-89353017D01*
X127790591Y-89484801D01*
X127818535Y-89589091D01*
X127824700Y-89612097D01*
X127827811Y-89619609D01*
X127824761Y-89620872D01*
X127837611Y-89673815D01*
X127814766Y-89739844D01*
X127759850Y-89783041D01*
X127737943Y-89789545D01*
X127597170Y-89817547D01*
X127597160Y-89817550D01*
X127415092Y-89892964D01*
X127415079Y-89892971D01*
X127251218Y-90002460D01*
X127251214Y-90002463D01*
X127111863Y-90141814D01*
X127111860Y-90141818D01*
X127002371Y-90305679D01*
X127002364Y-90305692D01*
X126926950Y-90487760D01*
X126926947Y-90487770D01*
X126890965Y-90668662D01*
X126858580Y-90730573D01*
X126797864Y-90765147D01*
X126728094Y-90761406D01*
X126671423Y-90720540D01*
X126646875Y-90663868D01*
X126616990Y-90475182D01*
X126553755Y-90280568D01*
X126460859Y-90098250D01*
X126340582Y-89932705D01*
X126340582Y-89932704D01*
X126195895Y-89788017D01*
X126030349Y-89667740D01*
X125848029Y-89574844D01*
X125653413Y-89511609D01*
X125599000Y-89502990D01*
X125599000Y-90404322D01*
X125522694Y-90360267D01*
X125408244Y-90329600D01*
X125289756Y-90329600D01*
X125175306Y-90360267D01*
X125099000Y-90404322D01*
X125099000Y-89502990D01*
X125044586Y-89511609D01*
X124849967Y-89574845D01*
X124700786Y-89650856D01*
X124632117Y-89663752D01*
X124567377Y-89637475D01*
X124527120Y-89580369D01*
X124524128Y-89510563D01*
X124556809Y-89452692D01*
X124579489Y-89430013D01*
X124645381Y-89315885D01*
X124679489Y-89188591D01*
X124679489Y-89056807D01*
X124648822Y-88942356D01*
X126599500Y-88942356D01*
X126599500Y-89074140D01*
X126604848Y-89094100D01*
X126633608Y-89201435D01*
X126642243Y-89216391D01*
X126699500Y-89315562D01*
X126792686Y-89408748D01*
X126906814Y-89474640D01*
X127034108Y-89508748D01*
X127034110Y-89508748D01*
X127165890Y-89508748D01*
X127165892Y-89508748D01*
X127293186Y-89474640D01*
X127407314Y-89408748D01*
X127500500Y-89315562D01*
X127566392Y-89201434D01*
X127600500Y-89074140D01*
X127600500Y-88942356D01*
X127566392Y-88815062D01*
X127500500Y-88700934D01*
X127407314Y-88607748D01*
X127319094Y-88556814D01*
X127293187Y-88541856D01*
X127223553Y-88523198D01*
X127165892Y-88507748D01*
X127034108Y-88507748D01*
X126906812Y-88541856D01*
X126792686Y-88607748D01*
X126792683Y-88607750D01*
X126699502Y-88700931D01*
X126699500Y-88700934D01*
X126633608Y-88815060D01*
X126602941Y-88929513D01*
X126599500Y-88942356D01*
X124648822Y-88942356D01*
X124645381Y-88929513D01*
X124579489Y-88815385D01*
X124486303Y-88722199D01*
X124420328Y-88684108D01*
X124372176Y-88656307D01*
X124308528Y-88639253D01*
X124244881Y-88622199D01*
X124113097Y-88622199D01*
X123985803Y-88656307D01*
X123985802Y-88656307D01*
X123985800Y-88656308D01*
X123985799Y-88656308D01*
X123886073Y-88713885D01*
X123886070Y-88713887D01*
X123871675Y-88722199D01*
X123778489Y-88815385D01*
X123744646Y-88874002D01*
X123744642Y-88874007D01*
X123712598Y-88929509D01*
X123712598Y-88929510D01*
X123712597Y-88929512D01*
X123712597Y-88929513D01*
X123678489Y-89056807D01*
X122328024Y-89056807D01*
X122393623Y-88943186D01*
X122427731Y-88815892D01*
X122427731Y-88684108D01*
X122393623Y-88556814D01*
X122327731Y-88442686D01*
X122234545Y-88349500D01*
X122156272Y-88304309D01*
X122120418Y-88283608D01*
X122056770Y-88266554D01*
X121993123Y-88249500D01*
X121861339Y-88249500D01*
X121734043Y-88283608D01*
X121619917Y-88349500D01*
X121619914Y-88349502D01*
X121526733Y-88442683D01*
X121526731Y-88442686D01*
X121460839Y-88556812D01*
X121426731Y-88684108D01*
X119121922Y-88684108D01*
X119037314Y-88599500D01*
X118963380Y-88556814D01*
X118923187Y-88533608D01*
X118826674Y-88507748D01*
X118795892Y-88499500D01*
X118664108Y-88499500D01*
X118536812Y-88533608D01*
X118422686Y-88599500D01*
X118422683Y-88599502D01*
X118329502Y-88692683D01*
X118329500Y-88692686D01*
X118263608Y-88806812D01*
X118245604Y-88874007D01*
X118229500Y-88934108D01*
X113000000Y-88934108D01*
X113000000Y-88477996D01*
X113019685Y-88410957D01*
X113061999Y-88370609D01*
X113072514Y-88364539D01*
X113165700Y-88271353D01*
X113231592Y-88157225D01*
X113265700Y-88029931D01*
X113265700Y-87898147D01*
X113240478Y-87804017D01*
X115599500Y-87804017D01*
X115599500Y-87935801D01*
X115605129Y-87956809D01*
X115633608Y-88063096D01*
X115648328Y-88088591D01*
X115699500Y-88177223D01*
X115792686Y-88270409D01*
X115906814Y-88336301D01*
X116034108Y-88370409D01*
X116034110Y-88370409D01*
X116165890Y-88370409D01*
X116165892Y-88370409D01*
X116293186Y-88336301D01*
X116407314Y-88270409D01*
X116500500Y-88177223D01*
X116566392Y-88063095D01*
X116600500Y-87935801D01*
X116600500Y-87804017D01*
X116566392Y-87676723D01*
X116500500Y-87562595D01*
X116459101Y-87521196D01*
X116425616Y-87459873D01*
X116430600Y-87390181D01*
X116459097Y-87345838D01*
X116538100Y-87266836D01*
X116603992Y-87152708D01*
X116638100Y-87025414D01*
X116638100Y-86893630D01*
X116603992Y-86766336D01*
X116554031Y-86679801D01*
X117305368Y-86679801D01*
X117343816Y-86873087D01*
X117343819Y-86873097D01*
X117419233Y-87055165D01*
X117419240Y-87055178D01*
X117528729Y-87219039D01*
X117528732Y-87219043D01*
X117668083Y-87358394D01*
X117668087Y-87358397D01*
X117831948Y-87467886D01*
X117831961Y-87467893D01*
X117971425Y-87525660D01*
X118014034Y-87543309D01*
X118014038Y-87543309D01*
X118014039Y-87543310D01*
X118207325Y-87581758D01*
X118207328Y-87581758D01*
X118404412Y-87581758D01*
X118538945Y-87554997D01*
X122442102Y-87554997D01*
X122442102Y-87686780D01*
X122476210Y-87814076D01*
X122485122Y-87829511D01*
X122542102Y-87928203D01*
X122635288Y-88021389D01*
X122718243Y-88069283D01*
X122766459Y-88119850D01*
X122779682Y-88188457D01*
X122776019Y-88208759D01*
X122770524Y-88229267D01*
X122770524Y-88229269D01*
X122770524Y-88361053D01*
X122771458Y-88364538D01*
X122804632Y-88488348D01*
X122836677Y-88543850D01*
X122870524Y-88602475D01*
X122963710Y-88695661D01*
X123077838Y-88761553D01*
X123205132Y-88795661D01*
X123205134Y-88795661D01*
X123336914Y-88795661D01*
X123336916Y-88795661D01*
X123464210Y-88761553D01*
X123578338Y-88695661D01*
X123671524Y-88602475D01*
X123735349Y-88491925D01*
X123737415Y-88488349D01*
X123737416Y-88488347D01*
X123771524Y-88361053D01*
X123771524Y-88229269D01*
X123737416Y-88101975D01*
X123671524Y-87987847D01*
X123578338Y-87894661D01*
X123495382Y-87846766D01*
X123447166Y-87796199D01*
X123433387Y-87738298D01*
X123433524Y-87722524D01*
X123443102Y-87686781D01*
X123443102Y-87554997D01*
X123433187Y-87517993D01*
X124029500Y-87517993D01*
X124029500Y-87649776D01*
X124063608Y-87777072D01*
X124079165Y-87804017D01*
X124129500Y-87891199D01*
X124222686Y-87984385D01*
X124336814Y-88050277D01*
X124464108Y-88084385D01*
X124464110Y-88084385D01*
X124603225Y-88084385D01*
X124670264Y-88104070D01*
X124716019Y-88156874D01*
X124722997Y-88176287D01*
X124733608Y-88215885D01*
X124799500Y-88330013D01*
X124892686Y-88423199D01*
X125006814Y-88489091D01*
X125134108Y-88523199D01*
X125134110Y-88523199D01*
X125265890Y-88523199D01*
X125265892Y-88523199D01*
X125393186Y-88489091D01*
X125507314Y-88423199D01*
X125600500Y-88330013D01*
X125666392Y-88215885D01*
X125700500Y-88088591D01*
X125700500Y-87956807D01*
X125666392Y-87829513D01*
X125665962Y-87828769D01*
X125636115Y-87777072D01*
X125600500Y-87715385D01*
X125507314Y-87622199D01*
X125450250Y-87589253D01*
X125393187Y-87556307D01*
X125329539Y-87539253D01*
X125265892Y-87522199D01*
X125134108Y-87522199D01*
X125126775Y-87522199D01*
X125059736Y-87502514D01*
X125013981Y-87449710D01*
X125007002Y-87430296D01*
X124996392Y-87390699D01*
X124930500Y-87276571D01*
X124837314Y-87183385D01*
X124780250Y-87150439D01*
X124723187Y-87117493D01*
X124659539Y-87100439D01*
X124595892Y-87083385D01*
X124464108Y-87083385D01*
X124336812Y-87117493D01*
X124222686Y-87183385D01*
X124222683Y-87183387D01*
X124129502Y-87276568D01*
X124129500Y-87276571D01*
X124063608Y-87390697D01*
X124029500Y-87517993D01*
X123433187Y-87517993D01*
X123408994Y-87427703D01*
X123343102Y-87313575D01*
X123249916Y-87220389D01*
X123185823Y-87183385D01*
X123135789Y-87154497D01*
X123072141Y-87137443D01*
X123008494Y-87120389D01*
X122876710Y-87120389D01*
X122749414Y-87154497D01*
X122635288Y-87220389D01*
X122635285Y-87220391D01*
X122542104Y-87313572D01*
X122542102Y-87313575D01*
X122476210Y-87427701D01*
X122442102Y-87554997D01*
X118538945Y-87554997D01*
X118597704Y-87543309D01*
X118779783Y-87467890D01*
X118786295Y-87463539D01*
X118815885Y-87443768D01*
X118875609Y-87403861D01*
X118943651Y-87358397D01*
X119083008Y-87219040D01*
X119192501Y-87055172D01*
X119204828Y-87025413D01*
X119237110Y-86947475D01*
X119267920Y-86873093D01*
X119273926Y-86842896D01*
X119279338Y-86815692D01*
X120179529Y-86815692D01*
X120179529Y-86947475D01*
X120213637Y-87074771D01*
X120238303Y-87117493D01*
X120279529Y-87188898D01*
X120372715Y-87282084D01*
X120486843Y-87347976D01*
X120614137Y-87382084D01*
X120614139Y-87382084D01*
X120745919Y-87382084D01*
X120745921Y-87382084D01*
X120873215Y-87347976D01*
X120987343Y-87282084D01*
X121080529Y-87188898D01*
X121146421Y-87074770D01*
X121180529Y-86947476D01*
X121180529Y-86815692D01*
X121146421Y-86688398D01*
X121080529Y-86574270D01*
X120987343Y-86481084D01*
X120930279Y-86448138D01*
X120873216Y-86415192D01*
X120809568Y-86398138D01*
X120745921Y-86381084D01*
X120614137Y-86381084D01*
X120486841Y-86415192D01*
X120372715Y-86481084D01*
X120372712Y-86481086D01*
X120279531Y-86574267D01*
X120279529Y-86574270D01*
X120213637Y-86688396D01*
X120179529Y-86815692D01*
X119279338Y-86815692D01*
X119285767Y-86783373D01*
X119306369Y-86679801D01*
X119306369Y-86482714D01*
X119267921Y-86289428D01*
X119267920Y-86289427D01*
X119267920Y-86289423D01*
X119264952Y-86282258D01*
X119192504Y-86107350D01*
X119192497Y-86107337D01*
X119094940Y-85961333D01*
X119094939Y-85961332D01*
X119083005Y-85943472D01*
X119040100Y-85900567D01*
X122344830Y-85900567D01*
X122344830Y-86032351D01*
X122359406Y-86086750D01*
X122378938Y-86159646D01*
X122408907Y-86211552D01*
X122444830Y-86273773D01*
X122538016Y-86366959D01*
X122652144Y-86432851D01*
X122779438Y-86466959D01*
X122779440Y-86466959D01*
X122911220Y-86466959D01*
X122911222Y-86466959D01*
X123038516Y-86432851D01*
X123152644Y-86366959D01*
X123245830Y-86273773D01*
X123311722Y-86159645D01*
X123345830Y-86032351D01*
X123345830Y-85900567D01*
X123311722Y-85773273D01*
X123245830Y-85659145D01*
X123226661Y-85639976D01*
X123193176Y-85578653D01*
X123198160Y-85508961D01*
X123238864Y-85453913D01*
X123243303Y-85450505D01*
X123243314Y-85450500D01*
X123336500Y-85357314D01*
X123402392Y-85243186D01*
X123436500Y-85115892D01*
X123436500Y-84984108D01*
X123402392Y-84856814D01*
X123369879Y-84800500D01*
X123366997Y-84795508D01*
X123885900Y-84795508D01*
X123885900Y-84927291D01*
X123920008Y-85054587D01*
X123952954Y-85111650D01*
X123985900Y-85168714D01*
X124079086Y-85261900D01*
X124193214Y-85327792D01*
X124262849Y-85346450D01*
X124322508Y-85382813D01*
X124353038Y-85445660D01*
X124344744Y-85515035D01*
X124338142Y-85528224D01*
X124283609Y-85622677D01*
X124283609Y-85622678D01*
X124283609Y-85622679D01*
X124283608Y-85622681D01*
X124249500Y-85749975D01*
X124249500Y-85881759D01*
X124254540Y-85900567D01*
X124283608Y-86009054D01*
X124316554Y-86066117D01*
X124349500Y-86123181D01*
X124442686Y-86216367D01*
X124556814Y-86282259D01*
X124684108Y-86316367D01*
X124684110Y-86316367D01*
X124815890Y-86316367D01*
X124815892Y-86316367D01*
X124943186Y-86282259D01*
X125057314Y-86216367D01*
X125150500Y-86123181D01*
X125216392Y-86009053D01*
X125250500Y-85881759D01*
X125250500Y-85749975D01*
X125216392Y-85622681D01*
X125150500Y-85508553D01*
X125057314Y-85415367D01*
X125000250Y-85382421D01*
X124943187Y-85349475D01*
X124917712Y-85342649D01*
X124873549Y-85330816D01*
X124813890Y-85294452D01*
X124783361Y-85231605D01*
X124791656Y-85162230D01*
X124798248Y-85149057D01*
X124852792Y-85054586D01*
X124886900Y-84927292D01*
X124886900Y-84795508D01*
X124852792Y-84668214D01*
X124786900Y-84554086D01*
X124693714Y-84460900D01*
X124620000Y-84418341D01*
X124579587Y-84395008D01*
X124515939Y-84377954D01*
X124452292Y-84360900D01*
X124320508Y-84360900D01*
X124193212Y-84395008D01*
X124079086Y-84460900D01*
X124079083Y-84460902D01*
X123985902Y-84554083D01*
X123985900Y-84554086D01*
X123920008Y-84668212D01*
X123885900Y-84795508D01*
X123366997Y-84795508D01*
X123336502Y-84742689D01*
X123336497Y-84742683D01*
X123243316Y-84649502D01*
X123243314Y-84649500D01*
X123186250Y-84616554D01*
X123129187Y-84583608D01*
X123060131Y-84565105D01*
X123001892Y-84549500D01*
X122870108Y-84549500D01*
X122742812Y-84583608D01*
X122628686Y-84649500D01*
X122628683Y-84649502D01*
X122535502Y-84742683D01*
X122535500Y-84742686D01*
X122469608Y-84856812D01*
X122440108Y-84966909D01*
X122435500Y-84984108D01*
X122435500Y-85115892D01*
X122449654Y-85168716D01*
X122469608Y-85243187D01*
X122502554Y-85300250D01*
X122535500Y-85357314D01*
X122535502Y-85357316D01*
X122554668Y-85376482D01*
X122588153Y-85437805D01*
X122583169Y-85507497D01*
X122542475Y-85562538D01*
X122538013Y-85565961D01*
X122444832Y-85659142D01*
X122444830Y-85659145D01*
X122378938Y-85773271D01*
X122348558Y-85886655D01*
X122344830Y-85900567D01*
X119040100Y-85900567D01*
X118943654Y-85804121D01*
X118943650Y-85804118D01*
X118779789Y-85694629D01*
X118779776Y-85694622D01*
X118597708Y-85619208D01*
X118597698Y-85619205D01*
X118404412Y-85580758D01*
X118404410Y-85580758D01*
X118207328Y-85580758D01*
X118207326Y-85580758D01*
X118014039Y-85619205D01*
X118014029Y-85619208D01*
X117831961Y-85694622D01*
X117831948Y-85694629D01*
X117668087Y-85804118D01*
X117668083Y-85804121D01*
X117528732Y-85943472D01*
X117528729Y-85943476D01*
X117419240Y-86107337D01*
X117419233Y-86107350D01*
X117343819Y-86289418D01*
X117343816Y-86289428D01*
X117305369Y-86482714D01*
X117305369Y-86482717D01*
X117305369Y-86679799D01*
X117305369Y-86679801D01*
X117305368Y-86679801D01*
X116554031Y-86679801D01*
X116538100Y-86652208D01*
X116444914Y-86559022D01*
X116387850Y-86526076D01*
X116330787Y-86493130D01*
X116267139Y-86476076D01*
X116203492Y-86459022D01*
X116071708Y-86459022D01*
X115944412Y-86493130D01*
X115830286Y-86559022D01*
X115830283Y-86559024D01*
X115737102Y-86652205D01*
X115737100Y-86652208D01*
X115671208Y-86766334D01*
X115637100Y-86893630D01*
X115637100Y-87025413D01*
X115671208Y-87152709D01*
X115704154Y-87209772D01*
X115737100Y-87266836D01*
X115737102Y-87266838D01*
X115778498Y-87308234D01*
X115811983Y-87369557D01*
X115806999Y-87439249D01*
X115778499Y-87483596D01*
X115699500Y-87562595D01*
X115633608Y-87676721D01*
X115617109Y-87738298D01*
X115599500Y-87804017D01*
X113240478Y-87804017D01*
X113231592Y-87770853D01*
X113165700Y-87656725D01*
X113072514Y-87563539D01*
X113066390Y-87560003D01*
X113061996Y-87557466D01*
X113013783Y-87506897D01*
X113000000Y-87450081D01*
X113000000Y-83362909D01*
X113019685Y-83295870D01*
X113072489Y-83250115D01*
X113085675Y-83244980D01*
X113263379Y-83187241D01*
X113487845Y-83072870D01*
X113691656Y-82924793D01*
X113869793Y-82746656D01*
X114017870Y-82542845D01*
X114132241Y-82318379D01*
X114210090Y-82078785D01*
X114249500Y-81829962D01*
X114249500Y-81578038D01*
X114210090Y-81329215D01*
X114132241Y-81089621D01*
X114132239Y-81089618D01*
X114132239Y-81089616D01*
X114079835Y-80986769D01*
X114039355Y-80907322D01*
X114026460Y-80838656D01*
X114052736Y-80773915D01*
X114109842Y-80733658D01*
X114149747Y-80727030D01*
X114472768Y-80726792D01*
X114539819Y-80746427D01*
X114585612Y-80799197D01*
X114595607Y-80868349D01*
X114575958Y-80919683D01*
X114531132Y-80986769D01*
X114531131Y-80986770D01*
X114519500Y-81045247D01*
X114519500Y-82784752D01*
X114531131Y-82843229D01*
X114531132Y-82843230D01*
X114575447Y-82909552D01*
X114641769Y-82953867D01*
X114641770Y-82953868D01*
X114700247Y-82965499D01*
X114700250Y-82965500D01*
X114700252Y-82965500D01*
X115814534Y-82965500D01*
X115881573Y-82985185D01*
X115927328Y-83037989D01*
X115937272Y-83107147D01*
X115921922Y-83151497D01*
X115905505Y-83179933D01*
X115861117Y-83256813D01*
X115855898Y-83276291D01*
X115827009Y-83384109D01*
X115827009Y-83515893D01*
X115831890Y-83534108D01*
X115861117Y-83643188D01*
X115880518Y-83676791D01*
X115927009Y-83757315D01*
X116020195Y-83850501D01*
X116118596Y-83907313D01*
X116127266Y-83912319D01*
X116134323Y-83916393D01*
X116229378Y-83941862D01*
X116289038Y-83978227D01*
X116319567Y-84041074D01*
X116317059Y-84093729D01*
X116299500Y-84159261D01*
X116299500Y-84291046D01*
X116333608Y-84418342D01*
X116358181Y-84460902D01*
X116399500Y-84532469D01*
X116492686Y-84625655D01*
X116606814Y-84691547D01*
X116734108Y-84725655D01*
X116734110Y-84725655D01*
X116865890Y-84725655D01*
X116865892Y-84725655D01*
X116993186Y-84691547D01*
X117107314Y-84625655D01*
X117200500Y-84532469D01*
X117200504Y-84532461D01*
X117205448Y-84526020D01*
X117207170Y-84527341D01*
X117249465Y-84486997D01*
X117318070Y-84473759D01*
X117382940Y-84499713D01*
X117423480Y-84556619D01*
X117426083Y-84565105D01*
X117433607Y-84593184D01*
X117433607Y-84593185D01*
X117452352Y-84625652D01*
X117499500Y-84707314D01*
X117592686Y-84800500D01*
X117706814Y-84866392D01*
X117834108Y-84900500D01*
X117834110Y-84900500D01*
X117965890Y-84900500D01*
X117965892Y-84900500D01*
X118093186Y-84866392D01*
X118147338Y-84835127D01*
X120459500Y-84835127D01*
X120459500Y-84966911D01*
X120476554Y-85030558D01*
X120493608Y-85094206D01*
X120504768Y-85113535D01*
X120559500Y-85208333D01*
X120652686Y-85301519D01*
X120766814Y-85367411D01*
X120894108Y-85401519D01*
X120894110Y-85401519D01*
X121025890Y-85401519D01*
X121025892Y-85401519D01*
X121153186Y-85367411D01*
X121267314Y-85301519D01*
X121360500Y-85208333D01*
X121426392Y-85094205D01*
X121460500Y-84966911D01*
X121460500Y-84835127D01*
X121426392Y-84707833D01*
X121426092Y-84707314D01*
X121378946Y-84625655D01*
X121360500Y-84593705D01*
X121267314Y-84500519D01*
X121198689Y-84460898D01*
X121153187Y-84434627D01*
X121089539Y-84417573D01*
X121025892Y-84400519D01*
X120894108Y-84400519D01*
X120766812Y-84434627D01*
X120652686Y-84500519D01*
X120652683Y-84500521D01*
X120559502Y-84593702D01*
X120559500Y-84593705D01*
X120493608Y-84707831D01*
X120485171Y-84739319D01*
X120459500Y-84835127D01*
X118147338Y-84835127D01*
X118207314Y-84800500D01*
X118300500Y-84707314D01*
X118366392Y-84593186D01*
X118400500Y-84465892D01*
X118400500Y-84347247D01*
X126604900Y-84347247D01*
X126604900Y-86086752D01*
X126616531Y-86145229D01*
X126616532Y-86145230D01*
X126660847Y-86211552D01*
X126727169Y-86255867D01*
X126727170Y-86255868D01*
X126785647Y-86267499D01*
X126785650Y-86267500D01*
X126785652Y-86267500D01*
X128525150Y-86267500D01*
X128525151Y-86267499D01*
X128539968Y-86264552D01*
X128583629Y-86255868D01*
X128583629Y-86255867D01*
X128583631Y-86255867D01*
X128649952Y-86211552D01*
X128694267Y-86145231D01*
X128694267Y-86145229D01*
X128694268Y-86145229D01*
X128705899Y-86086752D01*
X128705900Y-86086750D01*
X128705900Y-85113530D01*
X129144900Y-85113530D01*
X129144900Y-85320469D01*
X129185268Y-85523412D01*
X129185270Y-85523420D01*
X129256187Y-85694629D01*
X129264459Y-85714598D01*
X129303663Y-85773271D01*
X129379424Y-85886657D01*
X129525742Y-86032975D01*
X129525745Y-86032977D01*
X129697802Y-86147941D01*
X129888980Y-86227130D01*
X130033452Y-86255867D01*
X130091930Y-86267499D01*
X130091934Y-86267500D01*
X130091935Y-86267500D01*
X130298866Y-86267500D01*
X130298867Y-86267499D01*
X130501820Y-86227130D01*
X130692998Y-86147941D01*
X130865055Y-86032977D01*
X131011377Y-85886655D01*
X131126341Y-85714598D01*
X131205530Y-85523420D01*
X131245900Y-85320465D01*
X131245900Y-85113535D01*
X131205530Y-84910580D01*
X131126341Y-84719402D01*
X131011377Y-84547345D01*
X131011375Y-84547342D01*
X130865057Y-84401024D01*
X130700463Y-84291047D01*
X130692998Y-84286059D01*
X130501820Y-84206870D01*
X130501812Y-84206868D01*
X130298869Y-84166500D01*
X130298865Y-84166500D01*
X130091935Y-84166500D01*
X130091930Y-84166500D01*
X129888987Y-84206868D01*
X129888979Y-84206870D01*
X129697803Y-84286058D01*
X129525742Y-84401024D01*
X129379424Y-84547342D01*
X129264458Y-84719403D01*
X129185270Y-84910579D01*
X129185268Y-84910587D01*
X129144900Y-85113530D01*
X128705900Y-85113530D01*
X128705900Y-84347249D01*
X128705899Y-84347247D01*
X128694268Y-84288770D01*
X128694267Y-84288769D01*
X128649952Y-84222447D01*
X128583630Y-84178132D01*
X128583629Y-84178131D01*
X128525152Y-84166500D01*
X128525148Y-84166500D01*
X126785652Y-84166500D01*
X126785647Y-84166500D01*
X126727170Y-84178131D01*
X126727169Y-84178132D01*
X126660847Y-84222447D01*
X126616532Y-84288769D01*
X126616531Y-84288770D01*
X126604900Y-84347247D01*
X118400500Y-84347247D01*
X118400500Y-84334108D01*
X118366392Y-84206814D01*
X118300500Y-84092686D01*
X118295495Y-84087681D01*
X118262010Y-84026358D01*
X118266994Y-83956666D01*
X118295495Y-83912319D01*
X118300500Y-83907314D01*
X118366392Y-83793186D01*
X118400500Y-83665892D01*
X118400500Y-83534108D01*
X118366392Y-83406814D01*
X118300500Y-83292686D01*
X118207314Y-83199500D01*
X118184214Y-83186163D01*
X118176550Y-83179933D01*
X118162118Y-83158957D01*
X118148342Y-83144508D01*
X126499500Y-83144508D01*
X126499500Y-83276291D01*
X126533608Y-83403587D01*
X126566554Y-83460650D01*
X126599500Y-83517714D01*
X126692686Y-83610900D01*
X126806814Y-83676792D01*
X126934108Y-83710900D01*
X126934110Y-83710900D01*
X127065890Y-83710900D01*
X127065892Y-83710900D01*
X127193186Y-83676792D01*
X127307314Y-83610900D01*
X127400500Y-83517714D01*
X127466392Y-83403586D01*
X127500500Y-83276292D01*
X127500500Y-83144508D01*
X127466392Y-83017214D01*
X127400500Y-82903086D01*
X127307314Y-82809900D01*
X127250250Y-82776954D01*
X127193187Y-82744008D01*
X127129539Y-82726954D01*
X127065892Y-82709900D01*
X126934108Y-82709900D01*
X126806812Y-82744008D01*
X126692686Y-82809900D01*
X126692683Y-82809902D01*
X126599502Y-82903083D01*
X126599500Y-82903086D01*
X126533608Y-83017212D01*
X126499500Y-83144508D01*
X118148342Y-83144508D01*
X118144549Y-83140530D01*
X118142646Y-83130655D01*
X118136946Y-83122371D01*
X118136145Y-83096921D01*
X118131328Y-83071923D01*
X118135065Y-83062588D01*
X118134749Y-83052536D01*
X118147834Y-83030694D01*
X118157297Y-83007059D01*
X118165489Y-83001225D01*
X118170657Y-82992600D01*
X118193471Y-82981300D01*
X118214213Y-82966532D01*
X118230556Y-82962100D01*
X118416420Y-82925130D01*
X118607598Y-82845941D01*
X118779655Y-82730977D01*
X118925977Y-82584655D01*
X119040941Y-82412598D01*
X119120130Y-82221420D01*
X119160500Y-82018465D01*
X119160500Y-81811535D01*
X119120130Y-81608580D01*
X119040941Y-81417402D01*
X118925977Y-81245345D01*
X118925975Y-81245342D01*
X118779657Y-81099024D01*
X118607597Y-80984058D01*
X118555109Y-80962317D01*
X118500706Y-80918475D01*
X118478642Y-80852181D01*
X118495922Y-80784482D01*
X118547059Y-80736872D01*
X118602468Y-80723756D01*
X120160111Y-80722611D01*
X120227163Y-80742246D01*
X120272956Y-80795017D01*
X120282951Y-80864168D01*
X120253973Y-80927745D01*
X120207655Y-80961171D01*
X120152404Y-80984057D01*
X119980342Y-81099024D01*
X119834024Y-81245342D01*
X119719058Y-81417403D01*
X119639870Y-81608579D01*
X119639868Y-81608587D01*
X119599500Y-81811530D01*
X119599500Y-82018469D01*
X119639868Y-82221412D01*
X119639870Y-82221420D01*
X119719058Y-82412596D01*
X119834024Y-82584657D01*
X119980342Y-82730975D01*
X119980345Y-82730977D01*
X120152402Y-82845941D01*
X120343580Y-82925130D01*
X120488052Y-82953867D01*
X120546530Y-82965499D01*
X120546534Y-82965500D01*
X120546535Y-82965500D01*
X120753466Y-82965500D01*
X120753467Y-82965499D01*
X120956420Y-82925130D01*
X121147598Y-82845941D01*
X121319655Y-82730977D01*
X121465977Y-82584655D01*
X121580941Y-82412598D01*
X121660130Y-82221420D01*
X121700500Y-82018465D01*
X121700500Y-81811535D01*
X121660130Y-81608580D01*
X121580941Y-81417402D01*
X121465977Y-81245345D01*
X121465975Y-81245342D01*
X121319657Y-81099024D01*
X121147597Y-80984058D01*
X121090609Y-80960453D01*
X121036206Y-80916611D01*
X121014142Y-80850317D01*
X121031422Y-80782618D01*
X121082559Y-80735008D01*
X121137968Y-80721892D01*
X122704626Y-80720741D01*
X122771680Y-80740376D01*
X122817473Y-80793147D01*
X122827468Y-80862298D01*
X122798490Y-80925875D01*
X122752170Y-80959302D01*
X122692403Y-80984057D01*
X122520342Y-81099024D01*
X122374024Y-81245342D01*
X122259058Y-81417403D01*
X122179870Y-81608579D01*
X122179868Y-81608587D01*
X122139500Y-81811530D01*
X122139500Y-82018469D01*
X122179868Y-82221412D01*
X122179870Y-82221420D01*
X122259058Y-82412596D01*
X122374024Y-82584657D01*
X122520342Y-82730975D01*
X122520345Y-82730977D01*
X122692402Y-82845941D01*
X122883580Y-82925130D01*
X123028052Y-82953867D01*
X123086530Y-82965499D01*
X123086534Y-82965500D01*
X123086535Y-82965500D01*
X123293466Y-82965500D01*
X123293467Y-82965499D01*
X123496420Y-82925130D01*
X123687598Y-82845941D01*
X123859655Y-82730977D01*
X124005977Y-82584655D01*
X124120941Y-82412598D01*
X124200130Y-82221420D01*
X124240500Y-82018465D01*
X124240500Y-81811535D01*
X124200130Y-81608580D01*
X124120941Y-81417402D01*
X124005977Y-81245345D01*
X124005975Y-81245342D01*
X123859657Y-81099024D01*
X123687597Y-80984058D01*
X123626109Y-80958589D01*
X123571706Y-80914747D01*
X123549642Y-80848453D01*
X123566922Y-80780754D01*
X123618059Y-80733144D01*
X123673468Y-80720028D01*
X125249143Y-80718870D01*
X125316196Y-80738505D01*
X125361989Y-80791276D01*
X125371984Y-80860427D01*
X125343006Y-80924004D01*
X125296686Y-80957431D01*
X125232404Y-80984057D01*
X125060342Y-81099024D01*
X124914024Y-81245342D01*
X124799058Y-81417403D01*
X124719870Y-81608579D01*
X124719868Y-81608587D01*
X124679500Y-81811530D01*
X124679500Y-82018469D01*
X124719868Y-82221412D01*
X124719870Y-82221420D01*
X124799058Y-82412596D01*
X124914024Y-82584657D01*
X125060342Y-82730975D01*
X125060345Y-82730977D01*
X125232402Y-82845941D01*
X125423580Y-82925130D01*
X125568052Y-82953867D01*
X125626530Y-82965499D01*
X125626534Y-82965500D01*
X125626535Y-82965500D01*
X125833466Y-82965500D01*
X125833467Y-82965499D01*
X126036420Y-82925130D01*
X126227598Y-82845941D01*
X126399655Y-82730977D01*
X126545977Y-82584655D01*
X126660941Y-82412598D01*
X126740130Y-82221420D01*
X126780500Y-82018465D01*
X126780500Y-81811535D01*
X126740130Y-81608580D01*
X126660941Y-81417402D01*
X126545977Y-81245345D01*
X126545975Y-81245342D01*
X126399657Y-81099024D01*
X126227597Y-80984058D01*
X126161609Y-80956725D01*
X126107206Y-80912883D01*
X126085142Y-80846589D01*
X126102422Y-80778890D01*
X126153559Y-80731280D01*
X126208969Y-80718164D01*
X127793660Y-80716999D01*
X127860712Y-80736634D01*
X127906505Y-80789405D01*
X127916500Y-80858556D01*
X127887522Y-80922133D01*
X127841203Y-80955560D01*
X127772402Y-80984058D01*
X127600342Y-81099024D01*
X127454024Y-81245342D01*
X127339058Y-81417403D01*
X127259870Y-81608579D01*
X127259868Y-81608587D01*
X127219500Y-81811530D01*
X127219500Y-82018469D01*
X127259868Y-82221412D01*
X127259870Y-82221420D01*
X127339058Y-82412596D01*
X127454024Y-82584657D01*
X127600342Y-82730975D01*
X127600345Y-82730977D01*
X127772402Y-82845941D01*
X127963580Y-82925130D01*
X128108052Y-82953867D01*
X128166530Y-82965499D01*
X128166534Y-82965500D01*
X128166535Y-82965500D01*
X128373466Y-82965500D01*
X128373467Y-82965499D01*
X128576420Y-82925130D01*
X128767598Y-82845941D01*
X128939655Y-82730977D01*
X129085977Y-82584655D01*
X129200941Y-82412598D01*
X129280130Y-82221420D01*
X129320500Y-82018465D01*
X129320500Y-81811535D01*
X129280130Y-81608580D01*
X129200941Y-81417402D01*
X129085977Y-81245345D01*
X129085975Y-81245342D01*
X128939657Y-81099024D01*
X128767595Y-80984057D01*
X128697109Y-80954861D01*
X128642706Y-80911020D01*
X128620641Y-80844725D01*
X128637920Y-80777026D01*
X128689058Y-80729416D01*
X128744468Y-80716300D01*
X130338177Y-80715128D01*
X130405228Y-80734763D01*
G37*
G04 #@! TD.AperFunction*
G04 #@! TD*
M02*
