M48
; DRILL file KiCad 10.0.3 date 2026-07-10T21:25:51
; FORMAT={-:-/ absolute / metric / decimal}
; #@! TF.CreationDate,2026-07-10T21:25:51-07:00
; #@! TF.GenerationSoftware,Kicad,Pcbnew,10.0.3
; #@! TF.FileFunction,Plated,1,4,PTH
FMAT,2
METRIC
; #@! TA.AperFunction,Plated,PTH,ViaDrill
T1C0.300
; #@! TA.AperFunction,Plated,PTH,ComponentDrill
T2C0.800
; #@! TA.AperFunction,Plated,PTH,ComponentDrill
T3C0.900
; #@! TA.AperFunction,Plated,PTH,ComponentDrill
T4C1.000
; #@! TA.AperFunction,Plated,PTH,ComponentDrill
T5C1.200
; #@! TA.AperFunction,Plated,PTH,ComponentDrill
T6C1.600
%
G90
G05
T1
X88.0Y-82.0
X88.976Y-88.646
X92.659Y-83.307
X95.834Y-88.109
X95.834Y-95.194
X96.799Y-89.789
X97.079Y-91.669
X97.1Y-86.3
X98.222Y-83.744
X100.0Y-84.75
X100.05Y-83.35
X102.446Y-86.691
X102.903Y-85.427
X103.35Y-83.4
X103.4Y-90.6
X106.132Y-88.92
X106.136Y-84.208
X107.288Y-85.443
X107.34Y-88.341
X108.052Y-93.98
X108.052Y-95.529
X109.195Y-87.2
X109.203Y-99.358
X110.16Y-84.433
X111.264Y-88.643
X111.963Y-92.76
X112.003Y-88.771
X112.081Y-91.389
X112.417Y-90.597
X112.765Y-87.964
X112.85Y-89.95
X112.943Y-92.293
X113.081Y-94.513
X113.614Y-91.618
X113.801Y-96.672
X113.842Y-93.446
X114.2Y-83.1
X114.303Y-97.443
X114.372Y-94.073
X114.805Y-95.539
X114.867Y-94.732
X114.992Y-96.577
X115.548Y-89.595
X116.1Y-87.87
X116.138Y-86.96
X116.273Y-92.287
X116.328Y-83.45
X116.8Y-84.225
X116.998Y-89.899
X117.119Y-94.673
X117.272Y-96.545
X117.704Y-90.449
X117.729Y-93.828
X117.9Y-83.6
X117.9Y-84.4
X118.528Y-90.239
X118.542Y-93.811
X118.651Y-91.575
X118.73Y-89.0
X119.182Y-92.323
X119.27Y-84.75
X119.355Y-98.171
X119.641Y-90.849
X119.71Y-92.973
X119.736Y-95.885
X120.68Y-86.882
X120.96Y-84.901
X121.006Y-95.775
X121.919Y-93.76
X121.927Y-88.75
X122.057Y-91.848
X122.2Y-91.1
X122.845Y-85.966
X122.936Y-85.05
X122.943Y-87.621
X123.2Y-92.5
X123.271Y-88.295
X123.351Y-95.773
X123.5Y-97.5
X123.608Y-93.671
X124.179Y-89.123
X124.386Y-84.861
X124.511Y-100.33
X124.53Y-87.584
X124.73Y-96.311
X124.75Y-85.816
X124.798Y-94.31
X125.171Y-93.091
X125.2Y-88.023
X125.375Y-95.883
X125.55Y-97.963
X127.0Y-83.21
X127.1Y-89.008
X127.45Y-96.95
X127.867Y-92.688
X128.291Y-89.419
X128.95Y-93.65
X129.2Y-97.75
X129.55Y-100.25
X131.01Y-96.5
T2
X110.806Y-86.581
X118.306Y-86.581
T3
X125.349Y-90.78
X127.889Y-90.78
X130.429Y-90.78
T4
X101.5Y-81.925
X104.04Y-81.925
X106.58Y-81.925
X109.12Y-81.925
X115.57Y-81.915
X115.57Y-99.492
X118.11Y-81.915
X118.11Y-99.492
X120.65Y-81.915
X120.65Y-99.492
X123.19Y-81.915
X123.19Y-99.492
X125.73Y-81.915
X125.73Y-99.492
X127.655Y-85.217
X128.27Y-81.915
X128.27Y-99.492
X130.195Y-85.217
X130.81Y-81.915
X130.81Y-99.492
T5
X94.996Y-97.765
X95.631Y-83.795
X99.441Y-87.922
X99.441Y-93.637
X100.076Y-90.78
T6
X83.566Y-99.035
X92.456Y-86.335
X92.456Y-95.225
M30
