G04 #@! TF.GenerationSoftware,KiCad,Pcbnew,10.0.3*
G04 #@! TF.CreationDate,2026-07-08T22:23:12-07:00*
G04 #@! TF.ProjectId,scramble_hat,73637261-6d62-46c6-955f-6861742e6b69,rev?*
G04 #@! TF.SameCoordinates,Original*
G04 #@! TF.FileFunction,Copper,L4,Bot*
G04 #@! TF.FilePolarity,Positive*
%FSLAX46Y46*%
G04 Gerber Fmt 4.6, Leading zero omitted, Abs format (unit mm)*
G04 Created by KiCad (PCBNEW 10.0.3) date 2026-07-08 22:23:12*
%MOMM*%
%LPD*%
G01*
G04 APERTURE LIST*
G04 Aperture macros list*
%AMRoundRect*
0 Rectangle with rounded corners*
0 $1 Rounding radius*
0 $2 $3 $4 $5 $6 $7 $8 $9 X,Y pos of 4 corners*
0 Add a 4 corners polygon primitive as box body*
4,1,4,$2,$3,$4,$5,$6,$7,$8,$9,$2,$3,0*
0 Add four circle primitives for the rounded corners*
1,1,$1+$1,$2,$3*
1,1,$1+$1,$4,$5*
1,1,$1+$1,$6,$7*
1,1,$1+$1,$8,$9*
0 Add four rect primitives between the rounded corners*
20,1,$1+$1,$2,$3,$4,$5,0*
20,1,$1+$1,$4,$5,$6,$7,0*
20,1,$1+$1,$6,$7,$8,$9,0*
20,1,$1+$1,$8,$9,$2,$3,0*%
%AMFreePoly0*
4,1,14,0.363284,0.088284,0.375000,0.060000,0.375000,-0.060000,0.363284,-0.088284,0.335000,-0.100000,-0.335000,-0.100000,-0.363284,-0.088284,-0.375000,-0.060000,-0.375000,-0.036569,-0.363284,-0.008285,-0.266715,0.088284,-0.238431,0.100000,0.335000,0.100000,0.363284,0.088284,0.363284,0.088284,$1*%
%AMFreePoly1*
4,1,14,0.363284,0.088284,0.375000,0.060000,0.375000,-0.060000,0.363284,-0.088284,0.335000,-0.100000,-0.238431,-0.100000,-0.266715,-0.088284,-0.363284,0.008285,-0.375000,0.036569,-0.375000,0.060000,-0.363284,0.088284,-0.335000,0.100000,0.335000,0.100000,0.363284,0.088284,0.363284,0.088284,$1*%
%AMFreePoly2*
4,1,14,-0.008285,0.363284,0.088284,0.266715,0.100000,0.238431,0.100000,-0.335000,0.088284,-0.363284,0.060000,-0.375000,-0.060000,-0.375000,-0.088284,-0.363284,-0.100000,-0.335000,-0.100000,0.335000,-0.088284,0.363284,-0.060000,0.375000,-0.036569,0.375000,-0.008285,0.363284,-0.008285,0.363284,$1*%
%AMFreePoly3*
4,1,14,0.088284,0.363284,0.100000,0.335000,0.100000,-0.335000,0.088284,-0.363284,0.060000,-0.375000,-0.060000,-0.375000,-0.088284,-0.363284,-0.100000,-0.335000,-0.100000,0.238431,-0.088284,0.266715,0.008285,0.363284,0.036569,0.375000,0.060000,0.375000,0.088284,0.363284,0.088284,0.363284,$1*%
%AMFreePoly4*
4,1,14,0.363284,0.088284,0.375000,0.060000,0.375000,0.036569,0.363284,0.008285,0.266715,-0.088284,0.238431,-0.100000,-0.335000,-0.100000,-0.363284,-0.088284,-0.375000,-0.060000,-0.375000,0.060000,-0.363284,0.088284,-0.335000,0.100000,0.335000,0.100000,0.363284,0.088284,0.363284,0.088284,$1*%
%AMFreePoly5*
4,1,14,0.266715,0.088284,0.363284,-0.008285,0.375000,-0.036569,0.375000,-0.060000,0.363284,-0.088284,0.335000,-0.100000,-0.335000,-0.100000,-0.363284,-0.088284,-0.375000,-0.060000,-0.375000,0.060000,-0.363284,0.088284,-0.335000,0.100000,0.238431,0.100000,0.266715,0.088284,0.266715,0.088284,$1*%
%AMFreePoly6*
4,1,14,0.088284,0.363284,0.100000,0.335000,0.100000,-0.335000,0.088284,-0.363284,0.060000,-0.375000,0.036569,-0.375000,0.008285,-0.363284,-0.088284,-0.266715,-0.100000,-0.238431,-0.100000,0.335000,-0.088284,0.363284,-0.060000,0.375000,0.060000,0.375000,0.088284,0.363284,0.088284,0.363284,$1*%
%AMFreePoly7*
4,1,14,0.088284,0.363284,0.100000,0.335000,0.100000,-0.238431,0.088284,-0.266715,-0.008285,-0.363284,-0.036569,-0.375000,-0.060000,-0.375000,-0.088284,-0.363284,-0.100000,-0.335000,-0.100000,0.335000,-0.088284,0.363284,-0.060000,0.375000,0.060000,0.375000,0.088284,0.363284,0.088284,0.363284,$1*%
G04 Aperture macros list end*
G04 #@! TA.AperFunction,ComponentPad*
%ADD10R,1.700000X1.700000*%
G04 #@! TD*
G04 #@! TA.AperFunction,ComponentPad*
%ADD11C,1.700000*%
G04 #@! TD*
G04 #@! TA.AperFunction,ComponentPad*
%ADD12C,1.600000*%
G04 #@! TD*
G04 #@! TA.AperFunction,ComponentPad*
%ADD13C,2.900000*%
G04 #@! TD*
G04 #@! TA.AperFunction,ComponentPad*
%ADD14C,2.700000*%
G04 #@! TD*
G04 #@! TA.AperFunction,ComponentPad*
%ADD15C,3.200000*%
G04 #@! TD*
G04 #@! TA.AperFunction,ComponentPad*
%ADD16C,3.400000*%
G04 #@! TD*
G04 #@! TA.AperFunction,SMDPad,CuDef*
%ADD17RoundRect,0.150000X-0.662500X-0.150000X0.662500X-0.150000X0.662500X0.150000X-0.662500X0.150000X0*%
G04 #@! TD*
G04 #@! TA.AperFunction,SMDPad,CuDef*
%ADD18RoundRect,0.140000X0.140000X0.170000X-0.140000X0.170000X-0.140000X-0.170000X0.140000X-0.170000X0*%
G04 #@! TD*
G04 #@! TA.AperFunction,SMDPad,CuDef*
%ADD19RoundRect,0.087500X-0.425000X-0.087500X0.425000X-0.087500X0.425000X0.087500X-0.425000X0.087500X0*%
G04 #@! TD*
G04 #@! TA.AperFunction,SMDPad,CuDef*
%ADD20RoundRect,0.135000X0.135000X0.185000X-0.135000X0.185000X-0.135000X-0.185000X0.135000X-0.185000X0*%
G04 #@! TD*
G04 #@! TA.AperFunction,SMDPad,CuDef*
%ADD21RoundRect,0.135000X-0.135000X-0.185000X0.135000X-0.185000X0.135000X0.185000X-0.135000X0.185000X0*%
G04 #@! TD*
G04 #@! TA.AperFunction,SMDPad,CuDef*
%ADD22RoundRect,0.140000X-0.140000X-0.170000X0.140000X-0.170000X0.140000X0.170000X-0.140000X0.170000X0*%
G04 #@! TD*
G04 #@! TA.AperFunction,SMDPad,CuDef*
%ADD23RoundRect,0.250000X-0.450000X0.262500X-0.450000X-0.262500X0.450000X-0.262500X0.450000X0.262500X0*%
G04 #@! TD*
G04 #@! TA.AperFunction,SMDPad,CuDef*
%ADD24RoundRect,0.225000X-0.375000X0.225000X-0.375000X-0.225000X0.375000X-0.225000X0.375000X0.225000X0*%
G04 #@! TD*
G04 #@! TA.AperFunction,SMDPad,CuDef*
%ADD25RoundRect,0.250000X0.475000X-0.250000X0.475000X0.250000X-0.475000X0.250000X-0.475000X-0.250000X0*%
G04 #@! TD*
G04 #@! TA.AperFunction,SMDPad,CuDef*
%ADD26RoundRect,0.250000X-0.650000X0.325000X-0.650000X-0.325000X0.650000X-0.325000X0.650000X0.325000X0*%
G04 #@! TD*
G04 #@! TA.AperFunction,SMDPad,CuDef*
%ADD27RoundRect,0.218750X0.218750X0.256250X-0.218750X0.256250X-0.218750X-0.256250X0.218750X-0.256250X0*%
G04 #@! TD*
G04 #@! TA.AperFunction,ComponentPad*
%ADD28O,1.600000X1.600000*%
G04 #@! TD*
G04 #@! TA.AperFunction,SMDPad,CuDef*
%ADD29RoundRect,0.140000X0.170000X-0.140000X0.170000X0.140000X-0.170000X0.140000X-0.170000X-0.140000X0*%
G04 #@! TD*
G04 #@! TA.AperFunction,SMDPad,CuDef*
%ADD30RoundRect,0.250000X-0.250000X-0.475000X0.250000X-0.475000X0.250000X0.475000X-0.250000X0.475000X0*%
G04 #@! TD*
G04 #@! TA.AperFunction,SMDPad,CuDef*
%ADD31RoundRect,0.150000X-0.587500X-0.150000X0.587500X-0.150000X0.587500X0.150000X-0.587500X0.150000X0*%
G04 #@! TD*
G04 #@! TA.AperFunction,SMDPad,CuDef*
%ADD32RoundRect,0.250000X-0.475000X0.250000X-0.475000X-0.250000X0.475000X-0.250000X0.475000X0.250000X0*%
G04 #@! TD*
G04 #@! TA.AperFunction,SMDPad,CuDef*
%ADD33RoundRect,0.243750X0.243750X0.456250X-0.243750X0.456250X-0.243750X-0.456250X0.243750X-0.456250X0*%
G04 #@! TD*
G04 #@! TA.AperFunction,SMDPad,CuDef*
%ADD34FreePoly0,0.000000*%
G04 #@! TD*
G04 #@! TA.AperFunction,SMDPad,CuDef*
%ADD35RoundRect,0.050000X-0.325000X-0.050000X0.325000X-0.050000X0.325000X0.050000X-0.325000X0.050000X0*%
G04 #@! TD*
G04 #@! TA.AperFunction,SMDPad,CuDef*
%ADD36FreePoly1,0.000000*%
G04 #@! TD*
G04 #@! TA.AperFunction,SMDPad,CuDef*
%ADD37FreePoly2,0.000000*%
G04 #@! TD*
G04 #@! TA.AperFunction,SMDPad,CuDef*
%ADD38RoundRect,0.050000X-0.050000X-0.325000X0.050000X-0.325000X0.050000X0.325000X-0.050000X0.325000X0*%
G04 #@! TD*
G04 #@! TA.AperFunction,SMDPad,CuDef*
%ADD39FreePoly3,0.000000*%
G04 #@! TD*
G04 #@! TA.AperFunction,SMDPad,CuDef*
%ADD40FreePoly4,0.000000*%
G04 #@! TD*
G04 #@! TA.AperFunction,SMDPad,CuDef*
%ADD41FreePoly5,0.000000*%
G04 #@! TD*
G04 #@! TA.AperFunction,SMDPad,CuDef*
%ADD42FreePoly6,0.000000*%
G04 #@! TD*
G04 #@! TA.AperFunction,SMDPad,CuDef*
%ADD43FreePoly7,0.000000*%
G04 #@! TD*
G04 #@! TA.AperFunction,HeatsinkPad*
%ADD44R,1.700000X1.700000*%
G04 #@! TD*
G04 #@! TA.AperFunction,SMDPad,CuDef*
%ADD45RoundRect,0.250000X1.000000X0.650000X-1.000000X0.650000X-1.000000X-0.650000X1.000000X-0.650000X0*%
G04 #@! TD*
G04 #@! TA.AperFunction,ViaPad*
%ADD46C,0.600000*%
G04 #@! TD*
G04 #@! TA.AperFunction,Conductor*
%ADD47C,0.200000*%
G04 #@! TD*
G04 APERTURE END LIST*
D10*
G04 #@! TO.P,J3,1,Pin_1_1*
G04 #@! TO.N,ASDOUT*
X115570000Y-81915000D03*
D11*
G04 #@! TO.P,J3,2,Pin_2_2*
G04 #@! TO.N,LRCK*
X118110000Y-81915000D03*
G04 #@! TO.P,J3,3,Pin_3_3*
G04 #@! TO.N,AGND*
X120650000Y-81915000D03*
G04 #@! TO.P,J3,4,Pin_4_4*
G04 #@! TO.N,DSDIN*
X123190000Y-81915000D03*
G04 #@! TO.P,J3,5,Pin_5_5*
G04 #@! TO.N,BCLK*
X125730000Y-81915000D03*
G04 #@! TO.P,J3,6,Pin_6_6*
G04 #@! TO.N,MCLK*
X128270000Y-81915000D03*
G04 #@! TO.P,J3,7,Pin_7_7*
G04 #@! TO.N,PHANTOM_EN*
X130810000Y-81915000D03*
G04 #@! TD*
D10*
G04 #@! TO.P,J4,1,Pin_1_1*
G04 #@! TO.N,+5V*
X115570000Y-99491800D03*
D11*
G04 #@! TO.P,J4,2,Pin_2_2*
G04 #@! TO.N,unconnected-(J4-Pin_2-Pad2)*
X118110000Y-99491800D03*
G04 #@! TO.P,J4,3,Pin_3_3*
G04 #@! TO.N,AGND*
X120650000Y-99491800D03*
G04 #@! TO.P,J4,4,Pin_4_4*
G04 #@! TO.N,unconnected-(J4-Pin_4-Pad4)*
X123190000Y-99491800D03*
G04 #@! TO.P,J4,5,Pin_5_5*
G04 #@! TO.N,+3V3*
X125730000Y-99491800D03*
G04 #@! TO.P,J4,6,Pin_6_6*
G04 #@! TO.N,SCL*
X128270000Y-99491800D03*
G04 #@! TO.P,J4,7,Pin_7_7*
G04 #@! TO.N,SDA*
X130810000Y-99491800D03*
G04 #@! TD*
D10*
G04 #@! TO.P,J5,1,Pin_1_1*
G04 #@! TO.N,V_PoE*
X127553800Y-93192600D03*
D11*
G04 #@! TO.P,J5,2,Pin_2_2*
G04 #@! TO.N,PGND*
X130093800Y-93192600D03*
G04 #@! TD*
D12*
G04 #@! TO.P,C19,1*
G04 #@! TO.N,PGND*
X110794800Y-86207600D03*
G04 #@! TO.P,C19,2*
G04 #@! TO.N,AGND*
X118294800Y-86207600D03*
G04 #@! TD*
D13*
G04 #@! TO.P,J1,1,XLR_1_1*
G04 #@! TO.N,PGND*
X94996000Y-97764600D03*
G04 #@! TO.P,J1,2,XLR_2_2*
G04 #@! TO.N,XLR2_HOT*
X95631000Y-83794600D03*
D14*
G04 #@! TO.P,J1,3,XLR_3_3*
G04 #@! TO.N,XLR3_COLD*
X100076000Y-90779600D03*
D15*
G04 #@! TO.P,J1,G,JACK_G_G*
G04 #@! TO.N,PGND*
X83566000Y-99034600D03*
D14*
G04 #@! TO.P,J1,R,JACK_R_R*
G04 #@! TO.N,unconnected-(J1-JACK_R-PadR)*
X99441000Y-87922100D03*
G04 #@! TO.P,J1,S,JACK_S_S*
G04 #@! TO.N,PGND*
X99441000Y-93637100D03*
D16*
G04 #@! TO.P,J1,T,JACK_T_T*
G04 #@! TO.N,unconnected-(J1-JACK_T-PadT)*
X92456000Y-95224600D03*
X92456000Y-86334600D03*
G04 #@! TD*
D17*
G04 #@! TO.P,OK1,1,A_1*
G04 #@! TO.N,OK1_LED_A*
X107416600Y-82778600D03*
G04 #@! TO.P,OK1,2,K_2*
G04 #@! TO.N,AGND*
X107416600Y-84048600D03*
G04 #@! TO.P,OK1,3,E_3*
G04 #@! TO.N,PGND*
X101041600Y-84048600D03*
G04 #@! TO.P,OK1,4,C_4*
G04 #@! TO.N,OK1_COLLECTOR*
X101041600Y-82778600D03*
G04 #@! TD*
D18*
G04 #@! TO.P,C9,1*
G04 #@! TO.N,DACVREF*
X123980000Y-86000000D03*
G04 #@! TO.P,C9,2*
G04 #@! TO.N,AGND*
X123020000Y-86000000D03*
G04 #@! TD*
D19*
G04 #@! TO.P,D2,1,K_1*
G04 #@! TO.N,MIC1P*
X110837500Y-93350000D03*
G04 #@! TO.P,D2,2,A_2*
G04 #@! TO.N,AGND*
X110837500Y-94000000D03*
G04 #@! TO.P,D2,3*
G04 #@! TO.N,N/C*
X110837500Y-94650000D03*
G04 #@! TO.P,D2,4*
X109162500Y-94650000D03*
G04 #@! TO.P,D2,5*
X109162500Y-93350000D03*
G04 #@! TD*
D18*
G04 #@! TO.P,C8,1*
G04 #@! TO.N,ADCVREF*
X121480000Y-96500000D03*
G04 #@! TO.P,C8,2*
G04 #@! TO.N,AGND*
X120520000Y-96500000D03*
G04 #@! TD*
D20*
G04 #@! TO.P,R12,1*
G04 #@! TO.N,PHANTOM_SW*
X106072400Y-87985600D03*
G04 #@! TO.P,R12,2*
G04 #@! TO.N,OK1_LED_A*
X105052400Y-87985600D03*
G04 #@! TD*
G04 #@! TO.P,R3,1*
G04 #@! TO.N,AD0*
X124010000Y-95000000D03*
G04 #@! TO.P,R3,2*
G04 #@! TO.N,AGND*
X122990000Y-95000000D03*
G04 #@! TD*
D21*
G04 #@! TO.P,R4,1*
G04 #@! TO.N,ASDOUT*
X122990000Y-96500000D03*
G04 #@! TO.P,R4,2*
G04 #@! TO.N,AGND*
X124010000Y-96500000D03*
G04 #@! TD*
D22*
G04 #@! TO.P,C7,1*
G04 #@! TO.N,VMID*
X120520000Y-95000000D03*
G04 #@! TO.P,C7,2*
G04 #@! TO.N,AGND*
X121480000Y-95000000D03*
G04 #@! TD*
G04 #@! TO.P,C5,1*
G04 #@! TO.N,+3V3*
X118020000Y-96500000D03*
G04 #@! TO.P,C5,2*
G04 #@! TO.N,AGND*
X118980000Y-96500000D03*
G04 #@! TD*
D23*
G04 #@! TO.P,R6,1*
G04 #@! TO.N,V_PHANTOM*
X90398600Y-82092800D03*
G04 #@! TO.P,R6,2*
G04 #@! TO.N,XLR3_COLD*
X90398600Y-83917800D03*
G04 #@! TD*
D24*
G04 #@! TO.P,D7,1,K_1*
G04 #@! TO.N,V_FILT*
X114000000Y-89650000D03*
G04 #@! TO.P,D7,2,A_2*
G04 #@! TO.N,Q1_GATE*
X114000000Y-86350000D03*
G04 #@! TD*
D22*
G04 #@! TO.P,C1,1*
G04 #@! TO.N,+3V3*
X118020000Y-84500000D03*
G04 #@! TO.P,C1,2*
G04 #@! TO.N,AGND*
X118980000Y-84500000D03*
G04 #@! TD*
D21*
G04 #@! TO.P,R7,1*
G04 #@! TO.N,AVDD*
X115990000Y-96000000D03*
G04 #@! TO.P,R7,2*
G04 #@! TO.N,MIC2_RAW*
X117010000Y-96000000D03*
G04 #@! TD*
D20*
G04 #@! TO.P,R1,1*
G04 #@! TO.N,SDA*
X131165600Y-97561400D03*
G04 #@! TO.P,R1,2*
G04 #@! TO.N,+3V3*
X130145600Y-97561400D03*
G04 #@! TD*
G04 #@! TO.P,R2,1*
G04 #@! TO.N,SCL*
X126494000Y-97536000D03*
G04 #@! TO.P,R2,2*
G04 #@! TO.N,+3V3*
X125474000Y-97536000D03*
G04 #@! TD*
D22*
G04 #@! TO.P,C13,1*
G04 #@! TO.N,MIC2_RAW*
X110520000Y-96000000D03*
G04 #@! TO.P,C13,2*
G04 #@! TO.N,AGND*
X111480000Y-96000000D03*
G04 #@! TD*
D25*
G04 #@! TO.P,C17,1*
G04 #@! TO.N,V_FILT*
X85979000Y-83967400D03*
G04 #@! TO.P,C17,2*
G04 #@! TO.N,PGND*
X85979000Y-82067400D03*
G04 #@! TD*
D26*
G04 #@! TO.P,C18,1*
G04 #@! TO.N,Q1_GATE*
X109931200Y-81508600D03*
G04 #@! TO.P,C18,2*
G04 #@! TO.N,V_FILT*
X109931200Y-84458600D03*
G04 #@! TD*
D27*
G04 #@! TO.P,FB1,1*
G04 #@! TO.N,+3V3_A*
X121787500Y-86000000D03*
G04 #@! TO.P,FB1,2*
G04 #@! TO.N,AVDD*
X120212500Y-86000000D03*
G04 #@! TD*
D25*
G04 #@! TO.P,C11,1*
G04 #@! TO.N,XLR3_COLD*
X92659200Y-83307000D03*
G04 #@! TO.P,C11,2*
G04 #@! TO.N,MIC1N*
X92659200Y-81407000D03*
G04 #@! TD*
D28*
G04 #@! TO.P,SW1,1,A_1*
G04 #@! TO.N,+3V3*
X125399800Y-89966800D03*
D12*
G04 #@! TO.P,SW1,2,B_2*
G04 #@! TO.N,PHANTOM_SW*
X127939800Y-89966800D03*
D28*
G04 #@! TO.P,SW1,3,C_3*
G04 #@! TO.N,AGND*
X130479800Y-89966800D03*
G04 #@! TD*
D29*
G04 #@! TO.P,C12,1*
G04 #@! TO.N,MIC2_RAW*
X107000000Y-96480000D03*
G04 #@! TO.P,C12,2*
G04 #@! TO.N,MIC2P*
X107000000Y-95520000D03*
G04 #@! TD*
D30*
G04 #@! TO.P,C6,1*
G04 #@! TO.N,AVDD*
X120050000Y-88000000D03*
G04 #@! TO.P,C6,2*
G04 #@! TO.N,AGND*
X121950000Y-88000000D03*
G04 #@! TD*
D22*
G04 #@! TO.P,C4,1*
G04 #@! TO.N,+3V3*
X118020000Y-95000000D03*
G04 #@! TO.P,C4,2*
G04 #@! TO.N,AGND*
X118980000Y-95000000D03*
G04 #@! TD*
D31*
G04 #@! TO.P,Q1,1,G_1*
G04 #@! TO.N,Q1_GATE*
X96771700Y-89753400D03*
G04 #@! TO.P,Q1,2,S_2*
G04 #@! TO.N,V_FILT*
X96771700Y-91653400D03*
G04 #@! TO.P,Q1,3,D_3*
G04 #@! TO.N,V_PHANTOM*
X94896700Y-90703400D03*
G04 #@! TD*
D32*
G04 #@! TO.P,C10,1*
G04 #@! TO.N,XLR2_HOT*
X95834200Y-93192600D03*
G04 #@! TO.P,C10,2*
G04 #@! TO.N,MIC1P*
X95834200Y-95092600D03*
G04 #@! TD*
D33*
G04 #@! TO.P,D8,1,K_1*
G04 #@! TO.N,PGND*
X128193800Y-86893400D03*
G04 #@! TO.P,D8,2,A_2*
G04 #@! TO.N,PHANTOM_LED*
X130068800Y-86893400D03*
G04 #@! TD*
D34*
G04 #@! TO.P,U1,1,AD0_1*
G04 #@! TO.N,AD0*
X117773000Y-91473000D03*
D35*
G04 #@! TO.P,U1,2,CDATA_2*
G04 #@! TO.N,SDA*
X117773000Y-91823000D03*
G04 #@! TO.P,U1,3,CCLK_3*
G04 #@! TO.N,SCL*
X117773000Y-92173000D03*
G04 #@! TO.P,U1,4,MCLK/TDMIN_4*
G04 #@! TO.N,MCLK*
X117773000Y-92523000D03*
G04 #@! TO.P,U1,5,DVDD_5*
G04 #@! TO.N,+3V3*
X117773000Y-92873000D03*
D36*
G04 #@! TO.P,U1,6,PVDD_6*
X117773000Y-93223000D03*
D37*
G04 #@! TO.P,U1,7,DGND_7*
G04 #@! TO.N,AGND*
X117148000Y-93848000D03*
D38*
G04 #@! TO.P,U1,8,SCLK_8*
G04 #@! TO.N,BCLK*
X116798000Y-93848000D03*
G04 #@! TO.P,U1,9,DSDIN_9*
G04 #@! TO.N,DSDIN*
X116448000Y-93848000D03*
G04 #@! TO.P,U1,10,LRCK_10*
G04 #@! TO.N,LRCK*
X116098000Y-93848000D03*
G04 #@! TO.P,U1,11,ASDOUT/AD1_11*
G04 #@! TO.N,ASDOUT*
X115748000Y-93848000D03*
D39*
G04 #@! TO.P,U1,12,ROUTP_12*
G04 #@! TO.N,ROUTP*
X115398000Y-93848000D03*
D40*
G04 #@! TO.P,U1,13,ROUTN_13*
G04 #@! TO.N,ROUTN*
X114773000Y-93223000D03*
D35*
G04 #@! TO.P,U1,14,DACVREF_14*
G04 #@! TO.N,DACVREF*
X114773000Y-92873000D03*
G04 #@! TO.P,U1,15,LOUTN_15*
G04 #@! TO.N,LOUTN*
X114773000Y-92523000D03*
G04 #@! TO.P,U1,16,LOUTP_16*
G04 #@! TO.N,LOUTP*
X114773000Y-92173000D03*
G04 #@! TO.P,U1,17,AVDD_17*
G04 #@! TO.N,AVDD*
X114773000Y-91823000D03*
D41*
G04 #@! TO.P,U1,18,AGND_18*
G04 #@! TO.N,AGND*
X114773000Y-91473000D03*
D42*
G04 #@! TO.P,U1,19,VMID_19*
G04 #@! TO.N,VMID*
X115398000Y-90848000D03*
D38*
G04 #@! TO.P,U1,20,ADCVREF_20*
G04 #@! TO.N,ADCVREF*
X115748000Y-90848000D03*
G04 #@! TO.P,U1,21,MIC2N_21*
G04 #@! TO.N,MIC2N*
X116098000Y-90848000D03*
G04 #@! TO.P,U1,22,MIC2P_22*
G04 #@! TO.N,MIC2P*
X116448000Y-90848000D03*
G04 #@! TO.P,U1,23,MIC1N_23*
G04 #@! TO.N,MIC1N*
X116798000Y-90848000D03*
D43*
G04 #@! TO.P,U1,24,MIC1P_24*
G04 #@! TO.N,MIC1P*
X117148000Y-90848000D03*
D44*
G04 #@! TO.P,U1,25,PGND_25*
G04 #@! TO.N,AGND*
X116273000Y-92348000D03*
G04 #@! TD*
D22*
G04 #@! TO.P,C2,1*
G04 #@! TO.N,+3V3*
X117861200Y-87706200D03*
G04 #@! TO.P,C2,2*
G04 #@! TO.N,AGND*
X118821200Y-87706200D03*
G04 #@! TD*
G04 #@! TO.P,C3,1*
G04 #@! TO.N,+3V3*
X117858600Y-88696800D03*
G04 #@! TO.P,C3,2*
G04 #@! TO.N,AGND*
X118818600Y-88696800D03*
G04 #@! TD*
D23*
G04 #@! TO.P,R5,1*
G04 #@! TO.N,V_PHANTOM*
X95834200Y-86385400D03*
G04 #@! TO.P,R5,2*
G04 #@! TO.N,XLR2_HOT*
X95834200Y-88210400D03*
G04 #@! TD*
D45*
G04 #@! TO.P,D6,1,K_1*
G04 #@! TO.N,V_FILT*
X89027000Y-92703400D03*
G04 #@! TO.P,D6,2,A_2*
G04 #@! TO.N,PGND*
X89027000Y-88703400D03*
G04 #@! TD*
D22*
G04 #@! TO.P,C20,1*
G04 #@! TO.N,MIC2N*
X112520000Y-96000000D03*
G04 #@! TO.P,C20,2*
G04 #@! TO.N,AGND*
X113480000Y-96000000D03*
G04 #@! TD*
D46*
G04 #@! TO.N,V_PoE*
X127343919Y-91168998D03*
G04 #@! TO.N,V_FILT*
X98221800Y-83743800D03*
X103532400Y-81864200D03*
X97002600Y-86258400D03*
X113691365Y-89120761D03*
X106451400Y-81915000D03*
X97078800Y-91668600D03*
X110159800Y-84433200D03*
G04 #@! TO.N,MIC1N*
X112081400Y-89516617D03*
X106899814Y-85157414D03*
X117317727Y-89806278D03*
G04 #@! TO.N,AGND*
X122041000Y-88321800D03*
X117729000Y-93827600D03*
X113614200Y-91617800D03*
X122928284Y-86037902D03*
X123596400Y-88620600D03*
X119109986Y-88594149D03*
X127000000Y-83210400D03*
X116273000Y-92287000D03*
X123757600Y-87511800D03*
X113715800Y-85217000D03*
X118980000Y-84500000D03*
X113800800Y-96672400D03*
X107721400Y-85826600D03*
X121005600Y-95834200D03*
X123351201Y-95772636D03*
G04 #@! TO.N,ROUTP*
X114372087Y-94072800D03*
G04 #@! TO.N,V_PHANTOM*
X110312200Y-83261200D03*
X97028000Y-81957000D03*
X100406200Y-81940400D03*
G04 #@! TO.N,PHANTOM_LED*
X130073400Y-87198200D03*
G04 #@! TO.N,MIC2_RAW*
X109203200Y-99358200D03*
X117271800Y-96545400D03*
G04 #@! TO.N,ASDOUT*
X114866961Y-94732113D03*
X127508000Y-95148400D03*
X114302909Y-97443200D03*
G04 #@! TO.N,LRCK*
X114805437Y-95538530D03*
X121919220Y-93760201D03*
G04 #@! TO.N,DSDIN*
X114992064Y-96576720D03*
X124798000Y-94310200D03*
G04 #@! TO.N,BCLK*
X125171200Y-93091000D03*
X117119400Y-94673000D03*
G04 #@! TO.N,MCLK*
X119354600Y-98171000D03*
X119735600Y-95885000D03*
X123723400Y-97917000D03*
G04 #@! TO.N,+5V*
X123607791Y-93670774D03*
X120680029Y-86881584D03*
X124386400Y-84861400D03*
X121405092Y-84612181D03*
G04 #@! TO.N,+3V3_A*
X122936000Y-85050000D03*
G04 #@! TO.N,OK1_COLLECTOR*
X101701600Y-84988400D03*
G04 #@! TO.N,Q1_GATE*
X96799400Y-89789000D03*
X102430079Y-81908023D03*
X114486600Y-86360000D03*
X115747800Y-85344000D03*
G04 #@! TO.N,+3V3*
X123020000Y-91694000D03*
X126466600Y-98831400D03*
X118541800Y-93811000D03*
X130145600Y-97561400D03*
G04 #@! TO.N,SCL*
X125137000Y-96647000D03*
X119181543Y-92322732D03*
G04 #@! TO.N,SDA*
X118650750Y-91575000D03*
X125374722Y-95882923D03*
G04 #@! TO.N,PGND*
X88976200Y-88646000D03*
X85979000Y-82067400D03*
X112014000Y-84988400D03*
X100542000Y-84056509D03*
X126974600Y-86893400D03*
G04 #@! TO.N,XLR2_HOT*
X95834200Y-88108800D03*
G04 #@! TO.N,XLR3_COLD*
X92659200Y-83307000D03*
G04 #@! TO.N,LOUTP*
X113080800Y-94513400D03*
G04 #@! TO.N,OK1_LED_A*
X105029000Y-87960200D03*
X107340400Y-88341200D03*
G04 #@! TO.N,DACVREF*
X123596400Y-92506800D03*
X113841755Y-93445555D03*
G04 #@! TO.N,MIC1P*
X117703600Y-90449400D03*
X112416502Y-90596703D03*
X95834200Y-95194200D03*
X108051600Y-93980000D03*
G04 #@! TO.N,ADCVREF*
X115548000Y-89594600D03*
X119659400Y-89805600D03*
G04 #@! TO.N,PHANTOM_SW*
X112081400Y-91389200D03*
G04 #@! TO.N,AD0*
X119640810Y-90848990D03*
X124028200Y-89966800D03*
G04 #@! TO.N,VMID*
X112943450Y-92293250D03*
X119710200Y-92972800D03*
G04 #@! TO.N,MIC2P*
X108051600Y-95529400D03*
X111264092Y-88643489D03*
G04 #@! TO.N,MIC2N*
X111962600Y-92760200D03*
X112003227Y-88770701D03*
G04 #@! TD*
G04 #@! TO.N,V_PoE*
D47*
X127439709Y-91320909D02*
X127553800Y-91435000D01*
X127553800Y-91435000D02*
X127553800Y-93192600D01*
X127439709Y-91264788D02*
X127439709Y-91320909D01*
X127343919Y-91168998D02*
X127439709Y-91264788D01*
G04 #@! TO.N,V_FILT*
X90077000Y-91653400D02*
X89027000Y-92703400D01*
X97063600Y-91653400D02*
X97078800Y-91668600D01*
X87025400Y-85013800D02*
X90855800Y-85013800D01*
X113691365Y-89120761D02*
X113691365Y-89341365D01*
X97002600Y-86258400D02*
X97002600Y-85064600D01*
X97002600Y-85064600D02*
X96939100Y-85001100D01*
X96393000Y-85547200D02*
X96939100Y-85001100D01*
X96771700Y-91653400D02*
X90077000Y-91653400D01*
X91643200Y-84226400D02*
X93319600Y-84226400D01*
X85979000Y-83967400D02*
X87025400Y-85013800D01*
X103583200Y-81915000D02*
X106451400Y-81915000D01*
X98221800Y-83743800D02*
X97891600Y-84074000D01*
X97866200Y-84074000D02*
X96939100Y-85001100D01*
X103532400Y-81864200D02*
X103583200Y-81915000D01*
X93319600Y-84226400D02*
X94640400Y-85547200D01*
X96771700Y-91653400D02*
X97063600Y-91653400D01*
X97891600Y-84074000D02*
X97866200Y-84074000D01*
X90855800Y-85013800D02*
X91643200Y-84226400D01*
X113691365Y-89341365D02*
X114000000Y-89650000D01*
X94640400Y-85547200D02*
X96393000Y-85547200D01*
G04 #@! TO.N,MIC1N*
X106730800Y-85986827D02*
X106730800Y-88874600D01*
X106899814Y-85157414D02*
X106400600Y-85656627D01*
X112088417Y-89509600D02*
X112081400Y-89516617D01*
X106730800Y-88874600D02*
X107365800Y-89509600D01*
X117317727Y-89806278D02*
X116798000Y-90326005D01*
X92659200Y-81407000D02*
X97255818Y-81407000D01*
X100160027Y-85656627D02*
X106400600Y-85656627D01*
X99669600Y-85166200D02*
X100160027Y-85656627D01*
X116798000Y-90326005D02*
X116798000Y-90848000D01*
X99669600Y-83820782D02*
X99669600Y-85166200D01*
X97255818Y-81407000D02*
X99669600Y-83820782D01*
X107365800Y-89509600D02*
X112088417Y-89509600D01*
X106400600Y-85656627D02*
X106730800Y-85986827D01*
G04 #@! TO.N,AGND*
X111074200Y-87477600D02*
X112090200Y-86461600D01*
X112858400Y-96621600D02*
X112101600Y-96621600D01*
X110837500Y-94000000D02*
X110353600Y-94000000D01*
X117708600Y-93848000D02*
X117729000Y-93827600D01*
X110000000Y-94963200D02*
X110000000Y-94353600D01*
X123351201Y-95772636D02*
X123351200Y-95772637D01*
X110286800Y-95250000D02*
X110000000Y-94963200D01*
X123351200Y-95772637D02*
X123351200Y-95817600D01*
X112101600Y-96621600D02*
X111480000Y-96000000D01*
X122966186Y-86000000D02*
X122928284Y-86037902D01*
X107721400Y-85384802D02*
X107716599Y-85380001D01*
X118980000Y-96500000D02*
X118980000Y-95000000D01*
X122041000Y-88321800D02*
X121950000Y-88230800D01*
X118818600Y-86731400D02*
X118818600Y-88696800D01*
X113563400Y-96083400D02*
X113480000Y-96000000D01*
X121005600Y-95834200D02*
X121005600Y-95657894D01*
X123351201Y-95772636D02*
X123037600Y-95459035D01*
X113985372Y-91473000D02*
X114773000Y-91473000D01*
X121005600Y-95834200D02*
X120928206Y-95911594D01*
X113614200Y-91617800D02*
X113840572Y-91617800D01*
X108326000Y-87477600D02*
X111074200Y-87477600D01*
X120928206Y-95911594D02*
X120891594Y-95911594D01*
X113800800Y-96579600D02*
X113563400Y-96342200D01*
X127000000Y-83210400D02*
X128168400Y-83210400D01*
X117148000Y-93848000D02*
X117708600Y-93848000D01*
X121480000Y-95183494D02*
X121480000Y-95000000D01*
X123037600Y-95047600D02*
X122990000Y-95000000D01*
X130987800Y-89458800D02*
X130479800Y-89966800D01*
X110353600Y-94000000D02*
X110000000Y-94353600D01*
X107716599Y-84348599D02*
X107416600Y-84048600D01*
X113800800Y-96672400D02*
X113800800Y-96579600D01*
X120520000Y-96500000D02*
X118980000Y-96500000D01*
X121005600Y-95834200D02*
X120829294Y-95834200D01*
X107721400Y-85826600D02*
X107721400Y-85384802D01*
X130987800Y-86029800D02*
X130987800Y-89458800D01*
X113563400Y-96342200D02*
X113563400Y-96083400D01*
X123351201Y-95841201D02*
X124010000Y-96500000D01*
X112725200Y-85217000D02*
X113715800Y-85217000D01*
X113480000Y-96000000D02*
X112858400Y-96621600D01*
X113840572Y-91617800D02*
X113985372Y-91473000D01*
X120829294Y-95834200D02*
X120520000Y-96143494D01*
X112090200Y-86461600D02*
X112090200Y-85852000D01*
X123063000Y-86043000D02*
X123020000Y-86000000D01*
X123351201Y-95772636D02*
X123351201Y-95841201D01*
X121950000Y-88230800D02*
X121950000Y-88000000D01*
X128168400Y-83210400D02*
X130987800Y-86029800D01*
X107721400Y-86873000D02*
X108326000Y-87477600D01*
X120520000Y-96143494D02*
X120520000Y-96500000D01*
X107721400Y-85826600D02*
X107721400Y-86873000D01*
X111480000Y-96000000D02*
X110730000Y-95250000D01*
X112090200Y-85852000D02*
X112725200Y-85217000D01*
X123037600Y-95459035D02*
X123037600Y-95047600D01*
X110730000Y-95250000D02*
X110286800Y-95250000D01*
X118294800Y-86207600D02*
X118818600Y-86731400D01*
X123020000Y-86000000D02*
X122966186Y-86000000D01*
X107716599Y-85380001D02*
X107716599Y-84348599D01*
X121005600Y-95657894D02*
X121480000Y-95183494D01*
G04 #@! TO.N,ROUTP*
X115016200Y-93848000D02*
X115398000Y-93848000D01*
X114791400Y-94072800D02*
X115016200Y-93848000D01*
X114372087Y-94072800D02*
X114791400Y-94072800D01*
G04 #@! TO.N,V_PHANTOM*
X101650800Y-81940400D02*
X100406200Y-81940400D01*
X110185200Y-83388200D02*
X103098600Y-83388200D01*
X110312200Y-83261200D02*
X110185200Y-83388200D01*
X103098600Y-83388200D02*
X101650800Y-81940400D01*
X84709000Y-83566000D02*
X85242400Y-83032600D01*
X94065000Y-81957000D02*
X93624400Y-82397600D01*
X88747600Y-85725000D02*
X85191600Y-85725000D01*
X93726000Y-90703400D02*
X91567000Y-88544400D01*
X95834200Y-86385400D02*
X93675200Y-88544400D01*
X94896700Y-90703400D02*
X93726000Y-90703400D01*
X93624400Y-82397600D02*
X90703400Y-82397600D01*
X84709000Y-85242400D02*
X84709000Y-83566000D01*
X97028000Y-81957000D02*
X94065000Y-81957000D01*
X89458800Y-83032600D02*
X90398600Y-82092800D01*
X85191600Y-85725000D02*
X84709000Y-85242400D01*
X91567000Y-88544400D02*
X88747600Y-85725000D01*
X93675200Y-88544400D02*
X91567000Y-88544400D01*
X85242400Y-83032600D02*
X89458800Y-83032600D01*
X90703400Y-82397600D02*
X90398600Y-82092800D01*
G04 #@! TO.N,MIC2_RAW*
X109679400Y-97584600D02*
X108104600Y-97584600D01*
X110520000Y-96000000D02*
X110520000Y-96744000D01*
X109194600Y-98674600D02*
X107000000Y-96480000D01*
X110520000Y-96744000D02*
X109679400Y-97584600D01*
X109203200Y-99358200D02*
X109194600Y-99349600D01*
X117271800Y-96545400D02*
X117010000Y-96283600D01*
X117010000Y-96283600D02*
X117010000Y-96000000D01*
X109194600Y-99349600D02*
X109194600Y-98674600D01*
G04 #@! TO.N,ASDOUT*
X115318471Y-94732113D02*
X114866961Y-94732113D01*
X115748000Y-94302584D02*
X115318471Y-94732113D01*
X127508000Y-95148400D02*
X125247400Y-95148400D01*
X119463625Y-97567000D02*
X119458225Y-97572400D01*
X124587000Y-96850200D02*
X124307600Y-97129600D01*
X124587000Y-95808800D02*
X124587000Y-96850200D01*
X115748000Y-93848000D02*
X115748000Y-94302584D01*
X124307600Y-97129600D02*
X123619600Y-97129600D01*
X122304200Y-97567000D02*
X119463625Y-97567000D01*
X114432109Y-97572400D02*
X114302909Y-97443200D01*
X122990000Y-96500000D02*
X122990000Y-96881200D01*
X122990000Y-96881200D02*
X122304200Y-97567000D01*
X125247400Y-95148400D02*
X124587000Y-95808800D01*
X123619600Y-97129600D02*
X122990000Y-96500000D01*
X119458225Y-97572400D02*
X114432109Y-97572400D01*
G04 #@! TO.N,LRCK*
X119901026Y-89255600D02*
X119125224Y-89255600D01*
X115042169Y-95301798D02*
X115264202Y-95301798D01*
X119125224Y-89255600D02*
X119124024Y-89256800D01*
X117449600Y-89255600D02*
X116687600Y-88493600D01*
X118513176Y-89256800D02*
X118511976Y-89255600D01*
X114805437Y-95538530D02*
X115042169Y-95301798D01*
X121513600Y-93354581D02*
X121513600Y-90868174D01*
X117551976Y-89255600D02*
X117449600Y-89255600D01*
X118164024Y-89256800D02*
X117553176Y-89256800D01*
X118287800Y-81737200D02*
X118287800Y-81610200D01*
X119124024Y-89256800D02*
X118513176Y-89256800D01*
X121919220Y-93760201D02*
X121513600Y-93354581D01*
X116687600Y-88493600D02*
X116687600Y-83337400D01*
X116098000Y-94468000D02*
X116098000Y-93848000D01*
X117553176Y-89256800D02*
X117551976Y-89255600D01*
X115264202Y-95301798D02*
X116098000Y-94468000D01*
X116687600Y-83337400D02*
X118287800Y-81737200D01*
X121513600Y-90868174D02*
X119901026Y-89255600D01*
X118165224Y-89255600D02*
X118164024Y-89256800D01*
X118511976Y-89255600D02*
X118165224Y-89255600D01*
G04 #@! TO.N,DSDIN*
X124612400Y-92481400D02*
X126466600Y-90627200D01*
X126466600Y-90627200D02*
X126466600Y-89052400D01*
X124612400Y-94208600D02*
X124612400Y-92481400D01*
X116448000Y-94673786D02*
X116448000Y-93848000D01*
X123367800Y-82092800D02*
X123367800Y-81610200D01*
X114992064Y-96576720D02*
X114992064Y-96129722D01*
X124798000Y-94310200D02*
X124714000Y-94310200D01*
X114992064Y-96129722D02*
X116448000Y-94673786D01*
X124936400Y-83661400D02*
X123367800Y-82092800D01*
X124936400Y-87522200D02*
X124936400Y-83661400D01*
X124714000Y-94310200D02*
X124612400Y-94208600D01*
X126466600Y-89052400D02*
X124936400Y-87522200D01*
G04 #@! TO.N,BCLK*
X125907800Y-82067400D02*
X125907800Y-81610200D01*
X125171200Y-92417574D02*
X126816600Y-90772174D01*
X125298200Y-82677000D02*
X125907800Y-82067400D01*
X126816600Y-88907426D02*
X125298200Y-87389026D01*
X116974200Y-94673000D02*
X116798000Y-94496800D01*
X125298200Y-87389026D02*
X125298200Y-82677000D01*
X126816600Y-90772174D02*
X126816600Y-88907426D01*
X125171200Y-93091000D02*
X125171200Y-92417574D01*
X117119400Y-94673000D02*
X116974200Y-94673000D01*
X116798000Y-94496800D02*
X116798000Y-93848000D01*
G04 #@! TO.N,MCLK*
X117773000Y-92523000D02*
X118482582Y-92523000D01*
X123596400Y-98044000D02*
X123723400Y-97917000D01*
X119481600Y-98044000D02*
X123596400Y-98044000D01*
X118482582Y-92523000D02*
X119735600Y-93776018D01*
X119354600Y-98171000D02*
X119481600Y-98044000D01*
X119735600Y-93776018D02*
X119735600Y-95885000D01*
G04 #@! TO.N,+5V*
X123439574Y-93670774D02*
X122470000Y-92701200D01*
X122470000Y-90711200D02*
X121005600Y-89246800D01*
X120680029Y-86946146D02*
X120680029Y-86881584D01*
X124386400Y-84861400D02*
X124025000Y-84500000D01*
X121005600Y-87271717D02*
X120680029Y-86946146D01*
X121517273Y-84500000D02*
X121405092Y-84612181D01*
X121005600Y-89246800D02*
X121005600Y-87271717D01*
X123607791Y-93670774D02*
X123439574Y-93670774D01*
X122470000Y-92701200D02*
X122470000Y-90711200D01*
X124025000Y-84500000D02*
X121517273Y-84500000D01*
G04 #@! TO.N,+3V3_A*
X122811000Y-85113400D02*
X121924400Y-86000000D01*
X122936000Y-85050000D02*
X122811000Y-84925000D01*
X122811000Y-84925000D02*
X122811000Y-85113400D01*
X121924400Y-86000000D02*
X121787500Y-86000000D01*
G04 #@! TO.N,OK1_COLLECTOR*
X101473000Y-82778600D02*
X102209600Y-83515200D01*
X102209600Y-83515200D02*
X102209600Y-84480400D01*
X102209600Y-84480400D02*
X101701600Y-84988400D01*
X101041600Y-82778600D02*
X101473000Y-82778600D01*
G04 #@! TO.N,Q1_GATE*
X109990800Y-81314200D02*
X110159800Y-81483200D01*
X110159800Y-81737200D02*
X112014000Y-83591400D01*
X102708800Y-81314200D02*
X109990800Y-81314200D01*
X102430079Y-81592921D02*
X102708800Y-81314200D01*
X112014000Y-83591400D02*
X113995200Y-83591400D01*
X113995200Y-83591400D02*
X115747800Y-85344000D01*
X102430079Y-81908023D02*
X102430079Y-81592921D01*
X110159800Y-81483200D02*
X110159800Y-81737200D01*
G04 #@! TO.N,+3V3*
X121005600Y-86410800D02*
X121386600Y-86791800D01*
X122936000Y-87401400D02*
X122936000Y-91610000D01*
X117092400Y-86937400D02*
X117861200Y-87706200D01*
X118541800Y-93811000D02*
X118541800Y-94478200D01*
X122326400Y-86791800D02*
X122936000Y-87401400D01*
X117092400Y-85427600D02*
X117092400Y-86937400D01*
X118541800Y-93675200D02*
X118089600Y-93223000D01*
X126466600Y-98831400D02*
X126466600Y-98376200D01*
X118652000Y-85132000D02*
X120688474Y-85132000D01*
X117858600Y-87708800D02*
X117861200Y-87706200D01*
X122936000Y-91610000D02*
X123020000Y-91694000D01*
X117773000Y-93223000D02*
X117773000Y-92873000D01*
X118541800Y-93811000D02*
X118541800Y-93675200D01*
X118541800Y-94478200D02*
X118020000Y-95000000D01*
X118020000Y-84500000D02*
X117092400Y-85427600D01*
X118020000Y-96500000D02*
X118020000Y-95000000D01*
X117858600Y-88696800D02*
X117858600Y-87708800D01*
X118089600Y-93223000D02*
X117773000Y-93223000D01*
X126466600Y-98376200D02*
X125474000Y-97383600D01*
X121386600Y-86791800D02*
X122326400Y-86791800D01*
X118020000Y-84500000D02*
X118652000Y-85132000D01*
X121005600Y-85449126D02*
X121005600Y-86410800D01*
X120688474Y-85132000D02*
X121005600Y-85449126D01*
G04 #@! TO.N,SCL*
X125340200Y-96850200D02*
X127050800Y-96850200D01*
X126466600Y-97461800D02*
X126439200Y-97434400D01*
X128270000Y-98069400D02*
X128270000Y-99491800D01*
X117773000Y-92173000D02*
X119031811Y-92173000D01*
X126494000Y-97536000D02*
X127736600Y-97536000D01*
X125137000Y-96647000D02*
X125340200Y-96850200D01*
X127736600Y-97536000D02*
X128270000Y-98069400D01*
X127050800Y-96850200D02*
X127736600Y-97536000D01*
X119031811Y-92173000D02*
X119181543Y-92322732D01*
G04 #@! TO.N,SDA*
X117773000Y-91823000D02*
X118402750Y-91823000D01*
X125984000Y-96494600D02*
X127203200Y-96494600D01*
X130810000Y-99212400D02*
X130810000Y-99491800D01*
X127203200Y-96494600D02*
X130098800Y-99390200D01*
X125374722Y-95885322D02*
X125984000Y-96494600D01*
X131167600Y-99134200D02*
X130810000Y-99491800D01*
X131167600Y-97434400D02*
X131167600Y-99134200D01*
X118402750Y-91823000D02*
X118650750Y-91575000D01*
X125374722Y-95882923D02*
X125374722Y-95885322D01*
X130098800Y-99390200D02*
X130987800Y-99390200D01*
G04 #@! TO.N,PGND*
X89027000Y-88703400D02*
X89027000Y-88696800D01*
X85979000Y-82194400D02*
X85979000Y-82067400D01*
X89027000Y-88696800D02*
X88976200Y-88646000D01*
X101041600Y-84048600D02*
X100549909Y-84048600D01*
X126974600Y-86893400D02*
X128193800Y-86893400D01*
X100549909Y-84048600D02*
X100542000Y-84056509D01*
X112014000Y-84988400D02*
X110794800Y-86207600D01*
G04 #@! TO.N,XLR2_HOT*
X96725742Y-93192600D02*
X97891600Y-92026742D01*
X97891600Y-89281000D02*
X96821000Y-88210400D01*
X96821000Y-88210400D02*
X95834200Y-88210400D01*
X97891600Y-92026742D02*
X97891600Y-89281000D01*
X95834200Y-88108800D02*
X96291400Y-88566000D01*
X95834200Y-93192600D02*
X96725742Y-93192600D01*
G04 #@! TO.N,XLR3_COLD*
X90398600Y-83917800D02*
X91009400Y-83307000D01*
X91009400Y-83307000D02*
X92659200Y-83307000D01*
G04 #@! TO.N,LOUTP*
X113080800Y-93428692D02*
X113080800Y-94513400D01*
X114336492Y-92173000D02*
X113080800Y-93428692D01*
X114773000Y-92173000D02*
X114336492Y-92173000D01*
G04 #@! TO.N,OK1_LED_A*
X114764626Y-87356200D02*
X115036600Y-87084226D01*
X115036600Y-87084226D02*
X115036600Y-85394800D01*
X112117163Y-87012600D02*
X112800311Y-87012600D01*
X112800311Y-87012600D02*
X113143911Y-87356200D01*
X113143911Y-87356200D02*
X114764626Y-87356200D01*
X110788563Y-88341200D02*
X112117163Y-87012600D01*
X107340400Y-88341200D02*
X110788563Y-88341200D01*
X111810800Y-83947000D02*
X110540800Y-82677000D01*
X115036600Y-85394800D02*
X113588800Y-83947000D01*
X110540800Y-82677000D02*
X107518200Y-82677000D01*
X113588800Y-83947000D02*
X111810800Y-83947000D01*
X107518200Y-82677000D02*
X107416600Y-82778600D01*
G04 #@! TO.N,DACVREF*
X114318416Y-92873000D02*
X113841755Y-93349661D01*
X123596400Y-92506800D02*
X123698000Y-92405200D01*
X123698000Y-91440000D02*
X123342400Y-91084400D01*
X123342400Y-91084400D02*
X123342400Y-89763600D01*
X124307600Y-86327600D02*
X123980000Y-86000000D01*
X123698000Y-92405200D02*
X123698000Y-91440000D01*
X124307600Y-88798400D02*
X124307600Y-86327600D01*
X113841755Y-93349661D02*
X113841755Y-93445555D01*
X123342400Y-89763600D02*
X124307600Y-88798400D01*
X114773000Y-92873000D02*
X114318416Y-92873000D01*
G04 #@! TO.N,MIC1P*
X110837500Y-93107482D02*
X110837500Y-93350000D01*
X112631400Y-91617018D02*
X112038218Y-92210200D01*
X112416502Y-90596703D02*
X112631400Y-90811601D01*
X117703600Y-90449400D02*
X117546600Y-90449400D01*
X112631400Y-90811601D02*
X112631400Y-91617018D01*
X112038218Y-92210200D02*
X111734782Y-92210200D01*
X109524722Y-93980000D02*
X110154722Y-93350000D01*
X111734782Y-92210200D02*
X110837500Y-93107482D01*
X108051600Y-93980000D02*
X109524722Y-93980000D01*
X117546600Y-90449400D02*
X117148000Y-90848000D01*
X110154722Y-93350000D02*
X110837500Y-93350000D01*
G04 #@! TO.N,ADCVREF*
X122021600Y-95935800D02*
X122021600Y-94640400D01*
X115548000Y-89594600D02*
X115548000Y-89663838D01*
X119771352Y-89875552D02*
X119771352Y-89693648D01*
X122021600Y-94640400D02*
X121005600Y-93624400D01*
X119771352Y-89693648D02*
X119659400Y-89805600D01*
X121005600Y-93624400D02*
X121005600Y-91109800D01*
X115548000Y-89663838D02*
X115748000Y-89863838D01*
X121480000Y-96500000D02*
X121480000Y-96477400D01*
X121005600Y-91109800D02*
X119771352Y-89875552D01*
X121480000Y-96477400D02*
X122021600Y-95935800D01*
X115748000Y-89863838D02*
X115748000Y-90848000D01*
G04 #@! TO.N,PHANTOM_SW*
X112081400Y-91389200D02*
X107553182Y-91389200D01*
X106072400Y-89908418D02*
X106072400Y-87985600D01*
X107553182Y-91389200D02*
X106072400Y-89908418D01*
G04 #@! TO.N,AD0*
X124157791Y-93898592D02*
X124157791Y-90096391D01*
X118389400Y-90855800D02*
X119634000Y-90855800D01*
X117773000Y-91472200D02*
X118389400Y-90855800D01*
X124157791Y-90096391D02*
X124028200Y-89966800D01*
X124155200Y-94854800D02*
X124155200Y-93901183D01*
X119634000Y-90855800D02*
X119640810Y-90848990D01*
X124010000Y-95000000D02*
X124155200Y-94854800D01*
X124155200Y-93901183D02*
X124157791Y-93898592D01*
X117773000Y-91473000D02*
X117773000Y-91472200D01*
G04 #@! TO.N,VMID*
X120520000Y-95000000D02*
X120520000Y-93782600D01*
X112943450Y-92293250D02*
X113064200Y-92172500D01*
X113064200Y-91389982D02*
X113606182Y-90848000D01*
X120520000Y-93782600D02*
X119710200Y-92972800D01*
X113064200Y-92172500D02*
X113064200Y-91389982D01*
X113606182Y-90848000D02*
X115398000Y-90848000D01*
G04 #@! TO.N,AVDD*
X122762100Y-93825263D02*
X121970800Y-93033963D01*
X115990000Y-96000000D02*
X115990000Y-96511900D01*
X115990000Y-96379400D02*
X115290600Y-97078800D01*
X116607700Y-97129600D02*
X121843800Y-97129600D01*
X122422400Y-96551000D02*
X122422400Y-94620599D01*
X114442064Y-96804538D02*
X114442064Y-96043901D01*
X121843800Y-97129600D02*
X122422400Y-96551000D01*
X122422400Y-94620599D02*
X122762100Y-94280899D01*
X115267802Y-97078800D02*
X115219882Y-97126720D01*
X112852982Y-95063400D02*
X112530800Y-94741218D01*
X115990000Y-96000000D02*
X115990000Y-96379400D01*
X121970800Y-93033963D02*
X121970800Y-90754200D01*
X115290600Y-97078800D02*
X115267802Y-97078800D01*
X114191518Y-91823000D02*
X114773000Y-91823000D01*
X114764246Y-97126720D02*
X114442064Y-96804538D01*
X120050000Y-88000000D02*
X120050000Y-86512500D01*
X120050000Y-86512500D02*
X120212500Y-86350000D01*
X120040400Y-88823800D02*
X120040400Y-88009600D01*
X115990000Y-96511900D02*
X116607700Y-97129600D01*
X115219882Y-97126720D02*
X114764246Y-97126720D01*
X114442064Y-96043901D02*
X113461563Y-95063400D01*
X120040400Y-88009600D02*
X120050000Y-88000000D01*
X121970800Y-90754200D02*
X120040400Y-88823800D01*
X122762100Y-94280899D02*
X122762100Y-93825263D01*
X112530800Y-93483718D02*
X114191518Y-91823000D01*
X112530800Y-94741218D02*
X112530800Y-93483718D01*
X113461563Y-95063400D02*
X112852982Y-95063400D01*
G04 #@! TO.N,MIC2P*
X116337600Y-88994175D02*
X116448000Y-89104577D01*
X111264092Y-88643489D02*
X111794981Y-88112600D01*
X108051600Y-95529400D02*
X107009400Y-95529400D01*
X107009400Y-95529400D02*
X107000000Y-95520000D01*
X116448000Y-89104577D02*
X116448000Y-90848000D01*
X115456025Y-88112600D02*
X116337600Y-88994175D01*
X111794981Y-88112600D02*
X115456025Y-88112600D01*
G04 #@! TO.N,MIC2N*
X116098000Y-89249550D02*
X115345579Y-88497128D01*
X112276800Y-88497128D02*
X112003227Y-88770701D01*
X115345579Y-88497128D02*
X112276800Y-88497128D01*
X111962600Y-92760200D02*
X111962600Y-95442600D01*
X116098000Y-90848000D02*
X116098000Y-89249550D01*
X111962600Y-95442600D02*
X112520000Y-96000000D01*
G04 #@! TD*
M02*
