G04 #@! TF.GenerationSoftware,KiCad,Pcbnew,10.0.5*
G04 #@! TF.CreationDate,2026-08-16T18:31:02-07:00*
G04 #@! TF.ProjectId,scramble_hat,73637261-6d62-46c6-955f-6861742e6b69,rev?*
G04 #@! TF.SameCoordinates,Original*
G04 #@! TF.FileFunction,Soldermask,Top*
G04 #@! TF.FilePolarity,Negative*
%FSLAX46Y46*%
G04 Gerber Fmt 4.6, Leading zero omitted, Abs format (unit mm)*
G04 Created by KiCad (PCBNEW 10.0.5) date 2026-08-16 18:31:02*
%MOMM*%
%LPD*%
G01*
G04 APERTURE LIST*
G04 Aperture macros list*
%AMRoundRect*
0 Rectangle with rounded corners*
0 $1 Rounding radius*
0 $2 $3 $4 $5 $6 $7 $8 $9 X,Y pos of 4 corners*
0 Add a 4 corners polygon primitive as box body*
4,1,4,$2,$3,$4,$5,$6,$7,$8,$9,$2,$3,0*
0 Add four circle primitives for the rounded corners*
1,1,$1+$1,$2,$3*
1,1,$1+$1,$4,$5*
1,1,$1+$1,$6,$7*
1,1,$1+$1,$8,$9*
0 Add four rect primitives between the rounded corners*
20,1,$1+$1,$2,$3,$4,$5,0*
20,1,$1+$1,$4,$5,$6,$7,0*
20,1,$1+$1,$6,$7,$8,$9,0*
20,1,$1+$1,$8,$9,$2,$3,0*%
G04 Aperture macros list end*
%ADD10RoundRect,0.250000X0.450000X-0.262500X0.450000X0.262500X-0.450000X0.262500X-0.450000X-0.262500X0*%
%ADD11RoundRect,0.112500X-0.187500X-0.112500X0.187500X-0.112500X0.187500X0.112500X-0.187500X0.112500X0*%
%ADD12RoundRect,0.135000X-0.135000X-0.185000X0.135000X-0.185000X0.135000X0.185000X-0.135000X0.185000X0*%
%ADD13RoundRect,0.137500X0.587500X0.137500X-0.587500X0.137500X-0.587500X-0.137500X0.587500X-0.137500X0*%
%ADD14RoundRect,0.250000X-0.250000X-0.475000X0.250000X-0.475000X0.250000X0.475000X-0.250000X0.475000X0*%
%ADD15RoundRect,0.250000X-0.450000X0.262500X-0.450000X-0.262500X0.450000X-0.262500X0.450000X0.262500X0*%
%ADD16C,1.700000*%
%ADD17R,2.800000X2.200000*%
%ADD18R,2.800000X2.800000*%
%ADD19R,2.800000X2.600000*%
%ADD20R,1.700000X1.700000*%
%ADD21RoundRect,0.150000X-0.512500X-0.150000X0.512500X-0.150000X0.512500X0.150000X-0.512500X0.150000X0*%
%ADD22RoundRect,0.140000X-0.140000X-0.170000X0.140000X-0.170000X0.140000X0.170000X-0.140000X0.170000X0*%
%ADD23RoundRect,0.135000X0.135000X0.185000X-0.135000X0.185000X-0.135000X-0.185000X0.135000X-0.185000X0*%
%ADD24C,1.600000*%
%ADD25RoundRect,0.250000X0.262500X0.450000X-0.262500X0.450000X-0.262500X-0.450000X0.262500X-0.450000X0*%
%ADD26C,2.900000*%
%ADD27C,2.700000*%
%ADD28C,3.200000*%
%ADD29C,3.400000*%
%ADD30RoundRect,0.137500X-0.587500X-0.137500X0.587500X-0.137500X0.587500X0.137500X-0.587500X0.137500X0*%
%ADD31O,1.600000X1.600000*%
G04 APERTURE END LIST*
D10*
G04 #@! TO.C,R27*
X98500000Y-99162500D03*
X98500000Y-97337500D03*
G04 #@! TD*
D11*
G04 #@! TO.C,D1*
X107075628Y-85442625D03*
X109175628Y-85442625D03*
G04 #@! TD*
D12*
G04 #@! TO.C,R18*
X115490000Y-94000000D03*
X116510000Y-94000000D03*
G04 #@! TD*
D13*
G04 #@! TO.C,K1*
X120000000Y-91040000D03*
X120000000Y-88500000D03*
X114500000Y-88500000D03*
X114500000Y-91040000D03*
G04 #@! TD*
D14*
G04 #@! TO.C,C14*
X109620800Y-94500000D03*
X111520800Y-94500000D03*
G04 #@! TD*
D12*
G04 #@! TO.C,R10*
X112060800Y-96500000D03*
X113080800Y-96500000D03*
G04 #@! TD*
D15*
G04 #@! TO.C,R16*
X129750000Y-92925000D03*
X129750000Y-94750000D03*
G04 #@! TD*
D16*
G04 #@! TO.C,J2*
X105503200Y-98258200D03*
X105503200Y-91258200D03*
D17*
X101803200Y-97358200D03*
X109203200Y-99358200D03*
D18*
X109203200Y-89958200D03*
D19*
X104753200Y-85958200D03*
G04 #@! TD*
D20*
G04 #@! TO.C,J3*
X115565139Y-81830795D03*
D16*
X118105139Y-81830795D03*
X120645139Y-81830795D03*
X123185139Y-81830795D03*
X125725139Y-81830795D03*
X128265139Y-81830795D03*
X130805139Y-81830795D03*
G04 #@! TD*
D20*
G04 #@! TO.C,J7*
X82439591Y-81809273D03*
D16*
X84979591Y-81809273D03*
X87519591Y-81809273D03*
X90059591Y-81809273D03*
G04 #@! TD*
D21*
G04 #@! TO.C,U2*
X120658100Y-84887900D03*
X120658100Y-85837900D03*
X120658100Y-86787900D03*
X122933100Y-86787900D03*
X122933100Y-84887900D03*
G04 #@! TD*
D14*
G04 #@! TO.C,C15*
X109620800Y-96500000D03*
X111520800Y-96500000D03*
G04 #@! TD*
D20*
G04 #@! TO.C,J6*
X101560181Y-81876272D03*
D16*
X104100181Y-81876272D03*
X106640181Y-81876272D03*
X109180181Y-81876272D03*
G04 #@! TD*
D22*
G04 #@! TO.C,C21*
X124386400Y-84861400D03*
X125346400Y-84861400D03*
G04 #@! TD*
D12*
G04 #@! TO.C,R17*
X116490000Y-92250000D03*
X117510000Y-92250000D03*
G04 #@! TD*
D23*
G04 #@! TO.C,R13*
X101932077Y-85799746D03*
X100912077Y-85799746D03*
G04 #@! TD*
D22*
G04 #@! TO.C,C22*
X124361000Y-86741000D03*
X125321000Y-86741000D03*
G04 #@! TD*
D20*
G04 #@! TO.C,J4*
X115587999Y-99650227D03*
D16*
X118127999Y-99650227D03*
X120667999Y-99650227D03*
X123207999Y-99650227D03*
X125747999Y-99650227D03*
X128287999Y-99650227D03*
X130827999Y-99650227D03*
G04 #@! TD*
D20*
G04 #@! TO.C,J5*
X127655400Y-85217000D03*
D16*
X130195400Y-85217000D03*
G04 #@! TD*
D24*
G04 #@! TO.C,C19*
X110805869Y-86581258D03*
X118305869Y-86581258D03*
G04 #@! TD*
D12*
G04 #@! TO.C,R11*
X100929852Y-84431076D03*
X101949852Y-84431076D03*
G04 #@! TD*
G04 #@! TO.C,R14*
X113990000Y-87250000D03*
X115010000Y-87250000D03*
G04 #@! TD*
D25*
G04 #@! TO.C,R28*
X129412500Y-97250000D03*
X127587500Y-97250000D03*
G04 #@! TD*
D24*
G04 #@! TO.C,J1*
X86106000Y-90779600D03*
X82931000Y-96494600D03*
X82931000Y-85064600D03*
D26*
X94996000Y-97764600D03*
X95631000Y-83794600D03*
D27*
X100076000Y-90779600D03*
D28*
X83566000Y-99034600D03*
D27*
X99441000Y-87922100D03*
X99441000Y-93637100D03*
D29*
X92456000Y-95224600D03*
X92456000Y-86334600D03*
G04 #@! TD*
D12*
G04 #@! TO.C,R9*
X112060800Y-94500000D03*
X113080800Y-94500000D03*
G04 #@! TD*
D30*
G04 #@! TO.C,K2*
X122005307Y-92835059D03*
X122005307Y-95375059D03*
X127505307Y-95375059D03*
X127505307Y-92835059D03*
G04 #@! TD*
D31*
G04 #@! TO.C,SW1*
X125305993Y-90746504D03*
D24*
X127845993Y-90746504D03*
D31*
X130385993Y-90746504D03*
G04 #@! TD*
M02*
