G04 #@! TF.GenerationSoftware,KiCad,Pcbnew,10.0.3*
G04 #@! TF.CreationDate,2026-07-21T22:27:08-07:00*
G04 #@! TF.ProjectId,scramble_hat,73637261-6d62-46c6-955f-6861742e6b69,rev?*
G04 #@! TF.SameCoordinates,Original*
G04 #@! TF.FileFunction,Paste,Bot*
G04 #@! TF.FilePolarity,Positive*
%FSLAX46Y46*%
G04 Gerber Fmt 4.6, Leading zero omitted, Abs format (unit mm)*
G04 Created by KiCad (PCBNEW 10.0.3) date 2026-07-21 22:27:08*
%MOMM*%
%LPD*%
G01*
G04 APERTURE LIST*
G04 Aperture macros list*
%AMRoundRect*
0 Rectangle with rounded corners*
0 $1 Rounding radius*
0 $2 $3 $4 $5 $6 $7 $8 $9 X,Y pos of 4 corners*
0 Add a 4 corners polygon primitive as box body*
4,1,4,$2,$3,$4,$5,$6,$7,$8,$9,$2,$3,0*
0 Add four circle primitives for the rounded corners*
1,1,$1+$1,$2,$3*
1,1,$1+$1,$4,$5*
1,1,$1+$1,$6,$7*
1,1,$1+$1,$8,$9*
0 Add four rect primitives between the rounded corners*
20,1,$1+$1,$2,$3,$4,$5,0*
20,1,$1+$1,$4,$5,$6,$7,0*
20,1,$1+$1,$6,$7,$8,$9,0*
20,1,$1+$1,$8,$9,$2,$3,0*%
%AMFreePoly0*
4,1,14,0.363284,0.088284,0.375000,0.060000,0.375000,-0.060000,0.363284,-0.088284,0.335000,-0.100000,-0.335000,-0.100000,-0.363284,-0.088284,-0.375000,-0.060000,-0.375000,-0.036569,-0.363284,-0.008285,-0.266715,0.088284,-0.238431,0.100000,0.335000,0.100000,0.363284,0.088284,0.363284,0.088284,$1*%
%AMFreePoly1*
4,1,14,0.363284,0.088284,0.375000,0.060000,0.375000,-0.060000,0.363284,-0.088284,0.335000,-0.100000,-0.238431,-0.100000,-0.266715,-0.088284,-0.363284,0.008285,-0.375000,0.036569,-0.375000,0.060000,-0.363284,0.088284,-0.335000,0.100000,0.335000,0.100000,0.363284,0.088284,0.363284,0.088284,$1*%
%AMFreePoly2*
4,1,14,-0.008285,0.363284,0.088284,0.266715,0.100000,0.238431,0.100000,-0.335000,0.088284,-0.363284,0.060000,-0.375000,-0.060000,-0.375000,-0.088284,-0.363284,-0.100000,-0.335000,-0.100000,0.335000,-0.088284,0.363284,-0.060000,0.375000,-0.036569,0.375000,-0.008285,0.363284,-0.008285,0.363284,$1*%
%AMFreePoly3*
4,1,14,0.088284,0.363284,0.100000,0.335000,0.100000,-0.335000,0.088284,-0.363284,0.060000,-0.375000,-0.060000,-0.375000,-0.088284,-0.363284,-0.100000,-0.335000,-0.100000,0.238431,-0.088284,0.266715,0.008285,0.363284,0.036569,0.375000,0.060000,0.375000,0.088284,0.363284,0.088284,0.363284,$1*%
%AMFreePoly4*
4,1,14,0.363284,0.088284,0.375000,0.060000,0.375000,0.036569,0.363284,0.008285,0.266715,-0.088284,0.238431,-0.100000,-0.335000,-0.100000,-0.363284,-0.088284,-0.375000,-0.060000,-0.375000,0.060000,-0.363284,0.088284,-0.335000,0.100000,0.335000,0.100000,0.363284,0.088284,0.363284,0.088284,$1*%
%AMFreePoly5*
4,1,14,0.266715,0.088284,0.363284,-0.008285,0.375000,-0.036569,0.375000,-0.060000,0.363284,-0.088284,0.335000,-0.100000,-0.335000,-0.100000,-0.363284,-0.088284,-0.375000,-0.060000,-0.375000,0.060000,-0.363284,0.088284,-0.335000,0.100000,0.238431,0.100000,0.266715,0.088284,0.266715,0.088284,$1*%
%AMFreePoly6*
4,1,14,0.088284,0.363284,0.100000,0.335000,0.100000,-0.335000,0.088284,-0.363284,0.060000,-0.375000,0.036569,-0.375000,0.008285,-0.363284,-0.088284,-0.266715,-0.100000,-0.238431,-0.100000,0.335000,-0.088284,0.363284,-0.060000,0.375000,0.060000,0.375000,0.088284,0.363284,0.088284,0.363284,$1*%
%AMFreePoly7*
4,1,14,0.088284,0.363284,0.100000,0.335000,0.100000,-0.238431,0.088284,-0.266715,-0.008285,-0.363284,-0.036569,-0.375000,-0.060000,-0.375000,-0.088284,-0.363284,-0.100000,-0.335000,-0.100000,0.335000,-0.088284,0.363284,-0.060000,0.375000,0.060000,0.375000,0.088284,0.363284,0.088284,0.363284,$1*%
G04 Aperture macros list end*
%ADD10RoundRect,0.250000X0.312500X1.450000X-0.312500X1.450000X-0.312500X-1.450000X0.312500X-1.450000X0*%
%ADD11RoundRect,0.150000X-0.662500X-0.150000X0.662500X-0.150000X0.662500X0.150000X-0.662500X0.150000X0*%
%ADD12RoundRect,0.140000X0.140000X0.170000X-0.140000X0.170000X-0.140000X-0.170000X0.140000X-0.170000X0*%
%ADD13RoundRect,0.112500X-0.187500X-0.112500X0.187500X-0.112500X0.187500X0.112500X-0.187500X0.112500X0*%
%ADD14RoundRect,0.135000X0.135000X0.185000X-0.135000X0.185000X-0.135000X-0.185000X0.135000X-0.185000X0*%
%ADD15RoundRect,0.140000X-0.140000X-0.170000X0.140000X-0.170000X0.140000X0.170000X-0.140000X0.170000X0*%
%ADD16RoundRect,0.135000X-0.135000X-0.185000X0.135000X-0.185000X0.135000X0.185000X-0.135000X0.185000X0*%
%ADD17RoundRect,0.250000X-0.450000X0.262500X-0.450000X-0.262500X0.450000X-0.262500X0.450000X0.262500X0*%
%ADD18RoundRect,0.225000X-0.375000X0.225000X-0.375000X-0.225000X0.375000X-0.225000X0.375000X0.225000X0*%
%ADD19RoundRect,0.100000X-0.637500X-0.100000X0.637500X-0.100000X0.637500X0.100000X-0.637500X0.100000X0*%
%ADD20RoundRect,0.250000X0.475000X-0.250000X0.475000X0.250000X-0.475000X0.250000X-0.475000X-0.250000X0*%
%ADD21RoundRect,0.250000X0.325000X0.650000X-0.325000X0.650000X-0.325000X-0.650000X0.325000X-0.650000X0*%
%ADD22RoundRect,0.218750X0.218750X0.256250X-0.218750X0.256250X-0.218750X-0.256250X0.218750X-0.256250X0*%
%ADD23RoundRect,0.075000X0.075000X0.175000X-0.075000X0.175000X-0.075000X-0.175000X0.075000X-0.175000X0*%
%ADD24RoundRect,0.250000X-0.250000X-0.475000X0.250000X-0.475000X0.250000X0.475000X-0.250000X0.475000X0*%
%ADD25RoundRect,0.135000X-0.185000X0.135000X-0.185000X-0.135000X0.185000X-0.135000X0.185000X0.135000X0*%
%ADD26RoundRect,0.150000X-0.587500X-0.150000X0.587500X-0.150000X0.587500X0.150000X-0.587500X0.150000X0*%
%ADD27RoundRect,0.250000X-0.475000X0.250000X-0.475000X-0.250000X0.475000X-0.250000X0.475000X0.250000X0*%
%ADD28RoundRect,0.243750X0.243750X0.456250X-0.243750X0.456250X-0.243750X-0.456250X0.243750X-0.456250X0*%
%ADD29RoundRect,0.160000X-0.195000X-0.160000X0.195000X-0.160000X0.195000X0.160000X-0.195000X0.160000X0*%
%ADD30FreePoly0,0.000000*%
%ADD31RoundRect,0.050000X-0.325000X-0.050000X0.325000X-0.050000X0.325000X0.050000X-0.325000X0.050000X0*%
%ADD32FreePoly1,0.000000*%
%ADD33FreePoly2,0.000000*%
%ADD34RoundRect,0.050000X-0.050000X-0.325000X0.050000X-0.325000X0.050000X0.325000X-0.050000X0.325000X0*%
%ADD35FreePoly3,0.000000*%
%ADD36FreePoly4,0.000000*%
%ADD37FreePoly5,0.000000*%
%ADD38FreePoly6,0.000000*%
%ADD39FreePoly7,0.000000*%
%ADD40RoundRect,0.150000X-0.512500X-0.150000X0.512500X-0.150000X0.512500X0.150000X-0.512500X0.150000X0*%
%ADD41RoundRect,0.250000X1.000000X0.650000X-1.000000X0.650000X-1.000000X-0.650000X1.000000X-0.650000X0*%
%ADD42RoundRect,0.140000X-0.170000X0.140000X-0.170000X-0.140000X0.170000X-0.140000X0.170000X0.140000X0*%
G04 APERTURE END LIST*
D10*
G04 #@! TO.C,F1*
X102819200Y-98018600D03*
X98544200Y-98018600D03*
G04 #@! TD*
D11*
G04 #@! TO.C,OK1*
X107518882Y-84138698D03*
X107518882Y-85408698D03*
X101143882Y-85408698D03*
X101143882Y-84138698D03*
G04 #@! TD*
D12*
G04 #@! TO.C,C9*
X123980000Y-86000000D03*
X123020000Y-86000000D03*
G04 #@! TD*
D13*
G04 #@! TO.C,D2*
X106972500Y-96000000D03*
X109072500Y-96000000D03*
G04 #@! TD*
D12*
G04 #@! TO.C,C8*
X121480000Y-96500000D03*
X120520000Y-96500000D03*
G04 #@! TD*
D14*
G04 #@! TO.C,R12*
X109621011Y-91389200D03*
X108601011Y-91389200D03*
G04 #@! TD*
D12*
G04 #@! TO.C,C28*
X86730000Y-95250000D03*
X85770000Y-95250000D03*
G04 #@! TD*
D14*
G04 #@! TO.C,R3*
X124010000Y-95000000D03*
X122990000Y-95000000D03*
G04 #@! TD*
D15*
G04 #@! TO.C,C26*
X85500000Y-88750000D03*
X86460000Y-88750000D03*
G04 #@! TD*
D16*
G04 #@! TO.C,R4*
X122990000Y-96500000D03*
X124010000Y-96500000D03*
G04 #@! TD*
D15*
G04 #@! TO.C,C7*
X120520000Y-95000000D03*
X121480000Y-95000000D03*
G04 #@! TD*
G04 #@! TO.C,C5*
X118020000Y-96500000D03*
X118980000Y-96500000D03*
G04 #@! TD*
D17*
G04 #@! TO.C,R6*
X90398600Y-82092800D03*
X90398600Y-83917800D03*
G04 #@! TD*
D18*
G04 #@! TO.C,D7*
X113872657Y-90141539D03*
X113872657Y-86841539D03*
G04 #@! TD*
D15*
G04 #@! TO.C,C1*
X119270000Y-84750000D03*
X120230000Y-84750000D03*
G04 #@! TD*
D12*
G04 #@! TO.C,C27*
X86409072Y-92749154D03*
X85449072Y-92749154D03*
G04 #@! TD*
D16*
G04 #@! TO.C,R7*
X115990000Y-96000000D03*
X117010000Y-96000000D03*
G04 #@! TD*
D14*
G04 #@! TO.C,R1*
X131010000Y-97561400D03*
X129990000Y-97561400D03*
G04 #@! TD*
G04 #@! TO.C,R26*
X90010000Y-86000000D03*
X88990000Y-86000000D03*
G04 #@! TD*
D16*
G04 #@! TO.C,R2*
X129990000Y-96500000D03*
X131010000Y-96500000D03*
G04 #@! TD*
D15*
G04 #@! TO.C,C13*
X110520000Y-96000000D03*
X111480000Y-96000000D03*
G04 #@! TD*
D14*
G04 #@! TO.C,R24*
X88010000Y-96750000D03*
X86990000Y-96750000D03*
G04 #@! TD*
D19*
G04 #@! TO.C,U4*
X88128709Y-93051865D03*
X88128709Y-92401865D03*
X88128709Y-91751865D03*
X88128709Y-91101865D03*
X88128709Y-90451865D03*
X88128709Y-89801865D03*
X88128709Y-89151865D03*
X88128709Y-88501865D03*
X93853709Y-88501865D03*
X93853709Y-89151865D03*
X93853709Y-89801865D03*
X93853709Y-90451865D03*
X93853709Y-91101865D03*
X93853709Y-91751865D03*
X93853709Y-92401865D03*
X93853709Y-93051865D03*
G04 #@! TD*
D20*
G04 #@! TO.C,C17*
X88000000Y-83950000D03*
X88000000Y-82050000D03*
G04 #@! TD*
D21*
G04 #@! TO.C,C18*
X115683135Y-85291865D03*
X112733135Y-85291865D03*
G04 #@! TD*
D22*
G04 #@! TO.C,FB1*
X121787500Y-86000000D03*
X120212500Y-86000000D03*
G04 #@! TD*
D20*
G04 #@! TO.C,C11*
X92659200Y-83307000D03*
X92659200Y-81407000D03*
G04 #@! TD*
D15*
G04 #@! TO.C,C12*
X104270000Y-96250000D03*
X105230000Y-96250000D03*
G04 #@! TD*
D14*
G04 #@! TO.C,R22*
X90260000Y-96750000D03*
X89240000Y-96750000D03*
G04 #@! TD*
D23*
G04 #@! TO.C,D9*
X89500000Y-87250000D03*
X88800000Y-87250000D03*
G04 #@! TD*
D24*
G04 #@! TO.C,C6*
X120050000Y-87750000D03*
X121950000Y-87750000D03*
G04 #@! TD*
D16*
G04 #@! TO.C,R19*
X88240000Y-94250000D03*
X89260000Y-94250000D03*
G04 #@! TD*
D12*
G04 #@! TO.C,C29*
X86409072Y-93841562D03*
X85449072Y-93841562D03*
G04 #@! TD*
D15*
G04 #@! TO.C,C4*
X118020000Y-95000000D03*
X118980000Y-95000000D03*
G04 #@! TD*
D25*
G04 #@! TO.C,R25*
X86000000Y-82490000D03*
X86000000Y-83510000D03*
G04 #@! TD*
D14*
G04 #@! TO.C,R23*
X86010000Y-96500000D03*
X84990000Y-96500000D03*
G04 #@! TD*
D26*
G04 #@! TO.C,Q1*
X97687500Y-89753400D03*
X97687500Y-91653400D03*
X95812500Y-90703400D03*
G04 #@! TD*
D27*
G04 #@! TO.C,C10*
X95834200Y-93192600D03*
X95834200Y-95092600D03*
G04 #@! TD*
D28*
G04 #@! TO.C,D8*
X126899251Y-95707310D03*
X128774251Y-95707310D03*
G04 #@! TD*
D29*
G04 #@! TO.C,U1*
X115833000Y-91948000D03*
X115833000Y-92748000D03*
X116713000Y-91948000D03*
X116713000Y-92748000D03*
D30*
X117773000Y-91473000D03*
D31*
X117773000Y-91823000D03*
X117773000Y-92173000D03*
X117773000Y-92523000D03*
X117773000Y-92873000D03*
D32*
X117773000Y-93223000D03*
D33*
X117148000Y-93848000D03*
D34*
X116798000Y-93848000D03*
X116448000Y-93848000D03*
X116098000Y-93848000D03*
X115748000Y-93848000D03*
D35*
X115398000Y-93848000D03*
D36*
X114773000Y-93223000D03*
D31*
X114773000Y-92873000D03*
X114773000Y-92523000D03*
X114773000Y-92173000D03*
X114773000Y-91823000D03*
D37*
X114773000Y-91473000D03*
D38*
X115398000Y-90848000D03*
D34*
X115748000Y-90848000D03*
X116098000Y-90848000D03*
X116448000Y-90848000D03*
X116798000Y-90848000D03*
D39*
X117148000Y-90848000D03*
G04 #@! TD*
D15*
G04 #@! TO.C,C2*
X117994101Y-88004304D03*
X118954101Y-88004304D03*
G04 #@! TD*
D12*
G04 #@! TO.C,C3*
X117291130Y-87661423D03*
X116331130Y-87661423D03*
G04 #@! TD*
D40*
G04 #@! TO.C,U3*
X88475000Y-99900000D03*
X88475000Y-98950000D03*
X88475000Y-98000000D03*
X90750000Y-98000000D03*
X90750000Y-99900000D03*
G04 #@! TD*
D17*
G04 #@! TO.C,R5*
X95834200Y-86385400D03*
X95834200Y-88210400D03*
G04 #@! TD*
D41*
G04 #@! TO.C,D6*
X83250000Y-92750000D03*
X83250000Y-88750000D03*
G04 #@! TD*
D14*
G04 #@! TO.C,R21*
X87010000Y-98000000D03*
X85990000Y-98000000D03*
G04 #@! TD*
D15*
G04 #@! TO.C,C24*
X83770000Y-95000000D03*
X84730000Y-95000000D03*
G04 #@! TD*
D16*
G04 #@! TO.C,R20*
X92490000Y-99750000D03*
X93510000Y-99750000D03*
G04 #@! TD*
D42*
G04 #@! TO.C,C23*
X92500000Y-97770000D03*
X92500000Y-98730000D03*
G04 #@! TD*
D15*
G04 #@! TO.C,C25*
X88270000Y-95500000D03*
X89230000Y-95500000D03*
G04 #@! TD*
G04 #@! TO.C,C20*
X112520000Y-96000000D03*
X113480000Y-96000000D03*
G04 #@! TD*
M02*
