G04 #@! TF.GenerationSoftware,KiCad,Pcbnew,10.0.3*
G04 #@! TF.CreationDate,2026-07-21T21:42:40-07:00*
G04 #@! TF.ProjectId,scramble_hat,73637261-6d62-46c6-955f-6861742e6b69,rev?*
G04 #@! TF.SameCoordinates,Original*
G04 #@! TF.FileFunction,Legend,Bot*
G04 #@! TF.FilePolarity,Positive*
%FSLAX46Y46*%
G04 Gerber Fmt 4.6, Leading zero omitted, Abs format (unit mm)*
G04 Created by KiCad (PCBNEW 10.0.3) date 2026-07-21 21:42:40*
%MOMM*%
%LPD*%
G01*
G04 APERTURE LIST*
G04 Aperture macros list*
%AMRoundRect*
0 Rectangle with rounded corners*
0 $1 Rounding radius*
0 $2 $3 $4 $5 $6 $7 $8 $9 X,Y pos of 4 corners*
0 Add a 4 corners polygon primitive as box body*
4,1,4,$2,$3,$4,$5,$6,$7,$8,$9,$2,$3,0*
0 Add four circle primitives for the rounded corners*
1,1,$1+$1,$2,$3*
1,1,$1+$1,$4,$5*
1,1,$1+$1,$6,$7*
1,1,$1+$1,$8,$9*
0 Add four rect primitives between the rounded corners*
20,1,$1+$1,$2,$3,$4,$5,0*
20,1,$1+$1,$4,$5,$6,$7,0*
20,1,$1+$1,$6,$7,$8,$9,0*
20,1,$1+$1,$8,$9,$2,$3,0*%
%AMFreePoly0*
4,1,14,0.363284,0.088284,0.375000,0.060000,0.375000,-0.060000,0.363284,-0.088284,0.335000,-0.100000,-0.335000,-0.100000,-0.363284,-0.088284,-0.375000,-0.060000,-0.375000,-0.036569,-0.363284,-0.008285,-0.266715,0.088284,-0.238431,0.100000,0.335000,0.100000,0.363284,0.088284,0.363284,0.088284,$1*%
%AMFreePoly1*
4,1,14,0.363284,0.088284,0.375000,0.060000,0.375000,-0.060000,0.363284,-0.088284,0.335000,-0.100000,-0.238431,-0.100000,-0.266715,-0.088284,-0.363284,0.008285,-0.375000,0.036569,-0.375000,0.060000,-0.363284,0.088284,-0.335000,0.100000,0.335000,0.100000,0.363284,0.088284,0.363284,0.088284,$1*%
%AMFreePoly2*
4,1,14,-0.008285,0.363284,0.088284,0.266715,0.100000,0.238431,0.100000,-0.335000,0.088284,-0.363284,0.060000,-0.375000,-0.060000,-0.375000,-0.088284,-0.363284,-0.100000,-0.335000,-0.100000,0.335000,-0.088284,0.363284,-0.060000,0.375000,-0.036569,0.375000,-0.008285,0.363284,-0.008285,0.363284,$1*%
%AMFreePoly3*
4,1,14,0.088284,0.363284,0.100000,0.335000,0.100000,-0.335000,0.088284,-0.363284,0.060000,-0.375000,-0.060000,-0.375000,-0.088284,-0.363284,-0.100000,-0.335000,-0.100000,0.238431,-0.088284,0.266715,0.008285,0.363284,0.036569,0.375000,0.060000,0.375000,0.088284,0.363284,0.088284,0.363284,$1*%
%AMFreePoly4*
4,1,14,0.363284,0.088284,0.375000,0.060000,0.375000,0.036569,0.363284,0.008285,0.266715,-0.088284,0.238431,-0.100000,-0.335000,-0.100000,-0.363284,-0.088284,-0.375000,-0.060000,-0.375000,0.060000,-0.363284,0.088284,-0.335000,0.100000,0.335000,0.100000,0.363284,0.088284,0.363284,0.088284,$1*%
%AMFreePoly5*
4,1,14,0.266715,0.088284,0.363284,-0.008285,0.375000,-0.036569,0.375000,-0.060000,0.363284,-0.088284,0.335000,-0.100000,-0.335000,-0.100000,-0.363284,-0.088284,-0.375000,-0.060000,-0.375000,0.060000,-0.363284,0.088284,-0.335000,0.100000,0.238431,0.100000,0.266715,0.088284,0.266715,0.088284,$1*%
%AMFreePoly6*
4,1,14,0.088284,0.363284,0.100000,0.335000,0.100000,-0.335000,0.088284,-0.363284,0.060000,-0.375000,0.036569,-0.375000,0.008285,-0.363284,-0.088284,-0.266715,-0.100000,-0.238431,-0.100000,0.335000,-0.088284,0.363284,-0.060000,0.375000,0.060000,0.375000,0.088284,0.363284,0.088284,0.363284,$1*%
%AMFreePoly7*
4,1,14,0.088284,0.363284,0.100000,0.335000,0.100000,-0.238431,0.088284,-0.266715,-0.008285,-0.363284,-0.036569,-0.375000,-0.060000,-0.375000,-0.088284,-0.363284,-0.100000,-0.335000,-0.100000,0.335000,-0.088284,0.363284,-0.060000,0.375000,0.060000,0.375000,0.088284,0.363284,0.088284,0.363284,$1*%
G04 Aperture macros list end*
%ADD10C,0.000000*%
%ADD11C,0.134981*%
%ADD12C,0.304176*%
%ADD13C,0.125000*%
%ADD14C,0.187500*%
%ADD15C,0.120000*%
%ADD16C,0.160000*%
%ADD17C,1.700000*%
%ADD18R,1.700000X1.700000*%
%ADD19C,1.600000*%
%ADD20C,2.900000*%
%ADD21C,2.700000*%
%ADD22C,3.200000*%
%ADD23C,3.400000*%
%ADD24RoundRect,0.250000X0.312500X1.450000X-0.312500X1.450000X-0.312500X-1.450000X0.312500X-1.450000X0*%
%ADD25RoundRect,0.150000X-0.662500X-0.150000X0.662500X-0.150000X0.662500X0.150000X-0.662500X0.150000X0*%
%ADD26RoundRect,0.140000X0.140000X0.170000X-0.140000X0.170000X-0.140000X-0.170000X0.140000X-0.170000X0*%
%ADD27RoundRect,0.112500X-0.187500X-0.112500X0.187500X-0.112500X0.187500X0.112500X-0.187500X0.112500X0*%
%ADD28RoundRect,0.135000X0.135000X0.185000X-0.135000X0.185000X-0.135000X-0.185000X0.135000X-0.185000X0*%
%ADD29RoundRect,0.140000X-0.140000X-0.170000X0.140000X-0.170000X0.140000X0.170000X-0.140000X0.170000X0*%
%ADD30RoundRect,0.135000X-0.135000X-0.185000X0.135000X-0.185000X0.135000X0.185000X-0.135000X0.185000X0*%
%ADD31RoundRect,0.250000X-0.450000X0.262500X-0.450000X-0.262500X0.450000X-0.262500X0.450000X0.262500X0*%
%ADD32RoundRect,0.225000X-0.375000X0.225000X-0.375000X-0.225000X0.375000X-0.225000X0.375000X0.225000X0*%
%ADD33RoundRect,0.100000X-0.637500X-0.100000X0.637500X-0.100000X0.637500X0.100000X-0.637500X0.100000X0*%
%ADD34RoundRect,0.250000X0.475000X-0.250000X0.475000X0.250000X-0.475000X0.250000X-0.475000X-0.250000X0*%
%ADD35RoundRect,0.250000X0.325000X0.650000X-0.325000X0.650000X-0.325000X-0.650000X0.325000X-0.650000X0*%
%ADD36RoundRect,0.218750X0.218750X0.256250X-0.218750X0.256250X-0.218750X-0.256250X0.218750X-0.256250X0*%
%ADD37RoundRect,0.075000X0.075000X0.175000X-0.075000X0.175000X-0.075000X-0.175000X0.075000X-0.175000X0*%
%ADD38RoundRect,0.250000X-0.250000X-0.475000X0.250000X-0.475000X0.250000X0.475000X-0.250000X0.475000X0*%
%ADD39O,1.600000X1.600000*%
%ADD40RoundRect,0.135000X-0.185000X0.135000X-0.185000X-0.135000X0.185000X-0.135000X0.185000X0.135000X0*%
%ADD41RoundRect,0.150000X-0.587500X-0.150000X0.587500X-0.150000X0.587500X0.150000X-0.587500X0.150000X0*%
%ADD42RoundRect,0.250000X-0.475000X0.250000X-0.475000X-0.250000X0.475000X-0.250000X0.475000X0.250000X0*%
%ADD43RoundRect,0.243750X0.243750X0.456250X-0.243750X0.456250X-0.243750X-0.456250X0.243750X-0.456250X0*%
%ADD44FreePoly0,0.000000*%
%ADD45RoundRect,0.050000X-0.325000X-0.050000X0.325000X-0.050000X0.325000X0.050000X-0.325000X0.050000X0*%
%ADD46FreePoly1,0.000000*%
%ADD47FreePoly2,0.000000*%
%ADD48RoundRect,0.050000X-0.050000X-0.325000X0.050000X-0.325000X0.050000X0.325000X-0.050000X0.325000X0*%
%ADD49FreePoly3,0.000000*%
%ADD50FreePoly4,0.000000*%
%ADD51FreePoly5,0.000000*%
%ADD52FreePoly6,0.000000*%
%ADD53FreePoly7,0.000000*%
%ADD54RoundRect,0.150000X-0.512500X-0.150000X0.512500X-0.150000X0.512500X0.150000X-0.512500X0.150000X0*%
%ADD55RoundRect,0.250000X1.000000X0.650000X-1.000000X0.650000X-1.000000X-0.650000X1.000000X-0.650000X0*%
%ADD56RoundRect,0.140000X-0.170000X0.140000X-0.170000X-0.140000X0.170000X-0.140000X0.170000X0.140000X0*%
G04 APERTURE END LIST*
D10*
G36*
X101498767Y-89858535D02*
G01*
X101419154Y-89858535D01*
X101419154Y-90072009D01*
X101387080Y-90072009D01*
X101387080Y-89858535D01*
X101307076Y-89858535D01*
X101307076Y-89830020D01*
X101498767Y-89830020D01*
X101498767Y-89858535D01*
G37*
G36*
X101145461Y-89998346D02*
G01*
X101149520Y-90010431D01*
X101152979Y-90020916D01*
X101155840Y-90029834D01*
X101158128Y-90037165D01*
X101170013Y-90001517D01*
X101227042Y-89830020D01*
X101275362Y-89830020D01*
X101275362Y-90072009D01*
X101244491Y-90072009D01*
X101244491Y-89866066D01*
X101174371Y-90072009D01*
X101145461Y-90072009D01*
X101075364Y-89869627D01*
X101075364Y-90072009D01*
X101044464Y-90072009D01*
X101044464Y-89830020D01*
X101087633Y-89830020D01*
X101145461Y-89998346D01*
G37*
D11*
X102460024Y-87664936D02*
X102402858Y-87669161D01*
X102346134Y-87676210D01*
X102290029Y-87686010D01*
X102234580Y-87698517D01*
X102179890Y-87713694D01*
X102126084Y-87731486D01*
X102073225Y-87751902D01*
X102021459Y-87774843D01*
X101970814Y-87800293D01*
X101921428Y-87828219D01*
X101873388Y-87858591D01*
X101826751Y-87891352D01*
X101781687Y-87926459D01*
X101738235Y-87963909D01*
X101696531Y-88003597D01*
X101656798Y-88045338D01*
X101619364Y-88088797D01*
X101584254Y-88133864D01*
X101551496Y-88180466D01*
X101521135Y-88228500D01*
X101493202Y-88277912D01*
X101467736Y-88328545D01*
X101444815Y-88380325D01*
X101424403Y-88433190D01*
X101406594Y-88486990D01*
X101391421Y-88541675D01*
X101378910Y-88597117D01*
X101369119Y-88653233D01*
X101362080Y-88709945D01*
X101357829Y-88767140D01*
X101356404Y-88824715D01*
X101357902Y-88884484D01*
X101362400Y-88943455D01*
X101369776Y-89001542D01*
X101379984Y-89058742D01*
X101392946Y-89114925D01*
X101408610Y-89170032D01*
X101426860Y-89223980D01*
X101447644Y-89276711D01*
X101470913Y-89328154D01*
X101496552Y-89378226D01*
X101524507Y-89426847D01*
X101554712Y-89473987D01*
X101587098Y-89519500D01*
X101621583Y-89563355D01*
X101658054Y-89605496D01*
X101696531Y-89645834D01*
X101736846Y-89684258D01*
X101778965Y-89720766D01*
X101822855Y-89755247D01*
X101868371Y-89787612D01*
X101915512Y-89817825D01*
X101964112Y-89845783D01*
X102014176Y-89871421D01*
X102065632Y-89894684D01*
X102118354Y-89915465D01*
X102172313Y-89933720D01*
X102227407Y-89949389D01*
X102283607Y-89962338D01*
X102340787Y-89972547D01*
X102398879Y-89979941D01*
X102457866Y-89984415D01*
X102517616Y-89985940D01*
X111183078Y-89985940D01*
X111242828Y-89984415D01*
X111301795Y-89979941D01*
X111359908Y-89972547D01*
X111417093Y-89962338D01*
X111473274Y-89949389D01*
X111528379Y-89933720D01*
X111582335Y-89915465D01*
X111635065Y-89894684D01*
X111686492Y-89871421D01*
X111736564Y-89845783D01*
X111785200Y-89817825D01*
X111832322Y-89787612D01*
X111877833Y-89755247D01*
X111921702Y-89720766D01*
X111963836Y-89684258D01*
X112004165Y-89645834D01*
X112042632Y-89605496D01*
X112079116Y-89563355D01*
X112113584Y-89519500D01*
X112145969Y-89473987D01*
X112176169Y-89426847D01*
X112204132Y-89378226D01*
X112229771Y-89328154D01*
X112253033Y-89276711D01*
X112273823Y-89223980D01*
X112292081Y-89170032D01*
X112307743Y-89114925D01*
X112320696Y-89058742D01*
X112330902Y-89001542D01*
X112338291Y-88943455D01*
X112342781Y-88884484D01*
X112344283Y-88824715D01*
X112342781Y-88764950D01*
X112338291Y-88705976D01*
X112330902Y-88647881D01*
X112320696Y-88590689D01*
X112307743Y-88534509D01*
X112292081Y-88479401D01*
X112273823Y-88425453D01*
X112253033Y-88372722D01*
X112229771Y-88321277D01*
X112204132Y-88271228D01*
X112176169Y-88222574D01*
X112145969Y-88175440D01*
X112113584Y-88129932D01*
X112079116Y-88086074D01*
X112042632Y-88043933D01*
X112004165Y-88003597D01*
X111963836Y-87965170D01*
X111921702Y-87928667D01*
X111877833Y-87894181D01*
X111832322Y-87861809D01*
X111785200Y-87831607D01*
X111736564Y-87803651D01*
X111686492Y-87778016D01*
X111635065Y-87754751D01*
X111582335Y-87733963D01*
X111528379Y-87715711D01*
X111473274Y-87700049D01*
X111417093Y-87687081D01*
X111359908Y-87676879D01*
X111301795Y-87669500D01*
X111242828Y-87665017D01*
X111183078Y-87663494D01*
X102517616Y-87663494D01*
X102460024Y-87664936D01*
D12*
X102460024Y-87664936D02*
X102402858Y-87669161D01*
X102346134Y-87676210D01*
X102290029Y-87686010D01*
X102234580Y-87698517D01*
X102179890Y-87713694D01*
X102126084Y-87731486D01*
X102073225Y-87751902D01*
X102021459Y-87774843D01*
X101970814Y-87800293D01*
X101921428Y-87828219D01*
X101873388Y-87858591D01*
X101826751Y-87891352D01*
X101781687Y-87926459D01*
X101738235Y-87963909D01*
X101696531Y-88003597D01*
X101656798Y-88045338D01*
X101619364Y-88088797D01*
X101584254Y-88133864D01*
X101551496Y-88180466D01*
X101521135Y-88228500D01*
X101493202Y-88277912D01*
X101467736Y-88328545D01*
X101444815Y-88380325D01*
X101424403Y-88433190D01*
X101406594Y-88486990D01*
X101391421Y-88541675D01*
X101378910Y-88597117D01*
X101369119Y-88653233D01*
X101362080Y-88709945D01*
X101357829Y-88767140D01*
X101356404Y-88824715D01*
X101357902Y-88884484D01*
X101362400Y-88943455D01*
X101369776Y-89001542D01*
X101379984Y-89058742D01*
X101392946Y-89114925D01*
X101408610Y-89170032D01*
X101426860Y-89223980D01*
X101447644Y-89276711D01*
X101470913Y-89328154D01*
X101496552Y-89378226D01*
X101524507Y-89426847D01*
X101554712Y-89473987D01*
X101587098Y-89519500D01*
X101621583Y-89563355D01*
X101658054Y-89605496D01*
X101696531Y-89645834D01*
X101736846Y-89684258D01*
X101778965Y-89720766D01*
X101822855Y-89755247D01*
X101868371Y-89787612D01*
X101915512Y-89817825D01*
X101964112Y-89845783D01*
X102014176Y-89871421D01*
X102065632Y-89894684D01*
X102118354Y-89915465D01*
X102172313Y-89933720D01*
X102227407Y-89949389D01*
X102283607Y-89962338D01*
X102340787Y-89972547D01*
X102398879Y-89979941D01*
X102457866Y-89984415D01*
X102517616Y-89985940D01*
X111183078Y-89985940D01*
X111242828Y-89984415D01*
X111301795Y-89979941D01*
X111359908Y-89972547D01*
X111417093Y-89962338D01*
X111473274Y-89949389D01*
X111528379Y-89933720D01*
X111582335Y-89915465D01*
X111635065Y-89894684D01*
X111686492Y-89871421D01*
X111736564Y-89845783D01*
X111785200Y-89817825D01*
X111832322Y-89787612D01*
X111877833Y-89755247D01*
X111921702Y-89720766D01*
X111963836Y-89684258D01*
X112004165Y-89645834D01*
X112042632Y-89605496D01*
X112079116Y-89563355D01*
X112113584Y-89519500D01*
X112145969Y-89473987D01*
X112176169Y-89426847D01*
X112204132Y-89378226D01*
X112229771Y-89328154D01*
X112253033Y-89276711D01*
X112273823Y-89223980D01*
X112292081Y-89170032D01*
X112307743Y-89114925D01*
X112320696Y-89058742D01*
X112330902Y-89001542D01*
X112338291Y-88943455D01*
X112342781Y-88884484D01*
X112344283Y-88824715D01*
X112342781Y-88764950D01*
X112338291Y-88705976D01*
X112330902Y-88647881D01*
X112320696Y-88590689D01*
X112307743Y-88534509D01*
X112292081Y-88479401D01*
X112273823Y-88425453D01*
X112253033Y-88372722D01*
X112229771Y-88321277D01*
X112204132Y-88271228D01*
X112176169Y-88222574D01*
X112145969Y-88175440D01*
X112113584Y-88129932D01*
X112079116Y-88086074D01*
X112042632Y-88043933D01*
X112004165Y-88003597D01*
X111963836Y-87965170D01*
X111921702Y-87928667D01*
X111877833Y-87894181D01*
X111832322Y-87861809D01*
X111785200Y-87831607D01*
X111736564Y-87803651D01*
X111686492Y-87778016D01*
X111635065Y-87754751D01*
X111582335Y-87733963D01*
X111528379Y-87715711D01*
X111473274Y-87700049D01*
X111417093Y-87687081D01*
X111359908Y-87676879D01*
X111301795Y-87669500D01*
X111242828Y-87665017D01*
X111183078Y-87663494D01*
X102517616Y-87663494D01*
X102460024Y-87664936D01*
D10*
G36*
X103884374Y-88221614D02*
G01*
X103892191Y-88222019D01*
X103899761Y-88222688D01*
X103907078Y-88223633D01*
X103914155Y-88224830D01*
X103921005Y-88226312D01*
X103927606Y-88228084D01*
X103933954Y-88230091D01*
X103940062Y-88232365D01*
X103945954Y-88234942D01*
X103951566Y-88237772D01*
X103956982Y-88240844D01*
X103962142Y-88244219D01*
X103967032Y-88247866D01*
X103971701Y-88251763D01*
X103976138Y-88255936D01*
X103980300Y-88260371D01*
X103984205Y-88265051D01*
X103987839Y-88270015D01*
X103991209Y-88275220D01*
X103994288Y-88280681D01*
X103997141Y-88286374D01*
X103999697Y-88292376D01*
X104001988Y-88298615D01*
X104003997Y-88305105D01*
X104005736Y-88311838D01*
X104007212Y-88318852D01*
X104008432Y-88326107D01*
X104009391Y-88333633D01*
X104010054Y-88341382D01*
X104010461Y-88349445D01*
X104010594Y-88357727D01*
X104010594Y-89303922D01*
X104010461Y-89311789D01*
X104010047Y-89319434D01*
X104009338Y-89326865D01*
X104008382Y-89334112D01*
X104007145Y-89341109D01*
X104005636Y-89347908D01*
X104003855Y-89354482D01*
X104001780Y-89360849D01*
X103999439Y-89367007D01*
X103996834Y-89372952D01*
X103993929Y-89378681D01*
X103990757Y-89384204D01*
X103987314Y-89389490D01*
X103983605Y-89394586D01*
X103979613Y-89399466D01*
X103975337Y-89404128D01*
X103970827Y-89408488D01*
X103966054Y-89412569D01*
X103961055Y-89416365D01*
X103955805Y-89419894D01*
X103950329Y-89423142D01*
X103944622Y-89426078D01*
X103938659Y-89428765D01*
X103932460Y-89431160D01*
X103926029Y-89433280D01*
X103919369Y-89435110D01*
X103912449Y-89436646D01*
X103905313Y-89437901D01*
X103897936Y-89438908D01*
X103890301Y-89439607D01*
X103882450Y-89440026D01*
X103874345Y-89440165D01*
X103281426Y-89440165D01*
X103274666Y-89440047D01*
X103268074Y-89439717D01*
X103261672Y-89439146D01*
X103255477Y-89438334D01*
X103249462Y-89437293D01*
X103243667Y-89436051D01*
X103238053Y-89434552D01*
X103232610Y-89432838D01*
X103227406Y-89430890D01*
X103222379Y-89428710D01*
X103217527Y-89426324D01*
X103212889Y-89423664D01*
X103208450Y-89420809D01*
X103204192Y-89417729D01*
X103200149Y-89414406D01*
X103196285Y-89410858D01*
X103192636Y-89407091D01*
X103189232Y-89403135D01*
X103186053Y-89398960D01*
X103183114Y-89394586D01*
X103180421Y-89390026D01*
X103177928Y-89385261D01*
X103175710Y-89380286D01*
X103173711Y-89375092D01*
X103171952Y-89369746D01*
X103170396Y-89364158D01*
X103169110Y-89358387D01*
X103168064Y-89352408D01*
X103167250Y-89346237D01*
X103166661Y-89339866D01*
X103166309Y-89333277D01*
X103166189Y-89326502D01*
X103166309Y-89319904D01*
X103166661Y-89313504D01*
X103167250Y-89307308D01*
X103168064Y-89301270D01*
X103169110Y-89295435D01*
X103170396Y-89289813D01*
X103171952Y-89284337D01*
X103173711Y-89279048D01*
X103175710Y-89273977D01*
X103177928Y-89269109D01*
X103180421Y-89264389D01*
X103183114Y-89259874D01*
X103186053Y-89255574D01*
X103189232Y-89251435D01*
X103192636Y-89247488D01*
X103196285Y-89243731D01*
X103200149Y-89240163D01*
X103204192Y-89236852D01*
X103208450Y-89233768D01*
X103212889Y-89230892D01*
X103217527Y-89228265D01*
X103222379Y-89225855D01*
X103227406Y-89223669D01*
X103232610Y-89221726D01*
X103238053Y-89220028D01*
X103243667Y-89218523D01*
X103249462Y-89217258D01*
X103255477Y-89216239D01*
X103261672Y-89215443D01*
X103268074Y-89214862D01*
X103274666Y-89214526D01*
X103281426Y-89214411D01*
X103743246Y-89214411D01*
X103743246Y-88357727D01*
X103743376Y-88349445D01*
X103743788Y-88341382D01*
X103744481Y-88333633D01*
X103745418Y-88326107D01*
X103746649Y-88318852D01*
X103748147Y-88311838D01*
X103749919Y-88305105D01*
X103751964Y-88298615D01*
X103754276Y-88292376D01*
X103756865Y-88286374D01*
X103759714Y-88280681D01*
X103762861Y-88275220D01*
X103766270Y-88270015D01*
X103769937Y-88265051D01*
X103773881Y-88260371D01*
X103778110Y-88255936D01*
X103782537Y-88251763D01*
X103787161Y-88247866D01*
X103792042Y-88244219D01*
X103797171Y-88240844D01*
X103802509Y-88237772D01*
X103808073Y-88234942D01*
X103813850Y-88232365D01*
X103819889Y-88230091D01*
X103826143Y-88228084D01*
X103832616Y-88226312D01*
X103839325Y-88224830D01*
X103846279Y-88223633D01*
X103853458Y-88222688D01*
X103860840Y-88222019D01*
X103868487Y-88221614D01*
X103876335Y-88221495D01*
X103884374Y-88221614D01*
G37*
G36*
X108083726Y-89288471D02*
G01*
X108086396Y-89294268D01*
X108088802Y-89300021D01*
X108091010Y-89305692D01*
X108092979Y-89311316D01*
X108094691Y-89316832D01*
X108096198Y-89322298D01*
X108097456Y-89327700D01*
X108098484Y-89333037D01*
X108099293Y-89338296D01*
X108099859Y-89343486D01*
X108100195Y-89348606D01*
X108100291Y-89353662D01*
X108100168Y-89358667D01*
X108099797Y-89363580D01*
X108099234Y-89368458D01*
X108098378Y-89373235D01*
X108097311Y-89377877D01*
X108096061Y-89382403D01*
X108094628Y-89386804D01*
X108093041Y-89391101D01*
X108091280Y-89395278D01*
X108089341Y-89399335D01*
X108087219Y-89403270D01*
X108084927Y-89407091D01*
X108082452Y-89410798D01*
X108079816Y-89414380D01*
X108077009Y-89417853D01*
X108074027Y-89421208D01*
X108070867Y-89424436D01*
X108067553Y-89427552D01*
X108064055Y-89430551D01*
X108060368Y-89433422D01*
X108056535Y-89436113D01*
X108052547Y-89438626D01*
X108048434Y-89440973D01*
X108044174Y-89443142D01*
X108039782Y-89445136D01*
X108035230Y-89446950D01*
X108030539Y-89448593D01*
X108025706Y-89450078D01*
X108020742Y-89451378D01*
X108015625Y-89452486D01*
X108010360Y-89453459D01*
X108004965Y-89454226D01*
X107999445Y-89454842D01*
X107993749Y-89455271D01*
X107987928Y-89455520D01*
X107981947Y-89455603D01*
X107975184Y-89455501D01*
X107968588Y-89455199D01*
X107962248Y-89454690D01*
X107956084Y-89453956D01*
X107950124Y-89453013D01*
X107944387Y-89451872D01*
X107938850Y-89450533D01*
X107933545Y-89448972D01*
X107928418Y-89447214D01*
X107923473Y-89445258D01*
X107918764Y-89443084D01*
X107914292Y-89440677D01*
X107910010Y-89438096D01*
X107905919Y-89435289D01*
X107902044Y-89432296D01*
X107898378Y-89429069D01*
X107894829Y-89425572D01*
X107891293Y-89421831D01*
X107887788Y-89417819D01*
X107884286Y-89413541D01*
X107880815Y-89409004D01*
X107877389Y-89404194D01*
X107873968Y-89399131D01*
X107870549Y-89393841D01*
X107867183Y-89388246D01*
X107863814Y-89382414D01*
X107860484Y-89376313D01*
X107857161Y-89369974D01*
X107850593Y-89356461D01*
X107844119Y-89341941D01*
X107773800Y-89176397D01*
X107205406Y-89176397D01*
X107133972Y-89341941D01*
X107130931Y-89349146D01*
X107127814Y-89356118D01*
X107124655Y-89362843D01*
X107121439Y-89369328D01*
X107118134Y-89375567D01*
X107114804Y-89381561D01*
X107111390Y-89387309D01*
X107107930Y-89392817D01*
X107104416Y-89398119D01*
X107100833Y-89403162D01*
X107097202Y-89407936D01*
X107093502Y-89412483D01*
X107089750Y-89416806D01*
X107085944Y-89420877D01*
X107082049Y-89424695D01*
X107078123Y-89428280D01*
X107074011Y-89431596D01*
X107069688Y-89434681D01*
X107065160Y-89437577D01*
X107060424Y-89440229D01*
X107055474Y-89442691D01*
X107050336Y-89444951D01*
X107044987Y-89446966D01*
X107039426Y-89448769D01*
X107033636Y-89450393D01*
X107027649Y-89451779D01*
X107021468Y-89452948D01*
X107015083Y-89453906D01*
X107008479Y-89454660D01*
X107001668Y-89455191D01*
X106994654Y-89455501D01*
X106987438Y-89455603D01*
X106981656Y-89455520D01*
X106976008Y-89455295D01*
X106970505Y-89454870D01*
X106965141Y-89454270D01*
X106959932Y-89453523D01*
X106954829Y-89452604D01*
X106949861Y-89451519D01*
X106945056Y-89450268D01*
X106940369Y-89448842D01*
X106935823Y-89447254D01*
X106931397Y-89445511D01*
X106927128Y-89443582D01*
X106922980Y-89441491D01*
X106918982Y-89439234D01*
X106915122Y-89436825D01*
X106911378Y-89434225D01*
X106907821Y-89431441D01*
X106904435Y-89428515D01*
X106901215Y-89425484D01*
X106898203Y-89422290D01*
X106895361Y-89419002D01*
X106892695Y-89415536D01*
X106890210Y-89411993D01*
X106887912Y-89408285D01*
X106885793Y-89404448D01*
X106883871Y-89400497D01*
X106882125Y-89396415D01*
X106880571Y-89392184D01*
X106879198Y-89387836D01*
X106877984Y-89383370D01*
X106876967Y-89378762D01*
X106876135Y-89374035D01*
X106875516Y-89369153D01*
X106875112Y-89364196D01*
X106874907Y-89359183D01*
X106874957Y-89354126D01*
X106875212Y-89348983D01*
X106875694Y-89343796D01*
X106876391Y-89338540D01*
X106877327Y-89333235D01*
X106878476Y-89327863D01*
X106879855Y-89322403D01*
X106881442Y-89316917D01*
X106883268Y-89311349D01*
X106885307Y-89305711D01*
X106887575Y-89300037D01*
X106890069Y-89294270D01*
X106892770Y-89288471D01*
X107040047Y-88968057D01*
X107294945Y-88968057D01*
X107684923Y-88968057D01*
X107492403Y-88509412D01*
X107488840Y-88509412D01*
X107294945Y-88968057D01*
X107040047Y-88968057D01*
X107337154Y-88321678D01*
X107340454Y-88314483D01*
X107343896Y-88307526D01*
X107347371Y-88300832D01*
X107350976Y-88294369D01*
X107354665Y-88288162D01*
X107358420Y-88282228D01*
X107362305Y-88276545D01*
X107366259Y-88271071D01*
X107370326Y-88265889D01*
X107374472Y-88260949D01*
X107378710Y-88256249D01*
X107383052Y-88251813D01*
X107387484Y-88247614D01*
X107392006Y-88243651D01*
X107396599Y-88239964D01*
X107401328Y-88236532D01*
X107406070Y-88233273D01*
X107410910Y-88230225D01*
X107415870Y-88227376D01*
X107420907Y-88224741D01*
X107426029Y-88222328D01*
X107431266Y-88220103D01*
X107436590Y-88218108D01*
X107442009Y-88216332D01*
X107447535Y-88214757D01*
X107453157Y-88213379D01*
X107458863Y-88212221D01*
X107464664Y-88211292D01*
X107470568Y-88210526D01*
X107476549Y-88210015D01*
X107482666Y-88209695D01*
X107488840Y-88209592D01*
X107495087Y-88209695D01*
X107501233Y-88210015D01*
X107507283Y-88210526D01*
X107513245Y-88211292D01*
X107519076Y-88212221D01*
X107524844Y-88213379D01*
X107530513Y-88214757D01*
X107536082Y-88216332D01*
X107541551Y-88218108D01*
X107546920Y-88220103D01*
X107552192Y-88222328D01*
X107557394Y-88224741D01*
X107562476Y-88227376D01*
X107567476Y-88230225D01*
X107572374Y-88233273D01*
X107577166Y-88236532D01*
X107581826Y-88239964D01*
X107586432Y-88243651D01*
X107590942Y-88247614D01*
X107595348Y-88251813D01*
X107599707Y-88256249D01*
X107604009Y-88260949D01*
X107608204Y-88265889D01*
X107612325Y-88271071D01*
X107616378Y-88276545D01*
X107620334Y-88282228D01*
X107624234Y-88288162D01*
X107628023Y-88294369D01*
X107631782Y-88300832D01*
X107635436Y-88307526D01*
X107639015Y-88314483D01*
X107642527Y-88321678D01*
X107937495Y-88968057D01*
X108083726Y-89288471D01*
G37*
G36*
X102891420Y-88225190D02*
G01*
X102899466Y-88225608D01*
X102907290Y-88226312D01*
X102914853Y-88227315D01*
X102922189Y-88228615D01*
X102929282Y-88230189D01*
X102936111Y-88232008D01*
X102942712Y-88234146D01*
X102949101Y-88236562D01*
X102955219Y-88239275D01*
X102961087Y-88242262D01*
X102966736Y-88245536D01*
X102972145Y-88249102D01*
X102977297Y-88252940D01*
X102982213Y-88257065D01*
X102986877Y-88261480D01*
X102991236Y-88266117D01*
X102995341Y-88270964D01*
X102999120Y-88276079D01*
X103002662Y-88281429D01*
X103005890Y-88287027D01*
X103008844Y-88292862D01*
X103011525Y-88298928D01*
X103013920Y-88305244D01*
X103016020Y-88311802D01*
X103017864Y-88318608D01*
X103019415Y-88325634D01*
X103020673Y-88332922D01*
X103021667Y-88340443D01*
X103022364Y-88348213D01*
X103022784Y-88356209D01*
X103022948Y-88364457D01*
X103022948Y-89300351D01*
X103022784Y-89308656D01*
X103022364Y-89316699D01*
X103021667Y-89324525D01*
X103020673Y-89332085D01*
X103019415Y-89339413D01*
X103017864Y-89346526D01*
X103016020Y-89353353D01*
X103013920Y-89359967D01*
X103011525Y-89366321D01*
X103008844Y-89372456D01*
X103005890Y-89378347D01*
X103002662Y-89383975D01*
X102999120Y-89389365D01*
X102995341Y-89394537D01*
X102991236Y-89399460D01*
X102986877Y-89404128D01*
X102982213Y-89408488D01*
X102977297Y-89412569D01*
X102972145Y-89416365D01*
X102966736Y-89419894D01*
X102961087Y-89423142D01*
X102955219Y-89426078D01*
X102949101Y-89428765D01*
X102942712Y-89431160D01*
X102936111Y-89433280D01*
X102929282Y-89435110D01*
X102922189Y-89436646D01*
X102914853Y-89437901D01*
X102907290Y-89438908D01*
X102899466Y-89439607D01*
X102891420Y-89440026D01*
X102883099Y-89440165D01*
X102281889Y-89440165D01*
X102275514Y-89440051D01*
X102269329Y-89439750D01*
X102263331Y-89439231D01*
X102257548Y-89438505D01*
X102251931Y-89437578D01*
X102246546Y-89436432D01*
X102241351Y-89435089D01*
X102236355Y-89433516D01*
X102231558Y-89431772D01*
X102226940Y-89429800D01*
X102222540Y-89427619D01*
X102218334Y-89425244D01*
X102214319Y-89422635D01*
X102210498Y-89419843D01*
X102206892Y-89416840D01*
X102203485Y-89413633D01*
X102200212Y-89410176D01*
X102197170Y-89406507D01*
X102194321Y-89402667D01*
X102191678Y-89398629D01*
X102189256Y-89394417D01*
X102187063Y-89389974D01*
X102185077Y-89385361D01*
X102183288Y-89380555D01*
X102181694Y-89375567D01*
X102180327Y-89370365D01*
X102179175Y-89364999D01*
X102178236Y-89359426D01*
X102177501Y-89353639D01*
X102176957Y-89347699D01*
X102176654Y-89341545D01*
X102176537Y-89335204D01*
X102176654Y-89329014D01*
X102176957Y-89323005D01*
X102177501Y-89317183D01*
X102178236Y-89311534D01*
X102179175Y-89306076D01*
X102180327Y-89300829D01*
X102181694Y-89295741D01*
X102183288Y-89290842D01*
X102185077Y-89286139D01*
X102187063Y-89281614D01*
X102189256Y-89277284D01*
X102191678Y-89273129D01*
X102194321Y-89269165D01*
X102197170Y-89265376D01*
X102200212Y-89261788D01*
X102203485Y-89258370D01*
X102206892Y-89255116D01*
X102210498Y-89252059D01*
X102214319Y-89249215D01*
X102218334Y-89246586D01*
X102222540Y-89244167D01*
X102226940Y-89241963D01*
X102231558Y-89239968D01*
X102236355Y-89238186D01*
X102241351Y-89236588D01*
X102246546Y-89235236D01*
X102251931Y-89234072D01*
X102257548Y-89233117D01*
X102263331Y-89232377D01*
X102269329Y-89231864D01*
X102275514Y-89231546D01*
X102281889Y-89231438D01*
X102767856Y-89231438D01*
X102767856Y-88928059D01*
X102321520Y-88928059D01*
X102314928Y-88927956D01*
X102308561Y-88927636D01*
X102302400Y-88927128D01*
X102296456Y-88926405D01*
X102290734Y-88925457D01*
X102285191Y-88924329D01*
X102279867Y-88922967D01*
X102274765Y-88921419D01*
X102269873Y-88919657D01*
X102265197Y-88917690D01*
X102260695Y-88915512D01*
X102256459Y-88913135D01*
X102252389Y-88910529D01*
X102248553Y-88907720D01*
X102244906Y-88904733D01*
X102241491Y-88901513D01*
X102238234Y-88898102D01*
X102235184Y-88894495D01*
X102232344Y-88890669D01*
X102229716Y-88886681D01*
X102227282Y-88882455D01*
X102225091Y-88878064D01*
X102223077Y-88873442D01*
X102221310Y-88868643D01*
X102219725Y-88863648D01*
X102218365Y-88858444D01*
X102217189Y-88853044D01*
X102216241Y-88847472D01*
X102215507Y-88841673D01*
X102214961Y-88835659D01*
X102214654Y-88829489D01*
X102214556Y-88823104D01*
X102214654Y-88816709D01*
X102214961Y-88810519D01*
X102215507Y-88804534D01*
X102216241Y-88798742D01*
X102217189Y-88793154D01*
X102218365Y-88787759D01*
X102219725Y-88782553D01*
X102221310Y-88777557D01*
X102223077Y-88772755D01*
X102225091Y-88768148D01*
X102227282Y-88763729D01*
X102229716Y-88759531D01*
X102232344Y-88755534D01*
X102235184Y-88751690D01*
X102238234Y-88748089D01*
X102241491Y-88744678D01*
X102244906Y-88741471D01*
X102248553Y-88738451D01*
X102252389Y-88735654D01*
X102256459Y-88733073D01*
X102260695Y-88730676D01*
X102265197Y-88728518D01*
X102269873Y-88726549D01*
X102274765Y-88724768D01*
X102279867Y-88723230D01*
X102285191Y-88721887D01*
X102290734Y-88720733D01*
X102296456Y-88719815D01*
X102302400Y-88719081D01*
X102308561Y-88718557D01*
X102314928Y-88718250D01*
X102321520Y-88718141D01*
X102767856Y-88718141D01*
X102767856Y-88433364D01*
X102281889Y-88433364D01*
X102275514Y-88433273D01*
X102269329Y-88432968D01*
X102263331Y-88432423D01*
X102257548Y-88431693D01*
X102251931Y-88430777D01*
X102246546Y-88429657D01*
X102241351Y-88428311D01*
X102236355Y-88426751D01*
X102231558Y-88424970D01*
X102226940Y-88423008D01*
X102222540Y-88420831D01*
X102218334Y-88418459D01*
X102214319Y-88415864D01*
X102210498Y-88413060D01*
X102206892Y-88410064D01*
X102203485Y-88406826D01*
X102200212Y-88403422D01*
X102197170Y-88399808D01*
X102194321Y-88396004D01*
X102191678Y-88391976D01*
X102189256Y-88387759D01*
X102187063Y-88383365D01*
X102185077Y-88378758D01*
X102183288Y-88373954D01*
X102181694Y-88368973D01*
X102180327Y-88363763D01*
X102179175Y-88358370D01*
X102178236Y-88352775D01*
X102177501Y-88346972D01*
X102176957Y-88341002D01*
X102176654Y-88334806D01*
X102176537Y-88328422D01*
X102176654Y-88322266D01*
X102176957Y-88316301D01*
X102177501Y-88310515D01*
X102178236Y-88304931D01*
X102179175Y-88299514D01*
X102180327Y-88294261D01*
X102181694Y-88289216D01*
X102183288Y-88284361D01*
X102185077Y-88279660D01*
X102187063Y-88275164D01*
X102189256Y-88270843D01*
X102191678Y-88266703D01*
X102194321Y-88262754D01*
X102197170Y-88258964D01*
X102200212Y-88255380D01*
X102203485Y-88251970D01*
X102206892Y-88248708D01*
X102210498Y-88245663D01*
X102214319Y-88242815D01*
X102218334Y-88240202D01*
X102222540Y-88237776D01*
X102226940Y-88235568D01*
X102231558Y-88233551D01*
X102236355Y-88231781D01*
X102241351Y-88230216D01*
X102246546Y-88228836D01*
X102251931Y-88227672D01*
X102257548Y-88226709D01*
X102263331Y-88225981D01*
X102269329Y-88225471D01*
X102275514Y-88225152D01*
X102281889Y-88225057D01*
X102883099Y-88225057D01*
X102891420Y-88225190D01*
G37*
G36*
X106596589Y-88209715D02*
G01*
X106603633Y-88210115D01*
X106610459Y-88210758D01*
X106617113Y-88211646D01*
X106623566Y-88212806D01*
X106629818Y-88214213D01*
X106635873Y-88215898D01*
X106641743Y-88217814D01*
X106647409Y-88220000D01*
X106652896Y-88222437D01*
X106658174Y-88225136D01*
X106663240Y-88228093D01*
X106668152Y-88231310D01*
X106672834Y-88234756D01*
X106677342Y-88238479D01*
X106681644Y-88242485D01*
X106685678Y-88246623D01*
X106689433Y-88250994D01*
X106692962Y-88255567D01*
X106696203Y-88260330D01*
X106699183Y-88265310D01*
X106701916Y-88270497D01*
X106704392Y-88275894D01*
X106706610Y-88281478D01*
X106708565Y-88287279D01*
X106710253Y-88293287D01*
X106711665Y-88299489D01*
X106712838Y-88305882D01*
X106713743Y-88312510D01*
X106714405Y-88319311D01*
X106714792Y-88326348D01*
X106714912Y-88333567D01*
X106714912Y-89331650D01*
X106714803Y-89338873D01*
X106714429Y-89345894D01*
X106713830Y-89352720D01*
X106712984Y-89359357D01*
X106711904Y-89365758D01*
X106710565Y-89371969D01*
X106709008Y-89378000D01*
X106707190Y-89383835D01*
X106705143Y-89389442D01*
X106702850Y-89394867D01*
X106700315Y-89400075D01*
X106697559Y-89405095D01*
X106694511Y-89409904D01*
X106691256Y-89414517D01*
X106687768Y-89418927D01*
X106684032Y-89423144D01*
X106680053Y-89427062D01*
X106675868Y-89430758D01*
X106671471Y-89434181D01*
X106666857Y-89437350D01*
X106662026Y-89440253D01*
X106656958Y-89442946D01*
X106651677Y-89445332D01*
X106646203Y-89447487D01*
X106640490Y-89449399D01*
X106634563Y-89451033D01*
X106628437Y-89452456D01*
X106622090Y-89453573D01*
X106615520Y-89454483D01*
X106608736Y-89455117D01*
X106601741Y-89455488D01*
X106594501Y-89455603D01*
X106587047Y-89455488D01*
X106579825Y-89455117D01*
X106572863Y-89454483D01*
X106566126Y-89453573D01*
X106559601Y-89452456D01*
X106553354Y-89451033D01*
X106547327Y-89449399D01*
X106541548Y-89447487D01*
X106535997Y-89445332D01*
X106530670Y-89442946D01*
X106525614Y-89440253D01*
X106520775Y-89437350D01*
X106516180Y-89434181D01*
X106511821Y-89430758D01*
X106507693Y-89427062D01*
X106503802Y-89423144D01*
X106500168Y-89418927D01*
X106496766Y-89414517D01*
X106493580Y-89409904D01*
X106490642Y-89405095D01*
X106487927Y-89400075D01*
X106485477Y-89394867D01*
X106483235Y-89389442D01*
X106481250Y-89383835D01*
X106479465Y-89378000D01*
X106477963Y-89371969D01*
X106476657Y-89365758D01*
X106475589Y-89359357D01*
X106474773Y-89352720D01*
X106474178Y-89345894D01*
X106473830Y-89338873D01*
X106473711Y-89331650D01*
X106473711Y-88704964D01*
X106190925Y-89207284D01*
X106188517Y-89211132D01*
X106186088Y-89214872D01*
X106183614Y-89218519D01*
X106181121Y-89222052D01*
X106178571Y-89225480D01*
X106175985Y-89228796D01*
X106173384Y-89232009D01*
X106170716Y-89235099D01*
X106168033Y-89238080D01*
X106165309Y-89240975D01*
X106162529Y-89243757D01*
X106159736Y-89246417D01*
X106156882Y-89248982D01*
X106154014Y-89251435D01*
X106151099Y-89253768D01*
X106148149Y-89255981D01*
X106145063Y-89258057D01*
X106141888Y-89259992D01*
X106138603Y-89261788D01*
X106135203Y-89263444D01*
X106131692Y-89264973D01*
X106128082Y-89266375D01*
X106124346Y-89267637D01*
X106120529Y-89268767D01*
X106116578Y-89269760D01*
X106112530Y-89270638D01*
X106108363Y-89271368D01*
X106104119Y-89271976D01*
X106099739Y-89272428D01*
X106095249Y-89272766D01*
X106090665Y-89272958D01*
X106085959Y-89273027D01*
X106081282Y-89272968D01*
X106076701Y-89272776D01*
X106072232Y-89272457D01*
X106067905Y-89272012D01*
X106063667Y-89271432D01*
X106059581Y-89270752D01*
X106055585Y-89269924D01*
X106051715Y-89268974D01*
X106047946Y-89267893D01*
X106044327Y-89266679D01*
X106040810Y-89265364D01*
X106037403Y-89263897D01*
X106034111Y-89262289D01*
X106030947Y-89260591D01*
X106027904Y-89258762D01*
X106024975Y-89256773D01*
X106022059Y-89254644D01*
X106019164Y-89252391D01*
X106016308Y-89249983D01*
X106013420Y-89247451D01*
X106010616Y-89244801D01*
X106007775Y-89242048D01*
X106004994Y-89239111D01*
X106002210Y-89236108D01*
X105999435Y-89232946D01*
X105996709Y-89229648D01*
X105993970Y-89226228D01*
X105991268Y-89222688D01*
X105988571Y-89219044D01*
X105985893Y-89215241D01*
X105983237Y-89211331D01*
X105980601Y-89207284D01*
X105698234Y-88701474D01*
X105698234Y-89331650D01*
X105698108Y-89338873D01*
X105697733Y-89345894D01*
X105697104Y-89352720D01*
X105696236Y-89359357D01*
X105695128Y-89365758D01*
X105693760Y-89371969D01*
X105692161Y-89378000D01*
X105690305Y-89383835D01*
X105688186Y-89389442D01*
X105685842Y-89394867D01*
X105683251Y-89400075D01*
X105680403Y-89405095D01*
X105677310Y-89409904D01*
X105673963Y-89414517D01*
X105670366Y-89418927D01*
X105666540Y-89423144D01*
X105662425Y-89427062D01*
X105658110Y-89430758D01*
X105653579Y-89434181D01*
X105648831Y-89437350D01*
X105643889Y-89440253D01*
X105638746Y-89442946D01*
X105633357Y-89445332D01*
X105627819Y-89447487D01*
X105622063Y-89449399D01*
X105616076Y-89451033D01*
X105609875Y-89452456D01*
X105603474Y-89453573D01*
X105596888Y-89454483D01*
X105590080Y-89455117D01*
X105583057Y-89455488D01*
X105575840Y-89455603D01*
X105568624Y-89455488D01*
X105561602Y-89455117D01*
X105554829Y-89454483D01*
X105548277Y-89453573D01*
X105541911Y-89452456D01*
X105535786Y-89451033D01*
X105529861Y-89449399D01*
X105524164Y-89447487D01*
X105518660Y-89445332D01*
X105513401Y-89442946D01*
X105508344Y-89440253D01*
X105503506Y-89437350D01*
X105498890Y-89434181D01*
X105494487Y-89430758D01*
X105490300Y-89427062D01*
X105486327Y-89423144D01*
X105482534Y-89418927D01*
X105479016Y-89414517D01*
X105475692Y-89409904D01*
X105472623Y-89405095D01*
X105469834Y-89400075D01*
X105467262Y-89394867D01*
X105464913Y-89389442D01*
X105462863Y-89383835D01*
X105461033Y-89378000D01*
X105459445Y-89371969D01*
X105458100Y-89365758D01*
X105457001Y-89359357D01*
X105456148Y-89352720D01*
X105455526Y-89345894D01*
X105455167Y-89338873D01*
X105455037Y-89331650D01*
X105455037Y-88333567D01*
X105455167Y-88326348D01*
X105455534Y-88319311D01*
X105456168Y-88312510D01*
X105457049Y-88305882D01*
X105458175Y-88299489D01*
X105459544Y-88293287D01*
X105461193Y-88287279D01*
X105463071Y-88281478D01*
X105465198Y-88275894D01*
X105467564Y-88270497D01*
X105470206Y-88265310D01*
X105473095Y-88260330D01*
X105476218Y-88255567D01*
X105479611Y-88250994D01*
X105483224Y-88246623D01*
X105487112Y-88242485D01*
X105491180Y-88238479D01*
X105495450Y-88234756D01*
X105499943Y-88231310D01*
X105504644Y-88228093D01*
X105509542Y-88225136D01*
X105514677Y-88222437D01*
X105520000Y-88220000D01*
X105525559Y-88217814D01*
X105531291Y-88215898D01*
X105537250Y-88214213D01*
X105543422Y-88212806D01*
X105549789Y-88211646D01*
X105556375Y-88210758D01*
X105563190Y-88210115D01*
X105570225Y-88209715D01*
X105577417Y-88209592D01*
X105583583Y-88209669D01*
X105589583Y-88209906D01*
X105595458Y-88210282D01*
X105601148Y-88210842D01*
X105606715Y-88211537D01*
X105612123Y-88212376D01*
X105617385Y-88213382D01*
X105622472Y-88214540D01*
X105627416Y-88215872D01*
X105632229Y-88217329D01*
X105636869Y-88218956D01*
X105641359Y-88220744D01*
X105645700Y-88222673D01*
X105649903Y-88224752D01*
X105653930Y-88227003D01*
X105657829Y-88229410D01*
X105661557Y-88231985D01*
X105665287Y-88234788D01*
X105668949Y-88237835D01*
X105672600Y-88241078D01*
X105676201Y-88244574D01*
X105679784Y-88248263D01*
X105683316Y-88252174D01*
X105686838Y-88256317D01*
X105690311Y-88260694D01*
X105693736Y-88265288D01*
X105697141Y-88270106D01*
X105700525Y-88275139D01*
X105703860Y-88280403D01*
X105707165Y-88285878D01*
X105710429Y-88291608D01*
X105713658Y-88297503D01*
X106082392Y-88971167D01*
X106451135Y-88297503D01*
X106454420Y-88291608D01*
X106457739Y-88285878D01*
X106461094Y-88280403D01*
X106464447Y-88275139D01*
X106467863Y-88270106D01*
X106471305Y-88265288D01*
X106474771Y-88260694D01*
X106478268Y-88256317D01*
X106481803Y-88252174D01*
X106485365Y-88248263D01*
X106488963Y-88244574D01*
X106492565Y-88241078D01*
X106496233Y-88237835D01*
X106499925Y-88234788D01*
X106503637Y-88231985D01*
X106507380Y-88229410D01*
X106511226Y-88227003D01*
X106515238Y-88224752D01*
X106519432Y-88222673D01*
X106523781Y-88220744D01*
X106528331Y-88218956D01*
X106533007Y-88217329D01*
X106537893Y-88215872D01*
X106542918Y-88214540D01*
X106548136Y-88213382D01*
X106553514Y-88212376D01*
X106559060Y-88211537D01*
X106564787Y-88210842D01*
X106570688Y-88210282D01*
X106576731Y-88209906D01*
X106582960Y-88209669D01*
X106589371Y-88209592D01*
X106596589Y-88209715D01*
G37*
G36*
X105208551Y-89242133D02*
G01*
X105208551Y-89300351D01*
X105208397Y-89308656D01*
X105207973Y-89316699D01*
X105207275Y-89324525D01*
X105206290Y-89332085D01*
X105205016Y-89339413D01*
X105203480Y-89346526D01*
X105201645Y-89353353D01*
X105199526Y-89359967D01*
X105197146Y-89366321D01*
X105194470Y-89372456D01*
X105191513Y-89378347D01*
X105188266Y-89383975D01*
X105184753Y-89389365D01*
X105180962Y-89394537D01*
X105176872Y-89399460D01*
X105172503Y-89404128D01*
X105167831Y-89408488D01*
X105162914Y-89412569D01*
X105157754Y-89416365D01*
X105152339Y-89419894D01*
X105146715Y-89423142D01*
X105140830Y-89426078D01*
X105134717Y-89428765D01*
X105128354Y-89431160D01*
X105121737Y-89433280D01*
X105114884Y-89435110D01*
X105107795Y-89436646D01*
X105100460Y-89437901D01*
X105092899Y-89438908D01*
X105085082Y-89439607D01*
X105077013Y-89440026D01*
X105068742Y-89440165D01*
X104632660Y-89440165D01*
X104608439Y-89439820D01*
X104584887Y-89438761D01*
X104561967Y-89436998D01*
X104539739Y-89434524D01*
X104518168Y-89431360D01*
X104497257Y-89427476D01*
X104476986Y-89422876D01*
X104457413Y-89417588D01*
X104438495Y-89411595D01*
X104420219Y-89404887D01*
X104402609Y-89397473D01*
X104385671Y-89389365D01*
X104369399Y-89380554D01*
X104353776Y-89371026D01*
X104338813Y-89360808D01*
X104324536Y-89349871D01*
X104310978Y-89338250D01*
X104298267Y-89326071D01*
X104286447Y-89313350D01*
X104275483Y-89300069D01*
X104265411Y-89286210D01*
X104256222Y-89271810D01*
X104247898Y-89256855D01*
X104240471Y-89241340D01*
X104233894Y-89225281D01*
X104228205Y-89208656D01*
X104223399Y-89191463D01*
X104219446Y-89173724D01*
X104216378Y-89155419D01*
X104214189Y-89136569D01*
X104212883Y-89117137D01*
X104212446Y-89097185D01*
X104212719Y-89082069D01*
X104212738Y-89081727D01*
X104469080Y-89081727D01*
X104469273Y-89091483D01*
X104469847Y-89100938D01*
X104470794Y-89110078D01*
X104472117Y-89118936D01*
X104473814Y-89127477D01*
X104475880Y-89135730D01*
X104478334Y-89143697D01*
X104481186Y-89151325D01*
X104484396Y-89158697D01*
X104487968Y-89165727D01*
X104491929Y-89172496D01*
X104496266Y-89178935D01*
X104501001Y-89185105D01*
X104506083Y-89190930D01*
X104511568Y-89196484D01*
X104517408Y-89201744D01*
X104523658Y-89206633D01*
X104530348Y-89211213D01*
X104537478Y-89215472D01*
X104545002Y-89219409D01*
X104552979Y-89223049D01*
X104561380Y-89226354D01*
X104570225Y-89229353D01*
X104579493Y-89232040D01*
X104589211Y-89234393D01*
X104599314Y-89236460D01*
X104609883Y-89238197D01*
X104620873Y-89239622D01*
X104632266Y-89240717D01*
X104644120Y-89241511D01*
X104656407Y-89241973D01*
X104669102Y-89242133D01*
X104953475Y-89242133D01*
X104953475Y-88922899D01*
X104669102Y-88922899D01*
X104656407Y-88923069D01*
X104644120Y-88923524D01*
X104632266Y-88924325D01*
X104620873Y-88925402D01*
X104609883Y-88926817D01*
X104599314Y-88928540D01*
X104589211Y-88930556D01*
X104579493Y-88932913D01*
X104570225Y-88935564D01*
X104561380Y-88938535D01*
X104552979Y-88941810D01*
X104545002Y-88945413D01*
X104537478Y-88949311D01*
X104530348Y-88953528D01*
X104523658Y-88958059D01*
X104517408Y-88962907D01*
X104511568Y-88968011D01*
X104506083Y-88973432D01*
X104501001Y-88979166D01*
X104496266Y-88985176D01*
X104491929Y-88991513D01*
X104487968Y-88998169D01*
X104484396Y-89005163D01*
X104481186Y-89012412D01*
X104478334Y-89020000D01*
X104475880Y-89027894D01*
X104473814Y-89036093D01*
X104472117Y-89044591D01*
X104470794Y-89053428D01*
X104469847Y-89062547D01*
X104469273Y-89071995D01*
X104469080Y-89081727D01*
X104212738Y-89081727D01*
X104213529Y-89067290D01*
X104214916Y-89052893D01*
X104216808Y-89038859D01*
X104219260Y-89025168D01*
X104222247Y-89011844D01*
X104225771Y-88998884D01*
X104229877Y-88986274D01*
X104234501Y-88974015D01*
X104239683Y-88962139D01*
X104245397Y-88950612D01*
X104251649Y-88939432D01*
X104258458Y-88928623D01*
X104265821Y-88918174D01*
X104273705Y-88908086D01*
X104282173Y-88898344D01*
X104291087Y-88888954D01*
X104300451Y-88879981D01*
X104310267Y-88871437D01*
X104320526Y-88863320D01*
X104331209Y-88855628D01*
X104342345Y-88848349D01*
X104353918Y-88841493D01*
X104365920Y-88835071D01*
X104378371Y-88829079D01*
X104391263Y-88823484D01*
X104404590Y-88818355D01*
X104418358Y-88813614D01*
X104427405Y-88810871D01*
X104426435Y-88810498D01*
X104414498Y-88805491D01*
X104402932Y-88800089D01*
X104391734Y-88794315D01*
X104380875Y-88788143D01*
X104370379Y-88781592D01*
X104360259Y-88774638D01*
X104350487Y-88767323D01*
X104341086Y-88759625D01*
X104332054Y-88751497D01*
X104323381Y-88743004D01*
X104315055Y-88734139D01*
X104307108Y-88724875D01*
X104299577Y-88715228D01*
X104292525Y-88705356D01*
X104285981Y-88695225D01*
X104279894Y-88684821D01*
X104274308Y-88674164D01*
X104269202Y-88663266D01*
X104264601Y-88652125D01*
X104260469Y-88640708D01*
X104256833Y-88629060D01*
X104253667Y-88617125D01*
X104250992Y-88604962D01*
X104248818Y-88592550D01*
X104247103Y-88579874D01*
X104246478Y-88573170D01*
X104501957Y-88573170D01*
X104502150Y-88582504D01*
X104502708Y-88591507D01*
X104503665Y-88600219D01*
X104504996Y-88608659D01*
X104506681Y-88616781D01*
X104508758Y-88624640D01*
X104511200Y-88632175D01*
X104514050Y-88639426D01*
X104517258Y-88646380D01*
X104520845Y-88653044D01*
X104524808Y-88659408D01*
X104529138Y-88665488D01*
X104533871Y-88671268D01*
X104538972Y-88676750D01*
X104544444Y-88681951D01*
X104550271Y-88686864D01*
X104556481Y-88691459D01*
X104563091Y-88695772D01*
X104570086Y-88699769D01*
X104577525Y-88703483D01*
X104585348Y-88706896D01*
X104593582Y-88710022D01*
X104602229Y-88712844D01*
X104611279Y-88715372D01*
X104620741Y-88717607D01*
X104630605Y-88719527D01*
X104640895Y-88721162D01*
X104651572Y-88722500D01*
X104662681Y-88723532D01*
X104674177Y-88724275D01*
X104686085Y-88724727D01*
X104698420Y-88724875D01*
X104953475Y-88724875D01*
X104953475Y-88423075D01*
X104698420Y-88423075D01*
X104686085Y-88423228D01*
X104674177Y-88423662D01*
X104662681Y-88424417D01*
X104651572Y-88425454D01*
X104640895Y-88426789D01*
X104630605Y-88428417D01*
X104620741Y-88430350D01*
X104611279Y-88432586D01*
X104602229Y-88435099D01*
X104593582Y-88437921D01*
X104585348Y-88441032D01*
X104577525Y-88444475D01*
X104570086Y-88448169D01*
X104563091Y-88452187D01*
X104556481Y-88456490D01*
X104550271Y-88461095D01*
X104544444Y-88465986D01*
X104538972Y-88471157D01*
X104533871Y-88476628D01*
X104529138Y-88482361D01*
X104524808Y-88488391D01*
X104520845Y-88494684D01*
X104517258Y-88501257D01*
X104514050Y-88508135D01*
X104511200Y-88515292D01*
X104508758Y-88522692D01*
X104506681Y-88530402D01*
X104504996Y-88538403D01*
X104503665Y-88546676D01*
X104502708Y-88555248D01*
X104502150Y-88564067D01*
X104501957Y-88573170D01*
X104246478Y-88573170D01*
X104245897Y-88566943D01*
X104245158Y-88553742D01*
X104244923Y-88540303D01*
X104245093Y-88528138D01*
X104245667Y-88516190D01*
X104246590Y-88504455D01*
X104247886Y-88492923D01*
X104249557Y-88481640D01*
X104251603Y-88470532D01*
X104254010Y-88459664D01*
X104256803Y-88449023D01*
X104259966Y-88438584D01*
X104263481Y-88428367D01*
X104267389Y-88418354D01*
X104271657Y-88408564D01*
X104276293Y-88398999D01*
X104281309Y-88389650D01*
X104286686Y-88380512D01*
X104292450Y-88371589D01*
X104298555Y-88362849D01*
X104305020Y-88354379D01*
X104311826Y-88346180D01*
X104318963Y-88338228D01*
X104326453Y-88330529D01*
X104334274Y-88323101D01*
X104342461Y-88315920D01*
X104350975Y-88309018D01*
X104359811Y-88302374D01*
X104369028Y-88295960D01*
X104378585Y-88289837D01*
X104388473Y-88283964D01*
X104398712Y-88278339D01*
X104409286Y-88272987D01*
X104420201Y-88267885D01*
X104431474Y-88263061D01*
X104443010Y-88258439D01*
X104454834Y-88254148D01*
X104466974Y-88250137D01*
X104479386Y-88246427D01*
X104492105Y-88243003D01*
X104505121Y-88239903D01*
X104518451Y-88237059D01*
X104532076Y-88234551D01*
X104545970Y-88232316D01*
X104560180Y-88230382D01*
X104574687Y-88228753D01*
X104589498Y-88227411D01*
X104619995Y-88225623D01*
X104651690Y-88225057D01*
X105068742Y-88225057D01*
X105077013Y-88225190D01*
X105085082Y-88225608D01*
X105092899Y-88226312D01*
X105100460Y-88227315D01*
X105107795Y-88228615D01*
X105114884Y-88230189D01*
X105121737Y-88232008D01*
X105128354Y-88234146D01*
X105134717Y-88236562D01*
X105140830Y-88239275D01*
X105146715Y-88242262D01*
X105152339Y-88245536D01*
X105157754Y-88249102D01*
X105162914Y-88252940D01*
X105167831Y-88257065D01*
X105172503Y-88261480D01*
X105176872Y-88266117D01*
X105180962Y-88270964D01*
X105184753Y-88276079D01*
X105188266Y-88281429D01*
X105191513Y-88287027D01*
X105194470Y-88292862D01*
X105197146Y-88298928D01*
X105199526Y-88305244D01*
X105201645Y-88311802D01*
X105203480Y-88318608D01*
X105205016Y-88325634D01*
X105206290Y-88332922D01*
X105207275Y-88340443D01*
X105207973Y-88348213D01*
X105208397Y-88356209D01*
X105208551Y-88364457D01*
X105208551Y-88724875D01*
X105208551Y-89242133D01*
G37*
G36*
X109191943Y-89317772D02*
G01*
X109191806Y-89325846D01*
X109191413Y-89333659D01*
X109190753Y-89341281D01*
X109189795Y-89348652D01*
X109188584Y-89355809D01*
X109187104Y-89362717D01*
X109185362Y-89369422D01*
X109183331Y-89375920D01*
X109181056Y-89382155D01*
X109178482Y-89388169D01*
X109175648Y-89393974D01*
X109172558Y-89399542D01*
X109169199Y-89404887D01*
X109165565Y-89410011D01*
X109161674Y-89414902D01*
X109157490Y-89419569D01*
X109153057Y-89423937D01*
X109148402Y-89428025D01*
X109143484Y-89431823D01*
X109138318Y-89435325D01*
X109132930Y-89438568D01*
X109127314Y-89441541D01*
X109121433Y-89444210D01*
X109115300Y-89446607D01*
X109108949Y-89448700D01*
X109102332Y-89450538D01*
X109095505Y-89452091D01*
X109088429Y-89453355D01*
X109081105Y-89454325D01*
X109073540Y-89455041D01*
X109065738Y-89455474D01*
X109057693Y-89455603D01*
X109049599Y-89455474D01*
X109041747Y-89455041D01*
X109034157Y-89454325D01*
X109026808Y-89453355D01*
X109019729Y-89452091D01*
X109012886Y-89450538D01*
X109006277Y-89448700D01*
X108999966Y-89446607D01*
X108993877Y-89444210D01*
X108988030Y-89441541D01*
X108982465Y-89438568D01*
X108977099Y-89435325D01*
X108972015Y-89431823D01*
X108967182Y-89428025D01*
X108962613Y-89423937D01*
X108958265Y-89419569D01*
X108954194Y-89414902D01*
X108950389Y-89410011D01*
X108946836Y-89404887D01*
X108943541Y-89399542D01*
X108940498Y-89393974D01*
X108937748Y-89388169D01*
X108935276Y-89382155D01*
X108933015Y-89375920D01*
X108931041Y-89369422D01*
X108929338Y-89362717D01*
X108927886Y-89355809D01*
X108926711Y-89348652D01*
X108925781Y-89341281D01*
X108925135Y-89333659D01*
X108924727Y-89325846D01*
X108924633Y-89317772D01*
X108924633Y-88969642D01*
X108793923Y-88969642D01*
X108787289Y-88969720D01*
X108780787Y-88969899D01*
X108774445Y-88970253D01*
X108768217Y-88970739D01*
X108762116Y-88971340D01*
X108756157Y-88972093D01*
X108750305Y-88972970D01*
X108744605Y-88973983D01*
X108739012Y-88975170D01*
X108733567Y-88976433D01*
X108728237Y-88977884D01*
X108723059Y-88979441D01*
X108717983Y-88981129D01*
X108713065Y-88982976D01*
X108708265Y-88984959D01*
X108703612Y-88987071D01*
X108698981Y-88989317D01*
X108694460Y-88991826D01*
X108690017Y-88994548D01*
X108685700Y-88997533D01*
X108681416Y-89000760D01*
X108677238Y-89004236D01*
X108673142Y-89007964D01*
X108669147Y-89011912D01*
X108665232Y-89016127D01*
X108661395Y-89020606D01*
X108657656Y-89025278D01*
X108654005Y-89030216D01*
X108650439Y-89035400D01*
X108646945Y-89040833D01*
X108643530Y-89046504D01*
X108640234Y-89052414D01*
X108475078Y-89357391D01*
X108471580Y-89363536D01*
X108468021Y-89369455D01*
X108464406Y-89375201D01*
X108460736Y-89380731D01*
X108457016Y-89386079D01*
X108453215Y-89391196D01*
X108449384Y-89396127D01*
X108445469Y-89400857D01*
X108441489Y-89405378D01*
X108437476Y-89409706D01*
X108433381Y-89413833D01*
X108429229Y-89417773D01*
X108425049Y-89421495D01*
X108420794Y-89425011D01*
X108416478Y-89428326D01*
X108412089Y-89431458D01*
X108407604Y-89434393D01*
X108402947Y-89437115D01*
X108398117Y-89439665D01*
X108393113Y-89442028D01*
X108387939Y-89444185D01*
X108382596Y-89446178D01*
X108377094Y-89447960D01*
X108371409Y-89449581D01*
X108365540Y-89450988D01*
X108359527Y-89452220D01*
X108353333Y-89453250D01*
X108346969Y-89454110D01*
X108340419Y-89454762D01*
X108333721Y-89455227D01*
X108326864Y-89455503D01*
X108319816Y-89455603D01*
X108312795Y-89455503D01*
X108305999Y-89455203D01*
X108299414Y-89454711D01*
X108293037Y-89454006D01*
X108286875Y-89453101D01*
X108280944Y-89451986D01*
X108275223Y-89450693D01*
X108269717Y-89449164D01*
X108264424Y-89447470D01*
X108259343Y-89445549D01*
X108254499Y-89443451D01*
X108249866Y-89441139D01*
X108245439Y-89438621D01*
X108241234Y-89435895D01*
X108237244Y-89432989D01*
X108233488Y-89429858D01*
X108229905Y-89426590D01*
X108226583Y-89423192D01*
X108223445Y-89419672D01*
X108220545Y-89416040D01*
X108217866Y-89412271D01*
X108215385Y-89408390D01*
X108213151Y-89404378D01*
X108211089Y-89400260D01*
X108209275Y-89396021D01*
X108207665Y-89391648D01*
X108206280Y-89387172D01*
X108205093Y-89382567D01*
X108204150Y-89377843D01*
X108203420Y-89372986D01*
X108202878Y-89368021D01*
X108202576Y-89362935D01*
X108202492Y-89357730D01*
X108202586Y-89352520D01*
X108202884Y-89347280D01*
X108203413Y-89342054D01*
X108204101Y-89336779D01*
X108205014Y-89331516D01*
X108206125Y-89326241D01*
X108207439Y-89320945D01*
X108208947Y-89315647D01*
X108210659Y-89310334D01*
X108212564Y-89304997D01*
X108214692Y-89299662D01*
X108216990Y-89294314D01*
X108219511Y-89288933D01*
X108222234Y-89283569D01*
X108225150Y-89278172D01*
X108331686Y-89079735D01*
X108336705Y-89070886D01*
X108341836Y-89062292D01*
X108347090Y-89054010D01*
X108352436Y-89046004D01*
X108357927Y-89038292D01*
X108363531Y-89030867D01*
X108369248Y-89023723D01*
X108375070Y-89016856D01*
X108381011Y-89010316D01*
X108387079Y-89004027D01*
X108393284Y-88998045D01*
X108399561Y-88992335D01*
X108405994Y-88986934D01*
X108412528Y-88981793D01*
X108419175Y-88976957D01*
X108425967Y-88972407D01*
X108432824Y-88968093D01*
X108439818Y-88964062D01*
X108446926Y-88960293D01*
X108454199Y-88956821D01*
X108461614Y-88953621D01*
X108469166Y-88950696D01*
X108476858Y-88948039D01*
X108478951Y-88947414D01*
X108469756Y-88944928D01*
X108456530Y-88940911D01*
X108443640Y-88936534D01*
X108431089Y-88931805D01*
X108418851Y-88926747D01*
X108406952Y-88921329D01*
X108395334Y-88915587D01*
X108384070Y-88909541D01*
X108373151Y-88903200D01*
X108362588Y-88896563D01*
X108352358Y-88889657D01*
X108342503Y-88882416D01*
X108332967Y-88874888D01*
X108323774Y-88867082D01*
X108314942Y-88858932D01*
X108306444Y-88850523D01*
X108298292Y-88841794D01*
X108290496Y-88832798D01*
X108283053Y-88823480D01*
X108275957Y-88813898D01*
X108269193Y-88803999D01*
X108262787Y-88793784D01*
X108256732Y-88783324D01*
X108251081Y-88772600D01*
X108245810Y-88761653D01*
X108240937Y-88750469D01*
X108236461Y-88739017D01*
X108232368Y-88727360D01*
X108228677Y-88715456D01*
X108225360Y-88703287D01*
X108222418Y-88690887D01*
X108219887Y-88678240D01*
X108217751Y-88665380D01*
X108215986Y-88652243D01*
X108214630Y-88638881D01*
X108213651Y-88625282D01*
X108213067Y-88611447D01*
X108212962Y-88604074D01*
X108469916Y-88604074D01*
X108470127Y-88614698D01*
X108470768Y-88624994D01*
X108471831Y-88634932D01*
X108473316Y-88644549D01*
X108475222Y-88653831D01*
X108477554Y-88662765D01*
X108480323Y-88671363D01*
X108483506Y-88679619D01*
X108487084Y-88687556D01*
X108491116Y-88695132D01*
X108495587Y-88702391D01*
X108500448Y-88709326D01*
X108505759Y-88715877D01*
X108511458Y-88722118D01*
X108517614Y-88728025D01*
X108524185Y-88733585D01*
X108531171Y-88738769D01*
X108538579Y-88743618D01*
X108546385Y-88748127D01*
X108554603Y-88752305D01*
X108563232Y-88756149D01*
X108572306Y-88759657D01*
X108581757Y-88762838D01*
X108591596Y-88765672D01*
X108601901Y-88768171D01*
X108612583Y-88770352D01*
X108623697Y-88772179D01*
X108635200Y-88773684D01*
X108647125Y-88774867D01*
X108659459Y-88775693D01*
X108672227Y-88776200D01*
X108685381Y-88776371D01*
X108924633Y-88776371D01*
X108924633Y-88433364D01*
X108685381Y-88433364D01*
X108672227Y-88433539D01*
X108659459Y-88434036D01*
X108647125Y-88434884D01*
X108635200Y-88436069D01*
X108623697Y-88437586D01*
X108612583Y-88439446D01*
X108601901Y-88441630D01*
X108591596Y-88444148D01*
X108581757Y-88447035D01*
X108572306Y-88450238D01*
X108563232Y-88453778D01*
X108554603Y-88457656D01*
X108546385Y-88461867D01*
X108538579Y-88466413D01*
X108531171Y-88471327D01*
X108524185Y-88476542D01*
X108517614Y-88482098D01*
X108511458Y-88487980D01*
X108505759Y-88494191D01*
X108500448Y-88500709D01*
X108495587Y-88507561D01*
X108491116Y-88514703D01*
X108487084Y-88522195D01*
X108483506Y-88530025D01*
X108480323Y-88538152D01*
X108477554Y-88546598D01*
X108475222Y-88555375D01*
X108473316Y-88564463D01*
X108471831Y-88573896D01*
X108470768Y-88583612D01*
X108470127Y-88593701D01*
X108469916Y-88604074D01*
X108212962Y-88604074D01*
X108212867Y-88597346D01*
X108213310Y-88575661D01*
X108214604Y-88554584D01*
X108216774Y-88534128D01*
X108219787Y-88514269D01*
X108223677Y-88495008D01*
X108228410Y-88476377D01*
X108234033Y-88458324D01*
X108240511Y-88440899D01*
X108247843Y-88424061D01*
X108256049Y-88407853D01*
X108265110Y-88392236D01*
X108275040Y-88377247D01*
X108285822Y-88362822D01*
X108297481Y-88349038D01*
X108310010Y-88335853D01*
X108323388Y-88323264D01*
X108337499Y-88311378D01*
X108352355Y-88300258D01*
X108367962Y-88289898D01*
X108384272Y-88280285D01*
X108401333Y-88271463D01*
X108419097Y-88263420D01*
X108437618Y-88256116D01*
X108456856Y-88249597D01*
X108476830Y-88243839D01*
X108497541Y-88238848D01*
X108518947Y-88234641D01*
X108541111Y-88231183D01*
X108564020Y-88228491D01*
X108587627Y-88226573D01*
X108611983Y-88225431D01*
X108637066Y-88225057D01*
X109055689Y-88225057D01*
X109063805Y-88225181D01*
X109071664Y-88225571D01*
X109079283Y-88226257D01*
X109086671Y-88227201D01*
X109093812Y-88228421D01*
X109100727Y-88229883D01*
X109107381Y-88231619D01*
X109113823Y-88233664D01*
X109120015Y-88235941D01*
X109125962Y-88238501D01*
X109131688Y-88241320D01*
X109137184Y-88244429D01*
X109142402Y-88247782D01*
X109147404Y-88251421D01*
X109152170Y-88255345D01*
X109156688Y-88259503D01*
X109160970Y-88263942D01*
X109164957Y-88268643D01*
X109168683Y-88273575D01*
X109172128Y-88278789D01*
X109175290Y-88284246D01*
X109178175Y-88289973D01*
X109180793Y-88295943D01*
X109183132Y-88302176D01*
X109185199Y-88308677D01*
X109186975Y-88315423D01*
X109188511Y-88322422D01*
X109189745Y-88329678D01*
X109190682Y-88337201D01*
X109191397Y-88344961D01*
X109191806Y-88353004D01*
X109191943Y-88361290D01*
X109191943Y-88776371D01*
X109191943Y-89317772D01*
G37*
G36*
X109799787Y-88206203D02*
G01*
X109817780Y-88206731D01*
X109835478Y-88207621D01*
X109852974Y-88208831D01*
X109870247Y-88210403D01*
X109887273Y-88212320D01*
X109904061Y-88214595D01*
X109920632Y-88217209D01*
X109936938Y-88220201D01*
X109953022Y-88223513D01*
X109968869Y-88227183D01*
X109984486Y-88231211D01*
X109999862Y-88235582D01*
X110014998Y-88240306D01*
X110029919Y-88245359D01*
X110044566Y-88250784D01*
X110058951Y-88256520D01*
X110073043Y-88262550D01*
X110086865Y-88268875D01*
X110100430Y-88275496D01*
X110113718Y-88282386D01*
X110126708Y-88289584D01*
X110139451Y-88297075D01*
X110151915Y-88304848D01*
X110164108Y-88312913D01*
X110176025Y-88321277D01*
X110187675Y-88329920D01*
X110199041Y-88338850D01*
X110210149Y-88348093D01*
X110220970Y-88357623D01*
X110231529Y-88367437D01*
X110241820Y-88377521D01*
X110251764Y-88387907D01*
X110261408Y-88398537D01*
X110270772Y-88409423D01*
X110279807Y-88420575D01*
X110288575Y-88431980D01*
X110297016Y-88443643D01*
X110305178Y-88455548D01*
X110313010Y-88467738D01*
X110320543Y-88480158D01*
X110327795Y-88492856D01*
X110334767Y-88505781D01*
X110341406Y-88518991D01*
X110347757Y-88532464D01*
X110353790Y-88546180D01*
X110359549Y-88560145D01*
X110365007Y-88574370D01*
X110370111Y-88588801D01*
X110374850Y-88603427D01*
X110379267Y-88618314D01*
X110383353Y-88633384D01*
X110387146Y-88648686D01*
X110390588Y-88664254D01*
X110393685Y-88679977D01*
X110396501Y-88695957D01*
X110401081Y-88728600D01*
X110404356Y-88762107D01*
X110406317Y-88796515D01*
X110406972Y-88831804D01*
X110406695Y-88855525D01*
X110405805Y-88878851D01*
X110404345Y-88901779D01*
X110402304Y-88924294D01*
X110399667Y-88946431D01*
X110396456Y-88968153D01*
X110392661Y-88989489D01*
X110388261Y-89010450D01*
X110383284Y-89030982D01*
X110377745Y-89051135D01*
X110371595Y-89070887D01*
X110364864Y-89090231D01*
X110357554Y-89109198D01*
X110349645Y-89127781D01*
X110341205Y-89145939D01*
X110332125Y-89163716D01*
X110322518Y-89181005D01*
X110312414Y-89197792D01*
X110301769Y-89214086D01*
X110290667Y-89229894D01*
X110279027Y-89245231D01*
X110266906Y-89260056D01*
X110254271Y-89274416D01*
X110241128Y-89288270D01*
X110227494Y-89301644D01*
X110213332Y-89314514D01*
X110198682Y-89326907D01*
X110183523Y-89338825D01*
X110167869Y-89350246D01*
X110151698Y-89361166D01*
X110135028Y-89371613D01*
X110117856Y-89381554D01*
X110100154Y-89390950D01*
X110082007Y-89399739D01*
X110063440Y-89407934D01*
X110044418Y-89415514D01*
X110024937Y-89422476D01*
X110005024Y-89428870D01*
X109984672Y-89434601D01*
X109963886Y-89439779D01*
X109942635Y-89444333D01*
X109920950Y-89448257D01*
X109898860Y-89451598D01*
X109876273Y-89454313D01*
X109853272Y-89456439D01*
X109829837Y-89457969D01*
X109805920Y-89458889D01*
X109781572Y-89459175D01*
X109758704Y-89458801D01*
X109735755Y-89457681D01*
X109712746Y-89455772D01*
X109689710Y-89453128D01*
X109666610Y-89449738D01*
X109643452Y-89445588D01*
X109620269Y-89440674D01*
X109597015Y-89435016D01*
X109585525Y-89431917D01*
X109574226Y-89428673D01*
X109563156Y-89425278D01*
X109552320Y-89421754D01*
X109541725Y-89418050D01*
X109531342Y-89414224D01*
X109521205Y-89410229D01*
X109511285Y-89406097D01*
X109501603Y-89401814D01*
X109492128Y-89397394D01*
X109482910Y-89392799D01*
X109473907Y-89388077D01*
X109465127Y-89383203D01*
X109456585Y-89378175D01*
X109448274Y-89372991D01*
X109440190Y-89367688D01*
X109435522Y-89364631D01*
X109431073Y-89361477D01*
X109426782Y-89358267D01*
X109422705Y-89354960D01*
X109418840Y-89351580D01*
X109415130Y-89348107D01*
X109411619Y-89344570D01*
X109408305Y-89340948D01*
X109405169Y-89337239D01*
X109402257Y-89333474D01*
X109399510Y-89329598D01*
X109396958Y-89325656D01*
X109394604Y-89321623D01*
X109392452Y-89317538D01*
X109390499Y-89313336D01*
X109388698Y-89309055D01*
X109387050Y-89304761D01*
X109385538Y-89300457D01*
X109384199Y-89296151D01*
X109382999Y-89291826D01*
X109381971Y-89287530D01*
X109381089Y-89283235D01*
X109380374Y-89278925D01*
X109379807Y-89274613D01*
X109379367Y-89270302D01*
X109379101Y-89265993D01*
X109378999Y-89261692D01*
X109379044Y-89257378D01*
X109379240Y-89253069D01*
X109379608Y-89248764D01*
X109380091Y-89244452D01*
X109380772Y-89240146D01*
X109381590Y-89235878D01*
X109382542Y-89231679D01*
X109383620Y-89227575D01*
X109384835Y-89223517D01*
X109386197Y-89219551D01*
X109387689Y-89215656D01*
X109389310Y-89211814D01*
X109391076Y-89208081D01*
X109392967Y-89204402D01*
X109395016Y-89200783D01*
X109397179Y-89197277D01*
X109399495Y-89193816D01*
X109401930Y-89190445D01*
X109404504Y-89187121D01*
X109407224Y-89183898D01*
X109410096Y-89180748D01*
X109413062Y-89177716D01*
X109416099Y-89174800D01*
X109419261Y-89172056D01*
X109422513Y-89169463D01*
X109425859Y-89167007D01*
X109429284Y-89164702D01*
X109432803Y-89162549D01*
X109436424Y-89160542D01*
X109440136Y-89158697D01*
X109443944Y-89156967D01*
X109447838Y-89155429D01*
X109451832Y-89154003D01*
X109455898Y-89152752D01*
X109460073Y-89151632D01*
X109464345Y-89150659D01*
X109468712Y-89149844D01*
X109473143Y-89149168D01*
X109477664Y-89148720D01*
X109482260Y-89148486D01*
X109486926Y-89148486D01*
X109491665Y-89148711D01*
X109496472Y-89149168D01*
X109501371Y-89149836D01*
X109506314Y-89150735D01*
X109511369Y-89151871D01*
X109516487Y-89153226D01*
X109521671Y-89154812D01*
X109526934Y-89156606D01*
X109532268Y-89158657D01*
X109537669Y-89160896D01*
X109543129Y-89163381D01*
X109548703Y-89166093D01*
X109562136Y-89173167D01*
X109575707Y-89179774D01*
X109589412Y-89185894D01*
X109603284Y-89191546D01*
X109617253Y-89196698D01*
X109631373Y-89201359D01*
X109645598Y-89205552D01*
X109660006Y-89209258D01*
X109674425Y-89212511D01*
X109688756Y-89215324D01*
X109702978Y-89217725D01*
X109717140Y-89219659D01*
X109731211Y-89221171D01*
X109745182Y-89222255D01*
X109759082Y-89222907D01*
X109772875Y-89223118D01*
X109787146Y-89222941D01*
X109801119Y-89222421D01*
X109814813Y-89221527D01*
X109828207Y-89220273D01*
X109841316Y-89218668D01*
X109854162Y-89216714D01*
X109866704Y-89214403D01*
X109878940Y-89211741D01*
X109890893Y-89208704D01*
X109902568Y-89205337D01*
X109913950Y-89201597D01*
X109925044Y-89197517D01*
X109935860Y-89193077D01*
X109946384Y-89188247D01*
X109956606Y-89183090D01*
X109966557Y-89177570D01*
X109976229Y-89171674D01*
X109985564Y-89165440D01*
X109994618Y-89158887D01*
X110003366Y-89151976D01*
X110011831Y-89144756D01*
X110019968Y-89137222D01*
X110027828Y-89129330D01*
X110035375Y-89121145D01*
X110042643Y-89112610D01*
X110049579Y-89103745D01*
X110056220Y-89094559D01*
X110062578Y-89085048D01*
X110068629Y-89075194D01*
X110074369Y-89065034D01*
X110079823Y-89054526D01*
X110084980Y-89043709D01*
X110089781Y-89032567D01*
X110094259Y-89021157D01*
X110098446Y-89009474D01*
X110102307Y-88997484D01*
X110105875Y-88985219D01*
X110109121Y-88972704D01*
X110112046Y-88959875D01*
X110114692Y-88946759D01*
X110117000Y-88933392D01*
X110119026Y-88919713D01*
X110120710Y-88905780D01*
X110122132Y-88891537D01*
X110123200Y-88877030D01*
X110123974Y-88862240D01*
X110124426Y-88847165D01*
X110124592Y-88831804D01*
X110124426Y-88816222D01*
X110123974Y-88800948D01*
X110123200Y-88785989D01*
X110122132Y-88771327D01*
X110120710Y-88756993D01*
X110119026Y-88742963D01*
X110117000Y-88729271D01*
X110114692Y-88715860D01*
X110112046Y-88702789D01*
X110109121Y-88689999D01*
X110105875Y-88677530D01*
X110102307Y-88665402D01*
X110098446Y-88653564D01*
X110094259Y-88642045D01*
X110089781Y-88630812D01*
X110084980Y-88619919D01*
X110079823Y-88609295D01*
X110074369Y-88598985D01*
X110068629Y-88588965D01*
X110062578Y-88579304D01*
X110056220Y-88569937D01*
X110049579Y-88560893D01*
X110042643Y-88552170D01*
X110035375Y-88543789D01*
X110027828Y-88535688D01*
X110019968Y-88527933D01*
X110011831Y-88520479D01*
X110003366Y-88513354D01*
X109994618Y-88506554D01*
X109985564Y-88500065D01*
X109976229Y-88493888D01*
X109966557Y-88488030D01*
X109956606Y-88482477D01*
X109946384Y-88477270D01*
X109935860Y-88472423D01*
X109925044Y-88467926D01*
X109913950Y-88463813D01*
X109902568Y-88460036D01*
X109890893Y-88456633D01*
X109878940Y-88453560D01*
X109866704Y-88450877D01*
X109854162Y-88448542D01*
X109841316Y-88446573D01*
X109828207Y-88444957D01*
X109814813Y-88443700D01*
X109801119Y-88442800D01*
X109787146Y-88442259D01*
X109772875Y-88442091D01*
X109758254Y-88442313D01*
X109743692Y-88442954D01*
X109729182Y-88444031D01*
X109714770Y-88445555D01*
X109700374Y-88447505D01*
X109686075Y-88449889D01*
X109671811Y-88452713D01*
X109657618Y-88455954D01*
X109643442Y-88459676D01*
X109629433Y-88463942D01*
X109615585Y-88468723D01*
X109601881Y-88474068D01*
X109588335Y-88479945D01*
X109574978Y-88486310D01*
X109561759Y-88493247D01*
X109548703Y-88500709D01*
X109543361Y-88503423D01*
X109538068Y-88505887D01*
X109532818Y-88508138D01*
X109527672Y-88510167D01*
X109522574Y-88511946D01*
X109517557Y-88513509D01*
X109512607Y-88514855D01*
X109507711Y-88515968D01*
X109502894Y-88516824D01*
X109498142Y-88517472D01*
X109493465Y-88517888D01*
X109488857Y-88518072D01*
X109484318Y-88518038D01*
X109479833Y-88517774D01*
X109475426Y-88517271D01*
X109471081Y-88516546D01*
X109466833Y-88515578D01*
X109462654Y-88514465D01*
X109458568Y-88513230D01*
X109454566Y-88511821D01*
X109450669Y-88510266D01*
X109446853Y-88508580D01*
X109443129Y-88506752D01*
X109439487Y-88504768D01*
X109435931Y-88502637D01*
X109432494Y-88500346D01*
X109429146Y-88497944D01*
X109425860Y-88495368D01*
X109422661Y-88492676D01*
X109419581Y-88489821D01*
X109416575Y-88486818D01*
X109413657Y-88483679D01*
X109410811Y-88480357D01*
X109408079Y-88476983D01*
X109405500Y-88473516D01*
X109403060Y-88469978D01*
X109400760Y-88466371D01*
X109398577Y-88462660D01*
X109396540Y-88458902D01*
X109394639Y-88455061D01*
X109392879Y-88451156D01*
X109391253Y-88447127D01*
X109389767Y-88443058D01*
X109388398Y-88438904D01*
X109387186Y-88434665D01*
X109386114Y-88430345D01*
X109385149Y-88425944D01*
X109384346Y-88421490D01*
X109383648Y-88416992D01*
X109383109Y-88412469D01*
X109382754Y-88407964D01*
X109382563Y-88403479D01*
X109382550Y-88398950D01*
X109382702Y-88394466D01*
X109383039Y-88389953D01*
X109383555Y-88385456D01*
X109384241Y-88380938D01*
X109385084Y-88376440D01*
X109386130Y-88371938D01*
X109387324Y-88367437D01*
X109388683Y-88362920D01*
X109390228Y-88358420D01*
X109391963Y-88353915D01*
X109393849Y-88349400D01*
X109395883Y-88344897D01*
X109398130Y-88340478D01*
X109400608Y-88336181D01*
X109403282Y-88331943D01*
X109406176Y-88327838D01*
X109409267Y-88323805D01*
X109412597Y-88319878D01*
X109416111Y-88316047D01*
X109419872Y-88312303D01*
X109423830Y-88308653D01*
X109427988Y-88305117D01*
X109432387Y-88301639D01*
X109436984Y-88298301D01*
X109441807Y-88295041D01*
X109446838Y-88291866D01*
X109452086Y-88288811D01*
X109468876Y-88279194D01*
X109486387Y-88270140D01*
X109504613Y-88261662D01*
X109523571Y-88253759D01*
X109543220Y-88246426D01*
X109563622Y-88239644D01*
X109584707Y-88233431D01*
X109606534Y-88227825D01*
X109628673Y-88222712D01*
X109650750Y-88218279D01*
X109672737Y-88214536D01*
X109694670Y-88211487D01*
X109716493Y-88209080D01*
X109738279Y-88207396D01*
X109759966Y-88206378D01*
X109781572Y-88206032D01*
X109799787Y-88206203D01*
G37*
G36*
X111033709Y-88206472D02*
G01*
X111060025Y-88207759D01*
X111085756Y-88209927D01*
X111110935Y-88212964D01*
X111135544Y-88216862D01*
X111159617Y-88221632D01*
X111183139Y-88227259D01*
X111206110Y-88233766D01*
X111217297Y-88237273D01*
X111228281Y-88240968D01*
X111239082Y-88244872D01*
X111249708Y-88248958D01*
X111260138Y-88253229D01*
X111270367Y-88257704D01*
X111280386Y-88262350D01*
X111290249Y-88267230D01*
X111299917Y-88272272D01*
X111309386Y-88277507D01*
X111318659Y-88282948D01*
X111327731Y-88288553D01*
X111336635Y-88294369D01*
X111345330Y-88300364D01*
X111353828Y-88306587D01*
X111362163Y-88312970D01*
X111370191Y-88319488D01*
X111378024Y-88326139D01*
X111385638Y-88332947D01*
X111393015Y-88339922D01*
X111400164Y-88347041D01*
X111407080Y-88354316D01*
X111413797Y-88361732D01*
X111420253Y-88369303D01*
X111426505Y-88377032D01*
X111432521Y-88384909D01*
X111438328Y-88392941D01*
X111443924Y-88401112D01*
X111449254Y-88409454D01*
X111454357Y-88417924D01*
X111459257Y-88426569D01*
X111463933Y-88435358D01*
X111468290Y-88444201D01*
X111472384Y-88453220D01*
X111476179Y-88462346D01*
X111479704Y-88471586D01*
X111482930Y-88480967D01*
X111485905Y-88490469D01*
X111488561Y-88500077D01*
X111490961Y-88509806D01*
X111493075Y-88519677D01*
X111494897Y-88529660D01*
X111496443Y-88539780D01*
X111497700Y-88550005D01*
X111498706Y-88560370D01*
X111499411Y-88570864D01*
X111499823Y-88581464D01*
X111499968Y-88592197D01*
X111499659Y-88609017D01*
X111498717Y-88625425D01*
X111497157Y-88641427D01*
X111494956Y-88657000D01*
X111492169Y-88672187D01*
X111488718Y-88686968D01*
X111484638Y-88701313D01*
X111479975Y-88715269D01*
X111474648Y-88728780D01*
X111468720Y-88741915D01*
X111462160Y-88754628D01*
X111454984Y-88766930D01*
X111447147Y-88778798D01*
X111438721Y-88790290D01*
X111429658Y-88801348D01*
X111419975Y-88812008D01*
X111409591Y-88822245D01*
X111398538Y-88832134D01*
X111386812Y-88841626D01*
X111374456Y-88850728D01*
X111361401Y-88859440D01*
X111347686Y-88867770D01*
X111333324Y-88875746D01*
X111318273Y-88883295D01*
X111302563Y-88890486D01*
X111286204Y-88897282D01*
X111269173Y-88903708D01*
X111251468Y-88909736D01*
X111233088Y-88915389D01*
X111214069Y-88920668D01*
X111194378Y-88925540D01*
X111174007Y-88930043D01*
X110979541Y-88971228D01*
X110967880Y-88973829D01*
X110956676Y-88976515D01*
X110945910Y-88979251D01*
X110935596Y-88982080D01*
X110925759Y-88984946D01*
X110916338Y-88987908D01*
X110907364Y-88990909D01*
X110898829Y-88993987D01*
X110890778Y-88997148D01*
X110883149Y-89000382D01*
X110875988Y-89003665D01*
X110869280Y-89007021D01*
X110862985Y-89010456D01*
X110857163Y-89013943D01*
X110851789Y-89017510D01*
X110846858Y-89021137D01*
X110842253Y-89024896D01*
X110837943Y-89028796D01*
X110833949Y-89032858D01*
X110830229Y-89037094D01*
X110826816Y-89041491D01*
X110823680Y-89046059D01*
X110820870Y-89050781D01*
X110818346Y-89055684D01*
X110816118Y-89060760D01*
X110814174Y-89065954D01*
X110812547Y-89071370D01*
X110811228Y-89076910D01*
X110810184Y-89082611D01*
X110809444Y-89088481D01*
X110808988Y-89094535D01*
X110808850Y-89100752D01*
X110809055Y-89107982D01*
X110809679Y-89115094D01*
X110810717Y-89122021D01*
X110812170Y-89128809D01*
X110814047Y-89135431D01*
X110816379Y-89141913D01*
X110819067Y-89148255D01*
X110822197Y-89154412D01*
X110825763Y-89160405D01*
X110829732Y-89166276D01*
X110834119Y-89171979D01*
X110838923Y-89177516D01*
X110844134Y-89182922D01*
X110849776Y-89188151D01*
X110855836Y-89193247D01*
X110862307Y-89198177D01*
X110869290Y-89202812D01*
X110876810Y-89207185D01*
X110884886Y-89211246D01*
X110893543Y-89214991D01*
X110902745Y-89218444D01*
X110912548Y-89221584D01*
X110922894Y-89224423D01*
X110933803Y-89226977D01*
X110945270Y-89229240D01*
X110957293Y-89231181D01*
X110969902Y-89232836D01*
X110983057Y-89234175D01*
X110996785Y-89235245D01*
X111011066Y-89235989D01*
X111025916Y-89236439D01*
X111041335Y-89236579D01*
X111062034Y-89236289D01*
X111082758Y-89235423D01*
X111103510Y-89233948D01*
X111124314Y-89231923D01*
X111145118Y-89229320D01*
X111165939Y-89226139D01*
X111186800Y-89222335D01*
X111207691Y-89217975D01*
X111228372Y-89212884D01*
X111248665Y-89207189D01*
X111268568Y-89200809D01*
X111288068Y-89193816D01*
X111307186Y-89186153D01*
X111325910Y-89177869D01*
X111344216Y-89168926D01*
X111362163Y-89159354D01*
X111367269Y-89156857D01*
X111372306Y-89154559D01*
X111377333Y-89152488D01*
X111382259Y-89150659D01*
X111387144Y-89149068D01*
X111391976Y-89147692D01*
X111396745Y-89146527D01*
X111401445Y-89145587D01*
X111406101Y-89144888D01*
X111410694Y-89144412D01*
X111415207Y-89144166D01*
X111419697Y-89144127D01*
X111424107Y-89144331D01*
X111428468Y-89144754D01*
X111432758Y-89145406D01*
X111437008Y-89146291D01*
X111441155Y-89147353D01*
X111445214Y-89148558D01*
X111449199Y-89149904D01*
X111453089Y-89151419D01*
X111456884Y-89153058D01*
X111460560Y-89154844D01*
X111464180Y-89156778D01*
X111467697Y-89158865D01*
X111471103Y-89161078D01*
X111474437Y-89163460D01*
X111477658Y-89165982D01*
X111480809Y-89168635D01*
X111483858Y-89171447D01*
X111486820Y-89174399D01*
X111489678Y-89177495D01*
X111492443Y-89180748D01*
X111495073Y-89184086D01*
X111497531Y-89187530D01*
X111499853Y-89190977D01*
X111502066Y-89194530D01*
X111504145Y-89198147D01*
X111506088Y-89201810D01*
X111507911Y-89205567D01*
X111509566Y-89209351D01*
X111511105Y-89213226D01*
X111512531Y-89217169D01*
X111513806Y-89221161D01*
X111514942Y-89225226D01*
X111515973Y-89229353D01*
X111516840Y-89233554D01*
X111517563Y-89237826D01*
X111518194Y-89242133D01*
X111518654Y-89246430D01*
X111518970Y-89250723D01*
X111519126Y-89255030D01*
X111519126Y-89259304D01*
X111518979Y-89263586D01*
X111518669Y-89267872D01*
X111518221Y-89272124D01*
X111517601Y-89276408D01*
X111516820Y-89280653D01*
X111515904Y-89284878D01*
X111514816Y-89289142D01*
X111513577Y-89293361D01*
X111512193Y-89297603D01*
X111510662Y-89301831D01*
X111508960Y-89306045D01*
X111507084Y-89310261D01*
X111505028Y-89314364D01*
X111502805Y-89318382D01*
X111500377Y-89322298D01*
X111497795Y-89326129D01*
X111495029Y-89329851D01*
X111492087Y-89333490D01*
X111488997Y-89337027D01*
X111485714Y-89340462D01*
X111482251Y-89343796D01*
X111478634Y-89347045D01*
X111474836Y-89350201D01*
X111470856Y-89353259D01*
X111466712Y-89356219D01*
X111462396Y-89359082D01*
X111457898Y-89361847D01*
X111453225Y-89364516D01*
X111439726Y-89372075D01*
X111425743Y-89379320D01*
X111411309Y-89386242D01*
X111396405Y-89392817D01*
X111381008Y-89399106D01*
X111365160Y-89405068D01*
X111348841Y-89410696D01*
X111332046Y-89416007D01*
X111314908Y-89421003D01*
X111297567Y-89425710D01*
X111280004Y-89430115D01*
X111262250Y-89434225D01*
X111244262Y-89438042D01*
X111226066Y-89441551D01*
X111207684Y-89444758D01*
X111189066Y-89447681D01*
X111170291Y-89450393D01*
X111151612Y-89452720D01*
X111133011Y-89454701D01*
X111114510Y-89456299D01*
X111096065Y-89457559D01*
X111077752Y-89458454D01*
X111059496Y-89458991D01*
X111041335Y-89459175D01*
X111013250Y-89458774D01*
X110985900Y-89457521D01*
X110959242Y-89455450D01*
X110933297Y-89452530D01*
X110908046Y-89448812D01*
X110883518Y-89444249D01*
X110859688Y-89438858D01*
X110836561Y-89432635D01*
X110825229Y-89429198D01*
X110814098Y-89425549D01*
X110803171Y-89421729D01*
X110792450Y-89417743D01*
X110781933Y-89413572D01*
X110771644Y-89409197D01*
X110761491Y-89404690D01*
X110751614Y-89399970D01*
X110741913Y-89395083D01*
X110732418Y-89390007D01*
X110723114Y-89384749D01*
X110714023Y-89379320D01*
X110705159Y-89373709D01*
X110696465Y-89367931D01*
X110688009Y-89361965D01*
X110679718Y-89355809D01*
X110671623Y-89349482D01*
X110663773Y-89343014D01*
X110656178Y-89336390D01*
X110648805Y-89329615D01*
X110641686Y-89322685D01*
X110634801Y-89315588D01*
X110628183Y-89308359D01*
X110621800Y-89300951D01*
X110615661Y-89293387D01*
X110609756Y-89285691D01*
X110604122Y-89277808D01*
X110598715Y-89269807D01*
X110593536Y-89261629D01*
X110588621Y-89253296D01*
X110583937Y-89244823D01*
X110579498Y-89236198D01*
X110575339Y-89227359D01*
X110571443Y-89218426D01*
X110567802Y-89209333D01*
X110564452Y-89200122D01*
X110561353Y-89190807D01*
X110558527Y-89181336D01*
X110555985Y-89171742D01*
X110553668Y-89162020D01*
X110551667Y-89152185D01*
X110549906Y-89142216D01*
X110548413Y-89132132D01*
X110547196Y-89121909D01*
X110546268Y-89111562D01*
X110545604Y-89101090D01*
X110545190Y-89090491D01*
X110545058Y-89079735D01*
X110545390Y-89063601D01*
X110546342Y-89047871D01*
X110547971Y-89032510D01*
X110550228Y-89017555D01*
X110553145Y-89003008D01*
X110556698Y-88988845D01*
X110560903Y-88975072D01*
X110565765Y-88961723D01*
X110571269Y-88948747D01*
X110577402Y-88936180D01*
X110584173Y-88923991D01*
X110591645Y-88912225D01*
X110599691Y-88900819D01*
X110608421Y-88889827D01*
X110617825Y-88879234D01*
X110627838Y-88869039D01*
X110638540Y-88859165D01*
X110649885Y-88849635D01*
X110661897Y-88840449D01*
X110674604Y-88831613D01*
X110687963Y-88823129D01*
X110702002Y-88814984D01*
X110716714Y-88807171D01*
X110732092Y-88799724D01*
X110748145Y-88792616D01*
X110764874Y-88785869D01*
X110782270Y-88779470D01*
X110800362Y-88773393D01*
X110819077Y-88767672D01*
X110838503Y-88762305D01*
X110858602Y-88757292D01*
X110879336Y-88752602D01*
X111074198Y-88711016D01*
X111085174Y-88708581D01*
X111095747Y-88706074D01*
X111105898Y-88703463D01*
X111115630Y-88700770D01*
X111124960Y-88697973D01*
X111133870Y-88695080D01*
X111142360Y-88692118D01*
X111150436Y-88689036D01*
X111158116Y-88685865D01*
X111165343Y-88682604D01*
X111172197Y-88679260D01*
X111178612Y-88675806D01*
X111184614Y-88672265D01*
X111190223Y-88668644D01*
X111195388Y-88664923D01*
X111200132Y-88661110D01*
X111204518Y-88657174D01*
X111208591Y-88653077D01*
X111212378Y-88648838D01*
X111215917Y-88644458D01*
X111219172Y-88639920D01*
X111222117Y-88635204D01*
X111224785Y-88630352D01*
X111227175Y-88625378D01*
X111229303Y-88620229D01*
X111231131Y-88614908D01*
X111232665Y-88609464D01*
X111233928Y-88603844D01*
X111234925Y-88598099D01*
X111235629Y-88592194D01*
X111236056Y-88586113D01*
X111236206Y-88579919D01*
X111236094Y-88574366D01*
X111235765Y-88568881D01*
X111235252Y-88563498D01*
X111234523Y-88558150D01*
X111233608Y-88552950D01*
X111232454Y-88547795D01*
X111231119Y-88542731D01*
X111229568Y-88537731D01*
X111227791Y-88532827D01*
X111225825Y-88527997D01*
X111223648Y-88523237D01*
X111221258Y-88518574D01*
X111218674Y-88513994D01*
X111215879Y-88509469D01*
X111212865Y-88505059D01*
X111209654Y-88500709D01*
X111206193Y-88496454D01*
X111202553Y-88492330D01*
X111198736Y-88488330D01*
X111194707Y-88484448D01*
X111190498Y-88480683D01*
X111186124Y-88477031D01*
X111181545Y-88473502D01*
X111176786Y-88470121D01*
X111171829Y-88466829D01*
X111166703Y-88463670D01*
X111161401Y-88460618D01*
X111155890Y-88457693D01*
X111150204Y-88454909D01*
X111144325Y-88452219D01*
X111138280Y-88449655D01*
X111132017Y-88447239D01*
X111125555Y-88444937D01*
X111118916Y-88442787D01*
X111112134Y-88440766D01*
X111105156Y-88438924D01*
X111098059Y-88437215D01*
X111090743Y-88435647D01*
X111075700Y-88432976D01*
X111059992Y-88430908D01*
X111043576Y-88429406D01*
X111026546Y-88428525D01*
X111008854Y-88428219D01*
X110992094Y-88428427D01*
X110975407Y-88429084D01*
X110958877Y-88430174D01*
X110942405Y-88431678D01*
X110926077Y-88433638D01*
X110909863Y-88436027D01*
X110893760Y-88438841D01*
X110877757Y-88442091D01*
X110861919Y-88445786D01*
X110846303Y-88449978D01*
X110830889Y-88454653D01*
X110815663Y-88459815D01*
X110800688Y-88465461D01*
X110785884Y-88471573D01*
X110771308Y-88478172D01*
X110756950Y-88485252D01*
X110751207Y-88487954D01*
X110745582Y-88490458D01*
X110740059Y-88492691D01*
X110734630Y-88494713D01*
X110729313Y-88496505D01*
X110724099Y-88498084D01*
X110718982Y-88499398D01*
X110713980Y-88500512D01*
X110709075Y-88501385D01*
X110704280Y-88502026D01*
X110699600Y-88502441D01*
X110695020Y-88502637D01*
X110690548Y-88502612D01*
X110686168Y-88502332D01*
X110681906Y-88501830D01*
X110677762Y-88501097D01*
X110673676Y-88500137D01*
X110669716Y-88499041D01*
X110665819Y-88497817D01*
X110662017Y-88496463D01*
X110658306Y-88494978D01*
X110654700Y-88493365D01*
X110651174Y-88491611D01*
X110647752Y-88489701D01*
X110644381Y-88487682D01*
X110641133Y-88485541D01*
X110637953Y-88483254D01*
X110634892Y-88480820D01*
X110631925Y-88478280D01*
X110629006Y-88475582D01*
X110626186Y-88472766D01*
X110623487Y-88469809D01*
X110620878Y-88466741D01*
X110618396Y-88463662D01*
X110616045Y-88460476D01*
X110613849Y-88457247D01*
X110611785Y-88453979D01*
X110609840Y-88450642D01*
X110608022Y-88447237D01*
X110606352Y-88443778D01*
X110604821Y-88440249D01*
X110603394Y-88436662D01*
X110602122Y-88433033D01*
X110600986Y-88429340D01*
X110599981Y-88425576D01*
X110599094Y-88421764D01*
X110598354Y-88417892D01*
X110597736Y-88413960D01*
X110597255Y-88409947D01*
X110596927Y-88405942D01*
X110596723Y-88401927D01*
X110596646Y-88397947D01*
X110596723Y-88393937D01*
X110596927Y-88389957D01*
X110597255Y-88385963D01*
X110597736Y-88381988D01*
X110598354Y-88378008D01*
X110599094Y-88374001D01*
X110599995Y-88370041D01*
X110601000Y-88366073D01*
X110602168Y-88362086D01*
X110603465Y-88358134D01*
X110604888Y-88354170D01*
X110606463Y-88350199D01*
X110608119Y-88346231D01*
X110609966Y-88342353D01*
X110611962Y-88338576D01*
X110614156Y-88334895D01*
X110616482Y-88331263D01*
X110619041Y-88327758D01*
X110621704Y-88324333D01*
X110624558Y-88321011D01*
X110627599Y-88317732D01*
X110630802Y-88314579D01*
X110634170Y-88311515D01*
X110637729Y-88308541D01*
X110641431Y-88305664D01*
X110645306Y-88302846D01*
X110649353Y-88300136D01*
X110653582Y-88297503D01*
X110662516Y-88291983D01*
X110671651Y-88286569D01*
X110680954Y-88281380D01*
X110690415Y-88276345D01*
X110709872Y-88266788D01*
X110730029Y-88257923D01*
X110750862Y-88249748D01*
X110772390Y-88242264D01*
X110794631Y-88235505D01*
X110817567Y-88229410D01*
X110840882Y-88223920D01*
X110864296Y-88219185D01*
X110887786Y-88215164D01*
X110911435Y-88211871D01*
X110935133Y-88209331D01*
X110958948Y-88207493D01*
X110982881Y-88206393D01*
X111006863Y-88206032D01*
X111033709Y-88206472D01*
G37*
D13*
X107122525Y-99671119D02*
X106551097Y-99671119D01*
X106836811Y-100671119D02*
X106836811Y-99671119D01*
X105646335Y-100671119D02*
X105979668Y-100194928D01*
X106217763Y-100671119D02*
X106217763Y-99671119D01*
X106217763Y-99671119D02*
X105836811Y-99671119D01*
X105836811Y-99671119D02*
X105741573Y-99718738D01*
X105741573Y-99718738D02*
X105693954Y-99766357D01*
X105693954Y-99766357D02*
X105646335Y-99861595D01*
X105646335Y-99861595D02*
X105646335Y-100004452D01*
X105646335Y-100004452D02*
X105693954Y-100099690D01*
X105693954Y-100099690D02*
X105741573Y-100147309D01*
X105741573Y-100147309D02*
X105836811Y-100194928D01*
X105836811Y-100194928D02*
X106217763Y-100194928D01*
X104646335Y-100671119D02*
X104979668Y-100194928D01*
X105217763Y-100671119D02*
X105217763Y-99671119D01*
X105217763Y-99671119D02*
X104836811Y-99671119D01*
X104836811Y-99671119D02*
X104741573Y-99718738D01*
X104741573Y-99718738D02*
X104693954Y-99766357D01*
X104693954Y-99766357D02*
X104646335Y-99861595D01*
X104646335Y-99861595D02*
X104646335Y-100004452D01*
X104646335Y-100004452D02*
X104693954Y-100099690D01*
X104693954Y-100099690D02*
X104741573Y-100147309D01*
X104741573Y-100147309D02*
X104836811Y-100194928D01*
X104836811Y-100194928D02*
X105217763Y-100194928D01*
X104265382Y-100623500D02*
X104122525Y-100671119D01*
X104122525Y-100671119D02*
X103884430Y-100671119D01*
X103884430Y-100671119D02*
X103789192Y-100623500D01*
X103789192Y-100623500D02*
X103741573Y-100575880D01*
X103741573Y-100575880D02*
X103693954Y-100480642D01*
X103693954Y-100480642D02*
X103693954Y-100385404D01*
X103693954Y-100385404D02*
X103741573Y-100290166D01*
X103741573Y-100290166D02*
X103789192Y-100242547D01*
X103789192Y-100242547D02*
X103884430Y-100194928D01*
X103884430Y-100194928D02*
X104074906Y-100147309D01*
X104074906Y-100147309D02*
X104170144Y-100099690D01*
X104170144Y-100099690D02*
X104217763Y-100052071D01*
X104217763Y-100052071D02*
X104265382Y-99956833D01*
X104265382Y-99956833D02*
X104265382Y-99861595D01*
X104265382Y-99861595D02*
X104217763Y-99766357D01*
X104217763Y-99766357D02*
X104170144Y-99718738D01*
X104170144Y-99718738D02*
X104074906Y-99671119D01*
X104074906Y-99671119D02*
X103836811Y-99671119D01*
X103836811Y-99671119D02*
X103693954Y-99718738D01*
X130948889Y-88296949D02*
X130948889Y-87296949D01*
X130948889Y-87296949D02*
X130567937Y-87296949D01*
X130567937Y-87296949D02*
X130472699Y-87344568D01*
X130472699Y-87344568D02*
X130425080Y-87392187D01*
X130425080Y-87392187D02*
X130377461Y-87487425D01*
X130377461Y-87487425D02*
X130377461Y-87630282D01*
X130377461Y-87630282D02*
X130425080Y-87725520D01*
X130425080Y-87725520D02*
X130472699Y-87773139D01*
X130472699Y-87773139D02*
X130567937Y-87820758D01*
X130567937Y-87820758D02*
X130948889Y-87820758D01*
X129948889Y-88296949D02*
X129948889Y-87296949D01*
X129948889Y-87773139D02*
X129377461Y-87773139D01*
X129377461Y-88296949D02*
X129377461Y-87296949D01*
X128948889Y-88011234D02*
X128472699Y-88011234D01*
X129044127Y-88296949D02*
X128710794Y-87296949D01*
X128710794Y-87296949D02*
X128377461Y-88296949D01*
X128044127Y-88296949D02*
X128044127Y-87296949D01*
X128044127Y-87296949D02*
X127472699Y-88296949D01*
X127472699Y-88296949D02*
X127472699Y-87296949D01*
X127139365Y-87296949D02*
X126567937Y-87296949D01*
X126853651Y-88296949D02*
X126853651Y-87296949D01*
X126044127Y-87296949D02*
X125853651Y-87296949D01*
X125853651Y-87296949D02*
X125758413Y-87344568D01*
X125758413Y-87344568D02*
X125663175Y-87439806D01*
X125663175Y-87439806D02*
X125615556Y-87630282D01*
X125615556Y-87630282D02*
X125615556Y-87963615D01*
X125615556Y-87963615D02*
X125663175Y-88154091D01*
X125663175Y-88154091D02*
X125758413Y-88249330D01*
X125758413Y-88249330D02*
X125853651Y-88296949D01*
X125853651Y-88296949D02*
X126044127Y-88296949D01*
X126044127Y-88296949D02*
X126139365Y-88249330D01*
X126139365Y-88249330D02*
X126234603Y-88154091D01*
X126234603Y-88154091D02*
X126282222Y-87963615D01*
X126282222Y-87963615D02*
X126282222Y-87630282D01*
X126282222Y-87630282D02*
X126234603Y-87439806D01*
X126234603Y-87439806D02*
X126139365Y-87344568D01*
X126139365Y-87344568D02*
X126044127Y-87296949D01*
X125186984Y-88296949D02*
X125186984Y-87296949D01*
X125186984Y-87296949D02*
X124853651Y-88011234D01*
X124853651Y-88011234D02*
X124520318Y-87296949D01*
X124520318Y-87296949D02*
X124520318Y-88296949D01*
X121971119Y-89980952D02*
X121971119Y-90171428D01*
X121971119Y-90171428D02*
X122018738Y-90266666D01*
X122018738Y-90266666D02*
X122113976Y-90361904D01*
X122113976Y-90361904D02*
X122304452Y-90409523D01*
X122304452Y-90409523D02*
X122637785Y-90409523D01*
X122637785Y-90409523D02*
X122828261Y-90361904D01*
X122828261Y-90361904D02*
X122923500Y-90266666D01*
X122923500Y-90266666D02*
X122971119Y-90171428D01*
X122971119Y-90171428D02*
X122971119Y-89980952D01*
X122971119Y-89980952D02*
X122923500Y-89885714D01*
X122923500Y-89885714D02*
X122828261Y-89790476D01*
X122828261Y-89790476D02*
X122637785Y-89742857D01*
X122637785Y-89742857D02*
X122304452Y-89742857D01*
X122304452Y-89742857D02*
X122113976Y-89790476D01*
X122113976Y-89790476D02*
X122018738Y-89885714D01*
X122018738Y-89885714D02*
X121971119Y-89980952D01*
X122971119Y-90838095D02*
X121971119Y-90838095D01*
X121971119Y-90838095D02*
X122971119Y-91409523D01*
X122971119Y-91409523D02*
X121971119Y-91409523D01*
X83038824Y-83295238D02*
X83038824Y-83866666D01*
X83038824Y-83580952D02*
X84038824Y-83580952D01*
X84038824Y-83580952D02*
X83895967Y-83676190D01*
X83895967Y-83676190D02*
X83800729Y-83771428D01*
X83800729Y-83771428D02*
X83753110Y-83866666D01*
X84086444Y-82152381D02*
X82800729Y-83009523D01*
X83705491Y-81390476D02*
X83038824Y-81390476D01*
X84086444Y-81628571D02*
X83372158Y-81866666D01*
X83372158Y-81866666D02*
X83372158Y-81247619D01*
X84038824Y-80914285D02*
X83848348Y-80914285D01*
X84038824Y-80533333D02*
X83848348Y-80533333D01*
X82428880Y-83438094D02*
X81428880Y-82771428D01*
X82428880Y-82771428D02*
X81428880Y-83438094D01*
X81428880Y-81914285D02*
X81428880Y-82390475D01*
X81428880Y-82390475D02*
X82428880Y-82390475D01*
X81428880Y-81009523D02*
X81905071Y-81342856D01*
X81428880Y-81580951D02*
X82428880Y-81580951D01*
X82428880Y-81580951D02*
X82428880Y-81199999D01*
X82428880Y-81199999D02*
X82381261Y-81104761D01*
X82381261Y-81104761D02*
X82333642Y-81057142D01*
X82333642Y-81057142D02*
X82238404Y-81009523D01*
X82238404Y-81009523D02*
X82095547Y-81009523D01*
X82095547Y-81009523D02*
X82000309Y-81057142D01*
X82000309Y-81057142D02*
X81952690Y-81104761D01*
X81952690Y-81104761D02*
X81905071Y-81199999D01*
X81905071Y-81199999D02*
X81905071Y-81580951D01*
D14*
X110938549Y-93567869D02*
X110938549Y-92567869D01*
X110938549Y-93044059D02*
X110367121Y-93044059D01*
X110367121Y-93567869D02*
X110367121Y-92567869D01*
X109462359Y-93567869D02*
X109462359Y-93044059D01*
X109462359Y-93044059D02*
X109509978Y-92948821D01*
X109509978Y-92948821D02*
X109605216Y-92901202D01*
X109605216Y-92901202D02*
X109795692Y-92901202D01*
X109795692Y-92901202D02*
X109890930Y-92948821D01*
X109462359Y-93520250D02*
X109557597Y-93567869D01*
X109557597Y-93567869D02*
X109795692Y-93567869D01*
X109795692Y-93567869D02*
X109890930Y-93520250D01*
X109890930Y-93520250D02*
X109938549Y-93425011D01*
X109938549Y-93425011D02*
X109938549Y-93329773D01*
X109938549Y-93329773D02*
X109890930Y-93234535D01*
X109890930Y-93234535D02*
X109795692Y-93186916D01*
X109795692Y-93186916D02*
X109557597Y-93186916D01*
X109557597Y-93186916D02*
X109462359Y-93139297D01*
X109129025Y-92901202D02*
X108748073Y-92901202D01*
X108986168Y-92567869D02*
X108986168Y-93425011D01*
X108986168Y-93425011D02*
X108938549Y-93520250D01*
X108938549Y-93520250D02*
X108843311Y-93567869D01*
X108843311Y-93567869D02*
X108748073Y-93567869D01*
X108414739Y-93186916D02*
X107652835Y-93186916D01*
X107319501Y-92901202D02*
X106938549Y-92901202D01*
X107176644Y-92567869D02*
X107176644Y-93425011D01*
X107176644Y-93425011D02*
X107129025Y-93520250D01*
X107129025Y-93520250D02*
X107033787Y-93567869D01*
X107033787Y-93567869D02*
X106938549Y-93567869D01*
X106605215Y-93567869D02*
X106605215Y-92901202D01*
X106605215Y-93091678D02*
X106557596Y-92996440D01*
X106557596Y-92996440D02*
X106509977Y-92948821D01*
X106509977Y-92948821D02*
X106414739Y-92901202D01*
X106414739Y-92901202D02*
X106319501Y-92901202D01*
X105986167Y-93567869D02*
X105986167Y-92901202D01*
X105986167Y-92567869D02*
X106033786Y-92615488D01*
X106033786Y-92615488D02*
X105986167Y-92663107D01*
X105986167Y-92663107D02*
X105938548Y-92615488D01*
X105938548Y-92615488D02*
X105986167Y-92567869D01*
X105986167Y-92567869D02*
X105986167Y-92663107D01*
X105509977Y-93567869D02*
X105509977Y-92567869D01*
X105414739Y-93186916D02*
X105129025Y-93567869D01*
X105129025Y-92901202D02*
X105509977Y-93282154D01*
X104033786Y-92901202D02*
X103795691Y-93567869D01*
X103795691Y-93567869D02*
X103557596Y-92901202D01*
X103271881Y-92567869D02*
X102652834Y-92567869D01*
X102652834Y-92567869D02*
X102986167Y-92948821D01*
X102986167Y-92948821D02*
X102843310Y-92948821D01*
X102843310Y-92948821D02*
X102748072Y-92996440D01*
X102748072Y-92996440D02*
X102700453Y-93044059D01*
X102700453Y-93044059D02*
X102652834Y-93139297D01*
X102652834Y-93139297D02*
X102652834Y-93377392D01*
X102652834Y-93377392D02*
X102700453Y-93472630D01*
X102700453Y-93472630D02*
X102748072Y-93520250D01*
X102748072Y-93520250D02*
X102843310Y-93567869D01*
X102843310Y-93567869D02*
X103129024Y-93567869D01*
X103129024Y-93567869D02*
X103224262Y-93520250D01*
X103224262Y-93520250D02*
X103271881Y-93472630D01*
G04 #@! TO.C,F1*
D15*
X102067952Y-96308600D02*
X99295448Y-96308600D01*
X102067952Y-99728600D02*
X99295448Y-99728600D01*
G04 #@! TO.C,OK1*
X102021382Y-83363698D02*
X102021382Y-83578698D01*
X102021382Y-85968698D02*
X102021382Y-86183698D01*
X102021382Y-86183698D02*
X106641382Y-86183698D01*
X106641382Y-83363698D02*
X102021382Y-83363698D01*
X106641382Y-83578698D02*
X106641382Y-83363698D01*
X106641382Y-86183698D02*
X106641382Y-85968698D01*
X107521382Y-83573698D02*
X107761382Y-83243698D01*
X107281382Y-83243698D01*
X107521382Y-83573698D01*
G36*
X107521382Y-83573698D02*
G01*
X107281382Y-83243698D01*
X107761382Y-83243698D01*
X107521382Y-83573698D01*
G37*
G04 #@! TO.C,C9*
X123607836Y-85640000D02*
X123392164Y-85640000D01*
X123607836Y-86360000D02*
X123392164Y-86360000D01*
G04 #@! TO.C,D2*
X106412500Y-95150000D02*
X109072500Y-95150000D01*
X106412500Y-96850000D02*
X106412500Y-95150000D01*
X106412500Y-96850000D02*
X109072500Y-96850000D01*
G04 #@! TO.C,C8*
X121107836Y-96140000D02*
X120892164Y-96140000D01*
X121107836Y-96860000D02*
X120892164Y-96860000D01*
G04 #@! TO.C,R12*
X109264652Y-91009200D02*
X108957370Y-91009200D01*
X109264652Y-91769200D02*
X108957370Y-91769200D01*
G04 #@! TO.C,C28*
X86357836Y-94890000D02*
X86142164Y-94890000D01*
X86357836Y-95610000D02*
X86142164Y-95610000D01*
G04 #@! TO.C,R3*
X123653641Y-94620000D02*
X123346359Y-94620000D01*
X123653641Y-95380000D02*
X123346359Y-95380000D01*
G04 #@! TO.C,C26*
X85872164Y-88390000D02*
X86087836Y-88390000D01*
X85872164Y-89110000D02*
X86087836Y-89110000D01*
G04 #@! TO.C,R4*
X123346359Y-96120000D02*
X123653641Y-96120000D01*
X123346359Y-96880000D02*
X123653641Y-96880000D01*
G04 #@! TO.C,C7*
X120892164Y-94640000D02*
X121107836Y-94640000D01*
X120892164Y-95360000D02*
X121107836Y-95360000D01*
G04 #@! TO.C,C5*
X118392164Y-96140000D02*
X118607836Y-96140000D01*
X118392164Y-96860000D02*
X118607836Y-96860000D01*
G04 #@! TO.C,R6*
X89663600Y-82778236D02*
X89663600Y-83232364D01*
X91133600Y-82778236D02*
X91133600Y-83232364D01*
G04 #@! TO.C,D7*
X112872657Y-90851539D02*
X112872657Y-86841539D01*
X114872657Y-90851539D02*
X112872657Y-90851539D01*
X114872657Y-90851539D02*
X114872657Y-86841539D01*
G04 #@! TO.C,C1*
X119642164Y-84390000D02*
X119857836Y-84390000D01*
X119642164Y-85110000D02*
X119857836Y-85110000D01*
G04 #@! TO.C,C27*
X86127836Y-92390000D02*
X85912164Y-92390000D01*
X86127836Y-93110000D02*
X85912164Y-93110000D01*
G04 #@! TO.C,R7*
X116346359Y-95620000D02*
X116653641Y-95620000D01*
X116346359Y-96380000D02*
X116653641Y-96380000D01*
G04 #@! TO.C,R1*
X130653641Y-97181400D02*
X130346359Y-97181400D01*
X130653641Y-97941400D02*
X130346359Y-97941400D01*
G04 #@! TO.C,R26*
X89653641Y-85620000D02*
X89346359Y-85620000D01*
X89653641Y-86380000D02*
X89346359Y-86380000D01*
G04 #@! TO.C,R2*
X130346359Y-96120000D02*
X130653641Y-96120000D01*
X130346359Y-96880000D02*
X130653641Y-96880000D01*
G04 #@! TO.C,C13*
X110892164Y-95640000D02*
X111107836Y-95640000D01*
X110892164Y-96360000D02*
X111107836Y-96360000D01*
G04 #@! TO.C,R24*
X87653641Y-96370000D02*
X87346359Y-96370000D01*
X87653641Y-97130000D02*
X87346359Y-97130000D01*
G04 #@! TO.C,U4*
X88681209Y-93511865D02*
X93301209Y-93511865D01*
X93301209Y-88041865D02*
X88681209Y-88041865D01*
X87131209Y-93056865D02*
X86801209Y-92816865D01*
X86801209Y-93296865D01*
X87131209Y-93056865D01*
G36*
X87131209Y-93056865D02*
G01*
X86801209Y-93296865D01*
X86801209Y-92816865D01*
X87131209Y-93056865D01*
G37*
G04 #@! TO.C,C17*
X87265000Y-83261252D02*
X87265000Y-82738748D01*
X88735000Y-83261252D02*
X88735000Y-82738748D01*
G04 #@! TO.C,C18*
X114919387Y-84381865D02*
X113496883Y-84381865D01*
X114919387Y-86201865D02*
X113496883Y-86201865D01*
G04 #@! TO.C,FB1*
X121162779Y-85490000D02*
X120837221Y-85490000D01*
X121162779Y-86510000D02*
X120837221Y-86510000D01*
G04 #@! TO.C,C11*
X91924200Y-82618252D02*
X91924200Y-82095748D01*
X93394200Y-82618252D02*
X93394200Y-82095748D01*
G04 #@! TO.C,C12*
X104642164Y-95890000D02*
X104857836Y-95890000D01*
X104642164Y-96610000D02*
X104857836Y-96610000D01*
G04 #@! TO.C,R22*
X89903641Y-96370000D02*
X89596359Y-96370000D01*
X89903641Y-97130000D02*
X89596359Y-97130000D01*
G04 #@! TO.C,D9*
D16*
X90030000Y-87250000D02*
G75*
G02*
X89870000Y-87250000I-80000J0D01*
G01*
X89870000Y-87250000D02*
G75*
G02*
X90030000Y-87250000I80000J0D01*
G01*
G04 #@! TO.C,C6*
D15*
X120738748Y-87015000D02*
X121261252Y-87015000D01*
X120738748Y-88485000D02*
X121261252Y-88485000D01*
G04 #@! TO.C,R19*
X88596359Y-93870000D02*
X88903641Y-93870000D01*
X88596359Y-94630000D02*
X88903641Y-94630000D01*
G04 #@! TO.C,C29*
X86107836Y-93390000D02*
X85892164Y-93390000D01*
X86107836Y-94110000D02*
X85892164Y-94110000D01*
G04 #@! TO.C,SW1*
X123445993Y-88796504D02*
X132245993Y-88796504D01*
X123445993Y-92696504D02*
X123445993Y-88796504D01*
X123445993Y-92696504D02*
X132245993Y-92696504D01*
X132245993Y-92696504D02*
X132245993Y-88796504D01*
G04 #@! TO.C,C4*
X118392164Y-94640000D02*
X118607836Y-94640000D01*
X118392164Y-95360000D02*
X118607836Y-95360000D01*
G04 #@! TO.C,R25*
X85620000Y-82846359D02*
X85620000Y-83153641D01*
X86380000Y-82846359D02*
X86380000Y-83153641D01*
G04 #@! TO.C,R23*
X85653641Y-96120000D02*
X85346359Y-96120000D01*
X85653641Y-96880000D02*
X85346359Y-96880000D01*
G04 #@! TO.C,Q1*
X95990000Y-89143400D02*
X95990000Y-90143400D01*
X95990000Y-91263400D02*
X95990000Y-92263400D01*
X95990000Y-92263400D02*
X97510000Y-92263400D01*
X97510000Y-89143400D02*
X95990000Y-89143400D01*
X97510000Y-89193400D02*
X97510000Y-89143400D01*
X97510000Y-91093400D02*
X97510000Y-90313400D01*
X97510000Y-92263400D02*
X97510000Y-92213400D01*
X98050000Y-90323400D02*
X97810000Y-90653400D01*
X98290000Y-90653400D01*
X98050000Y-90323400D01*
G36*
X98290000Y-90653400D02*
G01*
X97810000Y-90653400D01*
X98050000Y-90323400D01*
X98290000Y-90653400D01*
G37*
G04 #@! TO.C,C10*
X95099200Y-93881348D02*
X95099200Y-94403852D01*
X96569200Y-93881348D02*
X96569200Y-94403852D01*
G04 #@! TO.C,D8*
X126151751Y-94747310D02*
X126151751Y-96667310D01*
X126151751Y-96667310D02*
X128836751Y-96667310D01*
X128836751Y-94747310D02*
X126151751Y-94747310D01*
G04 #@! TO.C,U1*
X114663000Y-90738000D02*
X114663000Y-90988000D01*
X114663000Y-93708000D02*
X114663000Y-93958000D01*
X114663000Y-93958000D02*
X114913000Y-93958000D01*
X114913000Y-90738000D02*
X114663000Y-90738000D01*
X117633000Y-93958000D02*
X117883000Y-93958000D01*
X117883000Y-90738000D02*
X117633000Y-90738000D01*
X117883000Y-90988000D02*
X117883000Y-90738000D01*
X117883000Y-93958000D02*
X117883000Y-93708000D01*
X118413000Y-91348000D02*
X118743000Y-91588000D01*
X118743000Y-91108000D01*
X118413000Y-91348000D01*
G36*
X118743000Y-91588000D02*
G01*
X118413000Y-91348000D01*
X118743000Y-91108000D01*
X118743000Y-91588000D01*
G37*
G04 #@! TO.C,C2*
X118366265Y-87644304D02*
X118581937Y-87644304D01*
X118366265Y-88364304D02*
X118581937Y-88364304D01*
G04 #@! TO.C,C3*
X116918966Y-87301423D02*
X116703294Y-87301423D01*
X116918966Y-88021423D02*
X116703294Y-88021423D01*
G04 #@! TO.C,U3*
X88702500Y-97390000D02*
X88702500Y-97440000D01*
X88702500Y-100460000D02*
X88702500Y-100510000D01*
X88702500Y-100510000D02*
X90522500Y-100510000D01*
X90522500Y-97390000D02*
X88702500Y-97390000D01*
X90522500Y-97440000D02*
X90522500Y-97390000D01*
X90522500Y-99340000D02*
X90522500Y-98560000D01*
X90522500Y-100510000D02*
X90522500Y-100460000D01*
X88162500Y-100460000D02*
X87922500Y-100790000D01*
X88402500Y-100790000D01*
X88162500Y-100460000D01*
G36*
X88402500Y-100790000D02*
G01*
X87922500Y-100790000D01*
X88162500Y-100460000D01*
X88402500Y-100790000D01*
G37*
G04 #@! TO.C,R5*
X95099200Y-87070836D02*
X95099200Y-87524964D01*
X96569200Y-87070836D02*
X96569200Y-87524964D01*
G04 #@! TO.C,D6*
X81600000Y-94260000D02*
X81600000Y-88750000D01*
X84900000Y-94260000D02*
X81600000Y-94260000D01*
X84900000Y-94260000D02*
X84900000Y-88750000D01*
G04 #@! TO.C,R21*
X86653641Y-97620000D02*
X86346359Y-97620000D01*
X86653641Y-98380000D02*
X86346359Y-98380000D01*
G04 #@! TO.C,C24*
X84142164Y-94640000D02*
X84357836Y-94640000D01*
X84142164Y-95360000D02*
X84357836Y-95360000D01*
G04 #@! TO.C,R20*
X92846359Y-99370000D02*
X93153641Y-99370000D01*
X92846359Y-100130000D02*
X93153641Y-100130000D01*
G04 #@! TO.C,C23*
X92140000Y-98142164D02*
X92140000Y-98357836D01*
X92860000Y-98142164D02*
X92860000Y-98357836D01*
G04 #@! TO.C,C25*
X88642164Y-95140000D02*
X88857836Y-95140000D01*
X88642164Y-95860000D02*
X88857836Y-95860000D01*
G04 #@! TO.C,C20*
X112892164Y-95640000D02*
X113107836Y-95640000D01*
X112892164Y-96360000D02*
X113107836Y-96360000D01*
G04 #@! TD*
%LPC*%
D17*
G04 #@! TO.C,J2*
X105503200Y-98258200D03*
X105503200Y-91258200D03*
G04 #@! TD*
D18*
G04 #@! TO.C,J3*
X115568642Y-81958514D03*
D17*
X118108642Y-81958514D03*
X120648642Y-81958514D03*
X123188642Y-81958514D03*
X125728642Y-81958514D03*
X128268642Y-81958514D03*
X130808642Y-81958514D03*
G04 #@! TD*
D18*
G04 #@! TO.C,J6*
X101490180Y-82014535D03*
D17*
X104030180Y-82014535D03*
X106570180Y-82014535D03*
X109110180Y-82014535D03*
G04 #@! TD*
D18*
G04 #@! TO.C,J4*
X115579670Y-99511875D03*
D17*
X118119670Y-99511875D03*
X120659670Y-99511875D03*
X123199670Y-99511875D03*
X125739670Y-99511875D03*
X128279670Y-99511875D03*
X130819670Y-99511875D03*
G04 #@! TD*
D18*
G04 #@! TO.C,J5*
X127655400Y-85217000D03*
D17*
X130195400Y-85217000D03*
G04 #@! TD*
D19*
G04 #@! TO.C,C19*
X110805869Y-86581258D03*
X118305869Y-86581258D03*
G04 #@! TD*
G04 #@! TO.C,J1*
X86106000Y-90779600D03*
X82931000Y-96494600D03*
X82931000Y-85064600D03*
D20*
X94996000Y-97764600D03*
X95631000Y-83794600D03*
D21*
X100076000Y-90779600D03*
D22*
X83566000Y-99034600D03*
D21*
X99441000Y-87922100D03*
X99441000Y-93637100D03*
D23*
X92456000Y-95224600D03*
X92456000Y-86334600D03*
G04 #@! TD*
D24*
G04 #@! TO.C,F1*
X102819200Y-98018600D03*
X98544200Y-98018600D03*
G04 #@! TD*
D25*
G04 #@! TO.C,OK1*
X107518882Y-84138698D03*
X107518882Y-85408698D03*
X101143882Y-85408698D03*
X101143882Y-84138698D03*
G04 #@! TD*
D26*
G04 #@! TO.C,C9*
X123980000Y-86000000D03*
X123020000Y-86000000D03*
G04 #@! TD*
D27*
G04 #@! TO.C,D2*
X106972500Y-96000000D03*
X109072500Y-96000000D03*
G04 #@! TD*
D26*
G04 #@! TO.C,C8*
X121480000Y-96500000D03*
X120520000Y-96500000D03*
G04 #@! TD*
D28*
G04 #@! TO.C,R12*
X109621011Y-91389200D03*
X108601011Y-91389200D03*
G04 #@! TD*
D26*
G04 #@! TO.C,C28*
X86730000Y-95250000D03*
X85770000Y-95250000D03*
G04 #@! TD*
D28*
G04 #@! TO.C,R3*
X124010000Y-95000000D03*
X122990000Y-95000000D03*
G04 #@! TD*
D29*
G04 #@! TO.C,C26*
X85500000Y-88750000D03*
X86460000Y-88750000D03*
G04 #@! TD*
D30*
G04 #@! TO.C,R4*
X122990000Y-96500000D03*
X124010000Y-96500000D03*
G04 #@! TD*
D29*
G04 #@! TO.C,C7*
X120520000Y-95000000D03*
X121480000Y-95000000D03*
G04 #@! TD*
G04 #@! TO.C,C5*
X118020000Y-96500000D03*
X118980000Y-96500000D03*
G04 #@! TD*
D31*
G04 #@! TO.C,R6*
X90398600Y-82092800D03*
X90398600Y-83917800D03*
G04 #@! TD*
D32*
G04 #@! TO.C,D7*
X113872657Y-90141539D03*
X113872657Y-86841539D03*
G04 #@! TD*
D29*
G04 #@! TO.C,C1*
X119270000Y-84750000D03*
X120230000Y-84750000D03*
G04 #@! TD*
D26*
G04 #@! TO.C,C27*
X86500000Y-92750000D03*
X85540000Y-92750000D03*
G04 #@! TD*
D30*
G04 #@! TO.C,R7*
X115990000Y-96000000D03*
X117010000Y-96000000D03*
G04 #@! TD*
D28*
G04 #@! TO.C,R1*
X131010000Y-97561400D03*
X129990000Y-97561400D03*
G04 #@! TD*
G04 #@! TO.C,R26*
X90010000Y-86000000D03*
X88990000Y-86000000D03*
G04 #@! TD*
D30*
G04 #@! TO.C,R2*
X129990000Y-96500000D03*
X131010000Y-96500000D03*
G04 #@! TD*
D29*
G04 #@! TO.C,C13*
X110520000Y-96000000D03*
X111480000Y-96000000D03*
G04 #@! TD*
D28*
G04 #@! TO.C,R24*
X88010000Y-96750000D03*
X86990000Y-96750000D03*
G04 #@! TD*
D33*
G04 #@! TO.C,U4*
X88128709Y-93051865D03*
X88128709Y-92401865D03*
X88128709Y-91751865D03*
X88128709Y-91101865D03*
X88128709Y-90451865D03*
X88128709Y-89801865D03*
X88128709Y-89151865D03*
X88128709Y-88501865D03*
X93853709Y-88501865D03*
X93853709Y-89151865D03*
X93853709Y-89801865D03*
X93853709Y-90451865D03*
X93853709Y-91101865D03*
X93853709Y-91751865D03*
X93853709Y-92401865D03*
X93853709Y-93051865D03*
G04 #@! TD*
D34*
G04 #@! TO.C,C17*
X88000000Y-83950000D03*
X88000000Y-82050000D03*
G04 #@! TD*
D35*
G04 #@! TO.C,C18*
X115683135Y-85291865D03*
X112733135Y-85291865D03*
G04 #@! TD*
D36*
G04 #@! TO.C,FB1*
X121787500Y-86000000D03*
X120212500Y-86000000D03*
G04 #@! TD*
D34*
G04 #@! TO.C,C11*
X92659200Y-83307000D03*
X92659200Y-81407000D03*
G04 #@! TD*
D29*
G04 #@! TO.C,C12*
X104270000Y-96250000D03*
X105230000Y-96250000D03*
G04 #@! TD*
D28*
G04 #@! TO.C,R22*
X90260000Y-96750000D03*
X89240000Y-96750000D03*
G04 #@! TD*
D37*
G04 #@! TO.C,D9*
X89500000Y-87250000D03*
X88800000Y-87250000D03*
G04 #@! TD*
D38*
G04 #@! TO.C,C6*
X120050000Y-87750000D03*
X121950000Y-87750000D03*
G04 #@! TD*
D30*
G04 #@! TO.C,R19*
X88240000Y-94250000D03*
X89260000Y-94250000D03*
G04 #@! TD*
D26*
G04 #@! TO.C,C29*
X86480000Y-93750000D03*
X85520000Y-93750000D03*
G04 #@! TD*
D39*
G04 #@! TO.C,SW1*
X125305993Y-90746504D03*
D19*
X127845993Y-90746504D03*
D39*
X130385993Y-90746504D03*
G04 #@! TD*
D29*
G04 #@! TO.C,C4*
X118020000Y-95000000D03*
X118980000Y-95000000D03*
G04 #@! TD*
D40*
G04 #@! TO.C,R25*
X86000000Y-82490000D03*
X86000000Y-83510000D03*
G04 #@! TD*
D28*
G04 #@! TO.C,R23*
X86010000Y-96500000D03*
X84990000Y-96500000D03*
G04 #@! TD*
D41*
G04 #@! TO.C,Q1*
X97687500Y-89753400D03*
X97687500Y-91653400D03*
X95812500Y-90703400D03*
G04 #@! TD*
D42*
G04 #@! TO.C,C10*
X95834200Y-93192600D03*
X95834200Y-95092600D03*
G04 #@! TD*
D43*
G04 #@! TO.C,D8*
X126899251Y-95707310D03*
X128774251Y-95707310D03*
G04 #@! TD*
D44*
G04 #@! TO.C,U1*
X117773000Y-91473000D03*
D45*
X117773000Y-91823000D03*
X117773000Y-92173000D03*
X117773000Y-92523000D03*
X117773000Y-92873000D03*
D46*
X117773000Y-93223000D03*
D47*
X117148000Y-93848000D03*
D48*
X116798000Y-93848000D03*
X116448000Y-93848000D03*
X116098000Y-93848000D03*
X115748000Y-93848000D03*
D49*
X115398000Y-93848000D03*
D50*
X114773000Y-93223000D03*
D45*
X114773000Y-92873000D03*
X114773000Y-92523000D03*
X114773000Y-92173000D03*
X114773000Y-91823000D03*
D51*
X114773000Y-91473000D03*
D52*
X115398000Y-90848000D03*
D48*
X115748000Y-90848000D03*
X116098000Y-90848000D03*
X116448000Y-90848000D03*
X116798000Y-90848000D03*
D53*
X117148000Y-90848000D03*
D18*
X116273000Y-92348000D03*
G04 #@! TD*
D29*
G04 #@! TO.C,C2*
X117994101Y-88004304D03*
X118954101Y-88004304D03*
G04 #@! TD*
D26*
G04 #@! TO.C,C3*
X117291130Y-87661423D03*
X116331130Y-87661423D03*
G04 #@! TD*
D54*
G04 #@! TO.C,U3*
X88475000Y-99900000D03*
X88475000Y-98950000D03*
X88475000Y-98000000D03*
X90750000Y-98000000D03*
X90750000Y-99900000D03*
G04 #@! TD*
D31*
G04 #@! TO.C,R5*
X95834200Y-86385400D03*
X95834200Y-88210400D03*
G04 #@! TD*
D55*
G04 #@! TO.C,D6*
X83250000Y-92750000D03*
X83250000Y-88750000D03*
G04 #@! TD*
D28*
G04 #@! TO.C,R21*
X87010000Y-98000000D03*
X85990000Y-98000000D03*
G04 #@! TD*
D29*
G04 #@! TO.C,C24*
X83770000Y-95000000D03*
X84730000Y-95000000D03*
G04 #@! TD*
D30*
G04 #@! TO.C,R20*
X92490000Y-99750000D03*
X93510000Y-99750000D03*
G04 #@! TD*
D56*
G04 #@! TO.C,C23*
X92500000Y-97770000D03*
X92500000Y-98730000D03*
G04 #@! TD*
D29*
G04 #@! TO.C,C25*
X88270000Y-95500000D03*
X89230000Y-95500000D03*
G04 #@! TD*
G04 #@! TO.C,C20*
X112520000Y-96000000D03*
X113480000Y-96000000D03*
G04 #@! TD*
%LPD*%
M02*
