%TF.GenerationSoftware,KiCad,Pcbnew,10.0.3*%
%TF.CreationDate,2026-06-08T18:35:06-07:00*%
%TF.ProjectId,scramble_hat,73637261-6d62-46c6-955f-6861742e6b69,rev?*%
%TF.SameCoordinates,Original*%
%TF.FileFunction,Legend,Bot*%
%TF.FilePolarity,Positive*%
%FSLAX46Y46*%
G04 Gerber Fmt 4.6, Leading zero omitted, Abs format (unit mm)*
G04 Created by KiCad (PCBNEW 10.0.3) date 2026-06-08 18:35:06*
%MOMM*%
%LPD*%
G01*
G04 APERTURE LIST*
%ADD10C,0.000000*%
%ADD11C,0.076850*%
%ADD12C,0.173180*%
%ADD13C,0.125000*%
%ADD14C,0.187500*%
%ADD15C,0.150000*%
%ADD16C,0.120000*%
G04 APERTURE END LIST*
D10*
G36*
X86031253Y-98690068D02*
G01*
X85985927Y-98690068D01*
X85985927Y-98811609D01*
X85967663Y-98811609D01*
X85967663Y-98690068D01*
X85922110Y-98690068D01*
X85922110Y-98673833D01*
X86031253Y-98673833D01*
X86031253Y-98690068D01*
G37*
G36*
X85830097Y-98769667D02*
G01*
X85832410Y-98776547D01*
X85834381Y-98782520D01*
X85836020Y-98787597D01*
X85837314Y-98791765D01*
X85844077Y-98771472D01*
X85876549Y-98673833D01*
X85904058Y-98673833D01*
X85904058Y-98811609D01*
X85886475Y-98811609D01*
X85886475Y-98694356D01*
X85846560Y-98811609D01*
X85830097Y-98811609D01*
X85790187Y-98696385D01*
X85790187Y-98811609D01*
X85772597Y-98811609D01*
X85772597Y-98673833D01*
X85797175Y-98673833D01*
X85830097Y-98769667D01*
G37*
D11*
X86578543Y-97441151D02*
X86545985Y-97443575D01*
X86513699Y-97447585D01*
X86481748Y-97453158D01*
X86450177Y-97460279D01*
X86419042Y-97468917D01*
X86388410Y-97479052D01*
X86358323Y-97490665D01*
X86328840Y-97503732D01*
X86300008Y-97518229D01*
X86271887Y-97534130D01*
X86244533Y-97551421D01*
X86217994Y-97570070D01*
X86192328Y-97590063D01*
X86167595Y-97611374D01*
X86143839Y-97633980D01*
X86121227Y-97657738D01*
X86099919Y-97682474D01*
X86079924Y-97708137D01*
X86061274Y-97734675D01*
X86043984Y-97762029D01*
X86028081Y-97790154D01*
X86013587Y-97818982D01*
X86000525Y-97848466D01*
X85988909Y-97878555D01*
X85978773Y-97909190D01*
X85970134Y-97940323D01*
X85963012Y-97971888D01*
X85957442Y-98003843D01*
X85953427Y-98036127D01*
X85951009Y-98068690D01*
X85950193Y-98101471D01*
X85951054Y-98135495D01*
X85953609Y-98169069D01*
X85957811Y-98202155D01*
X85963628Y-98234712D01*
X85971009Y-98266699D01*
X85979923Y-98298074D01*
X85990312Y-98328791D01*
X86002149Y-98358815D01*
X86015391Y-98388102D01*
X86029990Y-98416610D01*
X86045912Y-98444288D01*
X86063108Y-98471116D01*
X86081542Y-98497037D01*
X86101169Y-98522010D01*
X86121947Y-98546001D01*
X86143839Y-98568962D01*
X86166797Y-98590852D01*
X86190785Y-98611635D01*
X86215761Y-98631260D01*
X86241683Y-98649692D01*
X86268511Y-98666888D01*
X86296192Y-98682809D01*
X86324697Y-98697411D01*
X86353988Y-98710651D01*
X86384007Y-98722486D01*
X86414730Y-98732881D01*
X86446104Y-98741791D01*
X86478088Y-98749171D01*
X86510643Y-98754985D01*
X86543734Y-98759192D01*
X86577302Y-98761743D01*
X86611328Y-98762606D01*
X91544935Y-98762606D01*
X91578955Y-98761743D01*
X91612525Y-98759192D01*
X91645613Y-98754985D01*
X91678173Y-98749171D01*
X91710159Y-98741791D01*
X91741530Y-98732881D01*
X91772250Y-98722486D01*
X91802271Y-98710651D01*
X91831559Y-98697411D01*
X91860063Y-98682809D01*
X91887753Y-98666888D01*
X91914579Y-98649692D01*
X91940500Y-98631260D01*
X91965471Y-98611635D01*
X91989460Y-98590852D01*
X92012422Y-98568962D01*
X92034313Y-98546001D01*
X92055090Y-98522010D01*
X92074719Y-98497037D01*
X92093152Y-98471116D01*
X92110347Y-98444288D01*
X92126269Y-98416610D01*
X92140867Y-98388102D01*
X92154104Y-98358815D01*
X92165945Y-98328791D01*
X92176339Y-98298074D01*
X92185250Y-98266699D01*
X92192629Y-98234712D01*
X92198442Y-98202155D01*
X92202646Y-98169069D01*
X92205204Y-98135495D01*
X92206063Y-98101471D01*
X92205204Y-98067452D01*
X92202646Y-98033875D01*
X92198442Y-98000787D01*
X92192629Y-97968233D01*
X92185250Y-97936246D01*
X92176339Y-97904872D01*
X92165945Y-97874153D01*
X92154104Y-97844129D01*
X92140867Y-97814842D01*
X92126269Y-97786340D01*
X92110347Y-97758650D01*
X92093152Y-97731826D01*
X92074719Y-97705907D01*
X92055090Y-97680933D01*
X92034313Y-97656939D01*
X92012422Y-97633980D01*
X91989460Y-97612088D01*
X91965471Y-97591309D01*
X91940500Y-97571682D01*
X91914579Y-97553248D01*
X91887753Y-97536056D01*
X91860063Y-97520136D01*
X91831559Y-97505537D01*
X91802271Y-97492297D01*
X91772250Y-97480454D01*
X91741530Y-97470062D01*
X91710159Y-97461156D01*
X91678173Y-97453770D01*
X91645613Y-97447959D01*
X91612525Y-97443756D01*
X91578955Y-97441201D01*
X91544935Y-97440339D01*
X86611328Y-97440339D01*
X86578543Y-97441151D01*
D12*
X86578543Y-97441151D02*
X86545985Y-97443575D01*
X86513699Y-97447585D01*
X86481748Y-97453158D01*
X86450177Y-97460279D01*
X86419042Y-97468917D01*
X86388410Y-97479052D01*
X86358323Y-97490665D01*
X86328840Y-97503732D01*
X86300008Y-97518229D01*
X86271887Y-97534130D01*
X86244533Y-97551421D01*
X86217994Y-97570070D01*
X86192328Y-97590063D01*
X86167595Y-97611374D01*
X86143839Y-97633980D01*
X86121227Y-97657738D01*
X86099919Y-97682474D01*
X86079924Y-97708137D01*
X86061274Y-97734675D01*
X86043984Y-97762029D01*
X86028081Y-97790154D01*
X86013587Y-97818982D01*
X86000525Y-97848466D01*
X85988909Y-97878555D01*
X85978773Y-97909190D01*
X85970134Y-97940323D01*
X85963012Y-97971888D01*
X85957442Y-98003843D01*
X85953427Y-98036127D01*
X85951009Y-98068690D01*
X85950193Y-98101471D01*
X85951054Y-98135495D01*
X85953609Y-98169069D01*
X85957811Y-98202155D01*
X85963628Y-98234712D01*
X85971009Y-98266699D01*
X85979923Y-98298074D01*
X85990312Y-98328791D01*
X86002149Y-98358815D01*
X86015391Y-98388102D01*
X86029990Y-98416610D01*
X86045912Y-98444288D01*
X86063108Y-98471116D01*
X86081542Y-98497037D01*
X86101169Y-98522010D01*
X86121947Y-98546001D01*
X86143839Y-98568962D01*
X86166797Y-98590852D01*
X86190785Y-98611635D01*
X86215761Y-98631260D01*
X86241683Y-98649692D01*
X86268511Y-98666888D01*
X86296192Y-98682809D01*
X86324697Y-98697411D01*
X86353988Y-98710651D01*
X86384007Y-98722486D01*
X86414730Y-98732881D01*
X86446104Y-98741791D01*
X86478088Y-98749171D01*
X86510643Y-98754985D01*
X86543734Y-98759192D01*
X86577302Y-98761743D01*
X86611328Y-98762606D01*
X91544935Y-98762606D01*
X91578955Y-98761743D01*
X91612525Y-98759192D01*
X91645613Y-98754985D01*
X91678173Y-98749171D01*
X91710159Y-98741791D01*
X91741530Y-98732881D01*
X91772250Y-98722486D01*
X91802271Y-98710651D01*
X91831559Y-98697411D01*
X91860063Y-98682809D01*
X91887753Y-98666888D01*
X91914579Y-98649692D01*
X91940500Y-98631260D01*
X91965471Y-98611635D01*
X91989460Y-98590852D01*
X92012422Y-98568962D01*
X92034313Y-98546001D01*
X92055090Y-98522010D01*
X92074719Y-98497037D01*
X92093152Y-98471116D01*
X92110347Y-98444288D01*
X92126269Y-98416610D01*
X92140867Y-98388102D01*
X92154104Y-98358815D01*
X92165945Y-98328791D01*
X92176339Y-98298074D01*
X92185250Y-98266699D01*
X92192629Y-98234712D01*
X92198442Y-98202155D01*
X92202646Y-98169069D01*
X92205204Y-98135495D01*
X92206063Y-98101471D01*
X92205204Y-98067452D01*
X92202646Y-98033875D01*
X92198442Y-98000787D01*
X92192629Y-97968233D01*
X92185250Y-97936246D01*
X92176339Y-97904872D01*
X92165945Y-97874153D01*
X92154104Y-97844129D01*
X92140867Y-97814842D01*
X92126269Y-97786340D01*
X92110347Y-97758650D01*
X92093152Y-97731826D01*
X92074719Y-97705907D01*
X92055090Y-97680933D01*
X92034313Y-97656939D01*
X92012422Y-97633980D01*
X91989460Y-97612088D01*
X91965471Y-97591309D01*
X91940500Y-97571682D01*
X91914579Y-97553248D01*
X91887753Y-97536056D01*
X91860063Y-97520136D01*
X91831559Y-97505537D01*
X91802271Y-97492297D01*
X91772250Y-97480454D01*
X91741530Y-97470062D01*
X91710159Y-97461156D01*
X91678173Y-97453770D01*
X91645613Y-97447959D01*
X91612525Y-97443756D01*
X91578955Y-97441201D01*
X91544935Y-97440339D01*
X86611328Y-97440339D01*
X86578543Y-97441151D01*
D10*
G36*
X87389481Y-97758102D02*
G01*
X87393926Y-97758328D01*
X87398232Y-97758713D01*
X87402401Y-97759249D01*
X87406432Y-97759940D01*
X87410331Y-97760779D01*
X87414086Y-97761781D01*
X87417704Y-97762929D01*
X87421186Y-97764229D01*
X87424537Y-97765686D01*
X87427741Y-97767298D01*
X87430814Y-97769054D01*
X87433749Y-97770977D01*
X87436541Y-97773043D01*
X87439199Y-97775268D01*
X87441723Y-97777640D01*
X87444095Y-97780166D01*
X87446318Y-97782839D01*
X87448389Y-97785656D01*
X87450307Y-97788617D01*
X87452062Y-97791728D01*
X87453677Y-97794987D01*
X87455133Y-97798390D01*
X87456437Y-97801940D01*
X87457586Y-97805634D01*
X87458579Y-97809473D01*
X87459422Y-97813464D01*
X87460113Y-97817595D01*
X87460650Y-97821878D01*
X87461033Y-97826303D01*
X87461260Y-97830878D01*
X87461339Y-97835594D01*
X87461339Y-98374302D01*
X87461260Y-98378782D01*
X87461026Y-98383136D01*
X87460633Y-98387368D01*
X87460082Y-98391483D01*
X87459382Y-98395476D01*
X87458518Y-98399343D01*
X87457498Y-98403091D01*
X87456324Y-98406719D01*
X87454993Y-98410223D01*
X87453502Y-98413606D01*
X87451852Y-98416868D01*
X87450049Y-98420009D01*
X87448088Y-98423025D01*
X87445974Y-98425923D01*
X87443702Y-98428697D01*
X87441268Y-98431354D01*
X87438697Y-98433841D01*
X87435983Y-98436164D01*
X87433134Y-98438326D01*
X87430150Y-98440332D01*
X87427032Y-98442176D01*
X87423779Y-98443859D01*
X87420384Y-98445381D01*
X87416859Y-98446745D01*
X87413199Y-98447948D01*
X87409401Y-98448990D01*
X87405469Y-98449869D01*
X87401399Y-98450591D01*
X87397195Y-98451151D01*
X87392856Y-98451554D01*
X87388380Y-98451796D01*
X87383769Y-98451876D01*
X87046200Y-98451876D01*
X87042341Y-98451809D01*
X87038588Y-98451612D01*
X87034949Y-98451284D01*
X87031418Y-98450832D01*
X87027998Y-98450243D01*
X87024696Y-98449528D01*
X87021496Y-98448681D01*
X87018410Y-98447700D01*
X87015435Y-98446593D01*
X87012572Y-98445356D01*
X87009821Y-98443986D01*
X87007176Y-98442487D01*
X87004646Y-98440857D01*
X87002226Y-98439102D01*
X86999917Y-98437209D01*
X86997717Y-98435186D01*
X86995646Y-98433044D01*
X86993704Y-98430789D01*
X86991898Y-98428415D01*
X86990220Y-98425925D01*
X86988681Y-98423327D01*
X86987275Y-98420613D01*
X86986007Y-98417782D01*
X86984871Y-98414832D01*
X86983860Y-98411780D01*
X86982990Y-98408602D01*
X86982255Y-98405314D01*
X86981654Y-98401913D01*
X86981188Y-98398395D01*
X86980852Y-98394763D01*
X86980649Y-98391016D01*
X86980584Y-98387156D01*
X86980649Y-98383406D01*
X86980852Y-98379764D01*
X86981188Y-98376228D01*
X86981654Y-98372793D01*
X86982255Y-98369472D01*
X86982990Y-98366259D01*
X86983860Y-98363152D01*
X86984871Y-98360154D01*
X86986007Y-98357259D01*
X86987275Y-98354479D01*
X86988681Y-98351800D01*
X86990220Y-98349230D01*
X86991898Y-98346768D01*
X86993704Y-98344415D01*
X86995646Y-98342168D01*
X86997717Y-98340028D01*
X86999917Y-98338010D01*
X87002226Y-98336118D01*
X87004646Y-98334355D01*
X87007176Y-98332730D01*
X87009821Y-98331227D01*
X87012572Y-98329857D01*
X87015435Y-98328621D01*
X87018410Y-98327511D01*
X87021496Y-98326536D01*
X87024696Y-98325687D01*
X87027998Y-98324973D01*
X87031418Y-98324384D01*
X87034949Y-98323924D01*
X87038588Y-98323600D01*
X87042341Y-98323405D01*
X87046200Y-98323342D01*
X87309129Y-98323342D01*
X87309129Y-97835594D01*
X87309209Y-97830878D01*
X87309440Y-97826303D01*
X87309829Y-97821878D01*
X87310372Y-97817595D01*
X87311065Y-97813464D01*
X87311922Y-97809473D01*
X87312927Y-97805634D01*
X87314091Y-97801940D01*
X87315406Y-97798390D01*
X87316877Y-97794987D01*
X87318509Y-97791728D01*
X87320295Y-97788617D01*
X87322228Y-97785656D01*
X87324323Y-97782839D01*
X87326570Y-97780166D01*
X87328975Y-97777640D01*
X87331492Y-97775268D01*
X87334136Y-97773043D01*
X87336919Y-97770977D01*
X87339828Y-97769054D01*
X87342863Y-97767298D01*
X87346035Y-97765686D01*
X87349333Y-97764229D01*
X87352765Y-97762929D01*
X87356323Y-97761781D01*
X87360014Y-97760779D01*
X87363836Y-97759940D01*
X87367787Y-97759249D01*
X87371870Y-97758713D01*
X87376081Y-97758328D01*
X87380422Y-97758102D01*
X87384896Y-97758026D01*
X87389481Y-97758102D01*
G37*
G36*
X89780349Y-98365506D02*
G01*
X89781865Y-98368814D01*
X89783240Y-98372081D01*
X89784492Y-98375311D01*
X89785607Y-98378502D01*
X89786589Y-98381654D01*
X89787441Y-98384768D01*
X89788163Y-98387843D01*
X89788749Y-98390877D01*
X89789208Y-98393877D01*
X89789528Y-98396831D01*
X89789718Y-98399748D01*
X89789779Y-98402631D01*
X89789708Y-98405474D01*
X89789499Y-98408277D01*
X89789166Y-98411041D01*
X89788694Y-98413764D01*
X89788082Y-98416409D01*
X89787368Y-98418986D01*
X89786556Y-98421500D01*
X89785648Y-98423939D01*
X89784642Y-98426316D01*
X89783536Y-98428627D01*
X89782330Y-98430866D01*
X89781029Y-98433044D01*
X89779619Y-98435156D01*
X89778124Y-98437195D01*
X89776523Y-98439169D01*
X89774830Y-98441073D01*
X89773028Y-98442920D01*
X89771133Y-98444692D01*
X89769139Y-98446402D01*
X89767046Y-98448038D01*
X89764863Y-98449569D01*
X89762595Y-98450999D01*
X89760256Y-98452329D01*
X89757828Y-98453565D01*
X89755324Y-98454697D01*
X89752734Y-98455734D01*
X89750066Y-98456675D01*
X89747313Y-98457515D01*
X89744483Y-98458253D01*
X89741572Y-98458892D01*
X89738575Y-98459438D01*
X89735503Y-98459879D01*
X89732352Y-98460224D01*
X89729115Y-98460472D01*
X89725797Y-98460620D01*
X89722400Y-98460666D01*
X89718540Y-98460605D01*
X89714797Y-98460433D01*
X89711173Y-98460139D01*
X89707668Y-98459724D01*
X89704283Y-98459193D01*
X89701013Y-98458544D01*
X89697861Y-98457776D01*
X89694833Y-98456889D01*
X89691917Y-98455888D01*
X89689117Y-98454765D01*
X89686438Y-98453529D01*
X89683881Y-98452171D01*
X89681440Y-98450693D01*
X89679114Y-98449104D01*
X89676907Y-98447388D01*
X89674813Y-98445561D01*
X89672798Y-98443567D01*
X89670781Y-98441429D01*
X89668785Y-98439144D01*
X89666802Y-98436707D01*
X89664823Y-98434127D01*
X89662864Y-98431394D01*
X89660916Y-98428515D01*
X89658976Y-98425494D01*
X89657052Y-98422315D01*
X89655139Y-98418993D01*
X89653242Y-98415524D01*
X89651353Y-98411904D01*
X89647615Y-98404222D01*
X89643926Y-98395949D01*
X89603888Y-98301696D01*
X89280277Y-98301696D01*
X89239612Y-98395949D01*
X89237876Y-98400054D01*
X89236105Y-98404021D01*
X89234305Y-98407846D01*
X89232465Y-98411537D01*
X89230598Y-98415095D01*
X89228694Y-98418505D01*
X89226758Y-98421786D01*
X89224783Y-98424924D01*
X89222780Y-98427933D01*
X89220742Y-98430799D01*
X89218672Y-98433522D01*
X89216570Y-98436117D01*
X89214430Y-98438575D01*
X89212261Y-98440888D01*
X89210053Y-98443066D01*
X89207816Y-98445107D01*
X89205474Y-98446992D01*
X89203013Y-98448753D01*
X89200434Y-98450395D01*
X89197743Y-98451914D01*
X89194925Y-98453314D01*
X89191994Y-98454589D01*
X89188941Y-98455745D01*
X89185777Y-98456776D01*
X89182486Y-98457692D01*
X89179084Y-98458484D01*
X89175560Y-98459148D01*
X89171924Y-98459697D01*
X89168161Y-98460123D01*
X89164286Y-98460425D01*
X89160289Y-98460605D01*
X89156182Y-98460666D01*
X89152892Y-98460620D01*
X89149680Y-98460478D01*
X89146548Y-98460241D01*
X89143494Y-98459905D01*
X89140519Y-98459480D01*
X89137619Y-98458958D01*
X89134795Y-98458336D01*
X89132051Y-98457626D01*
X89129385Y-98456815D01*
X89126796Y-98455909D01*
X89124281Y-98454913D01*
X89121847Y-98453817D01*
X89119489Y-98452630D01*
X89117212Y-98451346D01*
X89115010Y-98449966D01*
X89112882Y-98448492D01*
X89110851Y-98446905D01*
X89108920Y-98445240D01*
X89107091Y-98443509D01*
X89105373Y-98441698D01*
X89103753Y-98439815D01*
X89102238Y-98437856D01*
X89100828Y-98435828D01*
X89099522Y-98433719D01*
X89098318Y-98431540D01*
X89097225Y-98429289D01*
X89096225Y-98426960D01*
X89095340Y-98424560D01*
X89094551Y-98422084D01*
X89093870Y-98419534D01*
X89093289Y-98416916D01*
X89092812Y-98414218D01*
X89092456Y-98411437D01*
X89092221Y-98408620D01*
X89092117Y-98405771D01*
X89092140Y-98402882D01*
X89092289Y-98399961D01*
X89092559Y-98397008D01*
X89092961Y-98394018D01*
X89093491Y-98390989D01*
X89094146Y-98387929D01*
X89094929Y-98384831D01*
X89095835Y-98381700D01*
X89096876Y-98378530D01*
X89098037Y-98375328D01*
X89099325Y-98372091D01*
X89100745Y-98368815D01*
X89102286Y-98365506D01*
X89186135Y-98183085D01*
X89331262Y-98183085D01*
X89553292Y-98183085D01*
X89443686Y-97921958D01*
X89441655Y-97921958D01*
X89331262Y-98183085D01*
X89186135Y-98183085D01*
X89355290Y-97815074D01*
X89357177Y-97810977D01*
X89359117Y-97807016D01*
X89361112Y-97803202D01*
X89363157Y-97799529D01*
X89365254Y-97796000D01*
X89367402Y-97792611D01*
X89369611Y-97789369D01*
X89371862Y-97786266D01*
X89374174Y-97783309D01*
X89376538Y-97780494D01*
X89378950Y-97777819D01*
X89381422Y-97775288D01*
X89383944Y-97772901D01*
X89386521Y-97770651D01*
X89389139Y-97768554D01*
X89391824Y-97766594D01*
X89394527Y-97764734D01*
X89397285Y-97763000D01*
X89400099Y-97761383D01*
X89402967Y-97759884D01*
X89405892Y-97758508D01*
X89408868Y-97757246D01*
X89411904Y-97756110D01*
X89414991Y-97755091D01*
X89418135Y-97754195D01*
X89421331Y-97753416D01*
X89424580Y-97752756D01*
X89427884Y-97752218D01*
X89431249Y-97751796D01*
X89434659Y-97751497D01*
X89438132Y-97751319D01*
X89441655Y-97751260D01*
X89445210Y-97751319D01*
X89448704Y-97751497D01*
X89452148Y-97751796D01*
X89455540Y-97752218D01*
X89458869Y-97752756D01*
X89462150Y-97753416D01*
X89465375Y-97754195D01*
X89468548Y-97755091D01*
X89471661Y-97756110D01*
X89474722Y-97757246D01*
X89477729Y-97758508D01*
X89480681Y-97759884D01*
X89483579Y-97761383D01*
X89486425Y-97763000D01*
X89489210Y-97764734D01*
X89491944Y-97766594D01*
X89494595Y-97768554D01*
X89497206Y-97770651D01*
X89499780Y-97772901D01*
X89502298Y-97775288D01*
X89504779Y-97777819D01*
X89507215Y-97780494D01*
X89509605Y-97783309D01*
X89511954Y-97786266D01*
X89514258Y-97789369D01*
X89516517Y-97792611D01*
X89518732Y-97796000D01*
X89520902Y-97799529D01*
X89523032Y-97803202D01*
X89525115Y-97807016D01*
X89527154Y-97810977D01*
X89529149Y-97815074D01*
X89697093Y-98183085D01*
X89780349Y-98365506D01*
G37*
G36*
X86824143Y-97760135D02*
G01*
X86828730Y-97760376D01*
X86833179Y-97760779D01*
X86837488Y-97761348D01*
X86841665Y-97762081D01*
X86845702Y-97762972D01*
X86849599Y-97764026D01*
X86853359Y-97765241D01*
X86856984Y-97766616D01*
X86860469Y-97768159D01*
X86863816Y-97769860D01*
X86867030Y-97771721D01*
X86870106Y-97773749D01*
X86873039Y-97775937D01*
X86875840Y-97778287D01*
X86878503Y-97780799D01*
X86880985Y-97783432D01*
X86883308Y-97786201D01*
X86885472Y-97789114D01*
X86887478Y-97792158D01*
X86889325Y-97795342D01*
X86891007Y-97798660D01*
X86892532Y-97802121D01*
X86893894Y-97805718D01*
X86895093Y-97809446D01*
X86896139Y-97813319D01*
X86897020Y-97817324D01*
X86897738Y-97821473D01*
X86898299Y-97825757D01*
X86898701Y-97830174D01*
X86898941Y-97834731D01*
X86899024Y-97839429D01*
X86899024Y-98372276D01*
X86898941Y-98376995D01*
X86898701Y-98381581D01*
X86898299Y-98386030D01*
X86897738Y-98390342D01*
X86897020Y-98394513D01*
X86896139Y-98398552D01*
X86895093Y-98402449D01*
X86893894Y-98406212D01*
X86892532Y-98409834D01*
X86891007Y-98413320D01*
X86889325Y-98416673D01*
X86887478Y-98419885D01*
X86885472Y-98422956D01*
X86883308Y-98425893D01*
X86880985Y-98428693D01*
X86878503Y-98431354D01*
X86875840Y-98433841D01*
X86873039Y-98436164D01*
X86870106Y-98438326D01*
X86867030Y-98440332D01*
X86863816Y-98442176D01*
X86860469Y-98443859D01*
X86856984Y-98445381D01*
X86853359Y-98446745D01*
X86849599Y-98447948D01*
X86845702Y-98448990D01*
X86841665Y-98449869D01*
X86837488Y-98450591D01*
X86833179Y-98451151D01*
X86828730Y-98451554D01*
X86824143Y-98451796D01*
X86819418Y-98451876D01*
X86477121Y-98451876D01*
X86473487Y-98451813D01*
X86469963Y-98451638D01*
X86466552Y-98451344D01*
X86463254Y-98450932D01*
X86460065Y-98450396D01*
X86456993Y-98449746D01*
X86454034Y-98448983D01*
X86451188Y-98448095D01*
X86448454Y-98447091D01*
X86445831Y-98445973D01*
X86443323Y-98444731D01*
X86440930Y-98443378D01*
X86438648Y-98441900D01*
X86436473Y-98440305D01*
X86434415Y-98438594D01*
X86432476Y-98436763D01*
X86430618Y-98434796D01*
X86428880Y-98432714D01*
X86427262Y-98430529D01*
X86425760Y-98428224D01*
X86424383Y-98425818D01*
X86423126Y-98423298D01*
X86421990Y-98420671D01*
X86420973Y-98417932D01*
X86420073Y-98415095D01*
X86419294Y-98412140D01*
X86418635Y-98409073D01*
X86418097Y-98405901D01*
X86417676Y-98402620D01*
X86417378Y-98399229D01*
X86417198Y-98395731D01*
X86417136Y-98392115D01*
X86417198Y-98388591D01*
X86417378Y-98385173D01*
X86417676Y-98381854D01*
X86418097Y-98378645D01*
X86418635Y-98375538D01*
X86419294Y-98372545D01*
X86420073Y-98369646D01*
X86420973Y-98366861D01*
X86421990Y-98364181D01*
X86423126Y-98361607D01*
X86424383Y-98359137D01*
X86425760Y-98356772D01*
X86427262Y-98354514D01*
X86428880Y-98352359D01*
X86430618Y-98350314D01*
X86432476Y-98348373D01*
X86434415Y-98346516D01*
X86436473Y-98344777D01*
X86438648Y-98343161D01*
X86440930Y-98341662D01*
X86443323Y-98340286D01*
X86445831Y-98339027D01*
X86448454Y-98337887D01*
X86451188Y-98336872D01*
X86454034Y-98335970D01*
X86456993Y-98335196D01*
X86460065Y-98334536D01*
X86463254Y-98333998D01*
X86466552Y-98333574D01*
X86469963Y-98333278D01*
X86473487Y-98333098D01*
X86477121Y-98333036D01*
X86753802Y-98333036D01*
X86753802Y-98160307D01*
X86499670Y-98160307D01*
X86495926Y-98160250D01*
X86492302Y-98160074D01*
X86488791Y-98159775D01*
X86485408Y-98159364D01*
X86482144Y-98158832D01*
X86478993Y-98158180D01*
X86475971Y-98157411D01*
X86473064Y-98156530D01*
X86470269Y-98155529D01*
X86467612Y-98154406D01*
X86465057Y-98153169D01*
X86462634Y-98151809D01*
X86460324Y-98150334D01*
X86458135Y-98148739D01*
X86456065Y-98147029D01*
X86454118Y-98145199D01*
X86452263Y-98143255D01*
X86450524Y-98141196D01*
X86448906Y-98139029D01*
X86447411Y-98136747D01*
X86446031Y-98134346D01*
X86444778Y-98131841D01*
X86443635Y-98129215D01*
X86442619Y-98126483D01*
X86441721Y-98123638D01*
X86440946Y-98120677D01*
X86440279Y-98117603D01*
X86439744Y-98114422D01*
X86439325Y-98111121D01*
X86439021Y-98107707D01*
X86438843Y-98104191D01*
X86438785Y-98100554D01*
X86438843Y-98096913D01*
X86439021Y-98093395D01*
X86439325Y-98089982D01*
X86439744Y-98086685D01*
X86440279Y-98083501D01*
X86440946Y-98080427D01*
X86441721Y-98077467D01*
X86442619Y-98074622D01*
X86443635Y-98071885D01*
X86444778Y-98069260D01*
X86446031Y-98066755D01*
X86447411Y-98064361D01*
X86448906Y-98062076D01*
X86450524Y-98059905D01*
X86452263Y-98057851D01*
X86454118Y-98055905D01*
X86456065Y-98054074D01*
X86458135Y-98052359D01*
X86460324Y-98050769D01*
X86462634Y-98049294D01*
X86465057Y-98047936D01*
X86467612Y-98046700D01*
X86470269Y-98045578D01*
X86473064Y-98044574D01*
X86475971Y-98043688D01*
X86478993Y-98042920D01*
X86482144Y-98042272D01*
X86485408Y-98041739D01*
X86488791Y-98041327D01*
X86492302Y-98041031D01*
X86495926Y-98040855D01*
X86499670Y-98040794D01*
X86753802Y-98040794D01*
X86753802Y-97878663D01*
X86477121Y-97878663D01*
X86473487Y-97878607D01*
X86469963Y-97878431D01*
X86466552Y-97878127D01*
X86463254Y-97877718D01*
X86460065Y-97877186D01*
X86456993Y-97876541D01*
X86454034Y-97875774D01*
X86451188Y-97874887D01*
X86448454Y-97873883D01*
X86445831Y-97872762D01*
X86443323Y-97871522D01*
X86440930Y-97870164D01*
X86438648Y-97868692D01*
X86436473Y-97867102D01*
X86434415Y-97865387D01*
X86432476Y-97863555D01*
X86430618Y-97861612D01*
X86428880Y-97859553D01*
X86427262Y-97857384D01*
X86425760Y-97855095D01*
X86424383Y-97852703D01*
X86423126Y-97850195D01*
X86421990Y-97847574D01*
X86420973Y-97844837D01*
X86420073Y-97841996D01*
X86419294Y-97839033D01*
X86418635Y-97835963D01*
X86418097Y-97832776D01*
X86417676Y-97829476D01*
X86417378Y-97826068D01*
X86417198Y-97822546D01*
X86417136Y-97818909D01*
X86417198Y-97815404D01*
X86417378Y-97812011D01*
X86417676Y-97808723D01*
X86418097Y-97805531D01*
X86418635Y-97802447D01*
X86419294Y-97799468D01*
X86420073Y-97796592D01*
X86420973Y-97793819D01*
X86421990Y-97791152D01*
X86423126Y-97788587D01*
X86424383Y-97786128D01*
X86425760Y-97783773D01*
X86427262Y-97781518D01*
X86428880Y-97779371D01*
X86430618Y-97777327D01*
X86432476Y-97775385D01*
X86434415Y-97773532D01*
X86436473Y-97771791D01*
X86438648Y-97770178D01*
X86440930Y-97768679D01*
X86443323Y-97767303D01*
X86445831Y-97766045D01*
X86448454Y-97764903D01*
X86451188Y-97763888D01*
X86454034Y-97762991D01*
X86456993Y-97762211D01*
X86460065Y-97761553D01*
X86463254Y-97761011D01*
X86466552Y-97760591D01*
X86469963Y-97760294D01*
X86473487Y-97760114D01*
X86477121Y-97760054D01*
X86819418Y-97760054D01*
X86824143Y-97760135D01*
G37*
G36*
X88933659Y-97751332D02*
G01*
X88937666Y-97751551D01*
X88941558Y-97751916D01*
X88945344Y-97752428D01*
X88949014Y-97753085D01*
X88952574Y-97753891D01*
X88956026Y-97754843D01*
X88959365Y-97755936D01*
X88962587Y-97757181D01*
X88965708Y-97758569D01*
X88968717Y-97760105D01*
X88971608Y-97761785D01*
X88974398Y-97763614D01*
X88977068Y-97765586D01*
X88979629Y-97767710D01*
X88982085Y-97769975D01*
X88984373Y-97772342D01*
X88986520Y-97774830D01*
X88988520Y-97777432D01*
X88990371Y-97780151D01*
X88992070Y-97782982D01*
X88993625Y-97785935D01*
X88995031Y-97789003D01*
X88996291Y-97792185D01*
X88997401Y-97795485D01*
X88998362Y-97798905D01*
X88999175Y-97802435D01*
X88999837Y-97806084D01*
X89000356Y-97809850D01*
X89000730Y-97813728D01*
X89000949Y-97817727D01*
X89001023Y-97821840D01*
X89001023Y-98390089D01*
X89000955Y-98394201D01*
X89000745Y-98398201D01*
X89000404Y-98402087D01*
X88999925Y-98405859D01*
X88999306Y-98409514D01*
X88998551Y-98413056D01*
X88997656Y-98416485D01*
X88996628Y-98419796D01*
X88995457Y-98422995D01*
X88994152Y-98426079D01*
X88992709Y-98429049D01*
X88991131Y-98431906D01*
X88989413Y-98434644D01*
X88987558Y-98437271D01*
X88985565Y-98439778D01*
X88983438Y-98442179D01*
X88981176Y-98444414D01*
X88978793Y-98446510D01*
X88976285Y-98448461D01*
X88973656Y-98450270D01*
X88970904Y-98451928D01*
X88968020Y-98453445D01*
X88965024Y-98454816D01*
X88961903Y-98456045D01*
X88958656Y-98457130D01*
X88955283Y-98458063D01*
X88951787Y-98458864D01*
X88948175Y-98459512D01*
X88944433Y-98460021D01*
X88940574Y-98460379D01*
X88936584Y-98460598D01*
X88932471Y-98460666D01*
X88928229Y-98460598D01*
X88924119Y-98460379D01*
X88920146Y-98460021D01*
X88916308Y-98459512D01*
X88912607Y-98458864D01*
X88909039Y-98458063D01*
X88905606Y-98457130D01*
X88902315Y-98456045D01*
X88899156Y-98454816D01*
X88896128Y-98453445D01*
X88893239Y-98451928D01*
X88890491Y-98450270D01*
X88887872Y-98448461D01*
X88885390Y-98446510D01*
X88883043Y-98444414D01*
X88880832Y-98442179D01*
X88878760Y-98439778D01*
X88876819Y-98437271D01*
X88875013Y-98434644D01*
X88873338Y-98431906D01*
X88871798Y-98429049D01*
X88870395Y-98426079D01*
X88869118Y-98422995D01*
X88867982Y-98419796D01*
X88866974Y-98416485D01*
X88866109Y-98413056D01*
X88865372Y-98409514D01*
X88864770Y-98405859D01*
X88864301Y-98402087D01*
X88863964Y-98398201D01*
X88863760Y-98394201D01*
X88863698Y-98390089D01*
X88863698Y-98033291D01*
X88702696Y-98319282D01*
X88701329Y-98321480D01*
X88699944Y-98323611D01*
X88698539Y-98325685D01*
X88697113Y-98327698D01*
X88695666Y-98329644D01*
X88694194Y-98331531D01*
X88692708Y-98333357D01*
X88691190Y-98335126D01*
X88689662Y-98336825D01*
X88688106Y-98338467D01*
X88686532Y-98340050D01*
X88684935Y-98341561D01*
X88683318Y-98343021D01*
X88681681Y-98344415D01*
X88680019Y-98345746D01*
X88678341Y-98347019D01*
X88676587Y-98348191D01*
X88674777Y-98349290D01*
X88672904Y-98350314D01*
X88670968Y-98351258D01*
X88668968Y-98352134D01*
X88666913Y-98352927D01*
X88664797Y-98353648D01*
X88662615Y-98354292D01*
X88660366Y-98354859D01*
X88658063Y-98355352D01*
X88655696Y-98355767D01*
X88653269Y-98356110D01*
X88650776Y-98356374D01*
X88648223Y-98356564D01*
X88645614Y-98356677D01*
X88642938Y-98356714D01*
X88640264Y-98356681D01*
X88637660Y-98356570D01*
X88635120Y-98356392D01*
X88632649Y-98356138D01*
X88630246Y-98355811D01*
X88627910Y-98355418D01*
X88625637Y-98354947D01*
X88623430Y-98354403D01*
X88621294Y-98353789D01*
X88619225Y-98353105D01*
X88617221Y-98352348D01*
X88615286Y-98351513D01*
X88613416Y-98350609D01*
X88611615Y-98349635D01*
X88609883Y-98348589D01*
X88608209Y-98347471D01*
X88606551Y-98346252D01*
X88604907Y-98344957D01*
X88603270Y-98343593D01*
X88601643Y-98342156D01*
X88600029Y-98340646D01*
X88598421Y-98339069D01*
X88596828Y-98337412D01*
X88595246Y-98335690D01*
X88593672Y-98333892D01*
X88592110Y-98332019D01*
X88590555Y-98330077D01*
X88589018Y-98328061D01*
X88587484Y-98325976D01*
X88585964Y-98323817D01*
X88584452Y-98321588D01*
X88582954Y-98319282D01*
X88422179Y-98031313D01*
X88422179Y-98390089D01*
X88422109Y-98394201D01*
X88421892Y-98398201D01*
X88421542Y-98402087D01*
X88421051Y-98405859D01*
X88420416Y-98409514D01*
X88419641Y-98413056D01*
X88418726Y-98416485D01*
X88417668Y-98419796D01*
X88416467Y-98422995D01*
X88415129Y-98426079D01*
X88413651Y-98429049D01*
X88412030Y-98431906D01*
X88410270Y-98434644D01*
X88408364Y-98437271D01*
X88406321Y-98439778D01*
X88404134Y-98442179D01*
X88401795Y-98444414D01*
X88399334Y-98446510D01*
X88396759Y-98448461D01*
X88394059Y-98450270D01*
X88391246Y-98451928D01*
X88388314Y-98453445D01*
X88385262Y-98454816D01*
X88382096Y-98456045D01*
X88378808Y-98457130D01*
X88375404Y-98458063D01*
X88371882Y-98458864D01*
X88368239Y-98459512D01*
X88364481Y-98460021D01*
X88360603Y-98460379D01*
X88356614Y-98460598D01*
X88352498Y-98460666D01*
X88348391Y-98460598D01*
X88344399Y-98460379D01*
X88340540Y-98460021D01*
X88336799Y-98459512D01*
X88333179Y-98458864D01*
X88329689Y-98458063D01*
X88326316Y-98457130D01*
X88323069Y-98456045D01*
X88319947Y-98454816D01*
X88316947Y-98453445D01*
X88314073Y-98451928D01*
X88311317Y-98450270D01*
X88308688Y-98448461D01*
X88306180Y-98446510D01*
X88303797Y-98444414D01*
X88301534Y-98442179D01*
X88299375Y-98439778D01*
X88297364Y-98437271D01*
X88295484Y-98434644D01*
X88293742Y-98431906D01*
X88292145Y-98429049D01*
X88290683Y-98426079D01*
X88289359Y-98422995D01*
X88288178Y-98419796D01*
X88287132Y-98416485D01*
X88286225Y-98413056D01*
X88285462Y-98409514D01*
X88284837Y-98405859D01*
X88284347Y-98402087D01*
X88284003Y-98398201D01*
X88283791Y-98394201D01*
X88283724Y-98390089D01*
X88283724Y-97821840D01*
X88283793Y-97817727D01*
X88284008Y-97813728D01*
X88284367Y-97809850D01*
X88284866Y-97806084D01*
X88285509Y-97802435D01*
X88286291Y-97798905D01*
X88287220Y-97795485D01*
X88288290Y-97792185D01*
X88289502Y-97789003D01*
X88290857Y-97785935D01*
X88292356Y-97782982D01*
X88293997Y-97780151D01*
X88295782Y-97777432D01*
X88297709Y-97774830D01*
X88299774Y-97772342D01*
X88301986Y-97769975D01*
X88304302Y-97767710D01*
X88306738Y-97765586D01*
X88309294Y-97763614D01*
X88311964Y-97761785D01*
X88314756Y-97760105D01*
X88317675Y-97758569D01*
X88320708Y-97757181D01*
X88323861Y-97755936D01*
X88327132Y-97754843D01*
X88330528Y-97753891D01*
X88334042Y-97753085D01*
X88337673Y-97752428D01*
X88341423Y-97751916D01*
X88345296Y-97751551D01*
X88349289Y-97751332D01*
X88353400Y-97751260D01*
X88356912Y-97751302D01*
X88360330Y-97751437D01*
X88363667Y-97751654D01*
X88366914Y-97751962D01*
X88370081Y-97752359D01*
X88373156Y-97752841D01*
X88376148Y-97753417D01*
X88379050Y-97754078D01*
X88381867Y-97754827D01*
X88384601Y-97755662D01*
X88387246Y-97756586D01*
X88389806Y-97757603D01*
X88392276Y-97758703D01*
X88394667Y-97759891D01*
X88396963Y-97761170D01*
X88399177Y-97762531D01*
X88401310Y-97764007D01*
X88403422Y-97765605D01*
X88405516Y-97767336D01*
X88407593Y-97769185D01*
X88409644Y-97771170D01*
X88411680Y-97773277D01*
X88413695Y-97775506D01*
X88415695Y-97777868D01*
X88417672Y-97780353D01*
X88419630Y-97782973D01*
X88421568Y-97785711D01*
X88423486Y-97788574D01*
X88425387Y-97791572D01*
X88427266Y-97794697D01*
X88429127Y-97797946D01*
X88430968Y-97801314D01*
X88640908Y-98184848D01*
X88850844Y-97801314D01*
X88852714Y-97797946D01*
X88854600Y-97794697D01*
X88856506Y-97791572D01*
X88858425Y-97788574D01*
X88860365Y-97785711D01*
X88862322Y-97782973D01*
X88864298Y-97780353D01*
X88866293Y-97777868D01*
X88868303Y-97775506D01*
X88870326Y-97773277D01*
X88872374Y-97771170D01*
X88874434Y-97769185D01*
X88876517Y-97767336D01*
X88878617Y-97765605D01*
X88880730Y-97764007D01*
X88882866Y-97762531D01*
X88885056Y-97761170D01*
X88887342Y-97759891D01*
X88889729Y-97758703D01*
X88892208Y-97757603D01*
X88894787Y-97756586D01*
X88897458Y-97755662D01*
X88900232Y-97754827D01*
X88903101Y-97754078D01*
X88906068Y-97753417D01*
X88909132Y-97752841D01*
X88912292Y-97752359D01*
X88915545Y-97751962D01*
X88918902Y-97751654D01*
X88922353Y-97751437D01*
X88925898Y-97751302D01*
X88929548Y-97751260D01*
X88933659Y-97751332D01*
G37*
G36*
X88143384Y-98339125D02*
G01*
X88143384Y-98372276D01*
X88143301Y-98376995D01*
X88143065Y-98381581D01*
X88142664Y-98386030D01*
X88142099Y-98390342D01*
X88141379Y-98394513D01*
X88140497Y-98398552D01*
X88139455Y-98402449D01*
X88138252Y-98406212D01*
X88136891Y-98409834D01*
X88135366Y-98413320D01*
X88133684Y-98416673D01*
X88131838Y-98419885D01*
X88129835Y-98422956D01*
X88127674Y-98425893D01*
X88125346Y-98428693D01*
X88122863Y-98431354D01*
X88120201Y-98433841D01*
X88117403Y-98436164D01*
X88114467Y-98438326D01*
X88111387Y-98440332D01*
X88108181Y-98442176D01*
X88104832Y-98443859D01*
X88101348Y-98445381D01*
X88097720Y-98446745D01*
X88093959Y-98447948D01*
X88090062Y-98448990D01*
X88086022Y-98449869D01*
X88081850Y-98450591D01*
X88077538Y-98451151D01*
X88073091Y-98451554D01*
X88068507Y-98451796D01*
X88063784Y-98451876D01*
X87815512Y-98451876D01*
X87801721Y-98451672D01*
X87788306Y-98451071D01*
X87775265Y-98450066D01*
X87762607Y-98448661D01*
X87750322Y-98446855D01*
X87738413Y-98444646D01*
X87726880Y-98442031D01*
X87715733Y-98439022D01*
X87704954Y-98435606D01*
X87694557Y-98431791D01*
X87684534Y-98427572D01*
X87674885Y-98422954D01*
X87665620Y-98417931D01*
X87656726Y-98412512D01*
X87648212Y-98406689D01*
X87640080Y-98400463D01*
X87632354Y-98393852D01*
X87625122Y-98386917D01*
X87618389Y-98379671D01*
X87612157Y-98372108D01*
X87606423Y-98364222D01*
X87601189Y-98356021D01*
X87596451Y-98347508D01*
X87592216Y-98338677D01*
X87588475Y-98329526D01*
X87585237Y-98320059D01*
X87582497Y-98310276D01*
X87580249Y-98300175D01*
X87578505Y-98289753D01*
X87577257Y-98279015D01*
X87576514Y-98267961D01*
X87576260Y-98256597D01*
X87576416Y-98247987D01*
X87576426Y-98247801D01*
X87722381Y-98247801D01*
X87722490Y-98253352D01*
X87722814Y-98258736D01*
X87723351Y-98263941D01*
X87724101Y-98268985D01*
X87725069Y-98273853D01*
X87726251Y-98278549D01*
X87727650Y-98283075D01*
X87729261Y-98287432D01*
X87731091Y-98291617D01*
X87733129Y-98295629D01*
X87735385Y-98299475D01*
X87737856Y-98303145D01*
X87740548Y-98306647D01*
X87743444Y-98309973D01*
X87746562Y-98313138D01*
X87749895Y-98316129D01*
X87753454Y-98318909D01*
X87757262Y-98321517D01*
X87761312Y-98323941D01*
X87765607Y-98326188D01*
X87770146Y-98328258D01*
X87774936Y-98330143D01*
X87779965Y-98331851D01*
X87785241Y-98333375D01*
X87790763Y-98334722D01*
X87796523Y-98335894D01*
X87802535Y-98336878D01*
X87808791Y-98337689D01*
X87815287Y-98338318D01*
X87822034Y-98338768D01*
X87829023Y-98339037D01*
X87836256Y-98339125D01*
X87998166Y-98339125D01*
X87998166Y-98157379D01*
X87836256Y-98157379D01*
X87829023Y-98157465D01*
X87822034Y-98157732D01*
X87815287Y-98158176D01*
X87808791Y-98158799D01*
X87802535Y-98159602D01*
X87796523Y-98160580D01*
X87790763Y-98161735D01*
X87785241Y-98163068D01*
X87779965Y-98164582D01*
X87774936Y-98166275D01*
X87770146Y-98168140D01*
X87765607Y-98170188D01*
X87761312Y-98172412D01*
X87757262Y-98174814D01*
X87753454Y-98177391D01*
X87749895Y-98180152D01*
X87746562Y-98183059D01*
X87743444Y-98186143D01*
X87740548Y-98189401D01*
X87737856Y-98192837D01*
X87735385Y-98196445D01*
X87733129Y-98200234D01*
X87731091Y-98204198D01*
X87729261Y-98208336D01*
X87727650Y-98212657D01*
X87726251Y-98217146D01*
X87725069Y-98221817D01*
X87724101Y-98226659D01*
X87723351Y-98231684D01*
X87722814Y-98236879D01*
X87722490Y-98242251D01*
X87722381Y-98247801D01*
X87576426Y-98247801D01*
X87576883Y-98239585D01*
X87577660Y-98231384D01*
X87578746Y-98223393D01*
X87580139Y-98215603D01*
X87581843Y-98208012D01*
X87583855Y-98200632D01*
X87586184Y-98193456D01*
X87588818Y-98186482D01*
X87591767Y-98179714D01*
X87595022Y-98173148D01*
X87598587Y-98166789D01*
X87602460Y-98160630D01*
X87606649Y-98154684D01*
X87611142Y-98148939D01*
X87615953Y-98143395D01*
X87621036Y-98138047D01*
X87626367Y-98132939D01*
X87631955Y-98128075D01*
X87637794Y-98123451D01*
X87643881Y-98119071D01*
X87650216Y-98114929D01*
X87656803Y-98111032D01*
X87663641Y-98107370D01*
X87670728Y-98103959D01*
X87678069Y-98100781D01*
X87685656Y-98097848D01*
X87693493Y-98095152D01*
X87698654Y-98093589D01*
X87698101Y-98093378D01*
X87691303Y-98090524D01*
X87684714Y-98087459D01*
X87678332Y-98084163D01*
X87672153Y-98080650D01*
X87666183Y-98076919D01*
X87660418Y-98072965D01*
X87654858Y-98068796D01*
X87649505Y-98064404D01*
X87644358Y-98059786D01*
X87639417Y-98054955D01*
X87634686Y-98049903D01*
X87630157Y-98044627D01*
X87625869Y-98039144D01*
X87621860Y-98033515D01*
X87618127Y-98027745D01*
X87614665Y-98021827D01*
X87611489Y-98015761D01*
X87608581Y-98009559D01*
X87605953Y-98003208D01*
X87603604Y-97996712D01*
X87601528Y-97990072D01*
X87599729Y-97983285D01*
X87598211Y-97976357D01*
X87596964Y-97969286D01*
X87595997Y-97962066D01*
X87595639Y-97958263D01*
X87741100Y-97958263D01*
X87741205Y-97963565D01*
X87741527Y-97968699D01*
X87742066Y-97973662D01*
X87742819Y-97978463D01*
X87743784Y-97983092D01*
X87744968Y-97987556D01*
X87746363Y-97991851D01*
X87747980Y-97995975D01*
X87749803Y-97999939D01*
X87751850Y-98003732D01*
X87754102Y-98007361D01*
X87756573Y-98010818D01*
X87759260Y-98014111D01*
X87762162Y-98017232D01*
X87765280Y-98020189D01*
X87768610Y-98022982D01*
X87772138Y-98025604D01*
X87775897Y-98028054D01*
X87779885Y-98030337D01*
X87784114Y-98032451D01*
X87788571Y-98034397D01*
X87793258Y-98036171D01*
X87798180Y-98037778D01*
X87803333Y-98039214D01*
X87808726Y-98040488D01*
X87814342Y-98041585D01*
X87820195Y-98042512D01*
X87826280Y-98043278D01*
X87832598Y-98043864D01*
X87839148Y-98044288D01*
X87845929Y-98044544D01*
X87852943Y-98044627D01*
X87998166Y-98044627D01*
X87998166Y-97872802D01*
X87852943Y-97872802D01*
X87845929Y-97872886D01*
X87839148Y-97873139D01*
X87832598Y-97873561D01*
X87826280Y-97874154D01*
X87820195Y-97874916D01*
X87814342Y-97875847D01*
X87808726Y-97876944D01*
X87803333Y-97878213D01*
X87798180Y-97879649D01*
X87793258Y-97881258D01*
X87788571Y-97883031D01*
X87784114Y-97884978D01*
X87779885Y-97887088D01*
X87775897Y-97889373D01*
X87772138Y-97891826D01*
X87768610Y-97894451D01*
X87765280Y-97897237D01*
X87762162Y-97900182D01*
X87759260Y-97903289D01*
X87756573Y-97906557D01*
X87754102Y-97909981D01*
X87751850Y-97913570D01*
X87749803Y-97917319D01*
X87747980Y-97921227D01*
X87746363Y-97925296D01*
X87744968Y-97929525D01*
X87743784Y-97933912D01*
X87742819Y-97938462D01*
X87742066Y-97943170D01*
X87741527Y-97948046D01*
X87741205Y-97953073D01*
X87741100Y-97958263D01*
X87595639Y-97958263D01*
X87595305Y-97954706D01*
X87594892Y-97947199D01*
X87594753Y-97939549D01*
X87594863Y-97932618D01*
X87595178Y-97925814D01*
X87595706Y-97919133D01*
X87596443Y-97912571D01*
X87597394Y-97906138D01*
X87598558Y-97899824D01*
X87599932Y-97893634D01*
X87601518Y-97887571D01*
X87603312Y-97881628D01*
X87605321Y-97875810D01*
X87607545Y-97870114D01*
X87609971Y-97864542D01*
X87612617Y-97859092D01*
X87615471Y-97853769D01*
X87618533Y-97848566D01*
X87621813Y-97843483D01*
X87625291Y-97838516D01*
X87628970Y-97833689D01*
X87632844Y-97829017D01*
X87636904Y-97824490D01*
X87641171Y-97820109D01*
X87645627Y-97815876D01*
X87650279Y-97811795D01*
X87655128Y-97807858D01*
X87660171Y-97804071D01*
X87665415Y-97800433D01*
X87670850Y-97796941D01*
X87676479Y-97793594D01*
X87682311Y-97790400D01*
X87688332Y-97787352D01*
X87694546Y-97784452D01*
X87700958Y-97781701D01*
X87707529Y-97779076D01*
X87714271Y-97776626D01*
X87721170Y-97774343D01*
X87728244Y-97772231D01*
X87735489Y-97770284D01*
X87742905Y-97768510D01*
X87750486Y-97766900D01*
X87758236Y-97765465D01*
X87766157Y-97764198D01*
X87774247Y-97763098D01*
X87782504Y-97762166D01*
X87790936Y-97761404D01*
X87808297Y-97760389D01*
X87826339Y-97760054D01*
X88063784Y-97760054D01*
X88068507Y-97760135D01*
X88073091Y-97760376D01*
X88077538Y-97760779D01*
X88081850Y-97761348D01*
X88086022Y-97762081D01*
X88090062Y-97762972D01*
X88093959Y-97764026D01*
X88097720Y-97765241D01*
X88101348Y-97766616D01*
X88104832Y-97768159D01*
X88108181Y-97769860D01*
X88111387Y-97771721D01*
X88114467Y-97773749D01*
X88117403Y-97775937D01*
X88120201Y-97778287D01*
X88122863Y-97780799D01*
X88125346Y-97783432D01*
X88127674Y-97786201D01*
X88129835Y-97789114D01*
X88131838Y-97792158D01*
X88133684Y-97795342D01*
X88135366Y-97798660D01*
X88136891Y-97802121D01*
X88138252Y-97805718D01*
X88139455Y-97809446D01*
X88140497Y-97813319D01*
X88141379Y-97817324D01*
X88142099Y-97821473D01*
X88142664Y-97825757D01*
X88143065Y-97830174D01*
X88143301Y-97834731D01*
X88143384Y-97839429D01*
X88143384Y-98044627D01*
X88143384Y-98339125D01*
G37*
G36*
X90411304Y-98382200D02*
G01*
X90411224Y-98386785D01*
X90410994Y-98391239D01*
X90410613Y-98395570D01*
X90410074Y-98399770D01*
X90409387Y-98403845D01*
X90408540Y-98407786D01*
X90407550Y-98411599D01*
X90406396Y-98415288D01*
X90405097Y-98418846D01*
X90403640Y-98422274D01*
X90402028Y-98425575D01*
X90400265Y-98428745D01*
X90398352Y-98431791D01*
X90396282Y-98434703D01*
X90394061Y-98437489D01*
X90391682Y-98440147D01*
X90389164Y-98442634D01*
X90386507Y-98444959D01*
X90383710Y-98447123D01*
X90380774Y-98449123D01*
X90377706Y-98450969D01*
X90374495Y-98452653D01*
X90371156Y-98454178D01*
X90367671Y-98455540D01*
X90364049Y-98456741D01*
X90360290Y-98457783D01*
X90356395Y-98458668D01*
X90352363Y-98459385D01*
X90348194Y-98459944D01*
X90343886Y-98460348D01*
X90339444Y-98460588D01*
X90334857Y-98460666D01*
X90330249Y-98460588D01*
X90325787Y-98460348D01*
X90321465Y-98459944D01*
X90317284Y-98459385D01*
X90313252Y-98458668D01*
X90309352Y-98457783D01*
X90305601Y-98456741D01*
X90301995Y-98455540D01*
X90298531Y-98454178D01*
X90295204Y-98452653D01*
X90292025Y-98450969D01*
X90288983Y-98449123D01*
X90286095Y-98447123D01*
X90283335Y-98444959D01*
X90280729Y-98442634D01*
X90278259Y-98440147D01*
X90275941Y-98437489D01*
X90273772Y-98434703D01*
X90271748Y-98431791D01*
X90269873Y-98428745D01*
X90268149Y-98425575D01*
X90266582Y-98422274D01*
X90265160Y-98418846D01*
X90263884Y-98415288D01*
X90262761Y-98411599D01*
X90261787Y-98407786D01*
X90260963Y-98403845D01*
X90260291Y-98399770D01*
X90259765Y-98395570D01*
X90259395Y-98391239D01*
X90259167Y-98386785D01*
X90259095Y-98382200D01*
X90259095Y-98183985D01*
X90184683Y-98183985D01*
X90180911Y-98184023D01*
X90177216Y-98184140D01*
X90173595Y-98184333D01*
X90170050Y-98184607D01*
X90166580Y-98184953D01*
X90163181Y-98185379D01*
X90159853Y-98185883D01*
X90156605Y-98186465D01*
X90153427Y-98187126D01*
X90150327Y-98187859D01*
X90147295Y-98188673D01*
X90144347Y-98189568D01*
X90141464Y-98190534D01*
X90138655Y-98191578D01*
X90135923Y-98192705D01*
X90133267Y-98193906D01*
X90130640Y-98195187D01*
X90128065Y-98196611D01*
X90125538Y-98198168D01*
X90123065Y-98199869D01*
X90120632Y-98201708D01*
X90118253Y-98203684D01*
X90115928Y-98205800D01*
X90113648Y-98208054D01*
X90111419Y-98210449D01*
X90109236Y-98212989D01*
X90107106Y-98215662D01*
X90105026Y-98218472D01*
X90102993Y-98221421D01*
X90101007Y-98224513D01*
X90099071Y-98227744D01*
X90097187Y-98231109D01*
X90003156Y-98404746D01*
X90001165Y-98408239D01*
X89999142Y-98411619D01*
X89997085Y-98414884D01*
X89994994Y-98418036D01*
X89992870Y-98421069D01*
X89990713Y-98423993D01*
X89988524Y-98426802D01*
X89986301Y-98429492D01*
X89984041Y-98432073D01*
X89981752Y-98434536D01*
X89979428Y-98436884D01*
X89977066Y-98439118D01*
X89974677Y-98441241D01*
X89972250Y-98443244D01*
X89969793Y-98445138D01*
X89967301Y-98446913D01*
X89964743Y-98448581D01*
X89962090Y-98450137D01*
X89959340Y-98451592D01*
X89956492Y-98452930D01*
X89953547Y-98454166D01*
X89950505Y-98455296D01*
X89947371Y-98456316D01*
X89944132Y-98457233D01*
X89940800Y-98458033D01*
X89937371Y-98458731D01*
X89933844Y-98459325D01*
X89930222Y-98459810D01*
X89926498Y-98460184D01*
X89922682Y-98460452D01*
X89918771Y-98460612D01*
X89914761Y-98460666D01*
X89910763Y-98460610D01*
X89906892Y-98460440D01*
X89903139Y-98460152D01*
X89899512Y-98459752D01*
X89896008Y-98459235D01*
X89892626Y-98458607D01*
X89889372Y-98457861D01*
X89886237Y-98457001D01*
X89883225Y-98456028D01*
X89880337Y-98454943D01*
X89877575Y-98453741D01*
X89874932Y-98452422D01*
X89872416Y-98450994D01*
X89870020Y-98449446D01*
X89867748Y-98447783D01*
X89865604Y-98446010D01*
X89863581Y-98444143D01*
X89861676Y-98442210D01*
X89859901Y-98440204D01*
X89858242Y-98438131D01*
X89856717Y-98435992D01*
X89855306Y-98433781D01*
X89854025Y-98431502D01*
X89852861Y-98429158D01*
X89851825Y-98426738D01*
X89850910Y-98424254D01*
X89850119Y-98421700D01*
X89849450Y-98419078D01*
X89848908Y-98416389D01*
X89848485Y-98413630D01*
X89848188Y-98410800D01*
X89848013Y-98407904D01*
X89847960Y-98404940D01*
X89848017Y-98401973D01*
X89848189Y-98398993D01*
X89848480Y-98396011D01*
X89848882Y-98393015D01*
X89849399Y-98390015D01*
X89850032Y-98387012D01*
X89850778Y-98383999D01*
X89851639Y-98380981D01*
X89852613Y-98377958D01*
X89853703Y-98374921D01*
X89854905Y-98371879D01*
X89856223Y-98368833D01*
X89857655Y-98365776D01*
X89859202Y-98362715D01*
X89860870Y-98359647D01*
X89921524Y-98246673D01*
X89924378Y-98241626D01*
X89927299Y-98236739D01*
X89930284Y-98232021D01*
X89933338Y-98227462D01*
X89936458Y-98223069D01*
X89939642Y-98218842D01*
X89942897Y-98214776D01*
X89946215Y-98210873D01*
X89949606Y-98207139D01*
X89953061Y-98203562D01*
X89956582Y-98200157D01*
X89960167Y-98196911D01*
X89963826Y-98193828D01*
X89967548Y-98190906D01*
X89971337Y-98188154D01*
X89975192Y-98185563D01*
X89979096Y-98183105D01*
X89983078Y-98180806D01*
X89987131Y-98178664D01*
X89991279Y-98176684D01*
X89995493Y-98174862D01*
X89999793Y-98173196D01*
X90004166Y-98171691D01*
X90005360Y-98171331D01*
X90000127Y-98169911D01*
X89992602Y-98167623D01*
X89985260Y-98165133D01*
X89978110Y-98162447D01*
X89971147Y-98159563D01*
X89964369Y-98156475D01*
X89957755Y-98153209D01*
X89951350Y-98149766D01*
X89945133Y-98146157D01*
X89939115Y-98142380D01*
X89933296Y-98138431D01*
X89927672Y-98134319D01*
X89922249Y-98130035D01*
X89917015Y-98125584D01*
X89911981Y-98120959D01*
X89907150Y-98116166D01*
X89902514Y-98111203D01*
X89898074Y-98106079D01*
X89893833Y-98100775D01*
X89889787Y-98095307D01*
X89885940Y-98089674D01*
X89882290Y-98083865D01*
X89878849Y-98077902D01*
X89875630Y-98071808D01*
X89872632Y-98065571D01*
X89869858Y-98059197D01*
X89867306Y-98052688D01*
X89864974Y-98046043D01*
X89862867Y-98039261D01*
X89860981Y-98032341D01*
X89859314Y-98025280D01*
X89857871Y-98018083D01*
X89856655Y-98010750D01*
X89855651Y-98003279D01*
X89854878Y-97995668D01*
X89854320Y-97987926D01*
X89853988Y-97980042D01*
X89853930Y-97975853D01*
X90000221Y-97975853D01*
X90000345Y-97981900D01*
X90000704Y-97987760D01*
X90001306Y-97993421D01*
X90002158Y-97998895D01*
X90003240Y-98004177D01*
X90004567Y-98009263D01*
X90006138Y-98014162D01*
X90007949Y-98018863D01*
X90009997Y-98023381D01*
X90012291Y-98027700D01*
X90014825Y-98031826D01*
X90017600Y-98035763D01*
X90020619Y-98039508D01*
X90023874Y-98043061D01*
X90027374Y-98046424D01*
X90031111Y-98049588D01*
X90035092Y-98052539D01*
X90039310Y-98055300D01*
X90043756Y-98057867D01*
X90048439Y-98060245D01*
X90053351Y-98062431D01*
X90058504Y-98064430D01*
X90063889Y-98066237D01*
X90069502Y-98067857D01*
X90075360Y-98069278D01*
X90081450Y-98070515D01*
X90087770Y-98071565D01*
X90094328Y-98072422D01*
X90101116Y-98073088D01*
X90108137Y-98073563D01*
X90115403Y-98073852D01*
X90122894Y-98073943D01*
X90259095Y-98073943D01*
X90259095Y-97878663D01*
X90122894Y-97878663D01*
X90115403Y-97878758D01*
X90108137Y-97879046D01*
X90101116Y-97879526D01*
X90094328Y-97880202D01*
X90087770Y-97881065D01*
X90081450Y-97882120D01*
X90075360Y-97883371D01*
X90069502Y-97884807D01*
X90063889Y-97886441D01*
X90058504Y-97888266D01*
X90053351Y-97890282D01*
X90048439Y-97892489D01*
X90043756Y-97894890D01*
X90039310Y-97897483D01*
X90035092Y-97900268D01*
X90031111Y-97903248D01*
X90027374Y-97906408D01*
X90023874Y-97909755D01*
X90020619Y-97913285D01*
X90017600Y-97917000D01*
X90014825Y-97920895D01*
X90012291Y-97924973D01*
X90009997Y-97929238D01*
X90007949Y-97933687D01*
X90006138Y-97938316D01*
X90004567Y-97943126D01*
X90003240Y-97948123D01*
X90002158Y-97953303D01*
X90001306Y-97958666D01*
X90000704Y-97964212D01*
X90000345Y-97969938D01*
X90000221Y-97975853D01*
X89853930Y-97975853D01*
X89853876Y-97972020D01*
X89854122Y-97959674D01*
X89854860Y-97947678D01*
X89856088Y-97936027D01*
X89857809Y-97924720D01*
X89860021Y-97913758D01*
X89862724Y-97903144D01*
X89865917Y-97892873D01*
X89869604Y-97882948D01*
X89873782Y-97873366D01*
X89878453Y-97864136D01*
X89883615Y-97855247D01*
X89889268Y-97846702D01*
X89895407Y-97838500D01*
X89902047Y-97830646D01*
X89909169Y-97823140D01*
X89916790Y-97815975D01*
X89924832Y-97809205D01*
X89933294Y-97802869D01*
X89942170Y-97796974D01*
X89951461Y-97791510D01*
X89961170Y-97786487D01*
X89971290Y-97781899D01*
X89981827Y-97777748D01*
X89992783Y-97774035D01*
X90004154Y-97770754D01*
X90015940Y-97767918D01*
X90028140Y-97765513D01*
X90040760Y-97763549D01*
X90053788Y-97762018D01*
X90067237Y-97760926D01*
X90081105Y-97760272D01*
X90095383Y-97760054D01*
X90333732Y-97760054D01*
X90338344Y-97760131D01*
X90342818Y-97760360D01*
X90347158Y-97760745D01*
X90351363Y-97761281D01*
X90355430Y-97761970D01*
X90359363Y-97762811D01*
X90363157Y-97763809D01*
X90366824Y-97764961D01*
X90370349Y-97766262D01*
X90373737Y-97767718D01*
X90376994Y-97769325D01*
X90380115Y-97771088D01*
X90383097Y-97773003D01*
X90385945Y-97775070D01*
X90388658Y-97777297D01*
X90391229Y-97779671D01*
X90393662Y-97782198D01*
X90395937Y-97784869D01*
X90398055Y-97787687D01*
X90400016Y-97790650D01*
X90401817Y-97793762D01*
X90403460Y-97797018D01*
X90404950Y-97800420D01*
X90406284Y-97803968D01*
X90407462Y-97807664D01*
X90408480Y-97811505D01*
X90409344Y-97815495D01*
X90410046Y-97819625D01*
X90410596Y-97823907D01*
X90410985Y-97828331D01*
X90411223Y-97832904D01*
X90411304Y-97837625D01*
X90411304Y-98073943D01*
X90411304Y-98382200D01*
G37*
G36*
X90757378Y-97749326D02*
G01*
X90767603Y-97749627D01*
X90777695Y-97750126D01*
X90787655Y-97750823D01*
X90797487Y-97751719D01*
X90807181Y-97752810D01*
X90816737Y-97754106D01*
X90826163Y-97755600D01*
X90835451Y-97757294D01*
X90844611Y-97759181D01*
X90853633Y-97761274D01*
X90862524Y-97763560D01*
X90871282Y-97766051D01*
X90879902Y-97768738D01*
X90888388Y-97771625D01*
X90896741Y-97774712D01*
X90904926Y-97777977D01*
X90912947Y-97781410D01*
X90920820Y-97785013D01*
X90928536Y-97788776D01*
X90936100Y-97792705D01*
X90943504Y-97796803D01*
X90950755Y-97801064D01*
X90957855Y-97805491D01*
X90964794Y-97810082D01*
X90971579Y-97814842D01*
X90978213Y-97819766D01*
X90984685Y-97824856D01*
X90991007Y-97830108D01*
X90997170Y-97835532D01*
X91003182Y-97841117D01*
X91009041Y-97846870D01*
X91014703Y-97852780D01*
X91020197Y-97858831D01*
X91025521Y-97865030D01*
X91030673Y-97871379D01*
X91035654Y-97877870D01*
X91040463Y-97884510D01*
X91045103Y-97891291D01*
X91049574Y-97898231D01*
X91053870Y-97905304D01*
X91057994Y-97912529D01*
X91061951Y-97919895D01*
X91065738Y-97927414D01*
X91069351Y-97935080D01*
X91072792Y-97942884D01*
X91076067Y-97950839D01*
X91079172Y-97958940D01*
X91082068Y-97967152D01*
X91084771Y-97975483D01*
X91087291Y-97983952D01*
X91089623Y-97992538D01*
X91091774Y-98001255D01*
X91093736Y-98010102D01*
X91095507Y-98019070D01*
X91097098Y-98028168D01*
X91099712Y-98046743D01*
X91101579Y-98065826D01*
X91102698Y-98085414D01*
X91103070Y-98105512D01*
X91102907Y-98119014D01*
X91102402Y-98132292D01*
X91101572Y-98145343D01*
X91100407Y-98158166D01*
X91098913Y-98170763D01*
X91097077Y-98183140D01*
X91094914Y-98195288D01*
X91092421Y-98207211D01*
X91089582Y-98218909D01*
X91086421Y-98230381D01*
X91082927Y-98241629D01*
X91079095Y-98252645D01*
X91074937Y-98263444D01*
X91070441Y-98274014D01*
X91065615Y-98284359D01*
X91060450Y-98294478D01*
X91054981Y-98304318D01*
X91049226Y-98313878D01*
X91043175Y-98323158D01*
X91036848Y-98332162D01*
X91030227Y-98340888D01*
X91023319Y-98349335D01*
X91016126Y-98357509D01*
X91008644Y-98365395D01*
X91000880Y-98373008D01*
X90992818Y-98380342D01*
X90984479Y-98387398D01*
X90975846Y-98394173D01*
X90966935Y-98400676D01*
X90957731Y-98406895D01*
X90948239Y-98412840D01*
X90938459Y-98418499D01*
X90928385Y-98423853D01*
X90918055Y-98428858D01*
X90907476Y-98433519D01*
X90896644Y-98437834D01*
X90885564Y-98441803D01*
X90874221Y-98445433D01*
X90862635Y-98448712D01*
X90850801Y-98451653D01*
X90838705Y-98454239D01*
X90826362Y-98456483D01*
X90813772Y-98458383D01*
X90800919Y-98459936D01*
X90787822Y-98461142D01*
X90774473Y-98462008D01*
X90760867Y-98462527D01*
X90747010Y-98462696D01*
X90733979Y-98462480D01*
X90720914Y-98461840D01*
X90707818Y-98460761D01*
X90694701Y-98459257D01*
X90681549Y-98457324D01*
X90668370Y-98454963D01*
X90655166Y-98452166D01*
X90641932Y-98448943D01*
X90635376Y-98447180D01*
X90628945Y-98445333D01*
X90622647Y-98443400D01*
X90616482Y-98441389D01*
X90610443Y-98439287D01*
X90604534Y-98437106D01*
X90598758Y-98434835D01*
X90593114Y-98432483D01*
X90587598Y-98430042D01*
X90582213Y-98427517D01*
X90576960Y-98424913D01*
X90571832Y-98422219D01*
X90566835Y-98419445D01*
X90561974Y-98416584D01*
X90557241Y-98413637D01*
X90552638Y-98410612D01*
X90549983Y-98408867D01*
X90547442Y-98407079D01*
X90545009Y-98405244D01*
X90542687Y-98403364D01*
X90540475Y-98401439D01*
X90538365Y-98399464D01*
X90536373Y-98397450D01*
X90534484Y-98395387D01*
X90532702Y-98393275D01*
X90531041Y-98391127D01*
X90529481Y-98388923D01*
X90528029Y-98386676D01*
X90526688Y-98384384D01*
X90525459Y-98382048D01*
X90524336Y-98379665D01*
X90523321Y-98377236D01*
X90522380Y-98374785D01*
X90521523Y-98372333D01*
X90520756Y-98369879D01*
X90520080Y-98367424D01*
X90519492Y-98364976D01*
X90518986Y-98362525D01*
X90518575Y-98360073D01*
X90518253Y-98357618D01*
X90518009Y-98355167D01*
X90517856Y-98352709D01*
X90517798Y-98350258D01*
X90517825Y-98347806D01*
X90517939Y-98345355D01*
X90518144Y-98342903D01*
X90518432Y-98340450D01*
X90518811Y-98338000D01*
X90519274Y-98335565D01*
X90519813Y-98333179D01*
X90520431Y-98330832D01*
X90521122Y-98328528D01*
X90521894Y-98326262D01*
X90522745Y-98324045D01*
X90523669Y-98321867D01*
X90524674Y-98319735D01*
X90525755Y-98317642D01*
X90526912Y-98315590D01*
X90528154Y-98313583D01*
X90529470Y-98311617D01*
X90530857Y-98309694D01*
X90532326Y-98307810D01*
X90533873Y-98305971D01*
X90535500Y-98304176D01*
X90537189Y-98302442D01*
X90538927Y-98300795D01*
X90540725Y-98299227D01*
X90542570Y-98297745D01*
X90544476Y-98296353D01*
X90546429Y-98295039D01*
X90548435Y-98293815D01*
X90550492Y-98292673D01*
X90552606Y-98291617D01*
X90554771Y-98290644D01*
X90556989Y-98289758D01*
X90559261Y-98288954D01*
X90561580Y-98288233D01*
X90563963Y-98287599D01*
X90566387Y-98287048D01*
X90568872Y-98286586D01*
X90571401Y-98286199D01*
X90573976Y-98285943D01*
X90576589Y-98285814D01*
X90579243Y-98285813D01*
X90581944Y-98285940D01*
X90584684Y-98286197D01*
X90587467Y-98286578D01*
X90590291Y-98287093D01*
X90593160Y-98287735D01*
X90596074Y-98288504D01*
X90599025Y-98289407D01*
X90602021Y-98290432D01*
X90605056Y-98291594D01*
X90608135Y-98292872D01*
X90611257Y-98294289D01*
X90614420Y-98295830D01*
X90622069Y-98299864D01*
X90629799Y-98303624D01*
X90637603Y-98307109D01*
X90645487Y-98310318D01*
X90653443Y-98313256D01*
X90661481Y-98315913D01*
X90669596Y-98318303D01*
X90677789Y-98320409D01*
X90685997Y-98322262D01*
X90694150Y-98323862D01*
X90702256Y-98325219D01*
X90710314Y-98326329D01*
X90718322Y-98327191D01*
X90726282Y-98327806D01*
X90734196Y-98328180D01*
X90742054Y-98328304D01*
X90750175Y-98328202D01*
X90758128Y-98327897D01*
X90765920Y-98327392D01*
X90773550Y-98326683D01*
X90781017Y-98325769D01*
X90788318Y-98324655D01*
X90795459Y-98323336D01*
X90802432Y-98321819D01*
X90809237Y-98320096D01*
X90815884Y-98318170D01*
X90822369Y-98316045D01*
X90828683Y-98313717D01*
X90834842Y-98311184D01*
X90840831Y-98308448D01*
X90846659Y-98305511D01*
X90852321Y-98302370D01*
X90857817Y-98299007D01*
X90863141Y-98295459D01*
X90868295Y-98291720D01*
X90873277Y-98287796D01*
X90878091Y-98283685D01*
X90882729Y-98279392D01*
X90887202Y-98274904D01*
X90891503Y-98270237D01*
X90895634Y-98265379D01*
X90899586Y-98260335D01*
X90903374Y-98255106D01*
X90906987Y-98249689D01*
X90910435Y-98244084D01*
X90913707Y-98238291D01*
X90916810Y-98232313D01*
X90919744Y-98226152D01*
X90922473Y-98219815D01*
X90925025Y-98213321D01*
X90927408Y-98206659D01*
X90929605Y-98199841D01*
X90931633Y-98192864D01*
X90933484Y-98185723D01*
X90935158Y-98178425D01*
X90936657Y-98170962D01*
X90937977Y-98163340D01*
X90939122Y-98155562D01*
X90940090Y-98147623D01*
X90940887Y-98139521D01*
X90941498Y-98131259D01*
X90941940Y-98122839D01*
X90942203Y-98114258D01*
X90942292Y-98105512D01*
X90942203Y-98096636D01*
X90941940Y-98087939D01*
X90941498Y-98079422D01*
X90940887Y-98071080D01*
X90940090Y-98062917D01*
X90939122Y-98054931D01*
X90937977Y-98047129D01*
X90936657Y-98039498D01*
X90935158Y-98032050D01*
X90933484Y-98024775D01*
X90931633Y-98017679D01*
X90929605Y-98010764D01*
X90927408Y-98004025D01*
X90925025Y-97997461D01*
X90922473Y-97991076D01*
X90919744Y-97984874D01*
X90916810Y-97978820D01*
X90913707Y-97972948D01*
X90910435Y-97967256D01*
X90906987Y-97961748D01*
X90903374Y-97956416D01*
X90899586Y-97951270D01*
X90895634Y-97946307D01*
X90891503Y-97941523D01*
X90887202Y-97936919D01*
X90882729Y-97932500D01*
X90878091Y-97928261D01*
X90873277Y-97924199D01*
X90868295Y-97920322D01*
X90863141Y-97916630D01*
X90857817Y-97913114D01*
X90852321Y-97909782D01*
X90846659Y-97906614D01*
X90840831Y-97903650D01*
X90834842Y-97900893D01*
X90828683Y-97898338D01*
X90822369Y-97895991D01*
X90815884Y-97893837D01*
X90809237Y-97891903D01*
X90802432Y-97890163D01*
X90795459Y-97888633D01*
X90788318Y-97887303D01*
X90781017Y-97886179D01*
X90773550Y-97885259D01*
X90765920Y-97884546D01*
X90758128Y-97884033D01*
X90750175Y-97883730D01*
X90742054Y-97883622D01*
X90733730Y-97883750D01*
X90725439Y-97884117D01*
X90717180Y-97884736D01*
X90708961Y-97885598D01*
X90700776Y-97886710D01*
X90692627Y-97888064D01*
X90684514Y-97889667D01*
X90676430Y-97891517D01*
X90668358Y-97893643D01*
X90660378Y-97896069D01*
X90652493Y-97898798D01*
X90644694Y-97901834D01*
X90636992Y-97905177D01*
X90629374Y-97908810D01*
X90621852Y-97912753D01*
X90614420Y-97917000D01*
X90611366Y-97918538D01*
X90608356Y-97919950D01*
X90605377Y-97921229D01*
X90602444Y-97922383D01*
X90599542Y-97923402D01*
X90596686Y-97924290D01*
X90593871Y-97925052D01*
X90591083Y-97925682D01*
X90588336Y-97926178D01*
X90585635Y-97926547D01*
X90582971Y-97926784D01*
X90580341Y-97926891D01*
X90577755Y-97926868D01*
X90575206Y-97926718D01*
X90572696Y-97926432D01*
X90570224Y-97926019D01*
X90567800Y-97925471D01*
X90565422Y-97924835D01*
X90563098Y-97924126D01*
X90560821Y-97923329D01*
X90558604Y-97922445D01*
X90556430Y-97921486D01*
X90554313Y-97920440D01*
X90552243Y-97919312D01*
X90550220Y-97918099D01*
X90548256Y-97916802D01*
X90546343Y-97915430D01*
X90544478Y-97913968D01*
X90542665Y-97912426D01*
X90540902Y-97910803D01*
X90539186Y-97909092D01*
X90537529Y-97907301D01*
X90535906Y-97905418D01*
X90534356Y-97903494D01*
X90532890Y-97901523D01*
X90531497Y-97899508D01*
X90530185Y-97897451D01*
X90528942Y-97895345D01*
X90527785Y-97893200D01*
X90526704Y-97891012D01*
X90525701Y-97888778D01*
X90524778Y-97886498D01*
X90523926Y-97884173D01*
X90523153Y-97881810D01*
X90522460Y-97879398D01*
X90521843Y-97876942D01*
X90521301Y-97874440D01*
X90520842Y-97871900D01*
X90520441Y-97869333D01*
X90520138Y-97866767D01*
X90519936Y-97864201D01*
X90519826Y-97861640D01*
X90519821Y-97859072D01*
X90519913Y-97856510D01*
X90520099Y-97853944D01*
X90520390Y-97851379D01*
X90520780Y-97848816D01*
X90521267Y-97846254D01*
X90521854Y-97843688D01*
X90522534Y-97841119D01*
X90523316Y-97838555D01*
X90524197Y-97835987D01*
X90525176Y-97833425D01*
X90526252Y-97830859D01*
X90527415Y-97828292D01*
X90528693Y-97825781D01*
X90530096Y-97823326D01*
X90531623Y-97820921D01*
X90533272Y-97818573D01*
X90535034Y-97816284D01*
X90536926Y-97814044D01*
X90538937Y-97811861D01*
X90541071Y-97809731D01*
X90543323Y-97807655D01*
X90545699Y-97805640D01*
X90548199Y-97803669D01*
X90550819Y-97801764D01*
X90553560Y-97799906D01*
X90556422Y-97798104D01*
X90559400Y-97796357D01*
X90568966Y-97790883D01*
X90578934Y-97785733D01*
X90589312Y-97780905D01*
X90600105Y-97776403D01*
X90611300Y-97772224D01*
X90622905Y-97768366D01*
X90634919Y-97764836D01*
X90647344Y-97761632D01*
X90659950Y-97758725D01*
X90672515Y-97756208D01*
X90685039Y-97754075D01*
X90697520Y-97752331D01*
X90709951Y-97750969D01*
X90722351Y-97750005D01*
X90734703Y-97749426D01*
X90747010Y-97749230D01*
X90757378Y-97749326D01*
G37*
G36*
X91459902Y-97749477D02*
G01*
X91474874Y-97750215D01*
X91489528Y-97751448D01*
X91503860Y-97753177D01*
X91517885Y-97755396D01*
X91531585Y-97758108D01*
X91544972Y-97761315D01*
X91558040Y-97765017D01*
X91564413Y-97767014D01*
X91570673Y-97769122D01*
X91576828Y-97771340D01*
X91582871Y-97773669D01*
X91588807Y-97776104D01*
X91594631Y-97778651D01*
X91600347Y-97781303D01*
X91605957Y-97784068D01*
X91611457Y-97786941D01*
X91616848Y-97789922D01*
X91622126Y-97793019D01*
X91627293Y-97796213D01*
X91632358Y-97799527D01*
X91637310Y-97802945D01*
X91642148Y-97806478D01*
X91646887Y-97810114D01*
X91651470Y-97813819D01*
X91655927Y-97817615D01*
X91660260Y-97821494D01*
X91664460Y-97825458D01*
X91668530Y-97829513D01*
X91672474Y-97833653D01*
X91676293Y-97837879D01*
X91679976Y-97842190D01*
X91683535Y-97846586D01*
X91686962Y-97851072D01*
X91690262Y-97855642D01*
X91693440Y-97860298D01*
X91696481Y-97865047D01*
X91699392Y-97869875D01*
X91702180Y-97874792D01*
X91704838Y-97879793D01*
X91707317Y-97884842D01*
X91709646Y-97889966D01*
X91711807Y-97895159D01*
X91713818Y-97900421D01*
X91715659Y-97905758D01*
X91717343Y-97911167D01*
X91718863Y-97916640D01*
X91720226Y-97922185D01*
X91721430Y-97927804D01*
X91722469Y-97933487D01*
X91723351Y-97939247D01*
X91724071Y-97945070D01*
X91724637Y-97950969D01*
X91725036Y-97956941D01*
X91725275Y-97962978D01*
X91725355Y-97969086D01*
X91725180Y-97978665D01*
X91724647Y-97988011D01*
X91723759Y-97997121D01*
X91722510Y-98005995D01*
X91720912Y-98014640D01*
X91718949Y-98023047D01*
X91716636Y-98031220D01*
X91713968Y-98039163D01*
X91710940Y-98046865D01*
X91707567Y-98054336D01*
X91703827Y-98061569D01*
X91699736Y-98068574D01*
X91695285Y-98075340D01*
X91690482Y-98081871D01*
X91685323Y-98088172D01*
X91679806Y-98094237D01*
X91673897Y-98100074D01*
X91667607Y-98105694D01*
X91660936Y-98111094D01*
X91653891Y-98116279D01*
X91646464Y-98121244D01*
X91638660Y-98125991D01*
X91630473Y-98130519D01*
X91621911Y-98134829D01*
X91612968Y-98138918D01*
X91603647Y-98142791D01*
X91593954Y-98146447D01*
X91583872Y-98149878D01*
X91573416Y-98153098D01*
X91562580Y-98156094D01*
X91551366Y-98158874D01*
X91539774Y-98161440D01*
X91429054Y-98184888D01*
X91422416Y-98186374D01*
X91416039Y-98187896D01*
X91409910Y-98189458D01*
X91404039Y-98191060D01*
X91398424Y-98192697D01*
X91393065Y-98194375D01*
X91387960Y-98196097D01*
X91383113Y-98197851D01*
X91378517Y-98199647D01*
X91374177Y-98201480D01*
X91370100Y-98203354D01*
X91366274Y-98205268D01*
X91362695Y-98207218D01*
X91359380Y-98209206D01*
X91356321Y-98211231D01*
X91353514Y-98213300D01*
X91350895Y-98215428D01*
X91348436Y-98217660D01*
X91346161Y-98219978D01*
X91344043Y-98222388D01*
X91342097Y-98224895D01*
X91340324Y-98227494D01*
X91338715Y-98230187D01*
X91337280Y-98232973D01*
X91336008Y-98235858D01*
X91334909Y-98238825D01*
X91333981Y-98241895D01*
X91333222Y-98245053D01*
X91332627Y-98248305D01*
X91332207Y-98251649D01*
X91331951Y-98255091D01*
X91331869Y-98258626D01*
X91331987Y-98262756D01*
X91332346Y-98266793D01*
X91332936Y-98270743D01*
X91333766Y-98274606D01*
X91334836Y-98278380D01*
X91336150Y-98282067D01*
X91337695Y-98285667D01*
X91339477Y-98289178D01*
X91341496Y-98292600D01*
X91343756Y-98295936D01*
X91346256Y-98299184D01*
X91348990Y-98302341D01*
X91351964Y-98305412D01*
X91355173Y-98308392D01*
X91358620Y-98311289D01*
X91362307Y-98314096D01*
X91366279Y-98316741D01*
X91370560Y-98319222D01*
X91375167Y-98321534D01*
X91380094Y-98323667D01*
X91385342Y-98325633D01*
X91390911Y-98327424D01*
X91396802Y-98329049D01*
X91403014Y-98330502D01*
X91409546Y-98331784D01*
X91416390Y-98332894D01*
X91423564Y-98333833D01*
X91431059Y-98334598D01*
X91438868Y-98335202D01*
X91447004Y-98335627D01*
X91455459Y-98335883D01*
X91464233Y-98335967D01*
X91476022Y-98335801D01*
X91487825Y-98335308D01*
X91499643Y-98334475D01*
X91511475Y-98333319D01*
X91523323Y-98331831D01*
X91535178Y-98330008D01*
X91547053Y-98327853D01*
X91558945Y-98325372D01*
X91570724Y-98322479D01*
X91582280Y-98319227D01*
X91593609Y-98315604D01*
X91604715Y-98311617D01*
X91615595Y-98307262D01*
X91626252Y-98302538D01*
X91636681Y-98297453D01*
X91646887Y-98291997D01*
X91649803Y-98290568D01*
X91652678Y-98289269D01*
X91655532Y-98288092D01*
X91658340Y-98287047D01*
X91661121Y-98286136D01*
X91663872Y-98285348D01*
X91666585Y-98284692D01*
X91669263Y-98284160D01*
X91671910Y-98283762D01*
X91674528Y-98283490D01*
X91677105Y-98283350D01*
X91679653Y-98283328D01*
X91682164Y-98283445D01*
X91684646Y-98283684D01*
X91687091Y-98284057D01*
X91689504Y-98284561D01*
X91691869Y-98285163D01*
X91694190Y-98285852D01*
X91696452Y-98286619D01*
X91698665Y-98287475D01*
X91700819Y-98288411D01*
X91702925Y-98289428D01*
X91704980Y-98290531D01*
X91706979Y-98291716D01*
X91708921Y-98292983D01*
X91710817Y-98294335D01*
X91712659Y-98295770D01*
X91714452Y-98297282D01*
X91716183Y-98298883D01*
X91717866Y-98300565D01*
X91719495Y-98302327D01*
X91721072Y-98304176D01*
X91722559Y-98306076D01*
X91723964Y-98308029D01*
X91725297Y-98310004D01*
X91726552Y-98312023D01*
X91727734Y-98314080D01*
X91728842Y-98316171D01*
X91729873Y-98318304D01*
X91730823Y-98320465D01*
X91731699Y-98322667D01*
X91732506Y-98324910D01*
X91733232Y-98327186D01*
X91733883Y-98329498D01*
X91734460Y-98331853D01*
X91734959Y-98334242D01*
X91735374Y-98336666D01*
X91735732Y-98339125D01*
X91735995Y-98341573D01*
X91736174Y-98344023D01*
X91736264Y-98346466D01*
X91736265Y-98348904D01*
X91736179Y-98351342D01*
X91736003Y-98353776D01*
X91735747Y-98356202D01*
X91735388Y-98358633D01*
X91734952Y-98361056D01*
X91734428Y-98363473D01*
X91733813Y-98365885D01*
X91733107Y-98368299D01*
X91732319Y-98370705D01*
X91731438Y-98373115D01*
X91730470Y-98375515D01*
X91729416Y-98377913D01*
X91728237Y-98380253D01*
X91726966Y-98382536D01*
X91725589Y-98384768D01*
X91724115Y-98386947D01*
X91722549Y-98389067D01*
X91720873Y-98391137D01*
X91719107Y-98393147D01*
X91717241Y-98395105D01*
X91715274Y-98397008D01*
X91713205Y-98398861D01*
X91711046Y-98400650D01*
X91708782Y-98402393D01*
X91706419Y-98404074D01*
X91703960Y-98405709D01*
X91701403Y-98407282D01*
X91698745Y-98408804D01*
X91691058Y-98413108D01*
X91683102Y-98417232D01*
X91674882Y-98421171D01*
X91666388Y-98424924D01*
X91657632Y-98428498D01*
X91648601Y-98431891D01*
X91639312Y-98435096D01*
X91629746Y-98438117D01*
X91619993Y-98440968D01*
X91610118Y-98443642D01*
X91600122Y-98446151D01*
X91590006Y-98448492D01*
X91579770Y-98450663D01*
X91569413Y-98452661D01*
X91558940Y-98454497D01*
X91548345Y-98456158D01*
X91537656Y-98457692D01*
X91527018Y-98459019D01*
X91516432Y-98460144D01*
X91505898Y-98461061D01*
X91495403Y-98461777D01*
X91484968Y-98462288D01*
X91474572Y-98462595D01*
X91464233Y-98462696D01*
X91448256Y-98462463D01*
X91432675Y-98461753D01*
X91417502Y-98460573D01*
X91402729Y-98458920D01*
X91388354Y-98456793D01*
X91374388Y-98454199D01*
X91360817Y-98451131D01*
X91347654Y-98447588D01*
X91341200Y-98445626D01*
X91334861Y-98443555D01*
X91328639Y-98441380D01*
X91322538Y-98439105D01*
X91316548Y-98436728D01*
X91310681Y-98434250D01*
X91304921Y-98431670D01*
X91299283Y-98428988D01*
X91293760Y-98426200D01*
X91288356Y-98423314D01*
X91283063Y-98420323D01*
X91277890Y-98417232D01*
X91272835Y-98414041D01*
X91267890Y-98410742D01*
X91263068Y-98407342D01*
X91258357Y-98403846D01*
X91253746Y-98400248D01*
X91249274Y-98396565D01*
X91244945Y-98392791D01*
X91240751Y-98388933D01*
X91236702Y-98384982D01*
X91232785Y-98380950D01*
X91229008Y-98376825D01*
X91225375Y-98372613D01*
X91221881Y-98368311D01*
X91218525Y-98363926D01*
X91215306Y-98359442D01*
X91212226Y-98354884D01*
X91209286Y-98350230D01*
X91206488Y-98345485D01*
X91203826Y-98340659D01*
X91201302Y-98335742D01*
X91198928Y-98330719D01*
X91196706Y-98325621D01*
X91194638Y-98320451D01*
X91192722Y-98315208D01*
X91190961Y-98309893D01*
X91189347Y-98304510D01*
X91187895Y-98299052D01*
X91186590Y-98293519D01*
X91185441Y-98287915D01*
X91184444Y-98282242D01*
X91183603Y-98276496D01*
X91182916Y-98270674D01*
X91182371Y-98264780D01*
X91181994Y-98258820D01*
X91181761Y-98252782D01*
X91181689Y-98246673D01*
X91181870Y-98237482D01*
X91182424Y-98228520D01*
X91183343Y-98219779D01*
X91184629Y-98211268D01*
X91186289Y-98202983D01*
X91188312Y-98194920D01*
X91190706Y-98187087D01*
X91193472Y-98179474D01*
X91196599Y-98172089D01*
X91200100Y-98164932D01*
X91203961Y-98157996D01*
X91208200Y-98151286D01*
X91212796Y-98144803D01*
X91217769Y-98138548D01*
X91223109Y-98132516D01*
X91228816Y-98126710D01*
X91234900Y-98121089D01*
X91241363Y-98115658D01*
X91248206Y-98110431D01*
X91255436Y-98105401D01*
X91263047Y-98100568D01*
X91271043Y-98095929D01*
X91279416Y-98091489D01*
X91288175Y-98087247D01*
X91297315Y-98083201D01*
X91306840Y-98079354D01*
X91316742Y-98075706D01*
X91327033Y-98072250D01*
X91337701Y-98068998D01*
X91348755Y-98065940D01*
X91360191Y-98063076D01*
X91372005Y-98060413D01*
X91482948Y-98036738D01*
X91489199Y-98035359D01*
X91495215Y-98033923D01*
X91500997Y-98032438D01*
X91506544Y-98030902D01*
X91511849Y-98029308D01*
X91516921Y-98027668D01*
X91521753Y-98025973D01*
X91526355Y-98024224D01*
X91530722Y-98022418D01*
X91534850Y-98020563D01*
X91538741Y-98018657D01*
X91542393Y-98016694D01*
X91545816Y-98014681D01*
X91548999Y-98012613D01*
X91551945Y-98010497D01*
X91554654Y-98008324D01*
X91557144Y-98006082D01*
X91559467Y-98003754D01*
X91561628Y-98001341D01*
X91563634Y-97998837D01*
X91565480Y-97996251D01*
X91567164Y-97993580D01*
X91568685Y-97990819D01*
X91570048Y-97987974D01*
X91571253Y-97985042D01*
X91572293Y-97982022D01*
X91573172Y-97978918D01*
X91573896Y-97975724D01*
X91574454Y-97972450D01*
X91574858Y-97969084D01*
X91575097Y-97965632D01*
X91575176Y-97962100D01*
X91575118Y-97958936D01*
X91574938Y-97955818D01*
X91574644Y-97952750D01*
X91574233Y-97949720D01*
X91573703Y-97946746D01*
X91573053Y-97943810D01*
X91572287Y-97940922D01*
X91571398Y-97938082D01*
X91570394Y-97935284D01*
X91569273Y-97932537D01*
X91568033Y-97929831D01*
X91566676Y-97927174D01*
X91565204Y-97924561D01*
X91563611Y-97921991D01*
X91561896Y-97919474D01*
X91560068Y-97917000D01*
X91558100Y-97914579D01*
X91556023Y-97912230D01*
X91553842Y-97909952D01*
X91551555Y-97907739D01*
X91549165Y-97905596D01*
X91546667Y-97903520D01*
X91544059Y-97901516D01*
X91541354Y-97899579D01*
X91538537Y-97897708D01*
X91535615Y-97895911D01*
X91532591Y-97894181D01*
X91529457Y-97892517D01*
X91526217Y-97890925D01*
X91522875Y-97889401D01*
X91519428Y-97887941D01*
X91515866Y-97886560D01*
X91512189Y-97885249D01*
X91508407Y-97884019D01*
X91504542Y-97882877D01*
X91500579Y-97881819D01*
X91496524Y-97880844D01*
X91492370Y-97879962D01*
X91483801Y-97878440D01*
X91474844Y-97877256D01*
X91465513Y-97876410D01*
X91455821Y-97875906D01*
X91445742Y-97875731D01*
X91436195Y-97875855D01*
X91426700Y-97876226D01*
X91417280Y-97876842D01*
X91407914Y-97877704D01*
X91398616Y-97878813D01*
X91389380Y-97880172D01*
X91380213Y-97881772D01*
X91371102Y-97883622D01*
X91362091Y-97885732D01*
X91353190Y-97888118D01*
X91344415Y-97890781D01*
X91335754Y-97893717D01*
X91327220Y-97896925D01*
X91318802Y-97900412D01*
X91310503Y-97904170D01*
X91302327Y-97908203D01*
X91299058Y-97909744D01*
X91295851Y-97911158D01*
X91292703Y-97912436D01*
X91289613Y-97913587D01*
X91286588Y-97914608D01*
X91283619Y-97915499D01*
X91280713Y-97916254D01*
X91277859Y-97916887D01*
X91275075Y-97917382D01*
X91272340Y-97917750D01*
X91269671Y-97917991D01*
X91267065Y-97918098D01*
X91264516Y-97918073D01*
X91262024Y-97917924D01*
X91259603Y-97917640D01*
X91257228Y-97917227D01*
X91254914Y-97916676D01*
X91252653Y-97916058D01*
X91250440Y-97915360D01*
X91248277Y-97914587D01*
X91246169Y-97913741D01*
X91244107Y-97912819D01*
X91242104Y-97911818D01*
X91240147Y-97910738D01*
X91238237Y-97909589D01*
X91236389Y-97908363D01*
X91234582Y-97907060D01*
X91232829Y-97905679D01*
X91231131Y-97904227D01*
X91229480Y-97902696D01*
X91227881Y-97901092D01*
X91226337Y-97899408D01*
X91224851Y-97897672D01*
X91223442Y-97895906D01*
X91222112Y-97894099D01*
X91220852Y-97892264D01*
X91219670Y-97890394D01*
X91218567Y-97888492D01*
X91217537Y-97886556D01*
X91216581Y-97884584D01*
X91215707Y-97882580D01*
X91214900Y-97880539D01*
X91214173Y-97878472D01*
X91213527Y-97876369D01*
X91212950Y-97874228D01*
X91212450Y-97872057D01*
X91212027Y-97869856D01*
X91211679Y-97867612D01*
X91211405Y-97865331D01*
X91211213Y-97863050D01*
X91211096Y-97860770D01*
X91211059Y-97858497D01*
X91211096Y-97856217D01*
X91211213Y-97853946D01*
X91211405Y-97851674D01*
X91211679Y-97849407D01*
X91212028Y-97847139D01*
X91212452Y-97844872D01*
X91212958Y-97842607D01*
X91213536Y-97840347D01*
X91214196Y-97838082D01*
X91214935Y-97835826D01*
X91215749Y-97833567D01*
X91216639Y-97831314D01*
X91217585Y-97829053D01*
X91218636Y-97826845D01*
X91219783Y-97824692D01*
X91221020Y-97822586D01*
X91222360Y-97820532D01*
X91223798Y-97818531D01*
X91225323Y-97816581D01*
X91226954Y-97814684D01*
X91228682Y-97812831D01*
X91230503Y-97811034D01*
X91232424Y-97809289D01*
X91234440Y-97807592D01*
X91236554Y-97805946D01*
X91238761Y-97804353D01*
X91241066Y-97802810D01*
X91243470Y-97801314D01*
X91248566Y-97798160D01*
X91253763Y-97795088D01*
X91259053Y-97792125D01*
X91264445Y-97789256D01*
X91275524Y-97783819D01*
X91286993Y-97778769D01*
X91298856Y-97774117D01*
X91311120Y-97769863D01*
X91323779Y-97765999D01*
X91336831Y-97762531D01*
X91350105Y-97759414D01*
X91363436Y-97756712D01*
X91376822Y-97754426D01*
X91390270Y-97752554D01*
X91403771Y-97751102D01*
X91417331Y-97750061D01*
X91430947Y-97749437D01*
X91444613Y-97749230D01*
X91459902Y-97749477D01*
G37*
D13*
X109626725Y-99632919D02*
X109055297Y-99632919D01*
X109341011Y-100632919D02*
X109341011Y-99632919D01*
X108150535Y-100632919D02*
X108483868Y-100156728D01*
X108721963Y-100632919D02*
X108721963Y-99632919D01*
X108721963Y-99632919D02*
X108341011Y-99632919D01*
X108341011Y-99632919D02*
X108245773Y-99680538D01*
X108245773Y-99680538D02*
X108198154Y-99728157D01*
X108198154Y-99728157D02*
X108150535Y-99823395D01*
X108150535Y-99823395D02*
X108150535Y-99966252D01*
X108150535Y-99966252D02*
X108198154Y-100061490D01*
X108198154Y-100061490D02*
X108245773Y-100109109D01*
X108245773Y-100109109D02*
X108341011Y-100156728D01*
X108341011Y-100156728D02*
X108721963Y-100156728D01*
X107150535Y-100632919D02*
X107483868Y-100156728D01*
X107721963Y-100632919D02*
X107721963Y-99632919D01*
X107721963Y-99632919D02*
X107341011Y-99632919D01*
X107341011Y-99632919D02*
X107245773Y-99680538D01*
X107245773Y-99680538D02*
X107198154Y-99728157D01*
X107198154Y-99728157D02*
X107150535Y-99823395D01*
X107150535Y-99823395D02*
X107150535Y-99966252D01*
X107150535Y-99966252D02*
X107198154Y-100061490D01*
X107198154Y-100061490D02*
X107245773Y-100109109D01*
X107245773Y-100109109D02*
X107341011Y-100156728D01*
X107341011Y-100156728D02*
X107721963Y-100156728D01*
X106769582Y-100585300D02*
X106626725Y-100632919D01*
X106626725Y-100632919D02*
X106388630Y-100632919D01*
X106388630Y-100632919D02*
X106293392Y-100585300D01*
X106293392Y-100585300D02*
X106245773Y-100537680D01*
X106245773Y-100537680D02*
X106198154Y-100442442D01*
X106198154Y-100442442D02*
X106198154Y-100347204D01*
X106198154Y-100347204D02*
X106245773Y-100251966D01*
X106245773Y-100251966D02*
X106293392Y-100204347D01*
X106293392Y-100204347D02*
X106388630Y-100156728D01*
X106388630Y-100156728D02*
X106579106Y-100109109D01*
X106579106Y-100109109D02*
X106674344Y-100061490D01*
X106674344Y-100061490D02*
X106721963Y-100013871D01*
X106721963Y-100013871D02*
X106769582Y-99918633D01*
X106769582Y-99918633D02*
X106769582Y-99823395D01*
X106769582Y-99823395D02*
X106721963Y-99728157D01*
X106721963Y-99728157D02*
X106674344Y-99680538D01*
X106674344Y-99680538D02*
X106579106Y-99632919D01*
X106579106Y-99632919D02*
X106341011Y-99632919D01*
X106341011Y-99632919D02*
X106198154Y-99680538D01*
X104721963Y-99632919D02*
X104721963Y-100347204D01*
X104721963Y-100347204D02*
X104769582Y-100490061D01*
X104769582Y-100490061D02*
X104864820Y-100585300D01*
X104864820Y-100585300D02*
X105007677Y-100632919D01*
X105007677Y-100632919D02*
X105102915Y-100632919D01*
X104293391Y-100347204D02*
X103817201Y-100347204D01*
X104388629Y-100632919D02*
X104055296Y-99632919D01*
X104055296Y-99632919D02*
X103721963Y-100632919D01*
X102817201Y-100537680D02*
X102864820Y-100585300D01*
X102864820Y-100585300D02*
X103007677Y-100632919D01*
X103007677Y-100632919D02*
X103102915Y-100632919D01*
X103102915Y-100632919D02*
X103245772Y-100585300D01*
X103245772Y-100585300D02*
X103341010Y-100490061D01*
X103341010Y-100490061D02*
X103388629Y-100394823D01*
X103388629Y-100394823D02*
X103436248Y-100204347D01*
X103436248Y-100204347D02*
X103436248Y-100061490D01*
X103436248Y-100061490D02*
X103388629Y-99871014D01*
X103388629Y-99871014D02*
X103341010Y-99775776D01*
X103341010Y-99775776D02*
X103245772Y-99680538D01*
X103245772Y-99680538D02*
X103102915Y-99632919D01*
X103102915Y-99632919D02*
X103007677Y-99632919D01*
X103007677Y-99632919D02*
X102864820Y-99680538D01*
X102864820Y-99680538D02*
X102817201Y-99728157D01*
X102388629Y-100632919D02*
X102388629Y-99632919D01*
X101817201Y-100632919D02*
X102245772Y-100061490D01*
X101817201Y-99632919D02*
X102388629Y-100204347D01*
X130718268Y-84163975D02*
X130718268Y-83163975D01*
X130718268Y-83163975D02*
X130337316Y-83163975D01*
X130337316Y-83163975D02*
X130242078Y-83211594D01*
X130242078Y-83211594D02*
X130194459Y-83259213D01*
X130194459Y-83259213D02*
X130146840Y-83354451D01*
X130146840Y-83354451D02*
X130146840Y-83497308D01*
X130146840Y-83497308D02*
X130194459Y-83592546D01*
X130194459Y-83592546D02*
X130242078Y-83640165D01*
X130242078Y-83640165D02*
X130337316Y-83687784D01*
X130337316Y-83687784D02*
X130718268Y-83687784D01*
X129718268Y-84163975D02*
X129718268Y-83163975D01*
X129718268Y-83640165D02*
X129146840Y-83640165D01*
X129146840Y-84163975D02*
X129146840Y-83163975D01*
X128670649Y-84163975D02*
X128670649Y-83163975D01*
X128670649Y-83163975D02*
X128099221Y-84163975D01*
X128099221Y-84163975D02*
X128099221Y-83163975D01*
X127765887Y-83163975D02*
X127194459Y-83163975D01*
X127480173Y-84163975D02*
X127480173Y-83163975D01*
X126861125Y-84163975D02*
X126861125Y-83163975D01*
X126861125Y-83163975D02*
X126527792Y-83878260D01*
X126527792Y-83878260D02*
X126194459Y-83163975D01*
X126194459Y-83163975D02*
X126194459Y-84163975D01*
X130718268Y-85773919D02*
X130718268Y-84773919D01*
X130718268Y-84773919D02*
X130337316Y-84773919D01*
X130337316Y-84773919D02*
X130242078Y-84821538D01*
X130242078Y-84821538D02*
X130194459Y-84869157D01*
X130194459Y-84869157D02*
X130146840Y-84964395D01*
X130146840Y-84964395D02*
X130146840Y-85107252D01*
X130146840Y-85107252D02*
X130194459Y-85202490D01*
X130194459Y-85202490D02*
X130242078Y-85250109D01*
X130242078Y-85250109D02*
X130337316Y-85297728D01*
X130337316Y-85297728D02*
X130718268Y-85297728D01*
X129527792Y-84773919D02*
X129337316Y-84773919D01*
X129337316Y-84773919D02*
X129242078Y-84821538D01*
X129242078Y-84821538D02*
X129146840Y-84916776D01*
X129146840Y-84916776D02*
X129099221Y-85107252D01*
X129099221Y-85107252D02*
X129099221Y-85440585D01*
X129099221Y-85440585D02*
X129146840Y-85631061D01*
X129146840Y-85631061D02*
X129242078Y-85726300D01*
X129242078Y-85726300D02*
X129337316Y-85773919D01*
X129337316Y-85773919D02*
X129527792Y-85773919D01*
X129527792Y-85773919D02*
X129623030Y-85726300D01*
X129623030Y-85726300D02*
X129718268Y-85631061D01*
X129718268Y-85631061D02*
X129765887Y-85440585D01*
X129765887Y-85440585D02*
X129765887Y-85107252D01*
X129765887Y-85107252D02*
X129718268Y-84916776D01*
X129718268Y-84916776D02*
X129623030Y-84821538D01*
X129623030Y-84821538D02*
X129527792Y-84773919D01*
X128765887Y-84773919D02*
X128527792Y-85773919D01*
X128527792Y-85773919D02*
X128337316Y-85059633D01*
X128337316Y-85059633D02*
X128146840Y-85773919D01*
X128146840Y-85773919D02*
X127908745Y-84773919D01*
X127527792Y-85250109D02*
X127194459Y-85250109D01*
X127051602Y-85773919D02*
X127527792Y-85773919D01*
X127527792Y-85773919D02*
X127527792Y-84773919D01*
X127527792Y-84773919D02*
X127051602Y-84773919D01*
X126051602Y-85773919D02*
X126384935Y-85297728D01*
X126623030Y-85773919D02*
X126623030Y-84773919D01*
X126623030Y-84773919D02*
X126242078Y-84773919D01*
X126242078Y-84773919D02*
X126146840Y-84821538D01*
X126146840Y-84821538D02*
X126099221Y-84869157D01*
X126099221Y-84869157D02*
X126051602Y-84964395D01*
X126051602Y-84964395D02*
X126051602Y-85107252D01*
X126051602Y-85107252D02*
X126099221Y-85202490D01*
X126099221Y-85202490D02*
X126146840Y-85250109D01*
X126146840Y-85250109D02*
X126242078Y-85297728D01*
X126242078Y-85297728D02*
X126623030Y-85297728D01*
X84730024Y-94950990D02*
X83730024Y-94284324D01*
X84730024Y-94284324D02*
X83730024Y-94950990D01*
X83730024Y-93427181D02*
X83730024Y-93903371D01*
X83730024Y-93903371D02*
X84730024Y-93903371D01*
X83730024Y-92522419D02*
X84206215Y-92855752D01*
X83730024Y-93093847D02*
X84730024Y-93093847D01*
X84730024Y-93093847D02*
X84730024Y-92712895D01*
X84730024Y-92712895D02*
X84682405Y-92617657D01*
X84682405Y-92617657D02*
X84634786Y-92570038D01*
X84634786Y-92570038D02*
X84539548Y-92522419D01*
X84539548Y-92522419D02*
X84396691Y-92522419D01*
X84396691Y-92522419D02*
X84301453Y-92570038D01*
X84301453Y-92570038D02*
X84253834Y-92617657D01*
X84253834Y-92617657D02*
X84206215Y-92712895D01*
X84206215Y-92712895D02*
X84206215Y-93093847D01*
X84110977Y-91331942D02*
X84110977Y-90570038D01*
X83730024Y-90950990D02*
X84491929Y-90950990D01*
X83730024Y-88808133D02*
X83730024Y-89379561D01*
X83730024Y-89093847D02*
X84730024Y-89093847D01*
X84730024Y-89093847D02*
X84587167Y-89189085D01*
X84587167Y-89189085D02*
X84491929Y-89284323D01*
X84491929Y-89284323D02*
X84444310Y-89379561D01*
X84777644Y-87665276D02*
X83491929Y-88522418D01*
X84396691Y-86903371D02*
X83730024Y-86903371D01*
X84777644Y-87141466D02*
X84063358Y-87379561D01*
X84063358Y-87379561D02*
X84063358Y-86760514D01*
X84730024Y-86427180D02*
X84539548Y-86427180D01*
X84730024Y-86046228D02*
X84539548Y-86046228D01*
X82120080Y-92403370D02*
X83120080Y-92403370D01*
X82120080Y-91927180D02*
X83120080Y-91927180D01*
X83120080Y-91927180D02*
X82120080Y-91355752D01*
X82120080Y-91355752D02*
X83120080Y-91355752D01*
X82120080Y-90879561D02*
X83120080Y-90879561D01*
X83120080Y-90879561D02*
X83120080Y-90498609D01*
X83120080Y-90498609D02*
X83072461Y-90403371D01*
X83072461Y-90403371D02*
X83024842Y-90355752D01*
X83024842Y-90355752D02*
X82929604Y-90308133D01*
X82929604Y-90308133D02*
X82786747Y-90308133D01*
X82786747Y-90308133D02*
X82691509Y-90355752D01*
X82691509Y-90355752D02*
X82643890Y-90403371D01*
X82643890Y-90403371D02*
X82596271Y-90498609D01*
X82596271Y-90498609D02*
X82596271Y-90879561D01*
X83120080Y-89879561D02*
X82310557Y-89879561D01*
X82310557Y-89879561D02*
X82215319Y-89831942D01*
X82215319Y-89831942D02*
X82167700Y-89784323D01*
X82167700Y-89784323D02*
X82120080Y-89689085D01*
X82120080Y-89689085D02*
X82120080Y-89498609D01*
X82120080Y-89498609D02*
X82167700Y-89403371D01*
X82167700Y-89403371D02*
X82215319Y-89355752D01*
X82215319Y-89355752D02*
X82310557Y-89308133D01*
X82310557Y-89308133D02*
X83120080Y-89308133D01*
X83120080Y-88974799D02*
X83120080Y-88403371D01*
X82120080Y-88689085D02*
X83120080Y-88689085D01*
D14*
X93923349Y-100578869D02*
X93923349Y-99578869D01*
X93923349Y-100055059D02*
X93351921Y-100055059D01*
X93351921Y-100578869D02*
X93351921Y-99578869D01*
X92447159Y-100578869D02*
X92447159Y-100055059D01*
X92447159Y-100055059D02*
X92494778Y-99959821D01*
X92494778Y-99959821D02*
X92590016Y-99912202D01*
X92590016Y-99912202D02*
X92780492Y-99912202D01*
X92780492Y-99912202D02*
X92875730Y-99959821D01*
X92447159Y-100531250D02*
X92542397Y-100578869D01*
X92542397Y-100578869D02*
X92780492Y-100578869D01*
X92780492Y-100578869D02*
X92875730Y-100531250D01*
X92875730Y-100531250D02*
X92923349Y-100436011D01*
X92923349Y-100436011D02*
X92923349Y-100340773D01*
X92923349Y-100340773D02*
X92875730Y-100245535D01*
X92875730Y-100245535D02*
X92780492Y-100197916D01*
X92780492Y-100197916D02*
X92542397Y-100197916D01*
X92542397Y-100197916D02*
X92447159Y-100150297D01*
X92113825Y-99912202D02*
X91732873Y-99912202D01*
X91970968Y-99578869D02*
X91970968Y-100436011D01*
X91970968Y-100436011D02*
X91923349Y-100531250D01*
X91923349Y-100531250D02*
X91828111Y-100578869D01*
X91828111Y-100578869D02*
X91732873Y-100578869D01*
X91399539Y-100197916D02*
X90637635Y-100197916D01*
X90304301Y-99912202D02*
X89923349Y-99912202D01*
X90161444Y-99578869D02*
X90161444Y-100436011D01*
X90161444Y-100436011D02*
X90113825Y-100531250D01*
X90113825Y-100531250D02*
X90018587Y-100578869D01*
X90018587Y-100578869D02*
X89923349Y-100578869D01*
X89590015Y-100578869D02*
X89590015Y-99912202D01*
X89590015Y-100102678D02*
X89542396Y-100007440D01*
X89542396Y-100007440D02*
X89494777Y-99959821D01*
X89494777Y-99959821D02*
X89399539Y-99912202D01*
X89399539Y-99912202D02*
X89304301Y-99912202D01*
X88970967Y-100578869D02*
X88970967Y-99912202D01*
X88970967Y-99578869D02*
X89018586Y-99626488D01*
X89018586Y-99626488D02*
X88970967Y-99674107D01*
X88970967Y-99674107D02*
X88923348Y-99626488D01*
X88923348Y-99626488D02*
X88970967Y-99578869D01*
X88970967Y-99578869D02*
X88970967Y-99674107D01*
X88494777Y-100578869D02*
X88494777Y-99578869D01*
X88399539Y-100197916D02*
X88113825Y-100578869D01*
X88113825Y-99912202D02*
X88494777Y-100293154D01*
X87018586Y-99912202D02*
X86780491Y-100578869D01*
X86780491Y-100578869D02*
X86542396Y-99912202D01*
X85637634Y-100578869D02*
X86209062Y-100578869D01*
X85923348Y-100578869D02*
X85923348Y-99578869D01*
X85923348Y-99578869D02*
X86018586Y-99721726D01*
X86018586Y-99721726D02*
X86113824Y-99816964D01*
X86113824Y-99816964D02*
X86209062Y-99864583D01*
D15*
X104398628Y-86018019D02*
X104208152Y-86018019D01*
X104208152Y-86018019D02*
X104112914Y-86065638D01*
X104112914Y-86065638D02*
X104017676Y-86160876D01*
X104017676Y-86160876D02*
X103970057Y-86351352D01*
X103970057Y-86351352D02*
X103970057Y-86684685D01*
X103970057Y-86684685D02*
X104017676Y-86875161D01*
X104017676Y-86875161D02*
X104112914Y-86970400D01*
X104112914Y-86970400D02*
X104208152Y-87018019D01*
X104208152Y-87018019D02*
X104398628Y-87018019D01*
X104398628Y-87018019D02*
X104493866Y-86970400D01*
X104493866Y-86970400D02*
X104589104Y-86875161D01*
X104589104Y-86875161D02*
X104636723Y-86684685D01*
X104636723Y-86684685D02*
X104636723Y-86351352D01*
X104636723Y-86351352D02*
X104589104Y-86160876D01*
X104589104Y-86160876D02*
X104493866Y-86065638D01*
X104493866Y-86065638D02*
X104398628Y-86018019D01*
X103541485Y-87018019D02*
X103541485Y-86018019D01*
X102970057Y-87018019D02*
X103398628Y-86446590D01*
X102970057Y-86018019D02*
X103541485Y-86589447D01*
X102017676Y-87018019D02*
X102589104Y-87018019D01*
X102303390Y-87018019D02*
X102303390Y-86018019D01*
X102303390Y-86018019D02*
X102398628Y-86160876D01*
X102398628Y-86160876D02*
X102493866Y-86256114D01*
X102493866Y-86256114D02*
X102589104Y-86303733D01*
X123890066Y-87430780D02*
X123937685Y-87478400D01*
X123937685Y-87478400D02*
X124080542Y-87526019D01*
X124080542Y-87526019D02*
X124175780Y-87526019D01*
X124175780Y-87526019D02*
X124318637Y-87478400D01*
X124318637Y-87478400D02*
X124413875Y-87383161D01*
X124413875Y-87383161D02*
X124461494Y-87287923D01*
X124461494Y-87287923D02*
X124509113Y-87097447D01*
X124509113Y-87097447D02*
X124509113Y-86954590D01*
X124509113Y-86954590D02*
X124461494Y-86764114D01*
X124461494Y-86764114D02*
X124413875Y-86668876D01*
X124413875Y-86668876D02*
X124318637Y-86573638D01*
X124318637Y-86573638D02*
X124175780Y-86526019D01*
X124175780Y-86526019D02*
X124080542Y-86526019D01*
X124080542Y-86526019D02*
X123937685Y-86573638D01*
X123937685Y-86573638D02*
X123890066Y-86621257D01*
X123413875Y-87526019D02*
X123223399Y-87526019D01*
X123223399Y-87526019D02*
X123128161Y-87478400D01*
X123128161Y-87478400D02*
X123080542Y-87430780D01*
X123080542Y-87430780D02*
X122985304Y-87287923D01*
X122985304Y-87287923D02*
X122937685Y-87097447D01*
X122937685Y-87097447D02*
X122937685Y-86716495D01*
X122937685Y-86716495D02*
X122985304Y-86621257D01*
X122985304Y-86621257D02*
X123032923Y-86573638D01*
X123032923Y-86573638D02*
X123128161Y-86526019D01*
X123128161Y-86526019D02*
X123318637Y-86526019D01*
X123318637Y-86526019D02*
X123413875Y-86573638D01*
X123413875Y-86573638D02*
X123461494Y-86621257D01*
X123461494Y-86621257D02*
X123509113Y-86716495D01*
X123509113Y-86716495D02*
X123509113Y-86954590D01*
X123509113Y-86954590D02*
X123461494Y-87049828D01*
X123461494Y-87049828D02*
X123413875Y-87097447D01*
X123413875Y-87097447D02*
X123318637Y-87145066D01*
X123318637Y-87145066D02*
X123128161Y-87145066D01*
X123128161Y-87145066D02*
X123032923Y-87097447D01*
X123032923Y-87097447D02*
X122985304Y-87049828D01*
X122985304Y-87049828D02*
X122937685Y-86954590D01*
X110738094Y-92504419D02*
X110738094Y-91504419D01*
X110738094Y-91504419D02*
X110499999Y-91504419D01*
X110499999Y-91504419D02*
X110357142Y-91552038D01*
X110357142Y-91552038D02*
X110261904Y-91647276D01*
X110261904Y-91647276D02*
X110214285Y-91742514D01*
X110214285Y-91742514D02*
X110166666Y-91932990D01*
X110166666Y-91932990D02*
X110166666Y-92075847D01*
X110166666Y-92075847D02*
X110214285Y-92266323D01*
X110214285Y-92266323D02*
X110261904Y-92361561D01*
X110261904Y-92361561D02*
X110357142Y-92456800D01*
X110357142Y-92456800D02*
X110499999Y-92504419D01*
X110499999Y-92504419D02*
X110738094Y-92504419D01*
X109785713Y-91599657D02*
X109738094Y-91552038D01*
X109738094Y-91552038D02*
X109642856Y-91504419D01*
X109642856Y-91504419D02*
X109404761Y-91504419D01*
X109404761Y-91504419D02*
X109309523Y-91552038D01*
X109309523Y-91552038D02*
X109261904Y-91599657D01*
X109261904Y-91599657D02*
X109214285Y-91694895D01*
X109214285Y-91694895D02*
X109214285Y-91790133D01*
X109214285Y-91790133D02*
X109261904Y-91932990D01*
X109261904Y-91932990D02*
X109833332Y-92504419D01*
X109833332Y-92504419D02*
X109214285Y-92504419D01*
X120867466Y-97997180D02*
X120915085Y-98044800D01*
X120915085Y-98044800D02*
X121057942Y-98092419D01*
X121057942Y-98092419D02*
X121153180Y-98092419D01*
X121153180Y-98092419D02*
X121296037Y-98044800D01*
X121296037Y-98044800D02*
X121391275Y-97949561D01*
X121391275Y-97949561D02*
X121438894Y-97854323D01*
X121438894Y-97854323D02*
X121486513Y-97663847D01*
X121486513Y-97663847D02*
X121486513Y-97520990D01*
X121486513Y-97520990D02*
X121438894Y-97330514D01*
X121438894Y-97330514D02*
X121391275Y-97235276D01*
X121391275Y-97235276D02*
X121296037Y-97140038D01*
X121296037Y-97140038D02*
X121153180Y-97092419D01*
X121153180Y-97092419D02*
X121057942Y-97092419D01*
X121057942Y-97092419D02*
X120915085Y-97140038D01*
X120915085Y-97140038D02*
X120867466Y-97187657D01*
X120296037Y-97520990D02*
X120391275Y-97473371D01*
X120391275Y-97473371D02*
X120438894Y-97425752D01*
X120438894Y-97425752D02*
X120486513Y-97330514D01*
X120486513Y-97330514D02*
X120486513Y-97282895D01*
X120486513Y-97282895D02*
X120438894Y-97187657D01*
X120438894Y-97187657D02*
X120391275Y-97140038D01*
X120391275Y-97140038D02*
X120296037Y-97092419D01*
X120296037Y-97092419D02*
X120105561Y-97092419D01*
X120105561Y-97092419D02*
X120010323Y-97140038D01*
X120010323Y-97140038D02*
X119962704Y-97187657D01*
X119962704Y-97187657D02*
X119915085Y-97282895D01*
X119915085Y-97282895D02*
X119915085Y-97330514D01*
X119915085Y-97330514D02*
X119962704Y-97425752D01*
X119962704Y-97425752D02*
X120010323Y-97473371D01*
X120010323Y-97473371D02*
X120105561Y-97520990D01*
X120105561Y-97520990D02*
X120296037Y-97520990D01*
X120296037Y-97520990D02*
X120391275Y-97568609D01*
X120391275Y-97568609D02*
X120438894Y-97616228D01*
X120438894Y-97616228D02*
X120486513Y-97711466D01*
X120486513Y-97711466D02*
X120486513Y-97901942D01*
X120486513Y-97901942D02*
X120438894Y-97997180D01*
X120438894Y-97997180D02*
X120391275Y-98044800D01*
X120391275Y-98044800D02*
X120296037Y-98092419D01*
X120296037Y-98092419D02*
X120105561Y-98092419D01*
X120105561Y-98092419D02*
X120010323Y-98044800D01*
X120010323Y-98044800D02*
X119962704Y-97997180D01*
X119962704Y-97997180D02*
X119915085Y-97901942D01*
X119915085Y-97901942D02*
X119915085Y-97711466D01*
X119915085Y-97711466D02*
X119962704Y-97616228D01*
X119962704Y-97616228D02*
X120010323Y-97568609D01*
X120010323Y-97568609D02*
X120105561Y-97520990D01*
X106179857Y-89634219D02*
X106513190Y-89158028D01*
X106751285Y-89634219D02*
X106751285Y-88634219D01*
X106751285Y-88634219D02*
X106370333Y-88634219D01*
X106370333Y-88634219D02*
X106275095Y-88681838D01*
X106275095Y-88681838D02*
X106227476Y-88729457D01*
X106227476Y-88729457D02*
X106179857Y-88824695D01*
X106179857Y-88824695D02*
X106179857Y-88967552D01*
X106179857Y-88967552D02*
X106227476Y-89062790D01*
X106227476Y-89062790D02*
X106275095Y-89110409D01*
X106275095Y-89110409D02*
X106370333Y-89158028D01*
X106370333Y-89158028D02*
X106751285Y-89158028D01*
X105227476Y-89634219D02*
X105798904Y-89634219D01*
X105513190Y-89634219D02*
X105513190Y-88634219D01*
X105513190Y-88634219D02*
X105608428Y-88777076D01*
X105608428Y-88777076D02*
X105703666Y-88872314D01*
X105703666Y-88872314D02*
X105798904Y-88919933D01*
X104846523Y-88729457D02*
X104798904Y-88681838D01*
X104798904Y-88681838D02*
X104703666Y-88634219D01*
X104703666Y-88634219D02*
X104465571Y-88634219D01*
X104465571Y-88634219D02*
X104370333Y-88681838D01*
X104370333Y-88681838D02*
X104322714Y-88729457D01*
X104322714Y-88729457D02*
X104275095Y-88824695D01*
X104275095Y-88824695D02*
X104275095Y-88919933D01*
X104275095Y-88919933D02*
X104322714Y-89062790D01*
X104322714Y-89062790D02*
X104894142Y-89634219D01*
X104894142Y-89634219D02*
X104275095Y-89634219D01*
X123458266Y-94384019D02*
X123791599Y-93907828D01*
X124029694Y-94384019D02*
X124029694Y-93384019D01*
X124029694Y-93384019D02*
X123648742Y-93384019D01*
X123648742Y-93384019D02*
X123553504Y-93431638D01*
X123553504Y-93431638D02*
X123505885Y-93479257D01*
X123505885Y-93479257D02*
X123458266Y-93574495D01*
X123458266Y-93574495D02*
X123458266Y-93717352D01*
X123458266Y-93717352D02*
X123505885Y-93812590D01*
X123505885Y-93812590D02*
X123553504Y-93860209D01*
X123553504Y-93860209D02*
X123648742Y-93907828D01*
X123648742Y-93907828D02*
X124029694Y-93907828D01*
X123124932Y-93384019D02*
X122505885Y-93384019D01*
X122505885Y-93384019D02*
X122839218Y-93764971D01*
X122839218Y-93764971D02*
X122696361Y-93764971D01*
X122696361Y-93764971D02*
X122601123Y-93812590D01*
X122601123Y-93812590D02*
X122553504Y-93860209D01*
X122553504Y-93860209D02*
X122505885Y-93955447D01*
X122505885Y-93955447D02*
X122505885Y-94193542D01*
X122505885Y-94193542D02*
X122553504Y-94288780D01*
X122553504Y-94288780D02*
X122601123Y-94336400D01*
X122601123Y-94336400D02*
X122696361Y-94384019D01*
X122696361Y-94384019D02*
X122982075Y-94384019D01*
X122982075Y-94384019D02*
X123077313Y-94336400D01*
X123077313Y-94336400D02*
X123124932Y-94288780D01*
X123610666Y-98117819D02*
X123943999Y-97641628D01*
X124182094Y-98117819D02*
X124182094Y-97117819D01*
X124182094Y-97117819D02*
X123801142Y-97117819D01*
X123801142Y-97117819D02*
X123705904Y-97165438D01*
X123705904Y-97165438D02*
X123658285Y-97213057D01*
X123658285Y-97213057D02*
X123610666Y-97308295D01*
X123610666Y-97308295D02*
X123610666Y-97451152D01*
X123610666Y-97451152D02*
X123658285Y-97546390D01*
X123658285Y-97546390D02*
X123705904Y-97594009D01*
X123705904Y-97594009D02*
X123801142Y-97641628D01*
X123801142Y-97641628D02*
X124182094Y-97641628D01*
X122753523Y-97451152D02*
X122753523Y-98117819D01*
X122991618Y-97070200D02*
X123229713Y-97784485D01*
X123229713Y-97784485D02*
X122610666Y-97784485D01*
X121197666Y-94339580D02*
X121245285Y-94387200D01*
X121245285Y-94387200D02*
X121388142Y-94434819D01*
X121388142Y-94434819D02*
X121483380Y-94434819D01*
X121483380Y-94434819D02*
X121626237Y-94387200D01*
X121626237Y-94387200D02*
X121721475Y-94291961D01*
X121721475Y-94291961D02*
X121769094Y-94196723D01*
X121769094Y-94196723D02*
X121816713Y-94006247D01*
X121816713Y-94006247D02*
X121816713Y-93863390D01*
X121816713Y-93863390D02*
X121769094Y-93672914D01*
X121769094Y-93672914D02*
X121721475Y-93577676D01*
X121721475Y-93577676D02*
X121626237Y-93482438D01*
X121626237Y-93482438D02*
X121483380Y-93434819D01*
X121483380Y-93434819D02*
X121388142Y-93434819D01*
X121388142Y-93434819D02*
X121245285Y-93482438D01*
X121245285Y-93482438D02*
X121197666Y-93530057D01*
X120864332Y-93434819D02*
X120197666Y-93434819D01*
X120197666Y-93434819D02*
X120626237Y-94434819D01*
X118657666Y-97997180D02*
X118705285Y-98044800D01*
X118705285Y-98044800D02*
X118848142Y-98092419D01*
X118848142Y-98092419D02*
X118943380Y-98092419D01*
X118943380Y-98092419D02*
X119086237Y-98044800D01*
X119086237Y-98044800D02*
X119181475Y-97949561D01*
X119181475Y-97949561D02*
X119229094Y-97854323D01*
X119229094Y-97854323D02*
X119276713Y-97663847D01*
X119276713Y-97663847D02*
X119276713Y-97520990D01*
X119276713Y-97520990D02*
X119229094Y-97330514D01*
X119229094Y-97330514D02*
X119181475Y-97235276D01*
X119181475Y-97235276D02*
X119086237Y-97140038D01*
X119086237Y-97140038D02*
X118943380Y-97092419D01*
X118943380Y-97092419D02*
X118848142Y-97092419D01*
X118848142Y-97092419D02*
X118705285Y-97140038D01*
X118705285Y-97140038D02*
X118657666Y-97187657D01*
X117752904Y-97092419D02*
X118229094Y-97092419D01*
X118229094Y-97092419D02*
X118276713Y-97568609D01*
X118276713Y-97568609D02*
X118229094Y-97520990D01*
X118229094Y-97520990D02*
X118133856Y-97473371D01*
X118133856Y-97473371D02*
X117895761Y-97473371D01*
X117895761Y-97473371D02*
X117800523Y-97520990D01*
X117800523Y-97520990D02*
X117752904Y-97568609D01*
X117752904Y-97568609D02*
X117705285Y-97663847D01*
X117705285Y-97663847D02*
X117705285Y-97901942D01*
X117705285Y-97901942D02*
X117752904Y-97997180D01*
X117752904Y-97997180D02*
X117800523Y-98044800D01*
X117800523Y-98044800D02*
X117895761Y-98092419D01*
X117895761Y-98092419D02*
X118133856Y-98092419D01*
X118133856Y-98092419D02*
X118229094Y-98044800D01*
X118229094Y-98044800D02*
X118276713Y-97997180D01*
X89354819Y-83551733D02*
X88878628Y-83218400D01*
X89354819Y-82980305D02*
X88354819Y-82980305D01*
X88354819Y-82980305D02*
X88354819Y-83361257D01*
X88354819Y-83361257D02*
X88402438Y-83456495D01*
X88402438Y-83456495D02*
X88450057Y-83504114D01*
X88450057Y-83504114D02*
X88545295Y-83551733D01*
X88545295Y-83551733D02*
X88688152Y-83551733D01*
X88688152Y-83551733D02*
X88783390Y-83504114D01*
X88783390Y-83504114D02*
X88831009Y-83456495D01*
X88831009Y-83456495D02*
X88878628Y-83361257D01*
X88878628Y-83361257D02*
X88878628Y-82980305D01*
X88354819Y-84408876D02*
X88354819Y-84218400D01*
X88354819Y-84218400D02*
X88402438Y-84123162D01*
X88402438Y-84123162D02*
X88450057Y-84075543D01*
X88450057Y-84075543D02*
X88592914Y-83980305D01*
X88592914Y-83980305D02*
X88783390Y-83932686D01*
X88783390Y-83932686D02*
X89164342Y-83932686D01*
X89164342Y-83932686D02*
X89259580Y-83980305D01*
X89259580Y-83980305D02*
X89307200Y-84027924D01*
X89307200Y-84027924D02*
X89354819Y-84123162D01*
X89354819Y-84123162D02*
X89354819Y-84313638D01*
X89354819Y-84313638D02*
X89307200Y-84408876D01*
X89307200Y-84408876D02*
X89259580Y-84456495D01*
X89259580Y-84456495D02*
X89164342Y-84504114D01*
X89164342Y-84504114D02*
X88926247Y-84504114D01*
X88926247Y-84504114D02*
X88831009Y-84456495D01*
X88831009Y-84456495D02*
X88783390Y-84408876D01*
X88783390Y-84408876D02*
X88735771Y-84313638D01*
X88735771Y-84313638D02*
X88735771Y-84123162D01*
X88735771Y-84123162D02*
X88783390Y-84027924D01*
X88783390Y-84027924D02*
X88831009Y-83980305D01*
X88831009Y-83980305D02*
X88926247Y-83932686D01*
X112722819Y-87149305D02*
X111722819Y-87149305D01*
X111722819Y-87149305D02*
X111722819Y-87387400D01*
X111722819Y-87387400D02*
X111770438Y-87530257D01*
X111770438Y-87530257D02*
X111865676Y-87625495D01*
X111865676Y-87625495D02*
X111960914Y-87673114D01*
X111960914Y-87673114D02*
X112151390Y-87720733D01*
X112151390Y-87720733D02*
X112294247Y-87720733D01*
X112294247Y-87720733D02*
X112484723Y-87673114D01*
X112484723Y-87673114D02*
X112579961Y-87625495D01*
X112579961Y-87625495D02*
X112675200Y-87530257D01*
X112675200Y-87530257D02*
X112722819Y-87387400D01*
X112722819Y-87387400D02*
X112722819Y-87149305D01*
X111722819Y-88054067D02*
X111722819Y-88720733D01*
X111722819Y-88720733D02*
X112722819Y-88292162D01*
X116828866Y-84865380D02*
X116876485Y-84913000D01*
X116876485Y-84913000D02*
X117019342Y-84960619D01*
X117019342Y-84960619D02*
X117114580Y-84960619D01*
X117114580Y-84960619D02*
X117257437Y-84913000D01*
X117257437Y-84913000D02*
X117352675Y-84817761D01*
X117352675Y-84817761D02*
X117400294Y-84722523D01*
X117400294Y-84722523D02*
X117447913Y-84532047D01*
X117447913Y-84532047D02*
X117447913Y-84389190D01*
X117447913Y-84389190D02*
X117400294Y-84198714D01*
X117400294Y-84198714D02*
X117352675Y-84103476D01*
X117352675Y-84103476D02*
X117257437Y-84008238D01*
X117257437Y-84008238D02*
X117114580Y-83960619D01*
X117114580Y-83960619D02*
X117019342Y-83960619D01*
X117019342Y-83960619D02*
X116876485Y-84008238D01*
X116876485Y-84008238D02*
X116828866Y-84055857D01*
X115876485Y-84960619D02*
X116447913Y-84960619D01*
X116162199Y-84960619D02*
X116162199Y-83960619D01*
X116162199Y-83960619D02*
X116257437Y-84103476D01*
X116257437Y-84103476D02*
X116352675Y-84198714D01*
X116352675Y-84198714D02*
X116447913Y-84246333D01*
X116295466Y-97686019D02*
X116628799Y-97209828D01*
X116866894Y-97686019D02*
X116866894Y-96686019D01*
X116866894Y-96686019D02*
X116485942Y-96686019D01*
X116485942Y-96686019D02*
X116390704Y-96733638D01*
X116390704Y-96733638D02*
X116343085Y-96781257D01*
X116343085Y-96781257D02*
X116295466Y-96876495D01*
X116295466Y-96876495D02*
X116295466Y-97019352D01*
X116295466Y-97019352D02*
X116343085Y-97114590D01*
X116343085Y-97114590D02*
X116390704Y-97162209D01*
X116390704Y-97162209D02*
X116485942Y-97209828D01*
X116485942Y-97209828D02*
X116866894Y-97209828D01*
X115962132Y-96686019D02*
X115295466Y-96686019D01*
X115295466Y-96686019D02*
X115724037Y-97686019D01*
X130875066Y-96924019D02*
X131208399Y-96447828D01*
X131446494Y-96924019D02*
X131446494Y-95924019D01*
X131446494Y-95924019D02*
X131065542Y-95924019D01*
X131065542Y-95924019D02*
X130970304Y-95971638D01*
X130970304Y-95971638D02*
X130922685Y-96019257D01*
X130922685Y-96019257D02*
X130875066Y-96114495D01*
X130875066Y-96114495D02*
X130875066Y-96257352D01*
X130875066Y-96257352D02*
X130922685Y-96352590D01*
X130922685Y-96352590D02*
X130970304Y-96400209D01*
X130970304Y-96400209D02*
X131065542Y-96447828D01*
X131065542Y-96447828D02*
X131446494Y-96447828D01*
X129922685Y-96924019D02*
X130494113Y-96924019D01*
X130208399Y-96924019D02*
X130208399Y-95924019D01*
X130208399Y-95924019D02*
X130303637Y-96066876D01*
X130303637Y-96066876D02*
X130398875Y-96162114D01*
X130398875Y-96162114D02*
X130494113Y-96209733D01*
X126303066Y-96924019D02*
X126636399Y-96447828D01*
X126874494Y-96924019D02*
X126874494Y-95924019D01*
X126874494Y-95924019D02*
X126493542Y-95924019D01*
X126493542Y-95924019D02*
X126398304Y-95971638D01*
X126398304Y-95971638D02*
X126350685Y-96019257D01*
X126350685Y-96019257D02*
X126303066Y-96114495D01*
X126303066Y-96114495D02*
X126303066Y-96257352D01*
X126303066Y-96257352D02*
X126350685Y-96352590D01*
X126350685Y-96352590D02*
X126398304Y-96400209D01*
X126398304Y-96400209D02*
X126493542Y-96447828D01*
X126493542Y-96447828D02*
X126874494Y-96447828D01*
X125922113Y-96019257D02*
X125874494Y-95971638D01*
X125874494Y-95971638D02*
X125779256Y-95924019D01*
X125779256Y-95924019D02*
X125541161Y-95924019D01*
X125541161Y-95924019D02*
X125445923Y-95971638D01*
X125445923Y-95971638D02*
X125398304Y-96019257D01*
X125398304Y-96019257D02*
X125350685Y-96114495D01*
X125350685Y-96114495D02*
X125350685Y-96209733D01*
X125350685Y-96209733D02*
X125398304Y-96352590D01*
X125398304Y-96352590D02*
X125969732Y-96924019D01*
X125969732Y-96924019D02*
X125350685Y-96924019D01*
X110955057Y-97616180D02*
X111002676Y-97663800D01*
X111002676Y-97663800D02*
X111145533Y-97711419D01*
X111145533Y-97711419D02*
X111240771Y-97711419D01*
X111240771Y-97711419D02*
X111383628Y-97663800D01*
X111383628Y-97663800D02*
X111478866Y-97568561D01*
X111478866Y-97568561D02*
X111526485Y-97473323D01*
X111526485Y-97473323D02*
X111574104Y-97282847D01*
X111574104Y-97282847D02*
X111574104Y-97139990D01*
X111574104Y-97139990D02*
X111526485Y-96949514D01*
X111526485Y-96949514D02*
X111478866Y-96854276D01*
X111478866Y-96854276D02*
X111383628Y-96759038D01*
X111383628Y-96759038D02*
X111240771Y-96711419D01*
X111240771Y-96711419D02*
X111145533Y-96711419D01*
X111145533Y-96711419D02*
X111002676Y-96759038D01*
X111002676Y-96759038D02*
X110955057Y-96806657D01*
X110002676Y-97711419D02*
X110574104Y-97711419D01*
X110288390Y-97711419D02*
X110288390Y-96711419D01*
X110288390Y-96711419D02*
X110383628Y-96854276D01*
X110383628Y-96854276D02*
X110478866Y-96949514D01*
X110478866Y-96949514D02*
X110574104Y-96997133D01*
X109669342Y-96711419D02*
X109050295Y-96711419D01*
X109050295Y-96711419D02*
X109383628Y-97092371D01*
X109383628Y-97092371D02*
X109240771Y-97092371D01*
X109240771Y-97092371D02*
X109145533Y-97139990D01*
X109145533Y-97139990D02*
X109097914Y-97187609D01*
X109097914Y-97187609D02*
X109050295Y-97282847D01*
X109050295Y-97282847D02*
X109050295Y-97520942D01*
X109050295Y-97520942D02*
X109097914Y-97616180D01*
X109097914Y-97616180D02*
X109145533Y-97663800D01*
X109145533Y-97663800D02*
X109240771Y-97711419D01*
X109240771Y-97711419D02*
X109526485Y-97711419D01*
X109526485Y-97711419D02*
X109621723Y-97663800D01*
X109621723Y-97663800D02*
X109669342Y-97616180D01*
X84839980Y-82364342D02*
X84887600Y-82316723D01*
X84887600Y-82316723D02*
X84935219Y-82173866D01*
X84935219Y-82173866D02*
X84935219Y-82078628D01*
X84935219Y-82078628D02*
X84887600Y-81935771D01*
X84887600Y-81935771D02*
X84792361Y-81840533D01*
X84792361Y-81840533D02*
X84697123Y-81792914D01*
X84697123Y-81792914D02*
X84506647Y-81745295D01*
X84506647Y-81745295D02*
X84363790Y-81745295D01*
X84363790Y-81745295D02*
X84173314Y-81792914D01*
X84173314Y-81792914D02*
X84078076Y-81840533D01*
X84078076Y-81840533D02*
X83982838Y-81935771D01*
X83982838Y-81935771D02*
X83935219Y-82078628D01*
X83935219Y-82078628D02*
X83935219Y-82173866D01*
X83935219Y-82173866D02*
X83982838Y-82316723D01*
X83982838Y-82316723D02*
X84030457Y-82364342D01*
X84935219Y-83316723D02*
X84935219Y-82745295D01*
X84935219Y-83031009D02*
X83935219Y-83031009D01*
X83935219Y-83031009D02*
X84078076Y-82935771D01*
X84078076Y-82935771D02*
X84173314Y-82840533D01*
X84173314Y-82840533D02*
X84220933Y-82745295D01*
X83935219Y-83650057D02*
X83935219Y-84316723D01*
X83935219Y-84316723D02*
X84935219Y-83888152D01*
X111967180Y-83380342D02*
X112014800Y-83332723D01*
X112014800Y-83332723D02*
X112062419Y-83189866D01*
X112062419Y-83189866D02*
X112062419Y-83094628D01*
X112062419Y-83094628D02*
X112014800Y-82951771D01*
X112014800Y-82951771D02*
X111919561Y-82856533D01*
X111919561Y-82856533D02*
X111824323Y-82808914D01*
X111824323Y-82808914D02*
X111633847Y-82761295D01*
X111633847Y-82761295D02*
X111490990Y-82761295D01*
X111490990Y-82761295D02*
X111300514Y-82808914D01*
X111300514Y-82808914D02*
X111205276Y-82856533D01*
X111205276Y-82856533D02*
X111110038Y-82951771D01*
X111110038Y-82951771D02*
X111062419Y-83094628D01*
X111062419Y-83094628D02*
X111062419Y-83189866D01*
X111062419Y-83189866D02*
X111110038Y-83332723D01*
X111110038Y-83332723D02*
X111157657Y-83380342D01*
X112062419Y-84332723D02*
X112062419Y-83761295D01*
X112062419Y-84047009D02*
X111062419Y-84047009D01*
X111062419Y-84047009D02*
X111205276Y-83951771D01*
X111205276Y-83951771D02*
X111300514Y-83856533D01*
X111300514Y-83856533D02*
X111348133Y-83761295D01*
X111490990Y-84904152D02*
X111443371Y-84808914D01*
X111443371Y-84808914D02*
X111395752Y-84761295D01*
X111395752Y-84761295D02*
X111300514Y-84713676D01*
X111300514Y-84713676D02*
X111252895Y-84713676D01*
X111252895Y-84713676D02*
X111157657Y-84761295D01*
X111157657Y-84761295D02*
X111110038Y-84808914D01*
X111110038Y-84808914D02*
X111062419Y-84904152D01*
X111062419Y-84904152D02*
X111062419Y-85094628D01*
X111062419Y-85094628D02*
X111110038Y-85189866D01*
X111110038Y-85189866D02*
X111157657Y-85237485D01*
X111157657Y-85237485D02*
X111252895Y-85285104D01*
X111252895Y-85285104D02*
X111300514Y-85285104D01*
X111300514Y-85285104D02*
X111395752Y-85237485D01*
X111395752Y-85237485D02*
X111443371Y-85189866D01*
X111443371Y-85189866D02*
X111490990Y-85094628D01*
X111490990Y-85094628D02*
X111490990Y-84904152D01*
X111490990Y-84904152D02*
X111538609Y-84808914D01*
X111538609Y-84808914D02*
X111586228Y-84761295D01*
X111586228Y-84761295D02*
X111681466Y-84713676D01*
X111681466Y-84713676D02*
X111871942Y-84713676D01*
X111871942Y-84713676D02*
X111967180Y-84761295D01*
X111967180Y-84761295D02*
X112014800Y-84808914D01*
X112014800Y-84808914D02*
X112062419Y-84904152D01*
X112062419Y-84904152D02*
X112062419Y-85094628D01*
X112062419Y-85094628D02*
X112014800Y-85189866D01*
X112014800Y-85189866D02*
X111967180Y-85237485D01*
X111967180Y-85237485D02*
X111871942Y-85285104D01*
X111871942Y-85285104D02*
X111681466Y-85285104D01*
X111681466Y-85285104D02*
X111586228Y-85237485D01*
X111586228Y-85237485D02*
X111538609Y-85189866D01*
X111538609Y-85189866D02*
X111490990Y-85094628D01*
X121813533Y-84589209D02*
X122146866Y-84589209D01*
X122146866Y-85113019D02*
X122146866Y-84113019D01*
X122146866Y-84113019D02*
X121670676Y-84113019D01*
X120956390Y-84589209D02*
X120813533Y-84636828D01*
X120813533Y-84636828D02*
X120765914Y-84684447D01*
X120765914Y-84684447D02*
X120718295Y-84779685D01*
X120718295Y-84779685D02*
X120718295Y-84922542D01*
X120718295Y-84922542D02*
X120765914Y-85017780D01*
X120765914Y-85017780D02*
X120813533Y-85065400D01*
X120813533Y-85065400D02*
X120908771Y-85113019D01*
X120908771Y-85113019D02*
X121289723Y-85113019D01*
X121289723Y-85113019D02*
X121289723Y-84113019D01*
X121289723Y-84113019D02*
X120956390Y-84113019D01*
X120956390Y-84113019D02*
X120861152Y-84160638D01*
X120861152Y-84160638D02*
X120813533Y-84208257D01*
X120813533Y-84208257D02*
X120765914Y-84303495D01*
X120765914Y-84303495D02*
X120765914Y-84398733D01*
X120765914Y-84398733D02*
X120813533Y-84493971D01*
X120813533Y-84493971D02*
X120861152Y-84541590D01*
X120861152Y-84541590D02*
X120956390Y-84589209D01*
X120956390Y-84589209D02*
X121289723Y-84589209D01*
X119765914Y-85113019D02*
X120337342Y-85113019D01*
X120051628Y-85113019D02*
X120051628Y-84113019D01*
X120051628Y-84113019D02*
X120146866Y-84255876D01*
X120146866Y-84255876D02*
X120242104Y-84351114D01*
X120242104Y-84351114D02*
X120337342Y-84398733D01*
X95613457Y-81588780D02*
X95661076Y-81636400D01*
X95661076Y-81636400D02*
X95803933Y-81684019D01*
X95803933Y-81684019D02*
X95899171Y-81684019D01*
X95899171Y-81684019D02*
X96042028Y-81636400D01*
X96042028Y-81636400D02*
X96137266Y-81541161D01*
X96137266Y-81541161D02*
X96184885Y-81445923D01*
X96184885Y-81445923D02*
X96232504Y-81255447D01*
X96232504Y-81255447D02*
X96232504Y-81112590D01*
X96232504Y-81112590D02*
X96184885Y-80922114D01*
X96184885Y-80922114D02*
X96137266Y-80826876D01*
X96137266Y-80826876D02*
X96042028Y-80731638D01*
X96042028Y-80731638D02*
X95899171Y-80684019D01*
X95899171Y-80684019D02*
X95803933Y-80684019D01*
X95803933Y-80684019D02*
X95661076Y-80731638D01*
X95661076Y-80731638D02*
X95613457Y-80779257D01*
X94661076Y-81684019D02*
X95232504Y-81684019D01*
X94946790Y-81684019D02*
X94946790Y-80684019D01*
X94946790Y-80684019D02*
X95042028Y-80826876D01*
X95042028Y-80826876D02*
X95137266Y-80922114D01*
X95137266Y-80922114D02*
X95232504Y-80969733D01*
X93708695Y-81684019D02*
X94280123Y-81684019D01*
X93994409Y-81684019D02*
X93994409Y-80684019D01*
X93994409Y-80684019D02*
X94089647Y-80826876D01*
X94089647Y-80826876D02*
X94184885Y-80922114D01*
X94184885Y-80922114D02*
X94280123Y-80969733D01*
X123278732Y-91923400D02*
X123135875Y-91971019D01*
X123135875Y-91971019D02*
X122897780Y-91971019D01*
X122897780Y-91971019D02*
X122802542Y-91923400D01*
X122802542Y-91923400D02*
X122754923Y-91875780D01*
X122754923Y-91875780D02*
X122707304Y-91780542D01*
X122707304Y-91780542D02*
X122707304Y-91685304D01*
X122707304Y-91685304D02*
X122754923Y-91590066D01*
X122754923Y-91590066D02*
X122802542Y-91542447D01*
X122802542Y-91542447D02*
X122897780Y-91494828D01*
X122897780Y-91494828D02*
X123088256Y-91447209D01*
X123088256Y-91447209D02*
X123183494Y-91399590D01*
X123183494Y-91399590D02*
X123231113Y-91351971D01*
X123231113Y-91351971D02*
X123278732Y-91256733D01*
X123278732Y-91256733D02*
X123278732Y-91161495D01*
X123278732Y-91161495D02*
X123231113Y-91066257D01*
X123231113Y-91066257D02*
X123183494Y-91018638D01*
X123183494Y-91018638D02*
X123088256Y-90971019D01*
X123088256Y-90971019D02*
X122850161Y-90971019D01*
X122850161Y-90971019D02*
X122707304Y-91018638D01*
X122373970Y-90971019D02*
X122135875Y-91971019D01*
X122135875Y-91971019D02*
X121945399Y-91256733D01*
X121945399Y-91256733D02*
X121754923Y-91971019D01*
X121754923Y-91971019D02*
X121516828Y-90971019D01*
X120612066Y-91971019D02*
X121183494Y-91971019D01*
X120897780Y-91971019D02*
X120897780Y-90971019D01*
X120897780Y-90971019D02*
X120993018Y-91113876D01*
X120993018Y-91113876D02*
X121088256Y-91209114D01*
X121088256Y-91209114D02*
X121183494Y-91256733D01*
X106199580Y-95357142D02*
X106247200Y-95309523D01*
X106247200Y-95309523D02*
X106294819Y-95166666D01*
X106294819Y-95166666D02*
X106294819Y-95071428D01*
X106294819Y-95071428D02*
X106247200Y-94928571D01*
X106247200Y-94928571D02*
X106151961Y-94833333D01*
X106151961Y-94833333D02*
X106056723Y-94785714D01*
X106056723Y-94785714D02*
X105866247Y-94738095D01*
X105866247Y-94738095D02*
X105723390Y-94738095D01*
X105723390Y-94738095D02*
X105532914Y-94785714D01*
X105532914Y-94785714D02*
X105437676Y-94833333D01*
X105437676Y-94833333D02*
X105342438Y-94928571D01*
X105342438Y-94928571D02*
X105294819Y-95071428D01*
X105294819Y-95071428D02*
X105294819Y-95166666D01*
X105294819Y-95166666D02*
X105342438Y-95309523D01*
X105342438Y-95309523D02*
X105390057Y-95357142D01*
X106294819Y-96309523D02*
X106294819Y-95738095D01*
X106294819Y-96023809D02*
X105294819Y-96023809D01*
X105294819Y-96023809D02*
X105437676Y-95928571D01*
X105437676Y-95928571D02*
X105532914Y-95833333D01*
X105532914Y-95833333D02*
X105580533Y-95738095D01*
X105390057Y-96690476D02*
X105342438Y-96738095D01*
X105342438Y-96738095D02*
X105294819Y-96833333D01*
X105294819Y-96833333D02*
X105294819Y-97071428D01*
X105294819Y-97071428D02*
X105342438Y-97166666D01*
X105342438Y-97166666D02*
X105390057Y-97214285D01*
X105390057Y-97214285D02*
X105485295Y-97261904D01*
X105485295Y-97261904D02*
X105580533Y-97261904D01*
X105580533Y-97261904D02*
X105723390Y-97214285D01*
X105723390Y-97214285D02*
X106294819Y-96642857D01*
X106294819Y-96642857D02*
X106294819Y-97261904D01*
X121273866Y-89843780D02*
X121321485Y-89891400D01*
X121321485Y-89891400D02*
X121464342Y-89939019D01*
X121464342Y-89939019D02*
X121559580Y-89939019D01*
X121559580Y-89939019D02*
X121702437Y-89891400D01*
X121702437Y-89891400D02*
X121797675Y-89796161D01*
X121797675Y-89796161D02*
X121845294Y-89700923D01*
X121845294Y-89700923D02*
X121892913Y-89510447D01*
X121892913Y-89510447D02*
X121892913Y-89367590D01*
X121892913Y-89367590D02*
X121845294Y-89177114D01*
X121845294Y-89177114D02*
X121797675Y-89081876D01*
X121797675Y-89081876D02*
X121702437Y-88986638D01*
X121702437Y-88986638D02*
X121559580Y-88939019D01*
X121559580Y-88939019D02*
X121464342Y-88939019D01*
X121464342Y-88939019D02*
X121321485Y-88986638D01*
X121321485Y-88986638D02*
X121273866Y-89034257D01*
X120416723Y-88939019D02*
X120607199Y-88939019D01*
X120607199Y-88939019D02*
X120702437Y-88986638D01*
X120702437Y-88986638D02*
X120750056Y-89034257D01*
X120750056Y-89034257D02*
X120845294Y-89177114D01*
X120845294Y-89177114D02*
X120892913Y-89367590D01*
X120892913Y-89367590D02*
X120892913Y-89748542D01*
X120892913Y-89748542D02*
X120845294Y-89843780D01*
X120845294Y-89843780D02*
X120797675Y-89891400D01*
X120797675Y-89891400D02*
X120702437Y-89939019D01*
X120702437Y-89939019D02*
X120511961Y-89939019D01*
X120511961Y-89939019D02*
X120416723Y-89891400D01*
X120416723Y-89891400D02*
X120369104Y-89843780D01*
X120369104Y-89843780D02*
X120321485Y-89748542D01*
X120321485Y-89748542D02*
X120321485Y-89510447D01*
X120321485Y-89510447D02*
X120369104Y-89415209D01*
X120369104Y-89415209D02*
X120416723Y-89367590D01*
X120416723Y-89367590D02*
X120511961Y-89319971D01*
X120511961Y-89319971D02*
X120702437Y-89319971D01*
X120702437Y-89319971D02*
X120797675Y-89367590D01*
X120797675Y-89367590D02*
X120845294Y-89415209D01*
X120845294Y-89415209D02*
X120892913Y-89510447D01*
X119038666Y-94339580D02*
X119086285Y-94387200D01*
X119086285Y-94387200D02*
X119229142Y-94434819D01*
X119229142Y-94434819D02*
X119324380Y-94434819D01*
X119324380Y-94434819D02*
X119467237Y-94387200D01*
X119467237Y-94387200D02*
X119562475Y-94291961D01*
X119562475Y-94291961D02*
X119610094Y-94196723D01*
X119610094Y-94196723D02*
X119657713Y-94006247D01*
X119657713Y-94006247D02*
X119657713Y-93863390D01*
X119657713Y-93863390D02*
X119610094Y-93672914D01*
X119610094Y-93672914D02*
X119562475Y-93577676D01*
X119562475Y-93577676D02*
X119467237Y-93482438D01*
X119467237Y-93482438D02*
X119324380Y-93434819D01*
X119324380Y-93434819D02*
X119229142Y-93434819D01*
X119229142Y-93434819D02*
X119086285Y-93482438D01*
X119086285Y-93482438D02*
X119038666Y-93530057D01*
X118181523Y-93768152D02*
X118181523Y-94434819D01*
X118419618Y-93387200D02*
X118657713Y-94101485D01*
X118657713Y-94101485D02*
X118038666Y-94101485D01*
X94809457Y-89287361D02*
X94761838Y-89192123D01*
X94761838Y-89192123D02*
X94666600Y-89096885D01*
X94666600Y-89096885D02*
X94523742Y-88954028D01*
X94523742Y-88954028D02*
X94476123Y-88858790D01*
X94476123Y-88858790D02*
X94476123Y-88763552D01*
X94714219Y-88811171D02*
X94666600Y-88715933D01*
X94666600Y-88715933D02*
X94571361Y-88620695D01*
X94571361Y-88620695D02*
X94380885Y-88573076D01*
X94380885Y-88573076D02*
X94047552Y-88573076D01*
X94047552Y-88573076D02*
X93857076Y-88620695D01*
X93857076Y-88620695D02*
X93761838Y-88715933D01*
X93761838Y-88715933D02*
X93714219Y-88811171D01*
X93714219Y-88811171D02*
X93714219Y-89001647D01*
X93714219Y-89001647D02*
X93761838Y-89096885D01*
X93761838Y-89096885D02*
X93857076Y-89192123D01*
X93857076Y-89192123D02*
X94047552Y-89239742D01*
X94047552Y-89239742D02*
X94380885Y-89239742D01*
X94380885Y-89239742D02*
X94571361Y-89192123D01*
X94571361Y-89192123D02*
X94666600Y-89096885D01*
X94666600Y-89096885D02*
X94714219Y-89001647D01*
X94714219Y-89001647D02*
X94714219Y-88811171D01*
X94714219Y-90192123D02*
X94714219Y-89620695D01*
X94714219Y-89906409D02*
X93714219Y-89906409D01*
X93714219Y-89906409D02*
X93857076Y-89811171D01*
X93857076Y-89811171D02*
X93952314Y-89715933D01*
X93952314Y-89715933D02*
X93999933Y-89620695D01*
X97743180Y-93591142D02*
X97790800Y-93543523D01*
X97790800Y-93543523D02*
X97838419Y-93400666D01*
X97838419Y-93400666D02*
X97838419Y-93305428D01*
X97838419Y-93305428D02*
X97790800Y-93162571D01*
X97790800Y-93162571D02*
X97695561Y-93067333D01*
X97695561Y-93067333D02*
X97600323Y-93019714D01*
X97600323Y-93019714D02*
X97409847Y-92972095D01*
X97409847Y-92972095D02*
X97266990Y-92972095D01*
X97266990Y-92972095D02*
X97076514Y-93019714D01*
X97076514Y-93019714D02*
X96981276Y-93067333D01*
X96981276Y-93067333D02*
X96886038Y-93162571D01*
X96886038Y-93162571D02*
X96838419Y-93305428D01*
X96838419Y-93305428D02*
X96838419Y-93400666D01*
X96838419Y-93400666D02*
X96886038Y-93543523D01*
X96886038Y-93543523D02*
X96933657Y-93591142D01*
X97838419Y-94543523D02*
X97838419Y-93972095D01*
X97838419Y-94257809D02*
X96838419Y-94257809D01*
X96838419Y-94257809D02*
X96981276Y-94162571D01*
X96981276Y-94162571D02*
X97076514Y-94067333D01*
X97076514Y-94067333D02*
X97124133Y-93972095D01*
X96838419Y-95162571D02*
X96838419Y-95257809D01*
X96838419Y-95257809D02*
X96886038Y-95353047D01*
X96886038Y-95353047D02*
X96933657Y-95400666D01*
X96933657Y-95400666D02*
X97028895Y-95448285D01*
X97028895Y-95448285D02*
X97219371Y-95495904D01*
X97219371Y-95495904D02*
X97457466Y-95495904D01*
X97457466Y-95495904D02*
X97647942Y-95448285D01*
X97647942Y-95448285D02*
X97743180Y-95400666D01*
X97743180Y-95400666D02*
X97790800Y-95353047D01*
X97790800Y-95353047D02*
X97838419Y-95257809D01*
X97838419Y-95257809D02*
X97838419Y-95162571D01*
X97838419Y-95162571D02*
X97790800Y-95067333D01*
X97790800Y-95067333D02*
X97743180Y-95019714D01*
X97743180Y-95019714D02*
X97647942Y-94972095D01*
X97647942Y-94972095D02*
X97457466Y-94924476D01*
X97457466Y-94924476D02*
X97219371Y-94924476D01*
X97219371Y-94924476D02*
X97028895Y-94972095D01*
X97028895Y-94972095D02*
X96933657Y-95019714D01*
X96933657Y-95019714D02*
X96886038Y-95067333D01*
X96886038Y-95067333D02*
X96838419Y-95162571D01*
X127179294Y-87322819D02*
X127179294Y-86322819D01*
X127179294Y-86322819D02*
X126941199Y-86322819D01*
X126941199Y-86322819D02*
X126798342Y-86370438D01*
X126798342Y-86370438D02*
X126703104Y-86465676D01*
X126703104Y-86465676D02*
X126655485Y-86560914D01*
X126655485Y-86560914D02*
X126607866Y-86751390D01*
X126607866Y-86751390D02*
X126607866Y-86894247D01*
X126607866Y-86894247D02*
X126655485Y-87084723D01*
X126655485Y-87084723D02*
X126703104Y-87179961D01*
X126703104Y-87179961D02*
X126798342Y-87275200D01*
X126798342Y-87275200D02*
X126941199Y-87322819D01*
X126941199Y-87322819D02*
X127179294Y-87322819D01*
X126036437Y-86751390D02*
X126131675Y-86703771D01*
X126131675Y-86703771D02*
X126179294Y-86656152D01*
X126179294Y-86656152D02*
X126226913Y-86560914D01*
X126226913Y-86560914D02*
X126226913Y-86513295D01*
X126226913Y-86513295D02*
X126179294Y-86418057D01*
X126179294Y-86418057D02*
X126131675Y-86370438D01*
X126131675Y-86370438D02*
X126036437Y-86322819D01*
X126036437Y-86322819D02*
X125845961Y-86322819D01*
X125845961Y-86322819D02*
X125750723Y-86370438D01*
X125750723Y-86370438D02*
X125703104Y-86418057D01*
X125703104Y-86418057D02*
X125655485Y-86513295D01*
X125655485Y-86513295D02*
X125655485Y-86560914D01*
X125655485Y-86560914D02*
X125703104Y-86656152D01*
X125703104Y-86656152D02*
X125750723Y-86703771D01*
X125750723Y-86703771D02*
X125845961Y-86751390D01*
X125845961Y-86751390D02*
X126036437Y-86751390D01*
X126036437Y-86751390D02*
X126131675Y-86799009D01*
X126131675Y-86799009D02*
X126179294Y-86846628D01*
X126179294Y-86846628D02*
X126226913Y-86941866D01*
X126226913Y-86941866D02*
X126226913Y-87132342D01*
X126226913Y-87132342D02*
X126179294Y-87227580D01*
X126179294Y-87227580D02*
X126131675Y-87275200D01*
X126131675Y-87275200D02*
X126036437Y-87322819D01*
X126036437Y-87322819D02*
X125845961Y-87322819D01*
X125845961Y-87322819D02*
X125750723Y-87275200D01*
X125750723Y-87275200D02*
X125703104Y-87227580D01*
X125703104Y-87227580D02*
X125655485Y-87132342D01*
X125655485Y-87132342D02*
X125655485Y-86941866D01*
X125655485Y-86941866D02*
X125703104Y-86846628D01*
X125703104Y-86846628D02*
X125750723Y-86799009D01*
X125750723Y-86799009D02*
X125845961Y-86751390D01*
X117102904Y-89040619D02*
X117102904Y-89850142D01*
X117102904Y-89850142D02*
X117055285Y-89945380D01*
X117055285Y-89945380D02*
X117007666Y-89993000D01*
X117007666Y-89993000D02*
X116912428Y-90040619D01*
X116912428Y-90040619D02*
X116721952Y-90040619D01*
X116721952Y-90040619D02*
X116626714Y-89993000D01*
X116626714Y-89993000D02*
X116579095Y-89945380D01*
X116579095Y-89945380D02*
X116531476Y-89850142D01*
X116531476Y-89850142D02*
X116531476Y-89040619D01*
X115531476Y-90040619D02*
X116102904Y-90040619D01*
X115817190Y-90040619D02*
X115817190Y-89040619D01*
X115817190Y-89040619D02*
X115912428Y-89183476D01*
X115912428Y-89183476D02*
X116007666Y-89278714D01*
X116007666Y-89278714D02*
X116102904Y-89326333D01*
X116746266Y-87568780D02*
X116793885Y-87616400D01*
X116793885Y-87616400D02*
X116936742Y-87664019D01*
X116936742Y-87664019D02*
X117031980Y-87664019D01*
X117031980Y-87664019D02*
X117174837Y-87616400D01*
X117174837Y-87616400D02*
X117270075Y-87521161D01*
X117270075Y-87521161D02*
X117317694Y-87425923D01*
X117317694Y-87425923D02*
X117365313Y-87235447D01*
X117365313Y-87235447D02*
X117365313Y-87092590D01*
X117365313Y-87092590D02*
X117317694Y-86902114D01*
X117317694Y-86902114D02*
X117270075Y-86806876D01*
X117270075Y-86806876D02*
X117174837Y-86711638D01*
X117174837Y-86711638D02*
X117031980Y-86664019D01*
X117031980Y-86664019D02*
X116936742Y-86664019D01*
X116936742Y-86664019D02*
X116793885Y-86711638D01*
X116793885Y-86711638D02*
X116746266Y-86759257D01*
X116365313Y-86759257D02*
X116317694Y-86711638D01*
X116317694Y-86711638D02*
X116222456Y-86664019D01*
X116222456Y-86664019D02*
X115984361Y-86664019D01*
X115984361Y-86664019D02*
X115889123Y-86711638D01*
X115889123Y-86711638D02*
X115841504Y-86759257D01*
X115841504Y-86759257D02*
X115793885Y-86854495D01*
X115793885Y-86854495D02*
X115793885Y-86949733D01*
X115793885Y-86949733D02*
X115841504Y-87092590D01*
X115841504Y-87092590D02*
X116412932Y-87664019D01*
X116412932Y-87664019D02*
X115793885Y-87664019D01*
X118699466Y-90124780D02*
X118747085Y-90172400D01*
X118747085Y-90172400D02*
X118889942Y-90220019D01*
X118889942Y-90220019D02*
X118985180Y-90220019D01*
X118985180Y-90220019D02*
X119128037Y-90172400D01*
X119128037Y-90172400D02*
X119223275Y-90077161D01*
X119223275Y-90077161D02*
X119270894Y-89981923D01*
X119270894Y-89981923D02*
X119318513Y-89791447D01*
X119318513Y-89791447D02*
X119318513Y-89648590D01*
X119318513Y-89648590D02*
X119270894Y-89458114D01*
X119270894Y-89458114D02*
X119223275Y-89362876D01*
X119223275Y-89362876D02*
X119128037Y-89267638D01*
X119128037Y-89267638D02*
X118985180Y-89220019D01*
X118985180Y-89220019D02*
X118889942Y-89220019D01*
X118889942Y-89220019D02*
X118747085Y-89267638D01*
X118747085Y-89267638D02*
X118699466Y-89315257D01*
X118366132Y-89220019D02*
X117747085Y-89220019D01*
X117747085Y-89220019D02*
X118080418Y-89600971D01*
X118080418Y-89600971D02*
X117937561Y-89600971D01*
X117937561Y-89600971D02*
X117842323Y-89648590D01*
X117842323Y-89648590D02*
X117794704Y-89696209D01*
X117794704Y-89696209D02*
X117747085Y-89791447D01*
X117747085Y-89791447D02*
X117747085Y-90029542D01*
X117747085Y-90029542D02*
X117794704Y-90124780D01*
X117794704Y-90124780D02*
X117842323Y-90172400D01*
X117842323Y-90172400D02*
X117937561Y-90220019D01*
X117937561Y-90220019D02*
X118223275Y-90220019D01*
X118223275Y-90220019D02*
X118318513Y-90172400D01*
X118318513Y-90172400D02*
X118366132Y-90124780D01*
X97889219Y-87209333D02*
X97413028Y-86876000D01*
X97889219Y-86637905D02*
X96889219Y-86637905D01*
X96889219Y-86637905D02*
X96889219Y-87018857D01*
X96889219Y-87018857D02*
X96936838Y-87114095D01*
X96936838Y-87114095D02*
X96984457Y-87161714D01*
X96984457Y-87161714D02*
X97079695Y-87209333D01*
X97079695Y-87209333D02*
X97222552Y-87209333D01*
X97222552Y-87209333D02*
X97317790Y-87161714D01*
X97317790Y-87161714D02*
X97365409Y-87114095D01*
X97365409Y-87114095D02*
X97413028Y-87018857D01*
X97413028Y-87018857D02*
X97413028Y-86637905D01*
X96889219Y-88114095D02*
X96889219Y-87637905D01*
X96889219Y-87637905D02*
X97365409Y-87590286D01*
X97365409Y-87590286D02*
X97317790Y-87637905D01*
X97317790Y-87637905D02*
X97270171Y-87733143D01*
X97270171Y-87733143D02*
X97270171Y-87971238D01*
X97270171Y-87971238D02*
X97317790Y-88066476D01*
X97317790Y-88066476D02*
X97365409Y-88114095D01*
X97365409Y-88114095D02*
X97460647Y-88161714D01*
X97460647Y-88161714D02*
X97698742Y-88161714D01*
X97698742Y-88161714D02*
X97793980Y-88114095D01*
X97793980Y-88114095D02*
X97841600Y-88066476D01*
X97841600Y-88066476D02*
X97889219Y-87971238D01*
X97889219Y-87971238D02*
X97889219Y-87733143D01*
X97889219Y-87733143D02*
X97841600Y-87637905D01*
X97841600Y-87637905D02*
X97793980Y-87590286D01*
X91920219Y-90016105D02*
X90920219Y-90016105D01*
X90920219Y-90016105D02*
X90920219Y-90254200D01*
X90920219Y-90254200D02*
X90967838Y-90397057D01*
X90967838Y-90397057D02*
X91063076Y-90492295D01*
X91063076Y-90492295D02*
X91158314Y-90539914D01*
X91158314Y-90539914D02*
X91348790Y-90587533D01*
X91348790Y-90587533D02*
X91491647Y-90587533D01*
X91491647Y-90587533D02*
X91682123Y-90539914D01*
X91682123Y-90539914D02*
X91777361Y-90492295D01*
X91777361Y-90492295D02*
X91872600Y-90397057D01*
X91872600Y-90397057D02*
X91920219Y-90254200D01*
X91920219Y-90254200D02*
X91920219Y-90016105D01*
X90920219Y-91444676D02*
X90920219Y-91254200D01*
X90920219Y-91254200D02*
X90967838Y-91158962D01*
X90967838Y-91158962D02*
X91015457Y-91111343D01*
X91015457Y-91111343D02*
X91158314Y-91016105D01*
X91158314Y-91016105D02*
X91348790Y-90968486D01*
X91348790Y-90968486D02*
X91729742Y-90968486D01*
X91729742Y-90968486D02*
X91824980Y-91016105D01*
X91824980Y-91016105D02*
X91872600Y-91063724D01*
X91872600Y-91063724D02*
X91920219Y-91158962D01*
X91920219Y-91158962D02*
X91920219Y-91349438D01*
X91920219Y-91349438D02*
X91872600Y-91444676D01*
X91872600Y-91444676D02*
X91824980Y-91492295D01*
X91824980Y-91492295D02*
X91729742Y-91539914D01*
X91729742Y-91539914D02*
X91491647Y-91539914D01*
X91491647Y-91539914D02*
X91396409Y-91492295D01*
X91396409Y-91492295D02*
X91348790Y-91444676D01*
X91348790Y-91444676D02*
X91301171Y-91349438D01*
X91301171Y-91349438D02*
X91301171Y-91158962D01*
X91301171Y-91158962D02*
X91348790Y-91063724D01*
X91348790Y-91063724D02*
X91396409Y-91016105D01*
X91396409Y-91016105D02*
X91491647Y-90968486D01*
X113926857Y-97641580D02*
X113974476Y-97689200D01*
X113974476Y-97689200D02*
X114117333Y-97736819D01*
X114117333Y-97736819D02*
X114212571Y-97736819D01*
X114212571Y-97736819D02*
X114355428Y-97689200D01*
X114355428Y-97689200D02*
X114450666Y-97593961D01*
X114450666Y-97593961D02*
X114498285Y-97498723D01*
X114498285Y-97498723D02*
X114545904Y-97308247D01*
X114545904Y-97308247D02*
X114545904Y-97165390D01*
X114545904Y-97165390D02*
X114498285Y-96974914D01*
X114498285Y-96974914D02*
X114450666Y-96879676D01*
X114450666Y-96879676D02*
X114355428Y-96784438D01*
X114355428Y-96784438D02*
X114212571Y-96736819D01*
X114212571Y-96736819D02*
X114117333Y-96736819D01*
X114117333Y-96736819D02*
X113974476Y-96784438D01*
X113974476Y-96784438D02*
X113926857Y-96832057D01*
X113545904Y-96832057D02*
X113498285Y-96784438D01*
X113498285Y-96784438D02*
X113403047Y-96736819D01*
X113403047Y-96736819D02*
X113164952Y-96736819D01*
X113164952Y-96736819D02*
X113069714Y-96784438D01*
X113069714Y-96784438D02*
X113022095Y-96832057D01*
X113022095Y-96832057D02*
X112974476Y-96927295D01*
X112974476Y-96927295D02*
X112974476Y-97022533D01*
X112974476Y-97022533D02*
X113022095Y-97165390D01*
X113022095Y-97165390D02*
X113593523Y-97736819D01*
X113593523Y-97736819D02*
X112974476Y-97736819D01*
X112355428Y-96736819D02*
X112260190Y-96736819D01*
X112260190Y-96736819D02*
X112164952Y-96784438D01*
X112164952Y-96784438D02*
X112117333Y-96832057D01*
X112117333Y-96832057D02*
X112069714Y-96927295D01*
X112069714Y-96927295D02*
X112022095Y-97117771D01*
X112022095Y-97117771D02*
X112022095Y-97355866D01*
X112022095Y-97355866D02*
X112069714Y-97546342D01*
X112069714Y-97546342D02*
X112117333Y-97641580D01*
X112117333Y-97641580D02*
X112164952Y-97689200D01*
X112164952Y-97689200D02*
X112260190Y-97736819D01*
X112260190Y-97736819D02*
X112355428Y-97736819D01*
X112355428Y-97736819D02*
X112450666Y-97689200D01*
X112450666Y-97689200D02*
X112498285Y-97641580D01*
X112498285Y-97641580D02*
X112545904Y-97546342D01*
X112545904Y-97546342D02*
X112593523Y-97355866D01*
X112593523Y-97355866D02*
X112593523Y-97117771D01*
X112593523Y-97117771D02*
X112545904Y-96927295D01*
X112545904Y-96927295D02*
X112498285Y-96832057D01*
X112498285Y-96832057D02*
X112450666Y-96784438D01*
X112450666Y-96784438D02*
X112355428Y-96736819D01*
%TO.C,OK1*%
D16*
X99188600Y-81910000D02*
X99188600Y-81990000D01*
X99188600Y-85650000D02*
X99188600Y-85730000D01*
X99188600Y-85730000D02*
X107008600Y-85730000D01*
X107008600Y-81910000D02*
X99188600Y-81910000D01*
X107008600Y-81990000D02*
X107008600Y-81910000D01*
X107008600Y-85730000D02*
X107008600Y-85650000D01*
X107788600Y-83110000D02*
X107448600Y-83580000D01*
X108128600Y-83580000D01*
X107788600Y-83110000D01*
G36*
X108128600Y-83580000D02*
G01*
X107448600Y-83580000D01*
X107788600Y-83110000D01*
X108128600Y-83580000D01*
G37*
%TO.C,C9*%
X123607836Y-85640000D02*
X123392164Y-85640000D01*
X123607836Y-86360000D02*
X123392164Y-86360000D01*
%TO.C,D2*%
X109265000Y-92890000D02*
X109265000Y-92915000D01*
X109265000Y-93785000D02*
X109265000Y-94215000D01*
X109265000Y-95085000D02*
X109265000Y-95110000D01*
X109265000Y-95110000D02*
X110735000Y-95110000D01*
X110735000Y-92890000D02*
X109265000Y-92890000D01*
X110735000Y-92915000D02*
X110735000Y-92890000D01*
X110735000Y-95110000D02*
X110735000Y-95085000D01*
X111180000Y-92910000D02*
X111320000Y-92720000D01*
X111040000Y-92720000D01*
X111180000Y-92910000D01*
G36*
X111180000Y-92910000D02*
G01*
X111040000Y-92720000D01*
X111320000Y-92720000D01*
X111180000Y-92910000D01*
G37*
%TO.C,C8*%
X121107836Y-96140000D02*
X120892164Y-96140000D01*
X121107836Y-96860000D02*
X120892164Y-96860000D01*
%TO.C,R12*%
X105716041Y-87605600D02*
X105408759Y-87605600D01*
X105716041Y-88365600D02*
X105408759Y-88365600D01*
%TO.C,R3*%
X123653641Y-94620000D02*
X123346359Y-94620000D01*
X123653641Y-95380000D02*
X123346359Y-95380000D01*
%TO.C,R4*%
X123346359Y-96120000D02*
X123653641Y-96120000D01*
X123346359Y-96880000D02*
X123653641Y-96880000D01*
%TO.C,C7*%
X120892164Y-94640000D02*
X121107836Y-94640000D01*
X120892164Y-95360000D02*
X121107836Y-95360000D01*
%TO.C,C5*%
X118392164Y-96140000D02*
X118607836Y-96140000D01*
X118392164Y-96860000D02*
X118607836Y-96860000D01*
%TO.C,R6*%
X89663600Y-82778236D02*
X89663600Y-83232364D01*
X91133600Y-82778236D02*
X91133600Y-83232364D01*
%TO.C,D7*%
X113000000Y-90360000D02*
X113000000Y-86350000D01*
X115000000Y-90360000D02*
X113000000Y-90360000D01*
X115000000Y-90360000D02*
X115000000Y-86350000D01*
%TO.C,C1*%
X118392164Y-84140000D02*
X118607836Y-84140000D01*
X118392164Y-84860000D02*
X118607836Y-84860000D01*
%TO.C,R7*%
X116346359Y-95620000D02*
X116653641Y-95620000D01*
X116346359Y-96380000D02*
X116653641Y-96380000D01*
%TO.C,R1*%
X130809241Y-97181400D02*
X130501959Y-97181400D01*
X130809241Y-97941400D02*
X130501959Y-97941400D01*
%TO.C,R2*%
X126137641Y-97156000D02*
X125830359Y-97156000D01*
X126137641Y-97916000D02*
X125830359Y-97916000D01*
%TO.C,C13*%
X110892164Y-95640000D02*
X111107836Y-95640000D01*
X110892164Y-96360000D02*
X111107836Y-96360000D01*
%TO.C,C17*%
X85244000Y-83278652D02*
X85244000Y-82756148D01*
X86714000Y-83278652D02*
X86714000Y-82756148D01*
%TO.C,C18*%
X109021200Y-82272348D02*
X109021200Y-83694852D01*
X110841200Y-82272348D02*
X110841200Y-83694852D01*
%TO.C,FB1*%
X121162779Y-85490000D02*
X120837221Y-85490000D01*
X121162779Y-86510000D02*
X120837221Y-86510000D01*
%TO.C,C11*%
X91924200Y-82618252D02*
X91924200Y-82095748D01*
X93394200Y-82618252D02*
X93394200Y-82095748D01*
%TO.C,SW1*%
X123539800Y-88016800D02*
X132339800Y-88016800D01*
X132339800Y-91916800D01*
X123539800Y-91916800D01*
X123539800Y-88016800D01*
%TO.C,C12*%
X106640000Y-96107836D02*
X106640000Y-95892164D01*
X107360000Y-96107836D02*
X107360000Y-95892164D01*
%TO.C,C6*%
X120738748Y-87265000D02*
X121261252Y-87265000D01*
X120738748Y-88735000D02*
X121261252Y-88735000D01*
%TO.C,C4*%
X118392164Y-94640000D02*
X118607836Y-94640000D01*
X118392164Y-95360000D02*
X118607836Y-95360000D01*
%TO.C,Q1*%
X95074200Y-89143400D02*
X95074200Y-90143400D01*
X95074200Y-91263400D02*
X95074200Y-92263400D01*
X95074200Y-92263400D02*
X96594200Y-92263400D01*
X96594200Y-89143400D02*
X95074200Y-89143400D01*
X96594200Y-89193400D02*
X96594200Y-89143400D01*
X96594200Y-91093400D02*
X96594200Y-90313400D01*
X96594200Y-92263400D02*
X96594200Y-92213400D01*
X97134200Y-90323400D02*
X96894200Y-90653400D01*
X97374200Y-90653400D01*
X97134200Y-90323400D01*
G36*
X97374200Y-90653400D02*
G01*
X96894200Y-90653400D01*
X97134200Y-90323400D01*
X97374200Y-90653400D01*
G37*
%TO.C,C10*%
X95099200Y-93881348D02*
X95099200Y-94403852D01*
X96569200Y-93881348D02*
X96569200Y-94403852D01*
%TO.C,D8*%
X127446300Y-85933400D02*
X127446300Y-87853400D01*
X127446300Y-87853400D02*
X130131300Y-87853400D01*
X130131300Y-85933400D02*
X127446300Y-85933400D01*
%TO.C,U1*%
X114663000Y-90738000D02*
X114663000Y-90988000D01*
X114663000Y-93708000D02*
X114663000Y-93958000D01*
X114663000Y-93958000D02*
X114913000Y-93958000D01*
X114913000Y-90738000D02*
X114663000Y-90738000D01*
X117633000Y-93958000D02*
X117883000Y-93958000D01*
X117883000Y-90738000D02*
X117633000Y-90738000D01*
X117883000Y-90988000D02*
X117883000Y-90738000D01*
X117883000Y-93958000D02*
X117883000Y-93708000D01*
X118413000Y-91348000D02*
X118743000Y-91588000D01*
X118743000Y-91108000D01*
X118413000Y-91348000D01*
G36*
X118743000Y-91588000D02*
G01*
X118413000Y-91348000D01*
X118743000Y-91108000D01*
X118743000Y-91588000D01*
G37*
%TO.C,C2*%
X118233364Y-87346200D02*
X118449036Y-87346200D01*
X118233364Y-88066200D02*
X118449036Y-88066200D01*
%TO.C,C3*%
X118230764Y-88336800D02*
X118446436Y-88336800D01*
X118230764Y-89056800D02*
X118446436Y-89056800D01*
%TO.C,R5*%
X95099200Y-87070836D02*
X95099200Y-87524964D01*
X96569200Y-87070836D02*
X96569200Y-87524964D01*
%TO.C,D6*%
X87377000Y-94213400D02*
X87377000Y-88703400D01*
X90677000Y-94213400D02*
X87377000Y-94213400D01*
X90677000Y-94213400D02*
X90677000Y-88703400D01*
%TO.C,C20*%
X112892164Y-95640000D02*
X113107836Y-95640000D01*
X112892164Y-96360000D02*
X113107836Y-96360000D01*
%TD*%
M02*
