G04 #@! TF.GenerationSoftware,KiCad,Pcbnew,10.0.3*
G04 #@! TF.CreationDate,2026-07-09T23:28:52-07:00*
G04 #@! TF.ProjectId,scramble_hat,73637261-6d62-46c6-955f-6861742e6b69,rev?*
G04 #@! TF.SameCoordinates,Original*
G04 #@! TF.FileFunction,Legend,Bot*
G04 #@! TF.FilePolarity,Positive*
%FSLAX46Y46*%
G04 Gerber Fmt 4.6, Leading zero omitted, Abs format (unit mm)*
G04 Created by KiCad (PCBNEW 10.0.3) date 2026-07-09 23:28:52*
%MOMM*%
%LPD*%
G01*
G04 APERTURE LIST*
G04 Aperture macros list*
%AMRoundRect*
0 Rectangle with rounded corners*
0 $1 Rounding radius*
0 $2 $3 $4 $5 $6 $7 $8 $9 X,Y pos of 4 corners*
0 Add a 4 corners polygon primitive as box body*
4,1,4,$2,$3,$4,$5,$6,$7,$8,$9,$2,$3,0*
0 Add four circle primitives for the rounded corners*
1,1,$1+$1,$2,$3*
1,1,$1+$1,$4,$5*
1,1,$1+$1,$6,$7*
1,1,$1+$1,$8,$9*
0 Add four rect primitives between the rounded corners*
20,1,$1+$1,$2,$3,$4,$5,0*
20,1,$1+$1,$4,$5,$6,$7,0*
20,1,$1+$1,$6,$7,$8,$9,0*
20,1,$1+$1,$8,$9,$2,$3,0*%
%AMFreePoly0*
4,1,14,0.363284,0.088284,0.375000,0.060000,0.375000,-0.060000,0.363284,-0.088284,0.335000,-0.100000,-0.335000,-0.100000,-0.363284,-0.088284,-0.375000,-0.060000,-0.375000,-0.036569,-0.363284,-0.008285,-0.266715,0.088284,-0.238431,0.100000,0.335000,0.100000,0.363284,0.088284,0.363284,0.088284,$1*%
%AMFreePoly1*
4,1,14,0.363284,0.088284,0.375000,0.060000,0.375000,-0.060000,0.363284,-0.088284,0.335000,-0.100000,-0.238431,-0.100000,-0.266715,-0.088284,-0.363284,0.008285,-0.375000,0.036569,-0.375000,0.060000,-0.363284,0.088284,-0.335000,0.100000,0.335000,0.100000,0.363284,0.088284,0.363284,0.088284,$1*%
%AMFreePoly2*
4,1,14,-0.008285,0.363284,0.088284,0.266715,0.100000,0.238431,0.100000,-0.335000,0.088284,-0.363284,0.060000,-0.375000,-0.060000,-0.375000,-0.088284,-0.363284,-0.100000,-0.335000,-0.100000,0.335000,-0.088284,0.363284,-0.060000,0.375000,-0.036569,0.375000,-0.008285,0.363284,-0.008285,0.363284,$1*%
%AMFreePoly3*
4,1,14,0.088284,0.363284,0.100000,0.335000,0.100000,-0.335000,0.088284,-0.363284,0.060000,-0.375000,-0.060000,-0.375000,-0.088284,-0.363284,-0.100000,-0.335000,-0.100000,0.238431,-0.088284,0.266715,0.008285,0.363284,0.036569,0.375000,0.060000,0.375000,0.088284,0.363284,0.088284,0.363284,$1*%
%AMFreePoly4*
4,1,14,0.363284,0.088284,0.375000,0.060000,0.375000,0.036569,0.363284,0.008285,0.266715,-0.088284,0.238431,-0.100000,-0.335000,-0.100000,-0.363284,-0.088284,-0.375000,-0.060000,-0.375000,0.060000,-0.363284,0.088284,-0.335000,0.100000,0.335000,0.100000,0.363284,0.088284,0.363284,0.088284,$1*%
%AMFreePoly5*
4,1,14,0.266715,0.088284,0.363284,-0.008285,0.375000,-0.036569,0.375000,-0.060000,0.363284,-0.088284,0.335000,-0.100000,-0.335000,-0.100000,-0.363284,-0.088284,-0.375000,-0.060000,-0.375000,0.060000,-0.363284,0.088284,-0.335000,0.100000,0.238431,0.100000,0.266715,0.088284,0.266715,0.088284,$1*%
%AMFreePoly6*
4,1,14,0.088284,0.363284,0.100000,0.335000,0.100000,-0.335000,0.088284,-0.363284,0.060000,-0.375000,0.036569,-0.375000,0.008285,-0.363284,-0.088284,-0.266715,-0.100000,-0.238431,-0.100000,0.335000,-0.088284,0.363284,-0.060000,0.375000,0.060000,0.375000,0.088284,0.363284,0.088284,0.363284,$1*%
%AMFreePoly7*
4,1,14,0.088284,0.363284,0.100000,0.335000,0.100000,-0.238431,0.088284,-0.266715,-0.008285,-0.363284,-0.036569,-0.375000,-0.060000,-0.375000,-0.088284,-0.363284,-0.100000,-0.335000,-0.100000,0.335000,-0.088284,0.363284,-0.060000,0.375000,0.060000,0.375000,0.088284,0.363284,0.088284,0.363284,$1*%
G04 Aperture macros list end*
%ADD10C,0.000000*%
%ADD11C,0.098129*%
%ADD12C,0.221131*%
%ADD13C,0.125000*%
%ADD14C,0.187500*%
%ADD15C,0.150000*%
%ADD16C,0.120000*%
%ADD17C,1.700000*%
%ADD18R,1.700000X1.700000*%
%ADD19C,1.600000*%
%ADD20C,2.900000*%
%ADD21C,2.700000*%
%ADD22C,3.200000*%
%ADD23C,3.400000*%
%ADD24RoundRect,0.250000X0.312500X1.450000X-0.312500X1.450000X-0.312500X-1.450000X0.312500X-1.450000X0*%
%ADD25RoundRect,0.150000X-0.662500X-0.150000X0.662500X-0.150000X0.662500X0.150000X-0.662500X0.150000X0*%
%ADD26RoundRect,0.140000X0.140000X0.170000X-0.140000X0.170000X-0.140000X-0.170000X0.140000X-0.170000X0*%
%ADD27RoundRect,0.087500X-0.425000X-0.087500X0.425000X-0.087500X0.425000X0.087500X-0.425000X0.087500X0*%
%ADD28RoundRect,0.135000X0.135000X0.185000X-0.135000X0.185000X-0.135000X-0.185000X0.135000X-0.185000X0*%
%ADD29RoundRect,0.135000X-0.135000X-0.185000X0.135000X-0.185000X0.135000X0.185000X-0.135000X0.185000X0*%
%ADD30RoundRect,0.140000X-0.140000X-0.170000X0.140000X-0.170000X0.140000X0.170000X-0.140000X0.170000X0*%
%ADD31RoundRect,0.250000X-0.450000X0.262500X-0.450000X-0.262500X0.450000X-0.262500X0.450000X0.262500X0*%
%ADD32RoundRect,0.225000X-0.375000X0.225000X-0.375000X-0.225000X0.375000X-0.225000X0.375000X0.225000X0*%
%ADD33RoundRect,0.250000X0.475000X-0.250000X0.475000X0.250000X-0.475000X0.250000X-0.475000X-0.250000X0*%
%ADD34RoundRect,0.250000X0.325000X0.650000X-0.325000X0.650000X-0.325000X-0.650000X0.325000X-0.650000X0*%
%ADD35RoundRect,0.218750X0.218750X0.256250X-0.218750X0.256250X-0.218750X-0.256250X0.218750X-0.256250X0*%
%ADD36O,1.600000X1.600000*%
%ADD37RoundRect,0.140000X0.170000X-0.140000X0.170000X0.140000X-0.170000X0.140000X-0.170000X-0.140000X0*%
%ADD38RoundRect,0.250000X-0.250000X-0.475000X0.250000X-0.475000X0.250000X0.475000X-0.250000X0.475000X0*%
%ADD39RoundRect,0.150000X-0.587500X-0.150000X0.587500X-0.150000X0.587500X0.150000X-0.587500X0.150000X0*%
%ADD40RoundRect,0.250000X-0.475000X0.250000X-0.475000X-0.250000X0.475000X-0.250000X0.475000X0.250000X0*%
%ADD41RoundRect,0.243750X0.243750X0.456250X-0.243750X0.456250X-0.243750X-0.456250X0.243750X-0.456250X0*%
%ADD42FreePoly0,0.000000*%
%ADD43RoundRect,0.050000X-0.325000X-0.050000X0.325000X-0.050000X0.325000X0.050000X-0.325000X0.050000X0*%
%ADD44FreePoly1,0.000000*%
%ADD45FreePoly2,0.000000*%
%ADD46RoundRect,0.050000X-0.050000X-0.325000X0.050000X-0.325000X0.050000X0.325000X-0.050000X0.325000X0*%
%ADD47FreePoly3,0.000000*%
%ADD48FreePoly4,0.000000*%
%ADD49FreePoly5,0.000000*%
%ADD50FreePoly6,0.000000*%
%ADD51FreePoly7,0.000000*%
%ADD52RoundRect,0.250000X1.000000X0.650000X-1.000000X0.650000X-1.000000X-0.650000X1.000000X-0.650000X0*%
G04 APERTURE END LIST*
D10*
G36*
X85552307Y-98861449D02*
G01*
X85494427Y-98861449D01*
X85494427Y-99016642D01*
X85471107Y-99016642D01*
X85471107Y-98861449D01*
X85412944Y-98861449D01*
X85412944Y-98840719D01*
X85552307Y-98840719D01*
X85552307Y-98861449D01*
G37*
G36*
X85295452Y-98963085D02*
G01*
X85298405Y-98971877D01*
X85300918Y-98979496D01*
X85303009Y-98985980D01*
X85304667Y-98991306D01*
X85313302Y-98965395D01*
X85354768Y-98840719D01*
X85389897Y-98840719D01*
X85389897Y-99016642D01*
X85367443Y-99016642D01*
X85367443Y-98866930D01*
X85316472Y-99016642D01*
X85295452Y-99016642D01*
X85244493Y-98869518D01*
X85244493Y-99016642D01*
X85222030Y-99016642D01*
X85222030Y-98840719D01*
X85253416Y-98840719D01*
X85295452Y-98963085D01*
G37*
D11*
X86251133Y-97266729D02*
X86209562Y-97269816D01*
X86168326Y-97274935D01*
X86127537Y-97282052D01*
X86087224Y-97291149D01*
X86047468Y-97302181D01*
X86008354Y-97315119D01*
X85969927Y-97329954D01*
X85932293Y-97346635D01*
X85895474Y-97365141D01*
X85859568Y-97385445D01*
X85824642Y-97407523D01*
X85790750Y-97431342D01*
X85757982Y-97456862D01*
X85726396Y-97484081D01*
X85696070Y-97512943D01*
X85667193Y-97543282D01*
X85639975Y-97574873D01*
X85614455Y-97607640D01*
X85590638Y-97641517D01*
X85568562Y-97676442D01*
X85548254Y-97712361D01*
X85529747Y-97749174D01*
X85513077Y-97786815D01*
X85498237Y-97825241D01*
X85485296Y-97864362D01*
X85474264Y-97904117D01*
X85465168Y-97944412D01*
X85458050Y-97985221D01*
X85452933Y-98026439D01*
X85449842Y-98068020D01*
X85448809Y-98109878D01*
X85449900Y-98153328D01*
X85453163Y-98196196D01*
X85458531Y-98238434D01*
X85465951Y-98280012D01*
X85475375Y-98320860D01*
X85486763Y-98360918D01*
X85500024Y-98400139D01*
X85515141Y-98438477D01*
X85532057Y-98475871D01*
X85550693Y-98512276D01*
X85571021Y-98547621D01*
X85592973Y-98581881D01*
X85616517Y-98614968D01*
X85641587Y-98646855D01*
X85668109Y-98677489D01*
X85696070Y-98706815D01*
X85725382Y-98734762D01*
X85756008Y-98761300D01*
X85787905Y-98786358D01*
X85820999Y-98809892D01*
X85855266Y-98831849D01*
X85890600Y-98852183D01*
X85926999Y-98870824D01*
X85964404Y-98887727D01*
X86002732Y-98902841D01*
X86041967Y-98916113D01*
X86082019Y-98927494D01*
X86122865Y-98936911D01*
X86164436Y-98944335D01*
X86206672Y-98949715D01*
X86249545Y-98952965D01*
X86292993Y-98954071D01*
X92592649Y-98954071D01*
X92636079Y-98952965D01*
X92678949Y-98949715D01*
X92721198Y-98944335D01*
X92762775Y-98936911D01*
X92803620Y-98927494D01*
X92843672Y-98916113D01*
X92882900Y-98902841D01*
X92921238Y-98887727D01*
X92958620Y-98870824D01*
X92995022Y-98852183D01*
X93030384Y-98831849D01*
X93064634Y-98809892D01*
X93097732Y-98786358D01*
X93129622Y-98761300D01*
X93160251Y-98734762D01*
X93189572Y-98706815D01*
X93217525Y-98677489D01*
X93244051Y-98646855D01*
X93269117Y-98614968D01*
X93292653Y-98581881D01*
X93314613Y-98547621D01*
X93334939Y-98512276D01*
X93353582Y-98475871D01*
X93370487Y-98438477D01*
X93385602Y-98400139D01*
X93398876Y-98360918D01*
X93410255Y-98320860D01*
X93419673Y-98280012D01*
X93427096Y-98238434D01*
X93432468Y-98196196D01*
X93435739Y-98153328D01*
X93436832Y-98109878D01*
X93435739Y-98066432D01*
X93432468Y-98023560D01*
X93427096Y-97981319D01*
X93419673Y-97939746D01*
X93410255Y-97898900D01*
X93398876Y-97858841D01*
X93385602Y-97819619D01*
X93370487Y-97781281D01*
X93353582Y-97743887D01*
X93334939Y-97707494D01*
X93314613Y-97672131D01*
X93292653Y-97637875D01*
X93269117Y-97604790D01*
X93244051Y-97572902D01*
X93217525Y-97542266D01*
X93189572Y-97512943D01*
X93160251Y-97484991D01*
X93129622Y-97458459D01*
X93097732Y-97433398D01*
X93064634Y-97409861D01*
X93030384Y-97387909D01*
X92995022Y-97367577D01*
X92958620Y-97348939D01*
X92921238Y-97332036D01*
X92882900Y-97316915D01*
X92843672Y-97303644D01*
X92803620Y-97292269D01*
X92762775Y-97282841D01*
X92721198Y-97275422D01*
X92678949Y-97270049D01*
X92636079Y-97266793D01*
X92592649Y-97265689D01*
X86292993Y-97265689D01*
X86251133Y-97266729D01*
D12*
X86251133Y-97266729D02*
X86209562Y-97269816D01*
X86168326Y-97274935D01*
X86127537Y-97282052D01*
X86087224Y-97291149D01*
X86047468Y-97302181D01*
X86008354Y-97315119D01*
X85969927Y-97329954D01*
X85932293Y-97346635D01*
X85895474Y-97365141D01*
X85859568Y-97385445D01*
X85824642Y-97407523D01*
X85790750Y-97431342D01*
X85757982Y-97456862D01*
X85726396Y-97484081D01*
X85696070Y-97512943D01*
X85667193Y-97543282D01*
X85639975Y-97574873D01*
X85614455Y-97607640D01*
X85590638Y-97641517D01*
X85568562Y-97676442D01*
X85548254Y-97712361D01*
X85529747Y-97749174D01*
X85513077Y-97786815D01*
X85498237Y-97825241D01*
X85485296Y-97864362D01*
X85474264Y-97904117D01*
X85465168Y-97944412D01*
X85458050Y-97985221D01*
X85452933Y-98026439D01*
X85449842Y-98068020D01*
X85448809Y-98109878D01*
X85449900Y-98153328D01*
X85453163Y-98196196D01*
X85458531Y-98238434D01*
X85465951Y-98280012D01*
X85475375Y-98320860D01*
X85486763Y-98360918D01*
X85500024Y-98400139D01*
X85515141Y-98438477D01*
X85532057Y-98475871D01*
X85550693Y-98512276D01*
X85571021Y-98547621D01*
X85592973Y-98581881D01*
X85616517Y-98614968D01*
X85641587Y-98646855D01*
X85668109Y-98677489D01*
X85696070Y-98706815D01*
X85725382Y-98734762D01*
X85756008Y-98761300D01*
X85787905Y-98786358D01*
X85820999Y-98809892D01*
X85855266Y-98831849D01*
X85890600Y-98852183D01*
X85926999Y-98870824D01*
X85964404Y-98887727D01*
X86002732Y-98902841D01*
X86041967Y-98916113D01*
X86082019Y-98927494D01*
X86122865Y-98936911D01*
X86164436Y-98944335D01*
X86206672Y-98949715D01*
X86249545Y-98952965D01*
X86292993Y-98954071D01*
X92592649Y-98954071D01*
X92636079Y-98952965D01*
X92678949Y-98949715D01*
X92721198Y-98944335D01*
X92762775Y-98936911D01*
X92803620Y-98927494D01*
X92843672Y-98916113D01*
X92882900Y-98902841D01*
X92921238Y-98887727D01*
X92958620Y-98870824D01*
X92995022Y-98852183D01*
X93030384Y-98831849D01*
X93064634Y-98809892D01*
X93097732Y-98786358D01*
X93129622Y-98761300D01*
X93160251Y-98734762D01*
X93189572Y-98706815D01*
X93217525Y-98677489D01*
X93244051Y-98646855D01*
X93269117Y-98614968D01*
X93292653Y-98581881D01*
X93314613Y-98547621D01*
X93334939Y-98512276D01*
X93353582Y-98475871D01*
X93370487Y-98438477D01*
X93385602Y-98400139D01*
X93398876Y-98360918D01*
X93410255Y-98320860D01*
X93419673Y-98280012D01*
X93427096Y-98238434D01*
X93432468Y-98196196D01*
X93435739Y-98153328D01*
X93436832Y-98109878D01*
X93435739Y-98066432D01*
X93432468Y-98023560D01*
X93427096Y-97981319D01*
X93419673Y-97939746D01*
X93410255Y-97898900D01*
X93398876Y-97858841D01*
X93385602Y-97819619D01*
X93370487Y-97781281D01*
X93353582Y-97743887D01*
X93334939Y-97707494D01*
X93314613Y-97672131D01*
X93292653Y-97637875D01*
X93269117Y-97604790D01*
X93244051Y-97572902D01*
X93217525Y-97542266D01*
X93189572Y-97512943D01*
X93160251Y-97484991D01*
X93129622Y-97458459D01*
X93097732Y-97433398D01*
X93064634Y-97409861D01*
X93030384Y-97387909D01*
X92995022Y-97367577D01*
X92958620Y-97348939D01*
X92921238Y-97332036D01*
X92882900Y-97316915D01*
X92843672Y-97303644D01*
X92803620Y-97292269D01*
X92762775Y-97282841D01*
X92721198Y-97275422D01*
X92678949Y-97270049D01*
X92636079Y-97266793D01*
X92592649Y-97265689D01*
X86292993Y-97265689D01*
X86251133Y-97266729D01*
D10*
G36*
X87286601Y-97671431D02*
G01*
X87292286Y-97671723D01*
X87297785Y-97672214D01*
X87303110Y-97672899D01*
X87308245Y-97673776D01*
X87313226Y-97674850D01*
X87318030Y-97676136D01*
X87322645Y-97677598D01*
X87327088Y-97679257D01*
X87331370Y-97681120D01*
X87335454Y-97683177D01*
X87339386Y-97685413D01*
X87343134Y-97687868D01*
X87346691Y-97690514D01*
X87350092Y-97693353D01*
X87353316Y-97696385D01*
X87356341Y-97699606D01*
X87359183Y-97703023D01*
X87361823Y-97706616D01*
X87364276Y-97710401D01*
X87366511Y-97714371D01*
X87368578Y-97718523D01*
X87370438Y-97722881D01*
X87372109Y-97727414D01*
X87373565Y-97732127D01*
X87374834Y-97737027D01*
X87375909Y-97742118D01*
X87376792Y-97747399D01*
X87377484Y-97752869D01*
X87377971Y-97758510D01*
X87378261Y-97764365D01*
X87378364Y-97770377D01*
X87378364Y-98458253D01*
X87378261Y-98463977D01*
X87377965Y-98469531D01*
X87377450Y-98474940D01*
X87376756Y-98480193D01*
X87375862Y-98485290D01*
X87374757Y-98490226D01*
X87373463Y-98495009D01*
X87371960Y-98499641D01*
X87370252Y-98504118D01*
X87368355Y-98508432D01*
X87366246Y-98512603D01*
X87363944Y-98516615D01*
X87361436Y-98520459D01*
X87358743Y-98524161D01*
X87355837Y-98527710D01*
X87352728Y-98531101D01*
X87349453Y-98534278D01*
X87345988Y-98537244D01*
X87342348Y-98539997D01*
X87338537Y-98542563D01*
X87334556Y-98544921D01*
X87330397Y-98547067D01*
X87326072Y-98549014D01*
X87321566Y-98550757D01*
X87316890Y-98552289D01*
X87312043Y-98553626D01*
X87307020Y-98554744D01*
X87301827Y-98555660D01*
X87296460Y-98556380D01*
X87290914Y-98556890D01*
X87285205Y-98557201D01*
X87279316Y-98557304D01*
X86848273Y-98557304D01*
X86843349Y-98557220D01*
X86838559Y-98556970D01*
X86833912Y-98556553D01*
X86829410Y-98555963D01*
X86825033Y-98555215D01*
X86820822Y-98554312D01*
X86816736Y-98553225D01*
X86812785Y-98551971D01*
X86808999Y-98550559D01*
X86805338Y-98548978D01*
X86801818Y-98547233D01*
X86798448Y-98545313D01*
X86795214Y-98543232D01*
X86792128Y-98540985D01*
X86789179Y-98538575D01*
X86786370Y-98535990D01*
X86783725Y-98533260D01*
X86781246Y-98530379D01*
X86778934Y-98527349D01*
X86776802Y-98524166D01*
X86774831Y-98520849D01*
X86773027Y-98517383D01*
X86771420Y-98513769D01*
X86769963Y-98510001D01*
X86768677Y-98506105D01*
X86767562Y-98502041D01*
X86766624Y-98497850D01*
X86765854Y-98493504D01*
X86765262Y-98489016D01*
X86764835Y-98484378D01*
X86764582Y-98479596D01*
X86764488Y-98474666D01*
X86764582Y-98469878D01*
X86764835Y-98465221D01*
X86765262Y-98460715D01*
X86765854Y-98456327D01*
X86766624Y-98452087D01*
X86767562Y-98447986D01*
X86768677Y-98444016D01*
X86769963Y-98440180D01*
X86771420Y-98436483D01*
X86773027Y-98432945D01*
X86774831Y-98429520D01*
X86776802Y-98426239D01*
X86778934Y-98423097D01*
X86781246Y-98420093D01*
X86783725Y-98417226D01*
X86786370Y-98414495D01*
X86789179Y-98411907D01*
X86792128Y-98409495D01*
X86795214Y-98407246D01*
X86798448Y-98405169D01*
X86801818Y-98403252D01*
X86805338Y-98401504D01*
X86808999Y-98399916D01*
X86812785Y-98398502D01*
X86816736Y-98397266D01*
X86820822Y-98396173D01*
X86825033Y-98395265D01*
X86829410Y-98394514D01*
X86833912Y-98393926D01*
X86838559Y-98393511D01*
X86843349Y-98393263D01*
X86848273Y-98393182D01*
X87184005Y-98393182D01*
X87184005Y-97770377D01*
X87184103Y-97764365D01*
X87184396Y-97758510D01*
X87184901Y-97752869D01*
X87185590Y-97747399D01*
X87186474Y-97742118D01*
X87187569Y-97737027D01*
X87188859Y-97732127D01*
X87190344Y-97727414D01*
X87192020Y-97722881D01*
X87193901Y-97718523D01*
X87195983Y-97714371D01*
X87198262Y-97710401D01*
X87200737Y-97706616D01*
X87203410Y-97703023D01*
X87206278Y-97699606D01*
X87209349Y-97696385D01*
X87212563Y-97693353D01*
X87215930Y-97690514D01*
X87219484Y-97687868D01*
X87223210Y-97685413D01*
X87227084Y-97683177D01*
X87231133Y-97681120D01*
X87235338Y-97679257D01*
X87239722Y-97677598D01*
X87244271Y-97676136D01*
X87248980Y-97674850D01*
X87253856Y-97673776D01*
X87258903Y-97672899D01*
X87264129Y-97672214D01*
X87269497Y-97671723D01*
X87275041Y-97671431D01*
X87280757Y-97671344D01*
X87286601Y-97671431D01*
G37*
G36*
X90339467Y-98447018D02*
G01*
X90341408Y-98451240D01*
X90343159Y-98455412D01*
X90344760Y-98459537D01*
X90346184Y-98463618D01*
X90347438Y-98467641D01*
X90348530Y-98471615D01*
X90349447Y-98475544D01*
X90350202Y-98479415D01*
X90350785Y-98483246D01*
X90351193Y-98487018D01*
X90351432Y-98490742D01*
X90351512Y-98494420D01*
X90351414Y-98498056D01*
X90351150Y-98501626D01*
X90350733Y-98505169D01*
X90350121Y-98508644D01*
X90349345Y-98512020D01*
X90348433Y-98515307D01*
X90347395Y-98518511D01*
X90346238Y-98521634D01*
X90344960Y-98524669D01*
X90343547Y-98527618D01*
X90342001Y-98530478D01*
X90340341Y-98533260D01*
X90338543Y-98535959D01*
X90336626Y-98538556D01*
X90334584Y-98541082D01*
X90332420Y-98543511D01*
X90330121Y-98545865D01*
X90327703Y-98548126D01*
X90325161Y-98550317D01*
X90322485Y-98552397D01*
X90319697Y-98554357D01*
X90316803Y-98556183D01*
X90313813Y-98557886D01*
X90310711Y-98559465D01*
X90307518Y-98560907D01*
X90304214Y-98562232D01*
X90300803Y-98563432D01*
X90297288Y-98564505D01*
X90293673Y-98565450D01*
X90289955Y-98566264D01*
X90286132Y-98566961D01*
X90282210Y-98567522D01*
X90278193Y-98567967D01*
X90274054Y-98568280D01*
X90269822Y-98568470D01*
X90265474Y-98568526D01*
X90260550Y-98568450D01*
X90255766Y-98568234D01*
X90251146Y-98567854D01*
X90246675Y-98567329D01*
X90242342Y-98566641D01*
X90238168Y-98565821D01*
X90234148Y-98564836D01*
X90230286Y-98563707D01*
X90226551Y-98562427D01*
X90222970Y-98561004D01*
X90219553Y-98559425D01*
X90216295Y-98557678D01*
X90213175Y-98555795D01*
X90210207Y-98553760D01*
X90207385Y-98551569D01*
X90204719Y-98549239D01*
X90202141Y-98546695D01*
X90199566Y-98543970D01*
X90197020Y-98541054D01*
X90194477Y-98537941D01*
X90191958Y-98534640D01*
X90189455Y-98531151D01*
X90186969Y-98527472D01*
X90184488Y-98523617D01*
X90182039Y-98519559D01*
X90179593Y-98515316D01*
X90177174Y-98510884D01*
X90174754Y-98506269D01*
X90169983Y-98496456D01*
X90165273Y-98485895D01*
X90114148Y-98365542D01*
X89700934Y-98365542D01*
X89649008Y-98485895D01*
X89646799Y-98491132D01*
X89644532Y-98496196D01*
X89642237Y-98501083D01*
X89639896Y-98505803D01*
X89637498Y-98510339D01*
X89635069Y-98514694D01*
X89632598Y-98518885D01*
X89630073Y-98522887D01*
X89627522Y-98526731D01*
X89624916Y-98530396D01*
X89622277Y-98533867D01*
X89619591Y-98537179D01*
X89616856Y-98540321D01*
X89614088Y-98543280D01*
X89611270Y-98546053D01*
X89608410Y-98548659D01*
X89605419Y-98551072D01*
X89602278Y-98553319D01*
X89598986Y-98555419D01*
X89595549Y-98557348D01*
X89591949Y-98559139D01*
X89588211Y-98560777D01*
X89584316Y-98562247D01*
X89580269Y-98563555D01*
X89576068Y-98564731D01*
X89571723Y-98565744D01*
X89567221Y-98566596D01*
X89562580Y-98567291D01*
X89557782Y-98567834D01*
X89552827Y-98568228D01*
X89547729Y-98568450D01*
X89542480Y-98568526D01*
X89538283Y-98568470D01*
X89534170Y-98568294D01*
X89530173Y-98567989D01*
X89526277Y-98567557D01*
X89522486Y-98567019D01*
X89518780Y-98566351D01*
X89515172Y-98565555D01*
X89511669Y-98564649D01*
X89508264Y-98563613D01*
X89504958Y-98562454D01*
X89501745Y-98561185D01*
X89498639Y-98559783D01*
X89495626Y-98558266D01*
X89492719Y-98556625D01*
X89489910Y-98554870D01*
X89487188Y-98552986D01*
X89484604Y-98550960D01*
X89482135Y-98548826D01*
X89479802Y-98546625D01*
X89477610Y-98544303D01*
X89475542Y-98541912D01*
X89473605Y-98539398D01*
X89471800Y-98536815D01*
X89470126Y-98534121D01*
X89468593Y-98531338D01*
X89467190Y-98528464D01*
X89465919Y-98525489D01*
X89464788Y-98522425D01*
X89463789Y-98519260D01*
X89462916Y-98516011D01*
X89462170Y-98512667D01*
X89461568Y-98509222D01*
X89461117Y-98505671D01*
X89460814Y-98502067D01*
X89460679Y-98498434D01*
X89460709Y-98494748D01*
X89460896Y-98491013D01*
X89461244Y-98487244D01*
X89461755Y-98483424D01*
X89462434Y-98479565D01*
X89463271Y-98475654D01*
X89464268Y-98471696D01*
X89465424Y-98467702D01*
X89466754Y-98463652D01*
X89468236Y-98459554D01*
X89469880Y-98455425D01*
X89471692Y-98451242D01*
X89473661Y-98447018D01*
X89580724Y-98214093D01*
X89766035Y-98214093D01*
X90049542Y-98214093D01*
X89909587Y-97880658D01*
X89906995Y-97880658D01*
X89766035Y-98214093D01*
X89580724Y-98214093D01*
X89796719Y-97744177D01*
X89799124Y-97738948D01*
X89801613Y-97733892D01*
X89804145Y-97729021D01*
X89806771Y-97724327D01*
X89809444Y-97719819D01*
X89812182Y-97715502D01*
X89815001Y-97711365D01*
X89817879Y-97707392D01*
X89820831Y-97703622D01*
X89823851Y-97700028D01*
X89826928Y-97696609D01*
X89830085Y-97693380D01*
X89833311Y-97690337D01*
X89836597Y-97687456D01*
X89839938Y-97684779D01*
X89843372Y-97682278D01*
X89846822Y-97679905D01*
X89850341Y-97677687D01*
X89853938Y-97675622D01*
X89857604Y-97673709D01*
X89861328Y-97671955D01*
X89865137Y-97670338D01*
X89869009Y-97668885D01*
X89872953Y-97667593D01*
X89876968Y-97666444D01*
X89881045Y-97665442D01*
X89885194Y-97664606D01*
X89889415Y-97663926D01*
X89893712Y-97663380D01*
X89898066Y-97663000D01*
X89902501Y-97662772D01*
X89906995Y-97662697D01*
X89911535Y-97662772D01*
X89916000Y-97663000D01*
X89920395Y-97663380D01*
X89924730Y-97663926D01*
X89928976Y-97664606D01*
X89933163Y-97665442D01*
X89937288Y-97666444D01*
X89941340Y-97667593D01*
X89945312Y-97668885D01*
X89949220Y-97670338D01*
X89953049Y-97671955D01*
X89956829Y-97673709D01*
X89960527Y-97675622D01*
X89964161Y-97677687D01*
X89967718Y-97679905D01*
X89971205Y-97682278D01*
X89974598Y-97684779D01*
X89977934Y-97687456D01*
X89981219Y-97690337D01*
X89984424Y-97693380D01*
X89987594Y-97696609D01*
X89990708Y-97700028D01*
X89993761Y-97703622D01*
X89996768Y-97707392D01*
X89999710Y-97711365D01*
X90002584Y-97715502D01*
X90005418Y-97719819D01*
X90008188Y-97724327D01*
X90010905Y-97729021D01*
X90013565Y-97733892D01*
X90016169Y-97738948D01*
X90018716Y-97744177D01*
X90233159Y-98214093D01*
X90339467Y-98447018D01*
G37*
G36*
X86564735Y-97674033D02*
G01*
X86570594Y-97674338D01*
X86576277Y-97674850D01*
X86581774Y-97675582D01*
X86587107Y-97676519D01*
X86592263Y-97677658D01*
X86597241Y-97678996D01*
X86602034Y-97680552D01*
X86606668Y-97682299D01*
X86611122Y-97684277D01*
X86615390Y-97686449D01*
X86619499Y-97688826D01*
X86623423Y-97691414D01*
X86627172Y-97694206D01*
X86630747Y-97697206D01*
X86634141Y-97700413D01*
X86637315Y-97703782D01*
X86640285Y-97707314D01*
X86643043Y-97711031D01*
X86645605Y-97714919D01*
X86647964Y-97718992D01*
X86650106Y-97723231D01*
X86652057Y-97727639D01*
X86653797Y-97732233D01*
X86655324Y-97736999D01*
X86656667Y-97741941D01*
X86657794Y-97747048D01*
X86658705Y-97752351D01*
X86659428Y-97757824D01*
X86659934Y-97763465D01*
X86660237Y-97769283D01*
X86660357Y-97775287D01*
X86660357Y-98455666D01*
X86660237Y-98461694D01*
X86659934Y-98467548D01*
X86659428Y-98473226D01*
X86658705Y-98478731D01*
X86657794Y-98484059D01*
X86656667Y-98489220D01*
X86655324Y-98494194D01*
X86653797Y-98498998D01*
X86652057Y-98503619D01*
X86650106Y-98508075D01*
X86647964Y-98512360D01*
X86645605Y-98516454D01*
X86643043Y-98520375D01*
X86640285Y-98524130D01*
X86637315Y-98527703D01*
X86634141Y-98531101D01*
X86630747Y-98534278D01*
X86627172Y-98537244D01*
X86623423Y-98539997D01*
X86619499Y-98542563D01*
X86615390Y-98544921D01*
X86611122Y-98547067D01*
X86606668Y-98549014D01*
X86602034Y-98550757D01*
X86597241Y-98552289D01*
X86592263Y-98553626D01*
X86587107Y-98554744D01*
X86581774Y-98555660D01*
X86576277Y-98556380D01*
X86570594Y-98556890D01*
X86564735Y-98557201D01*
X86558699Y-98557304D01*
X86121627Y-98557304D01*
X86116986Y-98557222D01*
X86112493Y-98557001D01*
X86108132Y-98556623D01*
X86103923Y-98556094D01*
X86099844Y-98555421D01*
X86095925Y-98554585D01*
X86092150Y-98553611D01*
X86088515Y-98552469D01*
X86085025Y-98551198D01*
X86081674Y-98549768D01*
X86078475Y-98548178D01*
X86075418Y-98546451D01*
X86072501Y-98544560D01*
X86069720Y-98542527D01*
X86067099Y-98540344D01*
X86064621Y-98538008D01*
X86062247Y-98535498D01*
X86060026Y-98532832D01*
X86057963Y-98530043D01*
X86056042Y-98527106D01*
X86054280Y-98524034D01*
X86052683Y-98520813D01*
X86051237Y-98517458D01*
X86049934Y-98513964D01*
X86048785Y-98510339D01*
X86047786Y-98506565D01*
X86046952Y-98502660D01*
X86046263Y-98498600D01*
X86045730Y-98494408D01*
X86045342Y-98490078D01*
X86045119Y-98485610D01*
X86045030Y-98480995D01*
X86045119Y-98476498D01*
X86045342Y-98472129D01*
X86045730Y-98467896D01*
X86046263Y-98463794D01*
X86046952Y-98459828D01*
X86047786Y-98456014D01*
X86048785Y-98452308D01*
X86049934Y-98448749D01*
X86051237Y-98445329D01*
X86052683Y-98442037D01*
X86054280Y-98438886D01*
X86056042Y-98435868D01*
X86057963Y-98432986D01*
X86060026Y-98430233D01*
X86062247Y-98427625D01*
X86064621Y-98425144D01*
X86067099Y-98422773D01*
X86069720Y-98420550D01*
X86072501Y-98418484D01*
X86075418Y-98416569D01*
X86078475Y-98414815D01*
X86081674Y-98413211D01*
X86085025Y-98411759D01*
X86088515Y-98410464D01*
X86092150Y-98409307D01*
X86095925Y-98408317D01*
X86099844Y-98407475D01*
X86103923Y-98406779D01*
X86108132Y-98406246D01*
X86112493Y-98405869D01*
X86116986Y-98405638D01*
X86121627Y-98405556D01*
X86474914Y-98405556D01*
X86474914Y-98185003D01*
X86150419Y-98185003D01*
X86145638Y-98184933D01*
X86141014Y-98184703D01*
X86136534Y-98184330D01*
X86132212Y-98183800D01*
X86128048Y-98183120D01*
X86124021Y-98182293D01*
X86120153Y-98181306D01*
X86116445Y-98180179D01*
X86112881Y-98178902D01*
X86109487Y-98177474D01*
X86106223Y-98175890D01*
X86103132Y-98174153D01*
X86100181Y-98172268D01*
X86097387Y-98170228D01*
X86094739Y-98168051D01*
X86092250Y-98165714D01*
X86089893Y-98163234D01*
X86087666Y-98160606D01*
X86085600Y-98157839D01*
X86083692Y-98154925D01*
X86081922Y-98151854D01*
X86080333Y-98148656D01*
X86078872Y-98145307D01*
X86077580Y-98141814D01*
X86076424Y-98138181D01*
X86075436Y-98134399D01*
X86074584Y-98130475D01*
X86073899Y-98126415D01*
X86073368Y-98122203D01*
X86072974Y-98117836D01*
X86072744Y-98113348D01*
X86072675Y-98108706D01*
X86072744Y-98104057D01*
X86072974Y-98099562D01*
X86073368Y-98095205D01*
X86073899Y-98090996D01*
X86074584Y-98086933D01*
X86075436Y-98083011D01*
X86076424Y-98079225D01*
X86077580Y-98075594D01*
X86078872Y-98072101D01*
X86080333Y-98068756D01*
X86081922Y-98065549D01*
X86083692Y-98062492D01*
X86085600Y-98059582D01*
X86087666Y-98056792D01*
X86089893Y-98054175D01*
X86092250Y-98051695D01*
X86094739Y-98049359D01*
X86097387Y-98047165D01*
X86100181Y-98045139D01*
X86103132Y-98043255D01*
X86106223Y-98041519D01*
X86109487Y-98039941D01*
X86112881Y-98038512D01*
X86116445Y-98037223D01*
X86120153Y-98036096D01*
X86124021Y-98035120D01*
X86128048Y-98034287D01*
X86132212Y-98033610D01*
X86136534Y-98033080D01*
X86141014Y-98032698D01*
X86145638Y-98032484D01*
X86150419Y-98032404D01*
X86474914Y-98032404D01*
X86474914Y-97825378D01*
X86121627Y-97825378D01*
X86116986Y-97825304D01*
X86112493Y-97825083D01*
X86108132Y-97824690D01*
X86103923Y-97824166D01*
X86099844Y-97823488D01*
X86095925Y-97822675D01*
X86092150Y-97821689D01*
X86088515Y-97820559D01*
X86085025Y-97819271D01*
X86081674Y-97817845D01*
X86078475Y-97816261D01*
X86075418Y-97814528D01*
X86072501Y-97812651D01*
X86069720Y-97810613D01*
X86067099Y-97808429D01*
X86064621Y-97806082D01*
X86062247Y-97803609D01*
X86060026Y-97800976D01*
X86057963Y-97798207D01*
X86056042Y-97795282D01*
X86054280Y-97792231D01*
X86052683Y-97789030D01*
X86051237Y-97785679D01*
X86049934Y-97782186D01*
X86048785Y-97778558D01*
X86047786Y-97774777D01*
X86046952Y-97770856D01*
X86046263Y-97766786D01*
X86045730Y-97762572D01*
X86045342Y-97758224D01*
X86045119Y-97753717D01*
X86045030Y-97749080D01*
X86045119Y-97744608D01*
X86045342Y-97740269D01*
X86045730Y-97736072D01*
X86046263Y-97731995D01*
X86046952Y-97728065D01*
X86047786Y-97724253D01*
X86048785Y-97720579D01*
X86049934Y-97717042D01*
X86051237Y-97713635D01*
X86052683Y-97710360D01*
X86054280Y-97707222D01*
X86056042Y-97704217D01*
X86057963Y-97701337D01*
X86060026Y-97698586D01*
X86062247Y-97695981D01*
X86064621Y-97693501D01*
X86067099Y-97691136D01*
X86069720Y-97688914D01*
X86072501Y-97686854D01*
X86075418Y-97684943D01*
X86078475Y-97683181D01*
X86081674Y-97681575D01*
X86085025Y-97680115D01*
X86088515Y-97678824D01*
X86092150Y-97677679D01*
X86095925Y-97676678D01*
X86099844Y-97675835D01*
X86103923Y-97675140D01*
X86108132Y-97674607D01*
X86112493Y-97674239D01*
X86116986Y-97674004D01*
X86121627Y-97673932D01*
X86558699Y-97673932D01*
X86564735Y-97674033D01*
G37*
G36*
X89258341Y-97662788D02*
G01*
X89263459Y-97663072D01*
X89268424Y-97663533D01*
X89273263Y-97664187D01*
X89277949Y-97665027D01*
X89282495Y-97666051D01*
X89286901Y-97667278D01*
X89291169Y-97668670D01*
X89295282Y-97670260D01*
X89299269Y-97672034D01*
X89303111Y-97673990D01*
X89306801Y-97676140D01*
X89310365Y-97678475D01*
X89313771Y-97680991D01*
X89317044Y-97683696D01*
X89320176Y-97686604D01*
X89323107Y-97689617D01*
X89325845Y-97692793D01*
X89328401Y-97696118D01*
X89330760Y-97699579D01*
X89332924Y-97703199D01*
X89334908Y-97706974D01*
X89336712Y-97710893D01*
X89338319Y-97714958D01*
X89339744Y-97719165D01*
X89340967Y-97723538D01*
X89342001Y-97728046D01*
X89342849Y-97732696D01*
X89343509Y-97737513D01*
X89343985Y-97742461D01*
X89344269Y-97747570D01*
X89344363Y-97752821D01*
X89344363Y-98478411D01*
X89344281Y-98483662D01*
X89344005Y-98488769D01*
X89343573Y-98493727D01*
X89342958Y-98498549D01*
X89342169Y-98503210D01*
X89341203Y-98507737D01*
X89340062Y-98512111D01*
X89338748Y-98516347D01*
X89337255Y-98520429D01*
X89335590Y-98524372D01*
X89333749Y-98528155D01*
X89331736Y-98531806D01*
X89329536Y-98535302D01*
X89327170Y-98538653D01*
X89324628Y-98541860D01*
X89321906Y-98544925D01*
X89319022Y-98547772D01*
X89315976Y-98550453D01*
X89312778Y-98552950D01*
X89309419Y-98555252D01*
X89305905Y-98557363D01*
X89302230Y-98559317D01*
X89298392Y-98561061D01*
X89294414Y-98562626D01*
X89290263Y-98564018D01*
X89285952Y-98565203D01*
X89281492Y-98566232D01*
X89276876Y-98567054D01*
X89272100Y-98567707D01*
X89267170Y-98568167D01*
X89262085Y-98568439D01*
X89256822Y-98568526D01*
X89251407Y-98568439D01*
X89246160Y-98568167D01*
X89241094Y-98567707D01*
X89236196Y-98567054D01*
X89231457Y-98566232D01*
X89226907Y-98565203D01*
X89222526Y-98564018D01*
X89218325Y-98562626D01*
X89214293Y-98561061D01*
X89210420Y-98559317D01*
X89206738Y-98557363D01*
X89203225Y-98555252D01*
X89199883Y-98552950D01*
X89196711Y-98550453D01*
X89193718Y-98547772D01*
X89190892Y-98544925D01*
X89188244Y-98541860D01*
X89185765Y-98538653D01*
X89183455Y-98535302D01*
X89181321Y-98531806D01*
X89179351Y-98528155D01*
X89177569Y-98524372D01*
X89175934Y-98520429D01*
X89174491Y-98516347D01*
X89173190Y-98512111D01*
X89172096Y-98507737D01*
X89171152Y-98503210D01*
X89170380Y-98498549D01*
X89169786Y-98493727D01*
X89169352Y-98488769D01*
X89169091Y-98483662D01*
X89169012Y-98478411D01*
X89169012Y-98022818D01*
X88963431Y-98387998D01*
X88961686Y-98390804D01*
X88959917Y-98393522D01*
X88958122Y-98396170D01*
X88956305Y-98398741D01*
X88954451Y-98401226D01*
X88952570Y-98403640D01*
X88950674Y-98405974D01*
X88948737Y-98408224D01*
X88946790Y-98410391D01*
X88944807Y-98412495D01*
X88942787Y-98414517D01*
X88940751Y-98416449D01*
X88938683Y-98418315D01*
X88936595Y-98420093D01*
X88934473Y-98421789D01*
X88932331Y-98423411D01*
X88930091Y-98424913D01*
X88927781Y-98426319D01*
X88925390Y-98427625D01*
X88922917Y-98428829D01*
X88920370Y-98429945D01*
X88917741Y-98430957D01*
X88915035Y-98431881D01*
X88912257Y-98432697D01*
X88909377Y-98433424D01*
X88906440Y-98434057D01*
X88903415Y-98434583D01*
X88900320Y-98435026D01*
X88897137Y-98435361D01*
X88893877Y-98435603D01*
X88890544Y-98435744D01*
X88887120Y-98435796D01*
X88883722Y-98435750D01*
X88880390Y-98435611D01*
X88877141Y-98435383D01*
X88873992Y-98435058D01*
X88870916Y-98434640D01*
X88867940Y-98434138D01*
X88865034Y-98433539D01*
X88862223Y-98432850D01*
X88859486Y-98432057D01*
X88856856Y-98431182D01*
X88854291Y-98430223D01*
X88851819Y-98429153D01*
X88849430Y-98427993D01*
X88847130Y-98426753D01*
X88844919Y-98425425D01*
X88842780Y-98423987D01*
X88840666Y-98422435D01*
X88838563Y-98420785D01*
X88836475Y-98419039D01*
X88834393Y-98417202D01*
X88832341Y-98415278D01*
X88830281Y-98413264D01*
X88828253Y-98411143D01*
X88826234Y-98408948D01*
X88824218Y-98406652D01*
X88822238Y-98404261D01*
X88820241Y-98401779D01*
X88818279Y-98399204D01*
X88816321Y-98396548D01*
X88814375Y-98393785D01*
X88812449Y-98390940D01*
X88810529Y-98387998D01*
X88605251Y-98020291D01*
X88605251Y-98478411D01*
X88605158Y-98483662D01*
X88604885Y-98488769D01*
X88604431Y-98493727D01*
X88603803Y-98498549D01*
X88602992Y-98503210D01*
X88601999Y-98507737D01*
X88600833Y-98512111D01*
X88599484Y-98516347D01*
X88597944Y-98520429D01*
X88596242Y-98524372D01*
X88594356Y-98528155D01*
X88592281Y-98531806D01*
X88590039Y-98535302D01*
X88587603Y-98538653D01*
X88584992Y-98541860D01*
X88582207Y-98544925D01*
X88579221Y-98547772D01*
X88576080Y-98550453D01*
X88572787Y-98552950D01*
X88569338Y-98555252D01*
X88565747Y-98557363D01*
X88562001Y-98559317D01*
X88558094Y-98561061D01*
X88554061Y-98562626D01*
X88549864Y-98564018D01*
X88545520Y-98565203D01*
X88541020Y-98566232D01*
X88536368Y-98567054D01*
X88531570Y-98567707D01*
X88526618Y-98568167D01*
X88521523Y-98568439D01*
X88516269Y-98568526D01*
X88511020Y-98568439D01*
X88505927Y-98568167D01*
X88500997Y-98567707D01*
X88496230Y-98567054D01*
X88491601Y-98566232D01*
X88487149Y-98565203D01*
X88482841Y-98564018D01*
X88478695Y-98562626D01*
X88474704Y-98561061D01*
X88470876Y-98559317D01*
X88467210Y-98557363D01*
X88463686Y-98555252D01*
X88460329Y-98552950D01*
X88457130Y-98550453D01*
X88454082Y-98547772D01*
X88451199Y-98544925D01*
X88448442Y-98541860D01*
X88445877Y-98538653D01*
X88443471Y-98535302D01*
X88441240Y-98531806D01*
X88439207Y-98528155D01*
X88437337Y-98524372D01*
X88435635Y-98520429D01*
X88434137Y-98516347D01*
X88432811Y-98512111D01*
X88431654Y-98507737D01*
X88430675Y-98503210D01*
X88429874Y-98498549D01*
X88429252Y-98493727D01*
X88428810Y-98488769D01*
X88428541Y-98483662D01*
X88428453Y-98478411D01*
X88428453Y-97752821D01*
X88428542Y-97747570D01*
X88428815Y-97742461D01*
X88429271Y-97737513D01*
X88429911Y-97732696D01*
X88430733Y-97728046D01*
X88431731Y-97723538D01*
X88432924Y-97719165D01*
X88434288Y-97714958D01*
X88435836Y-97710893D01*
X88437563Y-97706974D01*
X88439479Y-97703199D01*
X88441570Y-97699579D01*
X88443851Y-97696118D01*
X88446308Y-97692793D01*
X88448948Y-97689617D01*
X88451770Y-97686604D01*
X88454726Y-97683696D01*
X88457836Y-97680991D01*
X88461099Y-97678475D01*
X88464514Y-97676140D01*
X88468077Y-97673990D01*
X88471807Y-97672034D01*
X88475679Y-97670260D01*
X88479710Y-97668670D01*
X88483886Y-97667278D01*
X88488215Y-97666051D01*
X88492703Y-97665027D01*
X88497338Y-97664187D01*
X88502129Y-97663533D01*
X88507074Y-97663072D01*
X88512187Y-97662788D01*
X88517418Y-97662697D01*
X88521902Y-97662751D01*
X88526265Y-97662925D01*
X88530532Y-97663199D01*
X88534670Y-97663600D01*
X88538720Y-97664103D01*
X88542649Y-97664712D01*
X88546473Y-97665445D01*
X88550168Y-97666295D01*
X88553773Y-97667256D01*
X88557265Y-97668318D01*
X88560638Y-97669501D01*
X88563910Y-97670799D01*
X88567062Y-97672200D01*
X88570115Y-97673716D01*
X88573041Y-97675351D01*
X88575879Y-97677095D01*
X88578594Y-97678975D01*
X88581296Y-97681014D01*
X88583970Y-97683229D01*
X88586619Y-97685584D01*
X88589236Y-97688123D01*
X88591835Y-97690809D01*
X88594409Y-97693654D01*
X88596968Y-97696667D01*
X88599487Y-97699848D01*
X88601985Y-97703184D01*
X88604462Y-97706688D01*
X88606911Y-97710340D01*
X88609341Y-97714172D01*
X88611739Y-97718155D01*
X88614115Y-97722314D01*
X88616463Y-97726605D01*
X88884530Y-98216342D01*
X89152604Y-97726605D01*
X89154986Y-97722314D01*
X89157395Y-97718155D01*
X89159833Y-97714172D01*
X89162281Y-97710340D01*
X89164756Y-97706688D01*
X89167257Y-97703184D01*
X89169784Y-97699848D01*
X89172326Y-97696667D01*
X89174888Y-97693654D01*
X89177479Y-97690809D01*
X89180094Y-97688123D01*
X89182720Y-97685584D01*
X89185384Y-97683229D01*
X89188066Y-97681014D01*
X89190761Y-97678975D01*
X89193487Y-97677095D01*
X89196283Y-97675351D01*
X89199201Y-97673716D01*
X89202247Y-97672200D01*
X89205415Y-97670799D01*
X89208714Y-97669501D01*
X89212119Y-97668318D01*
X89215665Y-97667256D01*
X89219325Y-97666295D01*
X89223115Y-97665445D01*
X89227026Y-97664712D01*
X89231062Y-97664103D01*
X89235218Y-97663600D01*
X89239507Y-97663199D01*
X89243907Y-97662925D01*
X89248433Y-97662751D01*
X89253095Y-97662697D01*
X89258341Y-97662788D01*
G37*
G36*
X88249255Y-98413336D02*
G01*
X88249255Y-98455666D01*
X88249151Y-98461694D01*
X88248846Y-98467548D01*
X88248340Y-98473226D01*
X88247612Y-98478731D01*
X88246691Y-98484059D01*
X88245572Y-98489220D01*
X88244240Y-98494194D01*
X88242700Y-98498998D01*
X88240964Y-98503619D01*
X88239016Y-98508075D01*
X88236869Y-98512360D01*
X88234516Y-98516454D01*
X88231963Y-98520375D01*
X88229193Y-98524130D01*
X88226222Y-98527703D01*
X88223053Y-98531101D01*
X88219655Y-98534278D01*
X88216078Y-98537244D01*
X88212335Y-98539997D01*
X88208397Y-98542563D01*
X88204307Y-98544921D01*
X88200028Y-98547067D01*
X88195581Y-98549014D01*
X88190951Y-98550757D01*
X88186145Y-98552289D01*
X88181170Y-98553626D01*
X88176012Y-98554744D01*
X88170677Y-98555660D01*
X88165176Y-98556380D01*
X88159501Y-98556890D01*
X88153638Y-98557201D01*
X88147617Y-98557304D01*
X87830598Y-98557304D01*
X87812989Y-98557047D01*
X87795863Y-98556283D01*
X87779207Y-98554995D01*
X87763043Y-98553204D01*
X87747364Y-98550899D01*
X87732154Y-98548073D01*
X87717426Y-98544731D01*
X87703194Y-98540888D01*
X87689435Y-98536528D01*
X87676154Y-98531654D01*
X87663359Y-98526269D01*
X87651039Y-98520375D01*
X87639208Y-98513963D01*
X87627847Y-98507038D01*
X87616974Y-98499610D01*
X87606596Y-98491659D01*
X87596732Y-98483208D01*
X87587497Y-98474360D01*
X87578897Y-98465107D01*
X87570935Y-98455450D01*
X87563609Y-98445383D01*
X87556931Y-98434911D01*
X87550885Y-98424043D01*
X87545476Y-98412764D01*
X87540697Y-98401077D01*
X87536565Y-98388993D01*
X87533069Y-98376496D01*
X87530200Y-98363599D01*
X87527965Y-98350289D01*
X87526377Y-98336582D01*
X87525424Y-98322461D01*
X87525104Y-98307958D01*
X87525299Y-98296965D01*
X87525313Y-98296721D01*
X87711676Y-98296721D01*
X87711820Y-98303815D01*
X87712233Y-98310689D01*
X87712918Y-98317334D01*
X87713878Y-98323775D01*
X87715113Y-98329987D01*
X87716621Y-98335986D01*
X87718407Y-98341766D01*
X87720474Y-98347328D01*
X87722806Y-98352673D01*
X87725403Y-98357793D01*
X87728284Y-98362703D01*
X87731440Y-98367396D01*
X87734880Y-98371872D01*
X87738578Y-98376108D01*
X87742560Y-98380149D01*
X87746813Y-98383971D01*
X87751350Y-98387524D01*
X87756218Y-98390856D01*
X87761395Y-98393952D01*
X87766875Y-98396813D01*
X87772673Y-98399460D01*
X87778784Y-98401867D01*
X87785213Y-98404047D01*
X87791948Y-98405997D01*
X87799002Y-98407709D01*
X87806359Y-98409211D01*
X87814033Y-98410469D01*
X87822018Y-98411506D01*
X87830308Y-98412309D01*
X87838925Y-98412884D01*
X87847852Y-98413218D01*
X87857088Y-98413336D01*
X88063827Y-98413336D01*
X88063827Y-98181260D01*
X87857088Y-98181260D01*
X87847852Y-98181372D01*
X87838925Y-98181715D01*
X87830308Y-98182290D01*
X87822018Y-98183078D01*
X87814033Y-98184106D01*
X87806359Y-98185356D01*
X87799002Y-98186826D01*
X87791948Y-98188537D01*
X87785213Y-98190462D01*
X87778784Y-98192622D01*
X87772673Y-98195007D01*
X87766875Y-98197620D01*
X87761395Y-98200461D01*
X87756218Y-98203525D01*
X87751350Y-98206822D01*
X87746813Y-98210347D01*
X87742560Y-98214052D01*
X87738578Y-98217992D01*
X87734880Y-98222156D01*
X87731440Y-98226535D01*
X87728284Y-98231144D01*
X87725403Y-98235988D01*
X87722806Y-98241051D01*
X87720474Y-98246337D01*
X87718407Y-98251849D01*
X87716621Y-98257582D01*
X87715113Y-98263545D01*
X87713878Y-98269723D01*
X87712918Y-98276148D01*
X87712233Y-98282777D01*
X87711820Y-98289642D01*
X87711676Y-98296721D01*
X87525313Y-98296721D01*
X87525895Y-98286228D01*
X87526900Y-98275758D01*
X87528278Y-98265556D01*
X87530056Y-98255612D01*
X87532231Y-98245917D01*
X87534796Y-98236497D01*
X87537775Y-98227329D01*
X87541134Y-98218423D01*
X87544902Y-98209788D01*
X87549059Y-98201403D01*
X87553612Y-98193279D01*
X87558555Y-98185413D01*
X87563904Y-98177828D01*
X87569641Y-98170489D01*
X87575794Y-98163412D01*
X87582275Y-98156581D01*
X87589086Y-98150054D01*
X87596220Y-98143845D01*
X87603676Y-98137947D01*
X87611447Y-98132353D01*
X87619537Y-98127058D01*
X87627949Y-98122078D01*
X87636680Y-98117411D01*
X87645728Y-98113053D01*
X87655100Y-98108993D01*
X87664790Y-98105253D01*
X87674795Y-98101807D01*
X87681379Y-98099812D01*
X87680675Y-98099547D01*
X87671998Y-98095899D01*
X87663582Y-98091981D01*
X87655439Y-98087776D01*
X87647550Y-98083294D01*
X87639925Y-98078528D01*
X87632565Y-98073477D01*
X87625462Y-98068156D01*
X87618627Y-98062549D01*
X87612058Y-98056651D01*
X87605746Y-98050478D01*
X87599698Y-98044032D01*
X87593921Y-98037300D01*
X87588448Y-98030290D01*
X87583325Y-98023108D01*
X87578563Y-98015742D01*
X87574140Y-98008179D01*
X87570083Y-98000429D01*
X87566368Y-97992512D01*
X87563022Y-97984405D01*
X87560018Y-97976115D01*
X87557372Y-97967639D01*
X87555072Y-97958969D01*
X87553134Y-97950118D01*
X87551542Y-97941097D01*
X87550305Y-97931876D01*
X87549848Y-97927012D01*
X87735580Y-97927012D01*
X87735716Y-97933789D01*
X87736128Y-97940339D01*
X87736816Y-97946677D01*
X87737780Y-97952812D01*
X87739017Y-97958717D01*
X87740519Y-97964429D01*
X87742300Y-97969908D01*
X87744368Y-97975177D01*
X87746702Y-97980229D01*
X87749312Y-97985075D01*
X87752183Y-97989707D01*
X87755340Y-97994126D01*
X87758769Y-97998326D01*
X87762480Y-98002312D01*
X87766460Y-98006088D01*
X87770705Y-98009660D01*
X87775213Y-98013000D01*
X87780020Y-98016138D01*
X87785107Y-98019047D01*
X87790513Y-98021741D01*
X87796203Y-98024229D01*
X87802186Y-98026498D01*
X87808472Y-98028552D01*
X87815051Y-98030385D01*
X87821927Y-98032005D01*
X87829103Y-98033411D01*
X87836583Y-98034597D01*
X87844348Y-98035568D01*
X87852418Y-98036319D01*
X87860778Y-98036860D01*
X87869441Y-98037190D01*
X87878396Y-98037300D01*
X88063827Y-98037300D01*
X88063827Y-97817891D01*
X87878396Y-97817891D01*
X87869441Y-97818002D01*
X87860778Y-97818321D01*
X87852418Y-97818866D01*
X87844348Y-97819620D01*
X87836583Y-97820595D01*
X87829103Y-97821778D01*
X87821927Y-97823181D01*
X87815051Y-97824802D01*
X87808472Y-97826635D01*
X87802186Y-97828683D01*
X87796203Y-97830948D01*
X87790513Y-97833444D01*
X87785107Y-97836136D01*
X87780020Y-97839061D01*
X87775213Y-97842181D01*
X87770705Y-97845535D01*
X87766460Y-97849090D01*
X87762480Y-97852853D01*
X87758769Y-97856821D01*
X87755340Y-97860990D01*
X87752183Y-97865369D01*
X87749312Y-97869952D01*
X87746702Y-97874733D01*
X87744368Y-97879729D01*
X87742300Y-97884929D01*
X87740519Y-97890318D01*
X87739017Y-97895919D01*
X87737780Y-97901735D01*
X87736816Y-97907746D01*
X87736128Y-97913972D01*
X87735716Y-97920395D01*
X87735580Y-97927012D01*
X87549848Y-97927012D01*
X87549422Y-97922480D01*
X87548897Y-97912882D01*
X87548712Y-97903120D01*
X87548845Y-97894270D01*
X87549262Y-97885579D01*
X87549929Y-97877053D01*
X87550874Y-97868676D01*
X87552086Y-97860469D01*
X87553576Y-97852398D01*
X87555326Y-97844492D01*
X87557351Y-97836756D01*
X87559654Y-97829166D01*
X87562206Y-97821740D01*
X87565044Y-97814464D01*
X87568149Y-97807343D01*
X87571528Y-97800389D01*
X87575168Y-97793591D01*
X87579081Y-97786948D01*
X87583268Y-97780456D01*
X87587706Y-97774110D01*
X87592409Y-97767949D01*
X87597361Y-97761994D01*
X87602542Y-97756205D01*
X87607980Y-97750610D01*
X87613672Y-97745208D01*
X87619619Y-97739992D01*
X87625811Y-97734970D01*
X87632245Y-97730138D01*
X87638943Y-97725483D01*
X87645888Y-97721027D01*
X87653075Y-97716753D01*
X87660517Y-97712672D01*
X87668205Y-97708782D01*
X87676138Y-97705074D01*
X87684328Y-97701564D01*
X87692720Y-97698210D01*
X87701321Y-97695080D01*
X87710137Y-97692173D01*
X87719171Y-97689471D01*
X87728421Y-97686988D01*
X87737883Y-97684726D01*
X87747571Y-97682668D01*
X87757469Y-97680841D01*
X87767577Y-97679216D01*
X87777910Y-97677812D01*
X87788452Y-97676625D01*
X87799218Y-97675650D01*
X87821383Y-97674352D01*
X87844430Y-97673932D01*
X88147617Y-97673932D01*
X88153638Y-97674033D01*
X88159501Y-97674338D01*
X88165176Y-97674850D01*
X88170677Y-97675582D01*
X88176012Y-97676519D01*
X88181170Y-97677658D01*
X88186145Y-97678996D01*
X88190951Y-97680552D01*
X88195581Y-97682299D01*
X88200028Y-97684277D01*
X88204307Y-97686449D01*
X88208397Y-97688826D01*
X88212335Y-97691414D01*
X88216078Y-97694206D01*
X88219655Y-97697206D01*
X88223053Y-97700413D01*
X88226222Y-97703782D01*
X88229193Y-97707314D01*
X88231963Y-97711031D01*
X88234516Y-97714919D01*
X88236869Y-97718992D01*
X88239016Y-97723231D01*
X88240964Y-97727639D01*
X88242700Y-97732233D01*
X88244240Y-97736999D01*
X88245572Y-97741941D01*
X88246691Y-97747048D01*
X88247612Y-97752351D01*
X88248340Y-97757824D01*
X88248846Y-97763465D01*
X88249151Y-97769283D01*
X88249255Y-97775287D01*
X88249255Y-98037300D01*
X88249255Y-98413336D01*
G37*
G36*
X91145120Y-98468334D02*
G01*
X91145024Y-98474191D01*
X91144733Y-98479877D01*
X91144247Y-98485407D01*
X91143559Y-98490775D01*
X91142678Y-98495979D01*
X91141597Y-98501006D01*
X91140337Y-98505873D01*
X91138863Y-98510587D01*
X91137209Y-98515127D01*
X91135341Y-98519503D01*
X91133283Y-98523719D01*
X91131032Y-98527769D01*
X91128589Y-98531654D01*
X91125945Y-98535377D01*
X91123112Y-98538935D01*
X91120069Y-98542327D01*
X91116856Y-98545504D01*
X91113463Y-98548474D01*
X91109898Y-98551236D01*
X91106144Y-98553790D01*
X91102222Y-98556143D01*
X91098138Y-98558305D01*
X91093866Y-98560243D01*
X91089408Y-98561983D01*
X91084787Y-98563504D01*
X91079984Y-98564843D01*
X91075013Y-98565974D01*
X91069870Y-98566894D01*
X91064546Y-98567601D01*
X91059048Y-98568121D01*
X91053371Y-98568425D01*
X91047520Y-98568526D01*
X91041634Y-98568425D01*
X91035931Y-98568121D01*
X91030409Y-98567601D01*
X91025078Y-98566894D01*
X91019929Y-98565974D01*
X91014947Y-98564843D01*
X91010150Y-98563504D01*
X91005556Y-98561983D01*
X91001136Y-98560243D01*
X90996879Y-98558305D01*
X90992829Y-98556143D01*
X90988941Y-98553790D01*
X90985246Y-98551236D01*
X90981730Y-98548474D01*
X90978403Y-98545504D01*
X90975245Y-98542327D01*
X90972288Y-98538935D01*
X90969513Y-98535377D01*
X90966931Y-98531654D01*
X90964536Y-98527769D01*
X90962336Y-98523719D01*
X90960337Y-98519503D01*
X90958527Y-98515127D01*
X90956884Y-98510587D01*
X90955456Y-98505873D01*
X90954214Y-98501006D01*
X90953157Y-98495979D01*
X90952299Y-98490775D01*
X90951630Y-98485407D01*
X90951157Y-98479877D01*
X90950866Y-98474191D01*
X90950788Y-98468334D01*
X90950788Y-98215234D01*
X90855767Y-98215234D01*
X90850946Y-98215290D01*
X90846219Y-98215431D01*
X90841604Y-98215682D01*
X90837079Y-98216033D01*
X90832644Y-98216474D01*
X90828310Y-98217022D01*
X90824059Y-98217657D01*
X90819908Y-98218400D01*
X90815849Y-98219248D01*
X90811888Y-98220185D01*
X90808019Y-98221227D01*
X90804258Y-98222369D01*
X90800573Y-98223596D01*
X90796985Y-98224933D01*
X90793499Y-98226371D01*
X90790108Y-98227904D01*
X90786749Y-98229541D01*
X90783465Y-98231361D01*
X90780236Y-98233344D01*
X90777085Y-98235516D01*
X90773976Y-98237862D01*
X90770935Y-98240393D01*
X90767968Y-98243100D01*
X90765051Y-98245973D01*
X90762209Y-98249036D01*
X90759422Y-98252279D01*
X90756706Y-98255686D01*
X90754043Y-98259270D01*
X90751454Y-98263041D01*
X90748914Y-98266994D01*
X90746442Y-98271115D01*
X90744039Y-98275413D01*
X90623969Y-98497126D01*
X90621433Y-98501589D01*
X90618848Y-98505900D01*
X90616213Y-98510071D01*
X90613549Y-98514091D01*
X90610835Y-98517972D01*
X90608080Y-98521697D01*
X90605288Y-98525286D01*
X90602445Y-98528727D01*
X90599559Y-98532011D01*
X90596642Y-98535162D01*
X90593666Y-98538162D01*
X90590653Y-98541017D01*
X90587603Y-98543734D01*
X90584506Y-98546284D01*
X90581375Y-98548696D01*
X90578189Y-98550972D01*
X90574925Y-98553097D01*
X90571535Y-98555082D01*
X90568025Y-98556941D01*
X90564383Y-98558655D01*
X90560620Y-98560228D01*
X90556738Y-98561670D01*
X90552741Y-98562970D01*
X90548604Y-98564147D01*
X90544344Y-98565169D01*
X90539970Y-98566058D01*
X90535465Y-98566814D01*
X90530843Y-98567438D01*
X90526081Y-98567914D01*
X90521205Y-98568253D01*
X90516220Y-98568456D01*
X90511101Y-98568526D01*
X90505999Y-98568454D01*
X90501052Y-98568237D01*
X90496264Y-98567873D01*
X90491631Y-98567362D01*
X90487154Y-98566699D01*
X90482837Y-98565896D01*
X90478679Y-98564947D01*
X90474675Y-98563847D01*
X90470830Y-98562607D01*
X90467142Y-98561217D01*
X90463619Y-98559687D01*
X90460245Y-98558005D01*
X90457031Y-98556179D01*
X90453973Y-98554202D01*
X90451067Y-98552079D01*
X90448337Y-98549812D01*
X90445748Y-98547432D01*
X90443322Y-98544963D01*
X90441046Y-98542403D01*
X90438928Y-98539753D01*
X90436983Y-98537023D01*
X90435180Y-98534202D01*
X90433555Y-98531286D01*
X90432056Y-98528294D01*
X90430737Y-98525214D01*
X90429569Y-98522029D01*
X90428558Y-98518778D01*
X90427705Y-98515428D01*
X90427013Y-98511994D01*
X90426477Y-98508460D01*
X90426090Y-98504853D01*
X90425863Y-98501153D01*
X90425809Y-98497373D01*
X90425874Y-98493579D01*
X90426092Y-98489778D01*
X90426472Y-98485975D01*
X90426982Y-98482144D01*
X90427641Y-98478315D01*
X90428449Y-98474479D01*
X90429398Y-98470637D01*
X90430501Y-98466777D01*
X90431745Y-98462919D01*
X90433134Y-98459040D01*
X90434673Y-98455157D01*
X90436352Y-98451271D01*
X90438184Y-98447359D01*
X90440159Y-98443458D01*
X90442284Y-98439535D01*
X90519730Y-98295284D01*
X90523380Y-98288843D01*
X90527108Y-98282598D01*
X90530921Y-98276576D01*
X90534820Y-98270750D01*
X90538806Y-98265146D01*
X90542872Y-98259745D01*
X90547029Y-98254555D01*
X90551267Y-98249566D01*
X90555591Y-98244802D01*
X90560001Y-98240234D01*
X90564506Y-98235887D01*
X90569077Y-98231738D01*
X90573751Y-98227806D01*
X90578498Y-98224080D01*
X90583336Y-98220560D01*
X90588265Y-98217254D01*
X90593250Y-98214119D01*
X90598335Y-98211180D01*
X90603509Y-98208441D01*
X90608797Y-98205917D01*
X90614188Y-98203590D01*
X90619677Y-98201462D01*
X90625264Y-98199539D01*
X90626788Y-98199078D01*
X90620105Y-98197271D01*
X90610491Y-98194343D01*
X90601118Y-98191168D01*
X90591995Y-98187741D01*
X90583096Y-98184054D01*
X90574449Y-98180113D01*
X90565999Y-98175940D01*
X90557816Y-98171545D01*
X90549880Y-98166935D01*
X90542194Y-98162117D01*
X90534766Y-98157083D01*
X90527589Y-98151824D01*
X90520659Y-98146352D01*
X90513975Y-98140676D01*
X90507552Y-98134762D01*
X90501381Y-98128640D01*
X90495461Y-98122297D01*
X90489790Y-98115763D01*
X90484375Y-98108989D01*
X90479212Y-98102014D01*
X90474299Y-98094817D01*
X90469643Y-98087391D01*
X90465238Y-98079784D01*
X90461132Y-98072001D01*
X90457303Y-98064036D01*
X90453760Y-98055899D01*
X90450502Y-98047581D01*
X90447530Y-98039099D01*
X90444837Y-98030445D01*
X90442431Y-98021602D01*
X90440301Y-98012591D01*
X90438456Y-98003399D01*
X90436906Y-97994040D01*
X90435623Y-97984498D01*
X90434636Y-97974779D01*
X90433926Y-97964896D01*
X90433496Y-97954827D01*
X90433420Y-97949474D01*
X90620222Y-97949474D01*
X90620374Y-97957198D01*
X90620841Y-97964682D01*
X90621606Y-97971910D01*
X90622694Y-97978895D01*
X90624082Y-97985644D01*
X90625773Y-97992136D01*
X90627780Y-97998393D01*
X90630095Y-98004398D01*
X90632703Y-98010166D01*
X90635631Y-98015675D01*
X90638872Y-98020949D01*
X90642416Y-98025988D01*
X90646274Y-98030755D01*
X90650421Y-98035293D01*
X90654897Y-98039590D01*
X90659665Y-98043630D01*
X90664749Y-98047395D01*
X90670138Y-98050922D01*
X90675808Y-98054202D01*
X90681789Y-98057237D01*
X90688056Y-98060030D01*
X90694647Y-98062581D01*
X90701516Y-98064893D01*
X90708681Y-98066960D01*
X90716167Y-98068773D01*
X90723941Y-98070350D01*
X90732021Y-98071688D01*
X90740382Y-98072784D01*
X90749050Y-98073637D01*
X90758017Y-98074242D01*
X90767292Y-98074611D01*
X90776863Y-98074733D01*
X90950788Y-98074733D01*
X90950788Y-97825378D01*
X90776863Y-97825378D01*
X90767292Y-97825495D01*
X90758017Y-97825864D01*
X90749050Y-97826480D01*
X90740382Y-97827337D01*
X90732021Y-97828444D01*
X90723941Y-97829794D01*
X90716167Y-97831387D01*
X90708681Y-97833217D01*
X90701516Y-97835311D01*
X90694647Y-97837639D01*
X90688056Y-97840213D01*
X90681789Y-97843032D01*
X90675808Y-97846097D01*
X90670138Y-97849402D01*
X90664749Y-97852968D01*
X90659665Y-97856766D01*
X90654897Y-97860802D01*
X90650421Y-97865076D01*
X90646274Y-97869589D01*
X90642416Y-97874328D01*
X90638872Y-97879309D01*
X90635631Y-97884509D01*
X90632703Y-97889956D01*
X90630095Y-97895641D01*
X90627780Y-97901548D01*
X90625773Y-97907694D01*
X90624082Y-97914069D01*
X90622694Y-97920681D01*
X90621606Y-97927536D01*
X90620841Y-97934610D01*
X90620374Y-97941924D01*
X90620222Y-97949474D01*
X90433420Y-97949474D01*
X90433351Y-97944584D01*
X90433668Y-97928819D01*
X90434614Y-97913504D01*
X90436188Y-97898623D01*
X90438377Y-97884191D01*
X90441203Y-97870189D01*
X90444646Y-97856643D01*
X90448732Y-97843520D01*
X90453444Y-97830854D01*
X90458776Y-97818616D01*
X90464742Y-97806829D01*
X90471330Y-97795471D01*
X90478549Y-97784573D01*
X90486385Y-97774095D01*
X90494858Y-97764066D01*
X90503964Y-97754478D01*
X90513694Y-97745329D01*
X90523957Y-97736693D01*
X90534763Y-97728600D01*
X90546097Y-97721073D01*
X90557961Y-97714093D01*
X90570364Y-97707674D01*
X90583277Y-97701822D01*
X90596737Y-97696517D01*
X90610727Y-97691779D01*
X90625245Y-97687587D01*
X90640295Y-97683961D01*
X90655873Y-97680903D01*
X90671980Y-97678387D01*
X90688626Y-97676432D01*
X90705796Y-97675042D01*
X90723505Y-97674208D01*
X90741729Y-97673932D01*
X91046075Y-97673932D01*
X91051966Y-97674028D01*
X91057677Y-97674315D01*
X91063222Y-97674808D01*
X91068592Y-97675494D01*
X91073785Y-97676380D01*
X91078806Y-97677445D01*
X91083654Y-97678710D01*
X91088331Y-97680195D01*
X91092836Y-97681851D01*
X91097159Y-97683712D01*
X91101320Y-97685761D01*
X91105311Y-97688019D01*
X91109107Y-97690464D01*
X91112741Y-97693100D01*
X91116207Y-97695950D01*
X91119495Y-97698976D01*
X91122605Y-97702205D01*
X91125507Y-97705619D01*
X91128211Y-97709211D01*
X91130718Y-97712996D01*
X91133018Y-97716971D01*
X91135109Y-97721128D01*
X91137016Y-97725469D01*
X91138720Y-97729999D01*
X91140225Y-97734725D01*
X91141519Y-97739630D01*
X91142627Y-97744720D01*
X91143518Y-97749995D01*
X91144212Y-97755462D01*
X91144721Y-97761106D01*
X91145024Y-97766949D01*
X91145120Y-97772976D01*
X91145120Y-98074733D01*
X91145120Y-98468334D01*
G37*
G36*
X91587020Y-97660226D02*
G01*
X91600090Y-97660611D01*
X91612965Y-97661260D01*
X91625685Y-97662145D01*
X91638242Y-97663282D01*
X91650616Y-97664679D01*
X91662825Y-97666334D01*
X91674864Y-97668235D01*
X91686716Y-97670400D01*
X91698418Y-97672810D01*
X91709930Y-97675480D01*
X91721287Y-97678405D01*
X91732464Y-97681586D01*
X91743472Y-97685018D01*
X91754310Y-97688701D01*
X91764970Y-97692643D01*
X91775429Y-97696812D01*
X91785667Y-97701195D01*
X91795717Y-97705794D01*
X91805571Y-97710598D01*
X91815232Y-97715615D01*
X91824695Y-97720848D01*
X91833942Y-97726288D01*
X91843008Y-97731945D01*
X91851876Y-97737812D01*
X91860537Y-97743887D01*
X91869004Y-97750169D01*
X91877271Y-97756667D01*
X91885347Y-97763379D01*
X91893215Y-97770309D01*
X91900894Y-97777439D01*
X91908370Y-97784781D01*
X91915601Y-97792329D01*
X91922615Y-97800052D01*
X91929416Y-97807968D01*
X91935983Y-97816079D01*
X91942358Y-97824364D01*
X91948492Y-97832847D01*
X91954423Y-97841504D01*
X91960129Y-97850364D01*
X91965601Y-97859391D01*
X91970875Y-97868621D01*
X91975936Y-97878023D01*
X91980760Y-97887630D01*
X91985379Y-97897416D01*
X91989768Y-97907382D01*
X91993953Y-97917541D01*
X91997920Y-97927884D01*
X92001630Y-97938368D01*
X92005070Y-97949007D01*
X92008292Y-97959822D01*
X92011263Y-97970780D01*
X92014012Y-97981912D01*
X92016516Y-97993220D01*
X92018777Y-98004659D01*
X92020813Y-98016272D01*
X92024148Y-98039998D01*
X92026531Y-98064362D01*
X92027958Y-98089378D01*
X92028430Y-98115038D01*
X92028226Y-98132279D01*
X92027580Y-98149229D01*
X92026524Y-98165902D01*
X92025041Y-98182271D01*
X92023126Y-98198358D01*
X92020783Y-98214158D01*
X92018026Y-98229672D01*
X92014834Y-98244908D01*
X92011210Y-98259837D01*
X92007180Y-98274482D01*
X92002715Y-98288844D01*
X91997821Y-98302909D01*
X91992503Y-98316696D01*
X91986761Y-98330204D01*
X91980611Y-98343405D01*
X91974011Y-98356327D01*
X91967034Y-98368894D01*
X91959686Y-98381096D01*
X91951952Y-98392949D01*
X91943877Y-98404441D01*
X91935419Y-98415587D01*
X91926599Y-98426371D01*
X91917419Y-98436807D01*
X91907866Y-98446878D01*
X91897949Y-98456594D01*
X91887657Y-98465962D01*
X91877008Y-98474970D01*
X91865987Y-98483625D01*
X91854607Y-98491930D01*
X91842850Y-98499867D01*
X91830733Y-98507460D01*
X91818245Y-98514690D01*
X91805383Y-98521527D01*
X91792191Y-98527911D01*
X91778684Y-98533864D01*
X91764853Y-98539374D01*
X91750701Y-98544441D01*
X91736221Y-98549080D01*
X91721432Y-98553264D01*
X91706313Y-98557020D01*
X91690872Y-98560323D01*
X91675101Y-98563184D01*
X91659043Y-98565611D01*
X91642617Y-98567593D01*
X91625897Y-98569137D01*
X91608855Y-98570246D01*
X91591477Y-98570910D01*
X91573783Y-98571119D01*
X91557147Y-98570844D01*
X91540464Y-98570031D01*
X91523741Y-98568650D01*
X91506992Y-98566725D01*
X91490197Y-98564259D01*
X91473368Y-98561250D01*
X91456505Y-98557673D01*
X91439611Y-98553558D01*
X91431249Y-98551309D01*
X91423032Y-98548950D01*
X91414984Y-98546481D01*
X91407116Y-98543919D01*
X91399408Y-98541224D01*
X91391861Y-98538444D01*
X91384491Y-98535541D01*
X91377278Y-98532543D01*
X91370239Y-98529419D01*
X91363354Y-98526199D01*
X91356652Y-98522873D01*
X91350105Y-98519434D01*
X91343725Y-98515893D01*
X91337512Y-98512243D01*
X91331474Y-98508464D01*
X91325592Y-98504612D01*
X91322201Y-98502388D01*
X91318963Y-98500100D01*
X91315845Y-98497762D01*
X91312883Y-98495357D01*
X91310069Y-98492902D01*
X91307371Y-98490378D01*
X91304826Y-98487808D01*
X91302414Y-98485173D01*
X91300143Y-98482480D01*
X91298018Y-98479735D01*
X91296025Y-98476923D01*
X91294172Y-98474052D01*
X91292460Y-98471124D01*
X91290889Y-98468144D01*
X91289465Y-98465100D01*
X91288162Y-98461994D01*
X91286962Y-98458864D01*
X91285868Y-98455735D01*
X91284887Y-98452604D01*
X91284018Y-98449465D01*
X91283274Y-98446340D01*
X91282625Y-98443222D01*
X91282106Y-98440080D01*
X91281688Y-98436945D01*
X91281380Y-98433818D01*
X91281184Y-98430680D01*
X91281115Y-98427551D01*
X91281141Y-98424421D01*
X91281287Y-98421280D01*
X91281551Y-98418157D01*
X91281914Y-98415028D01*
X91282400Y-98411897D01*
X91282993Y-98408793D01*
X91283689Y-98405742D01*
X91284468Y-98402751D01*
X91285351Y-98399803D01*
X91286346Y-98396914D01*
X91287426Y-98394084D01*
X91288605Y-98391294D01*
X91289890Y-98388582D01*
X91291266Y-98385904D01*
X91292744Y-98383278D01*
X91294332Y-98380725D01*
X91296010Y-98378208D01*
X91297783Y-98375757D01*
X91299654Y-98373347D01*
X91301634Y-98371003D01*
X91303711Y-98368708D01*
X91305872Y-98366497D01*
X91308079Y-98364391D01*
X91310383Y-98362391D01*
X91312746Y-98360502D01*
X91315175Y-98358723D01*
X91317672Y-98357044D01*
X91320225Y-98355480D01*
X91322854Y-98354019D01*
X91325552Y-98352673D01*
X91328320Y-98351430D01*
X91331154Y-98350301D01*
X91334054Y-98349270D01*
X91337015Y-98348355D01*
X91340055Y-98347542D01*
X91343153Y-98346840D01*
X91346329Y-98346247D01*
X91349555Y-98345750D01*
X91352840Y-98345429D01*
X91356177Y-98345259D01*
X91359570Y-98345259D01*
X91363017Y-98345425D01*
X91366512Y-98345750D01*
X91370068Y-98346239D01*
X91373668Y-98346899D01*
X91377342Y-98347718D01*
X91381059Y-98348698D01*
X91384829Y-98349852D01*
X91388655Y-98351158D01*
X91392529Y-98352649D01*
X91396458Y-98354275D01*
X91400441Y-98356080D01*
X91404485Y-98358051D01*
X91414254Y-98363204D01*
X91424117Y-98368005D01*
X91434082Y-98372451D01*
X91444156Y-98376551D01*
X91454317Y-98380309D01*
X91464578Y-98383693D01*
X91474937Y-98386744D01*
X91485396Y-98389438D01*
X91495881Y-98391805D01*
X91506294Y-98393849D01*
X91516639Y-98395585D01*
X91526933Y-98396999D01*
X91537158Y-98398100D01*
X91547319Y-98398881D01*
X91557428Y-98399362D01*
X91567458Y-98399516D01*
X91577826Y-98399384D01*
X91587980Y-98398998D01*
X91597935Y-98398354D01*
X91607675Y-98397451D01*
X91617212Y-98396284D01*
X91626537Y-98394858D01*
X91635657Y-98393175D01*
X91644558Y-98391242D01*
X91653244Y-98389032D01*
X91661733Y-98386581D01*
X91670012Y-98383863D01*
X91678072Y-98380895D01*
X91685935Y-98377663D01*
X91693587Y-98374164D01*
X91701026Y-98370413D01*
X91708257Y-98366405D01*
X91715282Y-98362110D01*
X91722071Y-98357579D01*
X91728657Y-98352812D01*
X91735015Y-98347796D01*
X91741165Y-98342543D01*
X91747088Y-98337063D01*
X91752794Y-98331332D01*
X91758283Y-98325371D01*
X91763571Y-98319172D01*
X91768609Y-98312729D01*
X91773445Y-98306049D01*
X91778063Y-98299134D01*
X91782461Y-98291974D01*
X91786629Y-98284580D01*
X91790601Y-98276949D01*
X91794349Y-98269081D01*
X91797839Y-98260979D01*
X91801093Y-98252696D01*
X91804136Y-98244188D01*
X91806945Y-98235487D01*
X91809533Y-98226565D01*
X91811895Y-98217461D01*
X91814029Y-98208141D01*
X91815951Y-98198604D01*
X91817627Y-98188883D01*
X91819096Y-98178943D01*
X91820322Y-98168809D01*
X91821354Y-98158460D01*
X91822124Y-98147914D01*
X91822687Y-98137160D01*
X91823024Y-98126203D01*
X91823139Y-98115038D01*
X91823024Y-98103706D01*
X91822687Y-98092598D01*
X91822124Y-98081725D01*
X91821354Y-98071071D01*
X91820322Y-98060646D01*
X91819096Y-98050446D01*
X91817627Y-98040491D01*
X91815951Y-98030740D01*
X91814029Y-98021239D01*
X91811895Y-98011942D01*
X91809533Y-98002881D01*
X91806945Y-97994058D01*
X91804136Y-97985455D01*
X91801093Y-97977071D01*
X91797839Y-97968919D01*
X91794349Y-97960997D01*
X91790601Y-97953269D01*
X91786629Y-97945776D01*
X91782461Y-97938497D01*
X91778063Y-97931468D01*
X91773445Y-97924659D01*
X91768609Y-97918087D01*
X91763571Y-97911745D01*
X91758283Y-97905643D01*
X91752794Y-97899766D01*
X91747088Y-97894117D01*
X91741165Y-97888710D01*
X91735015Y-97883524D01*
X91728657Y-97878577D01*
X91722071Y-97873862D01*
X91715282Y-97869369D01*
X91708257Y-97865112D01*
X91701026Y-97861072D01*
X91693587Y-97857287D01*
X91685935Y-97853762D01*
X91678072Y-97850499D01*
X91670012Y-97847507D01*
X91661733Y-97844756D01*
X91653244Y-97842282D01*
X91644558Y-97840061D01*
X91635657Y-97838110D01*
X91626537Y-97836410D01*
X91617212Y-97834975D01*
X91607675Y-97833802D01*
X91597935Y-97832885D01*
X91587980Y-97832235D01*
X91577826Y-97831839D01*
X91567458Y-97831713D01*
X91556830Y-97831871D01*
X91546240Y-97832341D01*
X91535693Y-97833132D01*
X91525205Y-97834235D01*
X91514752Y-97835651D01*
X91504349Y-97837384D01*
X91493983Y-97839432D01*
X91483661Y-97841793D01*
X91473358Y-97844503D01*
X91463170Y-97847604D01*
X91453101Y-97851083D01*
X91443142Y-97854967D01*
X91433296Y-97859239D01*
X91423581Y-97863867D01*
X91413970Y-97868906D01*
X91404485Y-97874328D01*
X91400588Y-97876295D01*
X91396749Y-97878099D01*
X91392943Y-97879732D01*
X91389189Y-97881201D01*
X91385488Y-97882504D01*
X91381841Y-97883633D01*
X91378242Y-97884612D01*
X91374688Y-97885418D01*
X91371179Y-97886048D01*
X91367718Y-97886522D01*
X91364329Y-97886821D01*
X91360970Y-97886958D01*
X91357674Y-97886926D01*
X91354409Y-97886736D01*
X91351210Y-97886372D01*
X91348056Y-97885846D01*
X91344955Y-97885142D01*
X91341921Y-97884336D01*
X91338953Y-97883429D01*
X91336046Y-97882405D01*
X91333213Y-97881282D01*
X91330437Y-97880056D01*
X91327734Y-97878724D01*
X91325092Y-97877282D01*
X91322505Y-97875731D01*
X91319996Y-97874074D01*
X91317560Y-97872322D01*
X91315176Y-97870454D01*
X91312856Y-97868494D01*
X91310610Y-97866413D01*
X91308423Y-97864235D01*
X91306305Y-97861944D01*
X91304235Y-97859539D01*
X91302249Y-97857086D01*
X91300381Y-97854566D01*
X91298602Y-97851996D01*
X91296922Y-97849368D01*
X91295337Y-97846675D01*
X91293863Y-97843940D01*
X91292483Y-97841144D01*
X91291200Y-97838299D01*
X91290024Y-97835383D01*
X91288939Y-97832413D01*
X91287945Y-97829400D01*
X91287061Y-97826317D01*
X91286279Y-97823177D01*
X91285585Y-97819987D01*
X91284996Y-97816739D01*
X91284481Y-97813469D01*
X91284099Y-97810184D01*
X91283836Y-97806910D01*
X91283702Y-97803644D01*
X91283696Y-97800358D01*
X91283802Y-97797097D01*
X91284046Y-97793819D01*
X91284419Y-97790540D01*
X91284920Y-97787263D01*
X91285535Y-97783997D01*
X91286295Y-97780721D01*
X91287161Y-97777441D01*
X91288149Y-97774163D01*
X91289278Y-97770879D01*
X91290530Y-97767614D01*
X91291904Y-97764339D01*
X91293386Y-97761059D01*
X91295019Y-97757851D01*
X91296815Y-97754721D01*
X91298765Y-97751643D01*
X91300869Y-97748651D01*
X91303109Y-97745733D01*
X91305538Y-97742867D01*
X91308089Y-97740083D01*
X91310828Y-97737364D01*
X91313701Y-97734706D01*
X91316732Y-97732137D01*
X91319926Y-97729612D01*
X91323268Y-97727183D01*
X91326770Y-97724813D01*
X91330426Y-97722514D01*
X91334234Y-97720287D01*
X91346446Y-97713290D01*
X91359182Y-97706720D01*
X91372423Y-97700556D01*
X91386208Y-97694802D01*
X91400490Y-97689468D01*
X91415321Y-97684541D01*
X91430658Y-97680033D01*
X91446524Y-97675942D01*
X91462620Y-97672230D01*
X91478668Y-97669008D01*
X91494654Y-97666293D01*
X91510593Y-97664065D01*
X91526468Y-97662323D01*
X91542303Y-97661096D01*
X91558067Y-97660359D01*
X91573783Y-97660107D01*
X91587020Y-97660226D01*
G37*
G36*
X92484067Y-97660427D02*
G01*
X92503183Y-97661361D01*
X92521898Y-97662939D01*
X92540197Y-97665145D01*
X92558102Y-97667984D01*
X92575598Y-97671442D01*
X92592690Y-97675539D01*
X92609382Y-97680265D01*
X92617523Y-97682821D01*
X92625513Y-97685507D01*
X92633365Y-97688337D01*
X92641081Y-97691308D01*
X92648668Y-97694418D01*
X92656105Y-97697671D01*
X92663397Y-97701057D01*
X92670563Y-97704595D01*
X92677588Y-97708258D01*
X92684471Y-97712062D01*
X92691216Y-97716021D01*
X92697809Y-97720098D01*
X92704276Y-97724326D01*
X92710601Y-97728689D01*
X92716774Y-97733206D01*
X92722832Y-97737848D01*
X92728673Y-97742580D01*
X92734372Y-97747427D01*
X92739900Y-97752373D01*
X92745265Y-97757442D01*
X92750464Y-97762618D01*
X92755496Y-97767909D01*
X92760377Y-97773299D01*
X92765072Y-97778803D01*
X92769619Y-97784418D01*
X92774000Y-97790145D01*
X92778206Y-97795984D01*
X92782275Y-97801925D01*
X92786152Y-97807989D01*
X92789872Y-97814155D01*
X92793429Y-97820436D01*
X92796825Y-97826820D01*
X92799993Y-97833251D01*
X92802968Y-97839812D01*
X92805724Y-97846440D01*
X92808289Y-97853161D01*
X92810646Y-97859979D01*
X92812794Y-97866885D01*
X92814728Y-97873871D01*
X92816471Y-97880949D01*
X92818008Y-97888120D01*
X92819336Y-97895384D01*
X92820457Y-97902741D01*
X92821376Y-97910167D01*
X92822104Y-97917705D01*
X92822618Y-97925328D01*
X92822917Y-97933036D01*
X92823028Y-97940839D01*
X92822794Y-97953068D01*
X92822113Y-97964997D01*
X92820981Y-97976627D01*
X92819383Y-97987965D01*
X92817345Y-97999001D01*
X92814842Y-98009741D01*
X92811882Y-98020172D01*
X92808486Y-98030316D01*
X92804617Y-98040144D01*
X92800305Y-98049690D01*
X92795535Y-98058928D01*
X92790313Y-98067870D01*
X92784626Y-98076502D01*
X92778492Y-98084848D01*
X92771898Y-98092890D01*
X92764870Y-98100638D01*
X92757318Y-98108092D01*
X92749282Y-98115274D01*
X92740758Y-98122166D01*
X92731775Y-98128785D01*
X92722288Y-98135121D01*
X92712318Y-98141179D01*
X92701867Y-98146974D01*
X92690929Y-98152473D01*
X92679506Y-98157689D01*
X92667614Y-98162634D01*
X92655236Y-98167307D01*
X92642362Y-98171690D01*
X92629013Y-98175792D01*
X92615176Y-98179632D01*
X92600862Y-98183173D01*
X92586052Y-98186451D01*
X92444677Y-98216387D01*
X92436206Y-98218286D01*
X92428062Y-98220235D01*
X92420237Y-98222227D01*
X92412732Y-98224272D01*
X92405575Y-98226363D01*
X92398727Y-98228518D01*
X92392208Y-98230704D01*
X92386014Y-98232938D01*
X92380146Y-98235234D01*
X92374605Y-98237577D01*
X92369394Y-98239975D01*
X92364514Y-98242414D01*
X92359950Y-98244912D01*
X92355714Y-98247439D01*
X92351805Y-98250035D01*
X92348222Y-98252672D01*
X92344876Y-98255400D01*
X92341740Y-98258243D01*
X92338832Y-98261195D01*
X92336130Y-98264272D01*
X92333647Y-98267475D01*
X92331375Y-98270792D01*
X92329320Y-98274229D01*
X92327488Y-98277792D01*
X92325871Y-98281481D01*
X92324467Y-98285260D01*
X92323284Y-98289184D01*
X92322318Y-98293216D01*
X92321552Y-98297362D01*
X92321021Y-98301637D01*
X92320688Y-98306032D01*
X92320588Y-98310545D01*
X92320736Y-98315814D01*
X92321188Y-98320982D01*
X92321946Y-98326019D01*
X92323006Y-98330950D01*
X92324369Y-98335770D01*
X92326056Y-98340481D01*
X92328020Y-98345079D01*
X92330294Y-98349561D01*
X92332878Y-98353924D01*
X92335764Y-98358185D01*
X92338954Y-98362337D01*
X92342450Y-98366365D01*
X92346245Y-98370292D01*
X92350337Y-98374092D01*
X92354741Y-98377795D01*
X92359450Y-98381374D01*
X92364521Y-98384746D01*
X92369990Y-98387928D01*
X92375865Y-98390873D01*
X92382162Y-98393602D01*
X92388854Y-98396109D01*
X92395973Y-98398400D01*
X92403496Y-98400464D01*
X92411431Y-98402318D01*
X92419768Y-98403964D01*
X92428505Y-98405373D01*
X92437669Y-98406575D01*
X92447229Y-98407550D01*
X92457210Y-98408324D01*
X92467596Y-98408868D01*
X92478395Y-98409192D01*
X92489603Y-98409303D01*
X92504653Y-98409088D01*
X92519719Y-98408454D01*
X92534813Y-98407389D01*
X92549922Y-98405918D01*
X92565049Y-98404024D01*
X92580183Y-98401698D01*
X92595351Y-98398939D01*
X92610543Y-98395777D01*
X92625576Y-98392071D01*
X92640330Y-98387934D01*
X92654794Y-98383302D01*
X92668976Y-98378208D01*
X92682870Y-98372641D01*
X92696479Y-98366614D01*
X92709797Y-98360121D01*
X92722832Y-98353160D01*
X92726551Y-98351340D01*
X92730221Y-98349672D01*
X92733863Y-98348167D01*
X92737451Y-98346840D01*
X92740997Y-98345674D01*
X92744513Y-98344672D01*
X92747976Y-98343829D01*
X92751393Y-98343147D01*
X92754779Y-98342643D01*
X92758121Y-98342296D01*
X92761403Y-98342117D01*
X92764666Y-98342087D01*
X92767867Y-98342238D01*
X92771037Y-98342541D01*
X92774160Y-98343012D01*
X92777245Y-98343664D01*
X92780265Y-98344433D01*
X92783225Y-98345309D01*
X92786114Y-98346290D01*
X92788936Y-98347385D01*
X92791699Y-98348577D01*
X92794380Y-98349874D01*
X92797005Y-98351284D01*
X92799557Y-98352802D01*
X92802038Y-98354417D01*
X92804456Y-98356145D01*
X92806809Y-98357973D01*
X92809097Y-98359904D01*
X92811309Y-98361949D01*
X92813460Y-98364094D01*
X92815539Y-98366342D01*
X92817553Y-98368708D01*
X92819455Y-98371137D01*
X92821249Y-98373630D01*
X92822940Y-98376150D01*
X92824545Y-98378727D01*
X92826060Y-98381354D01*
X92827472Y-98384018D01*
X92828790Y-98386751D01*
X92830005Y-98389504D01*
X92831118Y-98392321D01*
X92832155Y-98395184D01*
X92833081Y-98398095D01*
X92833902Y-98401042D01*
X92834648Y-98404048D01*
X92835284Y-98407099D01*
X92835810Y-98410198D01*
X92836268Y-98413336D01*
X92836608Y-98416457D01*
X92836836Y-98419582D01*
X92836948Y-98422710D01*
X92836948Y-98425818D01*
X92836844Y-98428934D01*
X92836614Y-98432044D01*
X92836289Y-98435138D01*
X92835836Y-98438250D01*
X92835272Y-98441337D01*
X92834605Y-98444420D01*
X92833815Y-98447502D01*
X92832917Y-98450581D01*
X92831912Y-98453658D01*
X92830793Y-98456734D01*
X92829553Y-98459805D01*
X92828204Y-98462861D01*
X92826695Y-98465847D01*
X92825080Y-98468763D01*
X92823323Y-98471615D01*
X92821442Y-98474395D01*
X92819434Y-98477104D01*
X92817298Y-98479749D01*
X92815043Y-98482317D01*
X92812661Y-98484821D01*
X92810145Y-98487244D01*
X92807507Y-98489608D01*
X92804750Y-98491902D01*
X92801859Y-98494123D01*
X92798844Y-98496267D01*
X92795701Y-98498356D01*
X92792437Y-98500365D01*
X92789042Y-98502308D01*
X92779227Y-98507806D01*
X92769065Y-98513064D01*
X92758570Y-98518100D01*
X92747729Y-98522887D01*
X92736547Y-98527457D01*
X92725016Y-98531786D01*
X92713156Y-98535882D01*
X92700940Y-98539732D01*
X92688486Y-98543370D01*
X92675876Y-98546791D01*
X92663109Y-98549994D01*
X92650201Y-98552986D01*
X92637125Y-98555756D01*
X92623895Y-98558311D01*
X92610535Y-98560650D01*
X92597004Y-98562769D01*
X92583350Y-98564731D01*
X92569772Y-98566427D01*
X92556248Y-98567864D01*
X92542803Y-98569029D01*
X92529397Y-98569945D01*
X92516078Y-98570602D01*
X92502803Y-98570987D01*
X92489603Y-98571119D01*
X92469187Y-98570827D01*
X92449304Y-98569912D01*
X92429929Y-98568411D01*
X92411062Y-98566293D01*
X92392705Y-98563585D01*
X92374879Y-98560270D01*
X92357551Y-98556350D01*
X92340739Y-98551831D01*
X92332496Y-98549329D01*
X92324405Y-98546678D01*
X92316460Y-98543898D01*
X92308667Y-98540997D01*
X92301019Y-98537964D01*
X92293535Y-98534794D01*
X92286166Y-98531502D01*
X92278980Y-98528076D01*
X92271922Y-98524522D01*
X92265025Y-98520836D01*
X92258267Y-98517014D01*
X92251653Y-98513064D01*
X92245209Y-98508989D01*
X92238886Y-98504784D01*
X92232731Y-98500445D01*
X92226718Y-98495979D01*
X92220831Y-98491381D01*
X92215121Y-98486677D01*
X92209596Y-98481857D01*
X92204246Y-98476934D01*
X92199063Y-98471890D01*
X92194062Y-98466736D01*
X92189245Y-98461478D01*
X92184607Y-98456096D01*
X92180139Y-98450602D01*
X92175849Y-98445001D01*
X92171749Y-98439278D01*
X92167820Y-98433454D01*
X92164059Y-98427505D01*
X92160485Y-98421453D01*
X92157082Y-98415290D01*
X92153867Y-98409020D01*
X92150835Y-98402599D01*
X92147997Y-98396093D01*
X92145352Y-98389490D01*
X92142914Y-98382794D01*
X92140662Y-98376015D01*
X92138606Y-98369135D01*
X92136752Y-98362163D01*
X92135081Y-98355098D01*
X92133614Y-98347947D01*
X92132340Y-98340697D01*
X92131255Y-98333364D01*
X92130380Y-98325929D01*
X92129696Y-98318404D01*
X92129211Y-98310794D01*
X92128912Y-98303086D01*
X92128821Y-98295284D01*
X92129052Y-98283546D01*
X92129750Y-98272106D01*
X92130935Y-98260943D01*
X92132579Y-98250069D01*
X92134696Y-98239501D01*
X92137278Y-98229204D01*
X92140343Y-98219198D01*
X92143878Y-98209481D01*
X92147869Y-98200048D01*
X92152333Y-98190912D01*
X92157252Y-98182054D01*
X92162677Y-98173492D01*
X92168538Y-98165209D01*
X92174886Y-98157224D01*
X92181711Y-98149518D01*
X92188998Y-98142110D01*
X92196768Y-98134928D01*
X92205018Y-98127992D01*
X92213760Y-98121319D01*
X92222995Y-98114896D01*
X92232704Y-98108723D01*
X92242915Y-98102805D01*
X92253607Y-98097132D01*
X92264792Y-98091715D01*
X92276460Y-98086546D01*
X92288622Y-98081634D01*
X92301268Y-98076978D01*
X92314414Y-98072563D01*
X92328028Y-98068410D01*
X92342144Y-98064509D01*
X92356750Y-98060856D01*
X92371832Y-98057452D01*
X92513497Y-98027220D01*
X92521477Y-98025455D01*
X92529156Y-98023621D01*
X92536544Y-98021725D01*
X92543624Y-98019770D01*
X92550399Y-98017737D01*
X92556879Y-98015636D01*
X92563047Y-98013474D01*
X92568921Y-98011243D01*
X92574499Y-98008939D01*
X92579766Y-98006561D01*
X92584738Y-98004132D01*
X92589401Y-98001626D01*
X92593768Y-97999058D01*
X92597838Y-97996419D01*
X92601596Y-97993712D01*
X92605051Y-97990943D01*
X92608232Y-97988077D01*
X92611196Y-97985104D01*
X92613950Y-97982017D01*
X92616519Y-97978829D01*
X92618880Y-97975532D01*
X92621028Y-97972108D01*
X92622965Y-97968585D01*
X92624702Y-97964955D01*
X92626249Y-97961214D01*
X92627581Y-97957356D01*
X92628693Y-97953391D01*
X92629624Y-97949314D01*
X92630332Y-97945132D01*
X92630853Y-97940836D01*
X92631163Y-97936424D01*
X92631261Y-97931914D01*
X92631188Y-97927880D01*
X92630953Y-97923890D01*
X92630581Y-97919975D01*
X92630056Y-97916103D01*
X92629375Y-97912312D01*
X92628546Y-97908560D01*
X92627573Y-97904874D01*
X92626444Y-97901245D01*
X92625151Y-97897679D01*
X92623720Y-97894167D01*
X92622138Y-97890707D01*
X92620409Y-97887317D01*
X92618526Y-97883983D01*
X92616494Y-97880695D01*
X92614303Y-97877488D01*
X92611968Y-97874328D01*
X92609451Y-97871241D01*
X92606801Y-97868244D01*
X92604028Y-97865330D01*
X92601104Y-97862504D01*
X92598042Y-97859767D01*
X92594858Y-97857114D01*
X92591529Y-97854557D01*
X92588072Y-97852093D01*
X92584472Y-97849697D01*
X92580744Y-97847403D01*
X92576885Y-97845187D01*
X92572882Y-97843061D01*
X92568748Y-97841038D01*
X92564477Y-97839084D01*
X92560074Y-97837222D01*
X92555528Y-97835463D01*
X92550832Y-97833789D01*
X92546002Y-97832218D01*
X92541072Y-97830755D01*
X92536000Y-97829409D01*
X92530835Y-97828168D01*
X92525523Y-97827037D01*
X92514588Y-97825094D01*
X92503154Y-97823584D01*
X92491230Y-97822494D01*
X92478853Y-97821857D01*
X92465984Y-97821628D01*
X92453796Y-97821787D01*
X92441673Y-97822267D01*
X92429651Y-97823054D01*
X92417686Y-97824152D01*
X92405813Y-97825571D01*
X92394022Y-97827303D01*
X92382315Y-97829350D01*
X92370678Y-97831713D01*
X92359171Y-97834402D01*
X92347809Y-97837450D01*
X92336603Y-97840853D01*
X92325543Y-97844599D01*
X92314650Y-97848697D01*
X92303898Y-97853152D01*
X92293301Y-97857948D01*
X92282862Y-97863100D01*
X92278691Y-97865060D01*
X92274592Y-97866877D01*
X92270576Y-97868508D01*
X92266632Y-97869972D01*
X92262773Y-97871274D01*
X92258973Y-97872416D01*
X92255256Y-97873372D01*
X92251618Y-97874192D01*
X92248059Y-97874819D01*
X92244570Y-97875286D01*
X92241165Y-97875592D01*
X92237834Y-97875731D01*
X92234582Y-97875711D01*
X92231405Y-97875508D01*
X92228314Y-97875150D01*
X92225287Y-97874621D01*
X92222324Y-97873912D01*
X92219441Y-97873125D01*
X92216612Y-97872230D01*
X92213846Y-97871249D01*
X92211152Y-97870168D01*
X92208524Y-97868990D01*
X92205962Y-97867716D01*
X92203468Y-97866333D01*
X92201024Y-97864867D01*
X92198667Y-97863307D01*
X92196349Y-97861637D01*
X92194123Y-97859870D01*
X92191962Y-97858022D01*
X92189849Y-97856061D01*
X92187801Y-97854023D01*
X92185831Y-97851866D01*
X92183938Y-97849636D01*
X92182135Y-97847396D01*
X92180436Y-97845086D01*
X92178831Y-97842739D01*
X92177321Y-97840357D01*
X92175910Y-97837937D01*
X92174595Y-97835459D01*
X92173375Y-97832941D01*
X92172259Y-97830380D01*
X92171230Y-97827770D01*
X92170298Y-97825133D01*
X92169475Y-97822449D01*
X92168739Y-97819713D01*
X92168100Y-97816939D01*
X92167565Y-97814128D01*
X92167114Y-97811271D01*
X92166761Y-97808353D01*
X92166525Y-97805441D01*
X92166376Y-97802526D01*
X92166317Y-97799628D01*
X92166376Y-97796715D01*
X92166525Y-97793821D01*
X92166761Y-97790916D01*
X92167114Y-97788023D01*
X92167566Y-97785126D01*
X92168100Y-97782222D01*
X92168753Y-97779337D01*
X92169481Y-97776454D01*
X92170328Y-97773560D01*
X92171275Y-97770679D01*
X92172317Y-97767800D01*
X92173451Y-97764916D01*
X92174657Y-97762032D01*
X92176004Y-97759212D01*
X92177459Y-97756464D01*
X92179044Y-97753773D01*
X92180744Y-97751147D01*
X92182594Y-97748599D01*
X92184531Y-97746104D01*
X92186621Y-97743686D01*
X92188824Y-97741314D01*
X92191159Y-97739024D01*
X92193599Y-97736790D01*
X92196181Y-97734631D01*
X92198878Y-97732531D01*
X92201693Y-97730491D01*
X92204642Y-97728519D01*
X92207710Y-97726605D01*
X92214214Y-97722588D01*
X92220851Y-97718659D01*
X92227608Y-97714876D01*
X92234491Y-97711215D01*
X92248639Y-97704274D01*
X92263284Y-97697827D01*
X92278429Y-97691885D01*
X92294090Y-97686451D01*
X92310257Y-97681518D01*
X92326921Y-97677095D01*
X92343873Y-97673110D01*
X92360896Y-97669661D01*
X92377983Y-97666743D01*
X92395163Y-97664351D01*
X92412394Y-97662493D01*
X92429708Y-97661166D01*
X92447097Y-97660371D01*
X92464546Y-97660107D01*
X92484067Y-97660427D01*
G37*
D13*
X109626725Y-99632919D02*
X109055297Y-99632919D01*
X109341011Y-100632919D02*
X109341011Y-99632919D01*
X108150535Y-100632919D02*
X108483868Y-100156728D01*
X108721963Y-100632919D02*
X108721963Y-99632919D01*
X108721963Y-99632919D02*
X108341011Y-99632919D01*
X108341011Y-99632919D02*
X108245773Y-99680538D01*
X108245773Y-99680538D02*
X108198154Y-99728157D01*
X108198154Y-99728157D02*
X108150535Y-99823395D01*
X108150535Y-99823395D02*
X108150535Y-99966252D01*
X108150535Y-99966252D02*
X108198154Y-100061490D01*
X108198154Y-100061490D02*
X108245773Y-100109109D01*
X108245773Y-100109109D02*
X108341011Y-100156728D01*
X108341011Y-100156728D02*
X108721963Y-100156728D01*
X107150535Y-100632919D02*
X107483868Y-100156728D01*
X107721963Y-100632919D02*
X107721963Y-99632919D01*
X107721963Y-99632919D02*
X107341011Y-99632919D01*
X107341011Y-99632919D02*
X107245773Y-99680538D01*
X107245773Y-99680538D02*
X107198154Y-99728157D01*
X107198154Y-99728157D02*
X107150535Y-99823395D01*
X107150535Y-99823395D02*
X107150535Y-99966252D01*
X107150535Y-99966252D02*
X107198154Y-100061490D01*
X107198154Y-100061490D02*
X107245773Y-100109109D01*
X107245773Y-100109109D02*
X107341011Y-100156728D01*
X107341011Y-100156728D02*
X107721963Y-100156728D01*
X106769582Y-100585300D02*
X106626725Y-100632919D01*
X106626725Y-100632919D02*
X106388630Y-100632919D01*
X106388630Y-100632919D02*
X106293392Y-100585300D01*
X106293392Y-100585300D02*
X106245773Y-100537680D01*
X106245773Y-100537680D02*
X106198154Y-100442442D01*
X106198154Y-100442442D02*
X106198154Y-100347204D01*
X106198154Y-100347204D02*
X106245773Y-100251966D01*
X106245773Y-100251966D02*
X106293392Y-100204347D01*
X106293392Y-100204347D02*
X106388630Y-100156728D01*
X106388630Y-100156728D02*
X106579106Y-100109109D01*
X106579106Y-100109109D02*
X106674344Y-100061490D01*
X106674344Y-100061490D02*
X106721963Y-100013871D01*
X106721963Y-100013871D02*
X106769582Y-99918633D01*
X106769582Y-99918633D02*
X106769582Y-99823395D01*
X106769582Y-99823395D02*
X106721963Y-99728157D01*
X106721963Y-99728157D02*
X106674344Y-99680538D01*
X106674344Y-99680538D02*
X106579106Y-99632919D01*
X106579106Y-99632919D02*
X106341011Y-99632919D01*
X106341011Y-99632919D02*
X106198154Y-99680538D01*
X104721963Y-99632919D02*
X104721963Y-100347204D01*
X104721963Y-100347204D02*
X104769582Y-100490061D01*
X104769582Y-100490061D02*
X104864820Y-100585300D01*
X104864820Y-100585300D02*
X105007677Y-100632919D01*
X105007677Y-100632919D02*
X105102915Y-100632919D01*
X104293391Y-100347204D02*
X103817201Y-100347204D01*
X104388629Y-100632919D02*
X104055296Y-99632919D01*
X104055296Y-99632919D02*
X103721963Y-100632919D01*
X102817201Y-100537680D02*
X102864820Y-100585300D01*
X102864820Y-100585300D02*
X103007677Y-100632919D01*
X103007677Y-100632919D02*
X103102915Y-100632919D01*
X103102915Y-100632919D02*
X103245772Y-100585300D01*
X103245772Y-100585300D02*
X103341010Y-100490061D01*
X103341010Y-100490061D02*
X103388629Y-100394823D01*
X103388629Y-100394823D02*
X103436248Y-100204347D01*
X103436248Y-100204347D02*
X103436248Y-100061490D01*
X103436248Y-100061490D02*
X103388629Y-99871014D01*
X103388629Y-99871014D02*
X103341010Y-99775776D01*
X103341010Y-99775776D02*
X103245772Y-99680538D01*
X103245772Y-99680538D02*
X103102915Y-99632919D01*
X103102915Y-99632919D02*
X103007677Y-99632919D01*
X103007677Y-99632919D02*
X102864820Y-99680538D01*
X102864820Y-99680538D02*
X102817201Y-99728157D01*
X102388629Y-100632919D02*
X102388629Y-99632919D01*
X101817201Y-100632919D02*
X102245772Y-100061490D01*
X101817201Y-99632919D02*
X102388629Y-100204347D01*
X131425079Y-88296949D02*
X131425079Y-87296949D01*
X131425079Y-87296949D02*
X131044127Y-87296949D01*
X131044127Y-87296949D02*
X130948889Y-87344568D01*
X130948889Y-87344568D02*
X130901270Y-87392187D01*
X130901270Y-87392187D02*
X130853651Y-87487425D01*
X130853651Y-87487425D02*
X130853651Y-87630282D01*
X130853651Y-87630282D02*
X130901270Y-87725520D01*
X130901270Y-87725520D02*
X130948889Y-87773139D01*
X130948889Y-87773139D02*
X131044127Y-87820758D01*
X131044127Y-87820758D02*
X131425079Y-87820758D01*
X130425079Y-88296949D02*
X130425079Y-87296949D01*
X130425079Y-87773139D02*
X129853651Y-87773139D01*
X129853651Y-88296949D02*
X129853651Y-87296949D01*
X129520317Y-87296949D02*
X128948889Y-87296949D01*
X129234603Y-88296949D02*
X129234603Y-87296949D01*
X128615555Y-88296949D02*
X128615555Y-87296949D01*
X128615555Y-87296949D02*
X128282222Y-88011234D01*
X128282222Y-88011234D02*
X127948889Y-87296949D01*
X127948889Y-87296949D02*
X127948889Y-88296949D01*
X126710793Y-88296949D02*
X126710793Y-87296949D01*
X126710793Y-87296949D02*
X126329841Y-87296949D01*
X126329841Y-87296949D02*
X126234603Y-87344568D01*
X126234603Y-87344568D02*
X126186984Y-87392187D01*
X126186984Y-87392187D02*
X126139365Y-87487425D01*
X126139365Y-87487425D02*
X126139365Y-87630282D01*
X126139365Y-87630282D02*
X126186984Y-87725520D01*
X126186984Y-87725520D02*
X126234603Y-87773139D01*
X126234603Y-87773139D02*
X126329841Y-87820758D01*
X126329841Y-87820758D02*
X126710793Y-87820758D01*
X125806031Y-87296949D02*
X125567936Y-88296949D01*
X125567936Y-88296949D02*
X125377460Y-87582663D01*
X125377460Y-87582663D02*
X125186984Y-88296949D01*
X125186984Y-88296949D02*
X124948889Y-87296949D01*
X123996508Y-88296949D02*
X124329841Y-87820758D01*
X124567936Y-88296949D02*
X124567936Y-87296949D01*
X124567936Y-87296949D02*
X124186984Y-87296949D01*
X124186984Y-87296949D02*
X124091746Y-87344568D01*
X124091746Y-87344568D02*
X124044127Y-87392187D01*
X124044127Y-87392187D02*
X123996508Y-87487425D01*
X123996508Y-87487425D02*
X123996508Y-87630282D01*
X123996508Y-87630282D02*
X124044127Y-87725520D01*
X124044127Y-87725520D02*
X124091746Y-87773139D01*
X124091746Y-87773139D02*
X124186984Y-87820758D01*
X124186984Y-87820758D02*
X124567936Y-87820758D01*
X121971119Y-89980952D02*
X121971119Y-90171428D01*
X121971119Y-90171428D02*
X122018738Y-90266666D01*
X122018738Y-90266666D02*
X122113976Y-90361904D01*
X122113976Y-90361904D02*
X122304452Y-90409523D01*
X122304452Y-90409523D02*
X122637785Y-90409523D01*
X122637785Y-90409523D02*
X122828261Y-90361904D01*
X122828261Y-90361904D02*
X122923500Y-90266666D01*
X122923500Y-90266666D02*
X122971119Y-90171428D01*
X122971119Y-90171428D02*
X122971119Y-89980952D01*
X122971119Y-89980952D02*
X122923500Y-89885714D01*
X122923500Y-89885714D02*
X122828261Y-89790476D01*
X122828261Y-89790476D02*
X122637785Y-89742857D01*
X122637785Y-89742857D02*
X122304452Y-89742857D01*
X122304452Y-89742857D02*
X122113976Y-89790476D01*
X122113976Y-89790476D02*
X122018738Y-89885714D01*
X122018738Y-89885714D02*
X121971119Y-89980952D01*
X122971119Y-90838095D02*
X121971119Y-90838095D01*
X121971119Y-90838095D02*
X122971119Y-91409523D01*
X122971119Y-91409523D02*
X121971119Y-91409523D01*
X84730024Y-94950990D02*
X83730024Y-94284324D01*
X84730024Y-94284324D02*
X83730024Y-94950990D01*
X83730024Y-93427181D02*
X83730024Y-93903371D01*
X83730024Y-93903371D02*
X84730024Y-93903371D01*
X83730024Y-92522419D02*
X84206215Y-92855752D01*
X83730024Y-93093847D02*
X84730024Y-93093847D01*
X84730024Y-93093847D02*
X84730024Y-92712895D01*
X84730024Y-92712895D02*
X84682405Y-92617657D01*
X84682405Y-92617657D02*
X84634786Y-92570038D01*
X84634786Y-92570038D02*
X84539548Y-92522419D01*
X84539548Y-92522419D02*
X84396691Y-92522419D01*
X84396691Y-92522419D02*
X84301453Y-92570038D01*
X84301453Y-92570038D02*
X84253834Y-92617657D01*
X84253834Y-92617657D02*
X84206215Y-92712895D01*
X84206215Y-92712895D02*
X84206215Y-93093847D01*
X84110977Y-91331942D02*
X84110977Y-90570038D01*
X83730024Y-90950990D02*
X84491929Y-90950990D01*
X83730024Y-88808133D02*
X83730024Y-89379561D01*
X83730024Y-89093847D02*
X84730024Y-89093847D01*
X84730024Y-89093847D02*
X84587167Y-89189085D01*
X84587167Y-89189085D02*
X84491929Y-89284323D01*
X84491929Y-89284323D02*
X84444310Y-89379561D01*
X84777644Y-87665276D02*
X83491929Y-88522418D01*
X84396691Y-86903371D02*
X83730024Y-86903371D01*
X84777644Y-87141466D02*
X84063358Y-87379561D01*
X84063358Y-87379561D02*
X84063358Y-86760514D01*
X84730024Y-86427180D02*
X84539548Y-86427180D01*
X84730024Y-86046228D02*
X84539548Y-86046228D01*
X82120080Y-92403370D02*
X83120080Y-92403370D01*
X82120080Y-91927180D02*
X83120080Y-91927180D01*
X83120080Y-91927180D02*
X82120080Y-91355752D01*
X82120080Y-91355752D02*
X83120080Y-91355752D01*
X82120080Y-90879561D02*
X83120080Y-90879561D01*
X83120080Y-90879561D02*
X83120080Y-90498609D01*
X83120080Y-90498609D02*
X83072461Y-90403371D01*
X83072461Y-90403371D02*
X83024842Y-90355752D01*
X83024842Y-90355752D02*
X82929604Y-90308133D01*
X82929604Y-90308133D02*
X82786747Y-90308133D01*
X82786747Y-90308133D02*
X82691509Y-90355752D01*
X82691509Y-90355752D02*
X82643890Y-90403371D01*
X82643890Y-90403371D02*
X82596271Y-90498609D01*
X82596271Y-90498609D02*
X82596271Y-90879561D01*
X83120080Y-89879561D02*
X82310557Y-89879561D01*
X82310557Y-89879561D02*
X82215319Y-89831942D01*
X82215319Y-89831942D02*
X82167700Y-89784323D01*
X82167700Y-89784323D02*
X82120080Y-89689085D01*
X82120080Y-89689085D02*
X82120080Y-89498609D01*
X82120080Y-89498609D02*
X82167700Y-89403371D01*
X82167700Y-89403371D02*
X82215319Y-89355752D01*
X82215319Y-89355752D02*
X82310557Y-89308133D01*
X82310557Y-89308133D02*
X83120080Y-89308133D01*
X83120080Y-88974799D02*
X83120080Y-88403371D01*
X82120080Y-88689085D02*
X83120080Y-88689085D01*
D14*
X93923349Y-100578869D02*
X93923349Y-99578869D01*
X93923349Y-100055059D02*
X93351921Y-100055059D01*
X93351921Y-100578869D02*
X93351921Y-99578869D01*
X92447159Y-100578869D02*
X92447159Y-100055059D01*
X92447159Y-100055059D02*
X92494778Y-99959821D01*
X92494778Y-99959821D02*
X92590016Y-99912202D01*
X92590016Y-99912202D02*
X92780492Y-99912202D01*
X92780492Y-99912202D02*
X92875730Y-99959821D01*
X92447159Y-100531250D02*
X92542397Y-100578869D01*
X92542397Y-100578869D02*
X92780492Y-100578869D01*
X92780492Y-100578869D02*
X92875730Y-100531250D01*
X92875730Y-100531250D02*
X92923349Y-100436011D01*
X92923349Y-100436011D02*
X92923349Y-100340773D01*
X92923349Y-100340773D02*
X92875730Y-100245535D01*
X92875730Y-100245535D02*
X92780492Y-100197916D01*
X92780492Y-100197916D02*
X92542397Y-100197916D01*
X92542397Y-100197916D02*
X92447159Y-100150297D01*
X92113825Y-99912202D02*
X91732873Y-99912202D01*
X91970968Y-99578869D02*
X91970968Y-100436011D01*
X91970968Y-100436011D02*
X91923349Y-100531250D01*
X91923349Y-100531250D02*
X91828111Y-100578869D01*
X91828111Y-100578869D02*
X91732873Y-100578869D01*
X91399539Y-100197916D02*
X90637635Y-100197916D01*
X90304301Y-99912202D02*
X89923349Y-99912202D01*
X90161444Y-99578869D02*
X90161444Y-100436011D01*
X90161444Y-100436011D02*
X90113825Y-100531250D01*
X90113825Y-100531250D02*
X90018587Y-100578869D01*
X90018587Y-100578869D02*
X89923349Y-100578869D01*
X89590015Y-100578869D02*
X89590015Y-99912202D01*
X89590015Y-100102678D02*
X89542396Y-100007440D01*
X89542396Y-100007440D02*
X89494777Y-99959821D01*
X89494777Y-99959821D02*
X89399539Y-99912202D01*
X89399539Y-99912202D02*
X89304301Y-99912202D01*
X88970967Y-100578869D02*
X88970967Y-99912202D01*
X88970967Y-99578869D02*
X89018586Y-99626488D01*
X89018586Y-99626488D02*
X88970967Y-99674107D01*
X88970967Y-99674107D02*
X88923348Y-99626488D01*
X88923348Y-99626488D02*
X88970967Y-99578869D01*
X88970967Y-99578869D02*
X88970967Y-99674107D01*
X88494777Y-100578869D02*
X88494777Y-99578869D01*
X88399539Y-100197916D02*
X88113825Y-100578869D01*
X88113825Y-99912202D02*
X88494777Y-100293154D01*
X87018586Y-99912202D02*
X86780491Y-100578869D01*
X86780491Y-100578869D02*
X86542396Y-99912202D01*
X86209062Y-99674107D02*
X86161443Y-99626488D01*
X86161443Y-99626488D02*
X86066205Y-99578869D01*
X86066205Y-99578869D02*
X85828110Y-99578869D01*
X85828110Y-99578869D02*
X85732872Y-99626488D01*
X85732872Y-99626488D02*
X85685253Y-99674107D01*
X85685253Y-99674107D02*
X85637634Y-99769345D01*
X85637634Y-99769345D02*
X85637634Y-99864583D01*
X85637634Y-99864583D02*
X85685253Y-100007440D01*
X85685253Y-100007440D02*
X86256681Y-100578869D01*
X86256681Y-100578869D02*
X85637634Y-100578869D01*
D15*
X101933333Y-95431009D02*
X102266666Y-95431009D01*
X102266666Y-95954819D02*
X102266666Y-94954819D01*
X102266666Y-94954819D02*
X101790476Y-94954819D01*
X100885714Y-95954819D02*
X101457142Y-95954819D01*
X101171428Y-95954819D02*
X101171428Y-94954819D01*
X101171428Y-94954819D02*
X101266666Y-95097676D01*
X101266666Y-95097676D02*
X101361904Y-95192914D01*
X101361904Y-95192914D02*
X101457142Y-95240533D01*
X105631410Y-86971717D02*
X105440934Y-86971717D01*
X105440934Y-86971717D02*
X105345696Y-87019336D01*
X105345696Y-87019336D02*
X105250458Y-87114574D01*
X105250458Y-87114574D02*
X105202839Y-87305050D01*
X105202839Y-87305050D02*
X105202839Y-87638383D01*
X105202839Y-87638383D02*
X105250458Y-87828859D01*
X105250458Y-87828859D02*
X105345696Y-87924098D01*
X105345696Y-87924098D02*
X105440934Y-87971717D01*
X105440934Y-87971717D02*
X105631410Y-87971717D01*
X105631410Y-87971717D02*
X105726648Y-87924098D01*
X105726648Y-87924098D02*
X105821886Y-87828859D01*
X105821886Y-87828859D02*
X105869505Y-87638383D01*
X105869505Y-87638383D02*
X105869505Y-87305050D01*
X105869505Y-87305050D02*
X105821886Y-87114574D01*
X105821886Y-87114574D02*
X105726648Y-87019336D01*
X105726648Y-87019336D02*
X105631410Y-86971717D01*
X104774267Y-87971717D02*
X104774267Y-86971717D01*
X104202839Y-87971717D02*
X104631410Y-87400288D01*
X104202839Y-86971717D02*
X104774267Y-87543145D01*
X103250458Y-87971717D02*
X103821886Y-87971717D01*
X103536172Y-87971717D02*
X103536172Y-86971717D01*
X103536172Y-86971717D02*
X103631410Y-87114574D01*
X103631410Y-87114574D02*
X103726648Y-87209812D01*
X103726648Y-87209812D02*
X103821886Y-87257431D01*
X123766666Y-85259580D02*
X123814285Y-85307200D01*
X123814285Y-85307200D02*
X123957142Y-85354819D01*
X123957142Y-85354819D02*
X124052380Y-85354819D01*
X124052380Y-85354819D02*
X124195237Y-85307200D01*
X124195237Y-85307200D02*
X124290475Y-85211961D01*
X124290475Y-85211961D02*
X124338094Y-85116723D01*
X124338094Y-85116723D02*
X124385713Y-84926247D01*
X124385713Y-84926247D02*
X124385713Y-84783390D01*
X124385713Y-84783390D02*
X124338094Y-84592914D01*
X124338094Y-84592914D02*
X124290475Y-84497676D01*
X124290475Y-84497676D02*
X124195237Y-84402438D01*
X124195237Y-84402438D02*
X124052380Y-84354819D01*
X124052380Y-84354819D02*
X123957142Y-84354819D01*
X123957142Y-84354819D02*
X123814285Y-84402438D01*
X123814285Y-84402438D02*
X123766666Y-84450057D01*
X123290475Y-85354819D02*
X123099999Y-85354819D01*
X123099999Y-85354819D02*
X123004761Y-85307200D01*
X123004761Y-85307200D02*
X122957142Y-85259580D01*
X122957142Y-85259580D02*
X122861904Y-85116723D01*
X122861904Y-85116723D02*
X122814285Y-84926247D01*
X122814285Y-84926247D02*
X122814285Y-84545295D01*
X122814285Y-84545295D02*
X122861904Y-84450057D01*
X122861904Y-84450057D02*
X122909523Y-84402438D01*
X122909523Y-84402438D02*
X123004761Y-84354819D01*
X123004761Y-84354819D02*
X123195237Y-84354819D01*
X123195237Y-84354819D02*
X123290475Y-84402438D01*
X123290475Y-84402438D02*
X123338094Y-84450057D01*
X123338094Y-84450057D02*
X123385713Y-84545295D01*
X123385713Y-84545295D02*
X123385713Y-84783390D01*
X123385713Y-84783390D02*
X123338094Y-84878628D01*
X123338094Y-84878628D02*
X123290475Y-84926247D01*
X123290475Y-84926247D02*
X123195237Y-84973866D01*
X123195237Y-84973866D02*
X123004761Y-84973866D01*
X123004761Y-84973866D02*
X122909523Y-84926247D01*
X122909523Y-84926247D02*
X122861904Y-84878628D01*
X122861904Y-84878628D02*
X122814285Y-84783390D01*
X108354819Y-93161905D02*
X107354819Y-93161905D01*
X107354819Y-93161905D02*
X107354819Y-93400000D01*
X107354819Y-93400000D02*
X107402438Y-93542857D01*
X107402438Y-93542857D02*
X107497676Y-93638095D01*
X107497676Y-93638095D02*
X107592914Y-93685714D01*
X107592914Y-93685714D02*
X107783390Y-93733333D01*
X107783390Y-93733333D02*
X107926247Y-93733333D01*
X107926247Y-93733333D02*
X108116723Y-93685714D01*
X108116723Y-93685714D02*
X108211961Y-93638095D01*
X108211961Y-93638095D02*
X108307200Y-93542857D01*
X108307200Y-93542857D02*
X108354819Y-93400000D01*
X108354819Y-93400000D02*
X108354819Y-93161905D01*
X107450057Y-94114286D02*
X107402438Y-94161905D01*
X107402438Y-94161905D02*
X107354819Y-94257143D01*
X107354819Y-94257143D02*
X107354819Y-94495238D01*
X107354819Y-94495238D02*
X107402438Y-94590476D01*
X107402438Y-94590476D02*
X107450057Y-94638095D01*
X107450057Y-94638095D02*
X107545295Y-94685714D01*
X107545295Y-94685714D02*
X107640533Y-94685714D01*
X107640533Y-94685714D02*
X107783390Y-94638095D01*
X107783390Y-94638095D02*
X108354819Y-94066667D01*
X108354819Y-94066667D02*
X108354819Y-94685714D01*
X120867466Y-97997180D02*
X120915085Y-98044800D01*
X120915085Y-98044800D02*
X121057942Y-98092419D01*
X121057942Y-98092419D02*
X121153180Y-98092419D01*
X121153180Y-98092419D02*
X121296037Y-98044800D01*
X121296037Y-98044800D02*
X121391275Y-97949561D01*
X121391275Y-97949561D02*
X121438894Y-97854323D01*
X121438894Y-97854323D02*
X121486513Y-97663847D01*
X121486513Y-97663847D02*
X121486513Y-97520990D01*
X121486513Y-97520990D02*
X121438894Y-97330514D01*
X121438894Y-97330514D02*
X121391275Y-97235276D01*
X121391275Y-97235276D02*
X121296037Y-97140038D01*
X121296037Y-97140038D02*
X121153180Y-97092419D01*
X121153180Y-97092419D02*
X121057942Y-97092419D01*
X121057942Y-97092419D02*
X120915085Y-97140038D01*
X120915085Y-97140038D02*
X120867466Y-97187657D01*
X120296037Y-97520990D02*
X120391275Y-97473371D01*
X120391275Y-97473371D02*
X120438894Y-97425752D01*
X120438894Y-97425752D02*
X120486513Y-97330514D01*
X120486513Y-97330514D02*
X120486513Y-97282895D01*
X120486513Y-97282895D02*
X120438894Y-97187657D01*
X120438894Y-97187657D02*
X120391275Y-97140038D01*
X120391275Y-97140038D02*
X120296037Y-97092419D01*
X120296037Y-97092419D02*
X120105561Y-97092419D01*
X120105561Y-97092419D02*
X120010323Y-97140038D01*
X120010323Y-97140038D02*
X119962704Y-97187657D01*
X119962704Y-97187657D02*
X119915085Y-97282895D01*
X119915085Y-97282895D02*
X119915085Y-97330514D01*
X119915085Y-97330514D02*
X119962704Y-97425752D01*
X119962704Y-97425752D02*
X120010323Y-97473371D01*
X120010323Y-97473371D02*
X120105561Y-97520990D01*
X120105561Y-97520990D02*
X120296037Y-97520990D01*
X120296037Y-97520990D02*
X120391275Y-97568609D01*
X120391275Y-97568609D02*
X120438894Y-97616228D01*
X120438894Y-97616228D02*
X120486513Y-97711466D01*
X120486513Y-97711466D02*
X120486513Y-97901942D01*
X120486513Y-97901942D02*
X120438894Y-97997180D01*
X120438894Y-97997180D02*
X120391275Y-98044800D01*
X120391275Y-98044800D02*
X120296037Y-98092419D01*
X120296037Y-98092419D02*
X120105561Y-98092419D01*
X120105561Y-98092419D02*
X120010323Y-98044800D01*
X120010323Y-98044800D02*
X119962704Y-97997180D01*
X119962704Y-97997180D02*
X119915085Y-97901942D01*
X119915085Y-97901942D02*
X119915085Y-97711466D01*
X119915085Y-97711466D02*
X119962704Y-97616228D01*
X119962704Y-97616228D02*
X120010323Y-97568609D01*
X120010323Y-97568609D02*
X120105561Y-97520990D01*
X109742857Y-90654819D02*
X110076190Y-90178628D01*
X110314285Y-90654819D02*
X110314285Y-89654819D01*
X110314285Y-89654819D02*
X109933333Y-89654819D01*
X109933333Y-89654819D02*
X109838095Y-89702438D01*
X109838095Y-89702438D02*
X109790476Y-89750057D01*
X109790476Y-89750057D02*
X109742857Y-89845295D01*
X109742857Y-89845295D02*
X109742857Y-89988152D01*
X109742857Y-89988152D02*
X109790476Y-90083390D01*
X109790476Y-90083390D02*
X109838095Y-90131009D01*
X109838095Y-90131009D02*
X109933333Y-90178628D01*
X109933333Y-90178628D02*
X110314285Y-90178628D01*
X108790476Y-90654819D02*
X109361904Y-90654819D01*
X109076190Y-90654819D02*
X109076190Y-89654819D01*
X109076190Y-89654819D02*
X109171428Y-89797676D01*
X109171428Y-89797676D02*
X109266666Y-89892914D01*
X109266666Y-89892914D02*
X109361904Y-89940533D01*
X108409523Y-89750057D02*
X108361904Y-89702438D01*
X108361904Y-89702438D02*
X108266666Y-89654819D01*
X108266666Y-89654819D02*
X108028571Y-89654819D01*
X108028571Y-89654819D02*
X107933333Y-89702438D01*
X107933333Y-89702438D02*
X107885714Y-89750057D01*
X107885714Y-89750057D02*
X107838095Y-89845295D01*
X107838095Y-89845295D02*
X107838095Y-89940533D01*
X107838095Y-89940533D02*
X107885714Y-90083390D01*
X107885714Y-90083390D02*
X108457142Y-90654819D01*
X108457142Y-90654819D02*
X107838095Y-90654819D01*
X123458266Y-94384019D02*
X123791599Y-93907828D01*
X124029694Y-94384019D02*
X124029694Y-93384019D01*
X124029694Y-93384019D02*
X123648742Y-93384019D01*
X123648742Y-93384019D02*
X123553504Y-93431638D01*
X123553504Y-93431638D02*
X123505885Y-93479257D01*
X123505885Y-93479257D02*
X123458266Y-93574495D01*
X123458266Y-93574495D02*
X123458266Y-93717352D01*
X123458266Y-93717352D02*
X123505885Y-93812590D01*
X123505885Y-93812590D02*
X123553504Y-93860209D01*
X123553504Y-93860209D02*
X123648742Y-93907828D01*
X123648742Y-93907828D02*
X124029694Y-93907828D01*
X123124932Y-93384019D02*
X122505885Y-93384019D01*
X122505885Y-93384019D02*
X122839218Y-93764971D01*
X122839218Y-93764971D02*
X122696361Y-93764971D01*
X122696361Y-93764971D02*
X122601123Y-93812590D01*
X122601123Y-93812590D02*
X122553504Y-93860209D01*
X122553504Y-93860209D02*
X122505885Y-93955447D01*
X122505885Y-93955447D02*
X122505885Y-94193542D01*
X122505885Y-94193542D02*
X122553504Y-94288780D01*
X122553504Y-94288780D02*
X122601123Y-94336400D01*
X122601123Y-94336400D02*
X122696361Y-94384019D01*
X122696361Y-94384019D02*
X122982075Y-94384019D01*
X122982075Y-94384019D02*
X123077313Y-94336400D01*
X123077313Y-94336400D02*
X123124932Y-94288780D01*
X123610666Y-98117819D02*
X123943999Y-97641628D01*
X124182094Y-98117819D02*
X124182094Y-97117819D01*
X124182094Y-97117819D02*
X123801142Y-97117819D01*
X123801142Y-97117819D02*
X123705904Y-97165438D01*
X123705904Y-97165438D02*
X123658285Y-97213057D01*
X123658285Y-97213057D02*
X123610666Y-97308295D01*
X123610666Y-97308295D02*
X123610666Y-97451152D01*
X123610666Y-97451152D02*
X123658285Y-97546390D01*
X123658285Y-97546390D02*
X123705904Y-97594009D01*
X123705904Y-97594009D02*
X123801142Y-97641628D01*
X123801142Y-97641628D02*
X124182094Y-97641628D01*
X122753523Y-97451152D02*
X122753523Y-98117819D01*
X122991618Y-97070200D02*
X123229713Y-97784485D01*
X123229713Y-97784485D02*
X122610666Y-97784485D01*
X121197666Y-94339580D02*
X121245285Y-94387200D01*
X121245285Y-94387200D02*
X121388142Y-94434819D01*
X121388142Y-94434819D02*
X121483380Y-94434819D01*
X121483380Y-94434819D02*
X121626237Y-94387200D01*
X121626237Y-94387200D02*
X121721475Y-94291961D01*
X121721475Y-94291961D02*
X121769094Y-94196723D01*
X121769094Y-94196723D02*
X121816713Y-94006247D01*
X121816713Y-94006247D02*
X121816713Y-93863390D01*
X121816713Y-93863390D02*
X121769094Y-93672914D01*
X121769094Y-93672914D02*
X121721475Y-93577676D01*
X121721475Y-93577676D02*
X121626237Y-93482438D01*
X121626237Y-93482438D02*
X121483380Y-93434819D01*
X121483380Y-93434819D02*
X121388142Y-93434819D01*
X121388142Y-93434819D02*
X121245285Y-93482438D01*
X121245285Y-93482438D02*
X121197666Y-93530057D01*
X120864332Y-93434819D02*
X120197666Y-93434819D01*
X120197666Y-93434819D02*
X120626237Y-94434819D01*
X118657666Y-97997180D02*
X118705285Y-98044800D01*
X118705285Y-98044800D02*
X118848142Y-98092419D01*
X118848142Y-98092419D02*
X118943380Y-98092419D01*
X118943380Y-98092419D02*
X119086237Y-98044800D01*
X119086237Y-98044800D02*
X119181475Y-97949561D01*
X119181475Y-97949561D02*
X119229094Y-97854323D01*
X119229094Y-97854323D02*
X119276713Y-97663847D01*
X119276713Y-97663847D02*
X119276713Y-97520990D01*
X119276713Y-97520990D02*
X119229094Y-97330514D01*
X119229094Y-97330514D02*
X119181475Y-97235276D01*
X119181475Y-97235276D02*
X119086237Y-97140038D01*
X119086237Y-97140038D02*
X118943380Y-97092419D01*
X118943380Y-97092419D02*
X118848142Y-97092419D01*
X118848142Y-97092419D02*
X118705285Y-97140038D01*
X118705285Y-97140038D02*
X118657666Y-97187657D01*
X117752904Y-97092419D02*
X118229094Y-97092419D01*
X118229094Y-97092419D02*
X118276713Y-97568609D01*
X118276713Y-97568609D02*
X118229094Y-97520990D01*
X118229094Y-97520990D02*
X118133856Y-97473371D01*
X118133856Y-97473371D02*
X117895761Y-97473371D01*
X117895761Y-97473371D02*
X117800523Y-97520990D01*
X117800523Y-97520990D02*
X117752904Y-97568609D01*
X117752904Y-97568609D02*
X117705285Y-97663847D01*
X117705285Y-97663847D02*
X117705285Y-97901942D01*
X117705285Y-97901942D02*
X117752904Y-97997180D01*
X117752904Y-97997180D02*
X117800523Y-98044800D01*
X117800523Y-98044800D02*
X117895761Y-98092419D01*
X117895761Y-98092419D02*
X118133856Y-98092419D01*
X118133856Y-98092419D02*
X118229094Y-98044800D01*
X118229094Y-98044800D02*
X118276713Y-97997180D01*
X90454819Y-85433333D02*
X89978628Y-85100000D01*
X90454819Y-84861905D02*
X89454819Y-84861905D01*
X89454819Y-84861905D02*
X89454819Y-85242857D01*
X89454819Y-85242857D02*
X89502438Y-85338095D01*
X89502438Y-85338095D02*
X89550057Y-85385714D01*
X89550057Y-85385714D02*
X89645295Y-85433333D01*
X89645295Y-85433333D02*
X89788152Y-85433333D01*
X89788152Y-85433333D02*
X89883390Y-85385714D01*
X89883390Y-85385714D02*
X89931009Y-85338095D01*
X89931009Y-85338095D02*
X89978628Y-85242857D01*
X89978628Y-85242857D02*
X89978628Y-84861905D01*
X89454819Y-86290476D02*
X89454819Y-86100000D01*
X89454819Y-86100000D02*
X89502438Y-86004762D01*
X89502438Y-86004762D02*
X89550057Y-85957143D01*
X89550057Y-85957143D02*
X89692914Y-85861905D01*
X89692914Y-85861905D02*
X89883390Y-85814286D01*
X89883390Y-85814286D02*
X90264342Y-85814286D01*
X90264342Y-85814286D02*
X90359580Y-85861905D01*
X90359580Y-85861905D02*
X90407200Y-85909524D01*
X90407200Y-85909524D02*
X90454819Y-86004762D01*
X90454819Y-86004762D02*
X90454819Y-86195238D01*
X90454819Y-86195238D02*
X90407200Y-86290476D01*
X90407200Y-86290476D02*
X90359580Y-86338095D01*
X90359580Y-86338095D02*
X90264342Y-86385714D01*
X90264342Y-86385714D02*
X90026247Y-86385714D01*
X90026247Y-86385714D02*
X89931009Y-86338095D01*
X89931009Y-86338095D02*
X89883390Y-86290476D01*
X89883390Y-86290476D02*
X89835771Y-86195238D01*
X89835771Y-86195238D02*
X89835771Y-86004762D01*
X89835771Y-86004762D02*
X89883390Y-85909524D01*
X89883390Y-85909524D02*
X89931009Y-85861905D01*
X89931009Y-85861905D02*
X90026247Y-85814286D01*
X112773232Y-88006381D02*
X111773232Y-88006381D01*
X111773232Y-88006381D02*
X111773232Y-88244476D01*
X111773232Y-88244476D02*
X111820851Y-88387333D01*
X111820851Y-88387333D02*
X111916089Y-88482571D01*
X111916089Y-88482571D02*
X112011327Y-88530190D01*
X112011327Y-88530190D02*
X112201803Y-88577809D01*
X112201803Y-88577809D02*
X112344660Y-88577809D01*
X112344660Y-88577809D02*
X112535136Y-88530190D01*
X112535136Y-88530190D02*
X112630374Y-88482571D01*
X112630374Y-88482571D02*
X112725613Y-88387333D01*
X112725613Y-88387333D02*
X112773232Y-88244476D01*
X112773232Y-88244476D02*
X112773232Y-88006381D01*
X111773232Y-88911143D02*
X111773232Y-89577809D01*
X111773232Y-89577809D02*
X112773232Y-89149238D01*
X118078866Y-85115380D02*
X118126485Y-85163000D01*
X118126485Y-85163000D02*
X118269342Y-85210619D01*
X118269342Y-85210619D02*
X118364580Y-85210619D01*
X118364580Y-85210619D02*
X118507437Y-85163000D01*
X118507437Y-85163000D02*
X118602675Y-85067761D01*
X118602675Y-85067761D02*
X118650294Y-84972523D01*
X118650294Y-84972523D02*
X118697913Y-84782047D01*
X118697913Y-84782047D02*
X118697913Y-84639190D01*
X118697913Y-84639190D02*
X118650294Y-84448714D01*
X118650294Y-84448714D02*
X118602675Y-84353476D01*
X118602675Y-84353476D02*
X118507437Y-84258238D01*
X118507437Y-84258238D02*
X118364580Y-84210619D01*
X118364580Y-84210619D02*
X118269342Y-84210619D01*
X118269342Y-84210619D02*
X118126485Y-84258238D01*
X118126485Y-84258238D02*
X118078866Y-84305857D01*
X117126485Y-85210619D02*
X117697913Y-85210619D01*
X117412199Y-85210619D02*
X117412199Y-84210619D01*
X117412199Y-84210619D02*
X117507437Y-84353476D01*
X117507437Y-84353476D02*
X117602675Y-84448714D01*
X117602675Y-84448714D02*
X117697913Y-84496333D01*
X116600266Y-97635219D02*
X116933599Y-97159028D01*
X117171694Y-97635219D02*
X117171694Y-96635219D01*
X117171694Y-96635219D02*
X116790742Y-96635219D01*
X116790742Y-96635219D02*
X116695504Y-96682838D01*
X116695504Y-96682838D02*
X116647885Y-96730457D01*
X116647885Y-96730457D02*
X116600266Y-96825695D01*
X116600266Y-96825695D02*
X116600266Y-96968552D01*
X116600266Y-96968552D02*
X116647885Y-97063790D01*
X116647885Y-97063790D02*
X116695504Y-97111409D01*
X116695504Y-97111409D02*
X116790742Y-97159028D01*
X116790742Y-97159028D02*
X117171694Y-97159028D01*
X116266932Y-96635219D02*
X115600266Y-96635219D01*
X115600266Y-96635219D02*
X116028837Y-97635219D01*
X128766666Y-98154819D02*
X129099999Y-97678628D01*
X129338094Y-98154819D02*
X129338094Y-97154819D01*
X129338094Y-97154819D02*
X128957142Y-97154819D01*
X128957142Y-97154819D02*
X128861904Y-97202438D01*
X128861904Y-97202438D02*
X128814285Y-97250057D01*
X128814285Y-97250057D02*
X128766666Y-97345295D01*
X128766666Y-97345295D02*
X128766666Y-97488152D01*
X128766666Y-97488152D02*
X128814285Y-97583390D01*
X128814285Y-97583390D02*
X128861904Y-97631009D01*
X128861904Y-97631009D02*
X128957142Y-97678628D01*
X128957142Y-97678628D02*
X129338094Y-97678628D01*
X127814285Y-98154819D02*
X128385713Y-98154819D01*
X128099999Y-98154819D02*
X128099999Y-97154819D01*
X128099999Y-97154819D02*
X128195237Y-97297676D01*
X128195237Y-97297676D02*
X128290475Y-97392914D01*
X128290475Y-97392914D02*
X128385713Y-97440533D01*
X130766666Y-95854819D02*
X131099999Y-95378628D01*
X131338094Y-95854819D02*
X131338094Y-94854819D01*
X131338094Y-94854819D02*
X130957142Y-94854819D01*
X130957142Y-94854819D02*
X130861904Y-94902438D01*
X130861904Y-94902438D02*
X130814285Y-94950057D01*
X130814285Y-94950057D02*
X130766666Y-95045295D01*
X130766666Y-95045295D02*
X130766666Y-95188152D01*
X130766666Y-95188152D02*
X130814285Y-95283390D01*
X130814285Y-95283390D02*
X130861904Y-95331009D01*
X130861904Y-95331009D02*
X130957142Y-95378628D01*
X130957142Y-95378628D02*
X131338094Y-95378628D01*
X130385713Y-94950057D02*
X130338094Y-94902438D01*
X130338094Y-94902438D02*
X130242856Y-94854819D01*
X130242856Y-94854819D02*
X130004761Y-94854819D01*
X130004761Y-94854819D02*
X129909523Y-94902438D01*
X129909523Y-94902438D02*
X129861904Y-94950057D01*
X129861904Y-94950057D02*
X129814285Y-95045295D01*
X129814285Y-95045295D02*
X129814285Y-95140533D01*
X129814285Y-95140533D02*
X129861904Y-95283390D01*
X129861904Y-95283390D02*
X130433332Y-95854819D01*
X130433332Y-95854819D02*
X129814285Y-95854819D01*
X110955057Y-97616180D02*
X111002676Y-97663800D01*
X111002676Y-97663800D02*
X111145533Y-97711419D01*
X111145533Y-97711419D02*
X111240771Y-97711419D01*
X111240771Y-97711419D02*
X111383628Y-97663800D01*
X111383628Y-97663800D02*
X111478866Y-97568561D01*
X111478866Y-97568561D02*
X111526485Y-97473323D01*
X111526485Y-97473323D02*
X111574104Y-97282847D01*
X111574104Y-97282847D02*
X111574104Y-97139990D01*
X111574104Y-97139990D02*
X111526485Y-96949514D01*
X111526485Y-96949514D02*
X111478866Y-96854276D01*
X111478866Y-96854276D02*
X111383628Y-96759038D01*
X111383628Y-96759038D02*
X111240771Y-96711419D01*
X111240771Y-96711419D02*
X111145533Y-96711419D01*
X111145533Y-96711419D02*
X111002676Y-96759038D01*
X111002676Y-96759038D02*
X110955057Y-96806657D01*
X110002676Y-97711419D02*
X110574104Y-97711419D01*
X110288390Y-97711419D02*
X110288390Y-96711419D01*
X110288390Y-96711419D02*
X110383628Y-96854276D01*
X110383628Y-96854276D02*
X110478866Y-96949514D01*
X110478866Y-96949514D02*
X110574104Y-96997133D01*
X109669342Y-96711419D02*
X109050295Y-96711419D01*
X109050295Y-96711419D02*
X109383628Y-97092371D01*
X109383628Y-97092371D02*
X109240771Y-97092371D01*
X109240771Y-97092371D02*
X109145533Y-97139990D01*
X109145533Y-97139990D02*
X109097914Y-97187609D01*
X109097914Y-97187609D02*
X109050295Y-97282847D01*
X109050295Y-97282847D02*
X109050295Y-97520942D01*
X109050295Y-97520942D02*
X109097914Y-97616180D01*
X109097914Y-97616180D02*
X109145533Y-97663800D01*
X109145533Y-97663800D02*
X109240771Y-97711419D01*
X109240771Y-97711419D02*
X109526485Y-97711419D01*
X109526485Y-97711419D02*
X109621723Y-97663800D01*
X109621723Y-97663800D02*
X109669342Y-97616180D01*
X86759580Y-82157142D02*
X86807200Y-82109523D01*
X86807200Y-82109523D02*
X86854819Y-81966666D01*
X86854819Y-81966666D02*
X86854819Y-81871428D01*
X86854819Y-81871428D02*
X86807200Y-81728571D01*
X86807200Y-81728571D02*
X86711961Y-81633333D01*
X86711961Y-81633333D02*
X86616723Y-81585714D01*
X86616723Y-81585714D02*
X86426247Y-81538095D01*
X86426247Y-81538095D02*
X86283390Y-81538095D01*
X86283390Y-81538095D02*
X86092914Y-81585714D01*
X86092914Y-81585714D02*
X85997676Y-81633333D01*
X85997676Y-81633333D02*
X85902438Y-81728571D01*
X85902438Y-81728571D02*
X85854819Y-81871428D01*
X85854819Y-81871428D02*
X85854819Y-81966666D01*
X85854819Y-81966666D02*
X85902438Y-82109523D01*
X85902438Y-82109523D02*
X85950057Y-82157142D01*
X86854819Y-83109523D02*
X86854819Y-82538095D01*
X86854819Y-82823809D02*
X85854819Y-82823809D01*
X85854819Y-82823809D02*
X85997676Y-82728571D01*
X85997676Y-82728571D02*
X86092914Y-82633333D01*
X86092914Y-82633333D02*
X86140533Y-82538095D01*
X85854819Y-83442857D02*
X85854819Y-84109523D01*
X85854819Y-84109523D02*
X86854819Y-83680952D01*
X114761270Y-84004056D02*
X114808889Y-84051676D01*
X114808889Y-84051676D02*
X114951746Y-84099295D01*
X114951746Y-84099295D02*
X115046984Y-84099295D01*
X115046984Y-84099295D02*
X115189841Y-84051676D01*
X115189841Y-84051676D02*
X115285079Y-83956437D01*
X115285079Y-83956437D02*
X115332698Y-83861199D01*
X115332698Y-83861199D02*
X115380317Y-83670723D01*
X115380317Y-83670723D02*
X115380317Y-83527866D01*
X115380317Y-83527866D02*
X115332698Y-83337390D01*
X115332698Y-83337390D02*
X115285079Y-83242152D01*
X115285079Y-83242152D02*
X115189841Y-83146914D01*
X115189841Y-83146914D02*
X115046984Y-83099295D01*
X115046984Y-83099295D02*
X114951746Y-83099295D01*
X114951746Y-83099295D02*
X114808889Y-83146914D01*
X114808889Y-83146914D02*
X114761270Y-83194533D01*
X113808889Y-84099295D02*
X114380317Y-84099295D01*
X114094603Y-84099295D02*
X114094603Y-83099295D01*
X114094603Y-83099295D02*
X114189841Y-83242152D01*
X114189841Y-83242152D02*
X114285079Y-83337390D01*
X114285079Y-83337390D02*
X114380317Y-83385009D01*
X113237460Y-83527866D02*
X113332698Y-83480247D01*
X113332698Y-83480247D02*
X113380317Y-83432628D01*
X113380317Y-83432628D02*
X113427936Y-83337390D01*
X113427936Y-83337390D02*
X113427936Y-83289771D01*
X113427936Y-83289771D02*
X113380317Y-83194533D01*
X113380317Y-83194533D02*
X113332698Y-83146914D01*
X113332698Y-83146914D02*
X113237460Y-83099295D01*
X113237460Y-83099295D02*
X113046984Y-83099295D01*
X113046984Y-83099295D02*
X112951746Y-83146914D01*
X112951746Y-83146914D02*
X112904127Y-83194533D01*
X112904127Y-83194533D02*
X112856508Y-83289771D01*
X112856508Y-83289771D02*
X112856508Y-83337390D01*
X112856508Y-83337390D02*
X112904127Y-83432628D01*
X112904127Y-83432628D02*
X112951746Y-83480247D01*
X112951746Y-83480247D02*
X113046984Y-83527866D01*
X113046984Y-83527866D02*
X113237460Y-83527866D01*
X113237460Y-83527866D02*
X113332698Y-83575485D01*
X113332698Y-83575485D02*
X113380317Y-83623104D01*
X113380317Y-83623104D02*
X113427936Y-83718342D01*
X113427936Y-83718342D02*
X113427936Y-83908818D01*
X113427936Y-83908818D02*
X113380317Y-84004056D01*
X113380317Y-84004056D02*
X113332698Y-84051676D01*
X113332698Y-84051676D02*
X113237460Y-84099295D01*
X113237460Y-84099295D02*
X113046984Y-84099295D01*
X113046984Y-84099295D02*
X112951746Y-84051676D01*
X112951746Y-84051676D02*
X112904127Y-84004056D01*
X112904127Y-84004056D02*
X112856508Y-83908818D01*
X112856508Y-83908818D02*
X112856508Y-83718342D01*
X112856508Y-83718342D02*
X112904127Y-83623104D01*
X112904127Y-83623104D02*
X112951746Y-83575485D01*
X112951746Y-83575485D02*
X113046984Y-83527866D01*
X121813533Y-84589209D02*
X122146866Y-84589209D01*
X122146866Y-85113019D02*
X122146866Y-84113019D01*
X122146866Y-84113019D02*
X121670676Y-84113019D01*
X120956390Y-84589209D02*
X120813533Y-84636828D01*
X120813533Y-84636828D02*
X120765914Y-84684447D01*
X120765914Y-84684447D02*
X120718295Y-84779685D01*
X120718295Y-84779685D02*
X120718295Y-84922542D01*
X120718295Y-84922542D02*
X120765914Y-85017780D01*
X120765914Y-85017780D02*
X120813533Y-85065400D01*
X120813533Y-85065400D02*
X120908771Y-85113019D01*
X120908771Y-85113019D02*
X121289723Y-85113019D01*
X121289723Y-85113019D02*
X121289723Y-84113019D01*
X121289723Y-84113019D02*
X120956390Y-84113019D01*
X120956390Y-84113019D02*
X120861152Y-84160638D01*
X120861152Y-84160638D02*
X120813533Y-84208257D01*
X120813533Y-84208257D02*
X120765914Y-84303495D01*
X120765914Y-84303495D02*
X120765914Y-84398733D01*
X120765914Y-84398733D02*
X120813533Y-84493971D01*
X120813533Y-84493971D02*
X120861152Y-84541590D01*
X120861152Y-84541590D02*
X120956390Y-84589209D01*
X120956390Y-84589209D02*
X121289723Y-84589209D01*
X119765914Y-85113019D02*
X120337342Y-85113019D01*
X120051628Y-85113019D02*
X120051628Y-84113019D01*
X120051628Y-84113019D02*
X120146866Y-84255876D01*
X120146866Y-84255876D02*
X120242104Y-84351114D01*
X120242104Y-84351114D02*
X120337342Y-84398733D01*
X95642857Y-81959580D02*
X95690476Y-82007200D01*
X95690476Y-82007200D02*
X95833333Y-82054819D01*
X95833333Y-82054819D02*
X95928571Y-82054819D01*
X95928571Y-82054819D02*
X96071428Y-82007200D01*
X96071428Y-82007200D02*
X96166666Y-81911961D01*
X96166666Y-81911961D02*
X96214285Y-81816723D01*
X96214285Y-81816723D02*
X96261904Y-81626247D01*
X96261904Y-81626247D02*
X96261904Y-81483390D01*
X96261904Y-81483390D02*
X96214285Y-81292914D01*
X96214285Y-81292914D02*
X96166666Y-81197676D01*
X96166666Y-81197676D02*
X96071428Y-81102438D01*
X96071428Y-81102438D02*
X95928571Y-81054819D01*
X95928571Y-81054819D02*
X95833333Y-81054819D01*
X95833333Y-81054819D02*
X95690476Y-81102438D01*
X95690476Y-81102438D02*
X95642857Y-81150057D01*
X94690476Y-82054819D02*
X95261904Y-82054819D01*
X94976190Y-82054819D02*
X94976190Y-81054819D01*
X94976190Y-81054819D02*
X95071428Y-81197676D01*
X95071428Y-81197676D02*
X95166666Y-81292914D01*
X95166666Y-81292914D02*
X95261904Y-81340533D01*
X93738095Y-82054819D02*
X94309523Y-82054819D01*
X94023809Y-82054819D02*
X94023809Y-81054819D01*
X94023809Y-81054819D02*
X94119047Y-81197676D01*
X94119047Y-81197676D02*
X94214285Y-81292914D01*
X94214285Y-81292914D02*
X94309523Y-81340533D01*
X129233332Y-93907200D02*
X129090475Y-93954819D01*
X129090475Y-93954819D02*
X128852380Y-93954819D01*
X128852380Y-93954819D02*
X128757142Y-93907200D01*
X128757142Y-93907200D02*
X128709523Y-93859580D01*
X128709523Y-93859580D02*
X128661904Y-93764342D01*
X128661904Y-93764342D02*
X128661904Y-93669104D01*
X128661904Y-93669104D02*
X128709523Y-93573866D01*
X128709523Y-93573866D02*
X128757142Y-93526247D01*
X128757142Y-93526247D02*
X128852380Y-93478628D01*
X128852380Y-93478628D02*
X129042856Y-93431009D01*
X129042856Y-93431009D02*
X129138094Y-93383390D01*
X129138094Y-93383390D02*
X129185713Y-93335771D01*
X129185713Y-93335771D02*
X129233332Y-93240533D01*
X129233332Y-93240533D02*
X129233332Y-93145295D01*
X129233332Y-93145295D02*
X129185713Y-93050057D01*
X129185713Y-93050057D02*
X129138094Y-93002438D01*
X129138094Y-93002438D02*
X129042856Y-92954819D01*
X129042856Y-92954819D02*
X128804761Y-92954819D01*
X128804761Y-92954819D02*
X128661904Y-93002438D01*
X128328570Y-92954819D02*
X128090475Y-93954819D01*
X128090475Y-93954819D02*
X127899999Y-93240533D01*
X127899999Y-93240533D02*
X127709523Y-93954819D01*
X127709523Y-93954819D02*
X127471428Y-92954819D01*
X126566666Y-93954819D02*
X127138094Y-93954819D01*
X126852380Y-93954819D02*
X126852380Y-92954819D01*
X126852380Y-92954819D02*
X126947618Y-93097676D01*
X126947618Y-93097676D02*
X127042856Y-93192914D01*
X127042856Y-93192914D02*
X127138094Y-93240533D01*
X106199580Y-95357142D02*
X106247200Y-95309523D01*
X106247200Y-95309523D02*
X106294819Y-95166666D01*
X106294819Y-95166666D02*
X106294819Y-95071428D01*
X106294819Y-95071428D02*
X106247200Y-94928571D01*
X106247200Y-94928571D02*
X106151961Y-94833333D01*
X106151961Y-94833333D02*
X106056723Y-94785714D01*
X106056723Y-94785714D02*
X105866247Y-94738095D01*
X105866247Y-94738095D02*
X105723390Y-94738095D01*
X105723390Y-94738095D02*
X105532914Y-94785714D01*
X105532914Y-94785714D02*
X105437676Y-94833333D01*
X105437676Y-94833333D02*
X105342438Y-94928571D01*
X105342438Y-94928571D02*
X105294819Y-95071428D01*
X105294819Y-95071428D02*
X105294819Y-95166666D01*
X105294819Y-95166666D02*
X105342438Y-95309523D01*
X105342438Y-95309523D02*
X105390057Y-95357142D01*
X106294819Y-96309523D02*
X106294819Y-95738095D01*
X106294819Y-96023809D02*
X105294819Y-96023809D01*
X105294819Y-96023809D02*
X105437676Y-95928571D01*
X105437676Y-95928571D02*
X105532914Y-95833333D01*
X105532914Y-95833333D02*
X105580533Y-95738095D01*
X105390057Y-96690476D02*
X105342438Y-96738095D01*
X105342438Y-96738095D02*
X105294819Y-96833333D01*
X105294819Y-96833333D02*
X105294819Y-97071428D01*
X105294819Y-97071428D02*
X105342438Y-97166666D01*
X105342438Y-97166666D02*
X105390057Y-97214285D01*
X105390057Y-97214285D02*
X105485295Y-97261904D01*
X105485295Y-97261904D02*
X105580533Y-97261904D01*
X105580533Y-97261904D02*
X105723390Y-97214285D01*
X105723390Y-97214285D02*
X106294819Y-96642857D01*
X106294819Y-96642857D02*
X106294819Y-97261904D01*
X120466666Y-89859580D02*
X120514285Y-89907200D01*
X120514285Y-89907200D02*
X120657142Y-89954819D01*
X120657142Y-89954819D02*
X120752380Y-89954819D01*
X120752380Y-89954819D02*
X120895237Y-89907200D01*
X120895237Y-89907200D02*
X120990475Y-89811961D01*
X120990475Y-89811961D02*
X121038094Y-89716723D01*
X121038094Y-89716723D02*
X121085713Y-89526247D01*
X121085713Y-89526247D02*
X121085713Y-89383390D01*
X121085713Y-89383390D02*
X121038094Y-89192914D01*
X121038094Y-89192914D02*
X120990475Y-89097676D01*
X120990475Y-89097676D02*
X120895237Y-89002438D01*
X120895237Y-89002438D02*
X120752380Y-88954819D01*
X120752380Y-88954819D02*
X120657142Y-88954819D01*
X120657142Y-88954819D02*
X120514285Y-89002438D01*
X120514285Y-89002438D02*
X120466666Y-89050057D01*
X119609523Y-88954819D02*
X119799999Y-88954819D01*
X119799999Y-88954819D02*
X119895237Y-89002438D01*
X119895237Y-89002438D02*
X119942856Y-89050057D01*
X119942856Y-89050057D02*
X120038094Y-89192914D01*
X120038094Y-89192914D02*
X120085713Y-89383390D01*
X120085713Y-89383390D02*
X120085713Y-89764342D01*
X120085713Y-89764342D02*
X120038094Y-89859580D01*
X120038094Y-89859580D02*
X119990475Y-89907200D01*
X119990475Y-89907200D02*
X119895237Y-89954819D01*
X119895237Y-89954819D02*
X119704761Y-89954819D01*
X119704761Y-89954819D02*
X119609523Y-89907200D01*
X119609523Y-89907200D02*
X119561904Y-89859580D01*
X119561904Y-89859580D02*
X119514285Y-89764342D01*
X119514285Y-89764342D02*
X119514285Y-89526247D01*
X119514285Y-89526247D02*
X119561904Y-89431009D01*
X119561904Y-89431009D02*
X119609523Y-89383390D01*
X119609523Y-89383390D02*
X119704761Y-89335771D01*
X119704761Y-89335771D02*
X119895237Y-89335771D01*
X119895237Y-89335771D02*
X119990475Y-89383390D01*
X119990475Y-89383390D02*
X120038094Y-89431009D01*
X120038094Y-89431009D02*
X120085713Y-89526247D01*
X119038666Y-94339580D02*
X119086285Y-94387200D01*
X119086285Y-94387200D02*
X119229142Y-94434819D01*
X119229142Y-94434819D02*
X119324380Y-94434819D01*
X119324380Y-94434819D02*
X119467237Y-94387200D01*
X119467237Y-94387200D02*
X119562475Y-94291961D01*
X119562475Y-94291961D02*
X119610094Y-94196723D01*
X119610094Y-94196723D02*
X119657713Y-94006247D01*
X119657713Y-94006247D02*
X119657713Y-93863390D01*
X119657713Y-93863390D02*
X119610094Y-93672914D01*
X119610094Y-93672914D02*
X119562475Y-93577676D01*
X119562475Y-93577676D02*
X119467237Y-93482438D01*
X119467237Y-93482438D02*
X119324380Y-93434819D01*
X119324380Y-93434819D02*
X119229142Y-93434819D01*
X119229142Y-93434819D02*
X119086285Y-93482438D01*
X119086285Y-93482438D02*
X119038666Y-93530057D01*
X118181523Y-93768152D02*
X118181523Y-94434819D01*
X118419618Y-93387200D02*
X118657713Y-94101485D01*
X118657713Y-94101485D02*
X118038666Y-94101485D01*
X94809457Y-89287361D02*
X94761838Y-89192123D01*
X94761838Y-89192123D02*
X94666600Y-89096885D01*
X94666600Y-89096885D02*
X94523742Y-88954028D01*
X94523742Y-88954028D02*
X94476123Y-88858790D01*
X94476123Y-88858790D02*
X94476123Y-88763552D01*
X94714219Y-88811171D02*
X94666600Y-88715933D01*
X94666600Y-88715933D02*
X94571361Y-88620695D01*
X94571361Y-88620695D02*
X94380885Y-88573076D01*
X94380885Y-88573076D02*
X94047552Y-88573076D01*
X94047552Y-88573076D02*
X93857076Y-88620695D01*
X93857076Y-88620695D02*
X93761838Y-88715933D01*
X93761838Y-88715933D02*
X93714219Y-88811171D01*
X93714219Y-88811171D02*
X93714219Y-89001647D01*
X93714219Y-89001647D02*
X93761838Y-89096885D01*
X93761838Y-89096885D02*
X93857076Y-89192123D01*
X93857076Y-89192123D02*
X94047552Y-89239742D01*
X94047552Y-89239742D02*
X94380885Y-89239742D01*
X94380885Y-89239742D02*
X94571361Y-89192123D01*
X94571361Y-89192123D02*
X94666600Y-89096885D01*
X94666600Y-89096885D02*
X94714219Y-89001647D01*
X94714219Y-89001647D02*
X94714219Y-88811171D01*
X94714219Y-90192123D02*
X94714219Y-89620695D01*
X94714219Y-89906409D02*
X93714219Y-89906409D01*
X93714219Y-89906409D02*
X93857076Y-89811171D01*
X93857076Y-89811171D02*
X93952314Y-89715933D01*
X93952314Y-89715933D02*
X93999933Y-89620695D01*
X97743180Y-93591142D02*
X97790800Y-93543523D01*
X97790800Y-93543523D02*
X97838419Y-93400666D01*
X97838419Y-93400666D02*
X97838419Y-93305428D01*
X97838419Y-93305428D02*
X97790800Y-93162571D01*
X97790800Y-93162571D02*
X97695561Y-93067333D01*
X97695561Y-93067333D02*
X97600323Y-93019714D01*
X97600323Y-93019714D02*
X97409847Y-92972095D01*
X97409847Y-92972095D02*
X97266990Y-92972095D01*
X97266990Y-92972095D02*
X97076514Y-93019714D01*
X97076514Y-93019714D02*
X96981276Y-93067333D01*
X96981276Y-93067333D02*
X96886038Y-93162571D01*
X96886038Y-93162571D02*
X96838419Y-93305428D01*
X96838419Y-93305428D02*
X96838419Y-93400666D01*
X96838419Y-93400666D02*
X96886038Y-93543523D01*
X96886038Y-93543523D02*
X96933657Y-93591142D01*
X97838419Y-94543523D02*
X97838419Y-93972095D01*
X97838419Y-94257809D02*
X96838419Y-94257809D01*
X96838419Y-94257809D02*
X96981276Y-94162571D01*
X96981276Y-94162571D02*
X97076514Y-94067333D01*
X97076514Y-94067333D02*
X97124133Y-93972095D01*
X96838419Y-95162571D02*
X96838419Y-95257809D01*
X96838419Y-95257809D02*
X96886038Y-95353047D01*
X96886038Y-95353047D02*
X96933657Y-95400666D01*
X96933657Y-95400666D02*
X97028895Y-95448285D01*
X97028895Y-95448285D02*
X97219371Y-95495904D01*
X97219371Y-95495904D02*
X97457466Y-95495904D01*
X97457466Y-95495904D02*
X97647942Y-95448285D01*
X97647942Y-95448285D02*
X97743180Y-95400666D01*
X97743180Y-95400666D02*
X97790800Y-95353047D01*
X97790800Y-95353047D02*
X97838419Y-95257809D01*
X97838419Y-95257809D02*
X97838419Y-95162571D01*
X97838419Y-95162571D02*
X97790800Y-95067333D01*
X97790800Y-95067333D02*
X97743180Y-95019714D01*
X97743180Y-95019714D02*
X97647942Y-94972095D01*
X97647942Y-94972095D02*
X97457466Y-94924476D01*
X97457466Y-94924476D02*
X97219371Y-94924476D01*
X97219371Y-94924476D02*
X97028895Y-94972095D01*
X97028895Y-94972095D02*
X96933657Y-95019714D01*
X96933657Y-95019714D02*
X96886038Y-95067333D01*
X96886038Y-95067333D02*
X96838419Y-95162571D01*
X125884745Y-96136729D02*
X125884745Y-95136729D01*
X125884745Y-95136729D02*
X125646650Y-95136729D01*
X125646650Y-95136729D02*
X125503793Y-95184348D01*
X125503793Y-95184348D02*
X125408555Y-95279586D01*
X125408555Y-95279586D02*
X125360936Y-95374824D01*
X125360936Y-95374824D02*
X125313317Y-95565300D01*
X125313317Y-95565300D02*
X125313317Y-95708157D01*
X125313317Y-95708157D02*
X125360936Y-95898633D01*
X125360936Y-95898633D02*
X125408555Y-95993871D01*
X125408555Y-95993871D02*
X125503793Y-96089110D01*
X125503793Y-96089110D02*
X125646650Y-96136729D01*
X125646650Y-96136729D02*
X125884745Y-96136729D01*
X124741888Y-95565300D02*
X124837126Y-95517681D01*
X124837126Y-95517681D02*
X124884745Y-95470062D01*
X124884745Y-95470062D02*
X124932364Y-95374824D01*
X124932364Y-95374824D02*
X124932364Y-95327205D01*
X124932364Y-95327205D02*
X124884745Y-95231967D01*
X124884745Y-95231967D02*
X124837126Y-95184348D01*
X124837126Y-95184348D02*
X124741888Y-95136729D01*
X124741888Y-95136729D02*
X124551412Y-95136729D01*
X124551412Y-95136729D02*
X124456174Y-95184348D01*
X124456174Y-95184348D02*
X124408555Y-95231967D01*
X124408555Y-95231967D02*
X124360936Y-95327205D01*
X124360936Y-95327205D02*
X124360936Y-95374824D01*
X124360936Y-95374824D02*
X124408555Y-95470062D01*
X124408555Y-95470062D02*
X124456174Y-95517681D01*
X124456174Y-95517681D02*
X124551412Y-95565300D01*
X124551412Y-95565300D02*
X124741888Y-95565300D01*
X124741888Y-95565300D02*
X124837126Y-95612919D01*
X124837126Y-95612919D02*
X124884745Y-95660538D01*
X124884745Y-95660538D02*
X124932364Y-95755776D01*
X124932364Y-95755776D02*
X124932364Y-95946252D01*
X124932364Y-95946252D02*
X124884745Y-96041490D01*
X124884745Y-96041490D02*
X124837126Y-96089110D01*
X124837126Y-96089110D02*
X124741888Y-96136729D01*
X124741888Y-96136729D02*
X124551412Y-96136729D01*
X124551412Y-96136729D02*
X124456174Y-96089110D01*
X124456174Y-96089110D02*
X124408555Y-96041490D01*
X124408555Y-96041490D02*
X124360936Y-95946252D01*
X124360936Y-95946252D02*
X124360936Y-95755776D01*
X124360936Y-95755776D02*
X124408555Y-95660538D01*
X124408555Y-95660538D02*
X124456174Y-95612919D01*
X124456174Y-95612919D02*
X124551412Y-95565300D01*
X113961904Y-92454819D02*
X113961904Y-93264342D01*
X113961904Y-93264342D02*
X113914285Y-93359580D01*
X113914285Y-93359580D02*
X113866666Y-93407200D01*
X113866666Y-93407200D02*
X113771428Y-93454819D01*
X113771428Y-93454819D02*
X113580952Y-93454819D01*
X113580952Y-93454819D02*
X113485714Y-93407200D01*
X113485714Y-93407200D02*
X113438095Y-93359580D01*
X113438095Y-93359580D02*
X113390476Y-93264342D01*
X113390476Y-93264342D02*
X113390476Y-92454819D01*
X112390476Y-93454819D02*
X112961904Y-93454819D01*
X112676190Y-93454819D02*
X112676190Y-92454819D01*
X112676190Y-92454819D02*
X112771428Y-92597676D01*
X112771428Y-92597676D02*
X112866666Y-92692914D01*
X112866666Y-92692914D02*
X112961904Y-92740533D01*
X116566666Y-88059580D02*
X116614285Y-88107200D01*
X116614285Y-88107200D02*
X116757142Y-88154819D01*
X116757142Y-88154819D02*
X116852380Y-88154819D01*
X116852380Y-88154819D02*
X116995237Y-88107200D01*
X116995237Y-88107200D02*
X117090475Y-88011961D01*
X117090475Y-88011961D02*
X117138094Y-87916723D01*
X117138094Y-87916723D02*
X117185713Y-87726247D01*
X117185713Y-87726247D02*
X117185713Y-87583390D01*
X117185713Y-87583390D02*
X117138094Y-87392914D01*
X117138094Y-87392914D02*
X117090475Y-87297676D01*
X117090475Y-87297676D02*
X116995237Y-87202438D01*
X116995237Y-87202438D02*
X116852380Y-87154819D01*
X116852380Y-87154819D02*
X116757142Y-87154819D01*
X116757142Y-87154819D02*
X116614285Y-87202438D01*
X116614285Y-87202438D02*
X116566666Y-87250057D01*
X116185713Y-87250057D02*
X116138094Y-87202438D01*
X116138094Y-87202438D02*
X116042856Y-87154819D01*
X116042856Y-87154819D02*
X115804761Y-87154819D01*
X115804761Y-87154819D02*
X115709523Y-87202438D01*
X115709523Y-87202438D02*
X115661904Y-87250057D01*
X115661904Y-87250057D02*
X115614285Y-87345295D01*
X115614285Y-87345295D02*
X115614285Y-87440533D01*
X115614285Y-87440533D02*
X115661904Y-87583390D01*
X115661904Y-87583390D02*
X116233332Y-88154819D01*
X116233332Y-88154819D02*
X115614285Y-88154819D01*
X116566666Y-89359580D02*
X116614285Y-89407200D01*
X116614285Y-89407200D02*
X116757142Y-89454819D01*
X116757142Y-89454819D02*
X116852380Y-89454819D01*
X116852380Y-89454819D02*
X116995237Y-89407200D01*
X116995237Y-89407200D02*
X117090475Y-89311961D01*
X117090475Y-89311961D02*
X117138094Y-89216723D01*
X117138094Y-89216723D02*
X117185713Y-89026247D01*
X117185713Y-89026247D02*
X117185713Y-88883390D01*
X117185713Y-88883390D02*
X117138094Y-88692914D01*
X117138094Y-88692914D02*
X117090475Y-88597676D01*
X117090475Y-88597676D02*
X116995237Y-88502438D01*
X116995237Y-88502438D02*
X116852380Y-88454819D01*
X116852380Y-88454819D02*
X116757142Y-88454819D01*
X116757142Y-88454819D02*
X116614285Y-88502438D01*
X116614285Y-88502438D02*
X116566666Y-88550057D01*
X116233332Y-88454819D02*
X115614285Y-88454819D01*
X115614285Y-88454819D02*
X115947618Y-88835771D01*
X115947618Y-88835771D02*
X115804761Y-88835771D01*
X115804761Y-88835771D02*
X115709523Y-88883390D01*
X115709523Y-88883390D02*
X115661904Y-88931009D01*
X115661904Y-88931009D02*
X115614285Y-89026247D01*
X115614285Y-89026247D02*
X115614285Y-89264342D01*
X115614285Y-89264342D02*
X115661904Y-89359580D01*
X115661904Y-89359580D02*
X115709523Y-89407200D01*
X115709523Y-89407200D02*
X115804761Y-89454819D01*
X115804761Y-89454819D02*
X116090475Y-89454819D01*
X116090475Y-89454819D02*
X116185713Y-89407200D01*
X116185713Y-89407200D02*
X116233332Y-89359580D01*
X97889219Y-87209333D02*
X97413028Y-86876000D01*
X97889219Y-86637905D02*
X96889219Y-86637905D01*
X96889219Y-86637905D02*
X96889219Y-87018857D01*
X96889219Y-87018857D02*
X96936838Y-87114095D01*
X96936838Y-87114095D02*
X96984457Y-87161714D01*
X96984457Y-87161714D02*
X97079695Y-87209333D01*
X97079695Y-87209333D02*
X97222552Y-87209333D01*
X97222552Y-87209333D02*
X97317790Y-87161714D01*
X97317790Y-87161714D02*
X97365409Y-87114095D01*
X97365409Y-87114095D02*
X97413028Y-87018857D01*
X97413028Y-87018857D02*
X97413028Y-86637905D01*
X96889219Y-88114095D02*
X96889219Y-87637905D01*
X96889219Y-87637905D02*
X97365409Y-87590286D01*
X97365409Y-87590286D02*
X97317790Y-87637905D01*
X97317790Y-87637905D02*
X97270171Y-87733143D01*
X97270171Y-87733143D02*
X97270171Y-87971238D01*
X97270171Y-87971238D02*
X97317790Y-88066476D01*
X97317790Y-88066476D02*
X97365409Y-88114095D01*
X97365409Y-88114095D02*
X97460647Y-88161714D01*
X97460647Y-88161714D02*
X97698742Y-88161714D01*
X97698742Y-88161714D02*
X97793980Y-88114095D01*
X97793980Y-88114095D02*
X97841600Y-88066476D01*
X97841600Y-88066476D02*
X97889219Y-87971238D01*
X97889219Y-87971238D02*
X97889219Y-87733143D01*
X97889219Y-87733143D02*
X97841600Y-87637905D01*
X97841600Y-87637905D02*
X97793980Y-87590286D01*
X91954819Y-90361905D02*
X90954819Y-90361905D01*
X90954819Y-90361905D02*
X90954819Y-90600000D01*
X90954819Y-90600000D02*
X91002438Y-90742857D01*
X91002438Y-90742857D02*
X91097676Y-90838095D01*
X91097676Y-90838095D02*
X91192914Y-90885714D01*
X91192914Y-90885714D02*
X91383390Y-90933333D01*
X91383390Y-90933333D02*
X91526247Y-90933333D01*
X91526247Y-90933333D02*
X91716723Y-90885714D01*
X91716723Y-90885714D02*
X91811961Y-90838095D01*
X91811961Y-90838095D02*
X91907200Y-90742857D01*
X91907200Y-90742857D02*
X91954819Y-90600000D01*
X91954819Y-90600000D02*
X91954819Y-90361905D01*
X90954819Y-91790476D02*
X90954819Y-91600000D01*
X90954819Y-91600000D02*
X91002438Y-91504762D01*
X91002438Y-91504762D02*
X91050057Y-91457143D01*
X91050057Y-91457143D02*
X91192914Y-91361905D01*
X91192914Y-91361905D02*
X91383390Y-91314286D01*
X91383390Y-91314286D02*
X91764342Y-91314286D01*
X91764342Y-91314286D02*
X91859580Y-91361905D01*
X91859580Y-91361905D02*
X91907200Y-91409524D01*
X91907200Y-91409524D02*
X91954819Y-91504762D01*
X91954819Y-91504762D02*
X91954819Y-91695238D01*
X91954819Y-91695238D02*
X91907200Y-91790476D01*
X91907200Y-91790476D02*
X91859580Y-91838095D01*
X91859580Y-91838095D02*
X91764342Y-91885714D01*
X91764342Y-91885714D02*
X91526247Y-91885714D01*
X91526247Y-91885714D02*
X91431009Y-91838095D01*
X91431009Y-91838095D02*
X91383390Y-91790476D01*
X91383390Y-91790476D02*
X91335771Y-91695238D01*
X91335771Y-91695238D02*
X91335771Y-91504762D01*
X91335771Y-91504762D02*
X91383390Y-91409524D01*
X91383390Y-91409524D02*
X91431009Y-91361905D01*
X91431009Y-91361905D02*
X91526247Y-91314286D01*
X113926857Y-97641580D02*
X113974476Y-97689200D01*
X113974476Y-97689200D02*
X114117333Y-97736819D01*
X114117333Y-97736819D02*
X114212571Y-97736819D01*
X114212571Y-97736819D02*
X114355428Y-97689200D01*
X114355428Y-97689200D02*
X114450666Y-97593961D01*
X114450666Y-97593961D02*
X114498285Y-97498723D01*
X114498285Y-97498723D02*
X114545904Y-97308247D01*
X114545904Y-97308247D02*
X114545904Y-97165390D01*
X114545904Y-97165390D02*
X114498285Y-96974914D01*
X114498285Y-96974914D02*
X114450666Y-96879676D01*
X114450666Y-96879676D02*
X114355428Y-96784438D01*
X114355428Y-96784438D02*
X114212571Y-96736819D01*
X114212571Y-96736819D02*
X114117333Y-96736819D01*
X114117333Y-96736819D02*
X113974476Y-96784438D01*
X113974476Y-96784438D02*
X113926857Y-96832057D01*
X113545904Y-96832057D02*
X113498285Y-96784438D01*
X113498285Y-96784438D02*
X113403047Y-96736819D01*
X113403047Y-96736819D02*
X113164952Y-96736819D01*
X113164952Y-96736819D02*
X113069714Y-96784438D01*
X113069714Y-96784438D02*
X113022095Y-96832057D01*
X113022095Y-96832057D02*
X112974476Y-96927295D01*
X112974476Y-96927295D02*
X112974476Y-97022533D01*
X112974476Y-97022533D02*
X113022095Y-97165390D01*
X113022095Y-97165390D02*
X113593523Y-97736819D01*
X113593523Y-97736819D02*
X112974476Y-97736819D01*
X112355428Y-96736819D02*
X112260190Y-96736819D01*
X112260190Y-96736819D02*
X112164952Y-96784438D01*
X112164952Y-96784438D02*
X112117333Y-96832057D01*
X112117333Y-96832057D02*
X112069714Y-96927295D01*
X112069714Y-96927295D02*
X112022095Y-97117771D01*
X112022095Y-97117771D02*
X112022095Y-97355866D01*
X112022095Y-97355866D02*
X112069714Y-97546342D01*
X112069714Y-97546342D02*
X112117333Y-97641580D01*
X112117333Y-97641580D02*
X112164952Y-97689200D01*
X112164952Y-97689200D02*
X112260190Y-97736819D01*
X112260190Y-97736819D02*
X112355428Y-97736819D01*
X112355428Y-97736819D02*
X112450666Y-97689200D01*
X112450666Y-97689200D02*
X112498285Y-97641580D01*
X112498285Y-97641580D02*
X112545904Y-97546342D01*
X112545904Y-97546342D02*
X112593523Y-97355866D01*
X112593523Y-97355866D02*
X112593523Y-97117771D01*
X112593523Y-97117771D02*
X112545904Y-96927295D01*
X112545904Y-96927295D02*
X112498285Y-96832057D01*
X112498285Y-96832057D02*
X112450666Y-96784438D01*
X112450666Y-96784438D02*
X112355428Y-96736819D01*
G04 #@! TO.C,F1*
D16*
X102067952Y-96308600D02*
X99295448Y-96308600D01*
X102067952Y-99728600D02*
X99295448Y-99728600D01*
G04 #@! TO.C,OK1*
X102021382Y-83363698D02*
X102021382Y-83578698D01*
X102021382Y-85968698D02*
X102021382Y-86183698D01*
X102021382Y-86183698D02*
X106641382Y-86183698D01*
X106641382Y-83363698D02*
X102021382Y-83363698D01*
X106641382Y-83578698D02*
X106641382Y-83363698D01*
X106641382Y-86183698D02*
X106641382Y-85968698D01*
X107521382Y-83573698D02*
X107761382Y-83243698D01*
X107281382Y-83243698D01*
X107521382Y-83573698D01*
G36*
X107521382Y-83573698D02*
G01*
X107281382Y-83243698D01*
X107761382Y-83243698D01*
X107521382Y-83573698D01*
G37*
G04 #@! TO.C,C9*
X123607836Y-85640000D02*
X123392164Y-85640000D01*
X123607836Y-86360000D02*
X123392164Y-86360000D01*
G04 #@! TO.C,D2*
X109265000Y-92890000D02*
X109265000Y-92915000D01*
X109265000Y-93785000D02*
X109265000Y-94215000D01*
X109265000Y-95085000D02*
X109265000Y-95110000D01*
X109265000Y-95110000D02*
X110735000Y-95110000D01*
X110735000Y-92890000D02*
X109265000Y-92890000D01*
X110735000Y-92915000D02*
X110735000Y-92890000D01*
X110735000Y-95110000D02*
X110735000Y-95085000D01*
X111180000Y-92910000D02*
X111320000Y-92720000D01*
X111040000Y-92720000D01*
X111180000Y-92910000D01*
G36*
X111180000Y-92910000D02*
G01*
X111040000Y-92720000D01*
X111320000Y-92720000D01*
X111180000Y-92910000D01*
G37*
G04 #@! TO.C,C8*
X121107836Y-96140000D02*
X120892164Y-96140000D01*
X121107836Y-96860000D02*
X120892164Y-96860000D01*
G04 #@! TO.C,R12*
X109264652Y-91009200D02*
X108957370Y-91009200D01*
X109264652Y-91769200D02*
X108957370Y-91769200D01*
G04 #@! TO.C,R3*
X123653641Y-94620000D02*
X123346359Y-94620000D01*
X123653641Y-95380000D02*
X123346359Y-95380000D01*
G04 #@! TO.C,R4*
X123346359Y-96120000D02*
X123653641Y-96120000D01*
X123346359Y-96880000D02*
X123653641Y-96880000D01*
G04 #@! TO.C,C7*
X120892164Y-94640000D02*
X121107836Y-94640000D01*
X120892164Y-95360000D02*
X121107836Y-95360000D01*
G04 #@! TO.C,C5*
X118392164Y-96140000D02*
X118607836Y-96140000D01*
X118392164Y-96860000D02*
X118607836Y-96860000D01*
G04 #@! TO.C,R6*
X89663600Y-82778236D02*
X89663600Y-83232364D01*
X91133600Y-82778236D02*
X91133600Y-83232364D01*
G04 #@! TO.C,D7*
X113068413Y-90954476D02*
X113068413Y-86944476D01*
X115068413Y-90954476D02*
X113068413Y-90954476D01*
X115068413Y-90954476D02*
X115068413Y-86944476D01*
G04 #@! TO.C,C1*
X119642164Y-84390000D02*
X119857836Y-84390000D01*
X119642164Y-85110000D02*
X119857836Y-85110000D01*
G04 #@! TO.C,R7*
X116346359Y-95620000D02*
X116653641Y-95620000D01*
X116346359Y-96380000D02*
X116653641Y-96380000D01*
G04 #@! TO.C,R1*
X130653641Y-97181400D02*
X130346359Y-97181400D01*
X130653641Y-97941400D02*
X130346359Y-97941400D01*
G04 #@! TO.C,R2*
X130346359Y-96120000D02*
X130653641Y-96120000D01*
X130346359Y-96880000D02*
X130653641Y-96880000D01*
G04 #@! TO.C,C13*
X110892164Y-95640000D02*
X111107836Y-95640000D01*
X110892164Y-96360000D02*
X111107836Y-96360000D01*
G04 #@! TO.C,C17*
X87265000Y-83261252D02*
X87265000Y-82738748D01*
X88735000Y-83261252D02*
X88735000Y-82738748D01*
G04 #@! TO.C,C18*
X114779665Y-84284476D02*
X113357161Y-84284476D01*
X114779665Y-86104476D02*
X113357161Y-86104476D01*
G04 #@! TO.C,FB1*
X121162779Y-85490000D02*
X120837221Y-85490000D01*
X121162779Y-86510000D02*
X120837221Y-86510000D01*
G04 #@! TO.C,C11*
X91924200Y-82618252D02*
X91924200Y-82095748D01*
X93394200Y-82618252D02*
X93394200Y-82095748D01*
G04 #@! TO.C,SW1*
X123489000Y-88829600D02*
X132289000Y-88829600D01*
X132289000Y-92729600D01*
X123489000Y-92729600D01*
X123489000Y-88829600D01*
G04 #@! TO.C,C12*
X106640000Y-96107836D02*
X106640000Y-95892164D01*
X107360000Y-96107836D02*
X107360000Y-95892164D01*
G04 #@! TO.C,C6*
X120738748Y-87265000D02*
X121261252Y-87265000D01*
X120738748Y-88735000D02*
X121261252Y-88735000D01*
G04 #@! TO.C,C4*
X118392164Y-94640000D02*
X118607836Y-94640000D01*
X118392164Y-95360000D02*
X118607836Y-95360000D01*
G04 #@! TO.C,Q1*
X95074200Y-89143400D02*
X95074200Y-90143400D01*
X95074200Y-91263400D02*
X95074200Y-92263400D01*
X95074200Y-92263400D02*
X96594200Y-92263400D01*
X96594200Y-89143400D02*
X95074200Y-89143400D01*
X96594200Y-89193400D02*
X96594200Y-89143400D01*
X96594200Y-91093400D02*
X96594200Y-90313400D01*
X96594200Y-92263400D02*
X96594200Y-92213400D01*
X97134200Y-90323400D02*
X96894200Y-90653400D01*
X97374200Y-90653400D01*
X97134200Y-90323400D01*
G36*
X97374200Y-90653400D02*
G01*
X96894200Y-90653400D01*
X97134200Y-90323400D01*
X97374200Y-90653400D01*
G37*
G04 #@! TO.C,C10*
X95099200Y-93881348D02*
X95099200Y-94403852D01*
X96569200Y-93881348D02*
X96569200Y-94403852D01*
G04 #@! TO.C,D8*
X126151751Y-94747310D02*
X126151751Y-96667310D01*
X126151751Y-96667310D02*
X128836751Y-96667310D01*
X128836751Y-94747310D02*
X126151751Y-94747310D01*
G04 #@! TO.C,U1*
X114663000Y-90738000D02*
X114663000Y-90988000D01*
X114663000Y-93708000D02*
X114663000Y-93958000D01*
X114663000Y-93958000D02*
X114913000Y-93958000D01*
X114913000Y-90738000D02*
X114663000Y-90738000D01*
X117633000Y-93958000D02*
X117883000Y-93958000D01*
X117883000Y-90738000D02*
X117633000Y-90738000D01*
X117883000Y-90988000D02*
X117883000Y-90738000D01*
X117883000Y-93958000D02*
X117883000Y-93708000D01*
X118413000Y-91348000D02*
X118743000Y-91588000D01*
X118743000Y-91108000D01*
X118413000Y-91348000D01*
G36*
X118743000Y-91588000D02*
G01*
X118413000Y-91348000D01*
X118743000Y-91108000D01*
X118743000Y-91588000D01*
G37*
G04 #@! TO.C,C2*
X118144764Y-87649400D02*
X118360436Y-87649400D01*
X118144764Y-88369400D02*
X118360436Y-88369400D01*
G04 #@! TO.C,C3*
X118142164Y-88640000D02*
X118357836Y-88640000D01*
X118142164Y-89360000D02*
X118357836Y-89360000D01*
G04 #@! TO.C,R5*
X95099200Y-87070836D02*
X95099200Y-87524964D01*
X96569200Y-87070836D02*
X96569200Y-87524964D01*
G04 #@! TO.C,D6*
X87377000Y-94213400D02*
X87377000Y-88703400D01*
X90677000Y-94213400D02*
X87377000Y-94213400D01*
X90677000Y-94213400D02*
X90677000Y-88703400D01*
G04 #@! TO.C,C20*
X112892164Y-95640000D02*
X113107836Y-95640000D01*
X112892164Y-96360000D02*
X113107836Y-96360000D01*
G04 #@! TD*
%LPC*%
D17*
G04 #@! TO.C,J2*
X105503200Y-98258200D03*
X105503200Y-91258200D03*
G04 #@! TD*
D18*
G04 #@! TO.C,J3*
X115570000Y-81915000D03*
D17*
X118110000Y-81915000D03*
X120650000Y-81915000D03*
X123190000Y-81915000D03*
X125730000Y-81915000D03*
X128270000Y-81915000D03*
X130810000Y-81915000D03*
G04 #@! TD*
D18*
G04 #@! TO.C,J6*
X101500153Y-81924935D03*
D17*
X104040153Y-81924935D03*
X106580153Y-81924935D03*
X109120153Y-81924935D03*
G04 #@! TD*
D18*
G04 #@! TO.C,J4*
X115570000Y-99491800D03*
D17*
X118110000Y-99491800D03*
X120650000Y-99491800D03*
X123190000Y-99491800D03*
X125730000Y-99491800D03*
X128270000Y-99491800D03*
X130810000Y-99491800D03*
G04 #@! TD*
D18*
G04 #@! TO.C,J5*
X127655400Y-85217000D03*
D17*
X130195400Y-85217000D03*
G04 #@! TD*
D19*
G04 #@! TO.C,C19*
X110805869Y-86581258D03*
X118305869Y-86581258D03*
G04 #@! TD*
G04 #@! TO.C,J1*
X86106000Y-90779600D03*
X82931000Y-96494600D03*
X82931000Y-85064600D03*
D20*
X94996000Y-97764600D03*
X95631000Y-83794600D03*
D21*
X100076000Y-90779600D03*
D22*
X83566000Y-99034600D03*
D21*
X99441000Y-87922100D03*
X99441000Y-93637100D03*
D23*
X92456000Y-95224600D03*
X92456000Y-86334600D03*
G04 #@! TD*
D24*
G04 #@! TO.C,F1*
X102819200Y-98018600D03*
X98544200Y-98018600D03*
G04 #@! TD*
D25*
G04 #@! TO.C,OK1*
X107518882Y-84138698D03*
X107518882Y-85408698D03*
X101143882Y-85408698D03*
X101143882Y-84138698D03*
G04 #@! TD*
D26*
G04 #@! TO.C,C9*
X123980000Y-86000000D03*
X123020000Y-86000000D03*
G04 #@! TD*
D27*
G04 #@! TO.C,D2*
X110837500Y-93350000D03*
X110837500Y-94000000D03*
X110837500Y-94650000D03*
X109162500Y-94650000D03*
X109162500Y-93350000D03*
G04 #@! TD*
D26*
G04 #@! TO.C,C8*
X121480000Y-96500000D03*
X120520000Y-96500000D03*
G04 #@! TD*
D28*
G04 #@! TO.C,R12*
X109621011Y-91389200D03*
X108601011Y-91389200D03*
G04 #@! TD*
G04 #@! TO.C,R3*
X124010000Y-95000000D03*
X122990000Y-95000000D03*
G04 #@! TD*
D29*
G04 #@! TO.C,R4*
X122990000Y-96500000D03*
X124010000Y-96500000D03*
G04 #@! TD*
D30*
G04 #@! TO.C,C7*
X120520000Y-95000000D03*
X121480000Y-95000000D03*
G04 #@! TD*
G04 #@! TO.C,C5*
X118020000Y-96500000D03*
X118980000Y-96500000D03*
G04 #@! TD*
D31*
G04 #@! TO.C,R6*
X90398600Y-82092800D03*
X90398600Y-83917800D03*
G04 #@! TD*
D32*
G04 #@! TO.C,D7*
X114068413Y-90244476D03*
X114068413Y-86944476D03*
G04 #@! TD*
D30*
G04 #@! TO.C,C1*
X119270000Y-84750000D03*
X120230000Y-84750000D03*
G04 #@! TD*
D29*
G04 #@! TO.C,R7*
X115990000Y-96000000D03*
X117010000Y-96000000D03*
G04 #@! TD*
D28*
G04 #@! TO.C,R1*
X131010000Y-97561400D03*
X129990000Y-97561400D03*
G04 #@! TD*
D29*
G04 #@! TO.C,R2*
X129990000Y-96500000D03*
X131010000Y-96500000D03*
G04 #@! TD*
D30*
G04 #@! TO.C,C13*
X110520000Y-96000000D03*
X111480000Y-96000000D03*
G04 #@! TD*
D33*
G04 #@! TO.C,C17*
X88000000Y-83950000D03*
X88000000Y-82050000D03*
G04 #@! TD*
D34*
G04 #@! TO.C,C18*
X115543413Y-85194476D03*
X112593413Y-85194476D03*
G04 #@! TD*
D35*
G04 #@! TO.C,FB1*
X121787500Y-86000000D03*
X120212500Y-86000000D03*
G04 #@! TD*
D33*
G04 #@! TO.C,C11*
X92659200Y-83307000D03*
X92659200Y-81407000D03*
G04 #@! TD*
D36*
G04 #@! TO.C,SW1*
X125349000Y-90779600D03*
D19*
X127889000Y-90779600D03*
D36*
X130429000Y-90779600D03*
G04 #@! TD*
D37*
G04 #@! TO.C,C12*
X107000000Y-96480000D03*
X107000000Y-95520000D03*
G04 #@! TD*
D38*
G04 #@! TO.C,C6*
X120050000Y-88000000D03*
X121950000Y-88000000D03*
G04 #@! TD*
D30*
G04 #@! TO.C,C4*
X118020000Y-95000000D03*
X118980000Y-95000000D03*
G04 #@! TD*
D39*
G04 #@! TO.C,Q1*
X96771700Y-89753400D03*
X96771700Y-91653400D03*
X94896700Y-90703400D03*
G04 #@! TD*
D40*
G04 #@! TO.C,C10*
X95834200Y-93192600D03*
X95834200Y-95092600D03*
G04 #@! TD*
D41*
G04 #@! TO.C,D8*
X126899251Y-95707310D03*
X128774251Y-95707310D03*
G04 #@! TD*
D42*
G04 #@! TO.C,U1*
X117773000Y-91473000D03*
D43*
X117773000Y-91823000D03*
X117773000Y-92173000D03*
X117773000Y-92523000D03*
X117773000Y-92873000D03*
D44*
X117773000Y-93223000D03*
D45*
X117148000Y-93848000D03*
D46*
X116798000Y-93848000D03*
X116448000Y-93848000D03*
X116098000Y-93848000D03*
X115748000Y-93848000D03*
D47*
X115398000Y-93848000D03*
D48*
X114773000Y-93223000D03*
D43*
X114773000Y-92873000D03*
X114773000Y-92523000D03*
X114773000Y-92173000D03*
X114773000Y-91823000D03*
D49*
X114773000Y-91473000D03*
D50*
X115398000Y-90848000D03*
D46*
X115748000Y-90848000D03*
X116098000Y-90848000D03*
X116448000Y-90848000D03*
X116798000Y-90848000D03*
D51*
X117148000Y-90848000D03*
D18*
X116273000Y-92348000D03*
G04 #@! TD*
D30*
G04 #@! TO.C,C2*
X117772600Y-88009400D03*
X118732600Y-88009400D03*
G04 #@! TD*
G04 #@! TO.C,C3*
X117770000Y-89000000D03*
X118730000Y-89000000D03*
G04 #@! TD*
D31*
G04 #@! TO.C,R5*
X95834200Y-86385400D03*
X95834200Y-88210400D03*
G04 #@! TD*
D52*
G04 #@! TO.C,D6*
X89027000Y-92703400D03*
X89027000Y-88703400D03*
G04 #@! TD*
D30*
G04 #@! TO.C,C20*
X112520000Y-96000000D03*
X113480000Y-96000000D03*
G04 #@! TD*
%LPD*%
M02*
