G04 #@! TF.GenerationSoftware,KiCad,Pcbnew,10.0.3*
G04 #@! TF.CreationDate,2026-07-15T23:09:27-07:00*
G04 #@! TF.ProjectId,scramble_hat,73637261-6d62-46c6-955f-6861742e6b69,rev?*
G04 #@! TF.SameCoordinates,Original*
G04 #@! TF.FileFunction,Copper,L4,Bot*
G04 #@! TF.FilePolarity,Positive*
%FSLAX46Y46*%
G04 Gerber Fmt 4.6, Leading zero omitted, Abs format (unit mm)*
G04 Created by KiCad (PCBNEW 10.0.3) date 2026-07-15 23:09:27*
%MOMM*%
%LPD*%
G01*
G04 APERTURE LIST*
G04 Aperture macros list*
%AMRoundRect*
0 Rectangle with rounded corners*
0 $1 Rounding radius*
0 $2 $3 $4 $5 $6 $7 $8 $9 X,Y pos of 4 corners*
0 Add a 4 corners polygon primitive as box body*
4,1,4,$2,$3,$4,$5,$6,$7,$8,$9,$2,$3,0*
0 Add four circle primitives for the rounded corners*
1,1,$1+$1,$2,$3*
1,1,$1+$1,$4,$5*
1,1,$1+$1,$6,$7*
1,1,$1+$1,$8,$9*
0 Add four rect primitives between the rounded corners*
20,1,$1+$1,$2,$3,$4,$5,0*
20,1,$1+$1,$4,$5,$6,$7,0*
20,1,$1+$1,$6,$7,$8,$9,0*
20,1,$1+$1,$8,$9,$2,$3,0*%
%AMFreePoly0*
4,1,14,0.363284,0.088284,0.375000,0.060000,0.375000,-0.060000,0.363284,-0.088284,0.335000,-0.100000,-0.335000,-0.100000,-0.363284,-0.088284,-0.375000,-0.060000,-0.375000,-0.036569,-0.363284,-0.008285,-0.266715,0.088284,-0.238431,0.100000,0.335000,0.100000,0.363284,0.088284,0.363284,0.088284,$1*%
%AMFreePoly1*
4,1,14,0.363284,0.088284,0.375000,0.060000,0.375000,-0.060000,0.363284,-0.088284,0.335000,-0.100000,-0.238431,-0.100000,-0.266715,-0.088284,-0.363284,0.008285,-0.375000,0.036569,-0.375000,0.060000,-0.363284,0.088284,-0.335000,0.100000,0.335000,0.100000,0.363284,0.088284,0.363284,0.088284,$1*%
%AMFreePoly2*
4,1,14,-0.008285,0.363284,0.088284,0.266715,0.100000,0.238431,0.100000,-0.335000,0.088284,-0.363284,0.060000,-0.375000,-0.060000,-0.375000,-0.088284,-0.363284,-0.100000,-0.335000,-0.100000,0.335000,-0.088284,0.363284,-0.060000,0.375000,-0.036569,0.375000,-0.008285,0.363284,-0.008285,0.363284,$1*%
%AMFreePoly3*
4,1,14,0.088284,0.363284,0.100000,0.335000,0.100000,-0.335000,0.088284,-0.363284,0.060000,-0.375000,-0.060000,-0.375000,-0.088284,-0.363284,-0.100000,-0.335000,-0.100000,0.238431,-0.088284,0.266715,0.008285,0.363284,0.036569,0.375000,0.060000,0.375000,0.088284,0.363284,0.088284,0.363284,$1*%
%AMFreePoly4*
4,1,14,0.363284,0.088284,0.375000,0.060000,0.375000,0.036569,0.363284,0.008285,0.266715,-0.088284,0.238431,-0.100000,-0.335000,-0.100000,-0.363284,-0.088284,-0.375000,-0.060000,-0.375000,0.060000,-0.363284,0.088284,-0.335000,0.100000,0.335000,0.100000,0.363284,0.088284,0.363284,0.088284,$1*%
%AMFreePoly5*
4,1,14,0.266715,0.088284,0.363284,-0.008285,0.375000,-0.036569,0.375000,-0.060000,0.363284,-0.088284,0.335000,-0.100000,-0.335000,-0.100000,-0.363284,-0.088284,-0.375000,-0.060000,-0.375000,0.060000,-0.363284,0.088284,-0.335000,0.100000,0.238431,0.100000,0.266715,0.088284,0.266715,0.088284,$1*%
%AMFreePoly6*
4,1,14,0.088284,0.363284,0.100000,0.335000,0.100000,-0.335000,0.088284,-0.363284,0.060000,-0.375000,0.036569,-0.375000,0.008285,-0.363284,-0.088284,-0.266715,-0.100000,-0.238431,-0.100000,0.335000,-0.088284,0.363284,-0.060000,0.375000,0.060000,0.375000,0.088284,0.363284,0.088284,0.363284,$1*%
%AMFreePoly7*
4,1,14,0.088284,0.363284,0.100000,0.335000,0.100000,-0.238431,0.088284,-0.266715,-0.008285,-0.363284,-0.036569,-0.375000,-0.060000,-0.375000,-0.088284,-0.363284,-0.100000,-0.335000,-0.100000,0.335000,-0.088284,0.363284,-0.060000,0.375000,0.060000,0.375000,0.088284,0.363284,0.088284,0.363284,$1*%
G04 Aperture macros list end*
G04 #@! TA.AperFunction,ComponentPad*
%ADD10R,1.700000X1.700000*%
G04 #@! TD*
G04 #@! TA.AperFunction,ComponentPad*
%ADD11C,1.700000*%
G04 #@! TD*
G04 #@! TA.AperFunction,ComponentPad*
%ADD12C,1.600000*%
G04 #@! TD*
G04 #@! TA.AperFunction,ComponentPad*
%ADD13C,2.900000*%
G04 #@! TD*
G04 #@! TA.AperFunction,ComponentPad*
%ADD14C,2.700000*%
G04 #@! TD*
G04 #@! TA.AperFunction,ComponentPad*
%ADD15C,3.200000*%
G04 #@! TD*
G04 #@! TA.AperFunction,ComponentPad*
%ADD16C,3.400000*%
G04 #@! TD*
G04 #@! TA.AperFunction,SMDPad,CuDef*
%ADD17RoundRect,0.250000X0.312500X1.450000X-0.312500X1.450000X-0.312500X-1.450000X0.312500X-1.450000X0*%
G04 #@! TD*
G04 #@! TA.AperFunction,SMDPad,CuDef*
%ADD18RoundRect,0.150000X-0.662500X-0.150000X0.662500X-0.150000X0.662500X0.150000X-0.662500X0.150000X0*%
G04 #@! TD*
G04 #@! TA.AperFunction,SMDPad,CuDef*
%ADD19RoundRect,0.140000X0.140000X0.170000X-0.140000X0.170000X-0.140000X-0.170000X0.140000X-0.170000X0*%
G04 #@! TD*
G04 #@! TA.AperFunction,SMDPad,CuDef*
%ADD20RoundRect,0.087500X-0.425000X-0.087500X0.425000X-0.087500X0.425000X0.087500X-0.425000X0.087500X0*%
G04 #@! TD*
G04 #@! TA.AperFunction,SMDPad,CuDef*
%ADD21RoundRect,0.135000X0.135000X0.185000X-0.135000X0.185000X-0.135000X-0.185000X0.135000X-0.185000X0*%
G04 #@! TD*
G04 #@! TA.AperFunction,SMDPad,CuDef*
%ADD22RoundRect,0.135000X-0.135000X-0.185000X0.135000X-0.185000X0.135000X0.185000X-0.135000X0.185000X0*%
G04 #@! TD*
G04 #@! TA.AperFunction,SMDPad,CuDef*
%ADD23RoundRect,0.140000X-0.140000X-0.170000X0.140000X-0.170000X0.140000X0.170000X-0.140000X0.170000X0*%
G04 #@! TD*
G04 #@! TA.AperFunction,SMDPad,CuDef*
%ADD24RoundRect,0.250000X-0.450000X0.262500X-0.450000X-0.262500X0.450000X-0.262500X0.450000X0.262500X0*%
G04 #@! TD*
G04 #@! TA.AperFunction,SMDPad,CuDef*
%ADD25RoundRect,0.225000X-0.375000X0.225000X-0.375000X-0.225000X0.375000X-0.225000X0.375000X0.225000X0*%
G04 #@! TD*
G04 #@! TA.AperFunction,SMDPad,CuDef*
%ADD26RoundRect,0.250000X0.475000X-0.250000X0.475000X0.250000X-0.475000X0.250000X-0.475000X-0.250000X0*%
G04 #@! TD*
G04 #@! TA.AperFunction,SMDPad,CuDef*
%ADD27RoundRect,0.250000X0.325000X0.650000X-0.325000X0.650000X-0.325000X-0.650000X0.325000X-0.650000X0*%
G04 #@! TD*
G04 #@! TA.AperFunction,SMDPad,CuDef*
%ADD28RoundRect,0.218750X0.218750X0.256250X-0.218750X0.256250X-0.218750X-0.256250X0.218750X-0.256250X0*%
G04 #@! TD*
G04 #@! TA.AperFunction,SMDPad,CuDef*
%ADD29RoundRect,0.140000X0.170000X-0.140000X0.170000X0.140000X-0.170000X0.140000X-0.170000X-0.140000X0*%
G04 #@! TD*
G04 #@! TA.AperFunction,SMDPad,CuDef*
%ADD30RoundRect,0.250000X-0.250000X-0.475000X0.250000X-0.475000X0.250000X0.475000X-0.250000X0.475000X0*%
G04 #@! TD*
G04 #@! TA.AperFunction,ComponentPad*
%ADD31O,1.600000X1.600000*%
G04 #@! TD*
G04 #@! TA.AperFunction,SMDPad,CuDef*
%ADD32RoundRect,0.150000X-0.587500X-0.150000X0.587500X-0.150000X0.587500X0.150000X-0.587500X0.150000X0*%
G04 #@! TD*
G04 #@! TA.AperFunction,SMDPad,CuDef*
%ADD33RoundRect,0.250000X-0.475000X0.250000X-0.475000X-0.250000X0.475000X-0.250000X0.475000X0.250000X0*%
G04 #@! TD*
G04 #@! TA.AperFunction,SMDPad,CuDef*
%ADD34RoundRect,0.243750X0.243750X0.456250X-0.243750X0.456250X-0.243750X-0.456250X0.243750X-0.456250X0*%
G04 #@! TD*
G04 #@! TA.AperFunction,SMDPad,CuDef*
%ADD35FreePoly0,0.000000*%
G04 #@! TD*
G04 #@! TA.AperFunction,SMDPad,CuDef*
%ADD36RoundRect,0.050000X-0.325000X-0.050000X0.325000X-0.050000X0.325000X0.050000X-0.325000X0.050000X0*%
G04 #@! TD*
G04 #@! TA.AperFunction,SMDPad,CuDef*
%ADD37FreePoly1,0.000000*%
G04 #@! TD*
G04 #@! TA.AperFunction,SMDPad,CuDef*
%ADD38FreePoly2,0.000000*%
G04 #@! TD*
G04 #@! TA.AperFunction,SMDPad,CuDef*
%ADD39RoundRect,0.050000X-0.050000X-0.325000X0.050000X-0.325000X0.050000X0.325000X-0.050000X0.325000X0*%
G04 #@! TD*
G04 #@! TA.AperFunction,SMDPad,CuDef*
%ADD40FreePoly3,0.000000*%
G04 #@! TD*
G04 #@! TA.AperFunction,SMDPad,CuDef*
%ADD41FreePoly4,0.000000*%
G04 #@! TD*
G04 #@! TA.AperFunction,SMDPad,CuDef*
%ADD42FreePoly5,0.000000*%
G04 #@! TD*
G04 #@! TA.AperFunction,SMDPad,CuDef*
%ADD43FreePoly6,0.000000*%
G04 #@! TD*
G04 #@! TA.AperFunction,SMDPad,CuDef*
%ADD44FreePoly7,0.000000*%
G04 #@! TD*
G04 #@! TA.AperFunction,HeatsinkPad*
%ADD45R,1.700000X1.700000*%
G04 #@! TD*
G04 #@! TA.AperFunction,SMDPad,CuDef*
%ADD46RoundRect,0.250000X1.000000X0.650000X-1.000000X0.650000X-1.000000X-0.650000X1.000000X-0.650000X0*%
G04 #@! TD*
G04 #@! TA.AperFunction,ViaPad*
%ADD47C,0.600000*%
G04 #@! TD*
G04 #@! TA.AperFunction,Conductor*
%ADD48C,0.200000*%
G04 #@! TD*
G04 APERTURE END LIST*
D10*
G04 #@! TO.P,J3,1,Pin_1_1*
G04 #@! TO.N,ASDOUT*
X115570000Y-81915000D03*
D11*
G04 #@! TO.P,J3,2,Pin_2_2*
G04 #@! TO.N,LRCK*
X118110000Y-81915000D03*
G04 #@! TO.P,J3,3,Pin_3_3*
G04 #@! TO.N,AGND*
X120650000Y-81915000D03*
G04 #@! TO.P,J3,4,Pin_4_4*
G04 #@! TO.N,DSDIN*
X123190000Y-81915000D03*
G04 #@! TO.P,J3,5,Pin_5_5*
G04 #@! TO.N,BCLK*
X125730000Y-81915000D03*
G04 #@! TO.P,J3,6,Pin_6_6*
G04 #@! TO.N,MCLK*
X128270000Y-81915000D03*
G04 #@! TO.P,J3,7,Pin_7_7*
G04 #@! TO.N,PHANTOM_EN*
X130810000Y-81915000D03*
G04 #@! TD*
D10*
G04 #@! TO.P,J6,1,Pin_1_1*
G04 #@! TO.N,AGND*
X101500153Y-81924935D03*
D11*
G04 #@! TO.P,J6,2,Pin_2_2*
G04 #@! TO.N,+3V3*
X104040153Y-81924935D03*
G04 #@! TO.P,J6,3,Pin_3_3*
G04 #@! TO.N,SCL*
X106580153Y-81924935D03*
G04 #@! TO.P,J6,4,Pin_4_4*
G04 #@! TO.N,SDA*
X109120153Y-81924935D03*
G04 #@! TD*
D10*
G04 #@! TO.P,J4,1,Pin_1_1*
G04 #@! TO.N,+5V*
X115570000Y-99491800D03*
D11*
G04 #@! TO.P,J4,2,Pin_2_2*
G04 #@! TO.N,unconnected-(J4-Pin_2-Pad2)*
X118110000Y-99491800D03*
G04 #@! TO.P,J4,3,Pin_3_3*
G04 #@! TO.N,AGND*
X120650000Y-99491800D03*
G04 #@! TO.P,J4,4,Pin_4_4*
G04 #@! TO.N,unconnected-(J4-Pin_4-Pad4)*
X123190000Y-99491800D03*
G04 #@! TO.P,J4,5,Pin_5_5*
G04 #@! TO.N,+3V3*
X125730000Y-99491800D03*
G04 #@! TO.P,J4,6,Pin_6_6*
G04 #@! TO.N,SCL*
X128270000Y-99491800D03*
G04 #@! TO.P,J4,7,Pin_7_7*
G04 #@! TO.N,SDA*
X130810000Y-99491800D03*
G04 #@! TD*
D10*
G04 #@! TO.P,J5,1,Pin_1_1*
G04 #@! TO.N,TAP_HV*
X127655400Y-85217000D03*
D11*
G04 #@! TO.P,J5,2,Pin_2_2*
G04 #@! TO.N,TAP_GND*
X130195400Y-85217000D03*
G04 #@! TD*
D12*
G04 #@! TO.P,C19,1*
G04 #@! TO.N,PGND*
X110805869Y-86581258D03*
G04 #@! TO.P,C19,2*
G04 #@! TO.N,AGND*
X118305869Y-86581258D03*
G04 #@! TD*
D13*
G04 #@! TO.P,J1,1,XLR_1_1*
G04 #@! TO.N,PGND*
X94996000Y-97764600D03*
G04 #@! TO.P,J1,2,XLR_2_2*
G04 #@! TO.N,XLR2_HOT*
X95631000Y-83794600D03*
D14*
G04 #@! TO.P,J1,3,XLR_3_3*
G04 #@! TO.N,XLR3_COLD*
X100076000Y-90779600D03*
D15*
G04 #@! TO.P,J1,G,JACK_G_G*
G04 #@! TO.N,PGND*
X83566000Y-99034600D03*
D14*
G04 #@! TO.P,J1,R,JACK_R_R*
G04 #@! TO.N,unconnected-(J1-JACK_R-PadR)*
X99441000Y-87922100D03*
G04 #@! TO.P,J1,S,JACK_S_S*
G04 #@! TO.N,PGND*
X99441000Y-93637100D03*
D16*
G04 #@! TO.P,J1,T,JACK_T_T*
G04 #@! TO.N,unconnected-(J1-JACK_T-PadT)*
X92456000Y-95224600D03*
X92456000Y-86334600D03*
G04 #@! TD*
D17*
G04 #@! TO.P,F1,1*
G04 #@! TO.N,V_PoE*
X102819200Y-98018600D03*
G04 #@! TO.P,F1,2*
G04 #@! TO.N,V_FILT*
X98544200Y-98018600D03*
G04 #@! TD*
D18*
G04 #@! TO.P,OK1,1,A_1*
G04 #@! TO.N,OK1_LED_A*
X107518882Y-84138698D03*
G04 #@! TO.P,OK1,2,K_2*
G04 #@! TO.N,AGND*
X107518882Y-85408698D03*
G04 #@! TO.P,OK1,3,E_3*
G04 #@! TO.N,PGND*
X101143882Y-85408698D03*
G04 #@! TO.P,OK1,4,C_4*
G04 #@! TO.N,OK1_COLLECTOR*
X101143882Y-84138698D03*
G04 #@! TD*
D19*
G04 #@! TO.P,C9,1*
G04 #@! TO.N,DACVREF*
X123980000Y-86000000D03*
G04 #@! TO.P,C9,2*
G04 #@! TO.N,AGND*
X123020000Y-86000000D03*
G04 #@! TD*
D20*
G04 #@! TO.P,D2,1,K_1*
G04 #@! TO.N,MIC1P*
X110837500Y-93350000D03*
G04 #@! TO.P,D2,2,A_2*
G04 #@! TO.N,AGND*
X110837500Y-94000000D03*
G04 #@! TO.P,D2,3*
G04 #@! TO.N,N/C*
X110837500Y-94650000D03*
G04 #@! TO.P,D2,4*
X109162500Y-94650000D03*
G04 #@! TO.P,D2,5*
X109162500Y-93350000D03*
G04 #@! TD*
D19*
G04 #@! TO.P,C8,1*
G04 #@! TO.N,ADCVREF*
X121480000Y-96500000D03*
G04 #@! TO.P,C8,2*
G04 #@! TO.N,AGND*
X120520000Y-96500000D03*
G04 #@! TD*
D21*
G04 #@! TO.P,R12,1*
G04 #@! TO.N,PHANTOM_SW*
X109621011Y-91389200D03*
G04 #@! TO.P,R12,2*
G04 #@! TO.N,OK1_LED_A*
X108601011Y-91389200D03*
G04 #@! TD*
G04 #@! TO.P,R3,1*
G04 #@! TO.N,AD0*
X124010000Y-95000000D03*
G04 #@! TO.P,R3,2*
G04 #@! TO.N,AGND*
X122990000Y-95000000D03*
G04 #@! TD*
D22*
G04 #@! TO.P,R4,1*
G04 #@! TO.N,ASDOUT*
X122990000Y-96500000D03*
G04 #@! TO.P,R4,2*
G04 #@! TO.N,AGND*
X124010000Y-96500000D03*
G04 #@! TD*
D23*
G04 #@! TO.P,C7,1*
G04 #@! TO.N,VMID*
X120520000Y-95000000D03*
G04 #@! TO.P,C7,2*
G04 #@! TO.N,AGND*
X121480000Y-95000000D03*
G04 #@! TD*
G04 #@! TO.P,C5,1*
G04 #@! TO.N,+3V3*
X118020000Y-96500000D03*
G04 #@! TO.P,C5,2*
G04 #@! TO.N,AGND*
X118980000Y-96500000D03*
G04 #@! TD*
D24*
G04 #@! TO.P,R6,1*
G04 #@! TO.N,V_PHANTOM*
X90398600Y-82092800D03*
G04 #@! TO.P,R6,2*
G04 #@! TO.N,XLR3_COLD*
X90398600Y-83917800D03*
G04 #@! TD*
D25*
G04 #@! TO.P,D7,1,K_1*
G04 #@! TO.N,V_FILT*
X113872657Y-90141539D03*
G04 #@! TO.P,D7,2,A_2*
G04 #@! TO.N,Q1_GATE*
X113872657Y-86841539D03*
G04 #@! TD*
D23*
G04 #@! TO.P,C1,1*
G04 #@! TO.N,+3V3*
X119270000Y-84750000D03*
G04 #@! TO.P,C1,2*
G04 #@! TO.N,AGND*
X120230000Y-84750000D03*
G04 #@! TD*
D22*
G04 #@! TO.P,R7,1*
G04 #@! TO.N,AVDD*
X115990000Y-96000000D03*
G04 #@! TO.P,R7,2*
G04 #@! TO.N,MIC2_RAW*
X117010000Y-96000000D03*
G04 #@! TD*
D21*
G04 #@! TO.P,R1,1*
G04 #@! TO.N,SDA*
X131010000Y-97561400D03*
G04 #@! TO.P,R1,2*
G04 #@! TO.N,+3V3*
X129990000Y-97561400D03*
G04 #@! TD*
D22*
G04 #@! TO.P,R2,1*
G04 #@! TO.N,SCL*
X129990000Y-96500000D03*
G04 #@! TO.P,R2,2*
G04 #@! TO.N,+3V3*
X131010000Y-96500000D03*
G04 #@! TD*
D23*
G04 #@! TO.P,C13,1*
G04 #@! TO.N,MIC2_RAW*
X110520000Y-96000000D03*
G04 #@! TO.P,C13,2*
G04 #@! TO.N,AGND*
X111480000Y-96000000D03*
G04 #@! TD*
D26*
G04 #@! TO.P,C17,1*
G04 #@! TO.N,V_FILT*
X88000000Y-83950000D03*
G04 #@! TO.P,C17,2*
G04 #@! TO.N,PGND*
X88000000Y-82050000D03*
G04 #@! TD*
D27*
G04 #@! TO.P,C18,1*
G04 #@! TO.N,Q1_GATE*
X115543413Y-85194476D03*
G04 #@! TO.P,C18,2*
G04 #@! TO.N,V_FILT*
X112593413Y-85194476D03*
G04 #@! TD*
D28*
G04 #@! TO.P,FB1,1*
G04 #@! TO.N,+3V3_A*
X121787500Y-86000000D03*
G04 #@! TO.P,FB1,2*
G04 #@! TO.N,AVDD*
X120212500Y-86000000D03*
G04 #@! TD*
D26*
G04 #@! TO.P,C11,1*
G04 #@! TO.N,XLR3_COLD*
X92659200Y-83307000D03*
G04 #@! TO.P,C11,2*
G04 #@! TO.N,MIC1N*
X92659200Y-81407000D03*
G04 #@! TD*
D29*
G04 #@! TO.P,C12,1*
G04 #@! TO.N,MIC2_RAW*
X107000000Y-96480000D03*
G04 #@! TO.P,C12,2*
G04 #@! TO.N,MIC2P*
X107000000Y-95520000D03*
G04 #@! TD*
D30*
G04 #@! TO.P,C6,1*
G04 #@! TO.N,AVDD*
X120050000Y-87750000D03*
G04 #@! TO.P,C6,2*
G04 #@! TO.N,AGND*
X121950000Y-87750000D03*
G04 #@! TD*
D31*
G04 #@! TO.P,SW1,1,A_1*
G04 #@! TO.N,+3V3*
X125305993Y-90746504D03*
D12*
G04 #@! TO.P,SW1,2,B_2*
G04 #@! TO.N,PHANTOM_SW*
X127845993Y-90746504D03*
D31*
G04 #@! TO.P,SW1,3,C_3*
G04 #@! TO.N,AGND*
X130385993Y-90746504D03*
G04 #@! TD*
D23*
G04 #@! TO.P,C4,1*
G04 #@! TO.N,+3V3*
X118020000Y-95000000D03*
G04 #@! TO.P,C4,2*
G04 #@! TO.N,AGND*
X118980000Y-95000000D03*
G04 #@! TD*
D32*
G04 #@! TO.P,Q1,1,G_1*
G04 #@! TO.N,Q1_GATE*
X96771700Y-89753400D03*
G04 #@! TO.P,Q1,2,S_2*
G04 #@! TO.N,V_FILT*
X96771700Y-91653400D03*
G04 #@! TO.P,Q1,3,D_3*
G04 #@! TO.N,V_PHANTOM*
X94896700Y-90703400D03*
G04 #@! TD*
D33*
G04 #@! TO.P,C10,1*
G04 #@! TO.N,XLR2_HOT*
X95834200Y-93192600D03*
G04 #@! TO.P,C10,2*
G04 #@! TO.N,MIC1P*
X95834200Y-95092600D03*
G04 #@! TD*
D34*
G04 #@! TO.P,D8,1,K_1*
G04 #@! TO.N,PGND*
X126899251Y-95707310D03*
G04 #@! TO.P,D8,2,A_2*
G04 #@! TO.N,PHANTOM_LED*
X128774251Y-95707310D03*
G04 #@! TD*
D35*
G04 #@! TO.P,U1,1,AD0_1*
G04 #@! TO.N,AD0*
X117773000Y-91473000D03*
D36*
G04 #@! TO.P,U1,2,CDATA_2*
G04 #@! TO.N,SDA*
X117773000Y-91823000D03*
G04 #@! TO.P,U1,3,CCLK_3*
G04 #@! TO.N,SCL*
X117773000Y-92173000D03*
G04 #@! TO.P,U1,4,MCLK/TDMIN_4*
G04 #@! TO.N,MCLK*
X117773000Y-92523000D03*
G04 #@! TO.P,U1,5,DVDD_5*
G04 #@! TO.N,+3V3*
X117773000Y-92873000D03*
D37*
G04 #@! TO.P,U1,6,PVDD_6*
X117773000Y-93223000D03*
D38*
G04 #@! TO.P,U1,7,DGND_7*
G04 #@! TO.N,AGND*
X117148000Y-93848000D03*
D39*
G04 #@! TO.P,U1,8,SCLK_8*
G04 #@! TO.N,BCLK*
X116798000Y-93848000D03*
G04 #@! TO.P,U1,9,DSDIN_9*
G04 #@! TO.N,DSDIN*
X116448000Y-93848000D03*
G04 #@! TO.P,U1,10,LRCK_10*
G04 #@! TO.N,LRCK*
X116098000Y-93848000D03*
G04 #@! TO.P,U1,11,ASDOUT/AD1_11*
G04 #@! TO.N,ASDOUT*
X115748000Y-93848000D03*
D40*
G04 #@! TO.P,U1,12,ROUTP_12*
G04 #@! TO.N,ROUTP*
X115398000Y-93848000D03*
D41*
G04 #@! TO.P,U1,13,ROUTN_13*
G04 #@! TO.N,ROUTN*
X114773000Y-93223000D03*
D36*
G04 #@! TO.P,U1,14,DACVREF_14*
G04 #@! TO.N,DACVREF*
X114773000Y-92873000D03*
G04 #@! TO.P,U1,15,LOUTN_15*
G04 #@! TO.N,LOUTN*
X114773000Y-92523000D03*
G04 #@! TO.P,U1,16,LOUTP_16*
G04 #@! TO.N,LOUTP*
X114773000Y-92173000D03*
G04 #@! TO.P,U1,17,AVDD_17*
G04 #@! TO.N,AVDD*
X114773000Y-91823000D03*
D42*
G04 #@! TO.P,U1,18,AGND_18*
G04 #@! TO.N,AGND*
X114773000Y-91473000D03*
D43*
G04 #@! TO.P,U1,19,VMID_19*
G04 #@! TO.N,VMID*
X115398000Y-90848000D03*
D39*
G04 #@! TO.P,U1,20,ADCVREF_20*
G04 #@! TO.N,ADCVREF*
X115748000Y-90848000D03*
G04 #@! TO.P,U1,21,MIC2N_21*
G04 #@! TO.N,MIC2N*
X116098000Y-90848000D03*
G04 #@! TO.P,U1,22,MIC2P_22*
G04 #@! TO.N,MIC2P*
X116448000Y-90848000D03*
G04 #@! TO.P,U1,23,MIC1N_23*
G04 #@! TO.N,MIC1N*
X116798000Y-90848000D03*
D44*
G04 #@! TO.P,U1,24,MIC1P_24*
G04 #@! TO.N,MIC1P*
X117148000Y-90848000D03*
D45*
G04 #@! TO.P,U1,25,PGND_25*
G04 #@! TO.N,AGND*
X116273000Y-92348000D03*
G04 #@! TD*
D23*
G04 #@! TO.P,C2,1*
G04 #@! TO.N,+3V3*
X117994101Y-88004304D03*
G04 #@! TO.P,C2,2*
G04 #@! TO.N,AGND*
X118954101Y-88004304D03*
G04 #@! TD*
D19*
G04 #@! TO.P,C3,1*
G04 #@! TO.N,+3V3*
X117291130Y-87661423D03*
G04 #@! TO.P,C3,2*
G04 #@! TO.N,AGND*
X116331130Y-87661423D03*
G04 #@! TD*
D24*
G04 #@! TO.P,R5,1*
G04 #@! TO.N,V_PHANTOM*
X95834200Y-86385400D03*
G04 #@! TO.P,R5,2*
G04 #@! TO.N,XLR2_HOT*
X95834200Y-88210400D03*
G04 #@! TD*
D46*
G04 #@! TO.P,D6,1,K_1*
G04 #@! TO.N,V_FILT*
X89027000Y-92703400D03*
G04 #@! TO.P,D6,2,A_2*
G04 #@! TO.N,PGND*
X89027000Y-88703400D03*
G04 #@! TD*
D23*
G04 #@! TO.P,C20,1*
G04 #@! TO.N,MIC2N*
X112520000Y-96000000D03*
G04 #@! TO.P,C20,2*
G04 #@! TO.N,AGND*
X113480000Y-96000000D03*
G04 #@! TD*
D47*
G04 #@! TO.N,MIC1N*
X112726458Y-89870701D03*
X106136078Y-84208198D03*
X117004328Y-89806278D03*
G04 #@! TO.N,AGND*
X118106221Y-93880406D03*
X121522400Y-95500000D03*
X116586397Y-87286397D03*
X122845330Y-85966459D03*
X124750000Y-85815867D03*
X118516985Y-88733015D03*
X115700000Y-92300000D03*
X114922657Y-86878440D03*
X127000000Y-82800000D03*
X113800800Y-96672400D03*
X107288128Y-85442625D03*
X123379147Y-95785454D03*
G04 #@! TO.N,PHANTOM_SW*
X112269855Y-92032939D03*
X112391756Y-93586062D03*
G04 #@! TO.N,TAP_HV*
X126086091Y-89637953D03*
G04 #@! TO.N,V_PoE*
X105600000Y-100100000D03*
G04 #@! TO.N,ROUTP*
X114044165Y-94744165D03*
G04 #@! TO.N,V_PHANTOM*
X103400000Y-90600000D03*
X112765200Y-87964039D03*
X115674839Y-86637795D03*
G04 #@! TO.N,PHANTOM_LED*
X129000000Y-95650000D03*
G04 #@! TO.N,MIC2_RAW*
X109203200Y-99358200D03*
X117271800Y-96545400D03*
G04 #@! TO.N,ASDOUT*
X114866961Y-94732113D03*
X123500000Y-97500000D03*
X114302909Y-97443200D03*
G04 #@! TO.N,LRCK*
X114805437Y-95538530D03*
X122212101Y-94084283D03*
G04 #@! TO.N,DSDIN*
X114992064Y-96576720D03*
X124798000Y-94310200D03*
G04 #@! TO.N,BCLK*
X125171200Y-93091000D03*
X117119400Y-94673000D03*
G04 #@! TO.N,MCLK*
X119060000Y-98171000D03*
X119735600Y-96229600D03*
X125550000Y-97963300D03*
G04 #@! TO.N,+5V*
X123607791Y-93670774D03*
X121000000Y-86700000D03*
X124386400Y-84861400D03*
X120960000Y-84901019D03*
G04 #@! TO.N,+3V3_A*
X122936000Y-85050000D03*
G04 #@! TO.N,+3V3*
X118900000Y-94000000D03*
X119270000Y-84750000D03*
X114200000Y-83100000D03*
X131010000Y-96500000D03*
G04 #@! TO.N,SCL*
X124730000Y-96310865D03*
X122120000Y-91650000D03*
X122942602Y-87620889D03*
X129550000Y-100250000D03*
X116800000Y-84225155D03*
X124530000Y-87583885D03*
X117900000Y-84400000D03*
X119181543Y-92322732D03*
X129200000Y-97750000D03*
G04 #@! TO.N,SDA*
X125362869Y-87800000D03*
X118700000Y-91615224D03*
X125688909Y-96400000D03*
X123271024Y-88295161D03*
X122150000Y-90850000D03*
X117900000Y-83600000D03*
X116327509Y-83450001D03*
G04 #@! TO.N,OK1_COLLECTOR*
X102903198Y-85426598D03*
G04 #@! TO.N,Q1_GATE*
X96799400Y-89789000D03*
X102446094Y-86690869D03*
G04 #@! TO.N,TAP_GND*
X127836751Y-95110000D03*
G04 #@! TO.N,PGND*
X126800000Y-93022810D03*
X88976200Y-88646000D03*
X88000000Y-82000000D03*
X100000000Y-84750000D03*
X127275000Y-89125000D03*
G04 #@! TO.N,V_FILT*
X103350000Y-83400000D03*
X98221800Y-83743800D03*
X97100000Y-86300000D03*
X97078800Y-91668600D03*
X109195010Y-87200138D03*
X100050000Y-83350000D03*
X110159800Y-84433200D03*
G04 #@! TO.N,XLR2_HOT*
X95834200Y-88108800D03*
G04 #@! TO.N,XLR3_COLD*
X92659200Y-83307000D03*
G04 #@! TO.N,LOUTP*
X113250000Y-94513400D03*
G04 #@! TO.N,OK1_LED_A*
X107950000Y-92600000D03*
X107340400Y-88341200D03*
G04 #@! TO.N,DACVREF*
X123200000Y-92500000D03*
X113841755Y-93445555D03*
G04 #@! TO.N,MIC1P*
X117789111Y-90110000D03*
X112416502Y-90596703D03*
X95834200Y-95194200D03*
X108051600Y-93980000D03*
G04 #@! TO.N,ADCVREF*
X115548647Y-89499934D03*
X118550013Y-90110000D03*
G04 #@! TO.N,AD0*
X119650000Y-89950000D03*
X123400000Y-89772183D03*
G04 #@! TO.N,VMID*
X113068350Y-92168350D03*
X119710200Y-92972800D03*
G04 #@! TO.N,MIC2P*
X108051600Y-95529400D03*
X111264092Y-88643489D03*
G04 #@! TO.N,MIC2N*
X111250000Y-92700000D03*
X112003227Y-88770701D03*
G04 #@! TD*
G04 #@! TO.N,MIC1N*
D48*
X106041802Y-84208198D02*
X105593296Y-84656704D01*
X112682215Y-89826458D02*
X107682658Y-89826458D01*
X106136078Y-84208198D02*
X106041802Y-84208198D01*
X105600460Y-87407914D02*
X105600460Y-84663868D01*
X116800000Y-90324005D02*
X116798000Y-90326005D01*
X101838700Y-87300000D02*
X102950000Y-87300000D01*
X107682658Y-89826458D02*
X106730800Y-88874600D01*
X117004328Y-89806278D02*
X116978759Y-89831847D01*
X92659200Y-81407000D02*
X97255818Y-81407000D01*
X106730800Y-88874600D02*
X106730800Y-88538254D01*
X116978759Y-89831847D02*
X116978759Y-89871241D01*
X97255818Y-81407000D02*
X99390228Y-83541410D01*
X116798000Y-90326005D02*
X116798000Y-90848000D01*
X105586132Y-84663868D02*
X105600460Y-84663868D01*
X99390228Y-85170638D02*
X100219590Y-86000000D01*
X116800000Y-90050000D02*
X116800000Y-90324005D01*
X112726458Y-89870701D02*
X112682215Y-89826458D01*
X105593296Y-84656704D02*
X105600460Y-84663868D01*
X116978759Y-89871241D02*
X116800000Y-90050000D01*
X102950000Y-87300000D02*
X105586132Y-84663868D01*
X106730800Y-88538254D02*
X105600460Y-87407914D01*
X100538700Y-86000000D02*
X101838700Y-87300000D01*
X100219590Y-86000000D02*
X100538700Y-86000000D01*
X99390228Y-83541410D02*
X99390228Y-85170638D01*
G04 #@! TO.N,AGND*
X111379725Y-87650000D02*
X110350000Y-87650000D01*
X122932645Y-85966459D02*
X122966186Y-86000000D01*
X122966186Y-86000000D02*
X123020000Y-86000000D01*
X112858400Y-96621600D02*
X112101600Y-96621600D01*
X121950000Y-87275000D02*
X121950000Y-88000000D01*
X110837500Y-94000000D02*
X110353600Y-94000000D01*
X118730000Y-87742000D02*
X118305869Y-87317869D01*
X123379147Y-95785454D02*
X123351200Y-95813401D01*
X110000000Y-94963200D02*
X110000000Y-94353600D01*
X120520000Y-96500000D02*
X120522400Y-96500000D01*
X110286800Y-95250000D02*
X110000000Y-94963200D01*
X114918413Y-87372462D02*
X114590875Y-87700000D01*
X112101600Y-96621600D02*
X111480000Y-96000000D01*
X118980000Y-96500000D02*
X118980000Y-95000000D01*
X120520000Y-96500000D02*
X120240400Y-96779600D01*
X116586397Y-87286397D02*
X116586397Y-87313603D01*
X118725187Y-88733015D02*
X118954101Y-88504101D01*
X118305869Y-87317869D02*
X118305869Y-86218669D01*
X111615686Y-87414039D02*
X111379725Y-87650000D01*
X114922657Y-86878440D02*
X114918413Y-86882684D01*
X119259600Y-96779600D02*
X118980000Y-96500000D01*
X108342625Y-85442625D02*
X107288128Y-85442625D01*
X115700000Y-92300000D02*
X115700000Y-91746106D01*
X109744800Y-86844800D02*
X108342625Y-85442625D01*
X123037600Y-95459035D02*
X123037600Y-95047600D01*
X107288128Y-85442625D02*
X107322055Y-85408698D01*
X123364019Y-95785454D02*
X123037600Y-95459035D01*
X120228563Y-84750000D02*
X118397305Y-86581258D01*
X118954101Y-88504101D02*
X118954101Y-88004304D01*
X123351201Y-95813400D02*
X123351201Y-95841201D01*
X114590875Y-87700000D02*
X113278979Y-87700000D01*
X112993018Y-87414039D02*
X111615686Y-87414039D01*
X123379147Y-95785454D02*
X123364019Y-95785454D01*
X118106221Y-93880406D02*
X118073815Y-93848000D01*
X120230000Y-84750000D02*
X120228563Y-84750000D01*
X122845330Y-86379670D02*
X121950000Y-87275000D01*
X110353600Y-94000000D02*
X110000000Y-94353600D01*
X123037600Y-95047600D02*
X122990000Y-95000000D01*
X120522400Y-96500000D02*
X121522400Y-95500000D01*
X115426894Y-91473000D02*
X114773000Y-91473000D01*
X113278979Y-87700000D02*
X112993018Y-87414039D01*
X115700000Y-91746106D02*
X115426894Y-91473000D01*
X116331130Y-87568870D02*
X116331130Y-87661423D01*
X120240400Y-96779600D02*
X119259600Y-96779600D01*
X113480000Y-96000000D02*
X112858400Y-96621600D01*
X113800800Y-96672400D02*
X113800800Y-96320800D01*
X123351201Y-95841201D02*
X124010000Y-96500000D01*
X116586397Y-87313603D02*
X116331130Y-87568870D01*
X118073815Y-93848000D02*
X117148000Y-93848000D01*
X118397305Y-86581258D02*
X118305869Y-86581258D01*
X111480000Y-96000000D02*
X110730000Y-95250000D01*
X107322055Y-85408698D02*
X107518882Y-85408698D01*
X122845330Y-85966459D02*
X122932645Y-85966459D01*
X123379147Y-95785454D02*
X123351201Y-95813400D01*
X113800800Y-96320800D02*
X113480000Y-96000000D01*
X110350000Y-87650000D02*
X109744800Y-87044800D01*
X110730000Y-95250000D02*
X110286800Y-95250000D01*
X118516985Y-88733015D02*
X118725187Y-88733015D01*
X122845330Y-85966459D02*
X122845330Y-86379670D01*
X114918413Y-86882684D02*
X114918413Y-87372462D01*
X123351200Y-95813401D02*
X123351200Y-95817600D01*
X109744800Y-87044800D02*
X109744800Y-86844800D01*
G04 #@! TO.N,PHANTOM_SW*
X112269855Y-92032939D02*
X111626116Y-91389200D01*
X112269855Y-92032939D02*
X112391756Y-92154840D01*
X112391756Y-92154840D02*
X112391756Y-93586062D01*
X111626116Y-91389200D02*
X109621011Y-91389200D01*
G04 #@! TO.N,TAP_HV*
X126188909Y-89433273D02*
X126188909Y-89535135D01*
X126188909Y-89535135D02*
X126086091Y-89637953D01*
X127655400Y-85217000D02*
X127655400Y-87966782D01*
X127655400Y-87966782D02*
X126188909Y-89433273D01*
G04 #@! TO.N,V_PoE*
X104902000Y-100101400D02*
X102819200Y-98018600D01*
X105600000Y-100100000D02*
X104903400Y-100100000D01*
X104903400Y-100100000D02*
X104902000Y-100101400D01*
G04 #@! TO.N,ROUTP*
X114940330Y-93848000D02*
X115398000Y-93848000D01*
X114044165Y-94744165D02*
X114940330Y-93848000D01*
G04 #@! TO.N,V_PHANTOM*
X90655800Y-82350000D02*
X90398600Y-82092800D01*
X89535519Y-82955881D02*
X87340367Y-82955881D01*
X112917002Y-88115841D02*
X112765200Y-87964039D01*
X90398600Y-82092800D02*
X89535519Y-82955881D01*
X93650000Y-82350000D02*
X90655800Y-82350000D01*
X115674839Y-86637795D02*
X115674839Y-86904076D01*
X87340367Y-82955881D02*
X86910806Y-83385442D01*
X101787977Y-87815550D02*
X100346263Y-86373836D01*
X115674839Y-86904076D02*
X115350000Y-87228915D01*
X89705179Y-87350000D02*
X90372600Y-87350000D01*
X100023836Y-86373836D02*
X99000000Y-85350000D01*
X114670009Y-88115841D02*
X112917002Y-88115841D01*
X115350000Y-87435850D02*
X114670009Y-88115841D01*
X101787977Y-88987977D02*
X101787977Y-87815550D01*
X93726000Y-90703400D02*
X91567000Y-88544400D01*
X95834200Y-86385400D02*
X93675200Y-88544400D01*
X94896700Y-90703400D02*
X93726000Y-90703400D01*
X103400000Y-90600000D02*
X101787977Y-88987977D01*
X90372600Y-87350000D02*
X91567000Y-88544400D01*
X97100000Y-81800000D02*
X94200000Y-81800000D01*
X99000000Y-83700000D02*
X97100000Y-81800000D01*
X100346263Y-86373836D02*
X100023836Y-86373836D01*
X86910806Y-83385442D02*
X86910806Y-84555627D01*
X94200000Y-81800000D02*
X93650000Y-82350000D01*
X93675200Y-88544400D02*
X91567000Y-88544400D01*
X115350000Y-87228915D02*
X115350000Y-87435850D01*
X99000000Y-85350000D02*
X99000000Y-83700000D01*
X86910806Y-84555627D02*
X89705179Y-87350000D01*
G04 #@! TO.N,PHANTOM_LED*
X129000000Y-95650000D02*
X128968439Y-95681561D01*
X128968439Y-95681561D02*
X128800000Y-95681561D01*
X128800000Y-95681561D02*
X128774251Y-95707310D01*
G04 #@! TO.N,MIC2_RAW*
X109679400Y-97584600D02*
X108104600Y-97584600D01*
X110520000Y-96000000D02*
X110520000Y-96744000D01*
X109194600Y-98674600D02*
X107000000Y-96480000D01*
X110520000Y-96744000D02*
X109679400Y-97584600D01*
X109203200Y-99358200D02*
X109194600Y-99349600D01*
X117271800Y-96545400D02*
X117010000Y-96283600D01*
X117010000Y-96283600D02*
X117010000Y-96000000D01*
X109194600Y-99349600D02*
X109194600Y-98674600D01*
G04 #@! TO.N,ASDOUT*
X115318471Y-94732113D02*
X114866961Y-94732113D01*
X115748000Y-94302584D02*
X115318471Y-94732113D01*
X122990000Y-96500000D02*
X122990000Y-96881200D01*
X122990000Y-96881200D02*
X122298800Y-97572400D01*
X122298800Y-97572400D02*
X114432109Y-97572400D01*
X114432109Y-97572400D02*
X114302909Y-97443200D01*
X123500000Y-97400000D02*
X123400000Y-97300000D01*
X123100000Y-96500000D02*
X122990000Y-96500000D01*
X115748000Y-93848000D02*
X115748000Y-94302584D01*
X123400000Y-97300000D02*
X123400000Y-96800000D01*
X123500000Y-97500000D02*
X123500000Y-97400000D01*
X123400000Y-96800000D02*
X123100000Y-96500000D01*
G04 #@! TO.N,LRCK*
X120550000Y-89450000D02*
X120100000Y-89000000D01*
X122212101Y-94084283D02*
X122212101Y-94053082D01*
X120550000Y-92390981D02*
X120550000Y-89450000D01*
X115042169Y-95301798D02*
X115264202Y-95301798D01*
X115700000Y-87950000D02*
X115700000Y-87394975D01*
X116500000Y-85350000D02*
X117350000Y-84500000D01*
X120100000Y-89000000D02*
X119150000Y-89000000D01*
X114805437Y-95538530D02*
X115042169Y-95301798D01*
X122212101Y-94053082D02*
X120550000Y-92390981D01*
X117600000Y-89300000D02*
X116521423Y-88221423D01*
X116098000Y-94468000D02*
X116098000Y-93848000D01*
X115971423Y-88221423D02*
X115700000Y-87950000D01*
X117350000Y-82675000D02*
X118287800Y-81737200D01*
X117350000Y-84500000D02*
X117350000Y-82675000D01*
X118850000Y-89300000D02*
X117600000Y-89300000D01*
X115264202Y-95301798D02*
X116098000Y-94468000D01*
X115700000Y-87394975D02*
X116500000Y-86594975D01*
X116521423Y-88221423D02*
X115971423Y-88221423D01*
X119150000Y-89000000D02*
X118850000Y-89300000D01*
X116500000Y-86594975D02*
X116500000Y-85350000D01*
G04 #@! TO.N,DSDIN*
X126050000Y-87955026D02*
X126050000Y-84100000D01*
X124798000Y-94310200D02*
X124621200Y-94133400D01*
X126050000Y-84100000D02*
X123560200Y-81610200D01*
X123750000Y-91400000D02*
X123750000Y-90250517D01*
X124621200Y-92271200D02*
X123750000Y-91400000D01*
X125754509Y-88250517D02*
X126050000Y-87955026D01*
X123750000Y-90250517D02*
X125750000Y-88250517D01*
X116448000Y-94673786D02*
X116448000Y-93848000D01*
X123560200Y-81610200D02*
X123367800Y-81610200D01*
X124621200Y-94133400D02*
X124621200Y-92271200D01*
X114992064Y-96576720D02*
X114992064Y-96129722D01*
X114992064Y-96129722D02*
X116448000Y-94673786D01*
X125750000Y-88250517D02*
X125754509Y-88250517D01*
G04 #@! TO.N,BCLK*
X125200000Y-93062200D02*
X125200000Y-92250000D01*
X124200000Y-90300000D02*
X126400000Y-88100000D01*
X116974200Y-94673000D02*
X116798000Y-94496800D01*
X125200000Y-92250000D02*
X124200000Y-91250000D01*
X124200000Y-91250000D02*
X124200000Y-90300000D01*
X125171200Y-93091000D02*
X125200000Y-93062200D01*
X117119400Y-94673000D02*
X116974200Y-94673000D01*
X126400000Y-82559600D02*
X125907800Y-82067400D01*
X126400000Y-88100000D02*
X126400000Y-82559600D01*
X116798000Y-94496800D02*
X116798000Y-93848000D01*
G04 #@! TO.N,MCLK*
X125486700Y-97963300D02*
X125550000Y-97963300D01*
X119735600Y-93776018D02*
X118482582Y-92523000D01*
X119735600Y-96229600D02*
X119735600Y-93776018D01*
X119060000Y-98171000D02*
X125279000Y-98171000D01*
X125279000Y-98171000D02*
X125486700Y-97963300D01*
X118482582Y-92523000D02*
X117773000Y-92523000D01*
G04 #@! TO.N,+5V*
X123102585Y-93670774D02*
X123607791Y-93670774D01*
X121116254Y-84901019D02*
X121517273Y-84500000D01*
X120960000Y-84901019D02*
X121116254Y-84901019D01*
X124025000Y-84500000D02*
X124386400Y-84861400D01*
X121000000Y-86700000D02*
X121000000Y-88455026D01*
X121250000Y-88705026D02*
X121250000Y-91818189D01*
X121517273Y-84500000D02*
X124025000Y-84500000D01*
X121000000Y-88455026D02*
X121250000Y-88705026D01*
X121250000Y-91818189D02*
X123102585Y-93670774D01*
G04 #@! TO.N,+3V3_A*
X122811000Y-85113400D02*
X121924400Y-86000000D01*
X122936000Y-85050000D02*
X122811000Y-84925000D01*
X122811000Y-84925000D02*
X122811000Y-85113400D01*
X121924400Y-86000000D02*
X121787500Y-86000000D01*
G04 #@! TO.N,+3V3*
X118020000Y-94880000D02*
X118020000Y-95000000D01*
X117291130Y-87661423D02*
X117651220Y-87661423D01*
X118900000Y-94000000D02*
X118020000Y-94880000D01*
X118900000Y-93850000D02*
X118273000Y-93223000D01*
X129990000Y-97520000D02*
X131010000Y-96500000D01*
X118900000Y-94000000D02*
X118900000Y-93850000D01*
X119270000Y-84750000D02*
X118652202Y-84750000D01*
X118652202Y-84750000D02*
X117193837Y-86208365D01*
X117193837Y-86208365D02*
X117193837Y-87564130D01*
X118273000Y-93223000D02*
X117773000Y-93223000D01*
X117651220Y-87661423D02*
X117994101Y-88004304D01*
X117773000Y-93223000D02*
X117773000Y-92873000D01*
X118020000Y-96500000D02*
X118020000Y-95000000D01*
X117193837Y-87564130D02*
X117291130Y-87661423D01*
X129990000Y-97561400D02*
X129990000Y-97520000D01*
G04 #@! TO.N,SCL*
X122721024Y-88478976D02*
X122721024Y-87842467D01*
X124500000Y-83850000D02*
X118450000Y-83850000D01*
X110700244Y-84000000D02*
X109800244Y-83100000D01*
X129078200Y-100300000D02*
X128270000Y-99491800D01*
X118450000Y-83850000D02*
X117900000Y-84400000D01*
X124530000Y-87583885D02*
X124530000Y-87470000D01*
X116574845Y-84000000D02*
X110700244Y-84000000D01*
X119181543Y-92322732D02*
X119031811Y-92173000D01*
X119031811Y-92173000D02*
X117773000Y-92173000D01*
X121951889Y-91650000D02*
X121600000Y-91298111D01*
X129200000Y-97750000D02*
X129200000Y-97290000D01*
X109800244Y-83100000D02*
X107755218Y-83100000D01*
X107755218Y-83100000D02*
X106580153Y-81924935D01*
X121600000Y-89600000D02*
X122721024Y-88478976D01*
X122721024Y-87842467D02*
X122942602Y-87620889D01*
X125300000Y-84650000D02*
X124500000Y-83850000D01*
X129550000Y-100250000D02*
X129404295Y-100250000D01*
X127991800Y-99491800D02*
X128270000Y-99491800D01*
X129354295Y-100300000D02*
X129078200Y-100300000D01*
X116800000Y-84225155D02*
X116574845Y-84000000D01*
X124530000Y-87470000D02*
X125300000Y-86700000D01*
X129404295Y-100250000D02*
X129354295Y-100300000D01*
X125300000Y-86700000D02*
X125300000Y-84650000D01*
X124810865Y-96310865D02*
X127991800Y-99491800D01*
X121600000Y-91298111D02*
X121600000Y-89600000D01*
X124730000Y-96310865D02*
X124810865Y-96310865D01*
X129200000Y-97290000D02*
X129990000Y-96500000D01*
X122120000Y-91650000D02*
X121951889Y-91650000D01*
G04 #@! TO.N,SDA*
X125650000Y-87450000D02*
X125650000Y-84300000D01*
X123071024Y-88678976D02*
X123071024Y-88378976D01*
X131010000Y-97561400D02*
X131167600Y-97719000D01*
X125650000Y-84300000D02*
X124650000Y-83300000D01*
X118610526Y-91615224D02*
X118402750Y-91823000D01*
X122150000Y-90850000D02*
X122150000Y-90796010D01*
X116150000Y-83650000D02*
X116327509Y-83472491D01*
X110845218Y-83650000D02*
X116150000Y-83650000D01*
X109120153Y-81924935D02*
X110845218Y-83650000D01*
X118402750Y-91823000D02*
X117773000Y-91823000D01*
X123200000Y-88366185D02*
X123271024Y-88295161D01*
X118200000Y-83300000D02*
X117900000Y-83600000D01*
X122200000Y-89550000D02*
X123071024Y-88678976D01*
X118700000Y-91615224D02*
X118610526Y-91615224D01*
X123083815Y-88366185D02*
X123200000Y-88366185D01*
X130647600Y-99050000D02*
X130987800Y-99390200D01*
X116327509Y-83472491D02*
X116327509Y-83450001D01*
X129750000Y-98350000D02*
X130450000Y-99050000D01*
X130450000Y-99050000D02*
X130647600Y-99050000D01*
X122150000Y-90796010D02*
X122200000Y-90746010D01*
X131167600Y-97719000D02*
X131167600Y-99134200D01*
X131167600Y-99134200D02*
X130810000Y-99491800D01*
X125362869Y-87737131D02*
X125650000Y-87450000D01*
X125688909Y-96400000D02*
X125688909Y-96488909D01*
X122200000Y-90746010D02*
X122200000Y-89550000D01*
X125362869Y-87800000D02*
X125362869Y-87737131D01*
X127550000Y-98350000D02*
X129750000Y-98350000D01*
X123071024Y-88378976D02*
X123083815Y-88366185D01*
X124650000Y-83300000D02*
X118200000Y-83300000D01*
X125688909Y-96488909D02*
X127550000Y-98350000D01*
G04 #@! TO.N,OK1_COLLECTOR*
X101615298Y-84138698D02*
X101143882Y-84138698D01*
X102903198Y-85426598D02*
X101615298Y-84138698D01*
G04 #@! TO.N,Q1_GATE*
X111240794Y-85531258D02*
X111231258Y-85531258D01*
X115725000Y-85250000D02*
X114250000Y-86725000D01*
X111855869Y-86155869D02*
X111855869Y-86146333D01*
X106066458Y-83500000D02*
X102866458Y-86700000D01*
X102450000Y-86700000D02*
X102446094Y-86696094D01*
X102446094Y-86696094D02*
X102446094Y-86690869D01*
X114250000Y-87000000D02*
X112700000Y-87000000D01*
X108400000Y-83500000D02*
X106066458Y-83500000D01*
X102866458Y-86700000D02*
X102450000Y-86700000D01*
X111231258Y-85531258D02*
X111050000Y-85350000D01*
X111050000Y-85350000D02*
X110250000Y-85350000D01*
X110250000Y-85350000D02*
X108400000Y-83500000D01*
X114250000Y-86725000D02*
X114250000Y-87000000D01*
X111855869Y-86146333D02*
X111240794Y-85531258D01*
X112700000Y-87000000D02*
X111855869Y-86155869D01*
G04 #@! TO.N,TAP_GND*
X127836751Y-94513249D02*
X129050000Y-93300000D01*
X129050000Y-93300000D02*
X129050000Y-86362400D01*
X127836751Y-95110000D02*
X127836751Y-94513249D01*
X129050000Y-86362400D02*
X130195400Y-85217000D01*
G04 #@! TO.N,PGND*
X89027000Y-88703400D02*
X89027000Y-88696800D01*
X126700000Y-93000000D02*
X126700000Y-95508059D01*
X89027000Y-88696800D02*
X88976200Y-88646000D01*
X100000000Y-84750000D02*
X100658698Y-85408698D01*
X127275000Y-89125000D02*
X127275000Y-89147182D01*
X126700000Y-93000000D02*
X126777190Y-93000000D01*
X126700000Y-95508059D02*
X126899251Y-95707310D01*
X100658698Y-85408698D02*
X101143882Y-85408698D01*
X127275000Y-89147182D02*
X126700000Y-89722182D01*
X126777190Y-93000000D02*
X126800000Y-93022810D01*
X126700000Y-89722182D02*
X126700000Y-93000000D01*
G04 #@! TO.N,V_FILT*
X90077000Y-91653400D02*
X89027000Y-92703400D01*
X97063600Y-91653400D02*
X97078800Y-91668600D01*
X89113800Y-85013800D02*
X90855800Y-85013800D01*
X100050000Y-83446269D02*
X100096269Y-83400000D01*
X110476600Y-84750000D02*
X112275000Y-84750000D01*
X96520000Y-85547200D02*
X97002600Y-85064600D01*
X94716600Y-92633800D02*
X95697000Y-91653400D01*
X113270701Y-89320701D02*
X114250000Y-90300000D01*
X98544200Y-98018600D02*
X98544200Y-96318600D01*
X98221800Y-83845400D02*
X97002600Y-85064600D01*
X95132400Y-94132400D02*
X94716600Y-93716600D01*
X97100000Y-86300000D02*
X97093600Y-86293600D01*
X111070701Y-89320701D02*
X113270701Y-89320701D01*
X100096269Y-83400000D02*
X103350000Y-83400000D01*
X96771700Y-91653400D02*
X90077000Y-91653400D01*
X95697000Y-91653400D02*
X96771700Y-91653400D01*
X109195010Y-87445010D02*
X111070701Y-89320701D01*
X94716600Y-93716600D02*
X94716600Y-92633800D01*
X93319600Y-84226400D02*
X94640400Y-85547200D01*
X96358000Y-94132400D02*
X95132400Y-94132400D01*
X98544200Y-96318600D02*
X96358000Y-94132400D01*
X88000000Y-83900000D02*
X89113800Y-85013800D01*
X109195010Y-87200138D02*
X109195010Y-87445010D01*
X100050000Y-83350000D02*
X100050000Y-83446269D01*
X94640400Y-85547200D02*
X96520000Y-85547200D01*
X96771700Y-91653400D02*
X97063600Y-91653400D01*
X110159800Y-84433200D02*
X110476600Y-84750000D01*
X90855800Y-85013800D02*
X91643200Y-84226400D01*
X98221800Y-83743800D02*
X98221800Y-83845400D01*
X91643200Y-84226400D02*
X93319600Y-84226400D01*
X97093600Y-86293600D02*
X97093600Y-84973600D01*
G04 #@! TO.N,XLR2_HOT*
X96725742Y-93192600D02*
X97891600Y-92026742D01*
X97891600Y-89281000D02*
X96821000Y-88210400D01*
X96821000Y-88210400D02*
X95834200Y-88210400D01*
X97891600Y-92026742D02*
X97891600Y-89281000D01*
X95834200Y-93192600D02*
X96725742Y-93192600D01*
G04 #@! TO.N,XLR3_COLD*
X90398600Y-83917800D02*
X91009400Y-83307000D01*
X91009400Y-83307000D02*
X92659200Y-83307000D01*
G04 #@! TO.N,LOUTP*
X113291755Y-93217737D02*
X113291755Y-94471645D01*
X114336492Y-92173000D02*
X114773000Y-92173000D01*
X113291755Y-94471645D02*
X113250000Y-94513400D01*
X113291755Y-93217737D02*
X114336492Y-92173000D01*
G04 #@! TO.N,OK1_LED_A*
X108590211Y-91400000D02*
X108601011Y-91389200D01*
X108150000Y-91400000D02*
X108590211Y-91400000D01*
X106300000Y-87300800D02*
X106300000Y-84950000D01*
X107950000Y-92600000D02*
X107950000Y-91600000D01*
X106300000Y-84950000D02*
X107111302Y-84138698D01*
X107111302Y-84138698D02*
X107518882Y-84138698D01*
X107950000Y-91600000D02*
X108150000Y-91400000D01*
X107340400Y-88341200D02*
X106300000Y-87300800D01*
G04 #@! TO.N,DACVREF*
X114318416Y-92873000D02*
X113841755Y-93349661D01*
X123850000Y-88500000D02*
X123850000Y-86130000D01*
X122850000Y-89500000D02*
X123850000Y-88500000D01*
X113841755Y-93349661D02*
X113841755Y-93445555D01*
X122850000Y-92150000D02*
X122850000Y-89500000D01*
X123200000Y-92500000D02*
X122850000Y-92150000D01*
X114773000Y-92873000D02*
X114318416Y-92873000D01*
X123850000Y-86130000D02*
X123980000Y-86000000D01*
G04 #@! TO.N,MIC1P*
X109670000Y-93980000D02*
X110300000Y-93350000D01*
X117546600Y-90449400D02*
X117148000Y-90848000D01*
X108051600Y-93980000D02*
X107400000Y-93328400D01*
X117789111Y-90110000D02*
X117789111Y-90120889D01*
X107400000Y-91655026D02*
X108458323Y-90596703D01*
X108051600Y-93980000D02*
X109670000Y-93980000D01*
X117550600Y-90449400D02*
X117546600Y-90449400D01*
X107400000Y-93328400D02*
X107400000Y-91655026D01*
X108458323Y-90596703D02*
X112416502Y-90596703D01*
X117704766Y-90205234D02*
X117704766Y-90295234D01*
X117704766Y-90295234D02*
X117550600Y-90449400D01*
X110300000Y-93350000D02*
X110837500Y-93350000D01*
X117789111Y-90120889D02*
X117704766Y-90205234D01*
G04 #@! TO.N,ADCVREF*
X115548000Y-89663838D02*
X115748000Y-89863838D01*
X115548647Y-89499934D02*
X115548000Y-89500581D01*
X118550013Y-90110000D02*
X118657049Y-90110000D01*
X119417049Y-89350000D02*
X119900000Y-89350000D01*
X118657049Y-90110000D02*
X119417049Y-89350000D01*
X120200000Y-89650000D02*
X120200000Y-92650000D01*
X120350000Y-93000000D02*
X122072400Y-94722400D01*
X120200000Y-92650000D02*
X120350000Y-92800000D01*
X115548000Y-89500581D02*
X115548000Y-89663838D01*
X121480000Y-96477400D02*
X121480000Y-96500000D01*
X115748000Y-89863838D02*
X115748000Y-90848000D01*
X119900000Y-89350000D02*
X120200000Y-89650000D01*
X122072400Y-94722400D02*
X122072400Y-95885000D01*
X120350000Y-92800000D02*
X120350000Y-93000000D01*
X122072400Y-95885000D02*
X121480000Y-96477400D01*
G04 #@! TO.N,AD0*
X124157791Y-93442956D02*
X124157791Y-93898592D01*
X118495200Y-90750000D02*
X117773000Y-91472200D01*
X124157791Y-93898592D02*
X124155200Y-93901183D01*
X123300000Y-91600000D02*
X123300000Y-89872183D01*
X117773000Y-91472200D02*
X117773000Y-91473000D01*
X124155200Y-94854800D02*
X124010000Y-95000000D01*
X123300000Y-91600000D02*
X124159829Y-92459829D01*
X124155200Y-93901183D02*
X124155200Y-94854800D01*
X124159829Y-93440918D02*
X124157791Y-93442956D01*
X124159829Y-92459829D02*
X124159829Y-93440918D01*
X119650000Y-89950000D02*
X118850000Y-90750000D01*
X123300000Y-89872183D02*
X123400000Y-89772183D01*
X118850000Y-90750000D02*
X118495200Y-90750000D01*
G04 #@! TO.N,VMID*
X115398000Y-90852000D02*
X115398000Y-90848000D01*
X120520000Y-95000000D02*
X120520000Y-93782600D01*
X115250000Y-91000000D02*
X115398000Y-90852000D01*
X113068350Y-92168350D02*
X113064200Y-92164200D01*
X120520000Y-93782600D02*
X119710200Y-92972800D01*
X113064200Y-92164200D02*
X113064200Y-91389982D01*
X113454182Y-91000000D02*
X115250000Y-91000000D01*
X113064200Y-91389982D02*
X113454182Y-91000000D01*
G04 #@! TO.N,AVDD*
X121843800Y-97129600D02*
X122422400Y-96551000D01*
X114400000Y-95950000D02*
X114400000Y-96762473D01*
X112941755Y-93072763D02*
X112941755Y-94043827D01*
X114764246Y-97126720D02*
X115573280Y-97126720D01*
X115990000Y-96000000D02*
X115990000Y-96190000D01*
X122762100Y-93825263D02*
X120900000Y-91963163D01*
X122422400Y-96551000D02*
X122422400Y-94699099D01*
X116929600Y-97129600D02*
X121843800Y-97129600D01*
X113250000Y-95300000D02*
X113750000Y-95300000D01*
X112941755Y-94043827D02*
X112700000Y-94285582D01*
X113022182Y-95063400D02*
X113022182Y-95072182D01*
X115990000Y-96190000D02*
X116929600Y-97129600D01*
X120300000Y-88250000D02*
X120059600Y-88009600D01*
X114400000Y-96762473D02*
X114764246Y-97126720D01*
X112700000Y-94741218D02*
X113022182Y-95063400D01*
X115573280Y-97126720D02*
X115990000Y-96710000D01*
X122422400Y-94699099D02*
X122762100Y-94359399D01*
X120900000Y-91963163D02*
X120900000Y-89100000D01*
X122762100Y-94359399D02*
X122762100Y-93825263D01*
X113022182Y-95072182D02*
X113250000Y-95300000D01*
X120040400Y-88009600D02*
X120050000Y-88000000D01*
X113750000Y-95300000D02*
X114400000Y-95950000D01*
X115990000Y-96710000D02*
X115990000Y-96000000D01*
X114191518Y-91823000D02*
X112941755Y-93072763D01*
X120300000Y-88500000D02*
X120300000Y-88250000D01*
X112700000Y-94285582D02*
X112700000Y-94741218D01*
X120900000Y-89100000D02*
X120300000Y-88500000D01*
X120059600Y-88009600D02*
X120040400Y-88009600D01*
X120050000Y-86512500D02*
X120212500Y-86350000D01*
X114773000Y-91823000D02*
X114191518Y-91823000D01*
X120050000Y-88000000D02*
X120050000Y-86512500D01*
G04 #@! TO.N,MIC2P*
X116014464Y-88596068D02*
X116448647Y-89030251D01*
X111686880Y-88220701D02*
X112244045Y-88220701D01*
X112244045Y-88220701D02*
X112619411Y-88596068D01*
X116448647Y-89030251D02*
X116448647Y-90180383D01*
X108051600Y-95529400D02*
X107009400Y-95529400D01*
X107009400Y-95529400D02*
X107000000Y-95520000D01*
X116448000Y-90181030D02*
X116448000Y-90848000D01*
X112619411Y-88596068D02*
X116014464Y-88596068D01*
X116448647Y-90180383D02*
X116448000Y-90181030D01*
X111264092Y-88643489D02*
X111686880Y-88220701D01*
G04 #@! TO.N,MIC2N*
X112178594Y-88946068D02*
X112003227Y-88770701D01*
X111700000Y-93150000D02*
X111700000Y-95100000D01*
X116098000Y-89174578D02*
X115869490Y-88946068D01*
X116098647Y-89272116D02*
X116098000Y-89271469D01*
X111250000Y-92700000D02*
X111700000Y-93150000D01*
X116098000Y-89271469D02*
X116098000Y-89174578D01*
X111700000Y-95100000D02*
X112520000Y-95920000D01*
X115869490Y-88946068D02*
X112178594Y-88946068D01*
X116098647Y-89727752D02*
X116098647Y-89272116D01*
X116098000Y-89728399D02*
X116098647Y-89727752D01*
X112520000Y-95920000D02*
X112520000Y-96000000D01*
X116098000Y-90848000D02*
X116098000Y-89728399D01*
G04 #@! TD*
M02*
