G04 #@! TF.GenerationSoftware,KiCad,Pcbnew,10.0.3*
G04 #@! TF.CreationDate,2026-07-08T22:23:12-07:00*
G04 #@! TF.ProjectId,scramble_hat,73637261-6d62-46c6-955f-6861742e6b69,rev?*
G04 #@! TF.SameCoordinates,Original*
G04 #@! TF.FileFunction,Soldermask,Top*
G04 #@! TF.FilePolarity,Negative*
%FSLAX46Y46*%
G04 Gerber Fmt 4.6, Leading zero omitted, Abs format (unit mm)*
G04 Created by KiCad (PCBNEW 10.0.3) date 2026-07-08 22:23:12*
%MOMM*%
%LPD*%
G01*
G04 APERTURE LIST*
G04 Aperture macros list*
%AMRoundRect*
0 Rectangle with rounded corners*
0 $1 Rounding radius*
0 $2 $3 $4 $5 $6 $7 $8 $9 X,Y pos of 4 corners*
0 Add a 4 corners polygon primitive as box body*
4,1,4,$2,$3,$4,$5,$6,$7,$8,$9,$2,$3,0*
0 Add four circle primitives for the rounded corners*
1,1,$1+$1,$2,$3*
1,1,$1+$1,$4,$5*
1,1,$1+$1,$6,$7*
1,1,$1+$1,$8,$9*
0 Add four rect primitives between the rounded corners*
20,1,$1+$1,$2,$3,$4,$5,0*
20,1,$1+$1,$4,$5,$6,$7,0*
20,1,$1+$1,$6,$7,$8,$9,0*
20,1,$1+$1,$8,$9,$2,$3,0*%
G04 Aperture macros list end*
%ADD10RoundRect,0.250000X-0.312500X-1.450000X0.312500X-1.450000X0.312500X1.450000X-0.312500X1.450000X0*%
%ADD11RoundRect,0.087500X-0.425000X-0.087500X0.425000X-0.087500X0.425000X0.087500X-0.425000X0.087500X0*%
%ADD12RoundRect,0.250000X-0.250000X-0.475000X0.250000X-0.475000X0.250000X0.475000X-0.250000X0.475000X0*%
%ADD13RoundRect,0.135000X-0.135000X-0.185000X0.135000X-0.185000X0.135000X0.185000X-0.135000X0.185000X0*%
%ADD14RoundRect,0.250000X-0.262500X-0.450000X0.262500X-0.450000X0.262500X0.450000X-0.262500X0.450000X0*%
%ADD15C,1.700000*%
%ADD16R,2.800000X2.200000*%
%ADD17R,2.800000X2.800000*%
%ADD18R,2.800000X2.600000*%
%ADD19R,1.700000X1.700000*%
%ADD20RoundRect,0.150000X-0.512500X-0.150000X0.512500X-0.150000X0.512500X0.150000X-0.512500X0.150000X0*%
%ADD21RoundRect,0.140000X-0.140000X-0.170000X0.140000X-0.170000X0.140000X0.170000X-0.140000X0.170000X0*%
%ADD22RoundRect,0.135000X-0.185000X0.135000X-0.185000X-0.135000X0.185000X-0.135000X0.185000X0.135000X0*%
%ADD23C,1.600000*%
%ADD24C,2.900000*%
%ADD25C,2.700000*%
%ADD26C,3.200000*%
%ADD27C,3.400000*%
%ADD28O,1.600000X1.600000*%
G04 APERTURE END LIST*
D10*
G04 #@! TO.C,F1*
X104974300Y-82626200D03*
X109249300Y-82626200D03*
G04 #@! TD*
D11*
G04 #@! TO.C,D1*
X107061000Y-85217000D03*
X107061000Y-85867000D03*
X107061000Y-86517000D03*
X108736000Y-86517000D03*
X108736000Y-85217000D03*
G04 #@! TD*
D12*
G04 #@! TO.C,C14*
X109620800Y-94500000D03*
X111520800Y-94500000D03*
G04 #@! TD*
D13*
G04 #@! TO.C,R10*
X112060800Y-96500000D03*
X113080800Y-96500000D03*
G04 #@! TD*
D14*
G04 #@! TO.C,R16*
X128244600Y-87198200D03*
X130069600Y-87198200D03*
G04 #@! TD*
D15*
G04 #@! TO.C,J2*
X105503200Y-98258200D03*
X105503200Y-91258200D03*
D16*
X101803200Y-97358200D03*
X109203200Y-99358200D03*
D17*
X109203200Y-89958200D03*
D18*
X104753200Y-85958200D03*
G04 #@! TD*
D19*
G04 #@! TO.C,J3*
X115570000Y-81915000D03*
D15*
X118110000Y-81915000D03*
X120650000Y-81915000D03*
X123190000Y-81915000D03*
X125730000Y-81915000D03*
X128270000Y-81915000D03*
X130810000Y-81915000D03*
G04 #@! TD*
D20*
G04 #@! TO.C,U2*
X120658100Y-84887900D03*
X120658100Y-85837900D03*
X120658100Y-86787900D03*
X122933100Y-86787900D03*
X122933100Y-84887900D03*
G04 #@! TD*
D12*
G04 #@! TO.C,C15*
X109620800Y-96500000D03*
X111520800Y-96500000D03*
G04 #@! TD*
D21*
G04 #@! TO.C,C21*
X124386400Y-84861400D03*
X125346400Y-84861400D03*
G04 #@! TD*
D22*
G04 #@! TO.C,R13*
X101701600Y-87960200D03*
X101701600Y-88980200D03*
G04 #@! TD*
D21*
G04 #@! TO.C,C22*
X124361000Y-86741000D03*
X125321000Y-86741000D03*
G04 #@! TD*
D19*
G04 #@! TO.C,J4*
X115570000Y-99491800D03*
D15*
X118110000Y-99491800D03*
X120650000Y-99491800D03*
X123190000Y-99491800D03*
X125730000Y-99491800D03*
X128270000Y-99491800D03*
X130810000Y-99491800D03*
G04 #@! TD*
D19*
G04 #@! TO.C,J5*
X127553800Y-93192600D03*
D15*
X130093800Y-93192600D03*
G04 #@! TD*
D23*
G04 #@! TO.C,C19*
X110794800Y-86207600D03*
X118294800Y-86207600D03*
G04 #@! TD*
D13*
G04 #@! TO.C,R11*
X102512400Y-81838800D03*
X103532400Y-81838800D03*
G04 #@! TD*
G04 #@! TO.C,R14*
X113485200Y-88112600D03*
X114505200Y-88112600D03*
G04 #@! TD*
D23*
G04 #@! TO.C,J1*
X86106000Y-90779600D03*
X82931000Y-96494600D03*
X82931000Y-85064600D03*
D24*
X94996000Y-97764600D03*
X95631000Y-83794600D03*
D25*
X100076000Y-90779600D03*
D26*
X83566000Y-99034600D03*
D25*
X99441000Y-87922100D03*
X99441000Y-93637100D03*
D27*
X92456000Y-95224600D03*
X92456000Y-86334600D03*
G04 #@! TD*
D13*
G04 #@! TO.C,R9*
X112060800Y-94500000D03*
X113080800Y-94500000D03*
G04 #@! TD*
D28*
G04 #@! TO.C,SW1*
X125399800Y-89966800D03*
D23*
X127939800Y-89966800D03*
D28*
X130479800Y-89966800D03*
G04 #@! TD*
M02*
