G04 #@! TF.GenerationSoftware,KiCad,Pcbnew,10.0.5*
G04 #@! TF.CreationDate,2026-08-17T19:43:29-07:00*
G04 #@! TF.ProjectId,scramble_hat,73637261-6d62-46c6-955f-6861742e6b69,rev?*
G04 #@! TF.SameCoordinates,Original*
G04 #@! TF.FileFunction,Legend,Top*
G04 #@! TF.FilePolarity,Positive*
%FSLAX46Y46*%
G04 Gerber Fmt 4.6, Leading zero omitted, Abs format (unit mm)*
G04 Created by KiCad (PCBNEW 10.0.5) date 2026-08-17 19:43:29*
%MOMM*%
%LPD*%
G01*
G04 APERTURE LIST*
G04 Aperture macros list*
%AMRoundRect*
0 Rectangle with rounded corners*
0 $1 Rounding radius*
0 $2 $3 $4 $5 $6 $7 $8 $9 X,Y pos of 4 corners*
0 Add a 4 corners polygon primitive as box body*
4,1,4,$2,$3,$4,$5,$6,$7,$8,$9,$2,$3,0*
0 Add four circle primitives for the rounded corners*
1,1,$1+$1,$2,$3*
1,1,$1+$1,$4,$5*
1,1,$1+$1,$6,$7*
1,1,$1+$1,$8,$9*
0 Add four rect primitives between the rounded corners*
20,1,$1+$1,$2,$3,$4,$5,0*
20,1,$1+$1,$4,$5,$6,$7,0*
20,1,$1+$1,$6,$7,$8,$9,0*
20,1,$1+$1,$8,$9,$2,$3,0*%
G04 Aperture macros list end*
%ADD10C,0.000000*%
%ADD11C,0.141300*%
%ADD12C,0.318415*%
%ADD13C,0.100000*%
%ADD14C,0.150000*%
%ADD15C,0.120000*%
%ADD16RoundRect,0.250000X0.450000X-0.262500X0.450000X0.262500X-0.450000X0.262500X-0.450000X-0.262500X0*%
%ADD17RoundRect,0.112500X-0.187500X-0.112500X0.187500X-0.112500X0.187500X0.112500X-0.187500X0.112500X0*%
%ADD18RoundRect,0.135000X-0.135000X-0.185000X0.135000X-0.185000X0.135000X0.185000X-0.135000X0.185000X0*%
%ADD19RoundRect,0.137500X0.587500X0.137500X-0.587500X0.137500X-0.587500X-0.137500X0.587500X-0.137500X0*%
%ADD20RoundRect,0.250000X-0.250000X-0.475000X0.250000X-0.475000X0.250000X0.475000X-0.250000X0.475000X0*%
%ADD21RoundRect,0.250000X-0.450000X0.262500X-0.450000X-0.262500X0.450000X-0.262500X0.450000X0.262500X0*%
%ADD22C,1.700000*%
%ADD23R,2.800000X2.200000*%
%ADD24R,2.800000X2.800000*%
%ADD25R,2.800000X2.600000*%
%ADD26R,1.700000X1.700000*%
%ADD27RoundRect,0.150000X-0.512500X-0.150000X0.512500X-0.150000X0.512500X0.150000X-0.512500X0.150000X0*%
%ADD28RoundRect,0.140000X-0.140000X-0.170000X0.140000X-0.170000X0.140000X0.170000X-0.140000X0.170000X0*%
%ADD29RoundRect,0.135000X0.135000X0.185000X-0.135000X0.185000X-0.135000X-0.185000X0.135000X-0.185000X0*%
%ADD30C,1.600000*%
%ADD31RoundRect,0.250000X0.262500X0.450000X-0.262500X0.450000X-0.262500X-0.450000X0.262500X-0.450000X0*%
%ADD32C,2.900000*%
%ADD33C,2.700000*%
%ADD34C,3.200000*%
%ADD35C,3.400000*%
%ADD36RoundRect,0.137500X-0.587500X-0.137500X0.587500X-0.137500X0.587500X0.137500X-0.587500X0.137500X0*%
%ADD37O,1.600000X1.600000*%
G04 APERTURE END LIST*
D10*
G36*
X89948434Y-85048149D02*
G01*
X90171895Y-85048149D01*
X90171895Y-85081728D01*
X89948434Y-85081728D01*
X89948434Y-85165074D01*
X89918583Y-85165074D01*
X89918583Y-84964398D01*
X89948434Y-84964398D01*
X89948434Y-85048149D01*
G37*
G36*
X90171895Y-84721839D02*
G01*
X89960047Y-84721839D01*
X90171895Y-84795216D01*
X90171895Y-84825485D01*
X89956323Y-84898877D01*
X90171895Y-84898877D01*
X90171895Y-84931210D01*
X89918583Y-84931210D01*
X89918583Y-84880627D01*
X90098101Y-84820920D01*
X90135416Y-84808487D01*
X90127750Y-84806099D01*
X90118412Y-84803083D01*
X90107440Y-84799472D01*
X90094778Y-84795216D01*
X89918583Y-84734689D01*
X89918583Y-84689493D01*
X90171895Y-84689493D01*
X90171895Y-84721839D01*
G37*
D11*
X87652134Y-86171337D02*
X87656579Y-86111475D01*
X87663947Y-86052094D01*
X87674193Y-85993364D01*
X87687295Y-85935315D01*
X87703184Y-85878076D01*
X87721813Y-85821752D01*
X87743173Y-85766415D01*
X87767193Y-85712229D01*
X87793839Y-85659211D01*
X87823075Y-85607508D01*
X87854872Y-85557219D01*
X87889166Y-85508410D01*
X87925916Y-85461230D01*
X87965106Y-85415749D01*
X88006668Y-85372083D01*
X88050350Y-85330500D01*
X88095842Y-85291312D01*
X88143023Y-85254560D01*
X88191807Y-85220270D01*
X88242096Y-85188477D01*
X88293819Y-85159237D01*
X88346822Y-85132584D01*
X88401023Y-85108585D01*
X88456357Y-85087215D01*
X88512686Y-85068580D01*
X88569934Y-85052694D01*
X88627953Y-85039599D01*
X88686716Y-85029346D01*
X88746070Y-85021976D01*
X88805941Y-85017525D01*
X88866216Y-85016046D01*
X88928781Y-85017611D01*
X88990509Y-85022314D01*
X89051328Y-85030033D01*
X89111194Y-85040722D01*
X89170022Y-85054292D01*
X89227692Y-85070689D01*
X89284172Y-85089787D01*
X89339374Y-85111559D01*
X89393219Y-85135910D01*
X89445641Y-85162749D01*
X89496538Y-85192020D01*
X89545871Y-85223632D01*
X89593511Y-85257529D01*
X89639429Y-85293626D01*
X89683538Y-85331815D01*
X89725764Y-85372083D01*
X89766007Y-85414288D01*
X89804223Y-85458388D01*
X89840304Y-85504317D01*
X89874190Y-85551972D01*
X89905808Y-85601314D01*
X89935087Y-85652191D01*
X89961929Y-85704599D01*
X89986268Y-85758461D01*
X90008038Y-85813656D01*
X90027143Y-85870152D01*
X90043528Y-85927819D01*
X90057092Y-85986635D01*
X90067775Y-86046497D01*
X90075535Y-86107320D01*
X90080212Y-86169050D01*
X90081801Y-86231611D01*
X90081801Y-95302721D01*
X90080212Y-95365253D01*
X90075535Y-95426981D01*
X90067775Y-95487826D01*
X90057092Y-95547690D01*
X90043528Y-95606500D01*
X90027143Y-95664183D01*
X90008038Y-95720663D01*
X89986268Y-95775870D01*
X89961929Y-95829695D01*
X89935087Y-95882109D01*
X89905808Y-95933030D01*
X89874190Y-95982350D01*
X89840304Y-96030009D01*
X89804223Y-96075927D01*
X89766007Y-96120032D01*
X89725764Y-96162249D01*
X89683538Y-96202502D01*
X89639429Y-96240700D01*
X89593511Y-96276794D01*
X89545871Y-96310682D01*
X89496538Y-96342303D01*
X89445641Y-96371573D01*
X89393219Y-96398416D01*
X89339374Y-96422756D01*
X89284172Y-96444519D01*
X89227692Y-96463638D01*
X89170022Y-96480021D01*
X89111194Y-96493586D01*
X89051328Y-96504271D01*
X88990509Y-96512007D01*
X88928781Y-96516717D01*
X88866216Y-96518292D01*
X88803655Y-96516717D01*
X88741923Y-96512007D01*
X88681099Y-96504271D01*
X88621237Y-96493586D01*
X88562414Y-96480021D01*
X88504743Y-96463638D01*
X88448264Y-96444519D01*
X88393060Y-96422756D01*
X88339215Y-96398416D01*
X88286808Y-96371573D01*
X88235886Y-96342303D01*
X88186562Y-96310682D01*
X88138923Y-96276794D01*
X88093001Y-96240700D01*
X88048892Y-96202502D01*
X88006668Y-96162249D01*
X87966416Y-96120032D01*
X87928212Y-96075927D01*
X87892126Y-96030009D01*
X87858234Y-95982350D01*
X87826627Y-95933030D01*
X87797349Y-95882109D01*
X87770512Y-95829695D01*
X87746172Y-95775870D01*
X87724395Y-95720663D01*
X87705288Y-95664183D01*
X87688913Y-95606500D01*
X87675332Y-95547690D01*
X87664658Y-95487826D01*
X87656908Y-95426981D01*
X87652223Y-95365253D01*
X87650635Y-95302721D01*
X87650635Y-86231611D01*
X87652134Y-86171337D01*
D12*
X87652134Y-86171337D02*
X87656579Y-86111475D01*
X87663947Y-86052094D01*
X87674193Y-85993364D01*
X87687295Y-85935315D01*
X87703184Y-85878076D01*
X87721813Y-85821752D01*
X87743173Y-85766415D01*
X87767193Y-85712229D01*
X87793839Y-85659211D01*
X87823075Y-85607508D01*
X87854872Y-85557219D01*
X87889166Y-85508410D01*
X87925916Y-85461230D01*
X87965106Y-85415749D01*
X88006668Y-85372083D01*
X88050350Y-85330500D01*
X88095842Y-85291312D01*
X88143023Y-85254560D01*
X88191807Y-85220270D01*
X88242096Y-85188477D01*
X88293819Y-85159237D01*
X88346822Y-85132584D01*
X88401023Y-85108585D01*
X88456357Y-85087215D01*
X88512686Y-85068580D01*
X88569934Y-85052694D01*
X88627953Y-85039599D01*
X88686716Y-85029346D01*
X88746070Y-85021976D01*
X88805941Y-85017525D01*
X88866216Y-85016046D01*
X88928781Y-85017611D01*
X88990509Y-85022314D01*
X89051328Y-85030033D01*
X89111194Y-85040722D01*
X89170022Y-85054292D01*
X89227692Y-85070689D01*
X89284172Y-85089787D01*
X89339374Y-85111559D01*
X89393219Y-85135910D01*
X89445641Y-85162749D01*
X89496538Y-85192020D01*
X89545871Y-85223632D01*
X89593511Y-85257529D01*
X89639429Y-85293626D01*
X89683538Y-85331815D01*
X89725764Y-85372083D01*
X89766007Y-85414288D01*
X89804223Y-85458388D01*
X89840304Y-85504317D01*
X89874190Y-85551972D01*
X89905808Y-85601314D01*
X89935087Y-85652191D01*
X89961929Y-85704599D01*
X89986268Y-85758461D01*
X90008038Y-85813656D01*
X90027143Y-85870152D01*
X90043528Y-85927819D01*
X90057092Y-85986635D01*
X90067775Y-86046497D01*
X90075535Y-86107320D01*
X90080212Y-86169050D01*
X90081801Y-86231611D01*
X90081801Y-95302721D01*
X90080212Y-95365253D01*
X90075535Y-95426981D01*
X90067775Y-95487826D01*
X90057092Y-95547690D01*
X90043528Y-95606500D01*
X90027143Y-95664183D01*
X90008038Y-95720663D01*
X89986268Y-95775870D01*
X89961929Y-95829695D01*
X89935087Y-95882109D01*
X89905808Y-95933030D01*
X89874190Y-95982350D01*
X89840304Y-96030009D01*
X89804223Y-96075927D01*
X89766007Y-96120032D01*
X89725764Y-96162249D01*
X89683538Y-96202502D01*
X89639429Y-96240700D01*
X89593511Y-96276794D01*
X89545871Y-96310682D01*
X89496538Y-96342303D01*
X89445641Y-96371573D01*
X89393219Y-96398416D01*
X89339374Y-96422756D01*
X89284172Y-96444519D01*
X89227692Y-96463638D01*
X89170022Y-96480021D01*
X89111194Y-96493586D01*
X89051328Y-96504271D01*
X88990509Y-96512007D01*
X88928781Y-96516717D01*
X88866216Y-96518292D01*
X88803655Y-96516717D01*
X88741923Y-96512007D01*
X88681099Y-96504271D01*
X88621237Y-96493586D01*
X88562414Y-96480021D01*
X88504743Y-96463638D01*
X88448264Y-96444519D01*
X88393060Y-96422756D01*
X88339215Y-96398416D01*
X88286808Y-96371573D01*
X88235886Y-96342303D01*
X88186562Y-96310682D01*
X88138923Y-96276794D01*
X88093001Y-96240700D01*
X88048892Y-96202502D01*
X88006668Y-96162249D01*
X87966416Y-96120032D01*
X87928212Y-96075927D01*
X87892126Y-96030009D01*
X87858234Y-95982350D01*
X87826627Y-95933030D01*
X87797349Y-95882109D01*
X87770512Y-95829695D01*
X87746172Y-95775870D01*
X87724395Y-95720663D01*
X87705288Y-95664183D01*
X87688913Y-95606500D01*
X87675332Y-95547690D01*
X87664658Y-95487826D01*
X87656908Y-95426981D01*
X87652223Y-95365253D01*
X87650635Y-95302721D01*
X87650635Y-86231611D01*
X87652134Y-86171337D01*
D10*
G36*
X89398586Y-86910673D02*
G01*
X89405474Y-86911034D01*
X89412148Y-86911646D01*
X89418611Y-86912499D01*
X89424872Y-86913613D01*
X89430901Y-86914961D01*
X89436759Y-86916567D01*
X89442370Y-86918415D01*
X89447789Y-86920518D01*
X89452998Y-86922833D01*
X89457987Y-86925430D01*
X89462764Y-86928267D01*
X89467346Y-86931340D01*
X89471707Y-86934662D01*
X89475859Y-86938230D01*
X89479788Y-86942050D01*
X89483513Y-86946089D01*
X89486979Y-86950337D01*
X89490215Y-86954780D01*
X89493214Y-86959433D01*
X89495983Y-86964287D01*
X89498490Y-86969356D01*
X89500768Y-86974632D01*
X89502803Y-86980076D01*
X89504610Y-86985766D01*
X89506171Y-86991651D01*
X89507472Y-86997715D01*
X89508544Y-87004021D01*
X89509396Y-87010503D01*
X89510001Y-87017186D01*
X89510359Y-87024085D01*
X89510482Y-87031185D01*
X89510482Y-87651852D01*
X89510328Y-87660336D01*
X89509883Y-87668556D01*
X89509145Y-87676546D01*
X89508117Y-87684274D01*
X89506793Y-87691744D01*
X89505188Y-87698981D01*
X89503254Y-87705955D01*
X89501050Y-87712696D01*
X89498544Y-87719186D01*
X89495743Y-87725404D01*
X89492653Y-87731393D01*
X89489251Y-87737131D01*
X89485556Y-87742614D01*
X89481600Y-87747857D01*
X89477324Y-87752849D01*
X89472747Y-87757567D01*
X89467863Y-87762040D01*
X89462758Y-87766220D01*
X89457426Y-87770100D01*
X89451892Y-87773716D01*
X89446106Y-87777029D01*
X89440107Y-87780062D01*
X89433894Y-87782801D01*
X89427447Y-87785254D01*
X89420776Y-87787423D01*
X89413898Y-87789286D01*
X89406783Y-87790870D01*
X89399452Y-87792162D01*
X89391881Y-87793165D01*
X89384094Y-87793901D01*
X89376089Y-87794330D01*
X89367848Y-87794478D01*
X88377352Y-87794478D01*
X88368699Y-87794330D01*
X88360263Y-87793910D01*
X88352143Y-87793208D01*
X88344270Y-87792211D01*
X88336660Y-87790944D01*
X88329334Y-87789394D01*
X88322272Y-87787568D01*
X88315496Y-87785471D01*
X88308967Y-87783066D01*
X88302689Y-87780387D01*
X88296710Y-87777414D01*
X88290992Y-87774191D01*
X88285542Y-87770660D01*
X88280367Y-87766856D01*
X88275448Y-87762767D01*
X88270812Y-87758411D01*
X88266449Y-87753772D01*
X88262365Y-87748872D01*
X88258550Y-87743751D01*
X88255011Y-87738349D01*
X88251791Y-87732689D01*
X88248831Y-87726807D01*
X88246141Y-87720644D01*
X88243756Y-87714246D01*
X88241656Y-87707602D01*
X88239802Y-87700679D01*
X88238254Y-87693514D01*
X88236988Y-87686115D01*
X88236009Y-87678447D01*
X88235297Y-87670531D01*
X88234879Y-87662346D01*
X88234752Y-87653928D01*
X88234879Y-87645697D01*
X88235297Y-87637716D01*
X88236009Y-87629991D01*
X88236988Y-87622465D01*
X88238254Y-87615192D01*
X88239802Y-87608173D01*
X88241656Y-87601387D01*
X88243756Y-87594843D01*
X88246141Y-87588530D01*
X88248831Y-87582479D01*
X88251791Y-87576646D01*
X88255011Y-87571063D01*
X88258550Y-87565701D01*
X88262365Y-87560582D01*
X88266449Y-87555737D01*
X88270812Y-87551109D01*
X88275448Y-87546684D01*
X88280367Y-87542558D01*
X88285542Y-87538706D01*
X88290992Y-87535139D01*
X88296710Y-87531857D01*
X88302689Y-87528859D01*
X88308967Y-87526160D01*
X88315496Y-87523744D01*
X88322272Y-87521601D01*
X88329334Y-87519747D01*
X88336660Y-87518169D01*
X88344270Y-87516893D01*
X88352143Y-87515904D01*
X88360263Y-87515178D01*
X88368699Y-87514754D01*
X88377352Y-87514611D01*
X89274150Y-87514611D01*
X89274150Y-87031185D01*
X89274272Y-87024085D01*
X89274626Y-87017186D01*
X89275225Y-87010503D01*
X89276076Y-87004021D01*
X89277154Y-86997715D01*
X89278466Y-86991651D01*
X89280039Y-86985766D01*
X89281818Y-86980076D01*
X89283852Y-86974632D01*
X89286141Y-86969356D01*
X89288659Y-86964287D01*
X89291416Y-86959433D01*
X89294406Y-86954780D01*
X89297646Y-86950337D01*
X89301114Y-86946089D01*
X89304846Y-86942050D01*
X89308775Y-86938230D01*
X89312908Y-86934662D01*
X89317227Y-86931340D01*
X89321754Y-86928267D01*
X89326481Y-86925430D01*
X89331413Y-86922833D01*
X89336504Y-86920518D01*
X89341828Y-86918415D01*
X89347353Y-86916567D01*
X89353064Y-86914961D01*
X89358973Y-86913613D01*
X89365081Y-86912499D01*
X89371397Y-86911646D01*
X89377883Y-86911034D01*
X89384590Y-86910673D01*
X89391485Y-86910541D01*
X89398586Y-86910673D01*
G37*
G36*
X89430941Y-90793071D02*
G01*
X89436135Y-90793514D01*
X89441245Y-90794160D01*
X89446210Y-90795031D01*
X89451023Y-90796105D01*
X89455696Y-90797359D01*
X89460251Y-90798799D01*
X89464673Y-90800427D01*
X89468955Y-90802254D01*
X89473089Y-90804279D01*
X89477096Y-90806485D01*
X89480977Y-90808892D01*
X89484693Y-90811491D01*
X89488317Y-90814284D01*
X89491762Y-90817262D01*
X89495101Y-90820415D01*
X89498271Y-90823779D01*
X89501346Y-90827335D01*
X89504263Y-90831051D01*
X89506975Y-90834972D01*
X89509503Y-90839012D01*
X89511867Y-90843199D01*
X89514052Y-90847539D01*
X89516071Y-90852017D01*
X89517899Y-90856639D01*
X89519564Y-90861401D01*
X89521056Y-90866305D01*
X89522356Y-90871350D01*
X89523507Y-90876543D01*
X89524467Y-90881877D01*
X89525244Y-90887337D01*
X89525867Y-90892952D01*
X89526303Y-90898702D01*
X89526559Y-90904627D01*
X89526638Y-90910667D01*
X89526528Y-90918232D01*
X89526208Y-90925569D01*
X89525639Y-90932703D01*
X89524861Y-90939615D01*
X89523862Y-90946293D01*
X89522631Y-90952776D01*
X89521172Y-90959032D01*
X89519478Y-90965083D01*
X89517601Y-90970911D01*
X89515477Y-90976518D01*
X89513122Y-90981901D01*
X89510543Y-90987086D01*
X89507766Y-90992031D01*
X89504743Y-90996769D01*
X89501504Y-91001297D01*
X89498031Y-91005602D01*
X89494280Y-91009725D01*
X89490293Y-91013777D01*
X89486027Y-91017766D01*
X89481500Y-91021701D01*
X89476733Y-91025571D01*
X89471734Y-91029374D01*
X89466458Y-91033122D01*
X89460919Y-91036797D01*
X89455162Y-91040428D01*
X89449125Y-91043992D01*
X89442855Y-91047491D01*
X89436324Y-91050941D01*
X89429525Y-91054316D01*
X89422488Y-91057621D01*
X89415198Y-91060883D01*
X89407653Y-91064062D01*
X89234357Y-91138834D01*
X89234357Y-91733839D01*
X89407653Y-91807452D01*
X89422859Y-91814233D01*
X89436994Y-91821107D01*
X89443642Y-91824584D01*
X89450017Y-91828072D01*
X89456127Y-91831594D01*
X89461967Y-91835124D01*
X89467521Y-91838689D01*
X89472817Y-91842276D01*
X89477847Y-91845875D01*
X89482599Y-91849504D01*
X89487083Y-91853167D01*
X89491279Y-91856832D01*
X89495203Y-91860531D01*
X89498866Y-91864248D01*
X89502220Y-91868089D01*
X89505376Y-91872156D01*
X89508306Y-91876426D01*
X89511020Y-91880922D01*
X89513535Y-91885614D01*
X89515805Y-91890531D01*
X89517856Y-91895688D01*
X89519706Y-91901065D01*
X89521326Y-91906628D01*
X89522746Y-91912413D01*
X89523922Y-91918424D01*
X89524914Y-91924667D01*
X89525677Y-91931103D01*
X89526222Y-91937757D01*
X89526528Y-91944643D01*
X89526638Y-91951737D01*
X89526559Y-91957996D01*
X89526287Y-91964088D01*
X89525834Y-91970051D01*
X89525197Y-91975829D01*
X89524386Y-91981479D01*
X89523387Y-91986988D01*
X89522209Y-91992339D01*
X89520846Y-91997545D01*
X89519305Y-92002613D01*
X89517576Y-92007516D01*
X89515673Y-92012275D01*
X89513590Y-92016870D01*
X89511321Y-92021337D01*
X89508864Y-92025646D01*
X89506235Y-92029809D01*
X89503422Y-92033833D01*
X89500424Y-92037679D01*
X89497265Y-92041344D01*
X89494006Y-92044829D01*
X89490624Y-92048135D01*
X89487125Y-92051242D01*
X89483483Y-92054193D01*
X89479744Y-92056943D01*
X89475859Y-92059537D01*
X89471851Y-92061929D01*
X89467732Y-92064155D01*
X89463483Y-92066191D01*
X89459112Y-92068031D01*
X89454622Y-92069701D01*
X89450008Y-92071194D01*
X89445273Y-92072504D01*
X89440416Y-92073620D01*
X89435414Y-92074500D01*
X89430313Y-92075104D01*
X89425167Y-92075482D01*
X89419931Y-92075628D01*
X89414638Y-92075510D01*
X89409268Y-92075162D01*
X89403841Y-92074579D01*
X89398320Y-92073737D01*
X89392747Y-92072650D01*
X89387094Y-92071330D01*
X89381371Y-92069759D01*
X89375576Y-92067952D01*
X89369705Y-92065898D01*
X89363762Y-92063600D01*
X89357757Y-92061073D01*
X89351675Y-92058281D01*
X89016277Y-91905202D01*
X88339629Y-91596416D01*
X88332100Y-91592755D01*
X88324816Y-91588999D01*
X88317802Y-91585169D01*
X88311047Y-91581260D01*
X88304552Y-91577270D01*
X88298340Y-91573189D01*
X88292380Y-91569051D01*
X88286666Y-91564809D01*
X88281227Y-91560488D01*
X88276056Y-91556087D01*
X88271139Y-91551602D01*
X88266480Y-91547036D01*
X88262107Y-91542424D01*
X88257955Y-91537696D01*
X88254096Y-91532890D01*
X88250495Y-91528002D01*
X88247082Y-91522985D01*
X88243884Y-91517867D01*
X88240914Y-91512634D01*
X88238157Y-91507303D01*
X88235635Y-91501862D01*
X88233306Y-91496348D01*
X88231212Y-91490723D01*
X88229355Y-91485004D01*
X88227697Y-91479164D01*
X88226254Y-91473230D01*
X88225052Y-91467195D01*
X88224071Y-91461081D01*
X88223291Y-91454840D01*
X88222744Y-91448505D01*
X88222409Y-91442082D01*
X88222305Y-91435548D01*
X88536151Y-91435548D01*
X88536151Y-91439281D01*
X89016277Y-91640805D01*
X89016277Y-91232579D01*
X88536151Y-91435548D01*
X88222305Y-91435548D01*
X88222409Y-91429080D01*
X88222744Y-91422689D01*
X88223291Y-91416420D01*
X88224071Y-91410234D01*
X88225052Y-91404152D01*
X88226254Y-91398184D01*
X88227697Y-91392308D01*
X88229355Y-91386531D01*
X88231212Y-91380853D01*
X88233306Y-91375273D01*
X88235635Y-91369791D01*
X88238157Y-91364423D01*
X88240914Y-91359149D01*
X88243884Y-91353967D01*
X88247082Y-91348903D01*
X88250495Y-91343931D01*
X88254096Y-91338988D01*
X88257955Y-91334181D01*
X88262107Y-91329441D01*
X88266480Y-91324801D01*
X88271139Y-91320254D01*
X88276056Y-91315824D01*
X88281227Y-91311475D01*
X88286666Y-91307224D01*
X88292380Y-91303081D01*
X88298340Y-91299023D01*
X88304552Y-91295084D01*
X88311047Y-91291231D01*
X88317802Y-91287452D01*
X88324816Y-91283806D01*
X88332100Y-91280217D01*
X88339629Y-91276754D01*
X89351675Y-90811576D01*
X89357761Y-90808734D01*
X89363780Y-90806131D01*
X89369728Y-90803760D01*
X89375629Y-90801626D01*
X89381456Y-90799716D01*
X89387213Y-90798047D01*
X89392912Y-90796610D01*
X89398541Y-90795411D01*
X89404096Y-90794430D01*
X89409604Y-90793691D01*
X89415026Y-90793190D01*
X89420400Y-90792923D01*
X89425716Y-90792875D01*
X89430941Y-90793071D01*
G37*
G36*
X89407242Y-85874691D02*
G01*
X89413687Y-85875013D01*
X89419910Y-85875571D01*
X89425951Y-85876337D01*
X89431795Y-85877331D01*
X89437421Y-85878529D01*
X89442855Y-85879970D01*
X89448075Y-85881623D01*
X89453100Y-85883500D01*
X89457935Y-85885579D01*
X89462580Y-85887881D01*
X89466994Y-85890420D01*
X89471225Y-85893183D01*
X89475245Y-85896159D01*
X89479081Y-85899353D01*
X89482694Y-85902775D01*
X89486058Y-85906339D01*
X89489206Y-85910113D01*
X89492129Y-85914120D01*
X89494859Y-85918312D01*
X89497336Y-85922724D01*
X89499626Y-85927329D01*
X89501686Y-85932152D01*
X89503512Y-85937177D01*
X89505163Y-85942409D01*
X89506563Y-85947851D01*
X89507772Y-85953490D01*
X89508737Y-85959363D01*
X89509499Y-85965422D01*
X89510047Y-85971705D01*
X89510365Y-85978174D01*
X89510482Y-85984854D01*
X89510482Y-86614218D01*
X89510328Y-86622906D01*
X89509883Y-86631341D01*
X89509145Y-86639525D01*
X89508117Y-86647436D01*
X89506793Y-86655120D01*
X89505188Y-86662543D01*
X89503254Y-86669711D01*
X89501050Y-86676610D01*
X89498544Y-86683282D01*
X89495743Y-86689698D01*
X89492653Y-86695844D01*
X89489251Y-86701759D01*
X89485556Y-86707410D01*
X89481600Y-86712803D01*
X89477324Y-86717958D01*
X89472747Y-86722844D01*
X89467859Y-86727411D01*
X89462713Y-86731691D01*
X89457305Y-86735658D01*
X89451659Y-86739355D01*
X89445759Y-86742752D01*
X89439594Y-86745833D01*
X89433179Y-86748645D01*
X89426522Y-86751144D01*
X89419601Y-86753342D01*
X89412445Y-86755281D01*
X89405016Y-86756908D01*
X89397338Y-86758216D01*
X89389410Y-86759260D01*
X89381234Y-86759984D01*
X89372809Y-86760423D01*
X89364129Y-86760600D01*
X88384425Y-86760600D01*
X88375774Y-86760423D01*
X88367403Y-86759984D01*
X88359283Y-86759260D01*
X88351400Y-86758216D01*
X88343761Y-86756908D01*
X88336409Y-86755281D01*
X88329295Y-86753342D01*
X88322429Y-86751144D01*
X88315813Y-86748645D01*
X88309466Y-86745833D01*
X88303367Y-86742752D01*
X88297501Y-86739355D01*
X88291902Y-86735658D01*
X88286549Y-86731691D01*
X88281468Y-86727411D01*
X88276610Y-86722844D01*
X88271993Y-86717958D01*
X88267676Y-86712803D01*
X88263656Y-86707410D01*
X88259925Y-86701759D01*
X88256507Y-86695844D01*
X88253370Y-86689698D01*
X88250530Y-86683282D01*
X88248015Y-86676610D01*
X88245775Y-86669711D01*
X88243845Y-86662543D01*
X88242209Y-86655120D01*
X88240859Y-86647436D01*
X88239802Y-86639525D01*
X88239065Y-86631341D01*
X88238626Y-86622906D01*
X88238477Y-86614218D01*
X88238477Y-85984854D01*
X88238584Y-85978174D01*
X88238928Y-85971705D01*
X88239452Y-85965422D01*
X88240221Y-85959363D01*
X88241218Y-85953490D01*
X88242432Y-85947851D01*
X88243874Y-85942409D01*
X88245522Y-85937177D01*
X88247386Y-85932152D01*
X88249480Y-85927329D01*
X88251800Y-85922724D01*
X88254332Y-85918312D01*
X88257082Y-85914120D01*
X88260051Y-85910113D01*
X88263254Y-85906339D01*
X88266661Y-85902775D01*
X88270223Y-85899353D01*
X88273985Y-85896159D01*
X88277942Y-85893183D01*
X88282087Y-85890420D01*
X88286419Y-85887881D01*
X88290936Y-85885579D01*
X88295651Y-85883500D01*
X88300559Y-85881623D01*
X88305649Y-85879970D01*
X88310944Y-85878529D01*
X88316426Y-85877331D01*
X88322085Y-85876337D01*
X88327961Y-85875571D01*
X88334001Y-85875013D01*
X88340248Y-85874691D01*
X88346689Y-85874562D01*
X88353365Y-85874691D01*
X88359857Y-85875013D01*
X88366113Y-85875571D01*
X88372181Y-85876337D01*
X88378047Y-85877331D01*
X88383694Y-85878529D01*
X88389137Y-85879970D01*
X88394362Y-85881623D01*
X88399387Y-85883500D01*
X88404214Y-85885579D01*
X88408821Y-85887881D01*
X88413218Y-85890420D01*
X88417430Y-85893183D01*
X88421415Y-85896159D01*
X88425210Y-85899353D01*
X88428768Y-85902775D01*
X88432149Y-85906339D01*
X88435296Y-85910113D01*
X88438223Y-85914120D01*
X88440929Y-85918312D01*
X88443424Y-85922724D01*
X88445704Y-85927329D01*
X88447761Y-85932152D01*
X88449615Y-85937177D01*
X88451242Y-85942409D01*
X88452660Y-85947851D01*
X88453835Y-85953490D01*
X88454810Y-85959363D01*
X88455564Y-85965422D01*
X88456128Y-85971705D01*
X88456441Y-85978174D01*
X88456555Y-85984854D01*
X88456555Y-86493566D01*
X88754659Y-86493566D01*
X88754659Y-86026314D01*
X88754770Y-86019435D01*
X88755079Y-86012773D01*
X88755627Y-86006320D01*
X88756394Y-86000095D01*
X88757370Y-85994105D01*
X88758565Y-85988303D01*
X88759973Y-85982729D01*
X88761593Y-85977394D01*
X88763458Y-85972262D01*
X88765507Y-85967378D01*
X88767781Y-85962674D01*
X88770284Y-85958228D01*
X88772995Y-85953976D01*
X88775915Y-85949952D01*
X88779069Y-85946137D01*
X88782442Y-85942555D01*
X88786008Y-85939166D01*
X88789771Y-85935957D01*
X88793793Y-85932977D01*
X88797982Y-85930229D01*
X88802388Y-85927682D01*
X88807004Y-85925396D01*
X88811819Y-85923291D01*
X88816848Y-85921433D01*
X88822075Y-85919766D01*
X88827531Y-85918345D01*
X88833169Y-85917116D01*
X88839022Y-85916129D01*
X88845088Y-85915367D01*
X88851358Y-85914795D01*
X88857830Y-85914467D01*
X88864528Y-85914368D01*
X88871214Y-85914467D01*
X88877673Y-85914795D01*
X88883963Y-85915367D01*
X88890027Y-85916129D01*
X88895868Y-85917116D01*
X88901526Y-85918345D01*
X88906970Y-85919766D01*
X88912204Y-85921433D01*
X88917232Y-85923291D01*
X88922052Y-85925396D01*
X88926657Y-85927682D01*
X88931083Y-85930229D01*
X88935275Y-85932977D01*
X88939260Y-85935957D01*
X88943042Y-85939166D01*
X88946615Y-85942555D01*
X88949982Y-85946137D01*
X88953120Y-85949952D01*
X88956049Y-85953976D01*
X88958766Y-85958228D01*
X88961266Y-85962674D01*
X88963546Y-85967378D01*
X88965607Y-85972262D01*
X88967444Y-85977394D01*
X88969068Y-85982729D01*
X88970488Y-85988303D01*
X88971677Y-85994105D01*
X88972660Y-86000095D01*
X88973417Y-86006320D01*
X88973958Y-86012773D01*
X88974289Y-86019435D01*
X88974393Y-86026314D01*
X88974393Y-86493566D01*
X89291972Y-86493566D01*
X89291972Y-85984854D01*
X89292095Y-85978174D01*
X89292423Y-85971705D01*
X89292964Y-85965422D01*
X89293732Y-85959363D01*
X89294737Y-85953490D01*
X89295952Y-85947851D01*
X89297375Y-85942409D01*
X89299036Y-85937177D01*
X89300903Y-85932152D01*
X89302995Y-85927329D01*
X89305308Y-85922724D01*
X89307831Y-85918312D01*
X89310589Y-85914120D01*
X89313563Y-85910113D01*
X89316761Y-85906339D01*
X89320179Y-85902775D01*
X89323747Y-85899353D01*
X89327506Y-85896159D01*
X89331472Y-85893183D01*
X89335621Y-85890420D01*
X89339965Y-85887881D01*
X89344510Y-85885579D01*
X89349248Y-85883500D01*
X89354166Y-85881623D01*
X89359292Y-85879970D01*
X89364628Y-85878529D01*
X89370118Y-85877331D01*
X89375831Y-85876337D01*
X89381735Y-85875571D01*
X89387837Y-85875013D01*
X89394126Y-85874691D01*
X89400602Y-85874562D01*
X89407242Y-85874691D01*
G37*
G36*
X89404441Y-89306666D02*
G01*
X89411793Y-89307058D01*
X89418935Y-89307690D01*
X89425875Y-89308583D01*
X89432596Y-89309744D01*
X89439106Y-89311152D01*
X89445407Y-89312817D01*
X89451503Y-89314723D01*
X89457379Y-89316889D01*
X89463059Y-89319335D01*
X89468508Y-89322024D01*
X89473759Y-89324953D01*
X89478796Y-89328167D01*
X89483620Y-89331628D01*
X89488246Y-89335323D01*
X89492657Y-89339296D01*
X89496758Y-89343441D01*
X89500619Y-89347830D01*
X89504212Y-89352439D01*
X89507525Y-89357274D01*
X89510565Y-89362344D01*
X89513381Y-89367628D01*
X89515887Y-89373134D01*
X89518143Y-89378887D01*
X89520151Y-89384860D01*
X89521850Y-89391059D01*
X89523336Y-89397471D01*
X89524520Y-89404134D01*
X89525467Y-89410995D01*
X89526116Y-89418103D01*
X89526514Y-89425428D01*
X89526638Y-89432987D01*
X89526514Y-89440555D01*
X89526116Y-89447891D01*
X89525467Y-89455020D01*
X89524520Y-89461931D01*
X89523336Y-89468626D01*
X89521850Y-89475106D01*
X89520151Y-89481363D01*
X89518143Y-89487411D01*
X89515887Y-89493215D01*
X89513381Y-89498836D01*
X89510565Y-89504240D01*
X89507525Y-89509404D01*
X89504212Y-89514372D01*
X89500619Y-89519116D01*
X89496758Y-89523638D01*
X89492657Y-89527930D01*
X89488246Y-89531946D01*
X89483620Y-89535702D01*
X89478796Y-89539209D01*
X89473759Y-89542446D01*
X89468508Y-89545426D01*
X89463059Y-89548148D01*
X89457379Y-89550597D01*
X89451503Y-89552810D01*
X89445407Y-89554761D01*
X89439106Y-89556435D01*
X89432596Y-89557863D01*
X89425875Y-89559038D01*
X89418935Y-89559937D01*
X89411793Y-89560590D01*
X89404441Y-89560979D01*
X89396881Y-89561113D01*
X88737214Y-89561113D01*
X89266693Y-89856702D01*
X89270928Y-89859469D01*
X89275021Y-89862249D01*
X89279000Y-89865048D01*
X89282825Y-89867866D01*
X89286537Y-89870692D01*
X89290109Y-89873565D01*
X89293549Y-89876418D01*
X89296858Y-89879318D01*
X89300019Y-89882223D01*
X89303073Y-89885147D01*
X89305968Y-89888112D01*
X89308745Y-89891070D01*
X89311386Y-89894065D01*
X89313903Y-89897074D01*
X89316278Y-89900099D01*
X89318517Y-89903148D01*
X89320583Y-89906227D01*
X89322494Y-89909411D01*
X89324278Y-89912721D01*
X89325951Y-89916164D01*
X89327495Y-89919720D01*
X89328869Y-89923414D01*
X89330133Y-89927208D01*
X89331275Y-89931143D01*
X89332268Y-89935191D01*
X89333130Y-89939376D01*
X89333852Y-89943660D01*
X89334450Y-89948092D01*
X89334926Y-89952627D01*
X89335247Y-89957303D01*
X89335453Y-89962093D01*
X89335519Y-89966997D01*
X89335441Y-89971920D01*
X89335236Y-89976722D01*
X89334896Y-89981415D01*
X89334408Y-89985997D01*
X89333771Y-89990454D01*
X89333013Y-89994811D01*
X89332101Y-89999039D01*
X89331054Y-90003191D01*
X89329882Y-90007187D01*
X89328552Y-90011083D01*
X89327092Y-90014869D01*
X89325482Y-90018534D01*
X89323747Y-90022100D01*
X89321875Y-90025542D01*
X89319847Y-90028870D01*
X89317684Y-90032096D01*
X89315347Y-90035177D01*
X89312908Y-90038232D01*
X89310345Y-90041236D01*
X89307661Y-90044217D01*
X89304877Y-90047150D01*
X89301968Y-90050058D01*
X89298938Y-90052913D01*
X89295816Y-90055717D01*
X89292574Y-90058505D01*
X89289213Y-90061237D01*
X89285743Y-90063943D01*
X89282158Y-90066614D01*
X89278461Y-90069230D01*
X89274645Y-90071816D01*
X89270732Y-90074360D01*
X89266693Y-90076874D01*
X88740853Y-90372901D01*
X89396881Y-90372901D01*
X89404441Y-90373013D01*
X89411793Y-90373389D01*
X89418935Y-90374015D01*
X89425875Y-90374865D01*
X89432596Y-90375980D01*
X89439106Y-90377336D01*
X89445407Y-90378906D01*
X89451503Y-90380784D01*
X89457379Y-90382866D01*
X89463059Y-90385220D01*
X89468508Y-90387787D01*
X89473759Y-90390624D01*
X89478796Y-90393697D01*
X89483620Y-90397024D01*
X89488246Y-90400588D01*
X89492657Y-90404406D01*
X89496758Y-90408470D01*
X89500619Y-90412786D01*
X89504212Y-90417350D01*
X89507525Y-90422162D01*
X89510565Y-90427218D01*
X89513381Y-90432521D01*
X89515887Y-90438100D01*
X89518143Y-90443904D01*
X89520151Y-90449953D01*
X89521850Y-90456261D01*
X89523336Y-90462819D01*
X89524520Y-90469640D01*
X89525467Y-90476687D01*
X89526116Y-90483988D01*
X89526514Y-90491545D01*
X89526638Y-90499338D01*
X89526514Y-90506919D01*
X89526116Y-90514236D01*
X89525467Y-90521337D01*
X89524520Y-90528218D01*
X89523336Y-90534863D01*
X89521850Y-90541280D01*
X89520151Y-90547490D01*
X89518143Y-90553469D01*
X89515887Y-90559200D01*
X89513381Y-90564724D01*
X89510565Y-90570019D01*
X89507525Y-90575078D01*
X89504212Y-90579911D01*
X89500619Y-90584517D01*
X89496758Y-90588906D01*
X89492657Y-90593055D01*
X89488246Y-90596977D01*
X89483620Y-90600634D01*
X89478796Y-90604047D01*
X89473759Y-90607208D01*
X89468508Y-90610111D01*
X89463059Y-90612757D01*
X89457379Y-90615159D01*
X89451503Y-90617308D01*
X89445407Y-90619201D01*
X89439106Y-90620843D01*
X89432596Y-90622236D01*
X89425875Y-90623371D01*
X89418935Y-90624258D01*
X89411793Y-90624879D01*
X89404441Y-90625277D01*
X89396881Y-90625395D01*
X88352078Y-90625395D01*
X88344513Y-90625260D01*
X88337159Y-90624846D01*
X88330032Y-90624166D01*
X88323092Y-90623208D01*
X88316397Y-90621985D01*
X88309910Y-90620505D01*
X88303610Y-90618738D01*
X88297558Y-90616698D01*
X88291701Y-90614373D01*
X88286059Y-90611777D01*
X88280627Y-90608923D01*
X88275404Y-90605807D01*
X88270427Y-90602406D01*
X88265643Y-90598729D01*
X88261068Y-90594785D01*
X88256730Y-90590563D01*
X88252543Y-90586056D01*
X88248645Y-90581346D01*
X88245017Y-90576436D01*
X88241658Y-90571307D01*
X88238565Y-90565996D01*
X88235746Y-90560458D01*
X88233194Y-90554722D01*
X88230902Y-90548806D01*
X88228904Y-90542649D01*
X88227136Y-90536305D01*
X88225662Y-90529758D01*
X88224450Y-90523015D01*
X88223505Y-90516045D01*
X88222841Y-90508898D01*
X88222433Y-90501526D01*
X88222305Y-90493969D01*
X88222379Y-90487255D01*
X88222630Y-90480745D01*
X88223025Y-90474401D01*
X88223602Y-90468230D01*
X88224323Y-90462242D01*
X88225209Y-90456431D01*
X88226259Y-90450800D01*
X88227485Y-90445350D01*
X88228869Y-90440078D01*
X88230389Y-90434964D01*
X88232101Y-90430064D01*
X88233972Y-90425320D01*
X88235987Y-90420753D01*
X88238172Y-90416370D01*
X88240525Y-90412167D01*
X88243035Y-90408141D01*
X88245743Y-90404215D01*
X88248679Y-90400336D01*
X88251867Y-90396474D01*
X88255259Y-90392634D01*
X88258908Y-90388854D01*
X88262784Y-90385091D01*
X88266880Y-90381356D01*
X88271212Y-90377665D01*
X88275798Y-90374009D01*
X88280605Y-90370372D01*
X88285651Y-90366774D01*
X88290906Y-90363207D01*
X88296423Y-90359683D01*
X88302158Y-90356175D01*
X88308146Y-90352699D01*
X88314321Y-90349272D01*
X89019520Y-89963262D01*
X88314321Y-89577265D01*
X88308146Y-89573881D01*
X88302158Y-89570460D01*
X88296423Y-89567009D01*
X88290906Y-89563507D01*
X88285651Y-89559980D01*
X88280605Y-89556412D01*
X88275798Y-89552816D01*
X88271212Y-89549194D01*
X88266880Y-89545507D01*
X88262784Y-89541799D01*
X88258908Y-89538055D01*
X88255259Y-89534286D01*
X88251867Y-89530478D01*
X88248679Y-89526627D01*
X88245743Y-89522732D01*
X88243035Y-89518827D01*
X88240525Y-89514738D01*
X88238172Y-89510528D01*
X88235987Y-89506126D01*
X88233972Y-89501588D01*
X88232101Y-89496880D01*
X88230389Y-89492018D01*
X88228869Y-89486998D01*
X88227485Y-89481807D01*
X88226259Y-89476483D01*
X88225209Y-89470976D01*
X88224323Y-89465317D01*
X88223602Y-89459485D01*
X88223025Y-89453528D01*
X88222630Y-89447387D01*
X88222379Y-89441101D01*
X88222305Y-89434646D01*
X88222433Y-89427111D01*
X88222841Y-89419751D01*
X88223505Y-89412629D01*
X88224450Y-89405728D01*
X88225662Y-89399053D01*
X88227136Y-89392597D01*
X88228904Y-89386358D01*
X88230902Y-89380349D01*
X88233194Y-89374540D01*
X88235746Y-89368962D01*
X88238565Y-89363597D01*
X88241658Y-89358464D01*
X88245017Y-89353553D01*
X88248645Y-89348849D01*
X88252543Y-89344368D01*
X88256730Y-89340115D01*
X88261068Y-89336049D01*
X88265643Y-89332251D01*
X88270427Y-89328714D01*
X88275404Y-89325429D01*
X88280627Y-89322420D01*
X88286059Y-89319661D01*
X88291701Y-89317176D01*
X88297558Y-89314943D01*
X88303610Y-89312978D01*
X88309910Y-89311259D01*
X88316397Y-89309822D01*
X88323092Y-89308646D01*
X88330032Y-89307712D01*
X88337159Y-89307065D01*
X88344513Y-89306667D01*
X88352078Y-89306545D01*
X89396881Y-89306545D01*
X89404441Y-89306666D01*
G37*
G36*
X89172323Y-88006234D02*
G01*
X89192653Y-88007609D01*
X89212390Y-88009893D01*
X89231555Y-88013111D01*
X89250127Y-88017240D01*
X89268126Y-88022276D01*
X89285520Y-88028225D01*
X89302353Y-88035109D01*
X89318594Y-88042897D01*
X89334243Y-88051607D01*
X89349321Y-88061219D01*
X89363814Y-88071766D01*
X89377723Y-88083236D01*
X89391043Y-88095618D01*
X89403788Y-88108909D01*
X89415961Y-88123115D01*
X89427404Y-88138062D01*
X89438099Y-88153718D01*
X89448075Y-88170082D01*
X89457305Y-88187112D01*
X89465789Y-88204848D01*
X89473548Y-88223281D01*
X89480564Y-88242403D01*
X89486848Y-88262215D01*
X89492379Y-88282705D01*
X89497191Y-88303917D01*
X89501252Y-88325817D01*
X89504580Y-88348392D01*
X89507156Y-88371670D01*
X89509007Y-88395647D01*
X89510110Y-88420308D01*
X89510482Y-88445666D01*
X89510482Y-88902157D01*
X89510328Y-88910820D01*
X89509883Y-88919267D01*
X89509145Y-88927441D01*
X89508117Y-88935354D01*
X89506793Y-88943037D01*
X89505188Y-88950473D01*
X89503254Y-88957633D01*
X89501050Y-88964556D01*
X89498544Y-88971217D01*
X89495743Y-88977625D01*
X89492653Y-88983784D01*
X89489251Y-88989675D01*
X89485556Y-88995346D01*
X89481600Y-89000733D01*
X89477324Y-89005888D01*
X89472747Y-89010776D01*
X89467859Y-89015339D01*
X89462713Y-89019621D01*
X89457305Y-89023609D01*
X89451659Y-89027279D01*
X89445759Y-89030674D01*
X89439594Y-89033767D01*
X89433179Y-89036567D01*
X89426522Y-89039070D01*
X89419601Y-89041287D01*
X89412445Y-89043209D01*
X89405016Y-89044813D01*
X89397338Y-89046138D01*
X89389410Y-89047189D01*
X89381234Y-89047913D01*
X89372809Y-89048349D01*
X89364129Y-89048506D01*
X89303174Y-89048506D01*
X88761711Y-89048506D01*
X88384425Y-89048506D01*
X88375774Y-89048349D01*
X88367403Y-89047913D01*
X88359283Y-89047189D01*
X88351400Y-89046138D01*
X88343761Y-89044813D01*
X88336409Y-89043209D01*
X88329295Y-89041287D01*
X88322429Y-89039070D01*
X88315813Y-89036567D01*
X88309466Y-89033767D01*
X88303367Y-89030674D01*
X88297501Y-89027279D01*
X88291902Y-89023609D01*
X88286549Y-89019621D01*
X88281468Y-89015339D01*
X88276610Y-89010776D01*
X88271993Y-89005888D01*
X88267676Y-89000733D01*
X88263656Y-88995346D01*
X88259925Y-88989675D01*
X88256507Y-88983784D01*
X88253370Y-88977625D01*
X88250530Y-88971217D01*
X88248015Y-88964556D01*
X88245775Y-88957633D01*
X88243845Y-88950473D01*
X88242209Y-88943037D01*
X88240859Y-88935354D01*
X88239802Y-88927441D01*
X88239065Y-88919267D01*
X88238626Y-88910820D01*
X88238477Y-88902157D01*
X88238477Y-88514495D01*
X88445769Y-88514495D01*
X88445769Y-88781502D01*
X88761711Y-88781502D01*
X88761711Y-88514495D01*
X88761549Y-88501596D01*
X88761075Y-88489125D01*
X88760730Y-88483811D01*
X88969000Y-88483811D01*
X88969000Y-88781502D01*
X89303174Y-88781502D01*
X89303174Y-88483811D01*
X89303003Y-88470511D01*
X89302523Y-88457660D01*
X89301697Y-88445251D01*
X89300542Y-88433318D01*
X89299045Y-88421816D01*
X89297234Y-88410762D01*
X89295080Y-88400170D01*
X89292604Y-88390013D01*
X89289798Y-88380320D01*
X89286663Y-88371058D01*
X89283195Y-88362259D01*
X89279384Y-88353905D01*
X89275264Y-88346017D01*
X89270806Y-88338565D01*
X89266008Y-88331557D01*
X89260894Y-88325017D01*
X89255391Y-88318893D01*
X89249570Y-88313164D01*
X89243470Y-88307843D01*
X89237030Y-88302885D01*
X89230270Y-88298340D01*
X89223199Y-88294193D01*
X89215824Y-88290451D01*
X89208126Y-88287092D01*
X89200113Y-88284115D01*
X89191797Y-88281544D01*
X89183160Y-88279379D01*
X89174216Y-88277598D01*
X89164940Y-88276217D01*
X89155369Y-88275228D01*
X89145473Y-88274638D01*
X89135259Y-88274424D01*
X89125066Y-88274638D01*
X89115180Y-88275228D01*
X89105638Y-88276217D01*
X89096377Y-88277598D01*
X89087487Y-88279379D01*
X89078898Y-88281544D01*
X89070642Y-88284115D01*
X89062703Y-88287092D01*
X89055098Y-88290451D01*
X89047804Y-88294193D01*
X89040832Y-88298340D01*
X89034195Y-88302885D01*
X89027884Y-88307843D01*
X89021893Y-88313164D01*
X89016216Y-88318893D01*
X89010883Y-88325017D01*
X89005809Y-88331557D01*
X89001066Y-88338565D01*
X88996648Y-88346017D01*
X88992558Y-88353905D01*
X88988793Y-88362259D01*
X88985365Y-88371058D01*
X88982254Y-88380320D01*
X88979482Y-88390013D01*
X88977014Y-88400170D01*
X88974898Y-88410762D01*
X88973101Y-88421816D01*
X88971619Y-88433318D01*
X88970484Y-88445251D01*
X88969660Y-88457660D01*
X88969163Y-88470511D01*
X88969000Y-88483811D01*
X88760730Y-88483811D01*
X88760294Y-88477089D01*
X88759210Y-88465463D01*
X88757818Y-88454284D01*
X88756108Y-88443512D01*
X88754083Y-88433178D01*
X88751747Y-88423275D01*
X88749114Y-88413809D01*
X88746155Y-88404758D01*
X88742887Y-88396140D01*
X88739301Y-88387944D01*
X88735418Y-88380160D01*
X88731237Y-88372834D01*
X88726720Y-88365918D01*
X88721912Y-88359431D01*
X88716760Y-88353312D01*
X88711328Y-88347580D01*
X88705588Y-88342234D01*
X88699541Y-88337298D01*
X88693179Y-88332757D01*
X88686509Y-88328624D01*
X88679530Y-88324857D01*
X88672257Y-88321498D01*
X88664670Y-88318520D01*
X88656781Y-88315960D01*
X88648555Y-88313791D01*
X88640049Y-88312021D01*
X88631217Y-88310626D01*
X88622089Y-88309635D01*
X88612662Y-88309042D01*
X88602899Y-88308847D01*
X88593369Y-88309042D01*
X88584118Y-88309635D01*
X88575155Y-88310626D01*
X88566501Y-88312021D01*
X88558127Y-88313791D01*
X88550062Y-88315960D01*
X88542301Y-88318520D01*
X88534815Y-88321498D01*
X88527620Y-88324857D01*
X88520739Y-88328624D01*
X88514138Y-88332757D01*
X88507834Y-88337298D01*
X88501826Y-88342234D01*
X88496114Y-88347580D01*
X88490696Y-88353312D01*
X88485581Y-88359431D01*
X88480746Y-88365918D01*
X88476254Y-88372834D01*
X88472043Y-88380160D01*
X88468171Y-88387944D01*
X88464573Y-88396140D01*
X88461311Y-88404758D01*
X88458362Y-88413809D01*
X88455722Y-88423275D01*
X88453387Y-88433178D01*
X88451375Y-88443512D01*
X88449665Y-88454284D01*
X88448264Y-88465463D01*
X88447179Y-88477089D01*
X88446394Y-88489125D01*
X88445932Y-88501596D01*
X88445769Y-88514495D01*
X88238477Y-88514495D01*
X88238477Y-88465585D01*
X88239078Y-88432399D01*
X88240953Y-88400482D01*
X88242359Y-88384978D01*
X88244064Y-88369796D01*
X88246088Y-88354928D01*
X88248429Y-88340367D01*
X88251058Y-88326112D01*
X88254025Y-88312162D01*
X88257281Y-88298542D01*
X88260857Y-88285220D01*
X88264747Y-88272209D01*
X88268932Y-88259516D01*
X88273439Y-88247133D01*
X88278262Y-88235046D01*
X88283325Y-88223256D01*
X88288661Y-88211831D01*
X88294267Y-88200758D01*
X88300141Y-88190042D01*
X88306296Y-88179694D01*
X88312709Y-88169697D01*
X88319409Y-88160043D01*
X88326367Y-88150791D01*
X88333603Y-88141870D01*
X88341117Y-88133305D01*
X88348894Y-88125114D01*
X88356948Y-88117278D01*
X88365289Y-88109815D01*
X88373855Y-88102689D01*
X88382733Y-88095920D01*
X88391869Y-88089525D01*
X88401217Y-88083496D01*
X88410789Y-88077860D01*
X88420575Y-88072619D01*
X88430585Y-88067754D01*
X88440841Y-88063284D01*
X88451316Y-88059193D01*
X88462015Y-88055525D01*
X88472938Y-88052209D01*
X88484075Y-88049295D01*
X88495461Y-88046771D01*
X88507080Y-88044625D01*
X88518902Y-88042877D01*
X88530966Y-88041520D01*
X88543238Y-88040567D01*
X88555752Y-88039962D01*
X88568491Y-88039768D01*
X88582553Y-88040035D01*
X88596375Y-88040790D01*
X88609904Y-88042063D01*
X88623180Y-88043845D01*
X88636169Y-88046135D01*
X88648921Y-88048928D01*
X88661393Y-88052239D01*
X88673607Y-88056045D01*
X88685539Y-88060377D01*
X88697211Y-88065187D01*
X88708616Y-88070542D01*
X88719771Y-88076386D01*
X88730661Y-88082751D01*
X88741271Y-88089614D01*
X88751613Y-88096988D01*
X88761711Y-88104866D01*
X88771403Y-88113181D01*
X88780681Y-88121896D01*
X88789572Y-88130983D01*
X88798067Y-88140444D01*
X88806136Y-88150283D01*
X88813801Y-88160512D01*
X88821072Y-88171113D01*
X88827934Y-88182093D01*
X88834390Y-88193443D01*
X88840444Y-88205168D01*
X88846085Y-88217291D01*
X88851337Y-88229790D01*
X88851718Y-88230800D01*
X88854590Y-88221321D01*
X88859554Y-88206911D01*
X88864942Y-88192960D01*
X88870792Y-88179467D01*
X88877065Y-88166442D01*
X88883781Y-88153863D01*
X88890957Y-88141751D01*
X88898576Y-88130109D01*
X88906638Y-88118913D01*
X88915127Y-88108175D01*
X88924069Y-88097899D01*
X88933468Y-88088099D01*
X88943303Y-88078764D01*
X88953489Y-88069904D01*
X88964055Y-88061648D01*
X88974982Y-88053942D01*
X88986310Y-88046824D01*
X88998001Y-88040268D01*
X89010082Y-88034283D01*
X89022515Y-88028850D01*
X89035330Y-88024021D01*
X89048538Y-88019729D01*
X89062102Y-88016035D01*
X89076064Y-88012909D01*
X89090382Y-88010344D01*
X89105072Y-88008358D01*
X89120150Y-88006912D01*
X89135609Y-88006056D01*
X89151437Y-88005774D01*
X89172323Y-88006234D01*
G37*
G36*
X89429627Y-92182683D02*
G01*
X89434951Y-92183012D01*
X89440147Y-92183569D01*
X89445236Y-92184344D01*
X89450180Y-92185337D01*
X89455006Y-92186566D01*
X89459680Y-92188019D01*
X89464272Y-92189697D01*
X89468714Y-92191599D01*
X89473016Y-92193758D01*
X89477212Y-92196098D01*
X89481277Y-92198697D01*
X89485208Y-92201496D01*
X89489023Y-92204547D01*
X89492720Y-92207824D01*
X89496263Y-92211318D01*
X89499691Y-92215044D01*
X89502954Y-92218975D01*
X89506016Y-92223161D01*
X89508860Y-92227562D01*
X89511494Y-92232189D01*
X89513907Y-92237055D01*
X89516112Y-92242123D01*
X89518116Y-92247433D01*
X89519900Y-92252972D01*
X89521487Y-92258734D01*
X89522851Y-92264724D01*
X89524012Y-92270940D01*
X89524961Y-92277386D01*
X89525698Y-92284056D01*
X89526228Y-92290952D01*
X89526537Y-92298076D01*
X89526638Y-92305426D01*
X89526542Y-92312797D01*
X89526246Y-92319970D01*
X89525757Y-92326990D01*
X89525076Y-92333848D01*
X89524173Y-92340503D01*
X89523084Y-92346987D01*
X89521810Y-92353289D01*
X89520335Y-92359423D01*
X89518639Y-92365382D01*
X89516768Y-92371133D01*
X89514689Y-92376720D01*
X89512426Y-92382151D01*
X89509956Y-92387387D01*
X89507282Y-92392444D01*
X89504419Y-92397324D01*
X89501360Y-92402021D01*
X89498087Y-92406612D01*
X89494612Y-92411123D01*
X89490942Y-92415579D01*
X89487030Y-92419973D01*
X89482918Y-92424314D01*
X89478600Y-92428595D01*
X89474063Y-92432798D01*
X89469328Y-92436953D01*
X89464380Y-92441045D01*
X89459210Y-92445066D01*
X89453846Y-92449034D01*
X89448256Y-92452938D01*
X89442467Y-92456775D01*
X89436461Y-92460569D01*
X89430254Y-92464290D01*
X89423824Y-92467945D01*
X89104576Y-92640842D01*
X89098382Y-92644300D01*
X89092460Y-92647853D01*
X89086758Y-92651515D01*
X89081333Y-92655245D01*
X89076172Y-92659078D01*
X89071264Y-92662990D01*
X89066596Y-92667004D01*
X89062188Y-92671095D01*
X89058042Y-92675294D01*
X89054147Y-92679566D01*
X89050502Y-92683944D01*
X89047130Y-92688420D01*
X89043996Y-92692957D01*
X89041146Y-92697609D01*
X89038525Y-92702335D01*
X89036168Y-92707175D01*
X89033959Y-92712056D01*
X89031887Y-92717075D01*
X89029961Y-92722242D01*
X89028193Y-92727547D01*
X89026551Y-92732967D01*
X89025048Y-92738536D01*
X89023699Y-92744234D01*
X89022481Y-92750087D01*
X89021411Y-92756064D01*
X89020493Y-92762175D01*
X89019702Y-92768425D01*
X89019069Y-92774807D01*
X89018565Y-92781326D01*
X89018205Y-92787968D01*
X89018005Y-92794776D01*
X89017924Y-92801721D01*
X89017924Y-92938547D01*
X89382367Y-92938547D01*
X89390800Y-92938654D01*
X89398993Y-92939075D01*
X89406950Y-92939754D01*
X89414685Y-92940719D01*
X89422174Y-92941961D01*
X89429414Y-92943475D01*
X89436422Y-92945259D01*
X89443211Y-92947325D01*
X89449748Y-92949689D01*
X89456050Y-92952292D01*
X89462117Y-92955176D01*
X89467953Y-92958338D01*
X89473548Y-92961790D01*
X89478902Y-92965508D01*
X89484032Y-92969497D01*
X89488918Y-92973760D01*
X89493490Y-92978310D01*
X89497765Y-92983094D01*
X89501741Y-92988157D01*
X89505419Y-92993484D01*
X89508807Y-92999083D01*
X89511926Y-93004910D01*
X89514717Y-93011044D01*
X89517215Y-93017407D01*
X89519408Y-93024019D01*
X89521337Y-93030931D01*
X89522963Y-93038101D01*
X89524289Y-93045519D01*
X89525308Y-93053196D01*
X89526056Y-93061144D01*
X89526495Y-93069354D01*
X89526638Y-93077827D01*
X89526495Y-93086254D01*
X89526056Y-93094427D01*
X89525308Y-93102349D01*
X89524289Y-93110014D01*
X89522963Y-93117421D01*
X89521337Y-93124574D01*
X89519408Y-93131487D01*
X89517215Y-93138145D01*
X89514717Y-93144562D01*
X89511926Y-93150716D01*
X89508807Y-93156599D01*
X89505419Y-93162246D01*
X89501741Y-93167655D01*
X89497765Y-93172790D01*
X89493490Y-93177670D01*
X89488918Y-93182296D01*
X89484032Y-93186680D01*
X89478902Y-93190755D01*
X89473548Y-93194566D01*
X89467953Y-93198083D01*
X89462117Y-93201325D01*
X89456050Y-93204282D01*
X89449748Y-93206974D01*
X89443211Y-93209358D01*
X89436422Y-93211484D01*
X89429414Y-93213293D01*
X89422174Y-93214856D01*
X89414685Y-93216121D01*
X89406950Y-93217111D01*
X89398993Y-93217812D01*
X89390800Y-93218228D01*
X89382367Y-93218372D01*
X88815609Y-93218372D01*
X88381100Y-93218372D01*
X88372422Y-93218228D01*
X88363999Y-93217791D01*
X88355877Y-93217061D01*
X88348005Y-93216063D01*
X88340415Y-93214779D01*
X88333079Y-93213182D01*
X88326020Y-93211320D01*
X88319210Y-93209154D01*
X88312692Y-93206695D01*
X88306436Y-93203956D01*
X88300457Y-93200942D01*
X88294732Y-93197634D01*
X88289281Y-93194019D01*
X88284108Y-93190128D01*
X88279196Y-93185950D01*
X88274543Y-93181470D01*
X88270185Y-93176734D01*
X88266079Y-93171746D01*
X88262284Y-93166512D01*
X88258766Y-93161050D01*
X88255516Y-93155298D01*
X88252562Y-93149312D01*
X88249888Y-93143082D01*
X88247500Y-93136600D01*
X88245361Y-93129859D01*
X88243537Y-93122880D01*
X88242005Y-93115653D01*
X88240725Y-93108177D01*
X88239745Y-93100439D01*
X88239030Y-93092461D01*
X88238622Y-93084231D01*
X88238477Y-93075749D01*
X88238477Y-92688105D01*
X88456555Y-92688105D01*
X88456555Y-92938547D01*
X88815609Y-92938547D01*
X88815609Y-92688105D01*
X88815434Y-92674320D01*
X88814902Y-92660964D01*
X88814034Y-92648057D01*
X88812797Y-92635574D01*
X88811221Y-92623533D01*
X88809296Y-92611892D01*
X88807021Y-92600705D01*
X88804423Y-92589923D01*
X88801440Y-92579610D01*
X88798112Y-92569713D01*
X88794435Y-92560227D01*
X88790408Y-92551205D01*
X88786046Y-92542587D01*
X88781322Y-92534428D01*
X88776247Y-92526665D01*
X88770820Y-92519348D01*
X88765003Y-92512480D01*
X88758818Y-92506032D01*
X88752283Y-92500059D01*
X88745419Y-92494509D01*
X88738164Y-92489406D01*
X88730571Y-92484738D01*
X88722638Y-92480522D01*
X88714326Y-92476768D01*
X88705684Y-92473433D01*
X88696672Y-92470542D01*
X88687331Y-92468109D01*
X88677610Y-92466114D01*
X88667541Y-92464547D01*
X88657136Y-92463441D01*
X88646363Y-92462768D01*
X88635244Y-92462545D01*
X88624373Y-92462768D01*
X88613843Y-92463441D01*
X88603655Y-92464547D01*
X88593783Y-92466114D01*
X88584263Y-92468109D01*
X88575086Y-92470542D01*
X88566232Y-92473433D01*
X88557725Y-92476768D01*
X88549540Y-92480522D01*
X88541696Y-92484738D01*
X88534208Y-92489406D01*
X88527036Y-92494509D01*
X88520212Y-92500059D01*
X88513721Y-92506032D01*
X88507560Y-92512480D01*
X88501750Y-92519348D01*
X88496282Y-92526665D01*
X88491153Y-92534428D01*
X88486390Y-92542587D01*
X88481973Y-92551205D01*
X88477915Y-92560227D01*
X88474203Y-92569713D01*
X88470853Y-92579610D01*
X88467836Y-92589923D01*
X88465207Y-92600705D01*
X88462912Y-92611892D01*
X88460970Y-92623533D01*
X88459378Y-92635574D01*
X88458143Y-92648057D01*
X88457256Y-92660964D01*
X88456720Y-92674320D01*
X88456555Y-92688105D01*
X88238477Y-92688105D01*
X88238477Y-92637510D01*
X88238875Y-92611271D01*
X88240079Y-92585765D01*
X88242082Y-92561050D01*
X88244892Y-92537080D01*
X88248514Y-92513885D01*
X88252925Y-92491450D01*
X88258146Y-92469784D01*
X88264179Y-92448877D01*
X88271004Y-92428735D01*
X88278646Y-92409349D01*
X88287069Y-92390755D01*
X88296310Y-92372896D01*
X88306360Y-92355813D01*
X88317198Y-92339495D01*
X88328849Y-92323933D01*
X88341287Y-92309154D01*
X88354464Y-92295146D01*
X88368268Y-92282031D01*
X88382710Y-92269832D01*
X88397792Y-92258552D01*
X88413485Y-92248157D01*
X88429839Y-92238668D01*
X88446814Y-92230077D01*
X88464443Y-92222398D01*
X88482678Y-92215613D01*
X88501571Y-92209727D01*
X88521076Y-92204772D01*
X88541240Y-92200705D01*
X88562021Y-92197553D01*
X88583447Y-92195289D01*
X88605499Y-92193925D01*
X88628209Y-92193471D01*
X88642947Y-92193668D01*
X88657452Y-92194287D01*
X88671679Y-92195317D01*
X88685675Y-92196739D01*
X88699418Y-92198588D01*
X88712888Y-92200823D01*
X88726128Y-92203472D01*
X88739101Y-92206542D01*
X88751836Y-92210007D01*
X88764295Y-92213884D01*
X88776511Y-92218163D01*
X88788488Y-92222855D01*
X88800198Y-92227957D01*
X88811678Y-92233470D01*
X88822881Y-92239383D01*
X88833837Y-92245723D01*
X88844532Y-92252431D01*
X88854893Y-92259503D01*
X88864934Y-92266943D01*
X88874688Y-92274726D01*
X88884099Y-92282899D01*
X88893228Y-92291425D01*
X88902046Y-92300311D01*
X88910566Y-92309561D01*
X88918732Y-92319183D01*
X88926612Y-92329163D01*
X88934188Y-92339500D01*
X88941438Y-92350192D01*
X88948375Y-92361264D01*
X88955014Y-92372689D01*
X88961340Y-92384472D01*
X88967348Y-92396634D01*
X88973018Y-92409085D01*
X88978333Y-92421905D01*
X88983266Y-92435039D01*
X88987841Y-92448541D01*
X88992059Y-92462381D01*
X88994654Y-92472005D01*
X88995322Y-92469806D01*
X88998091Y-92461769D01*
X89001156Y-92453863D01*
X89004505Y-92446095D01*
X89008138Y-92438483D01*
X89012090Y-92431037D01*
X89016313Y-92423713D01*
X89020826Y-92416528D01*
X89025590Y-92409436D01*
X89030659Y-92402471D01*
X89036022Y-92395631D01*
X89041689Y-92388907D01*
X89047661Y-92382325D01*
X89053920Y-92375841D01*
X89060495Y-92369488D01*
X89067355Y-92363258D01*
X89074542Y-92357153D01*
X89082016Y-92351173D01*
X89089794Y-92345316D01*
X89097861Y-92339573D01*
X89106247Y-92333962D01*
X89114921Y-92328469D01*
X89123912Y-92323102D01*
X89133192Y-92317846D01*
X89340901Y-92206329D01*
X89346549Y-92203267D01*
X89352165Y-92200422D01*
X89357798Y-92197791D01*
X89363392Y-92195369D01*
X89368990Y-92193155D01*
X89374572Y-92191156D01*
X89380126Y-92189364D01*
X89385688Y-92187773D01*
X89391222Y-92186406D01*
X89396742Y-92185244D01*
X89402259Y-92184293D01*
X89407769Y-92183560D01*
X89413249Y-92183015D01*
X89418722Y-92182699D01*
X89424183Y-92182606D01*
X89429627Y-92182683D01*
G37*
G36*
X89328149Y-93414296D02*
G01*
X89332665Y-93414579D01*
X89337170Y-93415019D01*
X89341685Y-93415620D01*
X89346208Y-93416372D01*
X89350700Y-93417300D01*
X89355202Y-93418377D01*
X89359721Y-93419625D01*
X89364224Y-93421037D01*
X89368738Y-93422615D01*
X89373242Y-93424338D01*
X89377718Y-93426216D01*
X89382094Y-93428262D01*
X89386384Y-93430527D01*
X89390603Y-93432995D01*
X89394739Y-93435665D01*
X89398787Y-93438533D01*
X89402737Y-93441596D01*
X89406619Y-93444863D01*
X89410413Y-93448331D01*
X89414112Y-93451998D01*
X89417744Y-93455880D01*
X89421281Y-93459936D01*
X89424748Y-93464206D01*
X89428111Y-93468691D01*
X89431408Y-93473355D01*
X89434608Y-93478237D01*
X89440150Y-93486710D01*
X89445593Y-93495400D01*
X89450847Y-93504348D01*
X89455949Y-93513542D01*
X89460896Y-93522963D01*
X89465690Y-93532615D01*
X89470323Y-93542529D01*
X89474822Y-93552659D01*
X89479143Y-93563047D01*
X89483325Y-93573661D01*
X89487324Y-93584529D01*
X89491207Y-93595625D01*
X89494898Y-93606962D01*
X89498450Y-93618547D01*
X89501854Y-93630373D01*
X89505087Y-93642416D01*
X89511011Y-93666741D01*
X89516165Y-93691022D01*
X89520492Y-93715257D01*
X89524041Y-93739443D01*
X89526821Y-93763558D01*
X89528810Y-93787644D01*
X89529977Y-93811663D01*
X89530375Y-93835617D01*
X89530072Y-93861095D01*
X89529116Y-93886122D01*
X89527520Y-93910658D01*
X89525295Y-93934735D01*
X89522443Y-93958387D01*
X89518948Y-93981504D01*
X89514822Y-94004216D01*
X89510071Y-94026453D01*
X89504661Y-94048224D01*
X89498641Y-94069518D01*
X89491957Y-94090369D01*
X89484661Y-94110746D01*
X89476730Y-94130658D01*
X89468154Y-94150110D01*
X89458962Y-94169109D01*
X89449116Y-94187622D01*
X89438706Y-94205611D01*
X89427774Y-94223056D01*
X89416351Y-94239984D01*
X89404388Y-94256370D01*
X89391924Y-94272235D01*
X89378951Y-94287576D01*
X89365469Y-94302398D01*
X89351472Y-94316680D01*
X89336968Y-94330433D01*
X89321943Y-94343654D01*
X89306419Y-94356350D01*
X89290363Y-94368533D01*
X89273820Y-94380159D01*
X89256754Y-94391290D01*
X89239179Y-94401878D01*
X89221086Y-94411921D01*
X89202481Y-94421424D01*
X89183472Y-94430281D01*
X89164020Y-94438548D01*
X89144169Y-94446210D01*
X89123914Y-94453252D01*
X89103232Y-94459679D01*
X89082146Y-94465484D01*
X89060653Y-94470700D01*
X89038712Y-94475295D01*
X89016373Y-94479266D01*
X88993622Y-94482643D01*
X88970453Y-94485400D01*
X88946888Y-94487537D01*
X88922875Y-94489060D01*
X88898467Y-94489984D01*
X88873649Y-94490281D01*
X88836700Y-94489597D01*
X88800677Y-94487551D01*
X88765592Y-94484120D01*
X88731428Y-94479320D01*
X88714703Y-94476381D01*
X88698235Y-94473124D01*
X88681952Y-94469521D01*
X88665922Y-94465555D01*
X88650148Y-94461282D01*
X88634572Y-94456646D01*
X88619248Y-94451689D01*
X88604161Y-94446346D01*
X88589264Y-94440635D01*
X88574634Y-94434613D01*
X88560284Y-94428291D01*
X88546189Y-94421637D01*
X88532357Y-94414691D01*
X88518820Y-94407401D01*
X88505528Y-94399810D01*
X88492532Y-94391931D01*
X88479780Y-94383712D01*
X88467309Y-94375175D01*
X88455091Y-94366343D01*
X88443166Y-94357160D01*
X88431484Y-94347708D01*
X88420084Y-94337916D01*
X88408966Y-94327812D01*
X88398092Y-94317406D01*
X88387521Y-94306634D01*
X88377259Y-94295579D01*
X88367275Y-94284253D01*
X88357614Y-94272624D01*
X88348263Y-94260718D01*
X88339215Y-94248524D01*
X88330458Y-94236051D01*
X88322017Y-94223284D01*
X88313873Y-94210231D01*
X88306040Y-94196917D01*
X88298497Y-94183288D01*
X88291278Y-94169381D01*
X88284360Y-94155187D01*
X88277735Y-94140712D01*
X88271427Y-94125974D01*
X88265424Y-94110911D01*
X88259749Y-94095565D01*
X88254443Y-94079960D01*
X88249503Y-94064105D01*
X88244922Y-94048015D01*
X88240706Y-94031661D01*
X88236865Y-94015083D01*
X88233394Y-93998238D01*
X88230274Y-93981165D01*
X88227540Y-93963837D01*
X88225156Y-93946251D01*
X88223145Y-93928431D01*
X88221506Y-93910353D01*
X88220235Y-93892038D01*
X88219296Y-93873492D01*
X88218747Y-93854675D01*
X88218573Y-93835617D01*
X88218937Y-93812986D01*
X88219988Y-93790286D01*
X88221766Y-93767485D01*
X88224273Y-93744635D01*
X88227483Y-93721678D01*
X88231393Y-93698650D01*
X88236027Y-93675547D01*
X88241379Y-93652373D01*
X88247266Y-93629521D01*
X88253754Y-93607445D01*
X88260854Y-93586085D01*
X88268531Y-93565519D01*
X88276818Y-93545668D01*
X88285689Y-93526609D01*
X88295152Y-93508264D01*
X88305232Y-93490683D01*
X88308435Y-93485196D01*
X88311748Y-93479938D01*
X88315157Y-93474889D01*
X88318650Y-93470079D01*
X88322286Y-93465477D01*
X88325992Y-93461111D01*
X88329820Y-93456976D01*
X88333733Y-93453032D01*
X88337745Y-93449365D01*
X88341865Y-93445868D01*
X88346068Y-93442637D01*
X88350375Y-93439609D01*
X88354813Y-93436804D01*
X88359318Y-93434215D01*
X88363939Y-93431864D01*
X88368660Y-93429730D01*
X88373372Y-93427754D01*
X88378074Y-93425949D01*
X88382812Y-93424316D01*
X88387524Y-93422897D01*
X88392246Y-93421651D01*
X88396967Y-93420557D01*
X88401667Y-93419668D01*
X88406389Y-93418950D01*
X88411110Y-93418414D01*
X88415833Y-93418068D01*
X88420528Y-93417912D01*
X88425258Y-93417917D01*
X88429963Y-93418110D01*
X88434680Y-93418485D01*
X88439406Y-93419043D01*
X88444113Y-93419780D01*
X88448788Y-93420628D01*
X88453379Y-93421629D01*
X88457905Y-93422752D01*
X88462346Y-93424025D01*
X88466675Y-93425455D01*
X88470958Y-93427020D01*
X88475160Y-93428714D01*
X88479255Y-93430563D01*
X88483286Y-93432554D01*
X88487216Y-93434669D01*
X88491097Y-93436951D01*
X88494881Y-93439372D01*
X88498588Y-93441932D01*
X88502214Y-93444624D01*
X88505746Y-93447489D01*
X88509201Y-93450466D01*
X88512501Y-93453512D01*
X88515642Y-93456660D01*
X88518640Y-93459900D01*
X88521461Y-93463241D01*
X88524146Y-93466673D01*
X88526668Y-93470185D01*
X88529060Y-93473793D01*
X88531295Y-93477515D01*
X88533363Y-93481325D01*
X88535281Y-93485212D01*
X88537050Y-93489211D01*
X88538665Y-93493289D01*
X88540146Y-93497478D01*
X88541450Y-93501749D01*
X88542615Y-93506118D01*
X88543627Y-93510586D01*
X88544376Y-93515121D01*
X88544903Y-93519735D01*
X88545180Y-93524431D01*
X88545227Y-93529180D01*
X88545025Y-93534011D01*
X88544604Y-93538900D01*
X88543912Y-93543877D01*
X88543008Y-93548933D01*
X88541846Y-93554050D01*
X88540436Y-93559230D01*
X88538813Y-93564482D01*
X88536933Y-93569815D01*
X88534820Y-93575218D01*
X88532471Y-93580704D01*
X88529871Y-93586223D01*
X88527036Y-93591838D01*
X88519226Y-93605495D01*
X88511969Y-93619334D01*
X88505311Y-93633326D01*
X88499161Y-93647504D01*
X88493563Y-93661845D01*
X88488556Y-93676342D01*
X88484092Y-93691009D01*
X88480190Y-93705847D01*
X88476787Y-93720712D01*
X88473839Y-93735636D01*
X88471348Y-93750614D01*
X88469304Y-93765667D01*
X88467715Y-93780772D01*
X88466579Y-93795957D01*
X88465908Y-93811210D01*
X88465676Y-93826509D01*
X88465855Y-93841441D01*
X88466427Y-93856062D01*
X88467359Y-93870392D01*
X88468684Y-93884417D01*
X88470369Y-93898150D01*
X88472438Y-93911582D01*
X88474887Y-93924710D01*
X88477695Y-93937522D01*
X88480888Y-93950037D01*
X88484456Y-93962259D01*
X88488416Y-93974176D01*
X88492725Y-93985779D01*
X88497423Y-93997113D01*
X88502497Y-94008127D01*
X88507955Y-94018835D01*
X88513765Y-94029247D01*
X88519898Y-94039366D01*
X88526367Y-94049140D01*
X88533157Y-94058626D01*
X88540276Y-94067783D01*
X88547751Y-94076636D01*
X88555537Y-94085167D01*
X88563665Y-94093385D01*
X88572135Y-94101283D01*
X88580915Y-94108902D01*
X88590046Y-94116153D01*
X88599506Y-94123121D01*
X88609316Y-94129772D01*
X88619438Y-94136104D01*
X88629921Y-94142097D01*
X88640709Y-94147816D01*
X88651833Y-94153215D01*
X88663239Y-94158244D01*
X88674979Y-94162927D01*
X88687053Y-94167314D01*
X88699440Y-94171351D01*
X88712152Y-94175079D01*
X88725194Y-94178482D01*
X88738583Y-94181552D01*
X88752260Y-94184326D01*
X88766306Y-94186732D01*
X88780636Y-94188851D01*
X88795330Y-94190618D01*
X88810336Y-94192098D01*
X88825673Y-94193211D01*
X88841341Y-94194022D01*
X88857333Y-94194506D01*
X88873649Y-94194672D01*
X88889724Y-94194506D01*
X88905502Y-94194022D01*
X88920980Y-94193211D01*
X88936172Y-94192098D01*
X88951072Y-94190618D01*
X88965667Y-94188851D01*
X88979978Y-94186732D01*
X88993975Y-94184326D01*
X89007709Y-94181552D01*
X89021124Y-94178482D01*
X89034234Y-94175079D01*
X89047083Y-94171351D01*
X89059611Y-94167314D01*
X89071861Y-94162927D01*
X89083786Y-94158244D01*
X89095455Y-94153215D01*
X89106787Y-94147816D01*
X89117776Y-94142097D01*
X89128425Y-94136104D01*
X89138730Y-94129772D01*
X89148687Y-94123121D01*
X89158311Y-94116153D01*
X89167586Y-94108902D01*
X89176506Y-94101283D01*
X89185095Y-94093385D01*
X89193348Y-94085167D01*
X89201238Y-94076636D01*
X89208802Y-94067783D01*
X89216022Y-94058626D01*
X89222883Y-94049140D01*
X89229408Y-94039366D01*
X89235602Y-94029247D01*
X89241363Y-94018835D01*
X89246772Y-94008127D01*
X89251808Y-93997113D01*
X89256464Y-93985779D01*
X89260735Y-93974176D01*
X89264650Y-93962259D01*
X89268178Y-93950037D01*
X89271364Y-93937522D01*
X89274139Y-93924710D01*
X89276566Y-93911582D01*
X89278620Y-93898150D01*
X89280302Y-93884417D01*
X89281604Y-93870392D01*
X89282532Y-93856062D01*
X89283090Y-93841441D01*
X89283271Y-93826509D01*
X89283056Y-93812065D01*
X89282364Y-93797514D01*
X89281237Y-93782881D01*
X89279649Y-93768152D01*
X89277617Y-93753334D01*
X89275113Y-93738435D01*
X89272167Y-93723447D01*
X89268765Y-93708341D01*
X89264885Y-93693286D01*
X89260494Y-93678370D01*
X89255620Y-93663596D01*
X89250206Y-93648964D01*
X89244304Y-93634455D01*
X89237905Y-93620109D01*
X89230994Y-93605901D01*
X89223568Y-93591838D01*
X89220735Y-93586016D01*
X89218134Y-93580275D01*
X89215788Y-93574622D01*
X89213643Y-93569043D01*
X89211765Y-93563540D01*
X89210094Y-93558107D01*
X89208689Y-93552756D01*
X89207515Y-93547461D01*
X89206560Y-93542277D01*
X89205854Y-93537161D01*
X89205385Y-93532124D01*
X89205149Y-93527162D01*
X89205149Y-93522277D01*
X89205390Y-93517472D01*
X89205854Y-93512742D01*
X89206573Y-93508095D01*
X89207424Y-93503519D01*
X89208438Y-93499063D01*
X89209604Y-93494687D01*
X89210925Y-93490422D01*
X89212407Y-93486249D01*
X89214036Y-93482166D01*
X89215824Y-93478179D01*
X89217761Y-93474297D01*
X89219867Y-93470512D01*
X89222116Y-93466829D01*
X89224539Y-93463239D01*
X89227095Y-93459742D01*
X89229821Y-93456335D01*
X89232697Y-93453019D01*
X89235729Y-93449843D01*
X89238910Y-93446728D01*
X89242220Y-93443737D01*
X89245593Y-93440887D01*
X89249066Y-93438198D01*
X89252595Y-93435641D01*
X89256218Y-93433229D01*
X89259894Y-93430942D01*
X89263676Y-93428812D01*
X89267532Y-93426829D01*
X89271438Y-93424977D01*
X89275452Y-93423281D01*
X89279533Y-93421726D01*
X89283686Y-93420291D01*
X89287933Y-93419021D01*
X89292242Y-93417902D01*
X89296632Y-93416899D01*
X89301101Y-93416043D01*
X89305614Y-93415341D01*
X89310116Y-93414824D01*
X89314616Y-93414443D01*
X89319137Y-93414231D01*
X89323641Y-93414195D01*
X89328149Y-93414296D01*
G37*
G36*
X89144423Y-94634971D02*
G01*
X89155517Y-94635394D01*
X89166482Y-94636099D01*
X89177314Y-94637082D01*
X89188022Y-94638340D01*
X89198583Y-94639909D01*
X89209023Y-94641737D01*
X89219313Y-94643849D01*
X89229490Y-94646255D01*
X89239522Y-94648929D01*
X89249436Y-94651887D01*
X89259196Y-94655128D01*
X89268835Y-94658644D01*
X89278348Y-94662446D01*
X89287714Y-94666535D01*
X89296966Y-94670897D01*
X89305984Y-94675534D01*
X89314862Y-94680431D01*
X89323576Y-94685578D01*
X89332144Y-94690992D01*
X89340532Y-94696646D01*
X89348772Y-94702555D01*
X89356841Y-94708729D01*
X89364745Y-94715162D01*
X89372499Y-94721843D01*
X89380067Y-94728773D01*
X89387494Y-94735984D01*
X89394754Y-94743447D01*
X89401841Y-94751145D01*
X89408778Y-94759107D01*
X89415556Y-94767323D01*
X89422174Y-94775804D01*
X89428602Y-94784461D01*
X89434859Y-94793320D01*
X89440908Y-94802422D01*
X89446775Y-94811707D01*
X89452463Y-94821233D01*
X89457968Y-94830958D01*
X89463277Y-94840888D01*
X89468396Y-94851054D01*
X89473329Y-94861402D01*
X89478065Y-94872014D01*
X89482632Y-94882790D01*
X89486999Y-94893803D01*
X89491175Y-94905030D01*
X89495182Y-94916467D01*
X89499000Y-94928117D01*
X89502603Y-94939986D01*
X89509108Y-94964196D01*
X89514751Y-94989141D01*
X89519527Y-95014811D01*
X89523422Y-95041244D01*
X89526471Y-95068412D01*
X89528635Y-95096316D01*
X89529956Y-95124946D01*
X89530375Y-95154344D01*
X89530183Y-95173347D01*
X89529627Y-95192461D01*
X89528685Y-95211640D01*
X89527362Y-95230946D01*
X89525683Y-95250299D01*
X89523616Y-95269779D01*
X89521172Y-95289333D01*
X89518343Y-95308991D01*
X89515300Y-95328470D01*
X89511929Y-95347712D01*
X89508252Y-95366768D01*
X89504263Y-95385591D01*
X89499954Y-95404180D01*
X89495341Y-95422562D01*
X89490417Y-95440720D01*
X89485181Y-95458652D01*
X89479633Y-95476243D01*
X89473738Y-95493316D01*
X89467502Y-95509922D01*
X89460919Y-95526028D01*
X89454030Y-95541637D01*
X89446775Y-95556748D01*
X89439205Y-95571380D01*
X89431294Y-95585514D01*
X89428490Y-95590399D01*
X89425600Y-95595099D01*
X89422585Y-95599630D01*
X89419505Y-95603966D01*
X89416304Y-95608133D01*
X89412997Y-95612101D01*
X89409604Y-95615902D01*
X89406109Y-95619522D01*
X89402504Y-95622956D01*
X89398806Y-95626201D01*
X89395001Y-95629278D01*
X89391096Y-95632166D01*
X89387094Y-95634878D01*
X89382985Y-95637403D01*
X89378787Y-95639735D01*
X89374487Y-95641900D01*
X89370081Y-95643853D01*
X89365664Y-95645636D01*
X89361243Y-95647243D01*
X89356810Y-95648698D01*
X89352373Y-95649981D01*
X89347936Y-95651124D01*
X89343497Y-95652078D01*
X89339049Y-95652889D01*
X89334562Y-95653547D01*
X89330113Y-95654020D01*
X89325639Y-95654343D01*
X89321144Y-95654499D01*
X89316674Y-95654499D01*
X89312168Y-95654328D01*
X89307669Y-95654009D01*
X89303174Y-95653513D01*
X89298660Y-95652863D01*
X89294199Y-95652099D01*
X89289798Y-95651182D01*
X89285474Y-95650109D01*
X89281234Y-95648928D01*
X89277036Y-95647595D01*
X89272915Y-95646092D01*
X89268862Y-95644496D01*
X89264892Y-95642745D01*
X89260964Y-95640852D01*
X89257121Y-95638821D01*
X89253338Y-95636634D01*
X89249628Y-95634324D01*
X89246008Y-95631888D01*
X89242414Y-95629305D01*
X89238910Y-95626565D01*
X89235505Y-95623668D01*
X89232271Y-95620674D01*
X89229179Y-95617574D01*
X89226239Y-95614390D01*
X89223453Y-95611095D01*
X89220825Y-95607710D01*
X89218335Y-95604225D01*
X89216008Y-95600655D01*
X89213824Y-95596980D01*
X89211795Y-95593206D01*
X89209929Y-95589342D01*
X89208210Y-95585361D01*
X89206635Y-95581299D01*
X89205223Y-95577134D01*
X89203955Y-95572874D01*
X89202853Y-95568532D01*
X89201915Y-95564082D01*
X89201236Y-95559586D01*
X89200795Y-95555023D01*
X89200586Y-95550412D01*
X89200624Y-95545711D01*
X89200881Y-95540988D01*
X89201380Y-95536178D01*
X89202108Y-95531298D01*
X89203090Y-95526380D01*
X89204305Y-95521395D01*
X89205742Y-95516335D01*
X89207424Y-95511225D01*
X89209339Y-95506062D01*
X89211505Y-95500815D01*
X89213907Y-95495533D01*
X89216525Y-95490175D01*
X89226552Y-95471408D01*
X89235903Y-95452226D01*
X89244580Y-95432630D01*
X89252595Y-95412622D01*
X89259927Y-95392201D01*
X89266597Y-95371375D01*
X89272557Y-95350135D01*
X89277892Y-95328486D01*
X89282443Y-95306613D01*
X89286414Y-95284773D01*
X89289761Y-95262978D01*
X89292493Y-95241191D01*
X89294609Y-95219438D01*
X89296147Y-95197699D01*
X89297061Y-95176013D01*
X89297370Y-95154344D01*
X89297207Y-95138200D01*
X89296740Y-95122652D01*
X89295962Y-95107695D01*
X89294845Y-95093322D01*
X89293441Y-95079561D01*
X89291710Y-95066359D01*
X89289681Y-95053779D01*
X89287310Y-95041773D01*
X89284642Y-95030351D01*
X89281668Y-95019518D01*
X89278370Y-95009270D01*
X89274758Y-94999632D01*
X89270830Y-94990564D01*
X89266589Y-94982104D01*
X89262009Y-94974236D01*
X89257156Y-94966925D01*
X89251994Y-94960152D01*
X89246670Y-94953803D01*
X89241191Y-94947914D01*
X89235547Y-94942448D01*
X89229741Y-94937413D01*
X89223762Y-94932819D01*
X89217622Y-94928663D01*
X89211341Y-94924946D01*
X89204889Y-94921674D01*
X89198267Y-94918840D01*
X89191488Y-94916418D01*
X89184550Y-94914450D01*
X89177444Y-94912921D01*
X89170189Y-94911832D01*
X89162742Y-94911182D01*
X89155167Y-94910967D01*
X89148662Y-94911114D01*
X89142336Y-94911585D01*
X89136176Y-94912357D01*
X89130209Y-94913461D01*
X89124404Y-94914848D01*
X89118752Y-94916557D01*
X89113306Y-94918580D01*
X89107999Y-94920902D01*
X89102872Y-94923543D01*
X89097920Y-94926505D01*
X89093144Y-94929774D01*
X89088529Y-94933344D01*
X89084101Y-94937243D01*
X89079850Y-94941428D01*
X89075755Y-94945934D01*
X89071830Y-94950760D01*
X89068036Y-94955920D01*
X89064295Y-94961547D01*
X89060658Y-94967649D01*
X89057053Y-94974216D01*
X89053545Y-94981240D01*
X89050093Y-94988752D01*
X89046715Y-94996729D01*
X89043413Y-95005178D01*
X89040195Y-95014100D01*
X89037050Y-95023481D01*
X89033945Y-95033337D01*
X89030934Y-95043647D01*
X89027990Y-95054459D01*
X89025125Y-95065724D01*
X89022318Y-95077455D01*
X89019576Y-95089649D01*
X88976475Y-95293222D01*
X88971755Y-95314542D01*
X88966651Y-95335155D01*
X88961126Y-95355081D01*
X88955218Y-95374303D01*
X88948910Y-95392838D01*
X88942180Y-95410662D01*
X88935059Y-95427787D01*
X88927548Y-95444240D01*
X88919634Y-95459985D01*
X88911286Y-95475031D01*
X88902563Y-95489390D01*
X88893441Y-95503054D01*
X88883907Y-95515986D01*
X88873989Y-95528265D01*
X88863645Y-95539830D01*
X88852912Y-95550704D01*
X88841754Y-95560827D01*
X88830173Y-95570320D01*
X88818154Y-95579159D01*
X88805729Y-95587346D01*
X88792855Y-95594866D01*
X88779547Y-95601735D01*
X88765806Y-95607942D01*
X88751650Y-95613512D01*
X88737050Y-95618401D01*
X88722029Y-95622663D01*
X88706560Y-95626265D01*
X88690664Y-95629202D01*
X88674339Y-95631504D01*
X88657594Y-95633134D01*
X88640421Y-95634119D01*
X88622813Y-95634449D01*
X88611572Y-95634293D01*
X88600479Y-95633856D01*
X88589496Y-95633122D01*
X88578649Y-95632075D01*
X88567952Y-95630747D01*
X88557362Y-95629134D01*
X88546902Y-95627219D01*
X88536575Y-95625011D01*
X88526379Y-95622498D01*
X88516325Y-95619718D01*
X88506378Y-95616622D01*
X88496557Y-95613233D01*
X88486878Y-95609535D01*
X88477338Y-95605568D01*
X88467890Y-95601285D01*
X88458628Y-95596721D01*
X88449437Y-95591837D01*
X88440393Y-95586712D01*
X88431514Y-95581354D01*
X88422780Y-95575761D01*
X88414234Y-95569908D01*
X88405818Y-95563853D01*
X88397576Y-95557551D01*
X88389488Y-95551002D01*
X88381566Y-95544235D01*
X88373800Y-95537210D01*
X88366186Y-95529966D01*
X88358728Y-95522477D01*
X88351429Y-95514750D01*
X88344307Y-95506794D01*
X88337331Y-95498580D01*
X88330522Y-95490175D01*
X88323835Y-95481450D01*
X88317323Y-95472559D01*
X88311045Y-95463453D01*
X88304958Y-95454145D01*
X88299084Y-95444650D01*
X88293385Y-95434940D01*
X88287912Y-95425027D01*
X88282632Y-95414911D01*
X88277539Y-95404591D01*
X88272661Y-95394097D01*
X88267980Y-95383386D01*
X88263498Y-95372459D01*
X88259220Y-95361346D01*
X88255151Y-95350040D01*
X88251282Y-95338537D01*
X88247601Y-95326817D01*
X88240796Y-95302780D01*
X88234892Y-95278164D01*
X88229914Y-95252973D01*
X88225830Y-95227191D01*
X88222646Y-95200839D01*
X88220377Y-95173897D01*
X88219036Y-95146371D01*
X88218573Y-95118262D01*
X88218955Y-95093133D01*
X88220100Y-95068101D01*
X88222006Y-95043164D01*
X88224683Y-95018352D01*
X88228130Y-94993616D01*
X88232336Y-94969011D01*
X88237298Y-94944501D01*
X88243035Y-94920085D01*
X88249401Y-94896093D01*
X88256510Y-94872816D01*
X88264327Y-94850258D01*
X88272891Y-94828450D01*
X88282174Y-94807366D01*
X88292164Y-94786996D01*
X88297435Y-94777086D01*
X88302883Y-94767352D01*
X88308539Y-94757791D01*
X88314321Y-94748428D01*
X88317083Y-94744018D01*
X88319919Y-94739769D01*
X88322861Y-94735714D01*
X88325885Y-94731833D01*
X88328995Y-94728115D01*
X88332209Y-94724599D01*
X88335507Y-94721239D01*
X88338920Y-94718065D01*
X88342405Y-94715055D01*
X88346000Y-94712269D01*
X88349663Y-94709604D01*
X88353447Y-94707153D01*
X88357321Y-94704870D01*
X88361278Y-94702778D01*
X88365333Y-94700840D01*
X88369496Y-94699100D01*
X88373648Y-94697470D01*
X88377794Y-94695968D01*
X88381940Y-94694602D01*
X88386103Y-94693381D01*
X88390255Y-94692337D01*
X88394413Y-94691398D01*
X88398594Y-94690626D01*
X88402763Y-94689977D01*
X88406935Y-94689471D01*
X88411114Y-94689124D01*
X88415282Y-94688910D01*
X88419479Y-94688830D01*
X88423646Y-94688910D01*
X88427840Y-94689124D01*
X88432038Y-94689471D01*
X88436241Y-94689977D01*
X88440349Y-94690625D01*
X88444400Y-94691398D01*
X88448400Y-94692316D01*
X88452337Y-94693369D01*
X88456200Y-94694563D01*
X88460000Y-94695904D01*
X88463753Y-94697383D01*
X88467445Y-94698995D01*
X88471070Y-94700747D01*
X88474635Y-94702645D01*
X88478123Y-94704676D01*
X88481553Y-94706845D01*
X88484926Y-94709161D01*
X88488258Y-94711607D01*
X88491486Y-94714201D01*
X88494695Y-94716928D01*
X88497803Y-94719769D01*
X88500730Y-94722718D01*
X88503563Y-94725754D01*
X88506215Y-94728867D01*
X88508761Y-94732074D01*
X88511170Y-94735411D01*
X88513412Y-94738803D01*
X88515526Y-94742323D01*
X88517513Y-94745916D01*
X88519353Y-94749607D01*
X88521052Y-94753391D01*
X88522609Y-94757270D01*
X88524016Y-94761253D01*
X88525303Y-94765323D01*
X88526442Y-94769476D01*
X88527463Y-94773739D01*
X88528225Y-94778098D01*
X88528736Y-94782556D01*
X88529030Y-94787132D01*
X88529060Y-94791809D01*
X88528863Y-94796607D01*
X88528418Y-94801509D01*
X88527741Y-94806537D01*
X88526848Y-94811656D01*
X88525661Y-94816895D01*
X88524284Y-94822244D01*
X88522636Y-94827718D01*
X88520770Y-94833272D01*
X88518659Y-94838954D01*
X88516310Y-94844737D01*
X88513696Y-94850643D01*
X88510870Y-94856646D01*
X88503452Y-94871679D01*
X88496545Y-94886934D01*
X88490131Y-94902414D01*
X88484228Y-94918104D01*
X88478838Y-94934026D01*
X88473939Y-94950166D01*
X88469542Y-94966526D01*
X88465676Y-94983097D01*
X88462275Y-94999853D01*
X88459326Y-95016708D01*
X88456838Y-95033690D01*
X88454789Y-95050785D01*
X88453210Y-95068010D01*
X88452070Y-95085322D01*
X88451385Y-95102778D01*
X88451150Y-95120331D01*
X88451482Y-95138862D01*
X88452397Y-95156690D01*
X88453967Y-95173845D01*
X88456143Y-95190320D01*
X88458943Y-95206064D01*
X88460569Y-95213710D01*
X88462356Y-95221149D01*
X88464296Y-95228448D01*
X88466402Y-95235550D01*
X88468666Y-95242504D01*
X88471076Y-95249268D01*
X88473611Y-95255819D01*
X88476288Y-95262153D01*
X88479105Y-95268305D01*
X88482014Y-95274259D01*
X88485082Y-95280017D01*
X88488265Y-95285581D01*
X88491569Y-95290943D01*
X88495021Y-95296130D01*
X88498568Y-95301102D01*
X88502255Y-95305899D01*
X88506072Y-95310481D01*
X88510011Y-95314900D01*
X88514081Y-95319106D01*
X88518274Y-95323099D01*
X88522596Y-95326912D01*
X88527036Y-95330545D01*
X88531585Y-95333899D01*
X88536203Y-95337058D01*
X88540941Y-95339983D01*
X88545743Y-95342694D01*
X88550621Y-95345179D01*
X88555605Y-95347456D01*
X88560653Y-95349523D01*
X88565795Y-95351381D01*
X88571025Y-95353008D01*
X88576335Y-95354409D01*
X88581734Y-95355602D01*
X88587190Y-95356586D01*
X88592768Y-95357343D01*
X88598404Y-95357872D01*
X88604150Y-95358216D01*
X88609956Y-95358315D01*
X88616450Y-95358176D01*
X88622807Y-95357731D01*
X88628986Y-95356981D01*
X88635017Y-95355964D01*
X88640884Y-95354624D01*
X88646592Y-95353021D01*
X88652143Y-95351100D01*
X88657535Y-95348866D01*
X88662761Y-95346371D01*
X88667837Y-95343587D01*
X88672764Y-95340492D01*
X88677507Y-95337093D01*
X88682102Y-95333394D01*
X88686549Y-95329424D01*
X88690834Y-95325158D01*
X88694955Y-95320578D01*
X88698943Y-95315603D01*
X88702846Y-95310186D01*
X88706637Y-95304327D01*
X88710340Y-95298043D01*
X88713951Y-95291330D01*
X88717444Y-95284171D01*
X88720874Y-95276583D01*
X88724184Y-95268558D01*
X88727398Y-95260091D01*
X88730515Y-95251214D01*
X88733543Y-95241881D01*
X88736464Y-95232122D01*
X88739279Y-95221932D01*
X88742005Y-95211292D01*
X88744649Y-95200241D01*
X88747194Y-95188743D01*
X88790725Y-94984758D01*
X88795625Y-94963037D01*
X88800884Y-94942012D01*
X88806500Y-94921681D01*
X88812485Y-94902073D01*
X88818843Y-94883155D01*
X88825546Y-94864941D01*
X88832620Y-94847430D01*
X88840059Y-94830624D01*
X88847865Y-94814526D01*
X88856032Y-94799126D01*
X88864555Y-94784421D01*
X88873446Y-94770441D01*
X88882698Y-94757145D01*
X88892296Y-94744554D01*
X88902288Y-94732676D01*
X88912630Y-94721490D01*
X88923295Y-94710991D01*
X88934389Y-94701170D01*
X88945887Y-94692025D01*
X88957815Y-94683588D01*
X88970142Y-94675773D01*
X88982901Y-94668697D01*
X88996051Y-94662267D01*
X89009643Y-94656520D01*
X89023630Y-94651432D01*
X89038034Y-94647010D01*
X89052866Y-94643293D01*
X89068079Y-94640249D01*
X89083742Y-94637884D01*
X89099814Y-94636174D01*
X89116288Y-94635172D01*
X89133192Y-94634835D01*
X89144423Y-94634971D01*
G37*
D13*
X97190129Y-98312564D02*
X96707061Y-99645232D01*
X97574106Y-98312564D02*
X97190129Y-98312564D01*
X116000000Y-97000000D02*
X116000000Y-98000000D01*
X116849670Y-96500000D02*
X116000000Y-97000000D01*
X125540507Y-97263294D02*
X126775200Y-97263294D01*
X127703884Y-87091466D02*
X128465789Y-87091466D01*
X128084836Y-87472419D02*
X128084836Y-86710514D01*
X129703884Y-87091466D02*
X130465789Y-87091466D01*
X82119048Y-83857419D02*
X82119048Y-83190752D01*
X82119048Y-82857419D02*
X82071429Y-82905038D01*
X82071429Y-82905038D02*
X82119048Y-82952657D01*
X82119048Y-82952657D02*
X82166667Y-82905038D01*
X82166667Y-82905038D02*
X82119048Y-82857419D01*
X82119048Y-82857419D02*
X82119048Y-82952657D01*
X82452381Y-82857419D02*
X83023809Y-82857419D01*
X82738095Y-83857419D02*
X82738095Y-82857419D01*
X84423810Y-84357419D02*
X84423810Y-83690752D01*
X84423810Y-83357419D02*
X84376191Y-83405038D01*
X84376191Y-83405038D02*
X84423810Y-83452657D01*
X84423810Y-83452657D02*
X84471429Y-83405038D01*
X84471429Y-83405038D02*
X84423810Y-83357419D01*
X84423810Y-83357419D02*
X84423810Y-83452657D01*
X84852381Y-84309800D02*
X84995238Y-84357419D01*
X84995238Y-84357419D02*
X85233333Y-84357419D01*
X85233333Y-84357419D02*
X85328571Y-84309800D01*
X85328571Y-84309800D02*
X85376190Y-84262180D01*
X85376190Y-84262180D02*
X85423809Y-84166942D01*
X85423809Y-84166942D02*
X85423809Y-84071704D01*
X85423809Y-84071704D02*
X85376190Y-83976466D01*
X85376190Y-83976466D02*
X85328571Y-83928847D01*
X85328571Y-83928847D02*
X85233333Y-83881228D01*
X85233333Y-83881228D02*
X85042857Y-83833609D01*
X85042857Y-83833609D02*
X84947619Y-83785990D01*
X84947619Y-83785990D02*
X84900000Y-83738371D01*
X84900000Y-83738371D02*
X84852381Y-83643133D01*
X84852381Y-83643133D02*
X84852381Y-83547895D01*
X84852381Y-83547895D02*
X84900000Y-83452657D01*
X84900000Y-83452657D02*
X84947619Y-83405038D01*
X84947619Y-83405038D02*
X85042857Y-83357419D01*
X85042857Y-83357419D02*
X85280952Y-83357419D01*
X85280952Y-83357419D02*
X85423809Y-83405038D01*
X87052381Y-84357419D02*
X86957143Y-84309800D01*
X86957143Y-84309800D02*
X86909524Y-84262180D01*
X86909524Y-84262180D02*
X86861905Y-84166942D01*
X86861905Y-84166942D02*
X86861905Y-83881228D01*
X86861905Y-83881228D02*
X86909524Y-83785990D01*
X86909524Y-83785990D02*
X86957143Y-83738371D01*
X86957143Y-83738371D02*
X87052381Y-83690752D01*
X87052381Y-83690752D02*
X87195238Y-83690752D01*
X87195238Y-83690752D02*
X87290476Y-83738371D01*
X87290476Y-83738371D02*
X87338095Y-83785990D01*
X87338095Y-83785990D02*
X87385714Y-83881228D01*
X87385714Y-83881228D02*
X87385714Y-84166942D01*
X87385714Y-84166942D02*
X87338095Y-84262180D01*
X87338095Y-84262180D02*
X87290476Y-84309800D01*
X87290476Y-84309800D02*
X87195238Y-84357419D01*
X87195238Y-84357419D02*
X87052381Y-84357419D01*
X87766667Y-84309800D02*
X87909524Y-84357419D01*
X87909524Y-84357419D02*
X88147619Y-84357419D01*
X88147619Y-84357419D02*
X88242857Y-84309800D01*
X88242857Y-84309800D02*
X88290476Y-84262180D01*
X88290476Y-84262180D02*
X88338095Y-84166942D01*
X88338095Y-84166942D02*
X88338095Y-84071704D01*
X88338095Y-84071704D02*
X88290476Y-83976466D01*
X88290476Y-83976466D02*
X88242857Y-83928847D01*
X88242857Y-83928847D02*
X88147619Y-83881228D01*
X88147619Y-83881228D02*
X87957143Y-83833609D01*
X87957143Y-83833609D02*
X87861905Y-83785990D01*
X87861905Y-83785990D02*
X87814286Y-83738371D01*
X87814286Y-83738371D02*
X87766667Y-83643133D01*
X87766667Y-83643133D02*
X87766667Y-83547895D01*
X87766667Y-83547895D02*
X87814286Y-83452657D01*
X87814286Y-83452657D02*
X87861905Y-83405038D01*
X87861905Y-83405038D02*
X87957143Y-83357419D01*
X87957143Y-83357419D02*
X88195238Y-83357419D01*
X88195238Y-83357419D02*
X88338095Y-83405038D01*
X89647619Y-84357419D02*
X89552381Y-84309800D01*
X89552381Y-84309800D02*
X89504762Y-84262180D01*
X89504762Y-84262180D02*
X89457143Y-84166942D01*
X89457143Y-84166942D02*
X89457143Y-83881228D01*
X89457143Y-83881228D02*
X89504762Y-83785990D01*
X89504762Y-83785990D02*
X89552381Y-83738371D01*
X89552381Y-83738371D02*
X89647619Y-83690752D01*
X89647619Y-83690752D02*
X89790476Y-83690752D01*
X89790476Y-83690752D02*
X89885714Y-83738371D01*
X89885714Y-83738371D02*
X89933333Y-83785990D01*
X89933333Y-83785990D02*
X89980952Y-83881228D01*
X89980952Y-83881228D02*
X89980952Y-84166942D01*
X89980952Y-84166942D02*
X89933333Y-84262180D01*
X89933333Y-84262180D02*
X89885714Y-84309800D01*
X89885714Y-84309800D02*
X89790476Y-84357419D01*
X89790476Y-84357419D02*
X89647619Y-84357419D01*
X90266667Y-83357419D02*
X90838095Y-83357419D01*
X90552381Y-84357419D02*
X90552381Y-83357419D01*
X89128570Y-100857419D02*
X88795237Y-100381228D01*
X88557142Y-100857419D02*
X88557142Y-99857419D01*
X88557142Y-99857419D02*
X88938094Y-99857419D01*
X88938094Y-99857419D02*
X89033332Y-99905038D01*
X89033332Y-99905038D02*
X89080951Y-99952657D01*
X89080951Y-99952657D02*
X89128570Y-100047895D01*
X89128570Y-100047895D02*
X89128570Y-100190752D01*
X89128570Y-100190752D02*
X89080951Y-100285990D01*
X89080951Y-100285990D02*
X89033332Y-100333609D01*
X89033332Y-100333609D02*
X88938094Y-100381228D01*
X88938094Y-100381228D02*
X88557142Y-100381228D01*
X89747618Y-99857419D02*
X89842856Y-99857419D01*
X89842856Y-99857419D02*
X89938094Y-99905038D01*
X89938094Y-99905038D02*
X89985713Y-99952657D01*
X89985713Y-99952657D02*
X90033332Y-100047895D01*
X90033332Y-100047895D02*
X90080951Y-100238371D01*
X90080951Y-100238371D02*
X90080951Y-100476466D01*
X90080951Y-100476466D02*
X90033332Y-100666942D01*
X90033332Y-100666942D02*
X89985713Y-100762180D01*
X89985713Y-100762180D02*
X89938094Y-100809800D01*
X89938094Y-100809800D02*
X89842856Y-100857419D01*
X89842856Y-100857419D02*
X89747618Y-100857419D01*
X89747618Y-100857419D02*
X89652380Y-100809800D01*
X89652380Y-100809800D02*
X89604761Y-100762180D01*
X89604761Y-100762180D02*
X89557142Y-100666942D01*
X89557142Y-100666942D02*
X89509523Y-100476466D01*
X89509523Y-100476466D02*
X89509523Y-100238371D01*
X89509523Y-100238371D02*
X89557142Y-100047895D01*
X89557142Y-100047895D02*
X89604761Y-99952657D01*
X89604761Y-99952657D02*
X89652380Y-99905038D01*
X89652380Y-99905038D02*
X89747618Y-99857419D01*
X91271428Y-100857419D02*
X91271428Y-99857419D01*
X91699999Y-100857419D02*
X91699999Y-100333609D01*
X91699999Y-100333609D02*
X91652380Y-100238371D01*
X91652380Y-100238371D02*
X91557142Y-100190752D01*
X91557142Y-100190752D02*
X91414285Y-100190752D01*
X91414285Y-100190752D02*
X91319047Y-100238371D01*
X91319047Y-100238371D02*
X91271428Y-100285990D01*
X92557142Y-100809800D02*
X92461904Y-100857419D01*
X92461904Y-100857419D02*
X92271428Y-100857419D01*
X92271428Y-100857419D02*
X92176190Y-100809800D01*
X92176190Y-100809800D02*
X92128571Y-100714561D01*
X92128571Y-100714561D02*
X92128571Y-100333609D01*
X92128571Y-100333609D02*
X92176190Y-100238371D01*
X92176190Y-100238371D02*
X92271428Y-100190752D01*
X92271428Y-100190752D02*
X92461904Y-100190752D01*
X92461904Y-100190752D02*
X92557142Y-100238371D01*
X92557142Y-100238371D02*
X92604761Y-100333609D01*
X92604761Y-100333609D02*
X92604761Y-100428847D01*
X92604761Y-100428847D02*
X92128571Y-100524085D01*
X93033333Y-100857419D02*
X93033333Y-100190752D01*
X93033333Y-100381228D02*
X93080952Y-100285990D01*
X93080952Y-100285990D02*
X93128571Y-100238371D01*
X93128571Y-100238371D02*
X93223809Y-100190752D01*
X93223809Y-100190752D02*
X93319047Y-100190752D01*
X94033333Y-100809800D02*
X93938095Y-100857419D01*
X93938095Y-100857419D02*
X93747619Y-100857419D01*
X93747619Y-100857419D02*
X93652381Y-100809800D01*
X93652381Y-100809800D02*
X93604762Y-100714561D01*
X93604762Y-100714561D02*
X93604762Y-100333609D01*
X93604762Y-100333609D02*
X93652381Y-100238371D01*
X93652381Y-100238371D02*
X93747619Y-100190752D01*
X93747619Y-100190752D02*
X93938095Y-100190752D01*
X93938095Y-100190752D02*
X94033333Y-100238371D01*
X94033333Y-100238371D02*
X94080952Y-100333609D01*
X94080952Y-100333609D02*
X94080952Y-100428847D01*
X94080952Y-100428847D02*
X93604762Y-100524085D01*
X95271429Y-100857419D02*
X95271429Y-100190752D01*
X95271429Y-99857419D02*
X95223810Y-99905038D01*
X95223810Y-99905038D02*
X95271429Y-99952657D01*
X95271429Y-99952657D02*
X95319048Y-99905038D01*
X95319048Y-99905038D02*
X95271429Y-99857419D01*
X95271429Y-99857419D02*
X95271429Y-99952657D01*
X95604762Y-100190752D02*
X95985714Y-100190752D01*
X95747619Y-100857419D02*
X95747619Y-100000276D01*
X95747619Y-100000276D02*
X95795238Y-99905038D01*
X95795238Y-99905038D02*
X95890476Y-99857419D01*
X95890476Y-99857419D02*
X95985714Y-99857419D01*
X97080953Y-100857419D02*
X97080953Y-99857419D01*
X97509524Y-100857419D02*
X97509524Y-100333609D01*
X97509524Y-100333609D02*
X97461905Y-100238371D01*
X97461905Y-100238371D02*
X97366667Y-100190752D01*
X97366667Y-100190752D02*
X97223810Y-100190752D01*
X97223810Y-100190752D02*
X97128572Y-100238371D01*
X97128572Y-100238371D02*
X97080953Y-100285990D01*
X98414286Y-100857419D02*
X98414286Y-100333609D01*
X98414286Y-100333609D02*
X98366667Y-100238371D01*
X98366667Y-100238371D02*
X98271429Y-100190752D01*
X98271429Y-100190752D02*
X98080953Y-100190752D01*
X98080953Y-100190752D02*
X97985715Y-100238371D01*
X98414286Y-100809800D02*
X98319048Y-100857419D01*
X98319048Y-100857419D02*
X98080953Y-100857419D01*
X98080953Y-100857419D02*
X97985715Y-100809800D01*
X97985715Y-100809800D02*
X97938096Y-100714561D01*
X97938096Y-100714561D02*
X97938096Y-100619323D01*
X97938096Y-100619323D02*
X97985715Y-100524085D01*
X97985715Y-100524085D02*
X98080953Y-100476466D01*
X98080953Y-100476466D02*
X98319048Y-100476466D01*
X98319048Y-100476466D02*
X98414286Y-100428847D01*
X98890477Y-100857419D02*
X98890477Y-100190752D01*
X98890477Y-100381228D02*
X98938096Y-100285990D01*
X98938096Y-100285990D02*
X98985715Y-100238371D01*
X98985715Y-100238371D02*
X99080953Y-100190752D01*
X99080953Y-100190752D02*
X99176191Y-100190752D01*
X99938096Y-100857419D02*
X99938096Y-99857419D01*
X99938096Y-100809800D02*
X99842858Y-100857419D01*
X99842858Y-100857419D02*
X99652382Y-100857419D01*
X99652382Y-100857419D02*
X99557144Y-100809800D01*
X99557144Y-100809800D02*
X99509525Y-100762180D01*
X99509525Y-100762180D02*
X99461906Y-100666942D01*
X99461906Y-100666942D02*
X99461906Y-100381228D01*
X99461906Y-100381228D02*
X99509525Y-100285990D01*
X99509525Y-100285990D02*
X99557144Y-100238371D01*
X99557144Y-100238371D02*
X99652382Y-100190752D01*
X99652382Y-100190752D02*
X99842858Y-100190752D01*
X99842858Y-100190752D02*
X99938096Y-100238371D01*
X100319049Y-100190752D02*
X100509525Y-100857419D01*
X100509525Y-100857419D02*
X100700001Y-100381228D01*
X100700001Y-100381228D02*
X100890477Y-100857419D01*
X100890477Y-100857419D02*
X101080953Y-100190752D01*
X101461906Y-100857419D02*
X101461906Y-100190752D01*
X101461906Y-99857419D02*
X101414287Y-99905038D01*
X101414287Y-99905038D02*
X101461906Y-99952657D01*
X101461906Y-99952657D02*
X101509525Y-99905038D01*
X101509525Y-99905038D02*
X101461906Y-99857419D01*
X101461906Y-99857419D02*
X101461906Y-99952657D01*
X101938096Y-100857419D02*
X101938096Y-100190752D01*
X101938096Y-100381228D02*
X101985715Y-100285990D01*
X101985715Y-100285990D02*
X102033334Y-100238371D01*
X102033334Y-100238371D02*
X102128572Y-100190752D01*
X102128572Y-100190752D02*
X102223810Y-100190752D01*
X102938096Y-100809800D02*
X102842858Y-100857419D01*
X102842858Y-100857419D02*
X102652382Y-100857419D01*
X102652382Y-100857419D02*
X102557144Y-100809800D01*
X102557144Y-100809800D02*
X102509525Y-100714561D01*
X102509525Y-100714561D02*
X102509525Y-100333609D01*
X102509525Y-100333609D02*
X102557144Y-100238371D01*
X102557144Y-100238371D02*
X102652382Y-100190752D01*
X102652382Y-100190752D02*
X102842858Y-100190752D01*
X102842858Y-100190752D02*
X102938096Y-100238371D01*
X102938096Y-100238371D02*
X102985715Y-100333609D01*
X102985715Y-100333609D02*
X102985715Y-100428847D01*
X102985715Y-100428847D02*
X102509525Y-100524085D01*
X103842858Y-100857419D02*
X103842858Y-99857419D01*
X103842858Y-100809800D02*
X103747620Y-100857419D01*
X103747620Y-100857419D02*
X103557144Y-100857419D01*
X103557144Y-100857419D02*
X103461906Y-100809800D01*
X103461906Y-100809800D02*
X103414287Y-100762180D01*
X103414287Y-100762180D02*
X103366668Y-100666942D01*
X103366668Y-100666942D02*
X103366668Y-100381228D01*
X103366668Y-100381228D02*
X103414287Y-100285990D01*
X103414287Y-100285990D02*
X103461906Y-100238371D01*
X103461906Y-100238371D02*
X103557144Y-100190752D01*
X103557144Y-100190752D02*
X103747620Y-100190752D01*
X103747620Y-100190752D02*
X103842858Y-100238371D01*
X99838095Y-83505038D02*
X99742857Y-83457419D01*
X99742857Y-83457419D02*
X99600000Y-83457419D01*
X99600000Y-83457419D02*
X99457143Y-83505038D01*
X99457143Y-83505038D02*
X99361905Y-83600276D01*
X99361905Y-83600276D02*
X99314286Y-83695514D01*
X99314286Y-83695514D02*
X99266667Y-83885990D01*
X99266667Y-83885990D02*
X99266667Y-84028847D01*
X99266667Y-84028847D02*
X99314286Y-84219323D01*
X99314286Y-84219323D02*
X99361905Y-84314561D01*
X99361905Y-84314561D02*
X99457143Y-84409800D01*
X99457143Y-84409800D02*
X99600000Y-84457419D01*
X99600000Y-84457419D02*
X99695238Y-84457419D01*
X99695238Y-84457419D02*
X99838095Y-84409800D01*
X99838095Y-84409800D02*
X99885714Y-84362180D01*
X99885714Y-84362180D02*
X99885714Y-84028847D01*
X99885714Y-84028847D02*
X99695238Y-84028847D01*
X100314286Y-84457419D02*
X100314286Y-83457419D01*
X100314286Y-83457419D02*
X100885714Y-84457419D01*
X100885714Y-84457419D02*
X100885714Y-83457419D01*
X101361905Y-84457419D02*
X101361905Y-83457419D01*
X101361905Y-83457419D02*
X101600000Y-83457419D01*
X101600000Y-83457419D02*
X101742857Y-83505038D01*
X101742857Y-83505038D02*
X101838095Y-83600276D01*
X101838095Y-83600276D02*
X101885714Y-83695514D01*
X101885714Y-83695514D02*
X101933333Y-83885990D01*
X101933333Y-83885990D02*
X101933333Y-84028847D01*
X101933333Y-84028847D02*
X101885714Y-84219323D01*
X101885714Y-84219323D02*
X101838095Y-84314561D01*
X101838095Y-84314561D02*
X101742857Y-84409800D01*
X101742857Y-84409800D02*
X101600000Y-84457419D01*
X101600000Y-84457419D02*
X101361905Y-84457419D01*
X102461905Y-83457419D02*
X103080952Y-83457419D01*
X103080952Y-83457419D02*
X102747619Y-83838371D01*
X102747619Y-83838371D02*
X102890476Y-83838371D01*
X102890476Y-83838371D02*
X102985714Y-83885990D01*
X102985714Y-83885990D02*
X103033333Y-83933609D01*
X103033333Y-83933609D02*
X103080952Y-84028847D01*
X103080952Y-84028847D02*
X103080952Y-84266942D01*
X103080952Y-84266942D02*
X103033333Y-84362180D01*
X103033333Y-84362180D02*
X102985714Y-84409800D01*
X102985714Y-84409800D02*
X102890476Y-84457419D01*
X102890476Y-84457419D02*
X102604762Y-84457419D01*
X102604762Y-84457419D02*
X102509524Y-84409800D01*
X102509524Y-84409800D02*
X102461905Y-84362180D01*
X103366667Y-83457419D02*
X103700000Y-84457419D01*
X103700000Y-84457419D02*
X104033333Y-83457419D01*
X104271429Y-83457419D02*
X104890476Y-83457419D01*
X104890476Y-83457419D02*
X104557143Y-83838371D01*
X104557143Y-83838371D02*
X104700000Y-83838371D01*
X104700000Y-83838371D02*
X104795238Y-83885990D01*
X104795238Y-83885990D02*
X104842857Y-83933609D01*
X104842857Y-83933609D02*
X104890476Y-84028847D01*
X104890476Y-84028847D02*
X104890476Y-84266942D01*
X104890476Y-84266942D02*
X104842857Y-84362180D01*
X104842857Y-84362180D02*
X104795238Y-84409800D01*
X104795238Y-84409800D02*
X104700000Y-84457419D01*
X104700000Y-84457419D02*
X104414286Y-84457419D01*
X104414286Y-84457419D02*
X104319048Y-84409800D01*
X104319048Y-84409800D02*
X104271429Y-84362180D01*
X105709524Y-84409800D02*
X105852381Y-84457419D01*
X105852381Y-84457419D02*
X106090476Y-84457419D01*
X106090476Y-84457419D02*
X106185714Y-84409800D01*
X106185714Y-84409800D02*
X106233333Y-84362180D01*
X106233333Y-84362180D02*
X106280952Y-84266942D01*
X106280952Y-84266942D02*
X106280952Y-84171704D01*
X106280952Y-84171704D02*
X106233333Y-84076466D01*
X106233333Y-84076466D02*
X106185714Y-84028847D01*
X106185714Y-84028847D02*
X106090476Y-83981228D01*
X106090476Y-83981228D02*
X105900000Y-83933609D01*
X105900000Y-83933609D02*
X105804762Y-83885990D01*
X105804762Y-83885990D02*
X105757143Y-83838371D01*
X105757143Y-83838371D02*
X105709524Y-83743133D01*
X105709524Y-83743133D02*
X105709524Y-83647895D01*
X105709524Y-83647895D02*
X105757143Y-83552657D01*
X105757143Y-83552657D02*
X105804762Y-83505038D01*
X105804762Y-83505038D02*
X105900000Y-83457419D01*
X105900000Y-83457419D02*
X106138095Y-83457419D01*
X106138095Y-83457419D02*
X106280952Y-83505038D01*
X107280952Y-84362180D02*
X107233333Y-84409800D01*
X107233333Y-84409800D02*
X107090476Y-84457419D01*
X107090476Y-84457419D02*
X106995238Y-84457419D01*
X106995238Y-84457419D02*
X106852381Y-84409800D01*
X106852381Y-84409800D02*
X106757143Y-84314561D01*
X106757143Y-84314561D02*
X106709524Y-84219323D01*
X106709524Y-84219323D02*
X106661905Y-84028847D01*
X106661905Y-84028847D02*
X106661905Y-83885990D01*
X106661905Y-83885990D02*
X106709524Y-83695514D01*
X106709524Y-83695514D02*
X106757143Y-83600276D01*
X106757143Y-83600276D02*
X106852381Y-83505038D01*
X106852381Y-83505038D02*
X106995238Y-83457419D01*
X106995238Y-83457419D02*
X107090476Y-83457419D01*
X107090476Y-83457419D02*
X107233333Y-83505038D01*
X107233333Y-83505038D02*
X107280952Y-83552657D01*
X108185714Y-84457419D02*
X107709524Y-84457419D01*
X107709524Y-84457419D02*
X107709524Y-83457419D01*
X108885714Y-84409800D02*
X109028571Y-84457419D01*
X109028571Y-84457419D02*
X109266666Y-84457419D01*
X109266666Y-84457419D02*
X109361904Y-84409800D01*
X109361904Y-84409800D02*
X109409523Y-84362180D01*
X109409523Y-84362180D02*
X109457142Y-84266942D01*
X109457142Y-84266942D02*
X109457142Y-84171704D01*
X109457142Y-84171704D02*
X109409523Y-84076466D01*
X109409523Y-84076466D02*
X109361904Y-84028847D01*
X109361904Y-84028847D02*
X109266666Y-83981228D01*
X109266666Y-83981228D02*
X109076190Y-83933609D01*
X109076190Y-83933609D02*
X108980952Y-83885990D01*
X108980952Y-83885990D02*
X108933333Y-83838371D01*
X108933333Y-83838371D02*
X108885714Y-83743133D01*
X108885714Y-83743133D02*
X108885714Y-83647895D01*
X108885714Y-83647895D02*
X108933333Y-83552657D01*
X108933333Y-83552657D02*
X108980952Y-83505038D01*
X108980952Y-83505038D02*
X109076190Y-83457419D01*
X109076190Y-83457419D02*
X109314285Y-83457419D01*
X109314285Y-83457419D02*
X109457142Y-83505038D01*
X109885714Y-84457419D02*
X109885714Y-83457419D01*
X109885714Y-83457419D02*
X110123809Y-83457419D01*
X110123809Y-83457419D02*
X110266666Y-83505038D01*
X110266666Y-83505038D02*
X110361904Y-83600276D01*
X110361904Y-83600276D02*
X110409523Y-83695514D01*
X110409523Y-83695514D02*
X110457142Y-83885990D01*
X110457142Y-83885990D02*
X110457142Y-84028847D01*
X110457142Y-84028847D02*
X110409523Y-84219323D01*
X110409523Y-84219323D02*
X110361904Y-84314561D01*
X110361904Y-84314561D02*
X110266666Y-84409800D01*
X110266666Y-84409800D02*
X110123809Y-84457419D01*
X110123809Y-84457419D02*
X109885714Y-84457419D01*
X110838095Y-84171704D02*
X111314285Y-84171704D01*
X110742857Y-84457419D02*
X111076190Y-83457419D01*
X111076190Y-83457419D02*
X111409523Y-84457419D01*
X117209523Y-95257419D02*
X116733333Y-95257419D01*
X116733333Y-95257419D02*
X116685714Y-95733609D01*
X116685714Y-95733609D02*
X116733333Y-95685990D01*
X116733333Y-95685990D02*
X116828571Y-95638371D01*
X116828571Y-95638371D02*
X117066666Y-95638371D01*
X117066666Y-95638371D02*
X117161904Y-95685990D01*
X117161904Y-95685990D02*
X117209523Y-95733609D01*
X117209523Y-95733609D02*
X117257142Y-95828847D01*
X117257142Y-95828847D02*
X117257142Y-96066942D01*
X117257142Y-96066942D02*
X117209523Y-96162180D01*
X117209523Y-96162180D02*
X117161904Y-96209800D01*
X117161904Y-96209800D02*
X117066666Y-96257419D01*
X117066666Y-96257419D02*
X116828571Y-96257419D01*
X116828571Y-96257419D02*
X116733333Y-96209800D01*
X116733333Y-96209800D02*
X116685714Y-96162180D01*
X117542857Y-95257419D02*
X117876190Y-96257419D01*
X117876190Y-96257419D02*
X118209523Y-95257419D01*
X119032509Y-97757878D02*
X119032509Y-96757878D01*
X119032509Y-96757878D02*
X119365842Y-97472163D01*
X119365842Y-97472163D02*
X119699175Y-96757878D01*
X119699175Y-96757878D02*
X119699175Y-97757878D01*
X120746794Y-97662639D02*
X120699175Y-97710259D01*
X120699175Y-97710259D02*
X120556318Y-97757878D01*
X120556318Y-97757878D02*
X120461080Y-97757878D01*
X120461080Y-97757878D02*
X120318223Y-97710259D01*
X120318223Y-97710259D02*
X120222985Y-97615020D01*
X120222985Y-97615020D02*
X120175366Y-97519782D01*
X120175366Y-97519782D02*
X120127747Y-97329306D01*
X120127747Y-97329306D02*
X120127747Y-97186449D01*
X120127747Y-97186449D02*
X120175366Y-96995973D01*
X120175366Y-96995973D02*
X120222985Y-96900735D01*
X120222985Y-96900735D02*
X120318223Y-96805497D01*
X120318223Y-96805497D02*
X120461080Y-96757878D01*
X120461080Y-96757878D02*
X120556318Y-96757878D01*
X120556318Y-96757878D02*
X120699175Y-96805497D01*
X120699175Y-96805497D02*
X120746794Y-96853116D01*
X121651556Y-97757878D02*
X121175366Y-97757878D01*
X121175366Y-97757878D02*
X121175366Y-96757878D01*
X121984890Y-97757878D02*
X121984890Y-96757878D01*
X122556318Y-97757878D02*
X122127747Y-97186449D01*
X122556318Y-96757878D02*
X121984890Y-97329306D01*
X124032509Y-96757878D02*
X124032509Y-97472163D01*
X124032509Y-97472163D02*
X123984890Y-97615020D01*
X123984890Y-97615020D02*
X123889652Y-97710259D01*
X123889652Y-97710259D02*
X123746795Y-97757878D01*
X123746795Y-97757878D02*
X123651557Y-97757878D01*
X124508700Y-97757878D02*
X124508700Y-96757878D01*
X124508700Y-96757878D02*
X124889652Y-96757878D01*
X124889652Y-96757878D02*
X124984890Y-96805497D01*
X124984890Y-96805497D02*
X125032509Y-96853116D01*
X125032509Y-96853116D02*
X125080128Y-96948354D01*
X125080128Y-96948354D02*
X125080128Y-97091211D01*
X125080128Y-97091211D02*
X125032509Y-97186449D01*
X125032509Y-97186449D02*
X124984890Y-97234068D01*
X124984890Y-97234068D02*
X124889652Y-97281687D01*
X124889652Y-97281687D02*
X124508700Y-97281687D01*
X128333333Y-88857419D02*
X128333333Y-87857419D01*
X128333333Y-87857419D02*
X128714285Y-87857419D01*
X128714285Y-87857419D02*
X128809523Y-87905038D01*
X128809523Y-87905038D02*
X128857142Y-87952657D01*
X128857142Y-87952657D02*
X128904761Y-88047895D01*
X128904761Y-88047895D02*
X128904761Y-88190752D01*
X128904761Y-88190752D02*
X128857142Y-88285990D01*
X128857142Y-88285990D02*
X128809523Y-88333609D01*
X128809523Y-88333609D02*
X128714285Y-88381228D01*
X128714285Y-88381228D02*
X128333333Y-88381228D01*
X129476190Y-88857419D02*
X129380952Y-88809800D01*
X129380952Y-88809800D02*
X129333333Y-88762180D01*
X129333333Y-88762180D02*
X129285714Y-88666942D01*
X129285714Y-88666942D02*
X129285714Y-88381228D01*
X129285714Y-88381228D02*
X129333333Y-88285990D01*
X129333333Y-88285990D02*
X129380952Y-88238371D01*
X129380952Y-88238371D02*
X129476190Y-88190752D01*
X129476190Y-88190752D02*
X129619047Y-88190752D01*
X129619047Y-88190752D02*
X129714285Y-88238371D01*
X129714285Y-88238371D02*
X129761904Y-88285990D01*
X129761904Y-88285990D02*
X129809523Y-88381228D01*
X129809523Y-88381228D02*
X129809523Y-88666942D01*
X129809523Y-88666942D02*
X129761904Y-88762180D01*
X129761904Y-88762180D02*
X129714285Y-88809800D01*
X129714285Y-88809800D02*
X129619047Y-88857419D01*
X129619047Y-88857419D02*
X129476190Y-88857419D01*
X130238095Y-88333609D02*
X130571428Y-88333609D01*
X130714285Y-88857419D02*
X130238095Y-88857419D01*
X130238095Y-88857419D02*
X130238095Y-87857419D01*
X130238095Y-87857419D02*
X130714285Y-87857419D01*
D14*
X105066666Y-93354819D02*
X105066666Y-94069104D01*
X105066666Y-94069104D02*
X105019047Y-94211961D01*
X105019047Y-94211961D02*
X104923809Y-94307200D01*
X104923809Y-94307200D02*
X104780952Y-94354819D01*
X104780952Y-94354819D02*
X104685714Y-94354819D01*
X105495238Y-93450057D02*
X105542857Y-93402438D01*
X105542857Y-93402438D02*
X105638095Y-93354819D01*
X105638095Y-93354819D02*
X105876190Y-93354819D01*
X105876190Y-93354819D02*
X105971428Y-93402438D01*
X105971428Y-93402438D02*
X106019047Y-93450057D01*
X106019047Y-93450057D02*
X106066666Y-93545295D01*
X106066666Y-93545295D02*
X106066666Y-93640533D01*
X106066666Y-93640533D02*
X106019047Y-93783390D01*
X106019047Y-93783390D02*
X105447619Y-94354819D01*
X105447619Y-94354819D02*
X106066666Y-94354819D01*
X113663163Y-83827100D02*
X113663163Y-84541385D01*
X113663163Y-84541385D02*
X113615544Y-84684242D01*
X113615544Y-84684242D02*
X113520306Y-84779481D01*
X113520306Y-84779481D02*
X113377449Y-84827100D01*
X113377449Y-84827100D02*
X113282211Y-84827100D01*
X114044116Y-83827100D02*
X114663163Y-83827100D01*
X114663163Y-83827100D02*
X114329830Y-84208052D01*
X114329830Y-84208052D02*
X114472687Y-84208052D01*
X114472687Y-84208052D02*
X114567925Y-84255671D01*
X114567925Y-84255671D02*
X114615544Y-84303290D01*
X114615544Y-84303290D02*
X114663163Y-84398528D01*
X114663163Y-84398528D02*
X114663163Y-84636623D01*
X114663163Y-84636623D02*
X114615544Y-84731861D01*
X114615544Y-84731861D02*
X114567925Y-84779481D01*
X114567925Y-84779481D02*
X114472687Y-84827100D01*
X114472687Y-84827100D02*
X114186973Y-84827100D01*
X114186973Y-84827100D02*
X114091735Y-84779481D01*
X114091735Y-84779481D02*
X114044116Y-84731861D01*
X92396257Y-80564092D02*
X92396257Y-81278377D01*
X92396257Y-81278377D02*
X92348638Y-81421234D01*
X92348638Y-81421234D02*
X92253400Y-81516473D01*
X92253400Y-81516473D02*
X92110543Y-81564092D01*
X92110543Y-81564092D02*
X92015305Y-81564092D01*
X92777210Y-80564092D02*
X93443876Y-80564092D01*
X93443876Y-80564092D02*
X93015305Y-81564092D01*
X98536667Y-80616556D02*
X98536667Y-81330841D01*
X98536667Y-81330841D02*
X98489048Y-81473698D01*
X98489048Y-81473698D02*
X98393810Y-81568937D01*
X98393810Y-81568937D02*
X98250953Y-81616556D01*
X98250953Y-81616556D02*
X98155715Y-81616556D01*
X99441429Y-80616556D02*
X99250953Y-80616556D01*
X99250953Y-80616556D02*
X99155715Y-80664175D01*
X99155715Y-80664175D02*
X99108096Y-80711794D01*
X99108096Y-80711794D02*
X99012858Y-80854651D01*
X99012858Y-80854651D02*
X98965239Y-81045127D01*
X98965239Y-81045127D02*
X98965239Y-81426079D01*
X98965239Y-81426079D02*
X99012858Y-81521317D01*
X99012858Y-81521317D02*
X99060477Y-81568937D01*
X99060477Y-81568937D02*
X99155715Y-81616556D01*
X99155715Y-81616556D02*
X99346191Y-81616556D01*
X99346191Y-81616556D02*
X99441429Y-81568937D01*
X99441429Y-81568937D02*
X99489048Y-81521317D01*
X99489048Y-81521317D02*
X99536667Y-81426079D01*
X99536667Y-81426079D02*
X99536667Y-81187984D01*
X99536667Y-81187984D02*
X99489048Y-81092746D01*
X99489048Y-81092746D02*
X99441429Y-81045127D01*
X99441429Y-81045127D02*
X99346191Y-80997508D01*
X99346191Y-80997508D02*
X99155715Y-80997508D01*
X99155715Y-80997508D02*
X99060477Y-81045127D01*
X99060477Y-81045127D02*
X99012858Y-81092746D01*
X99012858Y-81092746D02*
X98965239Y-81187984D01*
X113684665Y-97013246D02*
X113684665Y-97727531D01*
X113684665Y-97727531D02*
X113637046Y-97870388D01*
X113637046Y-97870388D02*
X113541808Y-97965627D01*
X113541808Y-97965627D02*
X113398951Y-98013246D01*
X113398951Y-98013246D02*
X113303713Y-98013246D01*
X114589427Y-97346579D02*
X114589427Y-98013246D01*
X114351332Y-96965627D02*
X114113237Y-97679912D01*
X114113237Y-97679912D02*
X114732284Y-97679912D01*
X126066666Y-87154819D02*
X126066666Y-87869104D01*
X126066666Y-87869104D02*
X126019047Y-88011961D01*
X126019047Y-88011961D02*
X125923809Y-88107200D01*
X125923809Y-88107200D02*
X125780952Y-88154819D01*
X125780952Y-88154819D02*
X125685714Y-88154819D01*
X127019047Y-87154819D02*
X126542857Y-87154819D01*
X126542857Y-87154819D02*
X126495238Y-87631009D01*
X126495238Y-87631009D02*
X126542857Y-87583390D01*
X126542857Y-87583390D02*
X126638095Y-87535771D01*
X126638095Y-87535771D02*
X126876190Y-87535771D01*
X126876190Y-87535771D02*
X126971428Y-87583390D01*
X126971428Y-87583390D02*
X127019047Y-87631009D01*
X127019047Y-87631009D02*
X127066666Y-87726247D01*
X127066666Y-87726247D02*
X127066666Y-87964342D01*
X127066666Y-87964342D02*
X127019047Y-88059580D01*
X127019047Y-88059580D02*
X126971428Y-88107200D01*
X126971428Y-88107200D02*
X126876190Y-88154819D01*
X126876190Y-88154819D02*
X126638095Y-88154819D01*
X126638095Y-88154819D02*
X126542857Y-88107200D01*
X126542857Y-88107200D02*
X126495238Y-88059580D01*
D13*
X110971428Y-88372371D02*
X110628571Y-88372371D01*
X110800000Y-88372371D02*
X110800000Y-87772371D01*
X110800000Y-87772371D02*
X110742857Y-87858085D01*
X110742857Y-87858085D02*
X110685714Y-87915228D01*
X110685714Y-87915228D02*
X110628571Y-87943800D01*
D14*
X83266666Y-90354819D02*
X83266666Y-91069104D01*
X83266666Y-91069104D02*
X83219047Y-91211961D01*
X83219047Y-91211961D02*
X83123809Y-91307200D01*
X83123809Y-91307200D02*
X82980952Y-91354819D01*
X82980952Y-91354819D02*
X82885714Y-91354819D01*
X84266666Y-91354819D02*
X83695238Y-91354819D01*
X83980952Y-91354819D02*
X83980952Y-90354819D01*
X83980952Y-90354819D02*
X83885714Y-90497676D01*
X83885714Y-90497676D02*
X83790476Y-90592914D01*
X83790476Y-90592914D02*
X83695238Y-90640533D01*
G04 #@! TO.C,R27*
D15*
X97765000Y-98477064D02*
X97765000Y-98022936D01*
X99235000Y-98477064D02*
X99235000Y-98022936D01*
G04 #@! TO.C,D1*
X106515628Y-84592625D02*
X106515628Y-86292625D01*
X106515628Y-84592625D02*
X109175628Y-84592625D01*
X106515628Y-86292625D02*
X109175628Y-86292625D01*
G04 #@! TO.C,R18*
X115846359Y-93620000D02*
X116153641Y-93620000D01*
X115846359Y-94380000D02*
X116153641Y-94380000D01*
G04 #@! TO.C,K1*
X115240000Y-87610000D02*
X119260000Y-87610000D01*
X115240000Y-87965000D02*
X115240000Y-87610000D01*
X115240000Y-91930000D02*
X115240000Y-91575000D01*
X119260000Y-87610000D02*
X119260000Y-87965000D01*
X119260000Y-91575000D02*
X119260000Y-91930000D01*
X119260000Y-91930000D02*
X115240000Y-91930000D01*
X120000000Y-90500000D02*
X119660000Y-90030000D01*
X120340000Y-90030000D01*
X120000000Y-90500000D01*
G36*
X120000000Y-90500000D02*
G01*
X119660000Y-90030000D01*
X120340000Y-90030000D01*
X120000000Y-90500000D01*
G37*
G04 #@! TO.C,C14*
X110309548Y-93765000D02*
X110832052Y-93765000D01*
X110309548Y-95235000D02*
X110832052Y-95235000D01*
G04 #@! TO.C,R10*
X112417159Y-96120000D02*
X112724441Y-96120000D01*
X112417159Y-96880000D02*
X112724441Y-96880000D01*
G04 #@! TO.C,R16*
X129015000Y-93610436D02*
X129015000Y-94064564D01*
X130485000Y-93610436D02*
X130485000Y-94064564D01*
G04 #@! TO.C,J2*
X102403200Y-87158200D02*
X103153200Y-87158200D01*
X102403200Y-96058200D02*
X102403200Y-87158200D01*
X102403200Y-101858200D02*
X102403200Y-98658200D01*
X102903200Y-101858200D02*
X102403200Y-101858200D01*
X102903200Y-104358200D02*
X102903200Y-101858200D01*
X106353200Y-87158200D02*
X108603200Y-87158200D01*
X108103200Y-101858200D02*
X108103200Y-104358200D01*
X108103200Y-104358200D02*
X102903200Y-104358200D01*
X108603200Y-87158200D02*
X108603200Y-88358200D01*
X108603200Y-91558200D02*
X108603200Y-98058200D01*
X108603200Y-98058200D02*
X110603200Y-98058200D01*
X108603200Y-100658200D02*
X108603200Y-101858200D01*
X108603200Y-100658200D02*
X110603200Y-100658200D01*
X108603200Y-101858200D02*
X108103200Y-101858200D01*
G04 #@! TO.C,J3*
X114235139Y-80500795D02*
X115565139Y-80500795D01*
X114235139Y-81830795D02*
X114235139Y-80500795D01*
X116835139Y-80500795D02*
X132135139Y-80500795D01*
X116835139Y-83160795D02*
X116835139Y-80500795D01*
X116835139Y-83160795D02*
X132135139Y-83160795D01*
X132135139Y-83160795D02*
X132135139Y-80500795D01*
G04 #@! TO.C,J7*
X81109591Y-80479273D02*
X82439591Y-80479273D01*
X81109591Y-81809273D02*
X81109591Y-80479273D01*
X83709591Y-80479273D02*
X91389591Y-80479273D01*
X83709591Y-83139273D02*
X83709591Y-80479273D01*
X83709591Y-83139273D02*
X91389591Y-83139273D01*
X91389591Y-83139273D02*
X91389591Y-80479273D01*
G04 #@! TO.C,U2*
X120885600Y-84277900D02*
X122705600Y-84277900D01*
X120885600Y-84327900D02*
X120885600Y-84277900D01*
X120885600Y-87397900D02*
X120885600Y-87347900D01*
X122705600Y-84277900D02*
X122705600Y-84327900D01*
X122705600Y-85447900D02*
X122705600Y-86227900D01*
X122705600Y-87347900D02*
X122705600Y-87397900D01*
X122705600Y-87397900D02*
X120885600Y-87397900D01*
X120345600Y-84327900D02*
X120105600Y-83997900D01*
X120585600Y-83997900D01*
X120345600Y-84327900D01*
G36*
X120345600Y-84327900D02*
G01*
X120105600Y-83997900D01*
X120585600Y-83997900D01*
X120345600Y-84327900D01*
G37*
G04 #@! TO.C,C15*
X110309548Y-95765000D02*
X110832052Y-95765000D01*
X110309548Y-97235000D02*
X110832052Y-97235000D01*
G04 #@! TO.C,J6*
X100180181Y-83256272D02*
X100180181Y-81876272D01*
X101560181Y-83256272D02*
X100180181Y-83256272D01*
X102830181Y-80496272D02*
X110560181Y-80496272D01*
X102830181Y-83256272D02*
X102830181Y-80496272D01*
X102830181Y-83256272D02*
X110560181Y-83256272D01*
X110560181Y-83256272D02*
X110560181Y-80496272D01*
G04 #@! TO.C,C21*
X124758564Y-84501400D02*
X124974236Y-84501400D01*
X124758564Y-85221400D02*
X124974236Y-85221400D01*
G04 #@! TO.C,R17*
X116846359Y-91870000D02*
X117153641Y-91870000D01*
X116846359Y-92630000D02*
X117153641Y-92630000D01*
G04 #@! TO.C,R13*
X101575718Y-85419746D02*
X101268436Y-85419746D01*
X101575718Y-86179746D02*
X101268436Y-86179746D01*
G04 #@! TO.C,C22*
X124733164Y-86381000D02*
X124948836Y-86381000D01*
X124733164Y-87101000D02*
X124948836Y-87101000D01*
G04 #@! TO.C,J4*
X114257999Y-98320227D02*
X115587999Y-98320227D01*
X114257999Y-99650227D02*
X114257999Y-98320227D01*
X116857999Y-98320227D02*
X132157999Y-98320227D01*
X116857999Y-100980227D02*
X116857999Y-98320227D01*
X116857999Y-100980227D02*
X132157999Y-100980227D01*
X132157999Y-100980227D02*
X132157999Y-98320227D01*
G04 #@! TO.C,J5*
X126275400Y-86597000D02*
X126275400Y-85217000D01*
X127655400Y-86597000D02*
X126275400Y-86597000D01*
X128925400Y-83837000D02*
X131575400Y-83837000D01*
X128925400Y-86597000D02*
X128925400Y-83837000D01*
X128925400Y-86597000D02*
X131575400Y-86597000D01*
X131575400Y-86597000D02*
X131575400Y-83837000D01*
G04 #@! TO.C,C19*
D14*
X120055869Y-86581258D02*
G75*
G02*
X109055869Y-86581258I-5500000J0D01*
G01*
X109055869Y-86581258D02*
G75*
G02*
X120055869Y-86581258I5500000J0D01*
G01*
G04 #@! TO.C,R11*
D15*
X101286211Y-84051076D02*
X101593493Y-84051076D01*
X101286211Y-84811076D02*
X101593493Y-84811076D01*
G04 #@! TO.C,R14*
X114346359Y-86870000D02*
X114653641Y-86870000D01*
X114346359Y-87630000D02*
X114653641Y-87630000D01*
G04 #@! TO.C,R28*
X128727064Y-96515000D02*
X128272936Y-96515000D01*
X128727064Y-97985000D02*
X128272936Y-97985000D01*
G04 #@! TO.C,J1*
X73761000Y-82659600D02*
X72761000Y-82659600D01*
X73761000Y-82659600D02*
X73761000Y-79659600D01*
X73761000Y-98899600D02*
X72761000Y-98899600D01*
X73761000Y-101899600D02*
X73761000Y-98899600D01*
X76461000Y-78159600D02*
X83051000Y-78159600D01*
X76461000Y-79659600D02*
X73761000Y-79659600D01*
X76461000Y-79659600D02*
X76461000Y-78159600D01*
X76461000Y-101899600D02*
X73761000Y-101899600D01*
X76461000Y-103399600D02*
X76461000Y-101899600D01*
X76461000Y-103399600D02*
X83051000Y-103399600D01*
X83051000Y-78159600D02*
X83051000Y-79659600D01*
X83051000Y-79659600D02*
X88151000Y-79659600D01*
X83051000Y-101899600D02*
X83051000Y-103399600D01*
X83051000Y-101899600D02*
X88151000Y-101899600D01*
X88151000Y-79659600D02*
X88151000Y-82459600D01*
X88151000Y-82459600D02*
X94496000Y-82464600D01*
X88151000Y-99099600D02*
X93896000Y-99099600D01*
X88151000Y-101899600D02*
X88151000Y-99099600D01*
X96096000Y-99099600D02*
X101201000Y-99099600D01*
X96796000Y-82459600D02*
X101201000Y-82459600D01*
X101201000Y-89479600D02*
X101201000Y-82459600D01*
X101201000Y-99099600D02*
X101201000Y-92079600D01*
X72761000Y-98899600D02*
G75*
G02*
X72750399Y-82679370I15120000J8120000D01*
G01*
G04 #@! TO.C,R9*
X112417159Y-94120000D02*
X112724441Y-94120000D01*
X112417159Y-94880000D02*
X112724441Y-94880000D01*
G04 #@! TO.C,K2*
X122745307Y-91945059D02*
X126765307Y-91945059D01*
X122745307Y-92300059D02*
X122745307Y-91945059D01*
X122745307Y-96265059D02*
X122745307Y-95910059D01*
X126765307Y-91945059D02*
X126765307Y-92300059D01*
X126765307Y-95910059D02*
X126765307Y-96265059D01*
X126765307Y-96265059D02*
X122745307Y-96265059D01*
X122005307Y-93375059D02*
X122345307Y-93845059D01*
X121665307Y-93845059D01*
X122005307Y-93375059D01*
G36*
X122345307Y-93845059D02*
G01*
X121665307Y-93845059D01*
X122005307Y-93375059D01*
X122345307Y-93845059D01*
G37*
G04 #@! TD*
%LPC*%
D16*
G04 #@! TO.C,R27*
X98500000Y-99162500D03*
X98500000Y-97337500D03*
G04 #@! TD*
D17*
G04 #@! TO.C,D1*
X107075628Y-85442625D03*
X109175628Y-85442625D03*
G04 #@! TD*
D18*
G04 #@! TO.C,R18*
X115490000Y-94000000D03*
X116510000Y-94000000D03*
G04 #@! TD*
D19*
G04 #@! TO.C,K1*
X120000000Y-91040000D03*
X120000000Y-88500000D03*
X114500000Y-88500000D03*
X114500000Y-91040000D03*
G04 #@! TD*
D20*
G04 #@! TO.C,C14*
X109620800Y-94500000D03*
X111520800Y-94500000D03*
G04 #@! TD*
D18*
G04 #@! TO.C,R10*
X112060800Y-96500000D03*
X113080800Y-96500000D03*
G04 #@! TD*
D21*
G04 #@! TO.C,R16*
X129750000Y-92925000D03*
X129750000Y-94750000D03*
G04 #@! TD*
D22*
G04 #@! TO.C,J2*
X105503200Y-98258200D03*
X105503200Y-91258200D03*
D23*
X101803200Y-97358200D03*
X109203200Y-99358200D03*
D24*
X109203200Y-89958200D03*
D25*
X104753200Y-85958200D03*
G04 #@! TD*
D26*
G04 #@! TO.C,J3*
X115565139Y-81830795D03*
D22*
X118105139Y-81830795D03*
X120645139Y-81830795D03*
X123185139Y-81830795D03*
X125725139Y-81830795D03*
X128265139Y-81830795D03*
X130805139Y-81830795D03*
G04 #@! TD*
D26*
G04 #@! TO.C,J7*
X82439591Y-81809273D03*
D22*
X84979591Y-81809273D03*
X87519591Y-81809273D03*
X90059591Y-81809273D03*
G04 #@! TD*
D27*
G04 #@! TO.C,U2*
X120658100Y-84887900D03*
X120658100Y-85837900D03*
X120658100Y-86787900D03*
X122933100Y-86787900D03*
X122933100Y-84887900D03*
G04 #@! TD*
D20*
G04 #@! TO.C,C15*
X109620800Y-96500000D03*
X111520800Y-96500000D03*
G04 #@! TD*
D26*
G04 #@! TO.C,J6*
X101560181Y-81876272D03*
D22*
X104100181Y-81876272D03*
X106640181Y-81876272D03*
X109180181Y-81876272D03*
G04 #@! TD*
D28*
G04 #@! TO.C,C21*
X124386400Y-84861400D03*
X125346400Y-84861400D03*
G04 #@! TD*
D18*
G04 #@! TO.C,R17*
X116490000Y-92250000D03*
X117510000Y-92250000D03*
G04 #@! TD*
D29*
G04 #@! TO.C,R13*
X101932077Y-85799746D03*
X100912077Y-85799746D03*
G04 #@! TD*
D28*
G04 #@! TO.C,C22*
X124361000Y-86741000D03*
X125321000Y-86741000D03*
G04 #@! TD*
D26*
G04 #@! TO.C,J4*
X115587999Y-99650227D03*
D22*
X118127999Y-99650227D03*
X120667999Y-99650227D03*
X123207999Y-99650227D03*
X125747999Y-99650227D03*
X128287999Y-99650227D03*
X130827999Y-99650227D03*
G04 #@! TD*
D26*
G04 #@! TO.C,J5*
X127655400Y-85217000D03*
D22*
X130195400Y-85217000D03*
G04 #@! TD*
D30*
G04 #@! TO.C,C19*
X110805869Y-86581258D03*
X118305869Y-86581258D03*
G04 #@! TD*
D18*
G04 #@! TO.C,R11*
X100929852Y-84431076D03*
X101949852Y-84431076D03*
G04 #@! TD*
G04 #@! TO.C,R14*
X113990000Y-87250000D03*
X115010000Y-87250000D03*
G04 #@! TD*
D31*
G04 #@! TO.C,R28*
X129412500Y-97250000D03*
X127587500Y-97250000D03*
G04 #@! TD*
D30*
G04 #@! TO.C,J1*
X86106000Y-90779600D03*
X82931000Y-96494600D03*
X82931000Y-85064600D03*
D32*
X94996000Y-97764600D03*
X95631000Y-83794600D03*
D33*
X100076000Y-90779600D03*
D34*
X83566000Y-99034600D03*
D33*
X99441000Y-87922100D03*
X99441000Y-93637100D03*
D35*
X92456000Y-95224600D03*
X92456000Y-86334600D03*
G04 #@! TD*
D18*
G04 #@! TO.C,R9*
X112060800Y-94500000D03*
X113080800Y-94500000D03*
G04 #@! TD*
D36*
G04 #@! TO.C,K2*
X122005307Y-92835059D03*
X122005307Y-95375059D03*
X127505307Y-95375059D03*
X127505307Y-92835059D03*
G04 #@! TD*
D37*
G04 #@! TO.C,SW1*
X125305993Y-90746504D03*
D30*
X127845993Y-90746504D03*
D37*
X130385993Y-90746504D03*
G04 #@! TD*
%LPD*%
M02*
