M48
; DRILL file KiCad 10.0.3 date 2026-07-21T21:42:41
; FORMAT={-:-/ absolute / metric / decimal}
; #@! TF.CreationDate,2026-07-21T21:42:41-07:00
; #@! TF.GenerationSoftware,Kicad,Pcbnew,10.0.3
; #@! TF.FileFunction,Plated,1,4,PTH
FMAT,2
METRIC
; #@! TA.AperFunction,Plated,PTH,ViaDrill
T1C0.300
; #@! TA.AperFunction,Plated,PTH,ComponentDrill
T2C0.800
; #@! TA.AperFunction,Plated,PTH,ComponentDrill
T3C0.900
; #@! TA.AperFunction,Plated,PTH,ComponentDrill
T4C1.000
; #@! TA.AperFunction,Plated,PTH,ComponentDrill
T5C1.200
; #@! TA.AperFunction,Plated,PTH,ComponentDrill
T6C1.600
%
G90
G05
T1
X83.25Y-88.75
X83.8Y-95.0
X86.0Y-83.5
X86.0Y-96.5
X86.5Y-88.7
X86.7Y-95.3
X87.0Y-96.75
X87.37Y-85.2
X88.0Y-82.0
X88.1Y-88.5
X88.3Y-95.5
X88.4Y-98.0
X89.0Y-86.0
X89.3Y-96.8
X89.4Y-91.8
X90.3Y-96.7
X90.839Y-89.052
X92.4Y-92.7
X92.659Y-83.307
X93.204Y-91.752
X93.5Y-99.8
X93.9Y-92.402
X95.411Y-92.0
X95.8Y-95.2
X95.834Y-88.109
X96.0Y-89.8
X96.299Y-87.248
X96.799Y-89.789
X97.079Y-91.669
X97.1Y-86.3
X97.521Y-94.972
X97.7Y-95.7
X98.55Y-84.28
X98.644Y-85.772
X99.35Y-82.6
X100.0Y-84.75
X100.05Y-83.35
X102.1Y-94.6
X102.446Y-86.691
X102.903Y-85.427
X103.35Y-83.4
X103.4Y-90.6
X105.23Y-96.25
X105.6Y-100.1
X106.0Y-84.208
X107.34Y-88.341
X107.95Y-92.0
X108.04Y-85.443
X109.15Y-87.1
X109.203Y-99.358
X110.16Y-84.433
X111.25Y-92.7
X111.264Y-88.643
X112.003Y-88.771
X112.27Y-92.033
X112.392Y-93.586
X112.417Y-90.597
X112.45Y-87.7
X112.726Y-89.871
X113.068Y-92.168
X113.279Y-94.543
X113.801Y-96.672
X113.842Y-93.446
X114.044Y-94.744
X114.1Y-85.2
X114.303Y-97.443
X114.805Y-95.539
X114.867Y-94.732
X114.923Y-86.883
X114.992Y-96.577
X115.549Y-89.5
X115.643Y-86.674
X115.7Y-92.3
X116.586Y-87.286
X116.708Y-85.314
X117.0Y-83.598
X117.004Y-89.806
X117.119Y-94.673
X117.272Y-96.545
X117.789Y-90.11
X118.1Y-83.4
X118.1Y-84.822
X118.106Y-93.88
X118.517Y-88.733
X118.55Y-90.11
X118.7Y-91.615
X118.9Y-94.0
X119.06Y-98.171
X119.182Y-92.323
X119.27Y-84.75
X119.65Y-89.95
X119.71Y-92.973
X119.736Y-96.23
X121.0Y-86.7
X121.116Y-84.901
X121.522Y-95.5
X122.12Y-91.65
X122.15Y-90.85
X122.212Y-94.084
X122.845Y-85.966
X122.936Y-85.05
X122.943Y-87.621
X123.2Y-92.5
X123.271Y-88.295
X123.3Y-89.864
X123.379Y-95.785
X123.5Y-97.5
X123.608Y-93.671
X124.386Y-84.861
X124.53Y-87.584
X124.73Y-96.311
X124.75Y-85.816
X124.798Y-94.31
X125.171Y-93.091
X125.363Y-87.737
X125.55Y-97.963
X125.689Y-96.4
X126.086Y-89.638
X126.95Y-83.85
X127.0Y-82.65
X127.6Y-92.8
X127.837Y-95.11
X129.0Y-95.65
X129.2Y-97.75
X129.55Y-100.25
X131.01Y-96.5
T2
X110.806Y-86.581
X118.306Y-86.581
T3
X125.306Y-90.747
X127.846Y-90.747
X130.386Y-90.747
T4
X101.49Y-82.015
X104.03Y-82.015
X106.57Y-82.015
X109.11Y-82.015
X115.569Y-81.959
X115.58Y-99.512
X118.109Y-81.959
X118.12Y-99.512
X120.649Y-81.959
X120.66Y-99.512
X123.189Y-81.959
X123.2Y-99.512
X125.729Y-81.959
X125.74Y-99.512
X127.655Y-85.217
X128.269Y-81.959
X128.28Y-99.512
X130.195Y-85.217
X130.809Y-81.959
X130.82Y-99.512
T5
X94.996Y-97.765
X95.631Y-83.795
X99.441Y-87.922
X99.441Y-93.637
X100.076Y-90.78
T6
X83.566Y-99.035
X92.456Y-86.335
X92.456Y-95.225
M30
