G04 #@! TF.GenerationSoftware,KiCad,Pcbnew,10.0.3*
G04 #@! TF.CreationDate,2026-07-15T23:09:27-07:00*
G04 #@! TF.ProjectId,scramble_hat,73637261-6d62-46c6-955f-6861742e6b69,rev?*
G04 #@! TF.SameCoordinates,Original*
G04 #@! TF.FileFunction,Copper,L1,Top*
G04 #@! TF.FilePolarity,Positive*
%FSLAX46Y46*%
G04 Gerber Fmt 4.6, Leading zero omitted, Abs format (unit mm)*
G04 Created by KiCad (PCBNEW 10.0.3) date 2026-07-15 23:09:27*
%MOMM*%
%LPD*%
G01*
G04 APERTURE LIST*
G04 Aperture macros list*
%AMRoundRect*
0 Rectangle with rounded corners*
0 $1 Rounding radius*
0 $2 $3 $4 $5 $6 $7 $8 $9 X,Y pos of 4 corners*
0 Add a 4 corners polygon primitive as box body*
4,1,4,$2,$3,$4,$5,$6,$7,$8,$9,$2,$3,0*
0 Add four circle primitives for the rounded corners*
1,1,$1+$1,$2,$3*
1,1,$1+$1,$4,$5*
1,1,$1+$1,$6,$7*
1,1,$1+$1,$8,$9*
0 Add four rect primitives between the rounded corners*
20,1,$1+$1,$2,$3,$4,$5,0*
20,1,$1+$1,$4,$5,$6,$7,0*
20,1,$1+$1,$6,$7,$8,$9,0*
20,1,$1+$1,$8,$9,$2,$3,0*%
G04 Aperture macros list end*
G04 #@! TA.AperFunction,SMDPad,CuDef*
%ADD10RoundRect,0.087500X-0.425000X-0.087500X0.425000X-0.087500X0.425000X0.087500X-0.425000X0.087500X0*%
G04 #@! TD*
G04 #@! TA.AperFunction,SMDPad,CuDef*
%ADD11RoundRect,0.135000X-0.135000X-0.185000X0.135000X-0.185000X0.135000X0.185000X-0.135000X0.185000X0*%
G04 #@! TD*
G04 #@! TA.AperFunction,SMDPad,CuDef*
%ADD12RoundRect,0.137500X0.587500X0.137500X-0.587500X0.137500X-0.587500X-0.137500X0.587500X-0.137500X0*%
G04 #@! TD*
G04 #@! TA.AperFunction,SMDPad,CuDef*
%ADD13RoundRect,0.250000X-0.250000X-0.475000X0.250000X-0.475000X0.250000X0.475000X-0.250000X0.475000X0*%
G04 #@! TD*
G04 #@! TA.AperFunction,SMDPad,CuDef*
%ADD14RoundRect,0.250000X-0.450000X0.262500X-0.450000X-0.262500X0.450000X-0.262500X0.450000X0.262500X0*%
G04 #@! TD*
G04 #@! TA.AperFunction,SMDPad,CuDef*
%ADD15R,2.800000X2.200000*%
G04 #@! TD*
G04 #@! TA.AperFunction,SMDPad,CuDef*
%ADD16R,2.800000X2.800000*%
G04 #@! TD*
G04 #@! TA.AperFunction,SMDPad,CuDef*
%ADD17R,2.800000X2.600000*%
G04 #@! TD*
G04 #@! TA.AperFunction,ComponentPad*
%ADD18R,1.700000X1.700000*%
G04 #@! TD*
G04 #@! TA.AperFunction,ComponentPad*
%ADD19C,1.700000*%
G04 #@! TD*
G04 #@! TA.AperFunction,SMDPad,CuDef*
%ADD20RoundRect,0.150000X-0.512500X-0.150000X0.512500X-0.150000X0.512500X0.150000X-0.512500X0.150000X0*%
G04 #@! TD*
G04 #@! TA.AperFunction,SMDPad,CuDef*
%ADD21RoundRect,0.140000X-0.140000X-0.170000X0.140000X-0.170000X0.140000X0.170000X-0.140000X0.170000X0*%
G04 #@! TD*
G04 #@! TA.AperFunction,SMDPad,CuDef*
%ADD22RoundRect,0.135000X0.135000X0.185000X-0.135000X0.185000X-0.135000X-0.185000X0.135000X-0.185000X0*%
G04 #@! TD*
G04 #@! TA.AperFunction,ComponentPad*
%ADD23C,1.600000*%
G04 #@! TD*
G04 #@! TA.AperFunction,ComponentPad*
%ADD24C,2.900000*%
G04 #@! TD*
G04 #@! TA.AperFunction,ComponentPad*
%ADD25C,2.700000*%
G04 #@! TD*
G04 #@! TA.AperFunction,ComponentPad*
%ADD26C,3.200000*%
G04 #@! TD*
G04 #@! TA.AperFunction,ComponentPad*
%ADD27C,3.400000*%
G04 #@! TD*
G04 #@! TA.AperFunction,SMDPad,CuDef*
%ADD28RoundRect,0.137500X-0.587500X-0.137500X0.587500X-0.137500X0.587500X0.137500X-0.587500X0.137500X0*%
G04 #@! TD*
G04 #@! TA.AperFunction,ComponentPad*
%ADD29O,1.600000X1.600000*%
G04 #@! TD*
G04 #@! TA.AperFunction,ViaPad*
%ADD30C,0.600000*%
G04 #@! TD*
G04 #@! TA.AperFunction,Conductor*
%ADD31C,0.200000*%
G04 #@! TD*
G04 APERTURE END LIST*
D10*
G04 #@! TO.P,D1,1,K_1*
G04 #@! TO.N,MIC1N*
X107288128Y-84792625D03*
G04 #@! TO.P,D1,2,A_2*
G04 #@! TO.N,AGND*
X107288128Y-85442625D03*
G04 #@! TO.P,D1,3*
G04 #@! TO.N,N/C*
X107288128Y-86092625D03*
G04 #@! TO.P,D1,4*
X108963128Y-86092625D03*
G04 #@! TO.P,D1,5*
X108963128Y-84792625D03*
G04 #@! TD*
D11*
G04 #@! TO.P,R18,1*
G04 #@! TO.N,PHANTOM_SW*
X115490000Y-94000000D03*
G04 #@! TO.P,R18,2*
G04 #@! TO.N,K2_LEDA*
X116510000Y-94000000D03*
G04 #@! TD*
D12*
G04 #@! TO.P,K1,1,A_1*
G04 #@! TO.N,K1_LEDA*
X120000000Y-91040000D03*
G04 #@! TO.P,K1,2,K_2*
G04 #@! TO.N,AGND*
X120000000Y-88500000D03*
G04 #@! TO.P,K1,3,L1_3*
G04 #@! TO.N,TAP_HV*
X114500000Y-88500000D03*
G04 #@! TO.P,K1,4,L2_4*
G04 #@! TO.N,V_PoE*
X114500000Y-91040000D03*
G04 #@! TD*
D13*
G04 #@! TO.P,C14,1*
G04 #@! TO.N,HP_L_OUT*
X109620800Y-94500000D03*
G04 #@! TO.P,C14,2*
G04 #@! TO.N,HP_L*
X111520800Y-94500000D03*
G04 #@! TD*
D11*
G04 #@! TO.P,R10,1*
G04 #@! TO.N,HP_R*
X112060800Y-96500000D03*
G04 #@! TO.P,R10,2*
G04 #@! TO.N,ROUTP*
X113080800Y-96500000D03*
G04 #@! TD*
D14*
G04 #@! TO.P,R16,1*
G04 #@! TO.N,V_PHANTOM*
X129750000Y-92925000D03*
G04 #@! TO.P,R16,2*
G04 #@! TO.N,PHANTOM_LED*
X129750000Y-94750000D03*
G04 #@! TD*
D15*
G04 #@! TO.P,J2,R,R1_ROUT_R*
G04 #@! TO.N,HP_R_OUT*
X101803200Y-97358200D03*
G04 #@! TO.P,J2,S,S_MIC_S*
G04 #@! TO.N,MIC2_RAW*
X109203200Y-99358200D03*
D16*
G04 #@! TO.P,J2,T,T_LOUT_T*
G04 #@! TO.N,HP_L_OUT*
X109203200Y-89958200D03*
D17*
G04 #@! TO.P,J2,TN,R2_GND_TN*
G04 #@! TO.N,AGND*
X104753200Y-85958200D03*
G04 #@! TD*
D18*
G04 #@! TO.P,J3,1,Pin_1_1*
G04 #@! TO.N,ASDOUT*
X115570000Y-81915000D03*
D19*
G04 #@! TO.P,J3,2,Pin_2_2*
G04 #@! TO.N,LRCK*
X118110000Y-81915000D03*
G04 #@! TO.P,J3,3,Pin_3_3*
G04 #@! TO.N,AGND*
X120650000Y-81915000D03*
G04 #@! TO.P,J3,4,Pin_4_4*
G04 #@! TO.N,DSDIN*
X123190000Y-81915000D03*
G04 #@! TO.P,J3,5,Pin_5_5*
G04 #@! TO.N,BCLK*
X125730000Y-81915000D03*
G04 #@! TO.P,J3,6,Pin_6_6*
G04 #@! TO.N,MCLK*
X128270000Y-81915000D03*
G04 #@! TO.P,J3,7,Pin_7_7*
G04 #@! TO.N,PHANTOM_EN*
X130810000Y-81915000D03*
G04 #@! TD*
D20*
G04 #@! TO.P,U2,1,IN_1*
G04 #@! TO.N,+5V*
X120658100Y-84887900D03*
G04 #@! TO.P,U2,2,GND_2*
G04 #@! TO.N,AGND*
X120658100Y-85837900D03*
G04 #@! TO.P,U2,3,EN_3*
G04 #@! TO.N,+5V*
X120658100Y-86787900D03*
G04 #@! TO.P,U2,4,NC_4*
G04 #@! TO.N,unconnected-(U2-NC-Pad4)*
X122933100Y-86787900D03*
G04 #@! TO.P,U2,5,OUT_5*
G04 #@! TO.N,+3V3_A*
X122933100Y-84887900D03*
G04 #@! TD*
D13*
G04 #@! TO.P,C15,1*
G04 #@! TO.N,HP_R_OUT*
X109620800Y-96500000D03*
G04 #@! TO.P,C15,2*
G04 #@! TO.N,HP_R*
X111520800Y-96500000D03*
G04 #@! TD*
D18*
G04 #@! TO.P,J6,1,Pin_1_1*
G04 #@! TO.N,AGND*
X101500153Y-81924935D03*
D19*
G04 #@! TO.P,J6,2,Pin_2_2*
G04 #@! TO.N,+3V3*
X104040153Y-81924935D03*
G04 #@! TO.P,J6,3,Pin_3_3*
G04 #@! TO.N,SCL*
X106580153Y-81924935D03*
G04 #@! TO.P,J6,4,Pin_4_4*
G04 #@! TO.N,SDA*
X109120153Y-81924935D03*
G04 #@! TD*
D21*
G04 #@! TO.P,C21,1*
G04 #@! TO.N,+5V*
X124386400Y-84861400D03*
G04 #@! TO.P,C21,2*
G04 #@! TO.N,AGND*
X125346400Y-84861400D03*
G04 #@! TD*
D11*
G04 #@! TO.P,R17,1*
G04 #@! TO.N,PHANTOM_SW*
X116490000Y-92250000D03*
G04 #@! TO.P,R17,2*
G04 #@! TO.N,K1_LEDA*
X117510000Y-92250000D03*
G04 #@! TD*
D22*
G04 #@! TO.P,R13,1*
G04 #@! TO.N,OK1_COLLECTOR*
X101932077Y-85799746D03*
G04 #@! TO.P,R13,2*
G04 #@! TO.N,Q1_GATE*
X100912077Y-85799746D03*
G04 #@! TD*
D21*
G04 #@! TO.P,C22,1*
G04 #@! TO.N,+3V3_A*
X124361000Y-86741000D03*
G04 #@! TO.P,C22,2*
G04 #@! TO.N,AGND*
X125321000Y-86741000D03*
G04 #@! TD*
D18*
G04 #@! TO.P,J4,1,Pin_1_1*
G04 #@! TO.N,+5V*
X115570000Y-99491800D03*
D19*
G04 #@! TO.P,J4,2,Pin_2_2*
G04 #@! TO.N,unconnected-(J4-Pin_2-Pad2)*
X118110000Y-99491800D03*
G04 #@! TO.P,J4,3,Pin_3_3*
G04 #@! TO.N,AGND*
X120650000Y-99491800D03*
G04 #@! TO.P,J4,4,Pin_4_4*
G04 #@! TO.N,unconnected-(J4-Pin_4-Pad4)*
X123190000Y-99491800D03*
G04 #@! TO.P,J4,5,Pin_5_5*
G04 #@! TO.N,+3V3*
X125730000Y-99491800D03*
G04 #@! TO.P,J4,6,Pin_6_6*
G04 #@! TO.N,SCL*
X128270000Y-99491800D03*
G04 #@! TO.P,J4,7,Pin_7_7*
G04 #@! TO.N,SDA*
X130810000Y-99491800D03*
G04 #@! TD*
D18*
G04 #@! TO.P,J5,1,Pin_1_1*
G04 #@! TO.N,TAP_HV*
X127655400Y-85217000D03*
D19*
G04 #@! TO.P,J5,2,Pin_2_2*
G04 #@! TO.N,TAP_GND*
X130195400Y-85217000D03*
G04 #@! TD*
D23*
G04 #@! TO.P,C19,1*
G04 #@! TO.N,PGND*
X110805869Y-86581258D03*
G04 #@! TO.P,C19,2*
G04 #@! TO.N,AGND*
X118305869Y-86581258D03*
G04 #@! TD*
D11*
G04 #@! TO.P,R11,1*
G04 #@! TO.N,Q1_GATE*
X100929852Y-84431076D03*
G04 #@! TO.P,R11,2*
G04 #@! TO.N,V_FILT*
X101949852Y-84431076D03*
G04 #@! TD*
G04 #@! TO.P,R14,1*
G04 #@! TO.N,PGND*
X113990000Y-87250000D03*
G04 #@! TO.P,R14,2*
G04 #@! TO.N,AGND*
X115010000Y-87250000D03*
G04 #@! TD*
D24*
G04 #@! TO.P,J1,1,XLR_1_1*
G04 #@! TO.N,PGND*
X94996000Y-97764600D03*
G04 #@! TO.P,J1,2,XLR_2_2*
G04 #@! TO.N,XLR2_HOT*
X95631000Y-83794600D03*
D25*
G04 #@! TO.P,J1,3,XLR_3_3*
G04 #@! TO.N,XLR3_COLD*
X100076000Y-90779600D03*
D26*
G04 #@! TO.P,J1,G,JACK_G_G*
G04 #@! TO.N,PGND*
X83566000Y-99034600D03*
D25*
G04 #@! TO.P,J1,R,JACK_R_R*
G04 #@! TO.N,unconnected-(J1-JACK_R-PadR)*
X99441000Y-87922100D03*
G04 #@! TO.P,J1,S,JACK_S_S*
G04 #@! TO.N,PGND*
X99441000Y-93637100D03*
D27*
G04 #@! TO.P,J1,T,JACK_T_T*
G04 #@! TO.N,unconnected-(J1-JACK_T-PadT)*
X92456000Y-95224600D03*
X92456000Y-86334600D03*
G04 #@! TD*
D11*
G04 #@! TO.P,R9,1*
G04 #@! TO.N,HP_L*
X112060800Y-94500000D03*
G04 #@! TO.P,R9,2*
G04 #@! TO.N,LOUTP*
X113080800Y-94500000D03*
G04 #@! TD*
D28*
G04 #@! TO.P,K2,1,A_1*
G04 #@! TO.N,K2_LEDA*
X122005307Y-92835059D03*
G04 #@! TO.P,K2,2,K_2*
G04 #@! TO.N,AGND*
X122005307Y-95375059D03*
G04 #@! TO.P,K2,3,L1_3*
G04 #@! TO.N,TAP_GND*
X127505307Y-95375059D03*
G04 #@! TO.P,K2,4,L2_4*
G04 #@! TO.N,PGND*
X127505307Y-92835059D03*
G04 #@! TD*
D29*
G04 #@! TO.P,SW1,1,A_1*
G04 #@! TO.N,+3V3*
X125305993Y-90746504D03*
D23*
G04 #@! TO.P,SW1,2,B_2*
G04 #@! TO.N,PHANTOM_SW*
X127845993Y-90746504D03*
D29*
G04 #@! TO.P,SW1,3,C_3*
G04 #@! TO.N,AGND*
X130385993Y-90746504D03*
G04 #@! TD*
D30*
G04 #@! TO.N,MIC1N*
X112726458Y-89870701D03*
X106136078Y-84208198D03*
X117004328Y-89806278D03*
G04 #@! TO.N,AGND*
X118106221Y-93880406D03*
X121522400Y-95500000D03*
X116586397Y-87286397D03*
X122845330Y-85966459D03*
X124750000Y-85815867D03*
X118516985Y-88733015D03*
X115700000Y-92300000D03*
X114922657Y-86878440D03*
X127000000Y-82800000D03*
X113800800Y-96672400D03*
X107288128Y-85442625D03*
X123379147Y-95785454D03*
G04 #@! TO.N,PHANTOM_SW*
X112269855Y-92032939D03*
X112391756Y-93586062D03*
G04 #@! TO.N,TAP_HV*
X126086091Y-89637953D03*
G04 #@! TO.N,V_PoE*
X105600000Y-100100000D03*
G04 #@! TO.N,ROUTP*
X114044165Y-94744165D03*
G04 #@! TO.N,V_PHANTOM*
X103400000Y-90600000D03*
X112765200Y-87964039D03*
X115674839Y-86637795D03*
G04 #@! TO.N,PHANTOM_LED*
X129000000Y-95650000D03*
G04 #@! TO.N,MIC2_RAW*
X109203200Y-99358200D03*
X117271800Y-96545400D03*
G04 #@! TO.N,ASDOUT*
X114866961Y-94732113D03*
X123500000Y-97500000D03*
X114302909Y-97443200D03*
G04 #@! TO.N,LRCK*
X114805437Y-95538530D03*
X122212101Y-94084283D03*
G04 #@! TO.N,DSDIN*
X114992064Y-96576720D03*
X124798000Y-94310200D03*
G04 #@! TO.N,BCLK*
X125171200Y-93091000D03*
X117119400Y-94673000D03*
G04 #@! TO.N,MCLK*
X119060000Y-98171000D03*
X119735600Y-96229600D03*
X125550000Y-97963300D03*
G04 #@! TO.N,+5V*
X123607791Y-93670774D03*
X121000000Y-86700000D03*
X124386400Y-84861400D03*
X120960000Y-84901019D03*
G04 #@! TO.N,+3V3_A*
X122936000Y-85050000D03*
G04 #@! TO.N,+3V3*
X118900000Y-94000000D03*
X119270000Y-84750000D03*
X114200000Y-83100000D03*
X131010000Y-96500000D03*
G04 #@! TO.N,SCL*
X124730000Y-96310865D03*
X122120000Y-91650000D03*
X122942602Y-87620889D03*
X129550000Y-100250000D03*
X116800000Y-84225155D03*
X124530000Y-87583885D03*
X117900000Y-84400000D03*
X119181543Y-92322732D03*
X129200000Y-97750000D03*
G04 #@! TO.N,SDA*
X125362869Y-87800000D03*
X118700000Y-91615224D03*
X125688909Y-96400000D03*
X123271024Y-88295161D03*
X122150000Y-90850000D03*
X117900000Y-83600000D03*
X116327509Y-83450001D03*
G04 #@! TO.N,OK1_COLLECTOR*
X102903198Y-85426598D03*
G04 #@! TO.N,Q1_GATE*
X96799400Y-89789000D03*
X102446094Y-86690869D03*
G04 #@! TO.N,TAP_GND*
X127836751Y-95110000D03*
G04 #@! TO.N,PGND*
X126800000Y-93022810D03*
X88976200Y-88646000D03*
X88000000Y-82000000D03*
X100000000Y-84750000D03*
X127275000Y-89125000D03*
G04 #@! TO.N,V_FILT*
X103350000Y-83400000D03*
X98221800Y-83743800D03*
X97100000Y-86300000D03*
X97078800Y-91668600D03*
X109195010Y-87200138D03*
X100050000Y-83350000D03*
X110159800Y-84433200D03*
G04 #@! TO.N,XLR2_HOT*
X95834200Y-88108800D03*
G04 #@! TO.N,XLR3_COLD*
X92659200Y-83307000D03*
G04 #@! TO.N,LOUTP*
X113250000Y-94513400D03*
G04 #@! TO.N,OK1_LED_A*
X107950000Y-92600000D03*
X107340400Y-88341200D03*
G04 #@! TO.N,DACVREF*
X123200000Y-92500000D03*
X113841755Y-93445555D03*
G04 #@! TO.N,MIC1P*
X117789111Y-90110000D03*
X112416502Y-90596703D03*
X95834200Y-95194200D03*
X108051600Y-93980000D03*
G04 #@! TO.N,ADCVREF*
X115548647Y-89499934D03*
X118550013Y-90110000D03*
G04 #@! TO.N,AD0*
X119650000Y-89950000D03*
X123400000Y-89772183D03*
G04 #@! TO.N,VMID*
X113068350Y-92168350D03*
X119710200Y-92972800D03*
G04 #@! TO.N,MIC2P*
X108051600Y-95529400D03*
X111264092Y-88643489D03*
G04 #@! TO.N,MIC2N*
X111250000Y-92700000D03*
X112003227Y-88770701D03*
G04 #@! TD*
G04 #@! TO.N,MIC1N*
D31*
X113406278Y-89806278D02*
X113650000Y-90050000D01*
X112726458Y-89870701D02*
X112790881Y-89806278D01*
X106136078Y-84208198D02*
X106703701Y-84208198D01*
X113650000Y-90050000D02*
X116550000Y-90050000D01*
X116550000Y-90050000D02*
X116793722Y-89806278D01*
X106703701Y-84208198D02*
X107288128Y-84792625D01*
X116793722Y-89806278D02*
X117004328Y-89806278D01*
X112790881Y-89806278D02*
X113406278Y-89806278D01*
G04 #@! TO.N,AGND*
X118816985Y-88733015D02*
X118516985Y-88733015D01*
X101500153Y-81924935D02*
X101500153Y-82705153D01*
X125321000Y-84886800D02*
X125346400Y-84861400D01*
X120000000Y-88500000D02*
X119050000Y-88500000D01*
X130290000Y-90750000D02*
X130290000Y-87851600D01*
X104753200Y-85958200D02*
X105268775Y-85442625D01*
X120658100Y-85837900D02*
X120646000Y-85850000D01*
X130290000Y-87851600D02*
X128950000Y-86511600D01*
X124811474Y-85815867D02*
X125321000Y-86325393D01*
X128950000Y-84350000D02*
X127400000Y-82800000D01*
X125321000Y-86325393D02*
X125321000Y-86741000D01*
X124750000Y-85815867D02*
X124811474Y-85815867D01*
X119050000Y-88500000D02*
X118816985Y-88733015D01*
X125321000Y-86741000D02*
X125321000Y-84886800D01*
X105268775Y-85442625D02*
X107288128Y-85442625D01*
X118652400Y-85850000D02*
X118294800Y-86207600D01*
X101500153Y-82705153D02*
X104753200Y-85958200D01*
X128950000Y-86511600D02*
X128950000Y-84350000D01*
X127400000Y-82800000D02*
X127000000Y-82800000D01*
X120646000Y-85850000D02*
X118652400Y-85850000D01*
G04 #@! TO.N,PHANTOM_SW*
X120550000Y-90200000D02*
X120250000Y-90500000D01*
X120250000Y-90500000D02*
X119100000Y-90500000D01*
X115858350Y-91618350D02*
X116490000Y-92250000D01*
X118884776Y-90715224D02*
X117834776Y-90715224D01*
X127845993Y-90746504D02*
X126792497Y-91800000D01*
X112269855Y-92032939D02*
X112684444Y-91618350D01*
X112684444Y-91618350D02*
X115858350Y-91618350D01*
X112391756Y-93586062D02*
X112700000Y-93277818D01*
X119100000Y-90500000D02*
X118884776Y-90715224D01*
X113449014Y-94000000D02*
X112700000Y-93250986D01*
X112700000Y-93277818D02*
X112700000Y-93250986D01*
X124394176Y-91800000D02*
X122794176Y-90200000D01*
X117834776Y-90715224D02*
X116490000Y-92060000D01*
X116490000Y-92060000D02*
X116490000Y-92250000D01*
X122794176Y-90200000D02*
X120550000Y-90200000D01*
X115490000Y-94000000D02*
X113449014Y-94000000D01*
X126792497Y-91800000D02*
X124394176Y-91800000D01*
G04 #@! TO.N,K2_LEDA*
X117224218Y-94000000D02*
X116510000Y-94000000D01*
X117774218Y-94550000D02*
X117224218Y-94000000D01*
X121280308Y-92835059D02*
X119565367Y-94550000D01*
X122005307Y-92835059D02*
X121280308Y-92835059D01*
X119565367Y-94550000D02*
X117774218Y-94550000D01*
G04 #@! TO.N,K1_LEDA*
X117510000Y-91815852D02*
X118260628Y-91065224D01*
X118260628Y-91065224D02*
X119974776Y-91065224D01*
X117510000Y-92250000D02*
X117510000Y-91815852D01*
X119974776Y-91065224D02*
X120000000Y-91040000D01*
G04 #@! TO.N,TAP_HV*
X124729808Y-89637953D02*
X124314038Y-89222183D01*
X126086091Y-89637953D02*
X124729808Y-89637953D01*
X117972182Y-88500000D02*
X114500000Y-88500000D01*
X118289167Y-88183015D02*
X117972182Y-88500000D01*
X118816985Y-88183015D02*
X118289167Y-88183015D01*
X124314038Y-89222183D02*
X122922183Y-89222183D01*
X122922183Y-89222183D02*
X121600000Y-87900000D01*
X121600000Y-87900000D02*
X119100000Y-87900000D01*
X119100000Y-87900000D02*
X118816985Y-88183015D01*
G04 #@! TO.N,V_PoE*
X110750000Y-96809834D02*
X109798690Y-97761144D01*
X111050000Y-93300000D02*
X110750000Y-93600000D01*
X111900000Y-93300000D02*
X111050000Y-93300000D01*
X105900000Y-99700000D02*
X105900000Y-99800000D01*
X107838856Y-97761144D02*
X105900000Y-99700000D01*
X112391023Y-91400000D02*
X111700000Y-91400000D01*
X105900000Y-99800000D02*
X105600000Y-100100000D01*
X111900000Y-92572182D02*
X111900000Y-93300000D01*
X114500000Y-91040000D02*
X112751023Y-91040000D01*
X111700000Y-91400000D02*
X111700000Y-92372182D01*
X110750000Y-93600000D02*
X110750000Y-96809834D01*
X109798690Y-97761144D02*
X107838856Y-97761144D01*
X111700000Y-92372182D02*
X111900000Y-92572182D01*
X112751023Y-91040000D02*
X112391023Y-91400000D01*
G04 #@! TO.N,HP_L_OUT*
X109474000Y-91363800D02*
X109474000Y-94353200D01*
X109474000Y-94353200D02*
X109620800Y-94500000D01*
G04 #@! TO.N,HP_L*
X111520800Y-94500000D02*
X112060800Y-94500000D01*
G04 #@! TO.N,HP_R*
X111520800Y-96500000D02*
X112060800Y-96500000D01*
G04 #@! TO.N,ROUTP*
X113855835Y-94744165D02*
X113080800Y-95519200D01*
X114044165Y-94744165D02*
X113855835Y-94744165D01*
X113080800Y-95519200D02*
X113080800Y-96500000D01*
G04 #@! TO.N,V_PHANTOM*
X106208800Y-87791200D02*
X103400000Y-90600000D01*
X112765200Y-87964039D02*
X112592361Y-87791200D01*
X126750000Y-87650000D02*
X128950000Y-89850000D01*
X115687044Y-86650000D02*
X116560698Y-86650000D01*
X125550000Y-83950000D02*
X126050000Y-84450000D01*
X116560698Y-86650000D02*
X119260698Y-83950000D01*
X128950000Y-92125000D02*
X129750000Y-92925000D01*
X115674839Y-86637795D02*
X115687044Y-86650000D01*
X119260698Y-83950000D02*
X125550000Y-83950000D01*
X112592361Y-87791200D02*
X106208800Y-87791200D01*
X126050000Y-86400000D02*
X126750000Y-87100000D01*
X126050000Y-84450000D02*
X126050000Y-86400000D01*
X128950000Y-89850000D02*
X128950000Y-92125000D01*
X126750000Y-87100000D02*
X126750000Y-87650000D01*
G04 #@! TO.N,PHANTOM_LED*
X129000000Y-95500000D02*
X129750000Y-94750000D01*
X129000000Y-95650000D02*
X129000000Y-95500000D01*
G04 #@! TO.N,HP_R_OUT*
X109270600Y-96850200D02*
X109620800Y-96500000D01*
X102074000Y-96850200D02*
X109270600Y-96850200D01*
G04 #@! TO.N,MIC2_RAW*
X115982400Y-97993200D02*
X117271800Y-96703800D01*
X110568200Y-97993200D02*
X115982400Y-97993200D01*
X109203200Y-99358200D02*
X110568200Y-97993200D01*
X117271800Y-96703800D02*
X117271800Y-96545400D01*
G04 #@! TO.N,ASDOUT*
X130400000Y-91900000D02*
X129800000Y-91900000D01*
X129820000Y-96200000D02*
X130900000Y-95120000D01*
X130900000Y-95120000D02*
X130900000Y-92400000D01*
X116950000Y-83050000D02*
X115992800Y-82092800D01*
X119650000Y-83050000D02*
X116950000Y-83050000D01*
X126100000Y-96950000D02*
X126850000Y-96200000D01*
X127161756Y-87511756D02*
X127161756Y-86937402D01*
X130900000Y-92400000D02*
X130400000Y-91900000D01*
X114255437Y-95310712D02*
X114255437Y-96349219D01*
X129300000Y-91400000D02*
X129300000Y-89650000D01*
X114255437Y-96349219D02*
X114350800Y-96444582D01*
X126850000Y-96200000D02*
X129820000Y-96200000D01*
X114834036Y-94732113D02*
X114255437Y-95310712D01*
X126464627Y-86240273D02*
X126464627Y-84264627D01*
X114866961Y-94732113D02*
X114834036Y-94732113D01*
X114350800Y-97395309D02*
X114302909Y-97443200D01*
X125750000Y-83550000D02*
X120150000Y-83550000D01*
X129800000Y-91900000D02*
X129300000Y-91400000D01*
X126464627Y-84264627D02*
X125750000Y-83550000D01*
X115992800Y-82092800D02*
X115747800Y-82092800D01*
X114350800Y-96444582D02*
X114350800Y-97395309D01*
X120150000Y-83550000D02*
X119650000Y-83050000D01*
X129300000Y-89650000D02*
X127161756Y-87511756D01*
X123524392Y-97500000D02*
X124074392Y-96950000D01*
X124074392Y-96950000D02*
X126100000Y-96950000D01*
X127161756Y-86937402D02*
X126464627Y-86240273D01*
X123500000Y-97500000D02*
X123524392Y-97500000D01*
G04 #@! TO.N,LRCK*
X122093838Y-94050000D02*
X121251808Y-94050000D01*
X122212101Y-94084283D02*
X122180899Y-94053081D01*
X121251808Y-94050000D02*
X120051808Y-95250000D01*
X115093967Y-95250000D02*
X114805437Y-95538530D01*
X120051808Y-95250000D02*
X115093967Y-95250000D01*
X122096919Y-94053081D02*
X122093838Y-94050000D01*
X122180899Y-94053081D02*
X122096919Y-94053081D01*
G04 #@! TO.N,DSDIN*
X120996782Y-94800000D02*
X120165782Y-95631000D01*
X115973280Y-96576720D02*
X114992064Y-96576720D01*
X116919000Y-95631000D02*
X115973280Y-96576720D01*
X120165782Y-95631000D02*
X116919000Y-95631000D01*
X123389800Y-94310200D02*
X122900000Y-94800000D01*
X122900000Y-94800000D02*
X120996782Y-94800000D01*
X124798000Y-94310200D02*
X123389800Y-94310200D01*
G04 #@! TO.N,BCLK*
X119800000Y-94900000D02*
X117346400Y-94900000D01*
X121183568Y-93516432D02*
X119800000Y-94900000D01*
X123324067Y-93091000D02*
X122898635Y-93516432D01*
X125171200Y-93091000D02*
X123324067Y-93091000D01*
X117346400Y-94900000D02*
X117119400Y-94673000D01*
X122898635Y-93516432D02*
X121183568Y-93516432D01*
G04 #@! TO.N,MCLK*
X125550000Y-97963300D02*
X125736700Y-97963300D01*
X125550000Y-97963300D02*
X125563300Y-97950000D01*
X131500000Y-95185000D02*
X131500000Y-84700000D01*
X131500000Y-84700000D02*
X128715000Y-81915000D01*
X127000000Y-96700000D02*
X129985000Y-96700000D01*
X128715000Y-81915000D02*
X128270000Y-81915000D01*
X125736700Y-97963300D02*
X127000000Y-96700000D01*
X119354600Y-98171000D02*
X119735600Y-97790000D01*
X129985000Y-96700000D02*
X131500000Y-95185000D01*
X119060000Y-98171000D02*
X119354600Y-98171000D01*
X119735600Y-97790000D02*
X119735600Y-96229600D01*
G04 #@! TO.N,+5V*
X120658100Y-84887900D02*
X121133700Y-84887900D01*
X116744254Y-100666054D02*
X115570000Y-99491800D01*
X123607791Y-93670774D02*
X123612217Y-93675200D01*
X121920000Y-98044000D02*
X121920000Y-99930000D01*
X121666000Y-86283800D02*
X121161900Y-86787900D01*
X125450000Y-94514000D02*
X121920000Y-98044000D01*
X121133700Y-84887900D02*
X121666000Y-85420200D01*
X125075200Y-93675200D02*
X125450000Y-94050000D01*
X121920000Y-99930000D02*
X121183946Y-100666054D01*
X125450000Y-94050000D02*
X125450000Y-94514000D01*
X121161900Y-86787900D02*
X120658100Y-86787900D01*
X121666000Y-85420200D02*
X121666000Y-86283800D01*
X121183946Y-100666054D02*
X116744254Y-100666054D01*
X123612217Y-93675200D02*
X125075200Y-93675200D01*
G04 #@! TO.N,+3V3_A*
X122933100Y-85047100D02*
X122936000Y-85050000D01*
X122933100Y-84887900D02*
X122933100Y-85047100D01*
X124361000Y-86741000D02*
X124361000Y-86461000D01*
X124361000Y-86461000D02*
X122933100Y-85033100D01*
X122933100Y-85033100D02*
X122933100Y-84887900D01*
G04 #@! TO.N,+3V3*
X105289734Y-83174516D02*
X104040153Y-81924935D01*
X114200000Y-83100000D02*
X113450000Y-83850000D01*
X111274476Y-83174516D02*
X105289734Y-83174516D01*
X113450000Y-83850000D02*
X111950000Y-83850000D01*
X111900000Y-83800000D02*
X111899960Y-83800000D01*
X111950000Y-83850000D02*
X111900000Y-83800000D01*
X111899960Y-83800000D02*
X111274476Y-83174516D01*
G04 #@! TO.N,SCL*
X125462490Y-92500000D02*
X125900000Y-92937510D01*
X121400000Y-91650000D02*
X123250000Y-91650000D01*
X124400000Y-87583885D02*
X124362996Y-87620889D01*
X129550000Y-98100000D02*
X129200000Y-97750000D01*
X124779535Y-96310865D02*
X124730000Y-96310865D01*
X117800000Y-84300000D02*
X117900000Y-84400000D01*
X119200675Y-92303600D02*
X120746400Y-92303600D01*
X116899690Y-84300000D02*
X117800000Y-84300000D01*
X124100000Y-92500000D02*
X125462490Y-92500000D01*
X124530000Y-87583885D02*
X124400000Y-87583885D01*
X120746400Y-92303600D02*
X121400000Y-91650000D01*
X116824845Y-84225155D02*
X116899690Y-84300000D01*
X116800000Y-84225155D02*
X116824845Y-84225155D01*
X124900000Y-95572000D02*
X124900000Y-96190400D01*
X125900000Y-92937510D02*
X125900000Y-94572000D01*
X123250000Y-91650000D02*
X124100000Y-92500000D01*
X124362996Y-87620889D02*
X122942602Y-87620889D01*
X119181543Y-92322732D02*
X119200675Y-92303600D01*
X125900000Y-94572000D02*
X124900000Y-95572000D01*
X124900000Y-96190400D02*
X124779535Y-96310865D01*
X129550000Y-100250000D02*
X129550000Y-98100000D01*
G04 #@! TO.N,SDA*
X122949202Y-90850000D02*
X124249202Y-92150000D01*
X123432300Y-88133885D02*
X123271024Y-88295161D01*
X125362869Y-87859830D02*
X125088814Y-88133885D01*
X120893185Y-91615224D02*
X121658409Y-90850000D01*
X121658409Y-90850000D02*
X122949202Y-90850000D01*
X116327509Y-83450001D02*
X116427508Y-83550000D01*
X125850000Y-95116974D02*
X125850000Y-96238909D01*
X126250000Y-92792536D02*
X126250000Y-94716974D01*
X124249202Y-92150000D02*
X125607464Y-92150000D01*
X125850000Y-96238909D02*
X125688909Y-96400000D01*
X125607464Y-92150000D02*
X126250000Y-92792536D01*
X118700000Y-91615224D02*
X120893185Y-91615224D01*
X116427508Y-83550000D02*
X117850000Y-83550000D01*
X125088814Y-88133885D02*
X123432300Y-88133885D01*
X126250000Y-94716974D02*
X125850000Y-95116974D01*
X125362869Y-87800000D02*
X125362869Y-87859830D01*
X117850000Y-83550000D02*
X117900000Y-83600000D01*
G04 #@! TO.N,OK1_COLLECTOR*
X102305225Y-85426598D02*
X101932077Y-85799746D01*
X102903198Y-85426598D02*
X102305225Y-85426598D01*
G04 #@! TO.N,Q1_GATE*
X100912077Y-85799746D02*
X100912077Y-84448851D01*
X95961200Y-90627200D02*
X96799400Y-89789000D01*
X101803200Y-93802200D02*
X100253800Y-95351600D01*
X100253800Y-95351600D02*
X98679000Y-95351600D01*
X101803200Y-86690869D02*
X101803200Y-93802200D01*
X100912077Y-85799746D02*
X101803200Y-86690869D01*
X100912077Y-84448851D02*
X100929852Y-84431076D01*
X95961200Y-92633800D02*
X95961200Y-90627200D01*
X98679000Y-95351600D02*
X95961200Y-92633800D01*
X101803200Y-86690869D02*
X102446094Y-86690869D01*
G04 #@! TO.N,PGND*
X118600000Y-87800000D02*
X118150000Y-87800000D01*
X113392748Y-86652748D02*
X110877359Y-86652748D01*
X127275000Y-89125000D02*
X127022183Y-88872183D01*
X118850000Y-87550000D02*
X118600000Y-87800000D01*
X113990000Y-87250000D02*
X113392748Y-86652748D01*
X123067157Y-88872183D02*
X121744974Y-87550000D01*
X118050000Y-87900000D02*
X114640000Y-87900000D01*
X118150000Y-87800000D02*
X118050000Y-87900000D01*
X121744974Y-87550000D02*
X118850000Y-87550000D01*
X127022183Y-88872183D02*
X123067157Y-88872183D01*
X110877359Y-86652748D02*
X110805869Y-86581258D01*
X114640000Y-87900000D02*
X113990000Y-87250000D01*
G04 #@! TO.N,V_FILT*
X97100000Y-86300000D02*
X97100000Y-89050000D01*
X100050000Y-83350000D02*
X98615600Y-83350000D01*
X109755869Y-84837131D02*
X110159800Y-84433200D01*
X109755869Y-86639279D02*
X109755869Y-84837131D01*
X101949852Y-84431076D02*
X100868776Y-83350000D01*
X98615600Y-83350000D02*
X98221800Y-83743800D01*
X109251116Y-83524516D02*
X110159800Y-84433200D01*
X97100000Y-89050000D02*
X97500000Y-89450000D01*
X103474516Y-83524516D02*
X109251116Y-83524516D01*
X97500000Y-89450000D02*
X97500000Y-91247400D01*
X100868776Y-83350000D02*
X100050000Y-83350000D01*
X103350000Y-83400000D02*
X103474516Y-83524516D01*
X109195010Y-87200138D02*
X109755869Y-86639279D01*
X97500000Y-91247400D02*
X97078800Y-91668600D01*
G04 #@! TO.N,XLR2_HOT*
X95631000Y-87905600D02*
X95834200Y-88108800D01*
X95631000Y-83794600D02*
X95631000Y-87905600D01*
G04 #@! TO.N,XLR3_COLD*
X100076000Y-90779600D02*
X99669600Y-90779600D01*
X97650000Y-83100000D02*
X96450000Y-81900000D01*
X96450000Y-81900000D02*
X94066200Y-81900000D01*
X99669600Y-90779600D02*
X97650000Y-88760000D01*
X97650000Y-88760000D02*
X97650000Y-83100000D01*
X94066200Y-81900000D02*
X92659200Y-83307000D01*
G04 #@! TO.N,unconnected-(J1-JACK_T-PadT)*
X91389200Y-86360000D02*
X91389200Y-95250000D01*
G04 #@! TO.N,OK1_LED_A*
X105850000Y-89202492D02*
X106711292Y-88341200D01*
X106703200Y-91353200D02*
X106703200Y-90761144D01*
X106703200Y-90761144D02*
X106000256Y-90058200D01*
X107950000Y-92600000D02*
X106703200Y-91353200D01*
X106000256Y-90058200D02*
X105850000Y-90058200D01*
X106711292Y-88341200D02*
X107340400Y-88341200D01*
X105850000Y-90058200D02*
X105850000Y-89202492D01*
G04 #@! TO.N,DACVREF*
X114041755Y-93245555D02*
X113841755Y-93445555D01*
X122950000Y-92250000D02*
X121300000Y-92250000D01*
X119322800Y-93522800D02*
X119045555Y-93245555D01*
X120027200Y-93522800D02*
X119322800Y-93522800D01*
X119045555Y-93245555D02*
X114041755Y-93245555D01*
X123200000Y-92500000D02*
X122950000Y-92250000D01*
X121300000Y-92250000D02*
X120027200Y-93522800D01*
G04 #@! TO.N,MIC1P*
X117789111Y-90110000D02*
X117499111Y-90400000D01*
X106273600Y-95758000D02*
X108051600Y-93980000D01*
X112778274Y-90596703D02*
X112416502Y-90596703D01*
X95834200Y-95194200D02*
X96398000Y-95758000D01*
X115921505Y-90400000D02*
X115921439Y-90399934D01*
X96398000Y-95758000D02*
X106273600Y-95758000D01*
X112975043Y-90399934D02*
X112778274Y-90596703D01*
X115921439Y-90399934D02*
X112975043Y-90399934D01*
X117499111Y-90400000D02*
X115921505Y-90400000D01*
G04 #@! TO.N,ADCVREF*
X118550013Y-89950013D02*
X118550013Y-90110000D01*
X115634542Y-89414039D02*
X115728561Y-89414039D01*
X117750000Y-89150000D02*
X118550013Y-89950013D01*
X115992600Y-89150000D02*
X117750000Y-89150000D01*
X115548647Y-89499934D02*
X115634542Y-89414039D01*
X115728561Y-89414039D02*
X115992600Y-89150000D01*
G04 #@! TO.N,AD0*
X119900000Y-89750000D02*
X119800000Y-89850000D01*
X123377817Y-89750000D02*
X119900000Y-89750000D01*
X119800000Y-89850000D02*
X119750000Y-89850000D01*
X123400000Y-89772183D02*
X123377817Y-89750000D01*
X119750000Y-89850000D02*
X119650000Y-89950000D01*
G04 #@! TO.N,VMID*
X119632955Y-92895555D02*
X119710200Y-92972800D01*
X113068350Y-92418150D02*
X113545755Y-92895555D01*
X113068350Y-92168350D02*
X113068350Y-92418150D01*
X113545755Y-92895555D02*
X119632955Y-92895555D01*
G04 #@! TO.N,MIC2P*
X108077000Y-95504000D02*
X108051600Y-95529400D01*
X111264092Y-88643489D02*
X110972600Y-88934981D01*
X110400000Y-92650000D02*
X110400000Y-95289200D01*
X110972600Y-88934981D02*
X110972600Y-92077400D01*
X110972600Y-92077400D02*
X110400000Y-92650000D01*
X110400000Y-95289200D02*
X110185200Y-95504000D01*
X110185200Y-95504000D02*
X108077000Y-95504000D01*
G04 #@! TO.N,MIC2N*
X111250000Y-92294975D02*
X111322600Y-92222374D01*
X111322600Y-92222374D02*
X111322600Y-89362800D01*
X111322600Y-89362800D02*
X111914699Y-88770701D01*
X111914699Y-88770701D02*
X112003227Y-88770701D01*
X111250000Y-92700000D02*
X111250000Y-92294975D01*
G04 #@! TD*
M02*
