G04 #@! TF.GenerationSoftware,KiCad,Pcbnew,10.0.5*
G04 #@! TF.CreationDate,2026-08-16T18:31:02-07:00*
G04 #@! TF.ProjectId,scramble_hat,73637261-6d62-46c6-955f-6861742e6b69,rev?*
G04 #@! TF.SameCoordinates,Original*
G04 #@! TF.FileFunction,Copper,L3,Inr*
G04 #@! TF.FilePolarity,Positive*
%FSLAX46Y46*%
G04 Gerber Fmt 4.6, Leading zero omitted, Abs format (unit mm)*
G04 Created by KiCad (PCBNEW 10.0.5) date 2026-08-16 18:31:02*
%MOMM*%
%LPD*%
G01*
G04 APERTURE LIST*
G04 #@! TA.AperFunction,ComponentPad*
%ADD10R,1.700000X1.700000*%
G04 #@! TD*
G04 #@! TA.AperFunction,ComponentPad*
%ADD11C,1.700000*%
G04 #@! TD*
G04 #@! TA.AperFunction,ComponentPad*
%ADD12C,1.600000*%
G04 #@! TD*
G04 #@! TA.AperFunction,ComponentPad*
%ADD13C,2.900000*%
G04 #@! TD*
G04 #@! TA.AperFunction,ComponentPad*
%ADD14C,2.700000*%
G04 #@! TD*
G04 #@! TA.AperFunction,ComponentPad*
%ADD15C,3.200000*%
G04 #@! TD*
G04 #@! TA.AperFunction,ComponentPad*
%ADD16C,3.400000*%
G04 #@! TD*
G04 #@! TA.AperFunction,ComponentPad*
%ADD17O,1.600000X1.600000*%
G04 #@! TD*
G04 #@! TA.AperFunction,ViaPad*
%ADD18C,0.600000*%
G04 #@! TD*
G04 #@! TA.AperFunction,Conductor*
%ADD19C,0.200000*%
G04 #@! TD*
G04 APERTURE END LIST*
D10*
G04 #@! TO.N,SDA*
G04 #@! TO.C,J3*
X115565139Y-81830795D03*
D11*
G04 #@! TO.N,SCL*
X118105139Y-81830795D03*
G04 #@! TO.N,AGND*
X120645139Y-81830795D03*
G04 #@! TO.N,DSDIN*
X123185139Y-81830795D03*
G04 #@! TO.N,BCLK*
X125725139Y-81830795D03*
G04 #@! TO.N,LRCK*
X128265139Y-81830795D03*
G04 #@! TO.N,ASDOUT*
X130805139Y-81830795D03*
G04 #@! TD*
D10*
G04 #@! TO.N,GTIP*
G04 #@! TO.C,J7*
X82439591Y-81809273D03*
D11*
G04 #@! TO.N,PGND*
X84979591Y-81809273D03*
G04 #@! TO.N,AGND*
X87519591Y-81809273D03*
G04 #@! TO.N,HP_L_OUT*
X90059591Y-81809273D03*
G04 #@! TD*
D10*
G04 #@! TO.N,AGND*
G04 #@! TO.C,J6*
X101560181Y-81876272D03*
D11*
G04 #@! TO.N,+3V3*
X104100181Y-81876272D03*
G04 #@! TO.N,SCL*
X106640181Y-81876272D03*
G04 #@! TO.N,SDA*
X109180181Y-81876272D03*
G04 #@! TD*
D10*
G04 #@! TO.N,+5V*
G04 #@! TO.C,J4*
X115587999Y-99650227D03*
D11*
G04 #@! TO.N,unconnected-(J4-Pin_2-Pad2)*
X118127999Y-99650227D03*
G04 #@! TO.N,AGND*
X120667999Y-99650227D03*
G04 #@! TO.N,unconnected-(J4-Pin_4-Pad4)*
X123207999Y-99650227D03*
G04 #@! TO.N,+3V3*
X125747999Y-99650227D03*
G04 #@! TO.N,MCLK*
X128287999Y-99650227D03*
G04 #@! TO.N,DET*
X130827999Y-99650227D03*
G04 #@! TD*
D10*
G04 #@! TO.N,TAP_HV*
G04 #@! TO.C,J5*
X127655400Y-85217000D03*
D11*
G04 #@! TO.N,TAP_GND*
X130195400Y-85217000D03*
G04 #@! TD*
D12*
G04 #@! TO.N,PGND*
G04 #@! TO.C,C19*
X110805869Y-86581258D03*
G04 #@! TO.N,AGND*
X118305869Y-86581258D03*
G04 #@! TD*
D13*
G04 #@! TO.N,PGND*
G04 #@! TO.C,J1*
X94996000Y-97764600D03*
G04 #@! TO.N,XLR2_HOT*
X95631000Y-83794600D03*
D14*
G04 #@! TO.N,XLR3_COLD*
X100076000Y-90779600D03*
D15*
G04 #@! TO.N,PGND*
X83566000Y-99034600D03*
D14*
G04 #@! TO.N,DET*
X99441000Y-87922100D03*
G04 #@! TO.N,PGND*
X99441000Y-93637100D03*
D16*
G04 #@! TO.N,GTIP*
X92456000Y-95224600D03*
X92456000Y-86334600D03*
G04 #@! TD*
D17*
G04 #@! TO.N,+3V3*
G04 #@! TO.C,SW1*
X125305993Y-90746504D03*
D12*
G04 #@! TO.N,PHANTOM_SW*
X127845993Y-90746504D03*
D17*
G04 #@! TO.N,AGND*
X130385993Y-90746504D03*
G04 #@! TD*
D18*
G04 #@! TO.N,DET*
X101950000Y-91950000D03*
X99350000Y-81800000D03*
X99900000Y-99700000D03*
X104043263Y-97243263D03*
X103300000Y-93900000D03*
X98150000Y-84700000D03*
G04 #@! TO.N,PGND*
X103800000Y-92800000D03*
X85500000Y-88700000D03*
X127600000Y-92800000D03*
X128205400Y-86900000D03*
X92495735Y-83139337D03*
X83000000Y-92790000D03*
X101500351Y-85109507D03*
X85061249Y-84491250D03*
X82250000Y-86750000D03*
G04 #@! TO.N,MIC1N_XLR*
X90839200Y-89051865D03*
X91300000Y-83150000D03*
X106718643Y-86350001D03*
X89400000Y-84400000D03*
G04 #@! TO.N,AGND*
X108040000Y-85442625D03*
X118106221Y-93880406D03*
X121522400Y-95500000D03*
X116586397Y-87286397D03*
X83260000Y-86750000D03*
X122845330Y-85966459D03*
X89000000Y-87500000D03*
X124750000Y-85815867D03*
X118516985Y-88733015D03*
X115700000Y-92300000D03*
X114922657Y-86882682D03*
X83800000Y-90800000D03*
X129711091Y-83288909D03*
X113800800Y-96672400D03*
X123379147Y-95785454D03*
G04 #@! TO.N,PHANTOM_SW*
X112269855Y-92032939D03*
X112391756Y-93586062D03*
G04 #@! TO.N,TAP_HV*
X126972182Y-88650000D03*
G04 #@! TO.N,V_PoE*
X102900000Y-99200000D03*
G04 #@! TO.N,HP_L_OUT*
X101600000Y-88800000D03*
X103450000Y-89800000D03*
X100245050Y-84823282D03*
G04 #@! TO.N,ROUTP*
X114044165Y-94744165D03*
G04 #@! TO.N,V_PHANTOM*
X104650000Y-89095744D03*
X96300000Y-86400000D03*
X96000000Y-89800000D03*
X112450000Y-87700000D03*
X115643067Y-86674090D03*
G04 #@! TO.N,PHANTOM_LED*
X129000000Y-95650000D03*
G04 #@! TO.N,MIC2_RAW*
X108650000Y-99050000D03*
X117271800Y-96545400D03*
G04 #@! TO.N,SDA*
X125362869Y-87737131D03*
X118211091Y-83711091D03*
X119516115Y-91848772D03*
X107700000Y-83000000D03*
X123271024Y-88295161D03*
X122150000Y-90850000D03*
X114309788Y-83900000D03*
G04 #@! TO.N,SCL*
X118100208Y-84821973D03*
X122120000Y-91650000D03*
X122942602Y-87620889D03*
X116708134Y-85314048D03*
X124530000Y-87583885D03*
X118912353Y-92334535D03*
G04 #@! TO.N,DSDIN*
X114992064Y-96576720D03*
X124798000Y-94310200D03*
G04 #@! TO.N,BCLK*
X125171200Y-93091000D03*
X117119400Y-94673000D03*
G04 #@! TO.N,LRCK*
X114805437Y-95538530D03*
X116900000Y-82750000D03*
X122212101Y-94084283D03*
G04 #@! TO.N,ASDOUT*
X114866961Y-94732113D03*
X126250000Y-97000000D03*
X114302909Y-97443200D03*
G04 #@! TO.N,+5V*
X123607791Y-93670774D03*
X90300000Y-96700000D03*
X121000000Y-86700000D03*
X86700000Y-95300000D03*
X124386400Y-84861400D03*
X121116254Y-84901019D03*
G04 #@! TO.N,+3V3_A*
X122936000Y-85050000D03*
G04 #@! TO.N,+3V3*
X104799944Y-84138591D03*
X118900000Y-94000000D03*
X119270000Y-84750000D03*
X92400000Y-92700000D03*
X114100000Y-85200000D03*
G04 #@! TO.N,OK1_COLLECTOR*
X102903201Y-85402436D03*
G04 #@! TO.N,Q1_GATE*
X96799400Y-89789000D03*
X105203990Y-87750000D03*
G04 #@! TO.N,TAP_GND*
X127836751Y-95110000D03*
G04 #@! TO.N,V_FILT*
X103161409Y-83588591D03*
X97250000Y-88300000D03*
X90032814Y-85139368D03*
X93381000Y-83000000D03*
X97078800Y-91668600D03*
X108900000Y-87150000D03*
X99960215Y-82689785D03*
X98142360Y-85835498D03*
X110159800Y-84433200D03*
G04 #@! TO.N,MCLK_C*
X119735600Y-96229600D03*
X123980000Y-97786091D03*
X127587500Y-97250000D03*
G04 #@! TO.N,XLR2_HOT*
X95834200Y-88108800D03*
X95411200Y-92000000D03*
G04 #@! TO.N,XLR3_COLD*
X91050000Y-84550000D03*
G04 #@! TO.N,LOUTP*
X113279391Y-94542790D03*
G04 #@! TO.N,OK1_LED_A*
X107950000Y-92000000D03*
X107250000Y-90350000D03*
G04 #@! TO.N,DACVREF*
X123200000Y-92500000D03*
X113841755Y-93445555D03*
G04 #@! TO.N,MIC1P_XLR*
X97700000Y-95700000D03*
X95800000Y-95200000D03*
G04 #@! TO.N,ADCVREF*
X115548647Y-89499934D03*
X118200000Y-90000000D03*
G04 #@! TO.N,AD0*
X118100000Y-91273000D03*
X123300000Y-90150000D03*
G04 #@! TO.N,PGND_AC*
X89400000Y-91800000D03*
X86500000Y-88700000D03*
G04 #@! TO.N,VMID*
X113068350Y-92168350D03*
X119600000Y-92950000D03*
G04 #@! TO.N,BUF_R*
X88300000Y-95500000D03*
X87000000Y-96750000D03*
G04 #@! TO.N,MIC1P*
X97521204Y-94971622D03*
X117348647Y-89950000D03*
X112416502Y-90596703D03*
X93203577Y-91751874D03*
G04 #@! TO.N,MIC1N*
X102100000Y-94600000D03*
X112726458Y-89870701D03*
X93900000Y-92401865D03*
X116998647Y-89250000D03*
G04 #@! TO.N,MIC2P*
X105230000Y-96250000D03*
X111264092Y-88643489D03*
G04 #@! TO.N,VBIAS*
X83800000Y-95000000D03*
X89300000Y-96800000D03*
X86000000Y-96500000D03*
G04 #@! TO.N,MIC2N*
X111250000Y-92700000D03*
X112003227Y-88770701D03*
G04 #@! TO.N,GB_IN*
X93500000Y-99800000D03*
X88400000Y-98000000D03*
G04 #@! TD*
G04 #@! TO.N,+3V3*
D19*
X92400000Y-91777633D02*
X92400000Y-92700000D01*
X104030180Y-82014535D02*
X104030180Y-83497638D01*
X101205718Y-86322100D02*
X98398718Y-86322100D01*
X96062018Y-88658800D02*
X95518833Y-88658800D01*
X104030180Y-83497638D02*
X101205718Y-86322100D01*
X95518833Y-88658800D02*
X92400000Y-91777633D01*
X104100181Y-83438828D02*
X104100181Y-81876272D01*
X98398718Y-86322100D02*
X96062018Y-88658800D01*
X104799944Y-84138591D02*
X104100181Y-83438828D01*
G04 #@! TD*
G04 #@! TA.AperFunction,Conductor*
G04 #@! TO.N,+3V3*
G36*
X114424217Y-80708163D02*
G01*
X114491250Y-80727868D01*
X114536988Y-80780686D01*
X114546910Y-80849848D01*
X114527283Y-80901050D01*
X114526271Y-80902563D01*
X114526270Y-80902565D01*
X114514639Y-80961042D01*
X114514639Y-82700547D01*
X114526270Y-82759024D01*
X114526271Y-82759025D01*
X114570586Y-82825347D01*
X114636908Y-82869662D01*
X114636909Y-82869663D01*
X114695386Y-82881294D01*
X114695389Y-82881295D01*
X114695391Y-82881295D01*
X116326284Y-82881295D01*
X116393323Y-82900980D01*
X116433670Y-82943294D01*
X116499500Y-83057314D01*
X116592686Y-83150500D01*
X116706814Y-83216392D01*
X116834108Y-83250500D01*
X116834110Y-83250500D01*
X116965890Y-83250500D01*
X116965892Y-83250500D01*
X117093186Y-83216392D01*
X117207314Y-83150500D01*
X117300500Y-83057314D01*
X117366392Y-82943186D01*
X117399460Y-82819769D01*
X117435823Y-82760112D01*
X117498670Y-82729582D01*
X117568046Y-82737876D01*
X117588123Y-82748761D01*
X117607541Y-82761736D01*
X117798719Y-82840925D01*
X117943191Y-82869662D01*
X118001669Y-82881294D01*
X118001673Y-82881295D01*
X118001674Y-82881295D01*
X118208605Y-82881295D01*
X118208606Y-82881294D01*
X118411559Y-82840925D01*
X118602737Y-82761736D01*
X118774794Y-82646772D01*
X118921116Y-82500450D01*
X119036080Y-82328393D01*
X119115269Y-82137215D01*
X119155639Y-81934260D01*
X119155639Y-81727330D01*
X119115269Y-81524375D01*
X119036080Y-81333197D01*
X118921116Y-81161140D01*
X118921114Y-81161137D01*
X118774797Y-81014820D01*
X118774793Y-81014817D01*
X118657730Y-80936598D01*
X118612925Y-80882986D01*
X118604218Y-80813661D01*
X118634372Y-80750634D01*
X118693815Y-80713914D01*
X118726651Y-80709496D01*
X120023095Y-80709898D01*
X120090127Y-80729603D01*
X120135865Y-80782422D01*
X120145787Y-80851583D01*
X120116743Y-80915130D01*
X120091946Y-80937000D01*
X119975484Y-81014817D01*
X119975480Y-81014820D01*
X119829163Y-81161137D01*
X119714197Y-81333198D01*
X119635009Y-81524374D01*
X119635007Y-81524382D01*
X119594639Y-81727325D01*
X119594639Y-81934264D01*
X119635007Y-82137207D01*
X119635009Y-82137215D01*
X119714197Y-82328391D01*
X119829163Y-82500452D01*
X119975481Y-82646770D01*
X119975484Y-82646772D01*
X120147541Y-82761736D01*
X120338719Y-82840925D01*
X120483191Y-82869662D01*
X120541669Y-82881294D01*
X120541673Y-82881295D01*
X120541674Y-82881295D01*
X120748605Y-82881295D01*
X120748606Y-82881294D01*
X120951559Y-82840925D01*
X121142737Y-82761736D01*
X121314794Y-82646772D01*
X121461116Y-82500450D01*
X121576080Y-82328393D01*
X121655269Y-82137215D01*
X121695639Y-81934260D01*
X121695639Y-81727330D01*
X121655269Y-81524375D01*
X121576080Y-81333197D01*
X121461116Y-81161140D01*
X121461114Y-81161137D01*
X121314794Y-81014817D01*
X121198909Y-80937386D01*
X121154104Y-80883774D01*
X121145397Y-80814449D01*
X121175551Y-80751422D01*
X121234994Y-80714702D01*
X121267832Y-80710284D01*
X122561917Y-80710685D01*
X122628949Y-80730390D01*
X122674687Y-80783208D01*
X122684609Y-80852370D01*
X122655565Y-80915917D01*
X122630768Y-80937787D01*
X122515484Y-81014817D01*
X122515480Y-81014820D01*
X122369163Y-81161137D01*
X122254197Y-81333198D01*
X122175009Y-81524374D01*
X122175007Y-81524382D01*
X122134639Y-81727325D01*
X122134639Y-81934264D01*
X122175007Y-82137207D01*
X122175009Y-82137215D01*
X122254197Y-82328391D01*
X122369163Y-82500452D01*
X122515481Y-82646770D01*
X122515484Y-82646772D01*
X122687541Y-82761736D01*
X122878719Y-82840925D01*
X123023191Y-82869662D01*
X123081669Y-82881294D01*
X123081673Y-82881295D01*
X123081674Y-82881295D01*
X123288605Y-82881295D01*
X123288606Y-82881294D01*
X123491559Y-82840925D01*
X123682737Y-82761736D01*
X123854794Y-82646772D01*
X124001116Y-82500450D01*
X124116080Y-82328393D01*
X124195269Y-82137215D01*
X124235639Y-81934260D01*
X124235639Y-81727330D01*
X124195269Y-81524375D01*
X124116080Y-81333197D01*
X124001116Y-81161140D01*
X124001114Y-81161137D01*
X123854797Y-81014820D01*
X123854789Y-81014814D01*
X123740089Y-80938174D01*
X123695283Y-80884562D01*
X123686576Y-80815237D01*
X123716730Y-80752210D01*
X123776173Y-80715490D01*
X123809014Y-80711072D01*
X125100739Y-80711472D01*
X125167771Y-80731177D01*
X125213509Y-80783995D01*
X125223431Y-80853157D01*
X125194387Y-80916704D01*
X125169590Y-80938574D01*
X125055484Y-81014817D01*
X125055480Y-81014820D01*
X124909163Y-81161137D01*
X124794197Y-81333198D01*
X124715009Y-81524374D01*
X124715007Y-81524382D01*
X124674639Y-81727325D01*
X124674639Y-81934264D01*
X124715007Y-82137207D01*
X124715009Y-82137215D01*
X124794197Y-82328391D01*
X124909163Y-82500452D01*
X125055481Y-82646770D01*
X125055484Y-82646772D01*
X125227541Y-82761736D01*
X125418719Y-82840925D01*
X125563191Y-82869662D01*
X125621669Y-82881294D01*
X125621673Y-82881295D01*
X125621674Y-82881295D01*
X125828605Y-82881295D01*
X125828606Y-82881294D01*
X126031559Y-82840925D01*
X126222737Y-82761736D01*
X126394794Y-82646772D01*
X126541116Y-82500450D01*
X126656080Y-82328393D01*
X126735269Y-82137215D01*
X126775639Y-81934260D01*
X126775639Y-81727330D01*
X126735269Y-81524375D01*
X126656080Y-81333197D01*
X126541116Y-81161140D01*
X126541114Y-81161137D01*
X126394796Y-81014819D01*
X126314319Y-80961047D01*
X126281265Y-80938961D01*
X126236462Y-80885351D01*
X126227754Y-80816026D01*
X126257908Y-80752998D01*
X126317350Y-80716279D01*
X126350194Y-80711860D01*
X127639561Y-80712259D01*
X127706593Y-80731964D01*
X127752331Y-80784782D01*
X127762253Y-80853944D01*
X127733209Y-80917491D01*
X127708412Y-80939361D01*
X127595484Y-81014817D01*
X127595480Y-81014820D01*
X127449163Y-81161137D01*
X127334197Y-81333198D01*
X127255009Y-81524374D01*
X127255007Y-81524382D01*
X127214639Y-81727325D01*
X127214639Y-81934264D01*
X127255007Y-82137207D01*
X127255009Y-82137215D01*
X127334197Y-82328391D01*
X127449163Y-82500452D01*
X127595481Y-82646770D01*
X127595484Y-82646772D01*
X127767541Y-82761736D01*
X127958719Y-82840925D01*
X128103191Y-82869662D01*
X128161669Y-82881294D01*
X128161673Y-82881295D01*
X128161674Y-82881295D01*
X128368605Y-82881295D01*
X128368606Y-82881294D01*
X128571559Y-82840925D01*
X128762737Y-82761736D01*
X128934794Y-82646772D01*
X129081116Y-82500450D01*
X129196080Y-82328393D01*
X129275269Y-82137215D01*
X129315639Y-81934260D01*
X129315639Y-81727330D01*
X129275269Y-81524375D01*
X129196080Y-81333197D01*
X129081116Y-81161140D01*
X129081114Y-81161137D01*
X128934797Y-81014820D01*
X128934789Y-81014814D01*
X128822446Y-80939749D01*
X128777640Y-80886137D01*
X128768933Y-80816812D01*
X128799087Y-80753785D01*
X128858530Y-80717065D01*
X128891368Y-80712647D01*
X130178384Y-80713046D01*
X130245416Y-80732751D01*
X130291154Y-80785570D01*
X130301076Y-80854731D01*
X130272032Y-80918278D01*
X130247235Y-80940148D01*
X130135484Y-81014817D01*
X130135480Y-81014820D01*
X129989163Y-81161137D01*
X129874197Y-81333198D01*
X129795009Y-81524374D01*
X129795007Y-81524382D01*
X129754639Y-81727325D01*
X129754639Y-81934264D01*
X129795007Y-82137207D01*
X129795009Y-82137215D01*
X129874197Y-82328391D01*
X129989163Y-82500452D01*
X130135481Y-82646770D01*
X130135484Y-82646772D01*
X130307541Y-82761736D01*
X130498719Y-82840925D01*
X130643191Y-82869662D01*
X130701669Y-82881294D01*
X130701673Y-82881295D01*
X130701674Y-82881295D01*
X130908605Y-82881295D01*
X130908606Y-82881294D01*
X131111559Y-82840925D01*
X131302737Y-82761736D01*
X131474794Y-82646772D01*
X131492183Y-82629383D01*
X131571019Y-82550548D01*
X131632342Y-82517063D01*
X131702034Y-82522047D01*
X131757967Y-82563919D01*
X131782384Y-82629383D01*
X131782700Y-82638229D01*
X131782700Y-98819933D01*
X131763015Y-98886972D01*
X131710211Y-98932727D01*
X131641053Y-98942671D01*
X131577497Y-98913646D01*
X131571019Y-98907614D01*
X131497656Y-98834251D01*
X131329654Y-98721997D01*
X131325597Y-98719286D01*
X131134419Y-98640097D01*
X131134411Y-98640095D01*
X130931468Y-98599727D01*
X130931464Y-98599727D01*
X130724534Y-98599727D01*
X130724529Y-98599727D01*
X130521586Y-98640095D01*
X130521578Y-98640097D01*
X130330402Y-98719285D01*
X130158341Y-98834251D01*
X130012023Y-98980569D01*
X129897057Y-99152630D01*
X129817869Y-99343806D01*
X129817867Y-99343814D01*
X129777499Y-99546757D01*
X129777499Y-99753696D01*
X129817867Y-99956639D01*
X129817869Y-99956647D01*
X129883938Y-100116152D01*
X129897058Y-100147825D01*
X129910835Y-100168444D01*
X130012023Y-100319884D01*
X130158341Y-100466202D01*
X130158344Y-100466204D01*
X130270858Y-100541383D01*
X130271324Y-100541694D01*
X130316130Y-100595306D01*
X130324837Y-100664631D01*
X130294683Y-100727659D01*
X130235240Y-100764379D01*
X130202404Y-100768797D01*
X128913998Y-100768486D01*
X128846963Y-100748785D01*
X128801221Y-100695970D01*
X128791294Y-100626809D01*
X128820335Y-100563261D01*
X128845132Y-100541388D01*
X128957654Y-100466204D01*
X129103976Y-100319882D01*
X129218940Y-100147825D01*
X129298129Y-99956647D01*
X129338499Y-99753692D01*
X129338499Y-99546762D01*
X129298129Y-99343807D01*
X129218940Y-99152629D01*
X129103976Y-98980572D01*
X129103974Y-98980569D01*
X128957656Y-98834251D01*
X128789654Y-98721997D01*
X128785597Y-98719286D01*
X128594419Y-98640097D01*
X128594411Y-98640095D01*
X128391468Y-98599727D01*
X128391464Y-98599727D01*
X128184534Y-98599727D01*
X128184529Y-98599727D01*
X127981586Y-98640095D01*
X127981578Y-98640097D01*
X127790402Y-98719285D01*
X127618341Y-98834251D01*
X127472023Y-98980569D01*
X127357056Y-99152630D01*
X127288834Y-99317335D01*
X127244993Y-99371738D01*
X127178699Y-99393803D01*
X127110999Y-99376524D01*
X127063389Y-99325386D01*
X127056342Y-99308200D01*
X126999094Y-99132009D01*
X126902623Y-98942676D01*
X126863269Y-98888509D01*
X126863268Y-98888509D01*
X126230961Y-99520817D01*
X126213924Y-99457234D01*
X126148098Y-99343220D01*
X126055006Y-99250128D01*
X125940992Y-99184302D01*
X125877408Y-99167264D01*
X126509715Y-98534955D01*
X126455549Y-98495602D01*
X126266216Y-98399131D01*
X126064128Y-98333469D01*
X125854245Y-98300227D01*
X125641753Y-98300227D01*
X125431871Y-98333469D01*
X125431868Y-98333469D01*
X125229781Y-98399131D01*
X125040438Y-98495607D01*
X124986281Y-98534954D01*
X124986281Y-98534955D01*
X125618590Y-99167264D01*
X125555006Y-99184302D01*
X125440992Y-99250128D01*
X125347900Y-99343220D01*
X125282074Y-99457234D01*
X125265036Y-99520818D01*
X124632727Y-98888509D01*
X124632726Y-98888509D01*
X124593379Y-98942666D01*
X124496904Y-99132008D01*
X124439655Y-99308201D01*
X124400217Y-99365876D01*
X124335858Y-99393074D01*
X124267012Y-99381159D01*
X124215536Y-99333915D01*
X124207163Y-99317334D01*
X124138942Y-99152632D01*
X124023974Y-98980569D01*
X123877656Y-98834251D01*
X123709654Y-98721997D01*
X123705597Y-98719286D01*
X123514419Y-98640097D01*
X123514411Y-98640095D01*
X123311468Y-98599727D01*
X123311464Y-98599727D01*
X123104534Y-98599727D01*
X123104529Y-98599727D01*
X122901586Y-98640095D01*
X122901578Y-98640097D01*
X122710402Y-98719285D01*
X122538341Y-98834251D01*
X122392023Y-98980569D01*
X122277057Y-99152630D01*
X122197869Y-99343806D01*
X122197867Y-99343814D01*
X122157499Y-99546757D01*
X122157499Y-99753696D01*
X122197867Y-99956639D01*
X122197869Y-99956647D01*
X122263938Y-100116152D01*
X122277058Y-100147825D01*
X122290835Y-100168444D01*
X122392023Y-100319884D01*
X122538343Y-100466204D01*
X122648575Y-100539858D01*
X122693380Y-100593470D01*
X122702087Y-100662795D01*
X122671933Y-100725822D01*
X122612490Y-100762542D01*
X122579654Y-100766960D01*
X121296746Y-100766650D01*
X121229711Y-100746949D01*
X121183969Y-100694134D01*
X121174042Y-100624973D01*
X121203083Y-100561425D01*
X121227880Y-100539551D01*
X121337654Y-100466204D01*
X121483976Y-100319882D01*
X121598940Y-100147825D01*
X121678129Y-99956647D01*
X121718499Y-99753692D01*
X121718499Y-99546762D01*
X121678129Y-99343807D01*
X121598940Y-99152629D01*
X121483976Y-98980572D01*
X121483974Y-98980569D01*
X121337656Y-98834251D01*
X121169654Y-98721997D01*
X121165597Y-98719286D01*
X120974419Y-98640097D01*
X120974411Y-98640095D01*
X120771468Y-98599727D01*
X120771464Y-98599727D01*
X120564534Y-98599727D01*
X120564529Y-98599727D01*
X120361586Y-98640095D01*
X120361578Y-98640097D01*
X120170402Y-98719285D01*
X119998341Y-98834251D01*
X119852023Y-98980569D01*
X119737057Y-99152630D01*
X119657869Y-99343806D01*
X119657867Y-99343814D01*
X119617499Y-99546757D01*
X119617499Y-99753696D01*
X119657867Y-99956639D01*
X119657869Y-99956647D01*
X119723938Y-100116152D01*
X119737058Y-100147825D01*
X119750835Y-100168444D01*
X119852023Y-100319884D01*
X119998340Y-100466201D01*
X119998348Y-100466207D01*
X120107657Y-100539245D01*
X120152463Y-100592857D01*
X120161170Y-100662182D01*
X120131016Y-100725209D01*
X120071573Y-100761929D01*
X120038737Y-100766347D01*
X118757662Y-100766038D01*
X118690627Y-100746337D01*
X118644885Y-100693522D01*
X118634958Y-100624361D01*
X118663999Y-100560813D01*
X118688797Y-100538939D01*
X118797654Y-100466204D01*
X118943976Y-100319882D01*
X119058940Y-100147825D01*
X119138129Y-99956647D01*
X119178499Y-99753692D01*
X119178499Y-99546762D01*
X119138129Y-99343807D01*
X119058940Y-99152629D01*
X118943976Y-98980572D01*
X118943974Y-98980569D01*
X118797656Y-98834251D01*
X118629654Y-98721997D01*
X118625597Y-98719286D01*
X118434419Y-98640097D01*
X118434411Y-98640095D01*
X118231468Y-98599727D01*
X118231464Y-98599727D01*
X118024534Y-98599727D01*
X118024529Y-98599727D01*
X117821586Y-98640095D01*
X117821578Y-98640097D01*
X117630402Y-98719285D01*
X117458341Y-98834251D01*
X117312023Y-98980569D01*
X117197057Y-99152630D01*
X117117869Y-99343806D01*
X117117867Y-99343814D01*
X117077499Y-99546757D01*
X117077499Y-99753696D01*
X117117867Y-99956639D01*
X117117869Y-99956647D01*
X117183938Y-100116152D01*
X117197058Y-100147825D01*
X117210835Y-100168444D01*
X117312023Y-100319884D01*
X117458341Y-100466202D01*
X117458344Y-100466204D01*
X117566742Y-100538633D01*
X117611546Y-100592243D01*
X117620255Y-100661568D01*
X117590100Y-100724596D01*
X117530658Y-100761315D01*
X117497821Y-100765734D01*
X116733812Y-100765550D01*
X116666777Y-100745849D01*
X116621035Y-100693034D01*
X116611108Y-100623873D01*
X116623921Y-100590455D01*
X116622193Y-100589740D01*
X116626867Y-100578456D01*
X116638498Y-100519979D01*
X116638499Y-100519977D01*
X116638499Y-98780476D01*
X116638498Y-98780474D01*
X116626867Y-98721997D01*
X116626866Y-98721996D01*
X116582551Y-98655674D01*
X116516229Y-98611359D01*
X116516228Y-98611358D01*
X116457751Y-98599727D01*
X116457747Y-98599727D01*
X114718251Y-98599727D01*
X114718246Y-98599727D01*
X114659769Y-98611358D01*
X114659768Y-98611359D01*
X114593446Y-98655674D01*
X114549131Y-98721996D01*
X114549130Y-98721997D01*
X114537499Y-98780474D01*
X114537499Y-100519979D01*
X114549130Y-100578456D01*
X114553805Y-100589740D01*
X114550799Y-100590985D01*
X114565766Y-100638787D01*
X114547280Y-100706166D01*
X114495301Y-100752856D01*
X114441756Y-100764998D01*
X114130473Y-100764922D01*
X114063438Y-100745221D01*
X114017696Y-100692406D01*
X114007769Y-100623245D01*
X114020016Y-100584633D01*
X114132241Y-100364379D01*
X114210090Y-100124785D01*
X114249500Y-99875962D01*
X114249500Y-99624038D01*
X114210090Y-99375215D01*
X114132241Y-99135621D01*
X114132239Y-99135618D01*
X114132239Y-99135616D01*
X114090747Y-99054184D01*
X114017870Y-98911155D01*
X113961996Y-98834251D01*
X113869798Y-98707350D01*
X113869794Y-98707345D01*
X113691654Y-98529205D01*
X113691649Y-98529201D01*
X113487848Y-98381132D01*
X113487847Y-98381131D01*
X113487845Y-98381130D01*
X113394305Y-98333469D01*
X113263383Y-98266760D01*
X113085681Y-98209021D01*
X113028006Y-98169583D01*
X113000808Y-98105224D01*
X113000000Y-98091090D01*
X113000000Y-95147682D01*
X113019685Y-95080643D01*
X113072489Y-95034888D01*
X113141647Y-95024944D01*
X113156082Y-95027905D01*
X113213499Y-95043290D01*
X113213501Y-95043290D01*
X113345281Y-95043290D01*
X113345283Y-95043290D01*
X113472577Y-95009182D01*
X113475184Y-95007676D01*
X113477662Y-95007074D01*
X113480084Y-95006072D01*
X113480240Y-95006449D01*
X113543081Y-94991199D01*
X113609109Y-95014046D01*
X113637869Y-95045680D01*
X113638717Y-95045030D01*
X113643663Y-95051476D01*
X113643665Y-95051479D01*
X113736851Y-95144665D01*
X113850979Y-95210557D01*
X113978273Y-95244665D01*
X113978275Y-95244665D01*
X114110054Y-95244665D01*
X114110057Y-95244665D01*
X114178368Y-95226361D01*
X114248214Y-95228024D01*
X114306076Y-95267186D01*
X114333581Y-95331414D01*
X114330233Y-95378228D01*
X114304937Y-95472636D01*
X114304937Y-95472638D01*
X114304937Y-95604422D01*
X114306566Y-95610500D01*
X114339045Y-95731717D01*
X114357227Y-95763208D01*
X114404937Y-95845844D01*
X114498123Y-95939030D01*
X114612251Y-96004922D01*
X114612258Y-96004924D01*
X114613179Y-96005306D01*
X114613843Y-96005841D01*
X114619290Y-96008986D01*
X114618799Y-96009834D01*
X114667586Y-96049142D01*
X114689657Y-96115434D01*
X114672383Y-96183135D01*
X114653418Y-96207552D01*
X114591564Y-96269406D01*
X114525672Y-96383534D01*
X114503256Y-96467190D01*
X114503120Y-96467700D01*
X114466755Y-96527360D01*
X114403907Y-96557889D01*
X114334532Y-96549594D01*
X114280654Y-96505109D01*
X114268780Y-96483050D01*
X114267194Y-96479223D01*
X114267192Y-96479214D01*
X114201300Y-96365086D01*
X114108114Y-96271900D01*
X114049541Y-96238083D01*
X113993987Y-96206008D01*
X113919139Y-96185953D01*
X113866692Y-96171900D01*
X113734908Y-96171900D01*
X113607612Y-96206008D01*
X113493486Y-96271900D01*
X113493483Y-96271902D01*
X113400302Y-96365083D01*
X113400300Y-96365086D01*
X113334408Y-96479212D01*
X113300300Y-96606508D01*
X113300300Y-96738291D01*
X113334408Y-96865587D01*
X113345058Y-96884033D01*
X113400300Y-96979714D01*
X113493486Y-97072900D01*
X113607614Y-97138792D01*
X113729216Y-97171374D01*
X113788874Y-97207737D01*
X113819404Y-97270584D01*
X113816896Y-97323240D01*
X113802409Y-97377306D01*
X113802409Y-97377308D01*
X113802409Y-97509092D01*
X113819463Y-97572739D01*
X113836517Y-97636387D01*
X113869463Y-97693450D01*
X113902409Y-97750514D01*
X113995595Y-97843700D01*
X114109723Y-97909592D01*
X114237017Y-97943700D01*
X114237019Y-97943700D01*
X114368799Y-97943700D01*
X114368801Y-97943700D01*
X114496095Y-97909592D01*
X114610223Y-97843700D01*
X114703409Y-97750514D01*
X114720911Y-97720199D01*
X123479500Y-97720199D01*
X123479500Y-97851982D01*
X123513608Y-97979278D01*
X123546554Y-98036341D01*
X123579500Y-98093405D01*
X123672686Y-98186591D01*
X123786814Y-98252483D01*
X123914108Y-98286591D01*
X123914110Y-98286591D01*
X124045890Y-98286591D01*
X124045892Y-98286591D01*
X124173186Y-98252483D01*
X124287314Y-98186591D01*
X124380500Y-98093405D01*
X124446392Y-97979277D01*
X124480500Y-97851983D01*
X124480500Y-97720199D01*
X124446392Y-97592905D01*
X124380500Y-97478777D01*
X124287314Y-97385591D01*
X124230250Y-97352645D01*
X124173187Y-97319699D01*
X124109539Y-97302645D01*
X124045892Y-97285591D01*
X123914108Y-97285591D01*
X123786812Y-97319699D01*
X123672686Y-97385591D01*
X123672683Y-97385593D01*
X123579502Y-97478774D01*
X123579500Y-97478777D01*
X123513608Y-97592903D01*
X123479500Y-97720199D01*
X114720911Y-97720199D01*
X114769301Y-97636386D01*
X114803409Y-97509092D01*
X114803409Y-97377308D01*
X114769301Y-97250014D01*
X114769298Y-97250009D01*
X114766189Y-97242500D01*
X114768918Y-97241369D01*
X114755778Y-97187246D01*
X114778619Y-97121215D01*
X114833533Y-97078015D01*
X114903085Y-97071362D01*
X114911717Y-97073347D01*
X114926172Y-97077220D01*
X114926174Y-97077220D01*
X115057954Y-97077220D01*
X115057956Y-97077220D01*
X115185250Y-97043112D01*
X115299378Y-96977220D01*
X115392564Y-96884034D01*
X115458456Y-96769906D01*
X115492564Y-96642612D01*
X115492564Y-96510828D01*
X115484172Y-96479508D01*
X116771300Y-96479508D01*
X116771300Y-96611291D01*
X116805408Y-96738587D01*
X116838354Y-96795650D01*
X116871300Y-96852714D01*
X116964486Y-96945900D01*
X117078614Y-97011792D01*
X117205908Y-97045900D01*
X117205910Y-97045900D01*
X117337690Y-97045900D01*
X117337692Y-97045900D01*
X117464986Y-97011792D01*
X117579114Y-96945900D01*
X117590906Y-96934108D01*
X125749500Y-96934108D01*
X125749500Y-97065892D01*
X125764324Y-97121215D01*
X125783608Y-97193187D01*
X125816416Y-97250011D01*
X125849500Y-97307314D01*
X125942686Y-97400500D01*
X126056814Y-97466392D01*
X126184108Y-97500500D01*
X126184110Y-97500500D01*
X126315890Y-97500500D01*
X126315892Y-97500500D01*
X126443186Y-97466392D01*
X126557314Y-97400500D01*
X126650500Y-97307314D01*
X126716392Y-97193186D01*
X126718824Y-97184108D01*
X127087000Y-97184108D01*
X127087000Y-97315891D01*
X127121108Y-97443187D01*
X127154054Y-97500250D01*
X127187000Y-97557314D01*
X127280186Y-97650500D01*
X127394314Y-97716392D01*
X127521608Y-97750500D01*
X127521610Y-97750500D01*
X127653390Y-97750500D01*
X127653392Y-97750500D01*
X127780686Y-97716392D01*
X127894814Y-97650500D01*
X127988000Y-97557314D01*
X128053892Y-97443186D01*
X128088000Y-97315892D01*
X128088000Y-97184108D01*
X128053892Y-97056814D01*
X127988000Y-96942686D01*
X127894814Y-96849500D01*
X127820880Y-96806814D01*
X127780687Y-96783608D01*
X127717039Y-96766554D01*
X127653392Y-96749500D01*
X127521608Y-96749500D01*
X127394312Y-96783608D01*
X127280186Y-96849500D01*
X127280183Y-96849502D01*
X127187002Y-96942683D01*
X127187000Y-96942686D01*
X127121108Y-97056812D01*
X127087000Y-97184108D01*
X126718824Y-97184108D01*
X126750500Y-97065892D01*
X126750500Y-96934108D01*
X126716392Y-96806814D01*
X126650500Y-96692686D01*
X126557314Y-96599500D01*
X126485242Y-96557889D01*
X126443187Y-96533608D01*
X126379539Y-96516554D01*
X126315892Y-96499500D01*
X126184108Y-96499500D01*
X126056812Y-96533608D01*
X125942686Y-96599500D01*
X125942683Y-96599502D01*
X125849502Y-96692683D01*
X125849500Y-96692686D01*
X125783608Y-96806812D01*
X125749500Y-96934108D01*
X117590906Y-96934108D01*
X117672300Y-96852714D01*
X117738192Y-96738586D01*
X117772300Y-96611292D01*
X117772300Y-96479508D01*
X117738192Y-96352214D01*
X117672300Y-96238086D01*
X117597922Y-96163708D01*
X119235100Y-96163708D01*
X119235100Y-96295491D01*
X119269208Y-96422787D01*
X119295139Y-96467700D01*
X119335100Y-96536914D01*
X119428286Y-96630100D01*
X119527121Y-96687163D01*
X119536682Y-96692683D01*
X119542414Y-96695992D01*
X119669708Y-96730100D01*
X119669710Y-96730100D01*
X119801490Y-96730100D01*
X119801492Y-96730100D01*
X119928786Y-96695992D01*
X120042914Y-96630100D01*
X120136100Y-96536914D01*
X120201992Y-96422786D01*
X120236100Y-96295492D01*
X120236100Y-96163708D01*
X120201992Y-96036414D01*
X120136100Y-95922286D01*
X120042914Y-95829100D01*
X119985850Y-95796154D01*
X119928787Y-95763208D01*
X119865139Y-95746154D01*
X119801492Y-95729100D01*
X119669708Y-95729100D01*
X119542412Y-95763208D01*
X119428286Y-95829100D01*
X119428283Y-95829102D01*
X119335102Y-95922283D01*
X119335100Y-95922286D01*
X119269208Y-96036412D01*
X119235100Y-96163708D01*
X117597922Y-96163708D01*
X117579114Y-96144900D01*
X117510726Y-96105416D01*
X117464987Y-96079008D01*
X117401339Y-96061954D01*
X117337692Y-96044900D01*
X117205908Y-96044900D01*
X117078612Y-96079008D01*
X116964486Y-96144900D01*
X116964483Y-96144902D01*
X116871302Y-96238083D01*
X116871300Y-96238086D01*
X116805408Y-96352212D01*
X116771300Y-96479508D01*
X115484172Y-96479508D01*
X115458456Y-96383534D01*
X115392564Y-96269406D01*
X115299378Y-96176220D01*
X115195753Y-96116392D01*
X115185247Y-96110326D01*
X115184314Y-96109940D01*
X115183646Y-96109402D01*
X115178211Y-96106264D01*
X115178700Y-96105416D01*
X115129910Y-96066101D01*
X115107843Y-95999807D01*
X115125120Y-95932107D01*
X115144076Y-95907704D01*
X115205937Y-95845844D01*
X115271829Y-95731716D01*
X115305937Y-95604422D01*
X115305937Y-95472638D01*
X115295613Y-95434108D01*
X121021900Y-95434108D01*
X121021900Y-95565892D01*
X121032224Y-95604421D01*
X121056008Y-95693187D01*
X121069117Y-95715892D01*
X121121900Y-95807314D01*
X121215086Y-95900500D01*
X121329214Y-95966392D01*
X121456508Y-96000500D01*
X121456510Y-96000500D01*
X121588290Y-96000500D01*
X121588292Y-96000500D01*
X121715586Y-95966392D01*
X121829714Y-95900500D01*
X121922900Y-95807314D01*
X121973564Y-95719562D01*
X122878647Y-95719562D01*
X122878647Y-95851345D01*
X122912755Y-95978641D01*
X122930275Y-96008986D01*
X122978647Y-96092768D01*
X123071833Y-96185954D01*
X123185961Y-96251846D01*
X123313255Y-96285954D01*
X123313257Y-96285954D01*
X123445037Y-96285954D01*
X123445039Y-96285954D01*
X123572333Y-96251846D01*
X123686461Y-96185954D01*
X123779647Y-96092768D01*
X123845539Y-95978640D01*
X123879647Y-95851346D01*
X123879647Y-95719562D01*
X123845539Y-95592268D01*
X123779647Y-95478140D01*
X123686461Y-95384954D01*
X123613246Y-95342683D01*
X123572334Y-95319062D01*
X123508686Y-95302008D01*
X123445039Y-95284954D01*
X123313255Y-95284954D01*
X123185959Y-95319062D01*
X123071833Y-95384954D01*
X123071830Y-95384956D01*
X122978649Y-95478137D01*
X122978647Y-95478140D01*
X122912755Y-95592266D01*
X122878647Y-95719562D01*
X121973564Y-95719562D01*
X121988792Y-95693186D01*
X122022900Y-95565892D01*
X122022900Y-95434108D01*
X121988792Y-95306814D01*
X121922900Y-95192686D01*
X121829714Y-95099500D01*
X121746543Y-95051481D01*
X121733773Y-95044108D01*
X127336251Y-95044108D01*
X127336251Y-95175892D01*
X127340750Y-95192683D01*
X127370359Y-95303187D01*
X127393164Y-95342686D01*
X127436251Y-95417314D01*
X127529437Y-95510500D01*
X127643565Y-95576392D01*
X127770859Y-95610500D01*
X127770861Y-95610500D01*
X127902641Y-95610500D01*
X127902643Y-95610500D01*
X128001140Y-95584108D01*
X128499500Y-95584108D01*
X128499500Y-95715892D01*
X128500484Y-95719564D01*
X128533608Y-95843187D01*
X128538319Y-95851346D01*
X128599500Y-95957314D01*
X128692686Y-96050500D01*
X128765900Y-96092770D01*
X128805154Y-96115434D01*
X128806814Y-96116392D01*
X128934108Y-96150500D01*
X128934110Y-96150500D01*
X129065890Y-96150500D01*
X129065892Y-96150500D01*
X129193186Y-96116392D01*
X129307314Y-96050500D01*
X129400500Y-95957314D01*
X129466392Y-95843186D01*
X129500500Y-95715892D01*
X129500500Y-95584108D01*
X129466392Y-95456814D01*
X129400500Y-95342686D01*
X129307314Y-95249500D01*
X129208910Y-95192686D01*
X129193187Y-95183608D01*
X129129539Y-95166554D01*
X129065892Y-95149500D01*
X128934108Y-95149500D01*
X128806812Y-95183608D01*
X128692686Y-95249500D01*
X128692683Y-95249502D01*
X128599502Y-95342683D01*
X128599500Y-95342686D01*
X128533608Y-95456812D01*
X128525171Y-95488300D01*
X128499500Y-95584108D01*
X128001140Y-95584108D01*
X128029937Y-95576392D01*
X128144065Y-95510500D01*
X128237251Y-95417314D01*
X128303143Y-95303186D01*
X128337251Y-95175892D01*
X128337251Y-95044108D01*
X128303143Y-94916814D01*
X128237251Y-94802686D01*
X128144065Y-94709500D01*
X128087001Y-94676554D01*
X128029938Y-94643608D01*
X127932559Y-94617516D01*
X127902643Y-94609500D01*
X127770859Y-94609500D01*
X127643563Y-94643608D01*
X127529437Y-94709500D01*
X127529434Y-94709502D01*
X127436253Y-94802683D01*
X127436251Y-94802686D01*
X127370359Y-94916812D01*
X127345609Y-95009182D01*
X127336251Y-95044108D01*
X121733773Y-95044108D01*
X121715587Y-95033608D01*
X121618809Y-95007677D01*
X121588292Y-94999500D01*
X121456508Y-94999500D01*
X121329212Y-95033608D01*
X121215086Y-95099500D01*
X121215083Y-95099502D01*
X121121902Y-95192683D01*
X121121900Y-95192686D01*
X121056008Y-95306812D01*
X121035070Y-95384956D01*
X121021900Y-95434108D01*
X115295613Y-95434108D01*
X115271829Y-95345344D01*
X115270294Y-95342686D01*
X115256655Y-95319062D01*
X115205937Y-95231216D01*
X115205933Y-95231212D01*
X115205830Y-95231033D01*
X115189357Y-95163133D01*
X115212209Y-95097106D01*
X115225531Y-95081356D01*
X115267461Y-95039427D01*
X115333353Y-94925299D01*
X115367461Y-94798005D01*
X115367461Y-94666221D01*
X115351622Y-94607108D01*
X116618900Y-94607108D01*
X116618900Y-94738891D01*
X116653008Y-94866187D01*
X116682237Y-94916812D01*
X116718900Y-94980314D01*
X116812086Y-95073500D01*
X116926214Y-95139392D01*
X117053508Y-95173500D01*
X117053510Y-95173500D01*
X117185290Y-95173500D01*
X117185292Y-95173500D01*
X117312586Y-95139392D01*
X117426714Y-95073500D01*
X117519900Y-94980314D01*
X117585792Y-94866186D01*
X117619900Y-94738892D01*
X117619900Y-94607108D01*
X117585792Y-94479814D01*
X117584108Y-94476898D01*
X117576963Y-94464521D01*
X117519900Y-94365686D01*
X117426714Y-94272500D01*
X117355896Y-94231613D01*
X117312587Y-94206608D01*
X117242091Y-94187719D01*
X117185292Y-94172500D01*
X117053508Y-94172500D01*
X116926212Y-94206608D01*
X116812086Y-94272500D01*
X116812083Y-94272502D01*
X116718902Y-94365683D01*
X116718900Y-94365686D01*
X116653008Y-94479812D01*
X116618900Y-94607108D01*
X115351622Y-94607108D01*
X115333353Y-94538927D01*
X115267461Y-94424799D01*
X115174275Y-94331613D01*
X115112164Y-94295753D01*
X115060148Y-94265721D01*
X114977832Y-94243665D01*
X114932853Y-94231613D01*
X114801069Y-94231613D01*
X114673773Y-94265721D01*
X114559647Y-94331613D01*
X114537217Y-94354043D01*
X114475893Y-94387527D01*
X114406201Y-94382541D01*
X114361858Y-94354044D01*
X114357418Y-94349604D01*
X114351479Y-94343665D01*
X114294415Y-94310719D01*
X114237352Y-94277773D01*
X114173704Y-94260719D01*
X114110057Y-94243665D01*
X113978273Y-94243665D01*
X113850979Y-94277773D01*
X113850972Y-94277775D01*
X113848355Y-94279287D01*
X113845869Y-94279889D01*
X113843469Y-94280884D01*
X113843313Y-94280509D01*
X113780454Y-94295753D01*
X113714429Y-94272895D01*
X113685688Y-94241276D01*
X113684841Y-94241927D01*
X113679889Y-94235474D01*
X113592109Y-94147694D01*
X113586705Y-94142290D01*
X113472577Y-94076398D01*
X113415114Y-94061000D01*
X113415112Y-94061000D01*
X113345284Y-94042290D01*
X113345283Y-94042290D01*
X113213499Y-94042290D01*
X113156092Y-94057671D01*
X113086243Y-94056009D01*
X113028381Y-94016846D01*
X113000877Y-93952618D01*
X113000000Y-93937897D01*
X113000000Y-93379663D01*
X113341255Y-93379663D01*
X113341255Y-93511447D01*
X113353566Y-93557391D01*
X113375363Y-93638742D01*
X113401368Y-93683783D01*
X113441255Y-93752869D01*
X113534441Y-93846055D01*
X113648569Y-93911947D01*
X113775863Y-93946055D01*
X113775865Y-93946055D01*
X113907645Y-93946055D01*
X113907647Y-93946055D01*
X114034941Y-93911947D01*
X114149069Y-93846055D01*
X114180610Y-93814514D01*
X117605721Y-93814514D01*
X117605721Y-93946298D01*
X117614239Y-93978087D01*
X117639829Y-94073593D01*
X117664899Y-94117014D01*
X117705721Y-94187720D01*
X117798907Y-94280906D01*
X117913035Y-94346798D01*
X118040329Y-94380906D01*
X118040331Y-94380906D01*
X118172111Y-94380906D01*
X118172113Y-94380906D01*
X118299407Y-94346798D01*
X118413535Y-94280906D01*
X118506721Y-94187720D01*
X118572613Y-94073592D01*
X118587404Y-94018391D01*
X121711601Y-94018391D01*
X121711601Y-94150175D01*
X121717583Y-94172500D01*
X121745709Y-94277470D01*
X121747693Y-94280906D01*
X121811601Y-94391597D01*
X121904787Y-94484783D01*
X122018915Y-94550675D01*
X122146209Y-94584783D01*
X122146211Y-94584783D01*
X122277991Y-94584783D01*
X122277993Y-94584783D01*
X122405287Y-94550675D01*
X122519415Y-94484783D01*
X122612601Y-94391597D01*
X122678493Y-94277469D01*
X122687378Y-94244308D01*
X124297500Y-94244308D01*
X124297500Y-94376091D01*
X124331608Y-94503387D01*
X124358910Y-94550674D01*
X124397500Y-94617514D01*
X124490686Y-94710700D01*
X124604814Y-94776592D01*
X124732108Y-94810700D01*
X124732110Y-94810700D01*
X124863890Y-94810700D01*
X124863892Y-94810700D01*
X124991186Y-94776592D01*
X125105314Y-94710700D01*
X125198500Y-94617514D01*
X125264392Y-94503386D01*
X125298500Y-94376092D01*
X125298500Y-94244308D01*
X125264392Y-94117014D01*
X125198500Y-94002886D01*
X125105314Y-93909700D01*
X125026092Y-93863961D01*
X124991187Y-93843808D01*
X124927539Y-93826754D01*
X124863892Y-93809700D01*
X124732108Y-93809700D01*
X124604812Y-93843808D01*
X124490686Y-93909700D01*
X124490683Y-93909702D01*
X124397502Y-94002883D01*
X124397500Y-94002886D01*
X124331608Y-94117012D01*
X124297500Y-94244308D01*
X122687378Y-94244308D01*
X122712601Y-94150175D01*
X122712601Y-94018391D01*
X122678493Y-93891097D01*
X122612601Y-93776969D01*
X122519415Y-93683783D01*
X122441402Y-93638742D01*
X122405288Y-93617891D01*
X122356737Y-93604882D01*
X123107291Y-93604882D01*
X123107291Y-93736666D01*
X123111632Y-93752868D01*
X123141399Y-93863961D01*
X123158382Y-93893376D01*
X123207291Y-93978088D01*
X123300477Y-94071274D01*
X123379701Y-94117014D01*
X123414601Y-94137164D01*
X123414605Y-94137166D01*
X123541899Y-94171274D01*
X123541901Y-94171274D01*
X123673681Y-94171274D01*
X123673683Y-94171274D01*
X123800977Y-94137166D01*
X123915105Y-94071274D01*
X124008291Y-93978088D01*
X124074183Y-93863960D01*
X124108291Y-93736666D01*
X124108291Y-93604882D01*
X124074183Y-93477588D01*
X124008291Y-93363460D01*
X123915105Y-93270274D01*
X123858041Y-93237328D01*
X123800978Y-93204382D01*
X123730739Y-93185562D01*
X123673683Y-93170274D01*
X123541899Y-93170274D01*
X123519713Y-93176218D01*
X123519704Y-93176220D01*
X123414605Y-93204382D01*
X123376611Y-93226317D01*
X123376602Y-93226321D01*
X123300480Y-93270272D01*
X123300474Y-93270276D01*
X123207293Y-93363457D01*
X123207291Y-93363460D01*
X123141399Y-93477586D01*
X123129989Y-93520170D01*
X123107291Y-93604882D01*
X122356737Y-93604882D01*
X122341640Y-93600837D01*
X122277993Y-93583783D01*
X122146209Y-93583783D01*
X122018913Y-93617891D01*
X121904787Y-93683783D01*
X121904784Y-93683785D01*
X121811603Y-93776966D01*
X121811601Y-93776969D01*
X121745709Y-93891095D01*
X121712015Y-94016846D01*
X121711601Y-94018391D01*
X118587404Y-94018391D01*
X118606721Y-93946298D01*
X118606721Y-93814514D01*
X118572613Y-93687220D01*
X118506721Y-93573092D01*
X118413535Y-93479906D01*
X118356471Y-93446960D01*
X118299408Y-93414014D01*
X118220518Y-93392876D01*
X118172113Y-93379906D01*
X118040329Y-93379906D01*
X117913033Y-93414014D01*
X117798907Y-93479906D01*
X117798904Y-93479908D01*
X117705723Y-93573089D01*
X117705721Y-93573092D01*
X117639829Y-93687218D01*
X117622238Y-93752871D01*
X117605721Y-93814514D01*
X114180610Y-93814514D01*
X114242255Y-93752869D01*
X114308147Y-93638741D01*
X114342255Y-93511447D01*
X114342255Y-93379663D01*
X114308147Y-93252369D01*
X114242255Y-93138241D01*
X114149069Y-93045055D01*
X114061599Y-92994554D01*
X114034942Y-92979163D01*
X113971294Y-92962109D01*
X113907647Y-92945055D01*
X113775863Y-92945055D01*
X113648567Y-92979163D01*
X113534441Y-93045055D01*
X113534438Y-93045057D01*
X113441257Y-93138238D01*
X113441255Y-93138241D01*
X113375363Y-93252367D01*
X113341255Y-93379663D01*
X113000000Y-93379663D01*
X113000000Y-92792850D01*
X113019685Y-92725811D01*
X113072489Y-92680056D01*
X113124000Y-92668850D01*
X113134240Y-92668850D01*
X113134242Y-92668850D01*
X113261536Y-92634742D01*
X113375664Y-92568850D01*
X113468850Y-92475664D01*
X113534742Y-92361536D01*
X113568850Y-92234242D01*
X113568850Y-92234108D01*
X115199500Y-92234108D01*
X115199500Y-92365891D01*
X115233608Y-92493187D01*
X115256807Y-92533368D01*
X115299500Y-92607314D01*
X115392686Y-92700500D01*
X115506814Y-92766392D01*
X115634108Y-92800500D01*
X115634110Y-92800500D01*
X115765890Y-92800500D01*
X115765892Y-92800500D01*
X115893186Y-92766392D01*
X116007314Y-92700500D01*
X116100500Y-92607314D01*
X116166392Y-92493186D01*
X116200500Y-92365892D01*
X116200500Y-92268643D01*
X118411853Y-92268643D01*
X118411853Y-92400427D01*
X118420878Y-92434108D01*
X118445961Y-92527722D01*
X118467999Y-92565892D01*
X118511853Y-92641849D01*
X118605039Y-92735035D01*
X118689300Y-92783683D01*
X118718425Y-92800499D01*
X118719167Y-92800927D01*
X118846461Y-92835035D01*
X118846463Y-92835035D01*
X118975500Y-92835035D01*
X119042539Y-92854720D01*
X119088294Y-92907524D01*
X119099500Y-92959035D01*
X119099500Y-93015892D01*
X119101970Y-93025110D01*
X119133608Y-93143187D01*
X119141521Y-93156892D01*
X119199500Y-93257314D01*
X119292686Y-93350500D01*
X119406814Y-93416392D01*
X119534108Y-93450500D01*
X119534110Y-93450500D01*
X119665890Y-93450500D01*
X119665892Y-93450500D01*
X119793186Y-93416392D01*
X119907314Y-93350500D01*
X120000500Y-93257314D01*
X120066392Y-93143186D01*
X120098031Y-93025108D01*
X124670700Y-93025108D01*
X124670700Y-93156892D01*
X124678382Y-93185562D01*
X124704808Y-93284187D01*
X124714226Y-93300499D01*
X124770700Y-93398314D01*
X124863886Y-93491500D01*
X124978014Y-93557392D01*
X125105308Y-93591500D01*
X125105310Y-93591500D01*
X125237090Y-93591500D01*
X125237092Y-93591500D01*
X125364386Y-93557392D01*
X125478514Y-93491500D01*
X125571700Y-93398314D01*
X125637592Y-93284186D01*
X125671700Y-93156892D01*
X125671700Y-93025108D01*
X125637592Y-92897814D01*
X125601346Y-92835035D01*
X125574180Y-92787981D01*
X125571702Y-92783689D01*
X125571697Y-92783683D01*
X125522122Y-92734108D01*
X127099500Y-92734108D01*
X127099500Y-92865892D01*
X127108772Y-92900497D01*
X127133608Y-92993187D01*
X127146717Y-93015892D01*
X127199500Y-93107314D01*
X127292686Y-93200500D01*
X127406814Y-93266392D01*
X127534108Y-93300500D01*
X127534110Y-93300500D01*
X127665890Y-93300500D01*
X127665892Y-93300500D01*
X127793186Y-93266392D01*
X127907314Y-93200500D01*
X128000500Y-93107314D01*
X128066392Y-92993186D01*
X128100500Y-92865892D01*
X128100500Y-92734108D01*
X128066392Y-92606814D01*
X128000500Y-92492686D01*
X127907314Y-92399500D01*
X127820317Y-92349272D01*
X127793187Y-92333608D01*
X127693188Y-92306814D01*
X127665892Y-92299500D01*
X127534108Y-92299500D01*
X127406812Y-92333608D01*
X127292686Y-92399500D01*
X127292683Y-92399502D01*
X127199502Y-92492683D01*
X127199500Y-92492686D01*
X127133608Y-92606812D01*
X127108506Y-92700497D01*
X127099500Y-92734108D01*
X125522122Y-92734108D01*
X125478516Y-92690502D01*
X125478514Y-92690500D01*
X125394252Y-92641851D01*
X125364387Y-92624608D01*
X125297970Y-92606812D01*
X125237092Y-92590500D01*
X125105308Y-92590500D01*
X124978012Y-92624608D01*
X124863886Y-92690500D01*
X124863883Y-92690502D01*
X124770702Y-92783683D01*
X124770700Y-92783686D01*
X124704808Y-92897812D01*
X124692150Y-92945055D01*
X124670700Y-93025108D01*
X120098031Y-93025108D01*
X120100500Y-93015892D01*
X120100500Y-92884108D01*
X120066392Y-92756814D01*
X120000500Y-92642686D01*
X119907314Y-92549500D01*
X119879372Y-92533367D01*
X119791366Y-92482557D01*
X119745170Y-92434108D01*
X122699500Y-92434108D01*
X122699500Y-92565892D01*
X122715233Y-92624608D01*
X122733608Y-92693187D01*
X122766554Y-92750250D01*
X122799500Y-92807314D01*
X122892686Y-92900500D01*
X123006814Y-92966392D01*
X123134108Y-93000500D01*
X123134110Y-93000500D01*
X123265889Y-93000500D01*
X123265892Y-93000500D01*
X123393186Y-92966392D01*
X123507314Y-92900500D01*
X123600500Y-92807314D01*
X123666392Y-92693186D01*
X123700500Y-92565892D01*
X123700500Y-92434108D01*
X123666392Y-92306814D01*
X123600500Y-92192686D01*
X123507314Y-92099500D01*
X123422439Y-92050497D01*
X123393187Y-92033608D01*
X123321843Y-92014492D01*
X123265892Y-91999500D01*
X123134108Y-91999500D01*
X123006812Y-92033608D01*
X122892686Y-92099500D01*
X122892683Y-92099502D01*
X122799502Y-92192683D01*
X122799500Y-92192686D01*
X122733608Y-92306812D01*
X122708525Y-92400426D01*
X122699500Y-92434108D01*
X119745170Y-92434108D01*
X119743150Y-92431990D01*
X119729927Y-92363383D01*
X119755896Y-92298518D01*
X119791363Y-92267785D01*
X119823429Y-92249272D01*
X119916615Y-92156086D01*
X119982507Y-92041958D01*
X120016615Y-91914664D01*
X120016615Y-91782880D01*
X119982507Y-91655586D01*
X119982504Y-91655580D01*
X119972344Y-91637982D01*
X119972343Y-91637981D01*
X119946603Y-91593399D01*
X119941239Y-91584108D01*
X121619500Y-91584108D01*
X121619500Y-91715892D01*
X121625797Y-91739392D01*
X121653608Y-91843187D01*
X121668017Y-91868143D01*
X121719500Y-91957314D01*
X121812686Y-92050500D01*
X121926814Y-92116392D01*
X122054108Y-92150500D01*
X122054110Y-92150500D01*
X122185890Y-92150500D01*
X122185892Y-92150500D01*
X122313186Y-92116392D01*
X122427314Y-92050500D01*
X122520500Y-91957314D01*
X122586392Y-91843186D01*
X122620500Y-91715892D01*
X122620500Y-91584108D01*
X122586392Y-91456814D01*
X122520500Y-91342686D01*
X122520493Y-91342679D01*
X122519245Y-91341052D01*
X122518614Y-91339420D01*
X122516436Y-91335648D01*
X122517024Y-91335308D01*
X122494047Y-91275884D01*
X122508080Y-91207439D01*
X122529930Y-91177883D01*
X122550500Y-91157314D01*
X122616392Y-91043186D01*
X122650500Y-90915892D01*
X122650500Y-90784108D01*
X122616392Y-90656814D01*
X122550500Y-90542686D01*
X122457314Y-90449500D01*
X122399968Y-90416391D01*
X122343187Y-90383608D01*
X122279539Y-90366554D01*
X122215892Y-90349500D01*
X122084108Y-90349500D01*
X121956812Y-90383608D01*
X121842686Y-90449500D01*
X121842683Y-90449502D01*
X121749502Y-90542683D01*
X121749500Y-90542686D01*
X121683608Y-90656812D01*
X121649500Y-90784108D01*
X121649500Y-90915891D01*
X121683608Y-91043187D01*
X121749501Y-91157315D01*
X121750755Y-91158949D01*
X121751384Y-91160577D01*
X121753564Y-91164352D01*
X121752975Y-91164691D01*
X121775953Y-91224117D01*
X121761917Y-91292562D01*
X121740066Y-91322120D01*
X121719500Y-91342686D01*
X121653608Y-91456812D01*
X121630929Y-91541455D01*
X121619500Y-91584108D01*
X119941239Y-91584108D01*
X119916615Y-91541458D01*
X119823429Y-91448272D01*
X119766365Y-91415326D01*
X119709302Y-91382380D01*
X119645654Y-91365326D01*
X119582007Y-91348272D01*
X119450223Y-91348272D01*
X119322927Y-91382380D01*
X119208801Y-91448272D01*
X119208798Y-91448274D01*
X119115617Y-91541455D01*
X119115615Y-91541458D01*
X119049723Y-91655584D01*
X119046437Y-91667850D01*
X119026533Y-91742129D01*
X118990170Y-91801789D01*
X118927324Y-91832318D01*
X118906760Y-91834035D01*
X118846461Y-91834035D01*
X118719165Y-91868143D01*
X118605039Y-91934035D01*
X118605036Y-91934037D01*
X118511855Y-92027218D01*
X118511853Y-92027221D01*
X118445961Y-92141347D01*
X118417044Y-92249269D01*
X118411853Y-92268643D01*
X116200500Y-92268643D01*
X116200500Y-92234108D01*
X116166392Y-92106814D01*
X116100500Y-91992686D01*
X116007314Y-91899500D01*
X115940693Y-91861036D01*
X115893187Y-91833608D01*
X115804642Y-91809883D01*
X115765892Y-91799500D01*
X115634108Y-91799500D01*
X115506812Y-91833608D01*
X115392686Y-91899500D01*
X115392683Y-91899502D01*
X115299502Y-91992683D01*
X115299500Y-91992686D01*
X115233608Y-92106812D01*
X115199500Y-92234108D01*
X113568850Y-92234108D01*
X113568850Y-92102458D01*
X113534742Y-91975164D01*
X113468850Y-91861036D01*
X113375664Y-91767850D01*
X113318600Y-91734904D01*
X113261537Y-91701958D01*
X113155328Y-91673500D01*
X113134242Y-91667850D01*
X113124000Y-91667850D01*
X113056961Y-91648165D01*
X113011206Y-91595361D01*
X113000000Y-91543850D01*
X113000000Y-91207108D01*
X117599500Y-91207108D01*
X117599500Y-91338892D01*
X117611663Y-91384285D01*
X117633608Y-91466187D01*
X117666554Y-91523250D01*
X117699500Y-91580314D01*
X117792686Y-91673500D01*
X117906814Y-91739392D01*
X118034108Y-91773500D01*
X118034110Y-91773500D01*
X118165890Y-91773500D01*
X118165892Y-91773500D01*
X118293186Y-91739392D01*
X118407314Y-91673500D01*
X118500500Y-91580314D01*
X118566392Y-91466186D01*
X118600500Y-91338892D01*
X118600500Y-91207108D01*
X118566392Y-91079814D01*
X118500500Y-90965686D01*
X118407314Y-90872500D01*
X118350250Y-90839554D01*
X118293187Y-90806608D01*
X118229539Y-90789554D01*
X118165892Y-90772500D01*
X118034108Y-90772500D01*
X117906812Y-90806608D01*
X117792686Y-90872500D01*
X117792683Y-90872502D01*
X117699502Y-90965683D01*
X117699500Y-90965686D01*
X117633608Y-91079812D01*
X117602341Y-91196504D01*
X117599500Y-91207108D01*
X113000000Y-91207108D01*
X113000000Y-90356335D01*
X113019685Y-90289296D01*
X113036319Y-90268654D01*
X113066266Y-90238707D01*
X113126958Y-90178015D01*
X113192850Y-90063887D01*
X113226958Y-89936593D01*
X113226958Y-89804809D01*
X113192850Y-89677515D01*
X113126958Y-89563387D01*
X113105319Y-89541748D01*
X113077168Y-89513596D01*
X113036319Y-89472747D01*
X113015184Y-89434042D01*
X115048147Y-89434042D01*
X115048147Y-89565825D01*
X115082255Y-89693121D01*
X115093519Y-89712630D01*
X115148147Y-89807248D01*
X115241333Y-89900434D01*
X115355461Y-89966326D01*
X115482755Y-90000434D01*
X115482757Y-90000434D01*
X115614537Y-90000434D01*
X115614539Y-90000434D01*
X115741833Y-89966326D01*
X115855961Y-89900434D01*
X115949147Y-89807248D01*
X116015039Y-89693120D01*
X116049147Y-89565826D01*
X116049147Y-89434042D01*
X116015039Y-89306748D01*
X115949147Y-89192620D01*
X115940635Y-89184108D01*
X116498147Y-89184108D01*
X116498147Y-89315891D01*
X116532255Y-89443187D01*
X116542177Y-89460372D01*
X116598147Y-89557314D01*
X116691333Y-89650500D01*
X116748678Y-89683608D01*
X116798945Y-89712630D01*
X116847161Y-89763197D01*
X116860384Y-89831804D01*
X116856721Y-89852107D01*
X116848147Y-89884108D01*
X116848147Y-90015891D01*
X116882255Y-90143187D01*
X116902365Y-90178017D01*
X116948147Y-90257314D01*
X117041333Y-90350500D01*
X117155461Y-90416392D01*
X117282755Y-90450500D01*
X117282757Y-90450500D01*
X117414537Y-90450500D01*
X117414539Y-90450500D01*
X117541833Y-90416392D01*
X117655961Y-90350500D01*
X117661640Y-90344820D01*
X117722960Y-90311334D01*
X117792651Y-90316315D01*
X117837004Y-90344818D01*
X117892686Y-90400500D01*
X118006814Y-90466392D01*
X118134108Y-90500500D01*
X118134110Y-90500500D01*
X118265890Y-90500500D01*
X118265892Y-90500500D01*
X118393186Y-90466392D01*
X118507314Y-90400500D01*
X118600500Y-90307314D01*
X118666392Y-90193186D01*
X118695619Y-90084108D01*
X122799500Y-90084108D01*
X122799500Y-90215892D01*
X122813637Y-90268654D01*
X122833608Y-90343187D01*
X122856946Y-90383608D01*
X122899500Y-90457314D01*
X122992686Y-90550500D01*
X123106814Y-90616392D01*
X123234108Y-90650500D01*
X123234110Y-90650500D01*
X123365890Y-90650500D01*
X123365892Y-90650500D01*
X123493186Y-90616392D01*
X123607314Y-90550500D01*
X123661310Y-90496504D01*
X124029384Y-90496504D01*
X124930715Y-90496504D01*
X124886660Y-90572810D01*
X124855993Y-90687260D01*
X124855993Y-90805748D01*
X124886660Y-90920198D01*
X124930715Y-90996504D01*
X124029384Y-90996504D01*
X124038002Y-91050917D01*
X124101237Y-91245533D01*
X124194133Y-91427853D01*
X124314410Y-91593398D01*
X124314410Y-91593399D01*
X124459097Y-91738086D01*
X124624643Y-91858363D01*
X124806961Y-91951258D01*
X125001571Y-92014492D01*
X125055993Y-92023111D01*
X125055993Y-91121781D01*
X125132299Y-91165837D01*
X125246749Y-91196504D01*
X125365237Y-91196504D01*
X125479687Y-91165837D01*
X125555993Y-91121781D01*
X125555993Y-92023110D01*
X125610414Y-92014492D01*
X125805024Y-91951258D01*
X125987342Y-91858363D01*
X126152887Y-91738086D01*
X126152888Y-91738086D01*
X126297575Y-91593399D01*
X126297575Y-91593398D01*
X126417852Y-91427853D01*
X126510748Y-91245535D01*
X126573983Y-91050921D01*
X126603868Y-90862235D01*
X126633797Y-90799100D01*
X126693109Y-90762169D01*
X126762971Y-90763167D01*
X126821204Y-90801777D01*
X126847958Y-90857441D01*
X126883940Y-91038333D01*
X126883943Y-91038343D01*
X126959357Y-91220411D01*
X126959364Y-91220424D01*
X127068853Y-91384285D01*
X127068856Y-91384289D01*
X127208207Y-91523640D01*
X127208211Y-91523643D01*
X127372072Y-91633132D01*
X127372085Y-91633139D01*
X127538231Y-91701958D01*
X127554158Y-91708555D01*
X127554162Y-91708555D01*
X127554163Y-91708556D01*
X127747449Y-91747004D01*
X127747452Y-91747004D01*
X127944536Y-91747004D01*
X128074575Y-91721136D01*
X128137828Y-91708555D01*
X128278648Y-91650225D01*
X128319900Y-91633139D01*
X128319900Y-91633138D01*
X128319907Y-91633136D01*
X128483775Y-91523643D01*
X128623132Y-91384286D01*
X128732625Y-91220418D01*
X128808044Y-91038339D01*
X128831544Y-90920198D01*
X128846493Y-90845047D01*
X129385492Y-90845047D01*
X129423940Y-91038333D01*
X129423943Y-91038343D01*
X129499357Y-91220411D01*
X129499364Y-91220424D01*
X129608853Y-91384285D01*
X129608856Y-91384289D01*
X129748207Y-91523640D01*
X129748211Y-91523643D01*
X129912072Y-91633132D01*
X129912085Y-91633139D01*
X130078231Y-91701958D01*
X130094158Y-91708555D01*
X130094162Y-91708555D01*
X130094163Y-91708556D01*
X130287449Y-91747004D01*
X130287452Y-91747004D01*
X130484536Y-91747004D01*
X130614575Y-91721136D01*
X130677828Y-91708555D01*
X130818648Y-91650225D01*
X130859900Y-91633139D01*
X130859900Y-91633138D01*
X130859907Y-91633136D01*
X131023775Y-91523643D01*
X131163132Y-91384286D01*
X131272625Y-91220418D01*
X131348044Y-91038339D01*
X131371544Y-90920198D01*
X131386493Y-90845047D01*
X131386493Y-90647960D01*
X131348045Y-90454674D01*
X131348044Y-90454673D01*
X131348044Y-90454669D01*
X131332189Y-90416391D01*
X131272628Y-90272596D01*
X131272621Y-90272583D01*
X131163132Y-90108722D01*
X131163129Y-90108718D01*
X131023778Y-89969367D01*
X131023774Y-89969364D01*
X130859913Y-89859875D01*
X130859900Y-89859868D01*
X130677832Y-89784454D01*
X130677822Y-89784451D01*
X130484536Y-89746004D01*
X130484534Y-89746004D01*
X130287452Y-89746004D01*
X130287450Y-89746004D01*
X130094163Y-89784451D01*
X130094153Y-89784454D01*
X129912085Y-89859868D01*
X129912072Y-89859875D01*
X129748211Y-89969364D01*
X129748207Y-89969367D01*
X129608856Y-90108718D01*
X129608853Y-90108722D01*
X129499364Y-90272583D01*
X129499357Y-90272596D01*
X129423943Y-90454664D01*
X129423940Y-90454674D01*
X129385493Y-90647960D01*
X129385493Y-90647963D01*
X129385493Y-90845045D01*
X129385493Y-90845047D01*
X129385492Y-90845047D01*
X128846493Y-90845047D01*
X128846493Y-90647960D01*
X128808045Y-90454674D01*
X128808044Y-90454673D01*
X128808044Y-90454669D01*
X128792189Y-90416391D01*
X128732628Y-90272596D01*
X128732621Y-90272583D01*
X128623132Y-90108722D01*
X128623129Y-90108718D01*
X128483778Y-89969367D01*
X128483774Y-89969364D01*
X128319913Y-89859875D01*
X128319900Y-89859868D01*
X128137832Y-89784454D01*
X128137822Y-89784451D01*
X127944536Y-89746004D01*
X127944534Y-89746004D01*
X127747452Y-89746004D01*
X127747450Y-89746004D01*
X127554163Y-89784451D01*
X127554153Y-89784454D01*
X127372085Y-89859868D01*
X127372072Y-89859875D01*
X127208211Y-89969364D01*
X127208207Y-89969367D01*
X127068856Y-90108718D01*
X127068853Y-90108722D01*
X126959364Y-90272583D01*
X126959357Y-90272596D01*
X126883943Y-90454664D01*
X126883940Y-90454674D01*
X126847958Y-90635566D01*
X126815573Y-90697477D01*
X126754857Y-90732051D01*
X126685087Y-90728310D01*
X126628416Y-90687444D01*
X126603868Y-90630772D01*
X126573983Y-90442086D01*
X126510748Y-90247472D01*
X126417852Y-90065154D01*
X126297575Y-89899609D01*
X126297575Y-89899608D01*
X126152888Y-89754921D01*
X125987342Y-89634644D01*
X125805022Y-89541748D01*
X125610406Y-89478513D01*
X125555993Y-89469894D01*
X125555993Y-90371226D01*
X125479687Y-90327171D01*
X125365237Y-90296504D01*
X125246749Y-90296504D01*
X125132299Y-90327171D01*
X125055993Y-90371226D01*
X125055993Y-89469894D01*
X125001579Y-89478513D01*
X124806963Y-89541748D01*
X124624643Y-89634644D01*
X124459098Y-89754921D01*
X124459097Y-89754921D01*
X124314410Y-89899608D01*
X124314410Y-89899609D01*
X124194133Y-90065154D01*
X124101237Y-90247474D01*
X124038002Y-90442090D01*
X124029384Y-90496504D01*
X123661310Y-90496504D01*
X123700500Y-90457314D01*
X123766392Y-90343186D01*
X123800500Y-90215892D01*
X123800500Y-90084108D01*
X123766392Y-89956814D01*
X123700500Y-89842686D01*
X123607314Y-89749500D01*
X123549969Y-89716392D01*
X123493187Y-89683608D01*
X123429539Y-89666554D01*
X123365892Y-89649500D01*
X123234108Y-89649500D01*
X123106812Y-89683608D01*
X122992686Y-89749500D01*
X122992683Y-89749502D01*
X122899502Y-89842683D01*
X122899500Y-89842686D01*
X122833608Y-89956812D01*
X122817778Y-90015892D01*
X122799500Y-90084108D01*
X118695619Y-90084108D01*
X118700500Y-90065892D01*
X118700500Y-89934108D01*
X118666392Y-89806814D01*
X118665234Y-89804809D01*
X118653481Y-89784451D01*
X118600500Y-89692686D01*
X118507314Y-89599500D01*
X118444758Y-89563383D01*
X118393187Y-89533608D01*
X118318499Y-89513596D01*
X118265892Y-89499500D01*
X118134108Y-89499500D01*
X118006812Y-89533608D01*
X117892686Y-89599500D01*
X117892681Y-89599504D01*
X117887000Y-89605185D01*
X117825676Y-89638667D01*
X117755984Y-89633680D01*
X117711642Y-89605181D01*
X117655963Y-89549502D01*
X117655957Y-89549497D01*
X117548348Y-89487369D01*
X117500132Y-89436802D01*
X117486910Y-89368195D01*
X117490571Y-89347896D01*
X117499147Y-89315892D01*
X117499147Y-89184108D01*
X117465039Y-89056814D01*
X117399147Y-88942686D01*
X117305961Y-88849500D01*
X117191833Y-88783608D01*
X117173778Y-88778770D01*
X117109518Y-88761552D01*
X117064539Y-88749500D01*
X116932755Y-88749500D01*
X116805459Y-88783608D01*
X116691333Y-88849500D01*
X116691330Y-88849502D01*
X116598149Y-88942683D01*
X116598147Y-88942686D01*
X116532255Y-89056812D01*
X116498147Y-89184108D01*
X115940635Y-89184108D01*
X115855961Y-89099434D01*
X115782138Y-89056812D01*
X115741834Y-89033542D01*
X115678186Y-89016488D01*
X115614539Y-88999434D01*
X115482755Y-88999434D01*
X115355459Y-89033542D01*
X115241333Y-89099434D01*
X115241330Y-89099436D01*
X115148149Y-89192617D01*
X115148147Y-89192620D01*
X115082255Y-89306746D01*
X115048147Y-89434042D01*
X113015184Y-89434042D01*
X113002834Y-89411424D01*
X113000000Y-89385066D01*
X113000000Y-88667123D01*
X118016485Y-88667123D01*
X118016485Y-88798906D01*
X118050593Y-88926202D01*
X118068556Y-88957314D01*
X118116485Y-89040329D01*
X118209671Y-89133515D01*
X118323799Y-89199407D01*
X118451093Y-89233515D01*
X118451095Y-89233515D01*
X118582875Y-89233515D01*
X118582877Y-89233515D01*
X118710171Y-89199407D01*
X118824299Y-89133515D01*
X118917485Y-89040329D01*
X118983377Y-88926201D01*
X119017485Y-88798907D01*
X119017485Y-88667123D01*
X118983377Y-88539829D01*
X118917485Y-88425701D01*
X118824299Y-88332515D01*
X118767235Y-88299569D01*
X118710172Y-88266623D01*
X118601970Y-88237631D01*
X118582877Y-88232515D01*
X118451093Y-88232515D01*
X118323797Y-88266623D01*
X118209671Y-88332515D01*
X118209668Y-88332517D01*
X118116487Y-88425698D01*
X118116485Y-88425701D01*
X118050593Y-88539827D01*
X118016485Y-88667123D01*
X113000000Y-88667123D01*
X113000000Y-86816790D01*
X114422157Y-86816790D01*
X114422157Y-86948573D01*
X114456265Y-87075869D01*
X114480297Y-87117493D01*
X114522157Y-87189996D01*
X114615343Y-87283182D01*
X114729471Y-87349074D01*
X114856765Y-87383182D01*
X114856767Y-87383182D01*
X114988547Y-87383182D01*
X114988549Y-87383182D01*
X115115843Y-87349074D01*
X115229971Y-87283182D01*
X115323157Y-87189996D01*
X115323159Y-87189991D01*
X115325845Y-87186493D01*
X115328865Y-87184287D01*
X115328904Y-87184249D01*
X115328910Y-87184255D01*
X115382273Y-87145291D01*
X115452019Y-87141136D01*
X115456290Y-87142199D01*
X115577175Y-87174590D01*
X115577177Y-87174590D01*
X115708957Y-87174590D01*
X115708959Y-87174590D01*
X115836253Y-87140482D01*
X115900076Y-87103633D01*
X115967974Y-87087161D01*
X116034001Y-87110013D01*
X116077192Y-87164934D01*
X116083163Y-87212378D01*
X116085897Y-87212378D01*
X116085897Y-87220505D01*
X116085897Y-87352289D01*
X116098815Y-87400499D01*
X116120005Y-87479584D01*
X116135727Y-87506814D01*
X116185897Y-87593711D01*
X116279083Y-87686897D01*
X116393211Y-87752789D01*
X116520505Y-87786897D01*
X116520507Y-87786897D01*
X116652287Y-87786897D01*
X116652289Y-87786897D01*
X116779583Y-87752789D01*
X116893711Y-87686897D01*
X116986897Y-87593711D01*
X117052789Y-87479583D01*
X117086897Y-87352289D01*
X117086897Y-87220505D01*
X117052789Y-87093211D01*
X116986897Y-86979083D01*
X116893711Y-86885897D01*
X116804014Y-86834110D01*
X116779584Y-86820005D01*
X116715936Y-86802951D01*
X116652289Y-86785897D01*
X116520505Y-86785897D01*
X116393209Y-86820005D01*
X116329387Y-86856853D01*
X116261487Y-86873325D01*
X116195460Y-86850472D01*
X116152270Y-86795550D01*
X116146319Y-86748109D01*
X116143567Y-86748109D01*
X116143567Y-86679801D01*
X117305368Y-86679801D01*
X117343816Y-86873087D01*
X117343819Y-86873097D01*
X117419233Y-87055165D01*
X117419240Y-87055178D01*
X117528729Y-87219039D01*
X117528732Y-87219043D01*
X117668083Y-87358394D01*
X117668087Y-87358397D01*
X117831948Y-87467886D01*
X117831961Y-87467893D01*
X117952915Y-87517993D01*
X118014034Y-87543309D01*
X118014038Y-87543309D01*
X118014039Y-87543310D01*
X118207325Y-87581758D01*
X118207328Y-87581758D01*
X118404412Y-87581758D01*
X118538945Y-87554997D01*
X122442102Y-87554997D01*
X122442102Y-87686781D01*
X122442133Y-87686896D01*
X122476210Y-87814076D01*
X122495084Y-87846766D01*
X122542102Y-87928203D01*
X122635288Y-88021389D01*
X122718243Y-88069283D01*
X122766459Y-88119850D01*
X122779682Y-88188457D01*
X122776019Y-88208759D01*
X122770524Y-88229267D01*
X122770524Y-88361052D01*
X122804632Y-88488348D01*
X122819430Y-88513978D01*
X122870524Y-88602475D01*
X122963710Y-88695661D01*
X123077838Y-88761553D01*
X123205132Y-88795661D01*
X123205134Y-88795661D01*
X123336914Y-88795661D01*
X123336916Y-88795661D01*
X123464210Y-88761553D01*
X123578338Y-88695661D01*
X123671524Y-88602475D01*
X123682128Y-88584108D01*
X126471682Y-88584108D01*
X126471682Y-88715892D01*
X126483917Y-88761553D01*
X126505790Y-88843187D01*
X126538736Y-88900250D01*
X126571682Y-88957314D01*
X126664868Y-89050500D01*
X126778996Y-89116392D01*
X126906290Y-89150500D01*
X126906292Y-89150500D01*
X127038072Y-89150500D01*
X127038074Y-89150500D01*
X127165368Y-89116392D01*
X127279496Y-89050500D01*
X127372682Y-88957314D01*
X127438574Y-88843186D01*
X127472682Y-88715892D01*
X127472682Y-88584108D01*
X127438574Y-88456814D01*
X127372682Y-88342686D01*
X127279496Y-88249500D01*
X127194626Y-88200500D01*
X127165369Y-88183608D01*
X127101116Y-88166392D01*
X127038074Y-88149500D01*
X126906290Y-88149500D01*
X126778994Y-88183608D01*
X126664868Y-88249500D01*
X126664865Y-88249502D01*
X126571684Y-88342683D01*
X126571682Y-88342686D01*
X126505790Y-88456812D01*
X126483547Y-88539827D01*
X126471682Y-88584108D01*
X123682128Y-88584108D01*
X123737416Y-88488347D01*
X123771524Y-88361053D01*
X123771524Y-88229269D01*
X123737416Y-88101975D01*
X123736564Y-88100500D01*
X123704202Y-88044447D01*
X123671524Y-87987847D01*
X123578338Y-87894661D01*
X123495382Y-87846766D01*
X123447166Y-87796199D01*
X123433387Y-87738298D01*
X123433524Y-87722524D01*
X123443102Y-87686781D01*
X123443102Y-87554997D01*
X123433187Y-87517993D01*
X124029500Y-87517993D01*
X124029500Y-87649776D01*
X124063608Y-87777072D01*
X124078590Y-87803021D01*
X124129500Y-87891199D01*
X124222686Y-87984385D01*
X124336814Y-88050277D01*
X124464108Y-88084385D01*
X124464110Y-88084385D01*
X124595890Y-88084385D01*
X124595892Y-88084385D01*
X124723186Y-88050277D01*
X124797864Y-88007161D01*
X124865762Y-87990689D01*
X124931789Y-88013541D01*
X124958237Y-88039060D01*
X124962368Y-88044443D01*
X124962369Y-88044445D01*
X125055555Y-88137631D01*
X125169683Y-88203523D01*
X125296977Y-88237631D01*
X125296979Y-88237631D01*
X125428759Y-88237631D01*
X125428761Y-88237631D01*
X125556055Y-88203523D01*
X125670183Y-88137631D01*
X125763369Y-88044445D01*
X125829261Y-87930317D01*
X125863369Y-87803023D01*
X125863369Y-87671239D01*
X125829261Y-87543945D01*
X125828894Y-87543310D01*
X125818704Y-87525660D01*
X125763369Y-87429817D01*
X125670183Y-87336631D01*
X125613119Y-87303685D01*
X125556056Y-87270739D01*
X125492408Y-87253685D01*
X125428761Y-87236631D01*
X125296977Y-87236631D01*
X125169681Y-87270739D01*
X125095004Y-87313854D01*
X125027104Y-87330326D01*
X124961077Y-87307473D01*
X124934630Y-87281954D01*
X124930502Y-87276574D01*
X124930500Y-87276571D01*
X124837314Y-87183385D01*
X124780250Y-87150439D01*
X124723187Y-87117493D01*
X124632556Y-87093209D01*
X124595892Y-87083385D01*
X124464108Y-87083385D01*
X124336812Y-87117493D01*
X124222686Y-87183385D01*
X124222683Y-87183387D01*
X124129502Y-87276568D01*
X124129500Y-87276571D01*
X124063608Y-87390697D01*
X124029500Y-87517993D01*
X123433187Y-87517993D01*
X123408994Y-87427703D01*
X123343102Y-87313575D01*
X123249916Y-87220389D01*
X123170590Y-87174590D01*
X123135789Y-87154497D01*
X123072141Y-87137443D01*
X123008494Y-87120389D01*
X122876710Y-87120389D01*
X122749414Y-87154497D01*
X122635288Y-87220389D01*
X122635285Y-87220391D01*
X122542104Y-87313572D01*
X122542102Y-87313575D01*
X122476210Y-87427701D01*
X122455012Y-87506814D01*
X122442102Y-87554997D01*
X118538945Y-87554997D01*
X118597704Y-87543309D01*
X118779783Y-87467890D01*
X118779789Y-87467886D01*
X118815885Y-87443768D01*
X118892334Y-87392686D01*
X118943651Y-87358397D01*
X119083008Y-87219040D01*
X119192501Y-87055172D01*
X119267920Y-86873093D01*
X119294398Y-86739982D01*
X119306369Y-86679801D01*
X119306369Y-86634108D01*
X120499500Y-86634108D01*
X120499500Y-86765891D01*
X120533608Y-86893187D01*
X120565586Y-86948573D01*
X120599500Y-87007314D01*
X120692686Y-87100500D01*
X120764921Y-87142205D01*
X120804288Y-87164934D01*
X120806814Y-87166392D01*
X120934108Y-87200500D01*
X120934110Y-87200500D01*
X121065890Y-87200500D01*
X121065892Y-87200500D01*
X121193186Y-87166392D01*
X121307314Y-87100500D01*
X121400500Y-87007314D01*
X121466392Y-86893186D01*
X121500500Y-86765892D01*
X121500500Y-86634108D01*
X121466392Y-86506814D01*
X121400500Y-86392686D01*
X121307314Y-86299500D01*
X121246717Y-86264514D01*
X121193187Y-86233608D01*
X121110871Y-86211552D01*
X121065892Y-86199500D01*
X120934108Y-86199500D01*
X120806812Y-86233608D01*
X120692686Y-86299500D01*
X120692683Y-86299502D01*
X120599502Y-86392683D01*
X120599500Y-86392686D01*
X120533608Y-86506812D01*
X120499500Y-86634108D01*
X119306369Y-86634108D01*
X119306369Y-86482714D01*
X119267921Y-86289428D01*
X119267920Y-86289427D01*
X119267920Y-86289423D01*
X119264952Y-86282258D01*
X119192504Y-86107350D01*
X119192497Y-86107337D01*
X119094940Y-85961333D01*
X119094939Y-85961332D01*
X119083005Y-85943472D01*
X119040100Y-85900567D01*
X122344830Y-85900567D01*
X122344830Y-86032351D01*
X122359406Y-86086750D01*
X122378938Y-86159646D01*
X122386989Y-86173590D01*
X122444830Y-86273773D01*
X122538016Y-86366959D01*
X122652144Y-86432851D01*
X122779438Y-86466959D01*
X122779440Y-86466959D01*
X122911220Y-86466959D01*
X122911222Y-86466959D01*
X123038516Y-86432851D01*
X123152644Y-86366959D01*
X123245830Y-86273773D01*
X123311722Y-86159645D01*
X123345830Y-86032351D01*
X123345830Y-85900567D01*
X123311722Y-85773273D01*
X123245830Y-85659145D01*
X123226661Y-85639976D01*
X123193176Y-85578653D01*
X123198160Y-85508961D01*
X123238864Y-85453913D01*
X123243303Y-85450505D01*
X123243314Y-85450500D01*
X123336500Y-85357314D01*
X123402392Y-85243186D01*
X123436500Y-85115892D01*
X123436500Y-84984108D01*
X123402392Y-84856814D01*
X123366997Y-84795508D01*
X123885900Y-84795508D01*
X123885900Y-84927291D01*
X123920008Y-85054587D01*
X123952954Y-85111650D01*
X123985900Y-85168714D01*
X124079086Y-85261900D01*
X124193214Y-85327792D01*
X124262849Y-85346450D01*
X124322508Y-85382813D01*
X124353038Y-85445660D01*
X124344744Y-85515035D01*
X124338142Y-85528224D01*
X124283609Y-85622677D01*
X124283609Y-85622678D01*
X124283609Y-85622679D01*
X124283608Y-85622681D01*
X124249500Y-85749975D01*
X124249500Y-85881759D01*
X124254540Y-85900567D01*
X124283608Y-86009054D01*
X124316554Y-86066117D01*
X124349500Y-86123181D01*
X124442686Y-86216367D01*
X124556814Y-86282259D01*
X124684108Y-86316367D01*
X124684110Y-86316367D01*
X124815890Y-86316367D01*
X124815892Y-86316367D01*
X124943186Y-86282259D01*
X125057314Y-86216367D01*
X125150500Y-86123181D01*
X125216392Y-86009053D01*
X125250500Y-85881759D01*
X125250500Y-85749975D01*
X125216392Y-85622681D01*
X125215630Y-85621362D01*
X125207563Y-85607388D01*
X125150500Y-85508553D01*
X125057314Y-85415367D01*
X124995949Y-85379938D01*
X124943187Y-85349475D01*
X124917712Y-85342649D01*
X124873549Y-85330816D01*
X124813890Y-85294452D01*
X124783361Y-85231605D01*
X124791656Y-85162230D01*
X124798248Y-85149057D01*
X124852792Y-85054586D01*
X124886900Y-84927292D01*
X124886900Y-84795508D01*
X124852792Y-84668214D01*
X124786900Y-84554086D01*
X124693714Y-84460900D01*
X124595005Y-84403910D01*
X124579587Y-84395008D01*
X124515939Y-84377954D01*
X124452292Y-84360900D01*
X124320508Y-84360900D01*
X124193212Y-84395008D01*
X124079086Y-84460900D01*
X124079083Y-84460902D01*
X123985902Y-84554083D01*
X123985900Y-84554086D01*
X123920008Y-84668212D01*
X123885900Y-84795508D01*
X123366997Y-84795508D01*
X123336500Y-84742686D01*
X123243314Y-84649500D01*
X123186250Y-84616554D01*
X123129187Y-84583608D01*
X123019007Y-84554086D01*
X123001892Y-84549500D01*
X122870108Y-84549500D01*
X122742812Y-84583608D01*
X122628686Y-84649500D01*
X122628683Y-84649502D01*
X122535502Y-84742683D01*
X122535500Y-84742686D01*
X122469608Y-84856812D01*
X122440108Y-84966909D01*
X122435500Y-84984108D01*
X122435500Y-85115892D01*
X122449654Y-85168716D01*
X122469608Y-85243187D01*
X122502554Y-85300250D01*
X122535500Y-85357314D01*
X122535502Y-85357316D01*
X122554668Y-85376482D01*
X122588153Y-85437805D01*
X122583169Y-85507497D01*
X122542475Y-85562538D01*
X122538013Y-85565961D01*
X122444832Y-85659142D01*
X122444830Y-85659145D01*
X122378938Y-85773271D01*
X122348558Y-85886655D01*
X122344830Y-85900567D01*
X119040100Y-85900567D01*
X118943654Y-85804121D01*
X118943650Y-85804118D01*
X118779789Y-85694629D01*
X118779776Y-85694622D01*
X118597708Y-85619208D01*
X118597698Y-85619205D01*
X118404412Y-85580758D01*
X118404410Y-85580758D01*
X118207328Y-85580758D01*
X118207326Y-85580758D01*
X118014039Y-85619205D01*
X118014029Y-85619208D01*
X117831961Y-85694622D01*
X117831948Y-85694629D01*
X117668087Y-85804118D01*
X117668083Y-85804121D01*
X117528732Y-85943472D01*
X117528729Y-85943476D01*
X117419240Y-86107337D01*
X117419233Y-86107350D01*
X117343819Y-86289418D01*
X117343816Y-86289428D01*
X117305369Y-86482714D01*
X117305369Y-86482717D01*
X117305369Y-86679799D01*
X117305369Y-86679801D01*
X117305368Y-86679801D01*
X116143567Y-86679801D01*
X116143567Y-86608200D01*
X116143567Y-86608198D01*
X116109459Y-86480904D01*
X116043567Y-86366776D01*
X115950381Y-86273590D01*
X115893317Y-86240644D01*
X115836254Y-86207698D01*
X115772606Y-86190644D01*
X115708959Y-86173590D01*
X115577175Y-86173590D01*
X115449879Y-86207698D01*
X115335753Y-86273590D01*
X115242563Y-86366779D01*
X115239874Y-86370284D01*
X115236854Y-86372488D01*
X115236820Y-86372523D01*
X115236814Y-86372517D01*
X115183443Y-86411483D01*
X115113697Y-86415633D01*
X115109410Y-86414566D01*
X115027751Y-86392686D01*
X114988549Y-86382182D01*
X114856765Y-86382182D01*
X114729469Y-86416290D01*
X114615343Y-86482182D01*
X114615340Y-86482184D01*
X114522159Y-86575365D01*
X114522157Y-86575368D01*
X114456265Y-86689494D01*
X114422157Y-86816790D01*
X113000000Y-86816790D01*
X113000000Y-85248156D01*
X116207634Y-85248156D01*
X116207634Y-85379939D01*
X116241742Y-85507235D01*
X116273672Y-85562538D01*
X116307634Y-85621362D01*
X116400820Y-85714548D01*
X116514948Y-85780440D01*
X116642242Y-85814548D01*
X116642244Y-85814548D01*
X116774024Y-85814548D01*
X116774026Y-85814548D01*
X116901320Y-85780440D01*
X117015448Y-85714548D01*
X117108634Y-85621362D01*
X117174526Y-85507234D01*
X117208634Y-85379940D01*
X117208634Y-85248156D01*
X117174526Y-85120862D01*
X117171655Y-85115890D01*
X117159136Y-85094206D01*
X117108634Y-85006734D01*
X117015448Y-84913548D01*
X116917182Y-84856814D01*
X116914631Y-84855341D01*
X116914629Y-84855339D01*
X116901323Y-84847657D01*
X116901320Y-84847656D01*
X116774026Y-84813548D01*
X116642242Y-84813548D01*
X116514946Y-84847656D01*
X116400820Y-84913548D01*
X116400817Y-84913550D01*
X116307636Y-85006731D01*
X116307634Y-85006734D01*
X116241742Y-85120860D01*
X116207634Y-85248156D01*
X113000000Y-85248156D01*
X113000000Y-84756081D01*
X117599708Y-84756081D01*
X117599708Y-84887865D01*
X117605796Y-84910587D01*
X117633816Y-85015160D01*
X117656579Y-85054586D01*
X117699708Y-85129287D01*
X117792894Y-85222473D01*
X117907022Y-85288365D01*
X118034316Y-85322473D01*
X118034318Y-85322473D01*
X118166098Y-85322473D01*
X118166100Y-85322473D01*
X118293394Y-85288365D01*
X118407522Y-85222473D01*
X118500708Y-85129287D01*
X118566600Y-85015159D01*
X118600708Y-84887865D01*
X118600708Y-84835127D01*
X120615754Y-84835127D01*
X120615754Y-84966911D01*
X120628682Y-85015159D01*
X120649862Y-85094206D01*
X120670118Y-85129289D01*
X120715754Y-85208333D01*
X120808940Y-85301519D01*
X120923068Y-85367411D01*
X121050362Y-85401519D01*
X121050364Y-85401519D01*
X121182144Y-85401519D01*
X121182146Y-85401519D01*
X121309440Y-85367411D01*
X121423568Y-85301519D01*
X121516754Y-85208333D01*
X121582646Y-85094205D01*
X121616754Y-84966911D01*
X121616754Y-84835127D01*
X121582646Y-84707833D01*
X121516754Y-84593705D01*
X121423568Y-84500519D01*
X121354943Y-84460898D01*
X121309441Y-84434627D01*
X121245793Y-84417573D01*
X121182146Y-84400519D01*
X121050362Y-84400519D01*
X120923066Y-84434627D01*
X120808940Y-84500519D01*
X120808937Y-84500521D01*
X120715756Y-84593702D01*
X120715754Y-84593705D01*
X120649862Y-84707831D01*
X120626370Y-84795508D01*
X120615754Y-84835127D01*
X118600708Y-84835127D01*
X118600708Y-84756081D01*
X118566600Y-84628787D01*
X118500708Y-84514659D01*
X118407522Y-84421473D01*
X118396403Y-84415053D01*
X118377103Y-84403910D01*
X118328889Y-84353342D01*
X118327714Y-84347247D01*
X126604900Y-84347247D01*
X126604900Y-86086752D01*
X126616531Y-86145229D01*
X126616532Y-86145230D01*
X126660847Y-86211552D01*
X126727169Y-86255867D01*
X126727170Y-86255868D01*
X126785647Y-86267499D01*
X126785650Y-86267500D01*
X127837148Y-86267500D01*
X127904187Y-86287185D01*
X127949942Y-86339989D01*
X127959886Y-86409147D01*
X127930861Y-86472703D01*
X127904482Y-86494483D01*
X127904535Y-86494552D01*
X127902602Y-86496034D01*
X127899149Y-86498886D01*
X127898091Y-86499497D01*
X127898086Y-86499500D01*
X127898083Y-86499502D01*
X127804902Y-86592683D01*
X127804900Y-86592686D01*
X127739008Y-86706812D01*
X127723178Y-86765892D01*
X127704900Y-86834108D01*
X127704900Y-86965892D01*
X127721954Y-87029539D01*
X127739008Y-87093187D01*
X127766314Y-87140481D01*
X127804900Y-87207314D01*
X127898086Y-87300500D01*
X128012214Y-87366392D01*
X128139508Y-87400500D01*
X128139510Y-87400500D01*
X128271290Y-87400500D01*
X128271292Y-87400500D01*
X128398586Y-87366392D01*
X128512714Y-87300500D01*
X128605900Y-87207314D01*
X128671792Y-87093186D01*
X128705900Y-86965892D01*
X128705900Y-86834108D01*
X128671792Y-86706814D01*
X128605900Y-86592686D01*
X128512714Y-86499500D01*
X128512712Y-86499499D01*
X128512710Y-86499497D01*
X128502353Y-86493518D01*
X128454137Y-86442951D01*
X128440915Y-86374343D01*
X128466883Y-86309479D01*
X128523797Y-86268951D01*
X128540162Y-86264514D01*
X128583629Y-86255868D01*
X128583629Y-86255867D01*
X128583631Y-86255867D01*
X128649952Y-86211552D01*
X128694267Y-86145231D01*
X128694267Y-86145229D01*
X128694268Y-86145229D01*
X128705899Y-86086752D01*
X128705900Y-86086750D01*
X128705900Y-85113530D01*
X129144900Y-85113530D01*
X129144900Y-85320469D01*
X129185268Y-85523412D01*
X129185270Y-85523420D01*
X129256187Y-85694629D01*
X129264459Y-85714598D01*
X129303663Y-85773271D01*
X129379424Y-85886657D01*
X129525742Y-86032975D01*
X129525745Y-86032977D01*
X129697802Y-86147941D01*
X129888980Y-86227130D01*
X130033452Y-86255867D01*
X130091930Y-86267499D01*
X130091934Y-86267500D01*
X130091935Y-86267500D01*
X130298866Y-86267500D01*
X130298867Y-86267499D01*
X130501820Y-86227130D01*
X130692998Y-86147941D01*
X130865055Y-86032977D01*
X131011377Y-85886655D01*
X131126341Y-85714598D01*
X131205530Y-85523420D01*
X131245900Y-85320465D01*
X131245900Y-85113535D01*
X131205530Y-84910580D01*
X131126341Y-84719402D01*
X131011377Y-84547345D01*
X131011375Y-84547342D01*
X130865057Y-84401024D01*
X130733604Y-84313191D01*
X130692998Y-84286059D01*
X130601905Y-84248327D01*
X130501820Y-84206870D01*
X130501812Y-84206868D01*
X130298869Y-84166500D01*
X130298865Y-84166500D01*
X130091935Y-84166500D01*
X130091930Y-84166500D01*
X129888987Y-84206868D01*
X129888979Y-84206870D01*
X129697803Y-84286058D01*
X129525742Y-84401024D01*
X129379424Y-84547342D01*
X129264458Y-84719403D01*
X129185270Y-84910579D01*
X129185268Y-84910587D01*
X129144900Y-85113530D01*
X128705900Y-85113530D01*
X128705900Y-84347249D01*
X128705899Y-84347247D01*
X128694268Y-84288770D01*
X128694267Y-84288769D01*
X128649952Y-84222447D01*
X128583630Y-84178132D01*
X128583629Y-84178131D01*
X128525152Y-84166500D01*
X128525148Y-84166500D01*
X126785652Y-84166500D01*
X126785647Y-84166500D01*
X126727170Y-84178131D01*
X126727169Y-84178132D01*
X126660847Y-84222447D01*
X126616532Y-84288769D01*
X126616531Y-84288770D01*
X126604900Y-84347247D01*
X118327714Y-84347247D01*
X118315667Y-84284735D01*
X118341636Y-84219871D01*
X118396778Y-84180604D01*
X118396773Y-84180591D01*
X118396831Y-84180566D01*
X118398550Y-84179343D01*
X118403304Y-84177885D01*
X118404274Y-84177483D01*
X118404277Y-84177483D01*
X118518405Y-84111591D01*
X118611591Y-84018405D01*
X118677483Y-83904277D01*
X118711591Y-83776983D01*
X118711591Y-83645199D01*
X118677483Y-83517905D01*
X118611591Y-83403777D01*
X118518405Y-83310591D01*
X118470170Y-83282742D01*
X118404278Y-83244699D01*
X118323358Y-83223017D01*
X129210591Y-83223017D01*
X129210591Y-83354800D01*
X129244699Y-83482096D01*
X129254749Y-83499502D01*
X129310591Y-83596223D01*
X129403777Y-83689409D01*
X129517905Y-83755301D01*
X129645199Y-83789409D01*
X129645201Y-83789409D01*
X129776981Y-83789409D01*
X129776983Y-83789409D01*
X129904277Y-83755301D01*
X130018405Y-83689409D01*
X130111591Y-83596223D01*
X130177483Y-83482095D01*
X130211591Y-83354801D01*
X130211591Y-83223017D01*
X130177483Y-83095723D01*
X130111591Y-82981595D01*
X130018405Y-82888409D01*
X129961341Y-82855463D01*
X129904278Y-82822517D01*
X129840630Y-82805463D01*
X129776983Y-82788409D01*
X129645199Y-82788409D01*
X129517903Y-82822517D01*
X129403777Y-82888409D01*
X129403774Y-82888411D01*
X129310593Y-82981592D01*
X129310591Y-82981595D01*
X129244699Y-83095721D01*
X129210591Y-83223017D01*
X118323358Y-83223017D01*
X118276983Y-83210591D01*
X118145199Y-83210591D01*
X118017903Y-83244699D01*
X117903777Y-83310591D01*
X117903774Y-83310593D01*
X117810593Y-83403774D01*
X117810591Y-83403777D01*
X117744699Y-83517903D01*
X117710591Y-83645199D01*
X117710591Y-83776982D01*
X117744699Y-83904278D01*
X117777645Y-83961341D01*
X117810591Y-84018405D01*
X117903777Y-84111591D01*
X117934194Y-84129152D01*
X117982409Y-84179720D01*
X117995631Y-84248327D01*
X117969663Y-84313191D01*
X117914519Y-84352458D01*
X117914526Y-84352473D01*
X117914460Y-84352499D01*
X117912749Y-84353719D01*
X117908006Y-84355173D01*
X117907022Y-84355580D01*
X117792894Y-84421473D01*
X117792891Y-84421475D01*
X117699710Y-84514656D01*
X117699708Y-84514659D01*
X117633816Y-84628785D01*
X117612636Y-84707831D01*
X117599708Y-84756081D01*
X113000000Y-84756081D01*
X113000000Y-83834108D01*
X113809288Y-83834108D01*
X113809288Y-83965891D01*
X113843396Y-84093187D01*
X113854022Y-84111591D01*
X113909288Y-84207314D01*
X114002474Y-84300500D01*
X114116602Y-84366392D01*
X114243896Y-84400500D01*
X114243898Y-84400500D01*
X114375678Y-84400500D01*
X114375680Y-84400500D01*
X114502974Y-84366392D01*
X114617102Y-84300500D01*
X114710288Y-84207314D01*
X114776180Y-84093186D01*
X114810288Y-83965892D01*
X114810288Y-83834108D01*
X114776180Y-83706814D01*
X114710288Y-83592686D01*
X114617102Y-83499500D01*
X114560038Y-83466554D01*
X114502975Y-83433608D01*
X114439327Y-83416554D01*
X114375680Y-83399500D01*
X114243896Y-83399500D01*
X114116600Y-83433608D01*
X114002474Y-83499500D01*
X114002471Y-83499502D01*
X113909290Y-83592683D01*
X113909288Y-83592686D01*
X113843396Y-83706812D01*
X113809288Y-83834108D01*
X113000000Y-83834108D01*
X113000000Y-83362909D01*
X113019685Y-83295870D01*
X113072489Y-83250115D01*
X113085675Y-83244980D01*
X113263379Y-83187241D01*
X113487845Y-83072870D01*
X113691656Y-82924793D01*
X113869793Y-82746656D01*
X114017870Y-82542845D01*
X114132241Y-82318379D01*
X114210090Y-82078785D01*
X114249500Y-81829962D01*
X114249500Y-81578038D01*
X114210090Y-81329215D01*
X114132241Y-81089621D01*
X114132239Y-81089618D01*
X114132239Y-81089616D01*
X114066727Y-80961042D01*
X114029697Y-80888368D01*
X114016802Y-80819701D01*
X114043078Y-80754960D01*
X114100185Y-80714703D01*
X114140219Y-80708075D01*
X114424217Y-80708163D01*
G37*
G04 #@! TD.AperFunction*
G04 #@! TA.AperFunction,Conductor*
G36*
X126863269Y-100411944D02*
G01*
X126863269Y-100411943D01*
X126902621Y-100357781D01*
X126999094Y-100168444D01*
X127056342Y-99992253D01*
X127095779Y-99934578D01*
X127160138Y-99907379D01*
X127228984Y-99919293D01*
X127280460Y-99966537D01*
X127288834Y-99983118D01*
X127343938Y-100116152D01*
X127357058Y-100147825D01*
X127370835Y-100168444D01*
X127472023Y-100319884D01*
X127618341Y-100466202D01*
X127618344Y-100466204D01*
X127730408Y-100541082D01*
X127775213Y-100594693D01*
X127783920Y-100664018D01*
X127753766Y-100727046D01*
X127694323Y-100763766D01*
X127661487Y-100768184D01*
X126563469Y-100767919D01*
X126496434Y-100748218D01*
X126475818Y-100731600D01*
X125877407Y-100133189D01*
X125940992Y-100116152D01*
X126055006Y-100050326D01*
X126148098Y-99957234D01*
X126213924Y-99843220D01*
X126230961Y-99779635D01*
X126863269Y-100411944D01*
G37*
G04 #@! TD.AperFunction*
G04 #@! TA.AperFunction,Conductor*
G36*
X125282074Y-99843220D02*
G01*
X125347900Y-99957234D01*
X125440992Y-100050326D01*
X125555006Y-100116152D01*
X125618590Y-100133189D01*
X125020570Y-100731208D01*
X124959247Y-100764693D01*
X124932859Y-100767527D01*
X123835830Y-100767262D01*
X123768795Y-100747561D01*
X123723053Y-100694746D01*
X123713126Y-100625585D01*
X123742167Y-100562037D01*
X123766964Y-100540163D01*
X123877654Y-100466204D01*
X124023976Y-100319882D01*
X124138940Y-100147825D01*
X124207164Y-99983116D01*
X124251003Y-99928715D01*
X124317297Y-99906650D01*
X124384997Y-99923929D01*
X124432608Y-99975066D01*
X124439655Y-99992253D01*
X124496903Y-100168443D01*
X124593374Y-100357777D01*
X124632727Y-100411943D01*
X125265036Y-99779635D01*
X125282074Y-99843220D01*
G37*
G04 #@! TD.AperFunction*
G04 #@! TD*
M02*
