G04 #@! TF.GenerationSoftware,KiCad,Pcbnew,10.0.3*
G04 #@! TF.CreationDate,2026-07-21T21:42:40-07:00*
G04 #@! TF.ProjectId,scramble_hat,73637261-6d62-46c6-955f-6861742e6b69,rev?*
G04 #@! TF.SameCoordinates,Original*
G04 #@! TF.FileFunction,Paste,Top*
G04 #@! TF.FilePolarity,Positive*
%FSLAX46Y46*%
G04 Gerber Fmt 4.6, Leading zero omitted, Abs format (unit mm)*
G04 Created by KiCad (PCBNEW 10.0.3) date 2026-07-21 21:42:40*
%MOMM*%
%LPD*%
G01*
G04 APERTURE LIST*
G04 Aperture macros list*
%AMRoundRect*
0 Rectangle with rounded corners*
0 $1 Rounding radius*
0 $2 $3 $4 $5 $6 $7 $8 $9 X,Y pos of 4 corners*
0 Add a 4 corners polygon primitive as box body*
4,1,4,$2,$3,$4,$5,$6,$7,$8,$9,$2,$3,0*
0 Add four circle primitives for the rounded corners*
1,1,$1+$1,$2,$3*
1,1,$1+$1,$4,$5*
1,1,$1+$1,$6,$7*
1,1,$1+$1,$8,$9*
0 Add four rect primitives between the rounded corners*
20,1,$1+$1,$2,$3,$4,$5,0*
20,1,$1+$1,$4,$5,$6,$7,0*
20,1,$1+$1,$6,$7,$8,$9,0*
20,1,$1+$1,$8,$9,$2,$3,0*%
G04 Aperture macros list end*
%ADD10RoundRect,0.112500X-0.187500X-0.112500X0.187500X-0.112500X0.187500X0.112500X-0.187500X0.112500X0*%
%ADD11RoundRect,0.135000X-0.135000X-0.185000X0.135000X-0.185000X0.135000X0.185000X-0.135000X0.185000X0*%
%ADD12RoundRect,0.137500X0.587500X0.137500X-0.587500X0.137500X-0.587500X-0.137500X0.587500X-0.137500X0*%
%ADD13RoundRect,0.250000X-0.250000X-0.475000X0.250000X-0.475000X0.250000X0.475000X-0.250000X0.475000X0*%
%ADD14RoundRect,0.250000X-0.450000X0.262500X-0.450000X-0.262500X0.450000X-0.262500X0.450000X0.262500X0*%
%ADD15R,2.800000X2.200000*%
%ADD16R,2.800000X2.800000*%
%ADD17R,2.800000X2.600000*%
%ADD18RoundRect,0.150000X-0.512500X-0.150000X0.512500X-0.150000X0.512500X0.150000X-0.512500X0.150000X0*%
%ADD19RoundRect,0.140000X-0.140000X-0.170000X0.140000X-0.170000X0.140000X0.170000X-0.140000X0.170000X0*%
%ADD20RoundRect,0.135000X0.135000X0.185000X-0.135000X0.185000X-0.135000X-0.185000X0.135000X-0.185000X0*%
%ADD21RoundRect,0.137500X-0.587500X-0.137500X0.587500X-0.137500X0.587500X0.137500X-0.587500X0.137500X0*%
G04 APERTURE END LIST*
D10*
G04 #@! TO.C,D1*
X107075628Y-85442625D03*
X109175628Y-85442625D03*
G04 #@! TD*
D11*
G04 #@! TO.C,R18*
X115490000Y-94000000D03*
X116510000Y-94000000D03*
G04 #@! TD*
D12*
G04 #@! TO.C,K1*
X120000000Y-91040000D03*
X120000000Y-88500000D03*
X114500000Y-88500000D03*
X114500000Y-91040000D03*
G04 #@! TD*
D13*
G04 #@! TO.C,C14*
X109620800Y-94500000D03*
X111520800Y-94500000D03*
G04 #@! TD*
D11*
G04 #@! TO.C,R10*
X112060800Y-96500000D03*
X113080800Y-96500000D03*
G04 #@! TD*
D14*
G04 #@! TO.C,R16*
X129750000Y-92925000D03*
X129750000Y-94750000D03*
G04 #@! TD*
D15*
G04 #@! TO.C,J2*
X101803200Y-97358200D03*
X109203200Y-99358200D03*
D16*
X109203200Y-89958200D03*
D17*
X104753200Y-85958200D03*
G04 #@! TD*
D18*
G04 #@! TO.C,U2*
X120658100Y-84887900D03*
X120658100Y-85837900D03*
X120658100Y-86787900D03*
X122933100Y-86787900D03*
X122933100Y-84887900D03*
G04 #@! TD*
D13*
G04 #@! TO.C,C15*
X109620800Y-96500000D03*
X111520800Y-96500000D03*
G04 #@! TD*
D19*
G04 #@! TO.C,C21*
X124386400Y-84861400D03*
X125346400Y-84861400D03*
G04 #@! TD*
D11*
G04 #@! TO.C,R17*
X116490000Y-92250000D03*
X117510000Y-92250000D03*
G04 #@! TD*
D20*
G04 #@! TO.C,R13*
X101932077Y-85799746D03*
X100912077Y-85799746D03*
G04 #@! TD*
D19*
G04 #@! TO.C,C22*
X124361000Y-86741000D03*
X125321000Y-86741000D03*
G04 #@! TD*
D11*
G04 #@! TO.C,R11*
X100929852Y-84431076D03*
X101949852Y-84431076D03*
G04 #@! TD*
G04 #@! TO.C,R14*
X113990000Y-87250000D03*
X115010000Y-87250000D03*
G04 #@! TD*
G04 #@! TO.C,R9*
X112060800Y-94500000D03*
X113080800Y-94500000D03*
G04 #@! TD*
D21*
G04 #@! TO.C,K2*
X122005307Y-92835059D03*
X122005307Y-95375059D03*
X127505307Y-95375059D03*
X127505307Y-92835059D03*
G04 #@! TD*
M02*
