%TF.GenerationSoftware,KiCad,Pcbnew,10.0.3*%
%TF.CreationDate,2026-06-08T18:35:06-07:00*%
%TF.ProjectId,scramble_hat,73637261-6d62-46c6-955f-6861742e6b69,rev?*%
%TF.SameCoordinates,Original*%
%TF.FileFunction,Copper,L1,Top*%
%TF.FilePolarity,Positive*%
%FSLAX46Y46*%
G04 Gerber Fmt 4.6, Leading zero omitted, Abs format (unit mm)*
G04 Created by KiCad (PCBNEW 10.0.3) date 2026-06-08 18:35:06*
%MOMM*%
%LPD*%
G01*
G04 APERTURE LIST*
G04 Aperture macros list*
%AMRoundRect*
0 Rectangle with rounded corners*
0 $1 Rounding radius*
0 $2 $3 $4 $5 $6 $7 $8 $9 X,Y pos of 4 corners*
0 Add a 4 corners polygon primitive as box body*
4,1,4,$2,$3,$4,$5,$6,$7,$8,$9,$2,$3,0*
0 Add four circle primitives for the rounded corners*
1,1,$1+$1,$2,$3*
1,1,$1+$1,$4,$5*
1,1,$1+$1,$6,$7*
1,1,$1+$1,$8,$9*
0 Add four rect primitives between the rounded corners*
20,1,$1+$1,$2,$3,$4,$5,0*
20,1,$1+$1,$4,$5,$6,$7,0*
20,1,$1+$1,$6,$7,$8,$9,0*
20,1,$1+$1,$8,$9,$2,$3,0*%
G04 Aperture macros list end*
%TA.AperFunction,SMDPad,CuDef*%
%ADD10RoundRect,0.250000X-0.312500X-1.450000X0.312500X-1.450000X0.312500X1.450000X-0.312500X1.450000X0*%
%TD*%
%TA.AperFunction,SMDPad,CuDef*%
%ADD11RoundRect,0.087500X-0.425000X-0.087500X0.425000X-0.087500X0.425000X0.087500X-0.425000X0.087500X0*%
%TD*%
%TA.AperFunction,SMDPad,CuDef*%
%ADD12RoundRect,0.250000X-0.250000X-0.475000X0.250000X-0.475000X0.250000X0.475000X-0.250000X0.475000X0*%
%TD*%
%TA.AperFunction,SMDPad,CuDef*%
%ADD13RoundRect,0.135000X-0.135000X-0.185000X0.135000X-0.185000X0.135000X0.185000X-0.135000X0.185000X0*%
%TD*%
%TA.AperFunction,SMDPad,CuDef*%
%ADD14RoundRect,0.250000X-0.262500X-0.450000X0.262500X-0.450000X0.262500X0.450000X-0.262500X0.450000X0*%
%TD*%
%TA.AperFunction,SMDPad,CuDef*%
%ADD15R,2.800000X2.200000*%
%TD*%
%TA.AperFunction,SMDPad,CuDef*%
%ADD16R,2.800000X2.800000*%
%TD*%
%TA.AperFunction,SMDPad,CuDef*%
%ADD17R,2.800000X2.600000*%
%TD*%
%TA.AperFunction,ComponentPad*%
%ADD18R,1.700000X1.700000*%
%TD*%
%TA.AperFunction,ComponentPad*%
%ADD19C,1.700000*%
%TD*%
%TA.AperFunction,SMDPad,CuDef*%
%ADD20RoundRect,0.150000X-0.512500X-0.150000X0.512500X-0.150000X0.512500X0.150000X-0.512500X0.150000X0*%
%TD*%
%TA.AperFunction,SMDPad,CuDef*%
%ADD21RoundRect,0.140000X-0.140000X-0.170000X0.140000X-0.170000X0.140000X0.170000X-0.140000X0.170000X0*%
%TD*%
%TA.AperFunction,SMDPad,CuDef*%
%ADD22RoundRect,0.135000X-0.185000X0.135000X-0.185000X-0.135000X0.185000X-0.135000X0.185000X0.135000X0*%
%TD*%
%TA.AperFunction,ComponentPad*%
%ADD23C,1.600000*%
%TD*%
%TA.AperFunction,SMDPad,CuDef*%
%ADD24RoundRect,0.250000X-0.325000X-1.100000X0.325000X-1.100000X0.325000X1.100000X-0.325000X1.100000X0*%
%TD*%
%TA.AperFunction,ComponentPad*%
%ADD25C,2.900000*%
%TD*%
%TA.AperFunction,ComponentPad*%
%ADD26C,2.700000*%
%TD*%
%TA.AperFunction,ComponentPad*%
%ADD27C,3.200000*%
%TD*%
%TA.AperFunction,ComponentPad*%
%ADD28C,3.400000*%
%TD*%
%TA.AperFunction,ComponentPad*%
%ADD29O,1.600000X1.600000*%
%TD*%
%TA.AperFunction,ViaPad*%
%ADD30C,0.600000*%
%TD*%
%TA.AperFunction,Conductor*%
%ADD31C,0.200000*%
%TD*%
G04 APERTURE END LIST*
D10*
%TO.P,F1,1*%
%TO.N,V_PoE*%
X104974300Y-82626200D03*
%TO.P,F1,2*%
%TO.N,V_FILT*%
X109249300Y-82626200D03*
%TD*%
D11*
%TO.P,D1,1,K_1*%
%TO.N,MIC1N*%
X107214800Y-86350000D03*
%TO.P,D1,2,A_2*%
%TO.N,AGND*%
X107214800Y-87000000D03*
%TO.P,D1,3*%
%TO.N,N/C*%
X107214800Y-87650000D03*
%TO.P,D1,4*%
X108889800Y-87650000D03*
%TO.P,D1,5*%
X108889800Y-86350000D03*
%TD*%
D12*
%TO.P,C14,1*%
%TO.N,HP_L_OUT*%
X109620800Y-94500000D03*
%TO.P,C14,2*%
%TO.N,HP_L*%
X111520800Y-94500000D03*
%TD*%
D13*
%TO.P,R10,1*%
%TO.N,HP_R*%
X112060800Y-96500000D03*
%TO.P,R10,2*%
%TO.N,ROUTP*%
X113080800Y-96500000D03*
%TD*%
D14*
%TO.P,R16,1*%
%TO.N,V_PHANTOM*%
X128244600Y-87198200D03*
%TO.P,R16,2*%
%TO.N,PHANTOM_LED*%
X130069600Y-87198200D03*
%TD*%
D15*
%TO.P,J2,R,R1_ROUT_R*%
%TO.N,HP_R_OUT*%
X101803200Y-97358200D03*
%TO.P,J2,S,S_MIC_S*%
%TO.N,MIC2_RAW*%
X109203200Y-99358200D03*
D16*
%TO.P,J2,T,T_LOUT_T*%
%TO.N,HP_L_OUT*%
X109203200Y-89958200D03*
D17*
%TO.P,J2,TN,R2_GND_TN*%
%TO.N,AGND*%
X104753200Y-85958200D03*
%TD*%
D18*
%TO.P,J3,1,Pin_1_1*%
%TO.N,ASDOUT*%
X115570000Y-81915000D03*
D19*
%TO.P,J3,2,Pin_2_2*%
%TO.N,LRCK*%
X118110000Y-81915000D03*
%TO.P,J3,3,Pin_3_3*%
%TO.N,AGND*%
X120650000Y-81915000D03*
%TO.P,J3,4,Pin_4_4*%
%TO.N,DSDIN*%
X123190000Y-81915000D03*
%TO.P,J3,5,Pin_5_5*%
%TO.N,BCLK*%
X125730000Y-81915000D03*
%TO.P,J3,6,Pin_6_6*%
%TO.N,MCLK*%
X128270000Y-81915000D03*
%TO.P,J3,7,Pin_7_7*%
%TO.N,PHANTOM_EN*%
X130810000Y-81915000D03*
%TD*%
D20*
%TO.P,U2,1,IN_1*%
%TO.N,+5V*%
X120658100Y-84887900D03*
%TO.P,U2,2,GND_2*%
%TO.N,AGND*%
X120658100Y-85837900D03*
%TO.P,U2,3,EN_3*%
%TO.N,+5V*%
X120658100Y-86787900D03*
%TO.P,U2,4,NC_4*%
%TO.N,unconnected-(U2-NC-Pad4)*%
X122933100Y-86787900D03*
%TO.P,U2,5,OUT_5*%
%TO.N,+3V3_A*%
X122933100Y-84887900D03*
%TD*%
D12*
%TO.P,C15,1*%
%TO.N,HP_R_OUT*%
X109620800Y-96500000D03*
%TO.P,C15,2*%
%TO.N,HP_R*%
X111520800Y-96500000D03*
%TD*%
D21*
%TO.P,C21,1*%
%TO.N,+5V*%
X124386400Y-84861400D03*
%TO.P,C21,2*%
%TO.N,AGND*%
X125346400Y-84861400D03*
%TD*%
D22*
%TO.P,R13,1*%
%TO.N,OK1_COLLECTOR*%
X101701600Y-87960200D03*
%TO.P,R13,2*%
%TO.N,Q1_GATE*%
X101701600Y-88980200D03*
%TD*%
D21*
%TO.P,C22,1*%
%TO.N,+3V3_A*%
X124361000Y-86741000D03*
%TO.P,C22,2*%
%TO.N,AGND*%
X125321000Y-86741000D03*
%TD*%
D18*
%TO.P,J4,1,Pin_1_1*%
%TO.N,+5V*%
X115570000Y-99491800D03*
D19*
%TO.P,J4,2,Pin_2_2*%
%TO.N,unconnected-(J4-Pin_2-Pad2)*%
X118110000Y-99491800D03*
%TO.P,J4,3,Pin_3_3*%
%TO.N,AGND*%
X120650000Y-99491800D03*
%TO.P,J4,4,Pin_4_4*%
%TO.N,unconnected-(J4-Pin_4-Pad4)*%
X123190000Y-99491800D03*
%TO.P,J4,5,Pin_5_5*%
%TO.N,+3V3*%
X125730000Y-99491800D03*
%TO.P,J4,6,Pin_6_6*%
%TO.N,SCL*%
X128270000Y-99491800D03*
%TO.P,J4,7,Pin_7_7*%
%TO.N,SDA*%
X130810000Y-99491800D03*
%TD*%
D18*
%TO.P,J5,1,Pin_1_1*%
%TO.N,V_PoE*%
X127553800Y-93192600D03*
D19*
%TO.P,J5,2,Pin_2_2*%
%TO.N,PGND*%
X130093800Y-93192600D03*
%TD*%
D23*
%TO.P,C19,1*%
%TO.N,PGND*%
X110794800Y-86207600D03*
%TO.P,C19,2*%
%TO.N,AGND*%
X118294800Y-86207600D03*
%TD*%
D13*
%TO.P,R11,1*%
%TO.N,Q1_GATE*%
X102158800Y-81864200D03*
%TO.P,R11,2*%
%TO.N,V_FILT*%
X103178800Y-81864200D03*
%TD*%
%TO.P,R14,1*%
%TO.N,PGND*%
X113485200Y-88112600D03*
%TO.P,R14,2*%
%TO.N,AGND*%
X114505200Y-88112600D03*
%TD*%
D24*
%TO.P,C16,1*%
%TO.N,V_FILT*%
X99466400Y-84074000D03*
%TO.P,C16,2*%
%TO.N,PGND*%
X102416400Y-84074000D03*
%TD*%
D25*
%TO.P,J1,1,XLR_1_1*%
%TO.N,PGND*%
X94996000Y-97764600D03*
%TO.P,J1,2,XLR_2_2*%
%TO.N,XLR2_HOT*%
X95631000Y-83794600D03*
D26*
%TO.P,J1,3,XLR_3_3*%
%TO.N,XLR3_COLD*%
X100076000Y-90779600D03*
D27*
%TO.P,J1,G,JACK_G_G*%
%TO.N,PGND*%
X83566000Y-99034600D03*
D26*
%TO.P,J1,R,JACK_R_R*%
%TO.N,unconnected-(J1-JACK_R-PadR)*%
X99441000Y-87922100D03*
%TO.P,J1,S,JACK_S_S*%
%TO.N,PGND*%
X99441000Y-93637100D03*
D28*
%TO.P,J1,T,JACK_T_T*%
%TO.N,unconnected-(J1-JACK_T-PadT)*%
X92456000Y-95224600D03*
X92456000Y-86334600D03*
%TD*%
D13*
%TO.P,R9,1*%
%TO.N,HP_L*%
X112060800Y-94500000D03*
%TO.P,R9,2*%
%TO.N,LOUTP*%
X113080800Y-94500000D03*
%TD*%
D29*
%TO.P,SW1,1,A_1*%
%TO.N,+3V3*%
X125399800Y-89966800D03*
D23*
%TO.P,SW1,2,B_2*%
%TO.N,PHANTOM_SW*%
X127939800Y-89966800D03*
D29*
%TO.P,SW1,3,C_3*%
%TO.N,AGND*%
X130479800Y-89966800D03*
%TD*%
D30*
%TO.N,V_PoE*%
X127343919Y-91168998D03*
%TO.N,V_FILT*%
X99466400Y-84074000D03*
X103178800Y-81864200D03*
X97002600Y-86258400D03*
X112653791Y-86228209D03*
X106451400Y-81915000D03*
X97078800Y-91668600D03*
X110159800Y-84433200D03*
%TO.N,MIC1N*%
X112081400Y-89516617D03*
X106603199Y-85672176D03*
X117317727Y-89806278D03*
%TO.N,AGND*%
X122041000Y-88321800D03*
X117729000Y-93827600D03*
X113614200Y-91617800D03*
X122928284Y-86037902D03*
X123596400Y-88620600D03*
X119109986Y-88594149D03*
X127000000Y-83210400D03*
X116273000Y-92287000D03*
X123757600Y-87511800D03*
X114071400Y-85217000D03*
X118980000Y-84500000D03*
X113800800Y-96672400D03*
X107848400Y-87000000D03*
X121005600Y-95834200D03*
X123351201Y-95772636D03*
%TO.N,ROUTP*%
X114372087Y-94072800D03*
%TO.N,V_PHANTOM*%
X110312200Y-83261200D03*
X97028000Y-81957000D03*
X100406200Y-81940400D03*
%TO.N,PHANTOM_LED*%
X130073400Y-87198200D03*
%TO.N,MIC2_RAW*%
X109203200Y-99358200D03*
X117271800Y-96545400D03*
%TO.N,ASDOUT*%
X114866961Y-94732113D03*
X127508000Y-95148400D03*
X114302909Y-97443200D03*
%TO.N,LRCK*%
X114805437Y-95538530D03*
X121919220Y-93760201D03*
%TO.N,DSDIN*%
X114992064Y-96576720D03*
X124798000Y-94310200D03*
%TO.N,BCLK*%
X125171200Y-93091000D03*
X117119400Y-94673000D03*
%TO.N,MCLK*%
X119354600Y-98171000D03*
X119735600Y-95885000D03*
X123723400Y-97917000D03*
%TO.N,+5V*%
X123607791Y-93670774D03*
X120680029Y-86881584D03*
X124386400Y-84861400D03*
X121405092Y-84612181D03*
%TO.N,+3V3_A*%
X122936000Y-85050000D03*
%TO.N,OK1_COLLECTOR*%
X101676200Y-87934800D03*
%TO.N,Q1_GATE*%
X96799400Y-89789000D03*
X112572493Y-87562600D03*
X102166359Y-81856641D03*
X113691365Y-89120761D03*
%TO.N,+3V3*%
X123020000Y-91694000D03*
X126466600Y-98831400D03*
X118541800Y-93811000D03*
X130145600Y-97561400D03*
%TO.N,SCL*%
X125137000Y-96647000D03*
X119181543Y-92322732D03*
%TO.N,SDA*%
X118650750Y-91575000D03*
X125374722Y-95882923D03*
%TO.N,PGND*%
X98425000Y-82550000D03*
X102416400Y-84074000D03*
X88976200Y-88646000D03*
X85979000Y-82067400D03*
X112014000Y-84988400D03*
X126974600Y-86893400D03*
%TO.N,XLR2_HOT*%
X95834200Y-88108800D03*
%TO.N,XLR3_COLD*%
X92659200Y-83307000D03*
%TO.N,LOUTP*%
X113080800Y-94513400D03*
%TO.N,OK1_LED_A*%
X105029000Y-87960200D03*
X107340400Y-88341200D03*
%TO.N,DACVREF*%
X123596400Y-92506800D03*
X113841755Y-93445555D03*
%TO.N,MIC1P*%
X117703600Y-90449400D03*
X112416502Y-90596703D03*
X95834200Y-95194200D03*
X108051600Y-93980000D03*
%TO.N,ADCVREF*%
X115321162Y-89437000D03*
X119659400Y-89805600D03*
%TO.N,PHANTOM_SW*%
X112081400Y-91389200D03*
%TO.N,AD0*%
X119640810Y-90848990D03*
X124028200Y-89966800D03*
%TO.N,VMID*%
X112943450Y-92293250D03*
X119710200Y-92972800D03*
%TO.N,MIC2P*%
X108051600Y-95529400D03*
X111264092Y-88643489D03*
%TO.N,MIC2N*%
X111962600Y-92760200D03*
X112003227Y-88770701D03*
%TD*%
%TO.N,V_PoE*%
D31*
X126060200Y-88849200D02*
X124272618Y-88849200D01*
X106295100Y-83947000D02*
X104974300Y-82626200D01*
X113225469Y-89670761D02*
X112553227Y-88998519D01*
X109702600Y-86715600D02*
X109702600Y-85902800D01*
X123866218Y-89255600D02*
X118135400Y-89255600D01*
X118135400Y-89255600D02*
X117766800Y-88887000D01*
X115093989Y-88887000D02*
X114310228Y-89670761D01*
X117766800Y-88887000D02*
X115093989Y-88887000D01*
X127236509Y-91117709D02*
X126695200Y-90576400D01*
X107746800Y-83947000D02*
X106295100Y-83947000D01*
X127292630Y-91117709D02*
X127236509Y-91117709D01*
X126695200Y-89484200D02*
X126060200Y-88849200D01*
X114310228Y-89670761D02*
X113225469Y-89670761D01*
X111062000Y-88075000D02*
X109702600Y-86715600D01*
X112553227Y-88542883D02*
X112085344Y-88075000D01*
X127343919Y-91168998D02*
X127292630Y-91117709D01*
X126695200Y-90576400D02*
X126695200Y-89484200D01*
X112085344Y-88075000D02*
X111062000Y-88075000D01*
X109702600Y-85902800D02*
X107746800Y-83947000D01*
X112553227Y-88998519D02*
X112553227Y-88542883D01*
X124272618Y-88849200D02*
X123866218Y-89255600D01*
%TO.N,V_FILT*%
X97002600Y-88671400D02*
X97002600Y-86258400D01*
X109249300Y-83522700D02*
X109249300Y-82626200D01*
X110595200Y-84433200D02*
X110159800Y-84433200D01*
X112390209Y-86228209D02*
X110595200Y-84433200D01*
X110159800Y-84433200D02*
X109249300Y-83522700D01*
X99466400Y-83688386D02*
X101950986Y-81203800D01*
X97349400Y-89018200D02*
X97002600Y-88671400D01*
X102518400Y-81203800D02*
X103178800Y-81864200D01*
X97078800Y-91668600D02*
X97349400Y-91398000D01*
X112653791Y-86228209D02*
X112390209Y-86228209D01*
X97349400Y-91398000D02*
X97349400Y-89018200D01*
X101950986Y-81203800D02*
X102518400Y-81203800D01*
X99466400Y-84074000D02*
X99466400Y-83688386D01*
X109137500Y-83661300D02*
X107391200Y-81915000D01*
X107391200Y-81915000D02*
X106451400Y-81915000D01*
X109137500Y-84000000D02*
X109137500Y-83661300D01*
%TO.N,MIC1N*%
X106603199Y-85790699D02*
X107162500Y-86350000D01*
X112966825Y-90144600D02*
X115162712Y-90144600D01*
X115320312Y-89987000D02*
X117137005Y-89987000D01*
X112081400Y-89516617D02*
X112338842Y-89516617D01*
X112338842Y-89516617D02*
X112966825Y-90144600D01*
X106603199Y-85672176D02*
X106603199Y-85790699D01*
X115162712Y-90144600D02*
X115320312Y-89987000D01*
X117137005Y-89987000D02*
X117317727Y-89806278D01*
%TO.N,AGND*%
X119127051Y-88594149D02*
X119490400Y-88230800D01*
X123289637Y-95834200D02*
X123351201Y-95772636D01*
X123571000Y-88595200D02*
X122314400Y-88595200D01*
X122314400Y-88595200D02*
X122041000Y-88321800D01*
X125321000Y-84886800D02*
X125346400Y-84861400D01*
X120548400Y-96115094D02*
X120548400Y-99390200D01*
X123757600Y-87511800D02*
X124550200Y-87511800D01*
X121005600Y-95834200D02*
X120829294Y-95834200D01*
X107214800Y-87000000D02*
X105795000Y-87000000D01*
X114505200Y-85650800D02*
X114505200Y-88112600D01*
X120746200Y-99491800D02*
X120650000Y-99491800D01*
X121950000Y-88230800D02*
X122041000Y-88321800D01*
X120827800Y-99410200D02*
X120746200Y-99491800D01*
X119490400Y-88230800D02*
X121950000Y-88230800D01*
X125377000Y-86715600D02*
X125377000Y-86597800D01*
X118980000Y-84500000D02*
X119062000Y-84582000D01*
X114071400Y-85217000D02*
X114505200Y-85650800D01*
X107848400Y-87000000D02*
X107214800Y-87000000D01*
X123596400Y-88620600D02*
X123571000Y-88595200D01*
X125321000Y-86741000D02*
X125321000Y-84886800D01*
X119109986Y-88594149D02*
X119127051Y-88594149D01*
X120658100Y-85837900D02*
X120051700Y-85837900D01*
X121005600Y-95834200D02*
X123289637Y-95834200D01*
X105795000Y-87000000D02*
X104753200Y-85958200D01*
X124550200Y-87511800D02*
X125321000Y-86741000D01*
X114505200Y-88112600D02*
X114505200Y-88110600D01*
X120051700Y-85837900D02*
X119659400Y-85445600D01*
X120829294Y-95834200D02*
X120548400Y-96115094D01*
X114505200Y-88110600D02*
X114528600Y-88087200D01*
X119659400Y-85445600D02*
X119056800Y-85445600D01*
X119056800Y-85445600D02*
X118294800Y-86207600D01*
X120548400Y-99390200D02*
X120650000Y-99491800D01*
%TO.N,HP_L_OUT*%
X109474000Y-91363800D02*
X109474000Y-94353200D01*
X109474000Y-94353200D02*
X109620800Y-94500000D01*
%TO.N,HP_L*%
X111520800Y-94500000D02*
X112060800Y-94500000D01*
%TO.N,HP_R*%
X111520800Y-96500000D02*
X112060800Y-96500000D01*
%TO.N,ROUTP*%
X114372087Y-94492113D02*
X113080800Y-95783400D01*
X113080800Y-95783400D02*
X113080800Y-96500000D01*
X114372087Y-94072800D02*
X114372087Y-94492113D01*
%TO.N,V_PHANTOM*%
X125910800Y-83950000D02*
X128244600Y-86283800D01*
X97028000Y-81957000D02*
X100389600Y-81957000D01*
X111630000Y-83950000D02*
X125910800Y-83950000D01*
X110941200Y-83261200D02*
X111630000Y-83950000D01*
X128244600Y-86283800D02*
X128244600Y-87198200D01*
X110312200Y-83261200D02*
X110941200Y-83261200D01*
X100389600Y-81957000D02*
X100406200Y-81940400D01*
%TO.N,PHANTOM_LED*%
X130069600Y-87198200D02*
X130073400Y-87198200D01*
%TO.N,HP_R_OUT*%
X109270600Y-96850200D02*
X109620800Y-96500000D01*
X102074000Y-96850200D02*
X109270600Y-96850200D01*
%TO.N,MIC2_RAW*%
X115982400Y-97993200D02*
X117271800Y-96703800D01*
X109203200Y-99358200D02*
X109270100Y-99291300D01*
X110568200Y-97993200D02*
X115982400Y-97993200D01*
X109270100Y-99291300D02*
X109474000Y-99291300D01*
X109203200Y-99358200D02*
X110568200Y-97993200D01*
X117271800Y-96703800D02*
X117271800Y-96545400D01*
%TO.N,ASDOUT*%
X115747800Y-82092800D02*
X115747800Y-81610200D01*
X129057400Y-92405200D02*
X129057400Y-86487000D01*
X114255437Y-95310712D02*
X114255437Y-96349219D01*
X114255437Y-96349219D02*
X114350800Y-96444582D01*
X126085600Y-83515200D02*
X117170200Y-83515200D01*
X128828800Y-94259400D02*
X128828800Y-92633800D01*
X114834036Y-94732113D02*
X114255437Y-95310712D01*
X114866961Y-94732113D02*
X114834036Y-94732113D01*
X114350800Y-97395309D02*
X114302909Y-97443200D01*
X114350800Y-96444582D02*
X114350800Y-97395309D01*
X127533400Y-95123000D02*
X127965200Y-95123000D01*
X129057400Y-86487000D02*
X126085600Y-83515200D01*
X127965200Y-95123000D02*
X128828800Y-94259400D01*
X128828800Y-92633800D02*
X129057400Y-92405200D01*
X117170200Y-83515200D02*
X115747800Y-82092800D01*
X127508000Y-95148400D02*
X127533400Y-95123000D01*
%TO.N,LRCK*%
X118028200Y-94874600D02*
X119640774Y-94874600D01*
X114805437Y-95538530D02*
X115093967Y-95250000D01*
X119640774Y-94874600D02*
X120755173Y-93760201D01*
X120755173Y-93760201D02*
X121919220Y-93760201D01*
X121919220Y-93760201D02*
X121900784Y-93760201D01*
X117652800Y-95250000D02*
X118028200Y-94874600D01*
X121900784Y-93760201D02*
X121820574Y-93679991D01*
X115093967Y-95250000D02*
X117652800Y-95250000D01*
%TO.N,DSDIN*%
X115569096Y-96576720D02*
X116514816Y-95631000D01*
X118668800Y-95224600D02*
X119862600Y-95224600D01*
X119862600Y-95224600D02*
X120777000Y-94310200D01*
X114992064Y-96576720D02*
X115569096Y-96576720D01*
X120777000Y-94310200D02*
X124798000Y-94310200D01*
X116514816Y-95631000D02*
X118262400Y-95631000D01*
X118262400Y-95631000D02*
X118668800Y-95224600D01*
%TO.N,BCLK*%
X117267800Y-94524600D02*
X117119400Y-94673000D01*
X120899625Y-93120774D02*
X119495799Y-94524600D01*
X125171200Y-93091000D02*
X125141426Y-93120774D01*
X125141426Y-93120774D02*
X120899625Y-93120774D01*
X119495799Y-94524600D02*
X117267800Y-94524600D01*
%TO.N,MCLK*%
X128270000Y-81915000D02*
X131191000Y-84836000D01*
X127845626Y-97262200D02*
X127165426Y-97942400D01*
X128447800Y-82092800D02*
X128447800Y-81610200D01*
X131343400Y-93776800D02*
X127858000Y-97262200D01*
X131343400Y-92633800D02*
X131343400Y-93776800D01*
X123748800Y-97942400D02*
X123723400Y-97917000D01*
X119735600Y-95885000D02*
X119735600Y-97790000D01*
X119735600Y-97790000D02*
X119354600Y-98171000D01*
X129407400Y-90697800D02*
X131343400Y-92633800D01*
X127165426Y-97942400D02*
X123748800Y-97942400D01*
X131191000Y-84836000D02*
X131191000Y-87604600D01*
X131191000Y-87604600D02*
X129407400Y-89388200D01*
X127858000Y-97262200D02*
X127845626Y-97262200D01*
X129407400Y-89388200D02*
X129407400Y-90697800D01*
%TO.N,+5V*%
X124993400Y-93675200D02*
X125348000Y-94029800D01*
X120658100Y-84887900D02*
X121133700Y-84887900D01*
X123612217Y-93675200D02*
X124993400Y-93675200D01*
X121666000Y-86283800D02*
X121161900Y-86787900D01*
X121133700Y-84887900D02*
X121666000Y-85420200D01*
X116744254Y-100666054D02*
X115570000Y-99491800D01*
X121126746Y-100666054D02*
X116744254Y-100666054D01*
X121161900Y-86787900D02*
X120658100Y-86787900D01*
X121920000Y-99872800D02*
X121126746Y-100666054D01*
X125348000Y-94616000D02*
X124358400Y-95605600D01*
X124358400Y-96316800D02*
X121920000Y-98755200D01*
X121666000Y-85420200D02*
X121666000Y-86283800D01*
X124358400Y-95605600D02*
X124358400Y-96316800D01*
X121920000Y-98755200D02*
X121920000Y-99872800D01*
X123607791Y-93670774D02*
X123612217Y-93675200D01*
X125348000Y-94029800D02*
X125348000Y-94616000D01*
%TO.N,+3V3_A*%
X122933100Y-85047100D02*
X122936000Y-85050000D01*
X124361000Y-86692800D02*
X122933100Y-85264900D01*
X122933100Y-84887900D02*
X122933100Y-85047100D01*
X122933100Y-85264900D02*
X122933100Y-84887900D01*
X124361000Y-86741000D02*
X124361000Y-86692800D01*
%TO.N,Q1_GATE*%
X95961200Y-90627200D02*
X95961200Y-92633800D01*
X101092000Y-88370600D02*
X101092000Y-82931000D01*
X95961200Y-92633800D02*
X98679000Y-95351600D01*
X101803200Y-89081800D02*
X101701600Y-88980200D01*
X112572493Y-87909093D02*
X112953800Y-88290400D01*
X112953800Y-88798400D02*
X113276161Y-89120761D01*
X100253800Y-95351600D02*
X101803200Y-93802200D01*
X112953800Y-88290400D02*
X112953800Y-88798400D01*
X98679000Y-95351600D02*
X100253800Y-95351600D01*
X101092000Y-82931000D02*
X102158800Y-81864200D01*
X101701600Y-88980200D02*
X101092000Y-88370600D01*
X113276161Y-89120761D02*
X113691365Y-89120761D01*
X112572493Y-87562600D02*
X112572493Y-87909093D01*
X96799400Y-89789000D02*
X95961200Y-90627200D01*
X101803200Y-93802200D02*
X101803200Y-89081800D01*
%TO.N,+3V3*%
X130145600Y-97561400D02*
X130094800Y-97612200D01*
X130094800Y-97612200D02*
X128193800Y-97612200D01*
X126974600Y-98831400D02*
X126466600Y-98831400D01*
X128193800Y-97612200D02*
X126974600Y-98831400D01*
%TO.N,SCL*%
X124434600Y-92278200D02*
X125450600Y-92278200D01*
X119181543Y-92322732D02*
X119200675Y-92303600D01*
X119200675Y-92303600D02*
X121513600Y-92303600D01*
X125721200Y-94750800D02*
X124790200Y-95681800D01*
X125450600Y-92278200D02*
X125721200Y-92548800D01*
X121513600Y-92303600D02*
X122707400Y-91109800D01*
X124790200Y-96300200D02*
X125137000Y-96647000D01*
X123266200Y-91109800D02*
X124434600Y-92278200D01*
X125721200Y-92548800D02*
X125721200Y-94750800D01*
X124790200Y-95681800D02*
X124790200Y-96300200D01*
X122707400Y-91109800D02*
X123266200Y-91109800D01*
%TO.N,SDA*%
X118845950Y-91770200D02*
X121552026Y-91770200D01*
X125374722Y-95630678D02*
X125374722Y-95882923D01*
X118650750Y-91575000D02*
X118845950Y-91770200D01*
X125595574Y-91928200D02*
X126071200Y-92403826D01*
X126071200Y-92403826D02*
X126071200Y-94895774D01*
X123411174Y-90759800D02*
X124579574Y-91928200D01*
X126071200Y-94895774D02*
X125355509Y-95611465D01*
X124579574Y-91928200D02*
X125595574Y-91928200D01*
X121552026Y-91770200D02*
X122562426Y-90759800D01*
X125355509Y-95611465D02*
X125374722Y-95630678D01*
X122562426Y-90759800D02*
X123411174Y-90759800D01*
%TO.N,PGND*%
X124993400Y-88061800D02*
X122707400Y-88061800D01*
X116527774Y-88462600D02*
X115023414Y-88462600D01*
X126161800Y-86893400D02*
X124993400Y-88061800D01*
X112014000Y-84988400D02*
X112191800Y-84988400D01*
X114803414Y-88682600D02*
X114055200Y-88682600D01*
X113485200Y-86281800D02*
X113485200Y-88112600D01*
X115023414Y-88462600D02*
X114803414Y-88682600D01*
X116877774Y-88112600D02*
X116527774Y-88462600D01*
X112191800Y-84988400D02*
X113485200Y-86281800D01*
X122707400Y-88061800D02*
X122174000Y-87528400D01*
X114055200Y-88682600D02*
X113485200Y-88112600D01*
X118813717Y-88112600D02*
X116877774Y-88112600D01*
X126974600Y-86893400D02*
X126161800Y-86893400D01*
X119397917Y-87528400D02*
X118813717Y-88112600D01*
X122174000Y-87528400D02*
X119397917Y-87528400D01*
%TO.N,XLR2_HOT*%
X95631000Y-87905600D02*
X95834200Y-88108800D01*
X95631000Y-83794600D02*
X95631000Y-87905600D01*
%TO.N,XLR3_COLD*%
X94305200Y-81661000D02*
X92659200Y-83307000D01*
X97586800Y-83337400D02*
X95910400Y-81661000D01*
X97586800Y-88696800D02*
X97586800Y-83337400D01*
X95910400Y-81661000D02*
X94305200Y-81661000D01*
X100076000Y-90779600D02*
X99669600Y-90779600D01*
X99669600Y-90779600D02*
X97586800Y-88696800D01*
%TO.N,unconnected-(J1-JACK_T-PadT)*%
X91389200Y-86360000D02*
X91389200Y-95250000D01*
%TO.N,OK1_LED_A*%
X105410000Y-88341200D02*
X105029000Y-87960200D01*
X107340400Y-88341200D02*
X105410000Y-88341200D01*
%TO.N,DACVREF*%
X119031418Y-93522800D02*
X118754173Y-93245555D01*
X120002625Y-93522800D02*
X119031418Y-93522800D01*
X114041755Y-93245555D02*
X113841755Y-93445555D01*
X123332426Y-92770774D02*
X123596400Y-92506800D01*
X118754173Y-93245555D02*
X114041755Y-93245555D01*
X113841755Y-93445555D02*
X113919000Y-93522800D01*
X120754651Y-92770774D02*
X123332426Y-92770774D01*
X120002625Y-93522800D02*
X120754651Y-92770774D01*
%TO.N,MIC1P*%
X115544600Y-90449400D02*
X117703600Y-90449400D01*
X106273600Y-95758000D02*
X108051600Y-93980000D01*
X115366800Y-90627200D02*
X115544600Y-90449400D01*
X95834200Y-95194200D02*
X96398000Y-95758000D01*
X112416502Y-90596703D02*
X112446999Y-90627200D01*
X96398000Y-95758000D02*
X106273600Y-95758000D01*
X112446999Y-90627200D02*
X115366800Y-90627200D01*
%TO.N,ADCVREF*%
X118094867Y-89805600D02*
X117545545Y-89256278D01*
X117545545Y-89256278D02*
X115501884Y-89256278D01*
X119659400Y-89805600D02*
X118094867Y-89805600D01*
X115501884Y-89256278D02*
X115321162Y-89437000D01*
%TO.N,PHANTOM_SW*%
X112766711Y-91024312D02*
X112401823Y-91389200D01*
X125843974Y-91567000D02*
X124713349Y-91567000D01*
X119868628Y-91398990D02*
X119253990Y-91398990D01*
X127508000Y-91871800D02*
X126148774Y-91871800D01*
X124713349Y-91567000D02*
X123556149Y-90409800D01*
X120857818Y-90409800D02*
X119868628Y-91398990D01*
X127939800Y-89966800D02*
X127939800Y-91440000D01*
X112401823Y-91389200D02*
X112081400Y-91389200D01*
X127939800Y-91440000D02*
X127508000Y-91871800D01*
X119253990Y-91398990D02*
X118879312Y-91024312D01*
X123556149Y-90409800D02*
X120857818Y-90409800D01*
X126148774Y-91871800D02*
X125843974Y-91567000D01*
X118879312Y-91024312D02*
X112766711Y-91024312D01*
%TO.N,AD0*%
X124028200Y-89966800D02*
X123926600Y-89966800D01*
X123863100Y-89903300D02*
X120586500Y-89903300D01*
X120586500Y-89903300D02*
X119640810Y-90848990D01*
X123926600Y-89966800D02*
X123863100Y-89903300D01*
%TO.N,VMID*%
X119710200Y-92972800D02*
X119632955Y-92895555D01*
X113545755Y-92895555D02*
X112943450Y-92293250D01*
X119632955Y-92895555D02*
X113545755Y-92895555D01*
%TO.N,MIC2P*%
X110566200Y-93615566D02*
X110566200Y-95123000D01*
X110566200Y-95123000D02*
X110185200Y-95504000D01*
X108077000Y-95504000D02*
X108051600Y-95529400D01*
X110972600Y-88934981D02*
X110972600Y-93209166D01*
X110185200Y-95504000D02*
X108077000Y-95504000D01*
X110972600Y-93209166D02*
X110566200Y-93615566D01*
X111264092Y-88643489D02*
X110972600Y-88934981D01*
%TO.N,MIC2N*%
X111531400Y-89154000D02*
X111531400Y-92329000D01*
X112003227Y-88770701D02*
X111914699Y-88770701D01*
X111914699Y-88770701D02*
X111531400Y-89154000D01*
X111531400Y-92329000D02*
X111962600Y-92760200D01*
%TD*%
M02*
